<?xml version="1.0" encoding="utf-8" standalone="no"?>
<!DOCTYPE svg PUBLIC "-//W3C//DTD SVG 1.1//EN"
  "http://www.w3.org/Graphics/SVG/1.1/DTD/svg11.dtd">
<!-- Created with matplotlib (https://matplotlib.org/) -->
<svg height="336.634375pt" version="1.1" viewBox="0 0 479.07125 336.634375" width="479.07125pt" xmlns="http://www.w3.org/2000/svg" xmlns:xlink="http://www.w3.org/1999/xlink">
 <metadata>
  <rdf:RDF xmlns:cc="http://creativecommons.org/ns#" xmlns:dc="http://purl.org/dc/elements/1.1/" xmlns:rdf="http://www.w3.org/1999/02/22-rdf-syntax-ns#">
   <cc:Work>
    <dc:type rdf:resource="http://purl.org/dc/dcmitype/StillImage"/>
    <dc:date>2021-01-16T12:35:31.592090</dc:date>
    <dc:format>image/svg+xml</dc:format>
    <dc:creator>
     <cc:Agent>
      <dc:title>Matplotlib v3.3.2, https://matplotlib.org/</dc:title>
     </cc:Agent>
    </dc:creator>
   </cc:Work>
  </rdf:RDF>
 </metadata>
 <defs>
  <style type="text/css">*{stroke-linecap:butt;stroke-linejoin:round;}</style>
 </defs>
 <g id="figure_1">
  <g id="patch_1">
   <path d="M 0 336.634375 
L 479.07125 336.634375 
L 479.07125 0 
L 0 0 
z
" style="fill:#ffffff;"/>
  </g>
  <g id="axes_1">
   <g id="patch_2">
    <path d="M 204.7 131.678125 
L 446.1 131.678125 
L 446.1 22.318125 
L 204.7 22.318125 
z
" style="fill:#ffffff;"/>
   </g>
   <g id="patch_3">
    <path clip-path="url(#p7463cd0e4d)" d="M 331.683941 126.707216 
L 215.672727 126.707216 
L 215.672727 117.669199 
L 331.683941 117.669199 
z
" style="fill:#ff0000;"/>
   </g>
   <g id="patch_4">
    <path clip-path="url(#p7463cd0e4d)" d="M 331.683941 115.409695 
L 219.539768 115.409695 
L 219.539768 106.371679 
L 331.683941 106.371679 
z
" style="fill:#ff0000;"/>
   </g>
   <g id="patch_5">
    <path clip-path="url(#p7463cd0e4d)" d="M 331.683941 104.112175 
L 220.989908 104.112175 
L 220.989908 95.074158 
L 331.683941 95.074158 
z
" style="fill:#ff0000;"/>
   </g>
   <g id="patch_6">
    <path clip-path="url(#p7463cd0e4d)" d="M 331.683941 92.814654 
L 225.823708 92.814654 
L 225.823708 83.776637 
L 331.683941 83.776637 
z
" style="fill:#ff0000;"/>
   </g>
   <g id="patch_7">
    <path clip-path="url(#p7463cd0e4d)" d="M 331.683941 81.517133 
L 227.757229 81.517133 
L 227.757229 72.479117 
L 331.683941 72.479117 
z
" style="fill:#ff0000;"/>
   </g>
   <g id="patch_8">
    <path clip-path="url(#p7463cd0e4d)" d="M 331.683941 70.219613 
L 228.240609 70.219613 
L 228.240609 61.181596 
L 331.683941 61.181596 
z
" style="fill:#ff0000;"/>
   </g>
   <g id="patch_9">
    <path clip-path="url(#p7463cd0e4d)" d="M 331.683941 58.922092 
L 230.657509 58.922092 
L 230.657509 49.884075 
L 331.683941 49.884075 
z
" style="fill:#ff0000;"/>
   </g>
   <g id="patch_10">
    <path clip-path="url(#p7463cd0e4d)" d="M 331.683941 47.624571 
L 231.140889 47.624571 
L 231.140889 38.586555 
L 331.683941 38.586555 
z
" style="fill:#ff0000;"/>
   </g>
   <g id="patch_11">
    <path clip-path="url(#p7463cd0e4d)" d="M 331.683941 36.327051 
L 435.127273 36.327051 
L 435.127273 27.289034 
L 331.683941 27.289034 
z
" style="fill:#008000;"/>
   </g>
   <g id="matplotlib.axis_1">
    <g id="xtick_1">
     <g id="line2d_1">
      <defs>
       <path d="M 0 0 
L 0 3.5 
" id="m37b71ac2ab" style="stroke:#000000;stroke-width:0.8;"/>
      </defs>
      <g>
       <use style="stroke:#000000;stroke-width:0.8;" x="233.316396" xlink:href="#m37b71ac2ab" y="131.678125"/>
      </g>
     </g>
     <g id="text_1">
      <!-- −0.3 -->
      <g transform="translate(221.17499 146.276562)scale(0.1 -0.1)">
       <defs>
        <path d="M 10.59375 35.5 
L 73.1875 35.5 
L 73.1875 27.203125 
L 10.59375 27.203125 
z
" id="DejaVuSans-8722"/>
        <path d="M 31.78125 66.40625 
Q 24.171875 66.40625 20.328125 58.90625 
Q 16.5 51.421875 16.5 36.375 
Q 16.5 21.390625 20.328125 13.890625 
Q 24.171875 6.390625 31.78125 6.390625 
Q 39.453125 6.390625 43.28125 13.890625 
Q 47.125 21.390625 47.125 36.375 
Q 47.125 51.421875 43.28125 58.90625 
Q 39.453125 66.40625 31.78125 66.40625 
z
M 31.78125 74.21875 
Q 44.046875 74.21875 50.515625 64.515625 
Q 56.984375 54.828125 56.984375 36.375 
Q 56.984375 17.96875 50.515625 8.265625 
Q 44.046875 -1.421875 31.78125 -1.421875 
Q 19.53125 -1.421875 13.0625 8.265625 
Q 6.59375 17.96875 6.59375 36.375 
Q 6.59375 54.828125 13.0625 64.515625 
Q 19.53125 74.21875 31.78125 74.21875 
z
" id="DejaVuSans-48"/>
        <path d="M 10.6875 12.40625 
L 21 12.40625 
L 21 0 
L 10.6875 0 
z
" id="DejaVuSans-46"/>
        <path d="M 40.578125 39.3125 
Q 47.65625 37.796875 51.625 33 
Q 55.609375 28.21875 55.609375 21.1875 
Q 55.609375 10.40625 48.1875 4.484375 
Q 40.765625 -1.421875 27.09375 -1.421875 
Q 22.515625 -1.421875 17.65625 -0.515625 
Q 12.796875 0.390625 7.625 2.203125 
L 7.625 11.71875 
Q 11.71875 9.328125 16.59375 8.109375 
Q 21.484375 6.890625 26.8125 6.890625 
Q 36.078125 6.890625 40.9375 10.546875 
Q 45.796875 14.203125 45.796875 21.1875 
Q 45.796875 27.640625 41.28125 31.265625 
Q 36.765625 34.90625 28.71875 34.90625 
L 20.21875 34.90625 
L 20.21875 43.015625 
L 29.109375 43.015625 
Q 36.375 43.015625 40.234375 45.921875 
Q 44.09375 48.828125 44.09375 54.296875 
Q 44.09375 59.90625 40.109375 62.90625 
Q 36.140625 65.921875 28.71875 65.921875 
Q 24.65625 65.921875 20.015625 65.03125 
Q 15.375 64.15625 9.8125 62.3125 
L 9.8125 71.09375 
Q 15.4375 72.65625 20.34375 73.4375 
Q 25.25 74.21875 29.59375 74.21875 
Q 40.828125 74.21875 47.359375 69.109375 
Q 53.90625 64.015625 53.90625 55.328125 
Q 53.90625 49.265625 50.4375 45.09375 
Q 46.96875 40.921875 40.578125 39.3125 
z
" id="DejaVuSans-51"/>
       </defs>
       <use xlink:href="#DejaVuSans-8722"/>
       <use x="83.789062" xlink:href="#DejaVuSans-48"/>
       <use x="147.412109" xlink:href="#DejaVuSans-46"/>
       <use x="179.199219" xlink:href="#DejaVuSans-51"/>
      </g>
     </g>
    </g>
    <g id="xtick_2">
     <g id="line2d_2">
      <g>
       <use style="stroke:#000000;stroke-width:0.8;" x="266.105578" xlink:href="#m37b71ac2ab" y="131.678125"/>
      </g>
     </g>
     <g id="text_2">
      <!-- −0.2 -->
      <g transform="translate(253.964171 146.276562)scale(0.1 -0.1)">
       <defs>
        <path d="M 19.1875 8.296875 
L 53.609375 8.296875 
L 53.609375 0 
L 7.328125 0 
L 7.328125 8.296875 
Q 12.9375 14.109375 22.625 23.890625 
Q 32.328125 33.6875 34.8125 36.53125 
Q 39.546875 41.84375 41.421875 45.53125 
Q 43.3125 49.21875 43.3125 52.78125 
Q 43.3125 58.59375 39.234375 62.25 
Q 35.15625 65.921875 28.609375 65.921875 
Q 23.96875 65.921875 18.8125 64.3125 
Q 13.671875 62.703125 7.8125 59.421875 
L 7.8125 69.390625 
Q 13.765625 71.78125 18.9375 73 
Q 24.125 74.21875 28.421875 74.21875 
Q 39.75 74.21875 46.484375 68.546875 
Q 53.21875 62.890625 53.21875 53.421875 
Q 53.21875 48.921875 51.53125 44.890625 
Q 49.859375 40.875 45.40625 35.40625 
Q 44.1875 33.984375 37.640625 27.21875 
Q 31.109375 20.453125 19.1875 8.296875 
z
" id="DejaVuSans-50"/>
       </defs>
       <use xlink:href="#DejaVuSans-8722"/>
       <use x="83.789062" xlink:href="#DejaVuSans-48"/>
       <use x="147.412109" xlink:href="#DejaVuSans-46"/>
       <use x="179.199219" xlink:href="#DejaVuSans-50"/>
      </g>
     </g>
    </g>
    <g id="xtick_3">
     <g id="line2d_3">
      <g>
       <use style="stroke:#000000;stroke-width:0.8;" x="298.894759" xlink:href="#m37b71ac2ab" y="131.678125"/>
      </g>
     </g>
     <g id="text_3">
      <!-- −0.1 -->
      <g transform="translate(286.753353 146.276562)scale(0.1 -0.1)">
       <defs>
        <path d="M 12.40625 8.296875 
L 28.515625 8.296875 
L 28.515625 63.921875 
L 10.984375 60.40625 
L 10.984375 69.390625 
L 28.421875 72.90625 
L 38.28125 72.90625 
L 38.28125 8.296875 
L 54.390625 8.296875 
L 54.390625 0 
L 12.40625 0 
z
" id="DejaVuSans-49"/>
       </defs>
       <use xlink:href="#DejaVuSans-8722"/>
       <use x="83.789062" xlink:href="#DejaVuSans-48"/>
       <use x="147.412109" xlink:href="#DejaVuSans-46"/>
       <use x="179.199219" xlink:href="#DejaVuSans-49"/>
      </g>
     </g>
    </g>
    <g id="xtick_4">
     <g id="line2d_4">
      <g>
       <use style="stroke:#000000;stroke-width:0.8;" x="331.683941" xlink:href="#m37b71ac2ab" y="131.678125"/>
      </g>
     </g>
     <g id="text_4">
      <!-- 0.0 -->
      <g transform="translate(323.732378 146.276562)scale(0.1 -0.1)">
       <use xlink:href="#DejaVuSans-48"/>
       <use x="63.623047" xlink:href="#DejaVuSans-46"/>
       <use x="95.410156" xlink:href="#DejaVuSans-48"/>
      </g>
     </g>
    </g>
    <g id="xtick_5">
     <g id="line2d_5">
      <g>
       <use style="stroke:#000000;stroke-width:0.8;" x="364.473122" xlink:href="#m37b71ac2ab" y="131.678125"/>
      </g>
     </g>
     <g id="text_5">
      <!-- 0.1 -->
      <g transform="translate(356.52156 146.276562)scale(0.1 -0.1)">
       <use xlink:href="#DejaVuSans-48"/>
       <use x="63.623047" xlink:href="#DejaVuSans-46"/>
       <use x="95.410156" xlink:href="#DejaVuSans-49"/>
      </g>
     </g>
    </g>
    <g id="xtick_6">
     <g id="line2d_6">
      <g>
       <use style="stroke:#000000;stroke-width:0.8;" x="397.262304" xlink:href="#m37b71ac2ab" y="131.678125"/>
      </g>
     </g>
     <g id="text_6">
      <!-- 0.2 -->
      <g transform="translate(389.310741 146.276562)scale(0.1 -0.1)">
       <use xlink:href="#DejaVuSans-48"/>
       <use x="63.623047" xlink:href="#DejaVuSans-46"/>
       <use x="95.410156" xlink:href="#DejaVuSans-50"/>
      </g>
     </g>
    </g>
    <g id="xtick_7">
     <g id="line2d_7">
      <g>
       <use style="stroke:#000000;stroke-width:0.8;" x="430.051485" xlink:href="#m37b71ac2ab" y="131.678125"/>
      </g>
     </g>
     <g id="text_7">
      <!-- 0.3 -->
      <g transform="translate(422.099923 146.276562)scale(0.1 -0.1)">
       <use xlink:href="#DejaVuSans-48"/>
       <use x="63.623047" xlink:href="#DejaVuSans-46"/>
       <use x="95.410156" xlink:href="#DejaVuSans-51"/>
      </g>
     </g>
    </g>
    <g id="text_8">
     <!-- Coeff value -->
     <g transform="translate(297.005469 159.954687)scale(0.1 -0.1)">
      <defs>
       <path d="M 64.40625 67.28125 
L 64.40625 56.890625 
Q 59.421875 61.53125 53.78125 63.8125 
Q 48.140625 66.109375 41.796875 66.109375 
Q 29.296875 66.109375 22.65625 58.46875 
Q 16.015625 50.828125 16.015625 36.375 
Q 16.015625 21.96875 22.65625 14.328125 
Q 29.296875 6.6875 41.796875 6.6875 
Q 48.140625 6.6875 53.78125 8.984375 
Q 59.421875 11.28125 64.40625 15.921875 
L 64.40625 5.609375 
Q 59.234375 2.09375 53.4375 0.328125 
Q 47.65625 -1.421875 41.21875 -1.421875 
Q 24.65625 -1.421875 15.125 8.703125 
Q 5.609375 18.84375 5.609375 36.375 
Q 5.609375 53.953125 15.125 64.078125 
Q 24.65625 74.21875 41.21875 74.21875 
Q 47.75 74.21875 53.53125 72.484375 
Q 59.328125 70.75 64.40625 67.28125 
z
" id="DejaVuSans-67"/>
       <path d="M 30.609375 48.390625 
Q 23.390625 48.390625 19.1875 42.75 
Q 14.984375 37.109375 14.984375 27.296875 
Q 14.984375 17.484375 19.15625 11.84375 
Q 23.34375 6.203125 30.609375 6.203125 
Q 37.796875 6.203125 41.984375 11.859375 
Q 46.1875 17.53125 46.1875 27.296875 
Q 46.1875 37.015625 41.984375 42.703125 
Q 37.796875 48.390625 30.609375 48.390625 
z
M 30.609375 56 
Q 42.328125 56 49.015625 48.375 
Q 55.71875 40.765625 55.71875 27.296875 
Q 55.71875 13.875 49.015625 6.21875 
Q 42.328125 -1.421875 30.609375 -1.421875 
Q 18.84375 -1.421875 12.171875 6.21875 
Q 5.515625 13.875 5.515625 27.296875 
Q 5.515625 40.765625 12.171875 48.375 
Q 18.84375 56 30.609375 56 
z
" id="DejaVuSans-111"/>
       <path d="M 56.203125 29.59375 
L 56.203125 25.203125 
L 14.890625 25.203125 
Q 15.484375 15.921875 20.484375 11.0625 
Q 25.484375 6.203125 34.421875 6.203125 
Q 39.59375 6.203125 44.453125 7.46875 
Q 49.3125 8.734375 54.109375 11.28125 
L 54.109375 2.78125 
Q 49.265625 0.734375 44.1875 -0.34375 
Q 39.109375 -1.421875 33.890625 -1.421875 
Q 20.796875 -1.421875 13.15625 6.1875 
Q 5.515625 13.8125 5.515625 26.8125 
Q 5.515625 40.234375 12.765625 48.109375 
Q 20.015625 56 32.328125 56 
Q 43.359375 56 49.78125 48.890625 
Q 56.203125 41.796875 56.203125 29.59375 
z
M 47.21875 32.234375 
Q 47.125 39.59375 43.09375 43.984375 
Q 39.0625 48.390625 32.421875 48.390625 
Q 24.90625 48.390625 20.390625 44.140625 
Q 15.875 39.890625 15.1875 32.171875 
z
" id="DejaVuSans-101"/>
       <path d="M 37.109375 75.984375 
L 37.109375 68.5 
L 28.515625 68.5 
Q 23.6875 68.5 21.796875 66.546875 
Q 19.921875 64.59375 19.921875 59.515625 
L 19.921875 54.6875 
L 34.71875 54.6875 
L 34.71875 47.703125 
L 19.921875 47.703125 
L 19.921875 0 
L 10.890625 0 
L 10.890625 47.703125 
L 2.296875 47.703125 
L 2.296875 54.6875 
L 10.890625 54.6875 
L 10.890625 58.5 
Q 10.890625 67.625 15.140625 71.796875 
Q 19.390625 75.984375 28.609375 75.984375 
z
" id="DejaVuSans-102"/>
       <path id="DejaVuSans-32"/>
       <path d="M 2.984375 54.6875 
L 12.5 54.6875 
L 29.59375 8.796875 
L 46.6875 54.6875 
L 56.203125 54.6875 
L 35.6875 0 
L 23.484375 0 
z
" id="DejaVuSans-118"/>
       <path d="M 34.28125 27.484375 
Q 23.390625 27.484375 19.1875 25 
Q 14.984375 22.515625 14.984375 16.5 
Q 14.984375 11.71875 18.140625 8.90625 
Q 21.296875 6.109375 26.703125 6.109375 
Q 34.1875 6.109375 38.703125 11.40625 
Q 43.21875 16.703125 43.21875 25.484375 
L 43.21875 27.484375 
z
M 52.203125 31.203125 
L 52.203125 0 
L 43.21875 0 
L 43.21875 8.296875 
Q 40.140625 3.328125 35.546875 0.953125 
Q 30.953125 -1.421875 24.3125 -1.421875 
Q 15.921875 -1.421875 10.953125 3.296875 
Q 6 8.015625 6 15.921875 
Q 6 25.140625 12.171875 29.828125 
Q 18.359375 34.515625 30.609375 34.515625 
L 43.21875 34.515625 
L 43.21875 35.40625 
Q 43.21875 41.609375 39.140625 45 
Q 35.0625 48.390625 27.6875 48.390625 
Q 23 48.390625 18.546875 47.265625 
Q 14.109375 46.140625 10.015625 43.890625 
L 10.015625 52.203125 
Q 14.9375 54.109375 19.578125 55.046875 
Q 24.21875 56 28.609375 56 
Q 40.484375 56 46.34375 49.84375 
Q 52.203125 43.703125 52.203125 31.203125 
z
" id="DejaVuSans-97"/>
       <path d="M 9.421875 75.984375 
L 18.40625 75.984375 
L 18.40625 0 
L 9.421875 0 
z
" id="DejaVuSans-108"/>
       <path d="M 8.5 21.578125 
L 8.5 54.6875 
L 17.484375 54.6875 
L 17.484375 21.921875 
Q 17.484375 14.15625 20.5 10.265625 
Q 23.53125 6.390625 29.59375 6.390625 
Q 36.859375 6.390625 41.078125 11.03125 
Q 45.3125 15.671875 45.3125 23.6875 
L 45.3125 54.6875 
L 54.296875 54.6875 
L 54.296875 0 
L 45.3125 0 
L 45.3125 8.40625 
Q 42.046875 3.421875 37.71875 1 
Q 33.40625 -1.421875 27.6875 -1.421875 
Q 18.265625 -1.421875 13.375 4.4375 
Q 8.5 10.296875 8.5 21.578125 
z
M 31.109375 56 
z
" id="DejaVuSans-117"/>
      </defs>
      <use xlink:href="#DejaVuSans-67"/>
      <use x="69.824219" xlink:href="#DejaVuSans-111"/>
      <use x="131.005859" xlink:href="#DejaVuSans-101"/>
      <use x="192.529297" xlink:href="#DejaVuSans-102"/>
      <use x="227.734375" xlink:href="#DejaVuSans-102"/>
      <use x="262.939453" xlink:href="#DejaVuSans-32"/>
      <use x="294.726562" xlink:href="#DejaVuSans-118"/>
      <use x="353.90625" xlink:href="#DejaVuSans-97"/>
      <use x="415.185547" xlink:href="#DejaVuSans-108"/>
      <use x="442.96875" xlink:href="#DejaVuSans-117"/>
      <use x="506.347656" xlink:href="#DejaVuSans-101"/>
     </g>
    </g>
   </g>
   <g id="matplotlib.axis_2">
    <g id="ytick_1">
     <g id="line2d_8">
      <defs>
       <path d="M 0 0 
L -3.5 0 
" id="m3e632b5e2d" style="stroke:#000000;stroke-width:0.8;"/>
      </defs>
      <g>
       <use style="stroke:#000000;stroke-width:0.8;" x="204.7" xlink:href="#m3e632b5e2d" y="122.188208"/>
      </g>
     </g>
     <g id="text_9">
      <!--  g__Alistipes_0 -->
      <g transform="translate(124.795312 125.987426)scale(0.1 -0.1)">
       <defs>
        <path d="M 45.40625 27.984375 
Q 45.40625 37.75 41.375 43.109375 
Q 37.359375 48.484375 30.078125 48.484375 
Q 22.859375 48.484375 18.828125 43.109375 
Q 14.796875 37.75 14.796875 27.984375 
Q 14.796875 18.265625 18.828125 12.890625 
Q 22.859375 7.515625 30.078125 7.515625 
Q 37.359375 7.515625 41.375 12.890625 
Q 45.40625 18.265625 45.40625 27.984375 
z
M 54.390625 6.78125 
Q 54.390625 -7.171875 48.1875 -13.984375 
Q 42 -20.796875 29.203125 -20.796875 
Q 24.46875 -20.796875 20.265625 -20.09375 
Q 16.0625 -19.390625 12.109375 -17.921875 
L 12.109375 -9.1875 
Q 16.0625 -11.328125 19.921875 -12.34375 
Q 23.78125 -13.375 27.78125 -13.375 
Q 36.625 -13.375 41.015625 -8.765625 
Q 45.40625 -4.15625 45.40625 5.171875 
L 45.40625 9.625 
Q 42.625 4.78125 38.28125 2.390625 
Q 33.9375 0 27.875 0 
Q 17.828125 0 11.671875 7.65625 
Q 5.515625 15.328125 5.515625 27.984375 
Q 5.515625 40.671875 11.671875 48.328125 
Q 17.828125 56 27.875 56 
Q 33.9375 56 38.28125 53.609375 
Q 42.625 51.21875 45.40625 46.390625 
L 45.40625 54.6875 
L 54.390625 54.6875 
z
" id="DejaVuSans-103"/>
        <path d="M 50.984375 -16.609375 
L 50.984375 -23.578125 
L -0.984375 -23.578125 
L -0.984375 -16.609375 
z
" id="DejaVuSans-95"/>
        <path d="M 34.1875 63.1875 
L 20.796875 26.90625 
L 47.609375 26.90625 
z
M 28.609375 72.90625 
L 39.796875 72.90625 
L 67.578125 0 
L 57.328125 0 
L 50.6875 18.703125 
L 17.828125 18.703125 
L 11.1875 0 
L 0.78125 0 
z
" id="DejaVuSans-65"/>
        <path d="M 9.421875 54.6875 
L 18.40625 54.6875 
L 18.40625 0 
L 9.421875 0 
z
M 9.421875 75.984375 
L 18.40625 75.984375 
L 18.40625 64.59375 
L 9.421875 64.59375 
z
" id="DejaVuSans-105"/>
        <path d="M 44.28125 53.078125 
L 44.28125 44.578125 
Q 40.484375 46.53125 36.375 47.5 
Q 32.28125 48.484375 27.875 48.484375 
Q 21.1875 48.484375 17.84375 46.4375 
Q 14.5 44.390625 14.5 40.28125 
Q 14.5 37.15625 16.890625 35.375 
Q 19.28125 33.59375 26.515625 31.984375 
L 29.59375 31.296875 
Q 39.15625 29.25 43.1875 25.515625 
Q 47.21875 21.78125 47.21875 15.09375 
Q 47.21875 7.46875 41.1875 3.015625 
Q 35.15625 -1.421875 24.609375 -1.421875 
Q 20.21875 -1.421875 15.453125 -0.5625 
Q 10.6875 0.296875 5.421875 2 
L 5.421875 11.28125 
Q 10.40625 8.6875 15.234375 7.390625 
Q 20.0625 6.109375 24.8125 6.109375 
Q 31.15625 6.109375 34.5625 8.28125 
Q 37.984375 10.453125 37.984375 14.40625 
Q 37.984375 18.0625 35.515625 20.015625 
Q 33.0625 21.96875 24.703125 23.78125 
L 21.578125 24.515625 
Q 13.234375 26.265625 9.515625 29.90625 
Q 5.8125 33.546875 5.8125 39.890625 
Q 5.8125 47.609375 11.28125 51.796875 
Q 16.75 56 26.8125 56 
Q 31.78125 56 36.171875 55.265625 
Q 40.578125 54.546875 44.28125 53.078125 
z
" id="DejaVuSans-115"/>
        <path d="M 18.3125 70.21875 
L 18.3125 54.6875 
L 36.8125 54.6875 
L 36.8125 47.703125 
L 18.3125 47.703125 
L 18.3125 18.015625 
Q 18.3125 11.328125 20.140625 9.421875 
Q 21.96875 7.515625 27.59375 7.515625 
L 36.8125 7.515625 
L 36.8125 0 
L 27.59375 0 
Q 17.1875 0 13.234375 3.875 
Q 9.28125 7.765625 9.28125 18.015625 
L 9.28125 47.703125 
L 2.6875 47.703125 
L 2.6875 54.6875 
L 9.28125 54.6875 
L 9.28125 70.21875 
z
" id="DejaVuSans-116"/>
        <path d="M 18.109375 8.203125 
L 18.109375 -20.796875 
L 9.078125 -20.796875 
L 9.078125 54.6875 
L 18.109375 54.6875 
L 18.109375 46.390625 
Q 20.953125 51.265625 25.265625 53.625 
Q 29.59375 56 35.59375 56 
Q 45.5625 56 51.78125 48.09375 
Q 58.015625 40.1875 58.015625 27.296875 
Q 58.015625 14.40625 51.78125 6.484375 
Q 45.5625 -1.421875 35.59375 -1.421875 
Q 29.59375 -1.421875 25.265625 0.953125 
Q 20.953125 3.328125 18.109375 8.203125 
z
M 48.6875 27.296875 
Q 48.6875 37.203125 44.609375 42.84375 
Q 40.53125 48.484375 33.40625 48.484375 
Q 26.265625 48.484375 22.1875 42.84375 
Q 18.109375 37.203125 18.109375 27.296875 
Q 18.109375 17.390625 22.1875 11.75 
Q 26.265625 6.109375 33.40625 6.109375 
Q 40.53125 6.109375 44.609375 11.75 
Q 48.6875 17.390625 48.6875 27.296875 
z
" id="DejaVuSans-112"/>
       </defs>
       <use xlink:href="#DejaVuSans-32"/>
       <use x="31.787109" xlink:href="#DejaVuSans-103"/>
       <use x="95.263672" xlink:href="#DejaVuSans-95"/>
       <use x="145.263672" xlink:href="#DejaVuSans-95"/>
       <use x="195.263672" xlink:href="#DejaVuSans-65"/>
       <use x="263.671875" xlink:href="#DejaVuSans-108"/>
       <use x="291.455078" xlink:href="#DejaVuSans-105"/>
       <use x="319.238281" xlink:href="#DejaVuSans-115"/>
       <use x="371.337891" xlink:href="#DejaVuSans-116"/>
       <use x="410.546875" xlink:href="#DejaVuSans-105"/>
       <use x="438.330078" xlink:href="#DejaVuSans-112"/>
       <use x="501.806641" xlink:href="#DejaVuSans-101"/>
       <use x="563.330078" xlink:href="#DejaVuSans-115"/>
       <use x="615.429688" xlink:href="#DejaVuSans-95"/>
       <use x="665.429688" xlink:href="#DejaVuSans-48"/>
      </g>
     </g>
    </g>
    <g id="ytick_2">
     <g id="line2d_9">
      <g>
       <use style="stroke:#000000;stroke-width:0.8;" x="204.7" xlink:href="#m3e632b5e2d" y="110.890687"/>
      </g>
     </g>
     <g id="text_10">
      <!--  g__Eggerthella_0 -->
      <g transform="translate(109.435937 114.689906)scale(0.1 -0.1)">
       <defs>
        <path d="M 9.8125 72.90625 
L 55.90625 72.90625 
L 55.90625 64.59375 
L 19.671875 64.59375 
L 19.671875 43.015625 
L 54.390625 43.015625 
L 54.390625 34.71875 
L 19.671875 34.71875 
L 19.671875 8.296875 
L 56.78125 8.296875 
L 56.78125 0 
L 9.8125 0 
z
" id="DejaVuSans-69"/>
        <path d="M 41.109375 46.296875 
Q 39.59375 47.171875 37.8125 47.578125 
Q 36.03125 48 33.890625 48 
Q 26.265625 48 22.1875 43.046875 
Q 18.109375 38.09375 18.109375 28.8125 
L 18.109375 0 
L 9.078125 0 
L 9.078125 54.6875 
L 18.109375 54.6875 
L 18.109375 46.1875 
Q 20.953125 51.171875 25.484375 53.578125 
Q 30.03125 56 36.53125 56 
Q 37.453125 56 38.578125 55.875 
Q 39.703125 55.765625 41.0625 55.515625 
z
" id="DejaVuSans-114"/>
        <path d="M 54.890625 33.015625 
L 54.890625 0 
L 45.90625 0 
L 45.90625 32.71875 
Q 45.90625 40.484375 42.875 44.328125 
Q 39.84375 48.1875 33.796875 48.1875 
Q 26.515625 48.1875 22.3125 43.546875 
Q 18.109375 38.921875 18.109375 30.90625 
L 18.109375 0 
L 9.078125 0 
L 9.078125 75.984375 
L 18.109375 75.984375 
L 18.109375 46.1875 
Q 21.34375 51.125 25.703125 53.5625 
Q 30.078125 56 35.796875 56 
Q 45.21875 56 50.046875 50.171875 
Q 54.890625 44.34375 54.890625 33.015625 
z
" id="DejaVuSans-104"/>
       </defs>
       <use xlink:href="#DejaVuSans-32"/>
       <use x="31.787109" xlink:href="#DejaVuSans-103"/>
       <use x="95.263672" xlink:href="#DejaVuSans-95"/>
       <use x="145.263672" xlink:href="#DejaVuSans-95"/>
       <use x="195.263672" xlink:href="#DejaVuSans-69"/>
       <use x="258.447266" xlink:href="#DejaVuSans-103"/>
       <use x="321.923828" xlink:href="#DejaVuSans-103"/>
       <use x="385.400391" xlink:href="#DejaVuSans-101"/>
       <use x="446.923828" xlink:href="#DejaVuSans-114"/>
       <use x="488.037109" xlink:href="#DejaVuSans-116"/>
       <use x="527.246094" xlink:href="#DejaVuSans-104"/>
       <use x="590.625" xlink:href="#DejaVuSans-101"/>
       <use x="652.148438" xlink:href="#DejaVuSans-108"/>
       <use x="679.931641" xlink:href="#DejaVuSans-108"/>
       <use x="707.714844" xlink:href="#DejaVuSans-97"/>
       <use x="768.994141" xlink:href="#DejaVuSans-95"/>
       <use x="818.994141" xlink:href="#DejaVuSans-48"/>
      </g>
     </g>
    </g>
    <g id="ytick_3">
     <g id="line2d_10">
      <g>
       <use style="stroke:#000000;stroke-width:0.8;" x="204.7" xlink:href="#m3e632b5e2d" y="99.593166"/>
      </g>
     </g>
     <g id="text_11">
      <!--  g__Anaerotruncus_0 -->
      <g transform="translate(93.595312 103.304104)scale(0.1 -0.1)">
       <defs>
        <path d="M 54.890625 33.015625 
L 54.890625 0 
L 45.90625 0 
L 45.90625 32.71875 
Q 45.90625 40.484375 42.875 44.328125 
Q 39.84375 48.1875 33.796875 48.1875 
Q 26.515625 48.1875 22.3125 43.546875 
Q 18.109375 38.921875 18.109375 30.90625 
L 18.109375 0 
L 9.078125 0 
L 9.078125 54.6875 
L 18.109375 54.6875 
L 18.109375 46.1875 
Q 21.34375 51.125 25.703125 53.5625 
Q 30.078125 56 35.796875 56 
Q 45.21875 56 50.046875 50.171875 
Q 54.890625 44.34375 54.890625 33.015625 
z
" id="DejaVuSans-110"/>
        <path d="M 48.78125 52.59375 
L 48.78125 44.1875 
Q 44.96875 46.296875 41.140625 47.34375 
Q 37.3125 48.390625 33.40625 48.390625 
Q 24.65625 48.390625 19.8125 42.84375 
Q 14.984375 37.3125 14.984375 27.296875 
Q 14.984375 17.28125 19.8125 11.734375 
Q 24.65625 6.203125 33.40625 6.203125 
Q 37.3125 6.203125 41.140625 7.25 
Q 44.96875 8.296875 48.78125 10.40625 
L 48.78125 2.09375 
Q 45.015625 0.34375 40.984375 -0.53125 
Q 36.96875 -1.421875 32.421875 -1.421875 
Q 20.0625 -1.421875 12.78125 6.34375 
Q 5.515625 14.109375 5.515625 27.296875 
Q 5.515625 40.671875 12.859375 48.328125 
Q 20.21875 56 33.015625 56 
Q 37.15625 56 41.109375 55.140625 
Q 45.0625 54.296875 48.78125 52.59375 
z
" id="DejaVuSans-99"/>
       </defs>
       <use xlink:href="#DejaVuSans-32"/>
       <use x="31.787109" xlink:href="#DejaVuSans-103"/>
       <use x="95.263672" xlink:href="#DejaVuSans-95"/>
       <use x="145.263672" xlink:href="#DejaVuSans-95"/>
       <use x="195.263672" xlink:href="#DejaVuSans-65"/>
       <use x="263.671875" xlink:href="#DejaVuSans-110"/>
       <use x="327.050781" xlink:href="#DejaVuSans-97"/>
       <use x="388.330078" xlink:href="#DejaVuSans-101"/>
       <use x="449.853516" xlink:href="#DejaVuSans-114"/>
       <use x="488.716797" xlink:href="#DejaVuSans-111"/>
       <use x="549.898438" xlink:href="#DejaVuSans-116"/>
       <use x="589.107422" xlink:href="#DejaVuSans-114"/>
       <use x="630.220703" xlink:href="#DejaVuSans-117"/>
       <use x="693.599609" xlink:href="#DejaVuSans-110"/>
       <use x="756.978516" xlink:href="#DejaVuSans-99"/>
       <use x="811.958984" xlink:href="#DejaVuSans-117"/>
       <use x="875.337891" xlink:href="#DejaVuSans-115"/>
       <use x="927.4375" xlink:href="#DejaVuSans-95"/>
       <use x="977.4375" xlink:href="#DejaVuSans-48"/>
      </g>
     </g>
    </g>
    <g id="ytick_4">
     <g id="line2d_11">
      <g>
       <use style="stroke:#000000;stroke-width:0.8;" x="204.7" xlink:href="#m3e632b5e2d" y="88.295646"/>
      </g>
     </g>
     <g id="text_12">
      <!--  g__Weissella_0 -->
      <g transform="translate(120.323437 92.094864)scale(0.1 -0.1)">
       <defs>
        <path d="M 3.328125 72.90625 
L 13.28125 72.90625 
L 28.609375 11.28125 
L 43.890625 72.90625 
L 54.984375 72.90625 
L 70.3125 11.28125 
L 85.59375 72.90625 
L 95.609375 72.90625 
L 77.296875 0 
L 64.890625 0 
L 49.515625 63.28125 
L 33.984375 0 
L 21.578125 0 
z
" id="DejaVuSans-87"/>
       </defs>
       <use xlink:href="#DejaVuSans-32"/>
       <use x="31.787109" xlink:href="#DejaVuSans-103"/>
       <use x="95.263672" xlink:href="#DejaVuSans-95"/>
       <use x="145.263672" xlink:href="#DejaVuSans-95"/>
       <use x="195.263672" xlink:href="#DejaVuSans-87"/>
       <use x="288.265625" xlink:href="#DejaVuSans-101"/>
       <use x="349.789062" xlink:href="#DejaVuSans-105"/>
       <use x="377.572266" xlink:href="#DejaVuSans-115"/>
       <use x="429.671875" xlink:href="#DejaVuSans-115"/>
       <use x="481.771484" xlink:href="#DejaVuSans-101"/>
       <use x="543.294922" xlink:href="#DejaVuSans-108"/>
       <use x="571.078125" xlink:href="#DejaVuSans-108"/>
       <use x="598.861328" xlink:href="#DejaVuSans-97"/>
       <use x="660.140625" xlink:href="#DejaVuSans-95"/>
       <use x="710.140625" xlink:href="#DejaVuSans-48"/>
      </g>
     </g>
    </g>
    <g id="ytick_5">
     <g id="line2d_12">
      <g>
       <use style="stroke:#000000;stroke-width:0.8;" x="204.7" xlink:href="#m3e632b5e2d" y="76.998125"/>
      </g>
     </g>
     <g id="text_13">
      <!--  g__Clostridium_0 -->
      <g transform="translate(109.707812 80.797344)scale(0.1 -0.1)">
       <defs>
        <path d="M 45.40625 46.390625 
L 45.40625 75.984375 
L 54.390625 75.984375 
L 54.390625 0 
L 45.40625 0 
L 45.40625 8.203125 
Q 42.578125 3.328125 38.25 0.953125 
Q 33.9375 -1.421875 27.875 -1.421875 
Q 17.96875 -1.421875 11.734375 6.484375 
Q 5.515625 14.40625 5.515625 27.296875 
Q 5.515625 40.1875 11.734375 48.09375 
Q 17.96875 56 27.875 56 
Q 33.9375 56 38.25 53.625 
Q 42.578125 51.265625 45.40625 46.390625 
z
M 14.796875 27.296875 
Q 14.796875 17.390625 18.875 11.75 
Q 22.953125 6.109375 30.078125 6.109375 
Q 37.203125 6.109375 41.296875 11.75 
Q 45.40625 17.390625 45.40625 27.296875 
Q 45.40625 37.203125 41.296875 42.84375 
Q 37.203125 48.484375 30.078125 48.484375 
Q 22.953125 48.484375 18.875 42.84375 
Q 14.796875 37.203125 14.796875 27.296875 
z
" id="DejaVuSans-100"/>
        <path d="M 52 44.1875 
Q 55.375 50.25 60.0625 53.125 
Q 64.75 56 71.09375 56 
Q 79.640625 56 84.28125 50.015625 
Q 88.921875 44.046875 88.921875 33.015625 
L 88.921875 0 
L 79.890625 0 
L 79.890625 32.71875 
Q 79.890625 40.578125 77.09375 44.375 
Q 74.3125 48.1875 68.609375 48.1875 
Q 61.625 48.1875 57.5625 43.546875 
Q 53.515625 38.921875 53.515625 30.90625 
L 53.515625 0 
L 44.484375 0 
L 44.484375 32.71875 
Q 44.484375 40.625 41.703125 44.40625 
Q 38.921875 48.1875 33.109375 48.1875 
Q 26.21875 48.1875 22.15625 43.53125 
Q 18.109375 38.875 18.109375 30.90625 
L 18.109375 0 
L 9.078125 0 
L 9.078125 54.6875 
L 18.109375 54.6875 
L 18.109375 46.1875 
Q 21.1875 51.21875 25.484375 53.609375 
Q 29.78125 56 35.6875 56 
Q 41.65625 56 45.828125 52.96875 
Q 50 49.953125 52 44.1875 
z
" id="DejaVuSans-109"/>
       </defs>
       <use xlink:href="#DejaVuSans-32"/>
       <use x="31.787109" xlink:href="#DejaVuSans-103"/>
       <use x="95.263672" xlink:href="#DejaVuSans-95"/>
       <use x="145.263672" xlink:href="#DejaVuSans-95"/>
       <use x="195.263672" xlink:href="#DejaVuSans-67"/>
       <use x="265.087891" xlink:href="#DejaVuSans-108"/>
       <use x="292.871094" xlink:href="#DejaVuSans-111"/>
       <use x="354.052734" xlink:href="#DejaVuSans-115"/>
       <use x="406.152344" xlink:href="#DejaVuSans-116"/>
       <use x="445.361328" xlink:href="#DejaVuSans-114"/>
       <use x="486.474609" xlink:href="#DejaVuSans-105"/>
       <use x="514.257812" xlink:href="#DejaVuSans-100"/>
       <use x="577.734375" xlink:href="#DejaVuSans-105"/>
       <use x="605.517578" xlink:href="#DejaVuSans-117"/>
       <use x="668.896484" xlink:href="#DejaVuSans-109"/>
       <use x="766.308594" xlink:href="#DejaVuSans-95"/>
       <use x="816.308594" xlink:href="#DejaVuSans-48"/>
      </g>
     </g>
    </g>
    <g id="ytick_6">
     <g id="line2d_13">
      <g>
       <use style="stroke:#000000;stroke-width:0.8;" x="204.7" xlink:href="#m3e632b5e2d" y="65.700604"/>
      </g>
     </g>
     <g id="text_14">
      <!--  g__Anaerofilum_0 -->
      <g transform="translate(106.192187 69.499823)scale(0.1 -0.1)">
       <use xlink:href="#DejaVuSans-32"/>
       <use x="31.787109" xlink:href="#DejaVuSans-103"/>
       <use x="95.263672" xlink:href="#DejaVuSans-95"/>
       <use x="145.263672" xlink:href="#DejaVuSans-95"/>
       <use x="195.263672" xlink:href="#DejaVuSans-65"/>
       <use x="263.671875" xlink:href="#DejaVuSans-110"/>
       <use x="327.050781" xlink:href="#DejaVuSans-97"/>
       <use x="388.330078" xlink:href="#DejaVuSans-101"/>
       <use x="449.853516" xlink:href="#DejaVuSans-114"/>
       <use x="488.716797" xlink:href="#DejaVuSans-111"/>
       <use x="549.898438" xlink:href="#DejaVuSans-102"/>
       <use x="585.103516" xlink:href="#DejaVuSans-105"/>
       <use x="612.886719" xlink:href="#DejaVuSans-108"/>
       <use x="640.669922" xlink:href="#DejaVuSans-117"/>
       <use x="704.048828" xlink:href="#DejaVuSans-109"/>
       <use x="801.460938" xlink:href="#DejaVuSans-95"/>
       <use x="851.460938" xlink:href="#DejaVuSans-48"/>
      </g>
     </g>
    </g>
    <g id="ytick_7">
     <g id="line2d_14">
      <g>
       <use style="stroke:#000000;stroke-width:0.8;" x="204.7" xlink:href="#m3e632b5e2d" y="54.403084"/>
      </g>
     </g>
     <g id="text_15">
      <!--  g__Pseudoramibacter_Eubacterium_0 -->
      <g transform="translate(7.2 58.202302)scale(0.1 -0.1)">
       <defs>
        <path d="M 19.671875 64.796875 
L 19.671875 37.40625 
L 32.078125 37.40625 
Q 38.96875 37.40625 42.71875 40.96875 
Q 46.484375 44.53125 46.484375 51.125 
Q 46.484375 57.671875 42.71875 61.234375 
Q 38.96875 64.796875 32.078125 64.796875 
z
M 9.8125 72.90625 
L 32.078125 72.90625 
Q 44.34375 72.90625 50.609375 67.359375 
Q 56.890625 61.8125 56.890625 51.125 
Q 56.890625 40.328125 50.609375 34.8125 
Q 44.34375 29.296875 32.078125 29.296875 
L 19.671875 29.296875 
L 19.671875 0 
L 9.8125 0 
z
" id="DejaVuSans-80"/>
        <path d="M 48.6875 27.296875 
Q 48.6875 37.203125 44.609375 42.84375 
Q 40.53125 48.484375 33.40625 48.484375 
Q 26.265625 48.484375 22.1875 42.84375 
Q 18.109375 37.203125 18.109375 27.296875 
Q 18.109375 17.390625 22.1875 11.75 
Q 26.265625 6.109375 33.40625 6.109375 
Q 40.53125 6.109375 44.609375 11.75 
Q 48.6875 17.390625 48.6875 27.296875 
z
M 18.109375 46.390625 
Q 20.953125 51.265625 25.265625 53.625 
Q 29.59375 56 35.59375 56 
Q 45.5625 56 51.78125 48.09375 
Q 58.015625 40.1875 58.015625 27.296875 
Q 58.015625 14.40625 51.78125 6.484375 
Q 45.5625 -1.421875 35.59375 -1.421875 
Q 29.59375 -1.421875 25.265625 0.953125 
Q 20.953125 3.328125 18.109375 8.203125 
L 18.109375 0 
L 9.078125 0 
L 9.078125 75.984375 
L 18.109375 75.984375 
z
" id="DejaVuSans-98"/>
       </defs>
       <use xlink:href="#DejaVuSans-32"/>
       <use x="31.787109" xlink:href="#DejaVuSans-103"/>
       <use x="95.263672" xlink:href="#DejaVuSans-95"/>
       <use x="145.263672" xlink:href="#DejaVuSans-95"/>
       <use x="195.263672" xlink:href="#DejaVuSans-80"/>
       <use x="253.816406" xlink:href="#DejaVuSans-115"/>
       <use x="305.916016" xlink:href="#DejaVuSans-101"/>
       <use x="367.439453" xlink:href="#DejaVuSans-117"/>
       <use x="430.818359" xlink:href="#DejaVuSans-100"/>
       <use x="494.294922" xlink:href="#DejaVuSans-111"/>
       <use x="555.476562" xlink:href="#DejaVuSans-114"/>
       <use x="596.589844" xlink:href="#DejaVuSans-97"/>
       <use x="657.869141" xlink:href="#DejaVuSans-109"/>
       <use x="755.28125" xlink:href="#DejaVuSans-105"/>
       <use x="783.064453" xlink:href="#DejaVuSans-98"/>
       <use x="846.541016" xlink:href="#DejaVuSans-97"/>
       <use x="907.820312" xlink:href="#DejaVuSans-99"/>
       <use x="962.800781" xlink:href="#DejaVuSans-116"/>
       <use x="1002.009766" xlink:href="#DejaVuSans-101"/>
       <use x="1063.533203" xlink:href="#DejaVuSans-114"/>
       <use x="1104.646484" xlink:href="#DejaVuSans-95"/>
       <use x="1154.646484" xlink:href="#DejaVuSans-69"/>
       <use x="1217.830078" xlink:href="#DejaVuSans-117"/>
       <use x="1281.208984" xlink:href="#DejaVuSans-98"/>
       <use x="1344.685547" xlink:href="#DejaVuSans-97"/>
       <use x="1405.964844" xlink:href="#DejaVuSans-99"/>
       <use x="1460.945312" xlink:href="#DejaVuSans-116"/>
       <use x="1500.154297" xlink:href="#DejaVuSans-101"/>
       <use x="1561.677734" xlink:href="#DejaVuSans-114"/>
       <use x="1602.791016" xlink:href="#DejaVuSans-105"/>
       <use x="1630.574219" xlink:href="#DejaVuSans-117"/>
       <use x="1693.953125" xlink:href="#DejaVuSans-109"/>
       <use x="1791.365234" xlink:href="#DejaVuSans-95"/>
       <use x="1841.365234" xlink:href="#DejaVuSans-48"/>
      </g>
     </g>
    </g>
    <g id="ytick_8">
     <g id="line2d_15">
      <g>
       <use style="stroke:#000000;stroke-width:0.8;" x="204.7" xlink:href="#m3e632b5e2d" y="43.105563"/>
      </g>
     </g>
     <g id="text_16">
      <!--  g__Blautia_0 -->
      <g transform="translate(131.879687 46.904782)scale(0.1 -0.1)">
       <defs>
        <path d="M 19.671875 34.8125 
L 19.671875 8.109375 
L 35.5 8.109375 
Q 43.453125 8.109375 47.28125 11.40625 
Q 51.125 14.703125 51.125 21.484375 
Q 51.125 28.328125 47.28125 31.5625 
Q 43.453125 34.8125 35.5 34.8125 
z
M 19.671875 64.796875 
L 19.671875 42.828125 
L 34.28125 42.828125 
Q 41.5 42.828125 45.03125 45.53125 
Q 48.578125 48.25 48.578125 53.8125 
Q 48.578125 59.328125 45.03125 62.0625 
Q 41.5 64.796875 34.28125 64.796875 
z
M 9.8125 72.90625 
L 35.015625 72.90625 
Q 46.296875 72.90625 52.390625 68.21875 
Q 58.5 63.53125 58.5 54.890625 
Q 58.5 48.1875 55.375 44.234375 
Q 52.25 40.28125 46.1875 39.3125 
Q 53.46875 37.75 57.5 32.78125 
Q 61.53125 27.828125 61.53125 20.40625 
Q 61.53125 10.640625 54.890625 5.3125 
Q 48.25 0 35.984375 0 
L 9.8125 0 
z
" id="DejaVuSans-66"/>
       </defs>
       <use xlink:href="#DejaVuSans-32"/>
       <use x="31.787109" xlink:href="#DejaVuSans-103"/>
       <use x="95.263672" xlink:href="#DejaVuSans-95"/>
       <use x="145.263672" xlink:href="#DejaVuSans-95"/>
       <use x="195.263672" xlink:href="#DejaVuSans-66"/>
       <use x="263.867188" xlink:href="#DejaVuSans-108"/>
       <use x="291.650391" xlink:href="#DejaVuSans-97"/>
       <use x="352.929688" xlink:href="#DejaVuSans-117"/>
       <use x="416.308594" xlink:href="#DejaVuSans-116"/>
       <use x="455.517578" xlink:href="#DejaVuSans-105"/>
       <use x="483.300781" xlink:href="#DejaVuSans-97"/>
       <use x="544.580078" xlink:href="#DejaVuSans-95"/>
       <use x="594.580078" xlink:href="#DejaVuSans-48"/>
      </g>
     </g>
    </g>
    <g id="ytick_9">
     <g id="line2d_16">
      <g>
       <use style="stroke:#000000;stroke-width:0.8;" x="204.7" xlink:href="#m3e632b5e2d" y="31.808042"/>
      </g>
     </g>
     <g id="text_17">
      <!--  g__Collinsella_0 -->
      <g transform="translate(115.990625 35.607261)scale(0.1 -0.1)">
       <use xlink:href="#DejaVuSans-32"/>
       <use x="31.787109" xlink:href="#DejaVuSans-103"/>
       <use x="95.263672" xlink:href="#DejaVuSans-95"/>
       <use x="145.263672" xlink:href="#DejaVuSans-95"/>
       <use x="195.263672" xlink:href="#DejaVuSans-67"/>
       <use x="265.087891" xlink:href="#DejaVuSans-111"/>
       <use x="326.269531" xlink:href="#DejaVuSans-108"/>
       <use x="354.052734" xlink:href="#DejaVuSans-108"/>
       <use x="381.835938" xlink:href="#DejaVuSans-105"/>
       <use x="409.619141" xlink:href="#DejaVuSans-110"/>
       <use x="472.998047" xlink:href="#DejaVuSans-115"/>
       <use x="525.097656" xlink:href="#DejaVuSans-101"/>
       <use x="586.621094" xlink:href="#DejaVuSans-108"/>
       <use x="614.404297" xlink:href="#DejaVuSans-108"/>
       <use x="642.1875" xlink:href="#DejaVuSans-97"/>
       <use x="703.466797" xlink:href="#DejaVuSans-95"/>
       <use x="753.466797" xlink:href="#DejaVuSans-48"/>
      </g>
     </g>
    </g>
   </g>
   <g id="patch_12">
    <path d="M 204.7 131.678125 
L 204.7 22.318125 
" style="fill:none;stroke:#000000;stroke-linecap:square;stroke-linejoin:miter;stroke-width:0.8;"/>
   </g>
   <g id="patch_13">
    <path d="M 446.1 131.678125 
L 446.1 22.318125 
" style="fill:none;stroke:#000000;stroke-linecap:square;stroke-linejoin:miter;stroke-width:0.8;"/>
   </g>
   <g id="patch_14">
    <path d="M 204.7 131.678125 
L 446.1 131.678125 
" style="fill:none;stroke:#000000;stroke-linecap:square;stroke-linejoin:miter;stroke-width:0.8;"/>
   </g>
   <g id="patch_15">
    <path d="M 204.7 22.318125 
L 446.1 22.318125 
" style="fill:none;stroke:#000000;stroke-linecap:square;stroke-linejoin:miter;stroke-width:0.8;"/>
   </g>
   <g id="text_18">
    <!-- control sample group -->
    <g transform="translate(261.553437 16.318125)scale(0.12 -0.12)">
     <use xlink:href="#DejaVuSans-99"/>
     <use x="54.980469" xlink:href="#DejaVuSans-111"/>
     <use x="116.162109" xlink:href="#DejaVuSans-110"/>
     <use x="179.541016" xlink:href="#DejaVuSans-116"/>
     <use x="218.75" xlink:href="#DejaVuSans-114"/>
     <use x="257.613281" xlink:href="#DejaVuSans-111"/>
     <use x="318.794922" xlink:href="#DejaVuSans-108"/>
     <use x="346.578125" xlink:href="#DejaVuSans-32"/>
     <use x="378.365234" xlink:href="#DejaVuSans-115"/>
     <use x="430.464844" xlink:href="#DejaVuSans-97"/>
     <use x="491.744141" xlink:href="#DejaVuSans-109"/>
     <use x="589.15625" xlink:href="#DejaVuSans-112"/>
     <use x="652.632812" xlink:href="#DejaVuSans-108"/>
     <use x="680.416016" xlink:href="#DejaVuSans-101"/>
     <use x="741.939453" xlink:href="#DejaVuSans-32"/>
     <use x="773.726562" xlink:href="#DejaVuSans-103"/>
     <use x="837.203125" xlink:href="#DejaVuSans-114"/>
     <use x="876.066406" xlink:href="#DejaVuSans-111"/>
     <use x="937.248047" xlink:href="#DejaVuSans-117"/>
     <use x="1000.626953" xlink:href="#DejaVuSans-112"/>
    </g>
   </g>
  </g>
  <g id="axes_2">
   <g id="patch_16">
    <path d="M 204.7 299.078125 
L 446.1 299.078125 
L 446.1 189.718125 
L 204.7 189.718125 
z
" style="fill:#ffffff;"/>
   </g>
   <g id="patch_17">
    <path clip-path="url(#pc6c6c53212)" d="M 215.672727 299.078125 
L 219.198101 299.078125 
L 219.198101 297.25089 
L 215.672727 297.25089 
z
" style="fill:#d95f0e;opacity:0.5;"/>
   </g>
   <g id="patch_18">
    <path clip-path="url(#pc6c6c53212)" d="M 220.079445 299.078125 
L 223.604819 299.078125 
L 223.604819 299.078125 
L 220.079445 299.078125 
z
" style="fill:#d95f0e;opacity:0.5;"/>
   </g>
   <g id="patch_19">
    <path clip-path="url(#pc6c6c53212)" d="M 224.486163 299.078125 
L 228.011537 299.078125 
L 228.011537 297.25089 
L 224.486163 297.25089 
z
" style="fill:#d95f0e;opacity:0.5;"/>
   </g>
   <g id="patch_20">
    <path clip-path="url(#pc6c6c53212)" d="M 228.892881 299.078125 
L 232.418255 299.078125 
L 232.418255 295.423655 
L 228.892881 295.423655 
z
" style="fill:#d95f0e;opacity:0.5;"/>
   </g>
   <g id="patch_21">
    <path clip-path="url(#pc6c6c53212)" d="M 233.299598 299.078125 
L 236.824973 299.078125 
L 236.824973 299.078125 
L 233.299598 299.078125 
z
" style="fill:#d95f0e;opacity:0.5;"/>
   </g>
   <g id="patch_22">
    <path clip-path="url(#pc6c6c53212)" d="M 237.706316 299.078125 
L 241.23169 299.078125 
L 241.23169 295.423655 
L 237.706316 295.423655 
z
" style="fill:#d95f0e;opacity:0.5;"/>
   </g>
   <g id="patch_23">
    <path clip-path="url(#pc6c6c53212)" d="M 242.113034 299.078125 
L 245.638408 299.078125 
L 245.638408 297.25089 
L 242.113034 297.25089 
z
" style="fill:#d95f0e;opacity:0.5;"/>
   </g>
   <g id="patch_24">
    <path clip-path="url(#pc6c6c53212)" d="M 246.519752 299.078125 
L 250.045126 299.078125 
L 250.045126 297.25089 
L 246.519752 297.25089 
z
" style="fill:#d95f0e;opacity:0.5;"/>
   </g>
   <g id="patch_25">
    <path clip-path="url(#pc6c6c53212)" d="M 250.92647 299.078125 
L 254.451844 299.078125 
L 254.451844 291.769186 
L 250.92647 291.769186 
z
" style="fill:#d95f0e;opacity:0.5;"/>
   </g>
   <g id="patch_26">
    <path clip-path="url(#pc6c6c53212)" d="M 255.333187 299.078125 
L 258.858562 299.078125 
L 258.858562 297.25089 
L 255.333187 297.25089 
z
" style="fill:#d95f0e;opacity:0.5;"/>
   </g>
   <g id="patch_27">
    <path clip-path="url(#pc6c6c53212)" d="M 259.739905 299.078125 
L 263.265279 299.078125 
L 263.265279 288.114716 
L 259.739905 288.114716 
z
" style="fill:#d95f0e;opacity:0.5;"/>
   </g>
   <g id="patch_28">
    <path clip-path="url(#pc6c6c53212)" d="M 264.146623 299.078125 
L 267.671997 299.078125 
L 267.671997 284.460247 
L 264.146623 284.460247 
z
" style="fill:#d95f0e;opacity:0.5;"/>
   </g>
   <g id="patch_29">
    <path clip-path="url(#pc6c6c53212)" d="M 268.553341 299.078125 
L 272.078715 299.078125 
L 272.078715 275.324073 
L 268.553341 275.324073 
z
" style="fill:#d95f0e;opacity:0.5;"/>
   </g>
   <g id="patch_30">
    <path clip-path="url(#pc6c6c53212)" d="M 272.960058 299.078125 
L 276.485433 299.078125 
L 276.485433 273.496838 
L 272.960058 273.496838 
z
" style="fill:#d95f0e;opacity:0.5;"/>
   </g>
   <g id="patch_31">
    <path clip-path="url(#pc6c6c53212)" d="M 277.366776 299.078125 
L 280.89215 299.078125 
L 280.89215 258.87896 
L 277.366776 258.87896 
z
" style="fill:#d95f0e;opacity:0.5;"/>
   </g>
   <g id="patch_32">
    <path clip-path="url(#pc6c6c53212)" d="M 281.773494 299.078125 
L 285.298868 299.078125 
L 285.298868 262.53343 
L 281.773494 262.53343 
z
" style="fill:#d95f0e;opacity:0.5;"/>
   </g>
   <g id="patch_33">
    <path clip-path="url(#pc6c6c53212)" d="M 286.180212 299.078125 
L 289.705586 299.078125 
L 289.705586 266.187899 
L 286.180212 266.187899 
z
" style="fill:#d95f0e;opacity:0.5;"/>
   </g>
   <g id="patch_34">
    <path clip-path="url(#pc6c6c53212)" d="M 290.58693 299.078125 
L 294.112304 299.078125 
L 294.112304 264.360665 
L 290.58693 264.360665 
z
" style="fill:#d95f0e;opacity:0.5;"/>
   </g>
   <g id="patch_35">
    <path clip-path="url(#pc6c6c53212)" d="M 294.993647 299.078125 
L 298.519022 299.078125 
L 298.519022 246.088317 
L 294.993647 246.088317 
z
" style="fill:#d95f0e;opacity:0.5;"/>
   </g>
   <g id="patch_36">
    <path clip-path="url(#pc6c6c53212)" d="M 299.400365 299.078125 
L 302.925739 299.078125 
L 302.925739 238.779378 
L 299.400365 238.779378 
z
" style="fill:#d95f0e;opacity:0.5;"/>
   </g>
   <g id="patch_37">
    <path clip-path="url(#pc6c6c53212)" d="M 303.807083 299.078125 
L 307.332457 299.078125 
L 307.332457 246.088317 
L 303.807083 246.088317 
z
" style="fill:#d95f0e;opacity:0.5;"/>
   </g>
   <g id="patch_38">
    <path clip-path="url(#pc6c6c53212)" d="M 308.213801 299.078125 
L 311.739175 299.078125 
L 311.739175 238.779378 
L 308.213801 238.779378 
z
" style="fill:#d95f0e;opacity:0.5;"/>
   </g>
   <g id="patch_39">
    <path clip-path="url(#pc6c6c53212)" d="M 312.620518 299.078125 
L 316.145893 299.078125 
L 316.145893 216.852561 
L 312.620518 216.852561 
z
" style="fill:#d95f0e;opacity:0.5;"/>
   </g>
   <g id="patch_40">
    <path clip-path="url(#pc6c6c53212)" d="M 317.027236 299.078125 
L 320.55261 299.078125 
L 320.55261 222.334265 
L 317.027236 222.334265 
z
" style="fill:#d95f0e;opacity:0.5;"/>
   </g>
   <g id="patch_41">
    <path clip-path="url(#pc6c6c53212)" d="M 321.433954 299.078125 
L 324.959328 299.078125 
L 324.959328 209.543622 
L 321.433954 209.543622 
z
" style="fill:#d95f0e;opacity:0.5;"/>
   </g>
   <g id="patch_42">
    <path clip-path="url(#pc6c6c53212)" d="M 325.840672 299.078125 
L 329.366046 299.078125 
L 329.366046 194.925744 
L 325.840672 194.925744 
z
" style="fill:#d95f0e;opacity:0.5;"/>
   </g>
   <g id="patch_43">
    <path clip-path="url(#pc6c6c53212)" d="M 330.24739 299.078125 
L 333.772764 299.078125 
L 333.772764 218.679796 
L 330.24739 218.679796 
z
" style="fill:#d95f0e;opacity:0.5;"/>
   </g>
   <g id="patch_44">
    <path clip-path="url(#pc6c6c53212)" d="M 334.654107 299.078125 
L 338.179482 299.078125 
L 338.179482 196.752979 
L 334.654107 196.752979 
z
" style="fill:#d95f0e;opacity:0.5;"/>
   </g>
   <g id="patch_45">
    <path clip-path="url(#pc6c6c53212)" d="M 339.060825 299.078125 
L 342.586199 299.078125 
L 342.586199 224.1615 
L 339.060825 224.1615 
z
" style="fill:#d95f0e;opacity:0.5;"/>
   </g>
   <g id="patch_46">
    <path clip-path="url(#pc6c6c53212)" d="M 343.467543 299.078125 
L 346.992917 299.078125 
L 346.992917 242.433848 
L 343.467543 242.433848 
z
" style="fill:#d95f0e;opacity:0.5;"/>
   </g>
   <g id="patch_47">
    <path clip-path="url(#pc6c6c53212)" d="M 347.874261 299.078125 
L 351.399635 299.078125 
L 351.399635 220.507031 
L 347.874261 220.507031 
z
" style="fill:#d95f0e;opacity:0.5;"/>
   </g>
   <g id="patch_48">
    <path clip-path="url(#pc6c6c53212)" d="M 352.280978 299.078125 
L 355.806353 299.078125 
L 355.806353 229.643204 
L 352.280978 229.643204 
z
" style="fill:#d95f0e;opacity:0.5;"/>
   </g>
   <g id="patch_49">
    <path clip-path="url(#pc6c6c53212)" d="M 356.687696 299.078125 
L 360.21307 299.078125 
L 360.21307 236.952143 
L 356.687696 236.952143 
z
" style="fill:#d95f0e;opacity:0.5;"/>
   </g>
   <g id="patch_50">
    <path clip-path="url(#pc6c6c53212)" d="M 361.094414 299.078125 
L 364.619788 299.078125 
L 364.619788 257.051726 
L 361.094414 257.051726 
z
" style="fill:#d95f0e;opacity:0.5;"/>
   </g>
   <g id="patch_51">
    <path clip-path="url(#pc6c6c53212)" d="M 365.501132 299.078125 
L 369.026506 299.078125 
L 369.026506 268.015134 
L 365.501132 268.015134 
z
" style="fill:#d95f0e;opacity:0.5;"/>
   </g>
   <g id="patch_52">
    <path clip-path="url(#pc6c6c53212)" d="M 369.90785 299.078125 
L 373.433224 299.078125 
L 373.433224 271.669604 
L 369.90785 271.669604 
z
" style="fill:#d95f0e;opacity:0.5;"/>
   </g>
   <g id="patch_53">
    <path clip-path="url(#pc6c6c53212)" d="M 374.314567 299.078125 
L 377.839942 299.078125 
L 377.839942 269.842369 
L 374.314567 269.842369 
z
" style="fill:#d95f0e;opacity:0.5;"/>
   </g>
   <g id="patch_54">
    <path clip-path="url(#pc6c6c53212)" d="M 378.721285 299.078125 
L 382.246659 299.078125 
L 382.246659 269.842369 
L 378.721285 269.842369 
z
" style="fill:#d95f0e;opacity:0.5;"/>
   </g>
   <g id="patch_55">
    <path clip-path="url(#pc6c6c53212)" d="M 383.128003 299.078125 
L 386.653377 299.078125 
L 386.653377 291.769186 
L 383.128003 291.769186 
z
" style="fill:#d95f0e;opacity:0.5;"/>
   </g>
   <g id="patch_56">
    <path clip-path="url(#pc6c6c53212)" d="M 387.534721 299.078125 
L 391.060095 299.078125 
L 391.060095 280.805777 
L 387.534721 280.805777 
z
" style="fill:#d95f0e;opacity:0.5;"/>
   </g>
   <g id="patch_57">
    <path clip-path="url(#pc6c6c53212)" d="M 391.941438 299.078125 
L 395.466813 299.078125 
L 395.466813 288.114716 
L 391.941438 288.114716 
z
" style="fill:#d95f0e;opacity:0.5;"/>
   </g>
   <g id="patch_58">
    <path clip-path="url(#pc6c6c53212)" d="M 396.348156 299.078125 
L 399.87353 299.078125 
L 399.87353 289.941951 
L 396.348156 289.941951 
z
" style="fill:#d95f0e;opacity:0.5;"/>
   </g>
   <g id="patch_59">
    <path clip-path="url(#pc6c6c53212)" d="M 400.754874 299.078125 
L 404.280248 299.078125 
L 404.280248 289.941951 
L 400.754874 289.941951 
z
" style="fill:#d95f0e;opacity:0.5;"/>
   </g>
   <g id="patch_60">
    <path clip-path="url(#pc6c6c53212)" d="M 405.161592 299.078125 
L 408.686966 299.078125 
L 408.686966 297.25089 
L 405.161592 297.25089 
z
" style="fill:#d95f0e;opacity:0.5;"/>
   </g>
   <g id="patch_61">
    <path clip-path="url(#pc6c6c53212)" d="M 409.56831 299.078125 
L 413.093684 299.078125 
L 413.093684 297.25089 
L 409.56831 297.25089 
z
" style="fill:#d95f0e;opacity:0.5;"/>
   </g>
   <g id="patch_62">
    <path clip-path="url(#pc6c6c53212)" d="M 413.975027 299.078125 
L 417.500402 299.078125 
L 417.500402 297.25089 
L 413.975027 297.25089 
z
" style="fill:#d95f0e;opacity:0.5;"/>
   </g>
   <g id="patch_63">
    <path clip-path="url(#pc6c6c53212)" d="M 418.381745 299.078125 
L 421.907119 299.078125 
L 421.907119 299.078125 
L 418.381745 299.078125 
z
" style="fill:#d95f0e;opacity:0.5;"/>
   </g>
   <g id="patch_64">
    <path clip-path="url(#pc6c6c53212)" d="M 422.788463 299.078125 
L 426.313837 299.078125 
L 426.313837 297.25089 
L 422.788463 297.25089 
z
" style="fill:#d95f0e;opacity:0.5;"/>
   </g>
   <g id="patch_65">
    <path clip-path="url(#pc6c6c53212)" d="M 427.195181 299.078125 
L 430.720555 299.078125 
L 430.720555 299.078125 
L 427.195181 299.078125 
z
" style="fill:#d95f0e;opacity:0.5;"/>
   </g>
   <g id="patch_66">
    <path clip-path="url(#pc6c6c53212)" d="M 431.601899 299.078125 
L 435.127273 299.078125 
L 435.127273 295.423655 
L 431.601899 295.423655 
z
" style="fill:#d95f0e;opacity:0.5;"/>
   </g>
   <g id="patch_67">
    <path clip-path="url(#pc6c6c53212)" d="M 237.33909 299.078125 
L 240.864464 299.078125 
L 240.864464 262.53343 
L 237.33909 262.53343 
z
" style="fill:#43a2ca;opacity:0.8;"/>
   </g>
   <g id="patch_68">
    <path clip-path="url(#pc6c6c53212)" d="M 240.673506 299.078125 
L 244.19888 299.078125 
L 244.19888 280.805777 
L 240.673506 280.805777 
z
" style="fill:#43a2ca;opacity:0.8;"/>
   </g>
   <g id="patch_69">
    <path clip-path="url(#pc6c6c53212)" d="M 244.007923 299.078125 
L 247.533297 299.078125 
L 247.533297 244.261082 
L 244.007923 244.261082 
z
" style="fill:#43a2ca;opacity:0.8;"/>
   </g>
   <g id="patch_70">
    <path clip-path="url(#pc6c6c53212)" d="M 247.342339 299.078125 
L 250.867713 299.078125 
L 250.867713 262.53343 
L 247.342339 262.53343 
z
" style="fill:#43a2ca;opacity:0.8;"/>
   </g>
   <g id="patch_71">
    <path clip-path="url(#pc6c6c53212)" d="M 250.676756 299.078125 
L 254.20213 299.078125 
L 254.20213 280.805777 
L 250.676756 280.805777 
z
" style="fill:#43a2ca;opacity:0.8;"/>
   </g>
   <g id="patch_72">
    <path clip-path="url(#pc6c6c53212)" d="M 254.011172 299.078125 
L 257.536546 299.078125 
L 257.536546 225.988735 
L 254.011172 225.988735 
z
" style="fill:#43a2ca;opacity:0.8;"/>
   </g>
   <g id="patch_73">
    <path clip-path="url(#pc6c6c53212)" d="M 257.345588 299.078125 
L 260.870963 299.078125 
L 260.870963 262.53343 
L 257.345588 262.53343 
z
" style="fill:#43a2ca;opacity:0.8;"/>
   </g>
   <g id="patch_74">
    <path clip-path="url(#pc6c6c53212)" d="M 260.680005 299.078125 
L 264.205379 299.078125 
L 264.205379 262.53343 
L 260.680005 262.53343 
z
" style="fill:#43a2ca;opacity:0.8;"/>
   </g>
   <g id="patch_75">
    <path clip-path="url(#pc6c6c53212)" d="M 264.014421 299.078125 
L 267.539796 299.078125 
L 267.539796 299.078125 
L 264.014421 299.078125 
z
" style="fill:#43a2ca;opacity:0.8;"/>
   </g>
   <g id="patch_76">
    <path clip-path="url(#pc6c6c53212)" d="M 267.348838 299.078125 
L 270.874212 299.078125 
L 270.874212 225.988735 
L 267.348838 225.988735 
z
" style="fill:#43a2ca;opacity:0.8;"/>
   </g>
   <g id="patch_77">
    <path clip-path="url(#pc6c6c53212)" d="M 270.683254 299.078125 
L 274.208628 299.078125 
L 274.208628 262.53343 
L 270.683254 262.53343 
z
" style="fill:#43a2ca;opacity:0.8;"/>
   </g>
   <g id="patch_78">
    <path clip-path="url(#pc6c6c53212)" d="M 274.017671 299.078125 
L 277.543045 299.078125 
L 277.543045 262.53343 
L 274.017671 262.53343 
z
" style="fill:#43a2ca;opacity:0.8;"/>
   </g>
   <g id="patch_79">
    <path clip-path="url(#pc6c6c53212)" d="M 277.352087 299.078125 
L 280.877461 299.078125 
L 280.877461 262.53343 
L 277.352087 262.53343 
z
" style="fill:#43a2ca;opacity:0.8;"/>
   </g>
   <g id="patch_80">
    <path clip-path="url(#pc6c6c53212)" d="M 280.686504 299.078125 
L 284.211878 299.078125 
L 284.211878 207.716387 
L 280.686504 207.716387 
z
" style="fill:#43a2ca;opacity:0.8;"/>
   </g>
   <g id="patch_81">
    <path clip-path="url(#pc6c6c53212)" d="M 284.02092 299.078125 
L 287.546294 299.078125 
L 287.546294 280.805777 
L 284.02092 280.805777 
z
" style="fill:#43a2ca;opacity:0.8;"/>
   </g>
   <g id="patch_82">
    <path clip-path="url(#pc6c6c53212)" d="M 287.355336 299.078125 
L 290.880711 299.078125 
L 290.880711 262.53343 
L 287.355336 262.53343 
z
" style="fill:#43a2ca;opacity:0.8;"/>
   </g>
   <g id="patch_83">
    <path clip-path="url(#pc6c6c53212)" d="M 290.689753 299.078125 
L 294.215127 299.078125 
L 294.215127 244.261082 
L 290.689753 244.261082 
z
" style="fill:#43a2ca;opacity:0.8;"/>
   </g>
   <g id="patch_84">
    <path clip-path="url(#pc6c6c53212)" d="M 294.024169 299.078125 
L 297.549544 299.078125 
L 297.549544 207.716387 
L 294.024169 207.716387 
z
" style="fill:#43a2ca;opacity:0.8;"/>
   </g>
   <g id="patch_85">
    <path clip-path="url(#pc6c6c53212)" d="M 297.358586 299.078125 
L 300.88396 299.078125 
L 300.88396 280.805777 
L 297.358586 280.805777 
z
" style="fill:#43a2ca;opacity:0.8;"/>
   </g>
   <g id="patch_86">
    <path clip-path="url(#pc6c6c53212)" d="M 300.693002 299.078125 
L 304.218377 299.078125 
L 304.218377 280.805777 
L 300.693002 280.805777 
z
" style="fill:#43a2ca;opacity:0.8;"/>
   </g>
   <g id="patch_87">
    <path clip-path="url(#pc6c6c53212)" d="M 304.027419 299.078125 
L 307.552793 299.078125 
L 307.552793 244.261082 
L 304.027419 244.261082 
z
" style="fill:#43a2ca;opacity:0.8;"/>
   </g>
   <g id="patch_88">
    <path clip-path="url(#pc6c6c53212)" d="M 307.361835 299.078125 
L 310.887209 299.078125 
L 310.887209 280.805777 
L 307.361835 280.805777 
z
" style="fill:#43a2ca;opacity:0.8;"/>
   </g>
   <g id="patch_89">
    <path clip-path="url(#pc6c6c53212)" d="M 310.696252 299.078125 
L 314.221626 299.078125 
L 314.221626 225.988735 
L 310.696252 225.988735 
z
" style="fill:#43a2ca;opacity:0.8;"/>
   </g>
   <g id="patch_90">
    <path clip-path="url(#pc6c6c53212)" d="M 314.030668 299.078125 
L 317.556042 299.078125 
L 317.556042 262.53343 
L 314.030668 262.53343 
z
" style="fill:#43a2ca;opacity:0.8;"/>
   </g>
   <g id="patch_91">
    <path clip-path="url(#pc6c6c53212)" d="M 317.365085 299.078125 
L 320.890459 299.078125 
L 320.890459 262.53343 
L 317.365085 262.53343 
z
" style="fill:#43a2ca;opacity:0.8;"/>
   </g>
   <g id="patch_92">
    <path clip-path="url(#pc6c6c53212)" d="M 320.699501 299.078125 
L 324.224875 299.078125 
L 324.224875 244.261082 
L 320.699501 244.261082 
z
" style="fill:#43a2ca;opacity:0.8;"/>
   </g>
   <g id="patch_93">
    <path clip-path="url(#pc6c6c53212)" d="M 324.033917 299.078125 
L 327.559292 299.078125 
L 327.559292 262.53343 
L 324.033917 262.53343 
z
" style="fill:#43a2ca;opacity:0.8;"/>
   </g>
   <g id="patch_94">
    <path clip-path="url(#pc6c6c53212)" d="M 327.368334 299.078125 
L 330.893708 299.078125 
L 330.893708 280.805777 
L 327.368334 280.805777 
z
" style="fill:#43a2ca;opacity:0.8;"/>
   </g>
   <g id="patch_95">
    <path clip-path="url(#pc6c6c53212)" d="M 330.70275 299.078125 
L 334.228125 299.078125 
L 334.228125 280.805777 
L 330.70275 280.805777 
z
" style="fill:#43a2ca;opacity:0.8;"/>
   </g>
   <g id="patch_96">
    <path clip-path="url(#pc6c6c53212)" d="M 334.037167 299.078125 
L 337.562541 299.078125 
L 337.562541 244.261082 
L 334.037167 244.261082 
z
" style="fill:#43a2ca;opacity:0.8;"/>
   </g>
   <g id="patch_97">
    <path clip-path="url(#pc6c6c53212)" d="M 337.371583 299.078125 
L 340.896958 299.078125 
L 340.896958 262.53343 
L 337.371583 262.53343 
z
" style="fill:#43a2ca;opacity:0.8;"/>
   </g>
   <g id="patch_98">
    <path clip-path="url(#pc6c6c53212)" d="M 340.706 299.078125 
L 344.231374 299.078125 
L 344.231374 244.261082 
L 340.706 244.261082 
z
" style="fill:#43a2ca;opacity:0.8;"/>
   </g>
   <g id="patch_99">
    <path clip-path="url(#pc6c6c53212)" d="M 344.040416 299.078125 
L 347.56579 299.078125 
L 347.56579 262.53343 
L 344.040416 262.53343 
z
" style="fill:#43a2ca;opacity:0.8;"/>
   </g>
   <g id="patch_100">
    <path clip-path="url(#pc6c6c53212)" d="M 347.374833 299.078125 
L 350.900207 299.078125 
L 350.900207 299.078125 
L 347.374833 299.078125 
z
" style="fill:#43a2ca;opacity:0.8;"/>
   </g>
   <g id="patch_101">
    <path clip-path="url(#pc6c6c53212)" d="M 350.709249 299.078125 
L 354.234623 299.078125 
L 354.234623 280.805777 
L 350.709249 280.805777 
z
" style="fill:#43a2ca;opacity:0.8;"/>
   </g>
   <g id="patch_102">
    <path clip-path="url(#pc6c6c53212)" d="M 354.043666 299.078125 
L 357.56904 299.078125 
L 357.56904 280.805777 
L 354.043666 280.805777 
z
" style="fill:#43a2ca;opacity:0.8;"/>
   </g>
   <g id="patch_103">
    <path clip-path="url(#pc6c6c53212)" d="M 357.378082 299.078125 
L 360.903456 299.078125 
L 360.903456 299.078125 
L 357.378082 299.078125 
z
" style="fill:#43a2ca;opacity:0.8;"/>
   </g>
   <g id="patch_104">
    <path clip-path="url(#pc6c6c53212)" d="M 360.712498 299.078125 
L 364.237873 299.078125 
L 364.237873 280.805777 
L 360.712498 280.805777 
z
" style="fill:#43a2ca;opacity:0.8;"/>
   </g>
   <g id="patch_105">
    <path clip-path="url(#pc6c6c53212)" d="M 364.046915 299.078125 
L 367.572289 299.078125 
L 367.572289 280.805777 
L 364.046915 280.805777 
z
" style="fill:#43a2ca;opacity:0.8;"/>
   </g>
   <g id="patch_106">
    <path clip-path="url(#pc6c6c53212)" d="M 367.381331 299.078125 
L 370.906706 299.078125 
L 370.906706 299.078125 
L 367.381331 299.078125 
z
" style="fill:#43a2ca;opacity:0.8;"/>
   </g>
   <g id="patch_107">
    <path clip-path="url(#pc6c6c53212)" d="M 370.715748 299.078125 
L 374.241122 299.078125 
L 374.241122 280.805777 
L 370.715748 280.805777 
z
" style="fill:#43a2ca;opacity:0.8;"/>
   </g>
   <g id="patch_108">
    <path clip-path="url(#pc6c6c53212)" d="M 374.050164 299.078125 
L 377.575539 299.078125 
L 377.575539 280.805777 
L 374.050164 280.805777 
z
" style="fill:#43a2ca;opacity:0.8;"/>
   </g>
   <g id="patch_109">
    <path clip-path="url(#pc6c6c53212)" d="M 377.384581 299.078125 
L 380.909955 299.078125 
L 380.909955 280.805777 
L 377.384581 280.805777 
z
" style="fill:#43a2ca;opacity:0.8;"/>
   </g>
   <g id="patch_110">
    <path clip-path="url(#pc6c6c53212)" d="M 380.718997 299.078125 
L 384.244371 299.078125 
L 384.244371 262.53343 
L 380.718997 262.53343 
z
" style="fill:#43a2ca;opacity:0.8;"/>
   </g>
   <g id="patch_111">
    <path clip-path="url(#pc6c6c53212)" d="M 384.053414 299.078125 
L 387.578788 299.078125 
L 387.578788 299.078125 
L 384.053414 299.078125 
z
" style="fill:#43a2ca;opacity:0.8;"/>
   </g>
   <g id="patch_112">
    <path clip-path="url(#pc6c6c53212)" d="M 387.38783 299.078125 
L 390.913204 299.078125 
L 390.913204 280.805777 
L 387.38783 280.805777 
z
" style="fill:#43a2ca;opacity:0.8;"/>
   </g>
   <g id="patch_113">
    <path clip-path="url(#pc6c6c53212)" d="M 390.722247 299.078125 
L 394.247621 299.078125 
L 394.247621 299.078125 
L 390.722247 299.078125 
z
" style="fill:#43a2ca;opacity:0.8;"/>
   </g>
   <g id="patch_114">
    <path clip-path="url(#pc6c6c53212)" d="M 394.056663 299.078125 
L 397.582037 299.078125 
L 397.582037 299.078125 
L 394.056663 299.078125 
z
" style="fill:#43a2ca;opacity:0.8;"/>
   </g>
   <g id="patch_115">
    <path clip-path="url(#pc6c6c53212)" d="M 397.391079 299.078125 
L 400.916454 299.078125 
L 400.916454 280.805777 
L 397.391079 280.805777 
z
" style="fill:#43a2ca;opacity:0.8;"/>
   </g>
   <g id="patch_116">
    <path clip-path="url(#pc6c6c53212)" d="M 400.725496 299.078125 
L 404.25087 299.078125 
L 404.25087 280.805777 
L 400.725496 280.805777 
z
" style="fill:#43a2ca;opacity:0.8;"/>
   </g>
   <g id="matplotlib.axis_3">
    <g id="xtick_8">
     <g id="line2d_17">
      <g>
       <use style="stroke:#000000;stroke-width:0.8;" x="227.595648" xlink:href="#m37b71ac2ab" y="299.078125"/>
      </g>
     </g>
     <g id="text_19">
      <!-- −0.4 -->
      <g transform="translate(215.454242 313.676562)scale(0.1 -0.1)">
       <defs>
        <path d="M 37.796875 64.3125 
L 12.890625 25.390625 
L 37.796875 25.390625 
z
M 35.203125 72.90625 
L 47.609375 72.90625 
L 47.609375 25.390625 
L 58.015625 25.390625 
L 58.015625 17.1875 
L 47.609375 17.1875 
L 47.609375 0 
L 37.796875 0 
L 37.796875 17.1875 
L 4.890625 17.1875 
L 4.890625 26.703125 
z
" id="DejaVuSans-52"/>
       </defs>
       <use xlink:href="#DejaVuSans-8722"/>
       <use x="83.789062" xlink:href="#DejaVuSans-48"/>
       <use x="147.412109" xlink:href="#DejaVuSans-46"/>
       <use x="179.199219" xlink:href="#DejaVuSans-52"/>
      </g>
     </g>
    </g>
    <g id="xtick_9">
     <g id="line2d_18">
      <g>
       <use style="stroke:#000000;stroke-width:0.8;" x="277.41589" xlink:href="#m37b71ac2ab" y="299.078125"/>
      </g>
     </g>
     <g id="text_20">
      <!-- −0.2 -->
      <g transform="translate(265.274484 313.676562)scale(0.1 -0.1)">
       <use xlink:href="#DejaVuSans-8722"/>
       <use x="83.789062" xlink:href="#DejaVuSans-48"/>
       <use x="147.412109" xlink:href="#DejaVuSans-46"/>
       <use x="179.199219" xlink:href="#DejaVuSans-50"/>
      </g>
     </g>
    </g>
    <g id="xtick_10">
     <g id="line2d_19">
      <g>
       <use style="stroke:#000000;stroke-width:0.8;" x="327.236132" xlink:href="#m37b71ac2ab" y="299.078125"/>
      </g>
     </g>
     <g id="text_21">
      <!-- 0.0 -->
      <g transform="translate(319.28457 313.676562)scale(0.1 -0.1)">
       <use xlink:href="#DejaVuSans-48"/>
       <use x="63.623047" xlink:href="#DejaVuSans-46"/>
       <use x="95.410156" xlink:href="#DejaVuSans-48"/>
      </g>
     </g>
    </g>
    <g id="xtick_11">
     <g id="line2d_20">
      <g>
       <use style="stroke:#000000;stroke-width:0.8;" x="377.056375" xlink:href="#m37b71ac2ab" y="299.078125"/>
      </g>
     </g>
     <g id="text_22">
      <!-- 0.2 -->
      <g transform="translate(369.104812 313.676562)scale(0.1 -0.1)">
       <use xlink:href="#DejaVuSans-48"/>
       <use x="63.623047" xlink:href="#DejaVuSans-46"/>
       <use x="95.410156" xlink:href="#DejaVuSans-50"/>
      </g>
     </g>
    </g>
    <g id="xtick_12">
     <g id="line2d_21">
      <g>
       <use style="stroke:#000000;stroke-width:0.8;" x="426.876617" xlink:href="#m37b71ac2ab" y="299.078125"/>
      </g>
     </g>
     <g id="text_23">
      <!-- 0.4 -->
      <g transform="translate(418.925055 313.676562)scale(0.1 -0.1)">
       <use xlink:href="#DejaVuSans-48"/>
       <use x="63.623047" xlink:href="#DejaVuSans-46"/>
       <use x="95.410156" xlink:href="#DejaVuSans-52"/>
      </g>
     </g>
    </g>
    <g id="text_24">
     <!-- Rho value -->
     <g transform="translate(300.450781 327.354687)scale(0.1 -0.1)">
      <defs>
       <path d="M 44.390625 34.1875 
Q 47.5625 33.109375 50.5625 29.59375 
Q 53.5625 26.078125 56.59375 19.921875 
L 66.609375 0 
L 56 0 
L 46.6875 18.703125 
Q 43.0625 26.03125 39.671875 28.421875 
Q 36.28125 30.8125 30.421875 30.8125 
L 19.671875 30.8125 
L 19.671875 0 
L 9.8125 0 
L 9.8125 72.90625 
L 32.078125 72.90625 
Q 44.578125 72.90625 50.734375 67.671875 
Q 56.890625 62.453125 56.890625 51.90625 
Q 56.890625 45.015625 53.6875 40.46875 
Q 50.484375 35.9375 44.390625 34.1875 
z
M 19.671875 64.796875 
L 19.671875 38.921875 
L 32.078125 38.921875 
Q 39.203125 38.921875 42.84375 42.21875 
Q 46.484375 45.515625 46.484375 51.90625 
Q 46.484375 58.296875 42.84375 61.546875 
Q 39.203125 64.796875 32.078125 64.796875 
z
" id="DejaVuSans-82"/>
      </defs>
      <use xlink:href="#DejaVuSans-82"/>
      <use x="69.482422" xlink:href="#DejaVuSans-104"/>
      <use x="132.861328" xlink:href="#DejaVuSans-111"/>
      <use x="194.042969" xlink:href="#DejaVuSans-32"/>
      <use x="225.830078" xlink:href="#DejaVuSans-118"/>
      <use x="285.009766" xlink:href="#DejaVuSans-97"/>
      <use x="346.289062" xlink:href="#DejaVuSans-108"/>
      <use x="374.072266" xlink:href="#DejaVuSans-117"/>
      <use x="437.451172" xlink:href="#DejaVuSans-101"/>
     </g>
    </g>
   </g>
   <g id="matplotlib.axis_4">
    <g id="ytick_10">
     <g id="line2d_22">
      <g>
       <use style="stroke:#000000;stroke-width:0.8;" x="204.7" xlink:href="#m3e632b5e2d" y="299.078125"/>
      </g>
     </g>
     <g id="text_25">
      <!-- 0 -->
      <g transform="translate(191.3375 302.877344)scale(0.1 -0.1)">
       <use xlink:href="#DejaVuSans-48"/>
      </g>
     </g>
    </g>
    <g id="ytick_11">
     <g id="line2d_23">
      <g>
       <use style="stroke:#000000;stroke-width:0.8;" x="204.7" xlink:href="#m3e632b5e2d" y="262.53343"/>
      </g>
     </g>
     <g id="text_26">
      <!-- 2 -->
      <g transform="translate(191.3375 266.332649)scale(0.1 -0.1)">
       <use xlink:href="#DejaVuSans-50"/>
      </g>
     </g>
    </g>
    <g id="ytick_12">
     <g id="line2d_24">
      <g>
       <use style="stroke:#000000;stroke-width:0.8;" x="204.7" xlink:href="#m3e632b5e2d" y="225.988735"/>
      </g>
     </g>
     <g id="text_27">
      <!-- 4 -->
      <g transform="translate(191.3375 229.787954)scale(0.1 -0.1)">
       <use xlink:href="#DejaVuSans-52"/>
      </g>
     </g>
    </g>
    <g id="text_28">
     <!-- Number of bacteria -->
     <g transform="translate(185.257812 293.014531)rotate(-90)scale(0.1 -0.1)">
      <defs>
       <path d="M 9.8125 72.90625 
L 23.09375 72.90625 
L 55.421875 11.921875 
L 55.421875 72.90625 
L 64.984375 72.90625 
L 64.984375 0 
L 51.703125 0 
L 19.390625 60.984375 
L 19.390625 0 
L 9.8125 0 
z
" id="DejaVuSans-78"/>
      </defs>
      <use xlink:href="#DejaVuSans-78"/>
      <use x="74.804688" xlink:href="#DejaVuSans-117"/>
      <use x="138.183594" xlink:href="#DejaVuSans-109"/>
      <use x="235.595703" xlink:href="#DejaVuSans-98"/>
      <use x="299.072266" xlink:href="#DejaVuSans-101"/>
      <use x="360.595703" xlink:href="#DejaVuSans-114"/>
      <use x="401.708984" xlink:href="#DejaVuSans-32"/>
      <use x="433.496094" xlink:href="#DejaVuSans-111"/>
      <use x="494.677734" xlink:href="#DejaVuSans-102"/>
      <use x="529.882812" xlink:href="#DejaVuSans-32"/>
      <use x="561.669922" xlink:href="#DejaVuSans-98"/>
      <use x="625.146484" xlink:href="#DejaVuSans-97"/>
      <use x="686.425781" xlink:href="#DejaVuSans-99"/>
      <use x="741.40625" xlink:href="#DejaVuSans-116"/>
      <use x="780.615234" xlink:href="#DejaVuSans-101"/>
      <use x="842.138672" xlink:href="#DejaVuSans-114"/>
      <use x="883.251953" xlink:href="#DejaVuSans-105"/>
      <use x="911.035156" xlink:href="#DejaVuSans-97"/>
     </g>
    </g>
   </g>
   <g id="patch_117">
    <path d="M 204.7 299.078125 
L 204.7 189.718125 
" style="fill:none;stroke:#000000;stroke-linecap:square;stroke-linejoin:miter;stroke-width:0.8;"/>
   </g>
   <g id="patch_118">
    <path d="M 446.1 299.078125 
L 446.1 189.718125 
" style="fill:none;stroke:#000000;stroke-linecap:square;stroke-linejoin:miter;stroke-width:0.8;"/>
   </g>
   <g id="patch_119">
    <path d="M 204.7 299.078125 
L 446.1 299.078125 
" style="fill:none;stroke:#000000;stroke-linecap:square;stroke-linejoin:miter;stroke-width:0.8;"/>
   </g>
   <g id="patch_120">
    <path d="M 204.7 189.718125 
L 446.1 189.718125 
" style="fill:none;stroke:#000000;stroke-linecap:square;stroke-linejoin:miter;stroke-width:0.8;"/>
   </g>
   <g id="text_29">
    <!-- Real tags vs. Mixed tags at control sample group -->
    <g transform="translate(178.92875 183.718125)scale(0.12 -0.12)">
     <defs>
      <path d="M 9.8125 72.90625 
L 24.515625 72.90625 
L 43.109375 23.296875 
L 61.8125 72.90625 
L 76.515625 72.90625 
L 76.515625 0 
L 66.890625 0 
L 66.890625 64.015625 
L 48.09375 14.015625 
L 38.1875 14.015625 
L 19.390625 64.015625 
L 19.390625 0 
L 9.8125 0 
z
" id="DejaVuSans-77"/>
      <path d="M 54.890625 54.6875 
L 35.109375 28.078125 
L 55.90625 0 
L 45.3125 0 
L 29.390625 21.484375 
L 13.484375 0 
L 2.875 0 
L 24.125 28.609375 
L 4.6875 54.6875 
L 15.28125 54.6875 
L 29.78125 35.203125 
L 44.28125 54.6875 
z
" id="DejaVuSans-120"/>
     </defs>
     <use xlink:href="#DejaVuSans-82"/>
     <use x="64.982422" xlink:href="#DejaVuSans-101"/>
     <use x="126.505859" xlink:href="#DejaVuSans-97"/>
     <use x="187.785156" xlink:href="#DejaVuSans-108"/>
     <use x="215.568359" xlink:href="#DejaVuSans-32"/>
     <use x="247.355469" xlink:href="#DejaVuSans-116"/>
     <use x="286.564453" xlink:href="#DejaVuSans-97"/>
     <use x="347.84375" xlink:href="#DejaVuSans-103"/>
     <use x="411.320312" xlink:href="#DejaVuSans-115"/>
     <use x="463.419922" xlink:href="#DejaVuSans-32"/>
     <use x="495.207031" xlink:href="#DejaVuSans-118"/>
     <use x="554.386719" xlink:href="#DejaVuSans-115"/>
     <use x="606.486328" xlink:href="#DejaVuSans-46"/>
     <use x="638.273438" xlink:href="#DejaVuSans-32"/>
     <use x="670.060547" xlink:href="#DejaVuSans-77"/>
     <use x="756.339844" xlink:href="#DejaVuSans-105"/>
     <use x="784.123047" xlink:href="#DejaVuSans-120"/>
     <use x="840.177734" xlink:href="#DejaVuSans-101"/>
     <use x="901.701172" xlink:href="#DejaVuSans-100"/>
     <use x="965.177734" xlink:href="#DejaVuSans-32"/>
     <use x="996.964844" xlink:href="#DejaVuSans-116"/>
     <use x="1036.173828" xlink:href="#DejaVuSans-97"/>
     <use x="1097.453125" xlink:href="#DejaVuSans-103"/>
     <use x="1160.929688" xlink:href="#DejaVuSans-115"/>
     <use x="1213.029297" xlink:href="#DejaVuSans-32"/>
     <use x="1244.816406" xlink:href="#DejaVuSans-97"/>
     <use x="1306.095703" xlink:href="#DejaVuSans-116"/>
     <use x="1345.304688" xlink:href="#DejaVuSans-32"/>
     <use x="1377.091797" xlink:href="#DejaVuSans-99"/>
     <use x="1432.072266" xlink:href="#DejaVuSans-111"/>
     <use x="1493.253906" xlink:href="#DejaVuSans-110"/>
     <use x="1556.632812" xlink:href="#DejaVuSans-116"/>
     <use x="1595.841797" xlink:href="#DejaVuSans-114"/>
     <use x="1634.705078" xlink:href="#DejaVuSans-111"/>
     <use x="1695.886719" xlink:href="#DejaVuSans-108"/>
     <use x="1723.669922" xlink:href="#DejaVuSans-32"/>
     <use x="1755.457031" xlink:href="#DejaVuSans-115"/>
     <use x="1807.556641" xlink:href="#DejaVuSans-97"/>
     <use x="1868.835938" xlink:href="#DejaVuSans-109"/>
     <use x="1966.248047" xlink:href="#DejaVuSans-112"/>
     <use x="2029.724609" xlink:href="#DejaVuSans-108"/>
     <use x="2057.507812" xlink:href="#DejaVuSans-101"/>
     <use x="2119.03125" xlink:href="#DejaVuSans-32"/>
     <use x="2150.818359" xlink:href="#DejaVuSans-103"/>
     <use x="2214.294922" xlink:href="#DejaVuSans-114"/>
     <use x="2253.158203" xlink:href="#DejaVuSans-111"/>
     <use x="2314.339844" xlink:href="#DejaVuSans-117"/>
     <use x="2377.71875" xlink:href="#DejaVuSans-112"/>
    </g>
   </g>
   <g id="legend_1">
    <g id="patch_121">
     <path d="M 352.801562 227.074375 
L 439.1 227.074375 
Q 441.1 227.074375 441.1 225.074375 
L 441.1 196.718125 
Q 441.1 194.718125 439.1 194.718125 
L 352.801562 194.718125 
Q 350.801562 194.718125 350.801562 196.718125 
L 350.801562 225.074375 
Q 350.801562 227.074375 352.801562 227.074375 
z
" style="fill:#ffffff;opacity:0.8;stroke:#cccccc;stroke-linejoin:miter;"/>
    </g>
    <g id="patch_122">
     <path d="M 354.801562 206.316562 
L 374.801562 206.316562 
L 374.801562 199.316562 
L 354.801562 199.316562 
z
" style="fill:#d95f0e;opacity:0.5;"/>
    </g>
    <g id="text_30">
     <!-- Mixed tags -->
     <g transform="translate(382.801562 206.316562)scale(0.1 -0.1)">
      <use xlink:href="#DejaVuSans-77"/>
      <use x="86.279297" xlink:href="#DejaVuSans-105"/>
      <use x="114.0625" xlink:href="#DejaVuSans-120"/>
      <use x="170.117188" xlink:href="#DejaVuSans-101"/>
      <use x="231.640625" xlink:href="#DejaVuSans-100"/>
      <use x="295.117188" xlink:href="#DejaVuSans-32"/>
      <use x="326.904297" xlink:href="#DejaVuSans-116"/>
      <use x="366.113281" xlink:href="#DejaVuSans-97"/>
      <use x="427.392578" xlink:href="#DejaVuSans-103"/>
      <use x="490.869141" xlink:href="#DejaVuSans-115"/>
     </g>
    </g>
    <g id="patch_123">
     <path d="M 354.801562 220.994687 
L 374.801562 220.994687 
L 374.801562 213.994687 
L 354.801562 213.994687 
z
" style="fill:#43a2ca;opacity:0.8;"/>
    </g>
    <g id="text_31">
     <!-- Real tags -->
     <g transform="translate(382.801562 220.994687)scale(0.1 -0.1)">
      <use xlink:href="#DejaVuSans-82"/>
      <use x="64.982422" xlink:href="#DejaVuSans-101"/>
      <use x="126.505859" xlink:href="#DejaVuSans-97"/>
      <use x="187.785156" xlink:href="#DejaVuSans-108"/>
      <use x="215.568359" xlink:href="#DejaVuSans-32"/>
      <use x="247.355469" xlink:href="#DejaVuSans-116"/>
      <use x="286.564453" xlink:href="#DejaVuSans-97"/>
      <use x="347.84375" xlink:href="#DejaVuSans-103"/>
      <use x="411.320312" xlink:href="#DejaVuSans-115"/>
     </g>
    </g>
   </g>
  </g>
 </g>
 <defs>
  <clipPath id="p7463cd0e4d">
   <rect height="109.36" width="241.4" x="204.7" y="22.318125"/>
  </clipPath>
  <clipPath id="pc6c6c53212">
   <rect height="109.36" width="241.4" x="204.7" y="189.718125"/>
  </clipPath>
 </defs>
</svg>
