<?xml version="1.0" encoding="utf-8" standalone="no"?>
<!DOCTYPE svg PUBLIC "-//W3C//DTD SVG 1.1//EN"
  "http://www.w3.org/Graphics/SVG/1.1/DTD/svg11.dtd">
<!-- Created with matplotlib (https://matplotlib.org/) -->
<svg height="336.634375pt" version="1.1" viewBox="0 0 453.170625 336.634375" width="453.170625pt" xmlns="http://www.w3.org/2000/svg" xmlns:xlink="http://www.w3.org/1999/xlink">
 <metadata>
  <rdf:RDF xmlns:cc="http://creativecommons.org/ns#" xmlns:dc="http://purl.org/dc/elements/1.1/" xmlns:rdf="http://www.w3.org/1999/02/22-rdf-syntax-ns#">
   <cc:Work>
    <dc:type rdf:resource="http://purl.org/dc/dcmitype/StillImage"/>
    <dc:date>2021-01-17T12:41:46.979597</dc:date>
    <dc:format>image/svg+xml</dc:format>
    <dc:creator>
     <cc:Agent>
      <dc:title>Matplotlib v3.3.2, https://matplotlib.org/</dc:title>
     </cc:Agent>
    </dc:creator>
   </cc:Work>
  </rdf:RDF>
 </metadata>
 <defs>
  <style type="text/css">*{stroke-linecap:butt;stroke-linejoin:round;}</style>
 </defs>
 <g id="figure_1">
  <g id="patch_1">
   <path d="M 0 336.634375 
L 453.170625 336.634375 
L 453.170625 0 
L 0 0 
z
" style="fill:#ffffff;"/>
  </g>
  <g id="axes_1">
   <g id="patch_2">
    <path d="M 34.240625 131.678125 
L 445.970625 131.678125 
L 445.970625 22.318125 
L 34.240625 22.318125 
z
" style="fill:#ffffff;"/>
   </g>
   <g id="matplotlib.axis_1">
    <g id="xtick_1">
     <g id="line2d_1">
      <defs>
       <path d="M 0 0 
L 0 3.5 
" id="m4d737db508" style="stroke:#000000;stroke-width:0.8;"/>
      </defs>
      <g>
       <use style="stroke:#000000;stroke-width:0.8;" x="90.385625" xlink:href="#m4d737db508" y="131.678125"/>
      </g>
     </g>
     <g id="text_1">
      <!-- −0.04 -->
      <g transform="translate(75.062969 146.276562)scale(0.1 -0.1)">
       <defs>
        <path d="M 10.59375 35.5 
L 73.1875 35.5 
L 73.1875 27.203125 
L 10.59375 27.203125 
z
" id="DejaVuSans-8722"/>
        <path d="M 31.78125 66.40625 
Q 24.171875 66.40625 20.328125 58.90625 
Q 16.5 51.421875 16.5 36.375 
Q 16.5 21.390625 20.328125 13.890625 
Q 24.171875 6.390625 31.78125 6.390625 
Q 39.453125 6.390625 43.28125 13.890625 
Q 47.125 21.390625 47.125 36.375 
Q 47.125 51.421875 43.28125 58.90625 
Q 39.453125 66.40625 31.78125 66.40625 
z
M 31.78125 74.21875 
Q 44.046875 74.21875 50.515625 64.515625 
Q 56.984375 54.828125 56.984375 36.375 
Q 56.984375 17.96875 50.515625 8.265625 
Q 44.046875 -1.421875 31.78125 -1.421875 
Q 19.53125 -1.421875 13.0625 8.265625 
Q 6.59375 17.96875 6.59375 36.375 
Q 6.59375 54.828125 13.0625 64.515625 
Q 19.53125 74.21875 31.78125 74.21875 
z
" id="DejaVuSans-48"/>
        <path d="M 10.6875 12.40625 
L 21 12.40625 
L 21 0 
L 10.6875 0 
z
" id="DejaVuSans-46"/>
        <path d="M 37.796875 64.3125 
L 12.890625 25.390625 
L 37.796875 25.390625 
z
M 35.203125 72.90625 
L 47.609375 72.90625 
L 47.609375 25.390625 
L 58.015625 25.390625 
L 58.015625 17.1875 
L 47.609375 17.1875 
L 47.609375 0 
L 37.796875 0 
L 37.796875 17.1875 
L 4.890625 17.1875 
L 4.890625 26.703125 
z
" id="DejaVuSans-52"/>
       </defs>
       <use xlink:href="#DejaVuSans-8722"/>
       <use x="83.789062" xlink:href="#DejaVuSans-48"/>
       <use x="147.412109" xlink:href="#DejaVuSans-46"/>
       <use x="179.199219" xlink:href="#DejaVuSans-48"/>
       <use x="242.822266" xlink:href="#DejaVuSans-52"/>
      </g>
     </g>
    </g>
    <g id="xtick_2">
     <g id="line2d_2">
      <g>
       <use style="stroke:#000000;stroke-width:0.8;" x="165.245625" xlink:href="#m4d737db508" y="131.678125"/>
      </g>
     </g>
     <g id="text_2">
      <!-- −0.02 -->
      <g transform="translate(149.922969 146.276562)scale(0.1 -0.1)">
       <defs>
        <path d="M 19.1875 8.296875 
L 53.609375 8.296875 
L 53.609375 0 
L 7.328125 0 
L 7.328125 8.296875 
Q 12.9375 14.109375 22.625 23.890625 
Q 32.328125 33.6875 34.8125 36.53125 
Q 39.546875 41.84375 41.421875 45.53125 
Q 43.3125 49.21875 43.3125 52.78125 
Q 43.3125 58.59375 39.234375 62.25 
Q 35.15625 65.921875 28.609375 65.921875 
Q 23.96875 65.921875 18.8125 64.3125 
Q 13.671875 62.703125 7.8125 59.421875 
L 7.8125 69.390625 
Q 13.765625 71.78125 18.9375 73 
Q 24.125 74.21875 28.421875 74.21875 
Q 39.75 74.21875 46.484375 68.546875 
Q 53.21875 62.890625 53.21875 53.421875 
Q 53.21875 48.921875 51.53125 44.890625 
Q 49.859375 40.875 45.40625 35.40625 
Q 44.1875 33.984375 37.640625 27.21875 
Q 31.109375 20.453125 19.1875 8.296875 
z
" id="DejaVuSans-50"/>
       </defs>
       <use xlink:href="#DejaVuSans-8722"/>
       <use x="83.789062" xlink:href="#DejaVuSans-48"/>
       <use x="147.412109" xlink:href="#DejaVuSans-46"/>
       <use x="179.199219" xlink:href="#DejaVuSans-48"/>
       <use x="242.822266" xlink:href="#DejaVuSans-50"/>
      </g>
     </g>
    </g>
    <g id="xtick_3">
     <g id="line2d_3">
      <g>
       <use style="stroke:#000000;stroke-width:0.8;" x="240.105625" xlink:href="#m4d737db508" y="131.678125"/>
      </g>
     </g>
     <g id="text_3">
      <!-- 0.00 -->
      <g transform="translate(228.972813 146.276562)scale(0.1 -0.1)">
       <use xlink:href="#DejaVuSans-48"/>
       <use x="63.623047" xlink:href="#DejaVuSans-46"/>
       <use x="95.410156" xlink:href="#DejaVuSans-48"/>
       <use x="159.033203" xlink:href="#DejaVuSans-48"/>
      </g>
     </g>
    </g>
    <g id="xtick_4">
     <g id="line2d_4">
      <g>
       <use style="stroke:#000000;stroke-width:0.8;" x="314.965625" xlink:href="#m4d737db508" y="131.678125"/>
      </g>
     </g>
     <g id="text_4">
      <!-- 0.02 -->
      <g transform="translate(303.832813 146.276562)scale(0.1 -0.1)">
       <use xlink:href="#DejaVuSans-48"/>
       <use x="63.623047" xlink:href="#DejaVuSans-46"/>
       <use x="95.410156" xlink:href="#DejaVuSans-48"/>
       <use x="159.033203" xlink:href="#DejaVuSans-50"/>
      </g>
     </g>
    </g>
    <g id="xtick_5">
     <g id="line2d_5">
      <g>
       <use style="stroke:#000000;stroke-width:0.8;" x="389.825625" xlink:href="#m4d737db508" y="131.678125"/>
      </g>
     </g>
     <g id="text_5">
      <!-- 0.04 -->
      <g transform="translate(378.692813 146.276562)scale(0.1 -0.1)">
       <use xlink:href="#DejaVuSans-48"/>
       <use x="63.623047" xlink:href="#DejaVuSans-46"/>
       <use x="95.410156" xlink:href="#DejaVuSans-48"/>
       <use x="159.033203" xlink:href="#DejaVuSans-52"/>
      </g>
     </g>
    </g>
    <g id="text_6">
     <!-- Coeff value -->
     <g transform="translate(211.711094 159.954687)scale(0.1 -0.1)">
      <defs>
       <path d="M 64.40625 67.28125 
L 64.40625 56.890625 
Q 59.421875 61.53125 53.78125 63.8125 
Q 48.140625 66.109375 41.796875 66.109375 
Q 29.296875 66.109375 22.65625 58.46875 
Q 16.015625 50.828125 16.015625 36.375 
Q 16.015625 21.96875 22.65625 14.328125 
Q 29.296875 6.6875 41.796875 6.6875 
Q 48.140625 6.6875 53.78125 8.984375 
Q 59.421875 11.28125 64.40625 15.921875 
L 64.40625 5.609375 
Q 59.234375 2.09375 53.4375 0.328125 
Q 47.65625 -1.421875 41.21875 -1.421875 
Q 24.65625 -1.421875 15.125 8.703125 
Q 5.609375 18.84375 5.609375 36.375 
Q 5.609375 53.953125 15.125 64.078125 
Q 24.65625 74.21875 41.21875 74.21875 
Q 47.75 74.21875 53.53125 72.484375 
Q 59.328125 70.75 64.40625 67.28125 
z
" id="DejaVuSans-67"/>
       <path d="M 30.609375 48.390625 
Q 23.390625 48.390625 19.1875 42.75 
Q 14.984375 37.109375 14.984375 27.296875 
Q 14.984375 17.484375 19.15625 11.84375 
Q 23.34375 6.203125 30.609375 6.203125 
Q 37.796875 6.203125 41.984375 11.859375 
Q 46.1875 17.53125 46.1875 27.296875 
Q 46.1875 37.015625 41.984375 42.703125 
Q 37.796875 48.390625 30.609375 48.390625 
z
M 30.609375 56 
Q 42.328125 56 49.015625 48.375 
Q 55.71875 40.765625 55.71875 27.296875 
Q 55.71875 13.875 49.015625 6.21875 
Q 42.328125 -1.421875 30.609375 -1.421875 
Q 18.84375 -1.421875 12.171875 6.21875 
Q 5.515625 13.875 5.515625 27.296875 
Q 5.515625 40.765625 12.171875 48.375 
Q 18.84375 56 30.609375 56 
z
" id="DejaVuSans-111"/>
       <path d="M 56.203125 29.59375 
L 56.203125 25.203125 
L 14.890625 25.203125 
Q 15.484375 15.921875 20.484375 11.0625 
Q 25.484375 6.203125 34.421875 6.203125 
Q 39.59375 6.203125 44.453125 7.46875 
Q 49.3125 8.734375 54.109375 11.28125 
L 54.109375 2.78125 
Q 49.265625 0.734375 44.1875 -0.34375 
Q 39.109375 -1.421875 33.890625 -1.421875 
Q 20.796875 -1.421875 13.15625 6.1875 
Q 5.515625 13.8125 5.515625 26.8125 
Q 5.515625 40.234375 12.765625 48.109375 
Q 20.015625 56 32.328125 56 
Q 43.359375 56 49.78125 48.890625 
Q 56.203125 41.796875 56.203125 29.59375 
z
M 47.21875 32.234375 
Q 47.125 39.59375 43.09375 43.984375 
Q 39.0625 48.390625 32.421875 48.390625 
Q 24.90625 48.390625 20.390625 44.140625 
Q 15.875 39.890625 15.1875 32.171875 
z
" id="DejaVuSans-101"/>
       <path d="M 37.109375 75.984375 
L 37.109375 68.5 
L 28.515625 68.5 
Q 23.6875 68.5 21.796875 66.546875 
Q 19.921875 64.59375 19.921875 59.515625 
L 19.921875 54.6875 
L 34.71875 54.6875 
L 34.71875 47.703125 
L 19.921875 47.703125 
L 19.921875 0 
L 10.890625 0 
L 10.890625 47.703125 
L 2.296875 47.703125 
L 2.296875 54.6875 
L 10.890625 54.6875 
L 10.890625 58.5 
Q 10.890625 67.625 15.140625 71.796875 
Q 19.390625 75.984375 28.609375 75.984375 
z
" id="DejaVuSans-102"/>
       <path id="DejaVuSans-32"/>
       <path d="M 2.984375 54.6875 
L 12.5 54.6875 
L 29.59375 8.796875 
L 46.6875 54.6875 
L 56.203125 54.6875 
L 35.6875 0 
L 23.484375 0 
z
" id="DejaVuSans-118"/>
       <path d="M 34.28125 27.484375 
Q 23.390625 27.484375 19.1875 25 
Q 14.984375 22.515625 14.984375 16.5 
Q 14.984375 11.71875 18.140625 8.90625 
Q 21.296875 6.109375 26.703125 6.109375 
Q 34.1875 6.109375 38.703125 11.40625 
Q 43.21875 16.703125 43.21875 25.484375 
L 43.21875 27.484375 
z
M 52.203125 31.203125 
L 52.203125 0 
L 43.21875 0 
L 43.21875 8.296875 
Q 40.140625 3.328125 35.546875 0.953125 
Q 30.953125 -1.421875 24.3125 -1.421875 
Q 15.921875 -1.421875 10.953125 3.296875 
Q 6 8.015625 6 15.921875 
Q 6 25.140625 12.171875 29.828125 
Q 18.359375 34.515625 30.609375 34.515625 
L 43.21875 34.515625 
L 43.21875 35.40625 
Q 43.21875 41.609375 39.140625 45 
Q 35.0625 48.390625 27.6875 48.390625 
Q 23 48.390625 18.546875 47.265625 
Q 14.109375 46.140625 10.015625 43.890625 
L 10.015625 52.203125 
Q 14.9375 54.109375 19.578125 55.046875 
Q 24.21875 56 28.609375 56 
Q 40.484375 56 46.34375 49.84375 
Q 52.203125 43.703125 52.203125 31.203125 
z
" id="DejaVuSans-97"/>
       <path d="M 9.421875 75.984375 
L 18.40625 75.984375 
L 18.40625 0 
L 9.421875 0 
z
" id="DejaVuSans-108"/>
       <path d="M 8.5 21.578125 
L 8.5 54.6875 
L 17.484375 54.6875 
L 17.484375 21.921875 
Q 17.484375 14.15625 20.5 10.265625 
Q 23.53125 6.390625 29.59375 6.390625 
Q 36.859375 6.390625 41.078125 11.03125 
Q 45.3125 15.671875 45.3125 23.6875 
L 45.3125 54.6875 
L 54.296875 54.6875 
L 54.296875 0 
L 45.3125 0 
L 45.3125 8.40625 
Q 42.046875 3.421875 37.71875 1 
Q 33.40625 -1.421875 27.6875 -1.421875 
Q 18.265625 -1.421875 13.375 4.4375 
Q 8.5 10.296875 8.5 21.578125 
z
M 31.109375 56 
z
" id="DejaVuSans-117"/>
      </defs>
      <use xlink:href="#DejaVuSans-67"/>
      <use x="69.824219" xlink:href="#DejaVuSans-111"/>
      <use x="131.005859" xlink:href="#DejaVuSans-101"/>
      <use x="192.529297" xlink:href="#DejaVuSans-102"/>
      <use x="227.734375" xlink:href="#DejaVuSans-102"/>
      <use x="262.939453" xlink:href="#DejaVuSans-32"/>
      <use x="294.726562" xlink:href="#DejaVuSans-118"/>
      <use x="353.90625" xlink:href="#DejaVuSans-97"/>
      <use x="415.185547" xlink:href="#DejaVuSans-108"/>
      <use x="442.96875" xlink:href="#DejaVuSans-117"/>
      <use x="506.347656" xlink:href="#DejaVuSans-101"/>
     </g>
    </g>
   </g>
   <g id="matplotlib.axis_2"/>
   <g id="patch_3">
    <path d="M 34.240625 131.678125 
L 34.240625 22.318125 
" style="fill:none;stroke:#000000;stroke-linecap:square;stroke-linejoin:miter;stroke-width:0.8;"/>
   </g>
   <g id="patch_4">
    <path d="M 445.970625 131.678125 
L 445.970625 22.318125 
" style="fill:none;stroke:#000000;stroke-linecap:square;stroke-linejoin:miter;stroke-width:0.8;"/>
   </g>
   <g id="patch_5">
    <path d="M 34.240625 131.678125 
L 445.970625 131.678125 
" style="fill:none;stroke:#000000;stroke-linecap:square;stroke-linejoin:miter;stroke-width:0.8;"/>
   </g>
   <g id="patch_6">
    <path d="M 34.240625 22.318125 
L 445.970625 22.318125 
" style="fill:none;stroke:#000000;stroke-linecap:square;stroke-linejoin:miter;stroke-width:0.8;"/>
   </g>
   <g id="text_7">
    <!-- age -->
    <g transform="translate(228.927813 16.318125)scale(0.12 -0.12)">
     <defs>
      <path d="M 45.40625 27.984375 
Q 45.40625 37.75 41.375 43.109375 
Q 37.359375 48.484375 30.078125 48.484375 
Q 22.859375 48.484375 18.828125 43.109375 
Q 14.796875 37.75 14.796875 27.984375 
Q 14.796875 18.265625 18.828125 12.890625 
Q 22.859375 7.515625 30.078125 7.515625 
Q 37.359375 7.515625 41.375 12.890625 
Q 45.40625 18.265625 45.40625 27.984375 
z
M 54.390625 6.78125 
Q 54.390625 -7.171875 48.1875 -13.984375 
Q 42 -20.796875 29.203125 -20.796875 
Q 24.46875 -20.796875 20.265625 -20.09375 
Q 16.0625 -19.390625 12.109375 -17.921875 
L 12.109375 -9.1875 
Q 16.0625 -11.328125 19.921875 -12.34375 
Q 23.78125 -13.375 27.78125 -13.375 
Q 36.625 -13.375 41.015625 -8.765625 
Q 45.40625 -4.15625 45.40625 5.171875 
L 45.40625 9.625 
Q 42.625 4.78125 38.28125 2.390625 
Q 33.9375 0 27.875 0 
Q 17.828125 0 11.671875 7.65625 
Q 5.515625 15.328125 5.515625 27.984375 
Q 5.515625 40.671875 11.671875 48.328125 
Q 17.828125 56 27.875 56 
Q 33.9375 56 38.28125 53.609375 
Q 42.625 51.21875 45.40625 46.390625 
L 45.40625 54.6875 
L 54.390625 54.6875 
z
" id="DejaVuSans-103"/>
     </defs>
     <use xlink:href="#DejaVuSans-97"/>
     <use x="61.279297" xlink:href="#DejaVuSans-103"/>
     <use x="124.755859" xlink:href="#DejaVuSans-101"/>
    </g>
   </g>
  </g>
  <g id="axes_2">
   <g id="patch_7">
    <path d="M 34.240625 299.078125 
L 445.970625 299.078125 
L 445.970625 189.718125 
L 34.240625 189.718125 
z
" style="fill:#ffffff;"/>
   </g>
   <g id="patch_8">
    <path clip-path="url(#p96676f0161)" d="M 52.955625 299.078125 
L 58.968476 299.078125 
L 58.968476 297.77622 
L 52.955625 297.77622 
z
" style="fill:#d95f0e;opacity:0.5;"/>
   </g>
   <g id="patch_9">
    <path clip-path="url(#p96676f0161)" d="M 60.471689 299.078125 
L 66.484541 299.078125 
L 66.484541 299.078125 
L 60.471689 299.078125 
z
" style="fill:#d95f0e;opacity:0.5;"/>
   </g>
   <g id="patch_10">
    <path clip-path="url(#p96676f0161)" d="M 67.987754 299.078125 
L 74.000605 299.078125 
L 74.000605 299.078125 
L 67.987754 299.078125 
z
" style="fill:#d95f0e;opacity:0.5;"/>
   </g>
   <g id="patch_11">
    <path clip-path="url(#p96676f0161)" d="M 75.503818 299.078125 
L 81.516669 299.078125 
L 81.516669 299.078125 
L 75.503818 299.078125 
z
" style="fill:#d95f0e;opacity:0.5;"/>
   </g>
   <g id="patch_12">
    <path clip-path="url(#p96676f0161)" d="M 83.019882 299.078125 
L 89.032733 299.078125 
L 89.032733 299.078125 
L 83.019882 299.078125 
z
" style="fill:#d95f0e;opacity:0.5;"/>
   </g>
   <g id="patch_13">
    <path clip-path="url(#p96676f0161)" d="M 90.535946 299.078125 
L 96.548798 299.078125 
L 96.548798 297.77622 
L 90.535946 297.77622 
z
" style="fill:#d95f0e;opacity:0.5;"/>
   </g>
   <g id="patch_14">
    <path clip-path="url(#p96676f0161)" d="M 98.052011 299.078125 
L 104.064862 299.078125 
L 104.064862 296.474315 
L 98.052011 296.474315 
z
" style="fill:#d95f0e;opacity:0.5;"/>
   </g>
   <g id="patch_15">
    <path clip-path="url(#p96676f0161)" d="M 105.568075 299.078125 
L 111.580926 299.078125 
L 111.580926 295.172411 
L 105.568075 295.172411 
z
" style="fill:#d95f0e;opacity:0.5;"/>
   </g>
   <g id="patch_16">
    <path clip-path="url(#p96676f0161)" d="M 113.084139 299.078125 
L 119.09699 299.078125 
L 119.09699 292.568601 
L 113.084139 292.568601 
z
" style="fill:#d95f0e;opacity:0.5;"/>
   </g>
   <g id="patch_17">
    <path clip-path="url(#p96676f0161)" d="M 120.600203 299.078125 
L 126.613055 299.078125 
L 126.613055 287.360982 
L 120.600203 287.360982 
z
" style="fill:#d95f0e;opacity:0.5;"/>
   </g>
   <g id="patch_18">
    <path clip-path="url(#p96676f0161)" d="M 128.116268 299.078125 
L 134.129119 299.078125 
L 134.129119 288.662887 
L 128.116268 288.662887 
z
" style="fill:#d95f0e;opacity:0.5;"/>
   </g>
   <g id="patch_19">
    <path clip-path="url(#p96676f0161)" d="M 135.632332 299.078125 
L 141.645183 299.078125 
L 141.645183 293.870506 
L 135.632332 293.870506 
z
" style="fill:#d95f0e;opacity:0.5;"/>
   </g>
   <g id="patch_20">
    <path clip-path="url(#p96676f0161)" d="M 143.148396 299.078125 
L 149.161247 299.078125 
L 149.161247 292.568601 
L 143.148396 292.568601 
z
" style="fill:#d95f0e;opacity:0.5;"/>
   </g>
   <g id="patch_21">
    <path clip-path="url(#p96676f0161)" d="M 150.66446 299.078125 
L 156.677312 299.078125 
L 156.677312 283.455268 
L 150.66446 283.455268 
z
" style="fill:#d95f0e;opacity:0.5;"/>
   </g>
   <g id="patch_22">
    <path clip-path="url(#p96676f0161)" d="M 158.180525 299.078125 
L 164.193376 299.078125 
L 164.193376 283.455268 
L 158.180525 283.455268 
z
" style="fill:#d95f0e;opacity:0.5;"/>
   </g>
   <g id="patch_23">
    <path clip-path="url(#p96676f0161)" d="M 165.696589 299.078125 
L 171.70944 299.078125 
L 171.70944 282.153363 
L 165.696589 282.153363 
z
" style="fill:#d95f0e;opacity:0.5;"/>
   </g>
   <g id="patch_24">
    <path clip-path="url(#p96676f0161)" d="M 173.212653 299.078125 
L 179.225505 299.078125 
L 179.225505 279.549554 
L 173.212653 279.549554 
z
" style="fill:#d95f0e;opacity:0.5;"/>
   </g>
   <g id="patch_25">
    <path clip-path="url(#p96676f0161)" d="M 180.728717 299.078125 
L 186.741569 299.078125 
L 186.741569 282.153363 
L 180.728717 282.153363 
z
" style="fill:#d95f0e;opacity:0.5;"/>
   </g>
   <g id="patch_26">
    <path clip-path="url(#p96676f0161)" d="M 188.244782 299.078125 
L 194.257633 299.078125 
L 194.257633 262.624792 
L 188.244782 262.624792 
z
" style="fill:#d95f0e;opacity:0.5;"/>
   </g>
   <g id="patch_27">
    <path clip-path="url(#p96676f0161)" d="M 195.760846 299.078125 
L 201.773697 299.078125 
L 201.773697 253.511458 
L 195.760846 253.511458 
z
" style="fill:#d95f0e;opacity:0.5;"/>
   </g>
   <g id="patch_28">
    <path clip-path="url(#p96676f0161)" d="M 203.27691 299.078125 
L 209.289762 299.078125 
L 209.289762 263.926696 
L 203.27691 263.926696 
z
" style="fill:#d95f0e;opacity:0.5;"/>
   </g>
   <g id="patch_29">
    <path clip-path="url(#p96676f0161)" d="M 210.792974 299.078125 
L 216.805826 299.078125 
L 216.805826 241.794315 
L 210.792974 241.794315 
z
" style="fill:#d95f0e;opacity:0.5;"/>
   </g>
   <g id="patch_30">
    <path clip-path="url(#p96676f0161)" d="M 218.309039 299.078125 
L 224.32189 299.078125 
L 224.32189 261.322887 
L 218.309039 261.322887 
z
" style="fill:#d95f0e;opacity:0.5;"/>
   </g>
   <g id="patch_31">
    <path clip-path="url(#p96676f0161)" d="M 225.825103 299.078125 
L 231.837954 299.078125 
L 231.837954 261.322887 
L 225.825103 261.322887 
z
" style="fill:#d95f0e;opacity:0.5;"/>
   </g>
   <g id="patch_32">
    <path clip-path="url(#p96676f0161)" d="M 233.341167 299.078125 
L 239.354019 299.078125 
L 239.354019 240.492411 
L 233.341167 240.492411 
z
" style="fill:#d95f0e;opacity:0.5;"/>
   </g>
   <g id="patch_33">
    <path clip-path="url(#p96676f0161)" d="M 240.857231 299.078125 
L 246.870083 299.078125 
L 246.870083 241.794315 
L 240.857231 241.794315 
z
" style="fill:#d95f0e;opacity:0.5;"/>
   </g>
   <g id="patch_34">
    <path clip-path="url(#p96676f0161)" d="M 248.373296 299.078125 
L 254.386147 299.078125 
L 254.386147 247.001935 
L 248.373296 247.001935 
z
" style="fill:#d95f0e;opacity:0.5;"/>
   </g>
   <g id="patch_35">
    <path clip-path="url(#p96676f0161)" d="M 255.88936 299.078125 
L 261.902211 299.078125 
L 261.902211 237.888601 
L 255.88936 237.888601 
z
" style="fill:#d95f0e;opacity:0.5;"/>
   </g>
   <g id="patch_36">
    <path clip-path="url(#p96676f0161)" d="M 263.405424 299.078125 
L 269.418276 299.078125 
L 269.418276 230.077173 
L 263.405424 230.077173 
z
" style="fill:#d95f0e;opacity:0.5;"/>
   </g>
   <g id="patch_37">
    <path clip-path="url(#p96676f0161)" d="M 270.921488 299.078125 
L 276.93434 299.078125 
L 276.93434 248.303839 
L 270.921488 248.303839 
z
" style="fill:#d95f0e;opacity:0.5;"/>
   </g>
   <g id="patch_38">
    <path clip-path="url(#p96676f0161)" d="M 278.437553 299.078125 
L 284.450404 299.078125 
L 284.450404 241.794315 
L 278.437553 241.794315 
z
" style="fill:#d95f0e;opacity:0.5;"/>
   </g>
   <g id="patch_39">
    <path clip-path="url(#p96676f0161)" d="M 285.953617 299.078125 
L 291.966468 299.078125 
L 291.966468 237.888601 
L 285.953617 237.888601 
z
" style="fill:#d95f0e;opacity:0.5;"/>
   </g>
   <g id="patch_40">
    <path clip-path="url(#p96676f0161)" d="M 293.469681 299.078125 
L 299.482533 299.078125 
L 299.482533 256.115268 
L 293.469681 256.115268 
z
" style="fill:#d95f0e;opacity:0.5;"/>
   </g>
   <g id="patch_41">
    <path clip-path="url(#p96676f0161)" d="M 300.985745 299.078125 
L 306.998597 299.078125 
L 306.998597 257.417173 
L 300.985745 257.417173 
z
" style="fill:#d95f0e;opacity:0.5;"/>
   </g>
   <g id="patch_42">
    <path clip-path="url(#p96676f0161)" d="M 308.50181 299.078125 
L 314.514661 299.078125 
L 314.514661 265.228601 
L 308.50181 265.228601 
z
" style="fill:#d95f0e;opacity:0.5;"/>
   </g>
   <g id="patch_43">
    <path clip-path="url(#p96676f0161)" d="M 316.017874 299.078125 
L 322.030725 299.078125 
L 322.030725 270.43622 
L 316.017874 270.43622 
z
" style="fill:#d95f0e;opacity:0.5;"/>
   </g>
   <g id="patch_44">
    <path clip-path="url(#p96676f0161)" d="M 323.533938 299.078125 
L 329.54679 299.078125 
L 329.54679 274.341935 
L 323.533938 274.341935 
z
" style="fill:#d95f0e;opacity:0.5;"/>
   </g>
   <g id="patch_45">
    <path clip-path="url(#p96676f0161)" d="M 331.050003 299.078125 
L 337.062854 299.078125 
L 337.062854 279.549554 
L 331.050003 279.549554 
z
" style="fill:#d95f0e;opacity:0.5;"/>
   </g>
   <g id="patch_46">
    <path clip-path="url(#p96676f0161)" d="M 338.566067 299.078125 
L 344.578918 299.078125 
L 344.578918 275.643839 
L 338.566067 275.643839 
z
" style="fill:#d95f0e;opacity:0.5;"/>
   </g>
   <g id="patch_47">
    <path clip-path="url(#p96676f0161)" d="M 346.082131 299.078125 
L 352.094982 299.078125 
L 352.094982 291.266696 
L 346.082131 291.266696 
z
" style="fill:#d95f0e;opacity:0.5;"/>
   </g>
   <g id="patch_48">
    <path clip-path="url(#p96676f0161)" d="M 353.598195 299.078125 
L 359.611047 299.078125 
L 359.611047 288.662887 
L 353.598195 288.662887 
z
" style="fill:#d95f0e;opacity:0.5;"/>
   </g>
   <g id="patch_49">
    <path clip-path="url(#p96676f0161)" d="M 361.11426 299.078125 
L 367.127111 299.078125 
L 367.127111 288.662887 
L 361.11426 288.662887 
z
" style="fill:#d95f0e;opacity:0.5;"/>
   </g>
   <g id="patch_50">
    <path clip-path="url(#p96676f0161)" d="M 368.630324 299.078125 
L 374.643175 299.078125 
L 374.643175 289.964792 
L 368.630324 289.964792 
z
" style="fill:#d95f0e;opacity:0.5;"/>
   </g>
   <g id="patch_51">
    <path clip-path="url(#p96676f0161)" d="M 376.146388 299.078125 
L 382.159239 299.078125 
L 382.159239 295.172411 
L 376.146388 295.172411 
z
" style="fill:#d95f0e;opacity:0.5;"/>
   </g>
   <g id="patch_52">
    <path clip-path="url(#p96676f0161)" d="M 383.662452 299.078125 
L 389.675304 299.078125 
L 389.675304 297.77622 
L 383.662452 297.77622 
z
" style="fill:#d95f0e;opacity:0.5;"/>
   </g>
   <g id="patch_53">
    <path clip-path="url(#p96676f0161)" d="M 391.178517 299.078125 
L 397.191368 299.078125 
L 397.191368 293.870506 
L 391.178517 293.870506 
z
" style="fill:#d95f0e;opacity:0.5;"/>
   </g>
   <g id="patch_54">
    <path clip-path="url(#p96676f0161)" d="M 398.694581 299.078125 
L 404.707432 299.078125 
L 404.707432 296.474315 
L 398.694581 296.474315 
z
" style="fill:#d95f0e;opacity:0.5;"/>
   </g>
   <g id="patch_55">
    <path clip-path="url(#p96676f0161)" d="M 406.210645 299.078125 
L 412.223496 299.078125 
L 412.223496 299.078125 
L 406.210645 299.078125 
z
" style="fill:#d95f0e;opacity:0.5;"/>
   </g>
   <g id="patch_56">
    <path clip-path="url(#p96676f0161)" d="M 413.726709 299.078125 
L 419.739561 299.078125 
L 419.739561 299.078125 
L 413.726709 299.078125 
z
" style="fill:#d95f0e;opacity:0.5;"/>
   </g>
   <g id="patch_57">
    <path clip-path="url(#p96676f0161)" d="M 421.242774 299.078125 
L 427.255625 299.078125 
L 427.255625 296.474315 
L 421.242774 296.474315 
z
" style="fill:#d95f0e;opacity:0.5;"/>
   </g>
   <g id="patch_58">
    <path clip-path="url(#p96676f0161)" d="M 132.095597 299.078125 
L 138.108448 299.078125 
L 138.108448 286.059077 
L 132.095597 286.059077 
z
" style="fill:#43a2ca;opacity:0.8;"/>
   </g>
   <g id="patch_59">
    <path clip-path="url(#p96676f0161)" d="M 136.854267 299.078125 
L 142.867119 299.078125 
L 142.867119 299.078125 
L 136.854267 299.078125 
z
" style="fill:#43a2ca;opacity:0.8;"/>
   </g>
   <g id="patch_60">
    <path clip-path="url(#p96676f0161)" d="M 141.612938 299.078125 
L 147.625789 299.078125 
L 147.625789 299.078125 
L 141.612938 299.078125 
z
" style="fill:#43a2ca;opacity:0.8;"/>
   </g>
   <g id="patch_61">
    <path clip-path="url(#p96676f0161)" d="M 146.371608 299.078125 
L 152.38446 299.078125 
L 152.38446 299.078125 
L 146.371608 299.078125 
z
" style="fill:#43a2ca;opacity:0.8;"/>
   </g>
   <g id="patch_62">
    <path clip-path="url(#p96676f0161)" d="M 151.130279 299.078125 
L 157.14313 299.078125 
L 157.14313 299.078125 
L 151.130279 299.078125 
z
" style="fill:#43a2ca;opacity:0.8;"/>
   </g>
   <g id="patch_63">
    <path clip-path="url(#p96676f0161)" d="M 155.888949 299.078125 
L 161.9018 299.078125 
L 161.9018 273.04003 
L 155.888949 273.04003 
z
" style="fill:#43a2ca;opacity:0.8;"/>
   </g>
   <g id="patch_64">
    <path clip-path="url(#p96676f0161)" d="M 160.647619 299.078125 
L 166.660471 299.078125 
L 166.660471 286.059077 
L 160.647619 286.059077 
z
" style="fill:#43a2ca;opacity:0.8;"/>
   </g>
   <g id="patch_65">
    <path clip-path="url(#p96676f0161)" d="M 165.40629 299.078125 
L 171.419141 299.078125 
L 171.419141 286.059077 
L 165.40629 286.059077 
z
" style="fill:#43a2ca;opacity:0.8;"/>
   </g>
   <g id="patch_66">
    <path clip-path="url(#p96676f0161)" d="M 170.16496 299.078125 
L 176.177812 299.078125 
L 176.177812 286.059077 
L 170.16496 286.059077 
z
" style="fill:#43a2ca;opacity:0.8;"/>
   </g>
   <g id="patch_67">
    <path clip-path="url(#p96676f0161)" d="M 174.923631 299.078125 
L 180.936482 299.078125 
L 180.936482 286.059077 
L 174.923631 286.059077 
z
" style="fill:#43a2ca;opacity:0.8;"/>
   </g>
   <g id="patch_68">
    <path clip-path="url(#p96676f0161)" d="M 179.682301 299.078125 
L 185.695153 299.078125 
L 185.695153 299.078125 
L 179.682301 299.078125 
z
" style="fill:#43a2ca;opacity:0.8;"/>
   </g>
   <g id="patch_69">
    <path clip-path="url(#p96676f0161)" d="M 184.440972 299.078125 
L 190.453823 299.078125 
L 190.453823 299.078125 
L 184.440972 299.078125 
z
" style="fill:#43a2ca;opacity:0.8;"/>
   </g>
   <g id="patch_70">
    <path clip-path="url(#p96676f0161)" d="M 189.199642 299.078125 
L 195.212493 299.078125 
L 195.212493 273.04003 
L 189.199642 273.04003 
z
" style="fill:#43a2ca;opacity:0.8;"/>
   </g>
   <g id="patch_71">
    <path clip-path="url(#p96676f0161)" d="M 193.958312 299.078125 
L 199.971164 299.078125 
L 199.971164 286.059077 
L 193.958312 286.059077 
z
" style="fill:#43a2ca;opacity:0.8;"/>
   </g>
   <g id="patch_72">
    <path clip-path="url(#p96676f0161)" d="M 198.716983 299.078125 
L 204.729834 299.078125 
L 204.729834 233.982887 
L 198.716983 233.982887 
z
" style="fill:#43a2ca;opacity:0.8;"/>
   </g>
   <g id="patch_73">
    <path clip-path="url(#p96676f0161)" d="M 203.475653 299.078125 
L 209.488505 299.078125 
L 209.488505 286.059077 
L 203.475653 286.059077 
z
" style="fill:#43a2ca;opacity:0.8;"/>
   </g>
   <g id="patch_74">
    <path clip-path="url(#p96676f0161)" d="M 208.234324 299.078125 
L 214.247175 299.078125 
L 214.247175 286.059077 
L 208.234324 286.059077 
z
" style="fill:#43a2ca;opacity:0.8;"/>
   </g>
   <g id="patch_75">
    <path clip-path="url(#p96676f0161)" d="M 212.992994 299.078125 
L 219.005846 299.078125 
L 219.005846 286.059077 
L 212.992994 286.059077 
z
" style="fill:#43a2ca;opacity:0.8;"/>
   </g>
   <g id="patch_76">
    <path clip-path="url(#p96676f0161)" d="M 217.751665 299.078125 
L 223.764516 299.078125 
L 223.764516 273.04003 
L 217.751665 273.04003 
z
" style="fill:#43a2ca;opacity:0.8;"/>
   </g>
   <g id="patch_77">
    <path clip-path="url(#p96676f0161)" d="M 222.510335 299.078125 
L 228.523186 299.078125 
L 228.523186 247.001935 
L 222.510335 247.001935 
z
" style="fill:#43a2ca;opacity:0.8;"/>
   </g>
   <g id="patch_78">
    <path clip-path="url(#p96676f0161)" d="M 227.269005 299.078125 
L 233.281857 299.078125 
L 233.281857 233.982887 
L 227.269005 233.982887 
z
" style="fill:#43a2ca;opacity:0.8;"/>
   </g>
   <g id="patch_79">
    <path clip-path="url(#p96676f0161)" d="M 232.027676 299.078125 
L 238.040527 299.078125 
L 238.040527 286.059077 
L 232.027676 286.059077 
z
" style="fill:#43a2ca;opacity:0.8;"/>
   </g>
   <g id="patch_80">
    <path clip-path="url(#p96676f0161)" d="M 236.786346 299.078125 
L 242.799198 299.078125 
L 242.799198 247.001935 
L 236.786346 247.001935 
z
" style="fill:#43a2ca;opacity:0.8;"/>
   </g>
   <g id="patch_81">
    <path clip-path="url(#p96676f0161)" d="M 241.545017 299.078125 
L 247.557868 299.078125 
L 247.557868 247.001935 
L 241.545017 247.001935 
z
" style="fill:#43a2ca;opacity:0.8;"/>
   </g>
   <g id="patch_82">
    <path clip-path="url(#p96676f0161)" d="M 246.303687 299.078125 
L 252.316539 299.078125 
L 252.316539 247.001935 
L 246.303687 247.001935 
z
" style="fill:#43a2ca;opacity:0.8;"/>
   </g>
   <g id="patch_83">
    <path clip-path="url(#p96676f0161)" d="M 251.062358 299.078125 
L 257.075209 299.078125 
L 257.075209 273.04003 
L 251.062358 273.04003 
z
" style="fill:#43a2ca;opacity:0.8;"/>
   </g>
   <g id="patch_84">
    <path clip-path="url(#p96676f0161)" d="M 255.821028 299.078125 
L 261.833879 299.078125 
L 261.833879 194.925744 
L 255.821028 194.925744 
z
" style="fill:#43a2ca;opacity:0.8;"/>
   </g>
   <g id="patch_85">
    <path clip-path="url(#p96676f0161)" d="M 260.579698 299.078125 
L 266.59255 299.078125 
L 266.59255 247.001935 
L 260.579698 247.001935 
z
" style="fill:#43a2ca;opacity:0.8;"/>
   </g>
   <g id="patch_86">
    <path clip-path="url(#p96676f0161)" d="M 265.338369 299.078125 
L 271.35122 299.078125 
L 271.35122 273.04003 
L 265.338369 273.04003 
z
" style="fill:#43a2ca;opacity:0.8;"/>
   </g>
   <g id="patch_87">
    <path clip-path="url(#p96676f0161)" d="M 270.097039 299.078125 
L 276.109891 299.078125 
L 276.109891 260.020982 
L 270.097039 260.020982 
z
" style="fill:#43a2ca;opacity:0.8;"/>
   </g>
   <g id="patch_88">
    <path clip-path="url(#p96676f0161)" d="M 274.85571 299.078125 
L 280.868561 299.078125 
L 280.868561 299.078125 
L 274.85571 299.078125 
z
" style="fill:#43a2ca;opacity:0.8;"/>
   </g>
   <g id="patch_89">
    <path clip-path="url(#p96676f0161)" d="M 279.61438 299.078125 
L 285.627232 299.078125 
L 285.627232 286.059077 
L 279.61438 286.059077 
z
" style="fill:#43a2ca;opacity:0.8;"/>
   </g>
   <g id="patch_90">
    <path clip-path="url(#p96676f0161)" d="M 284.373051 299.078125 
L 290.385902 299.078125 
L 290.385902 273.04003 
L 284.373051 273.04003 
z
" style="fill:#43a2ca;opacity:0.8;"/>
   </g>
   <g id="patch_91">
    <path clip-path="url(#p96676f0161)" d="M 289.131721 299.078125 
L 295.144572 299.078125 
L 295.144572 299.078125 
L 289.131721 299.078125 
z
" style="fill:#43a2ca;opacity:0.8;"/>
   </g>
   <g id="patch_92">
    <path clip-path="url(#p96676f0161)" d="M 293.890391 299.078125 
L 299.903243 299.078125 
L 299.903243 260.020982 
L 293.890391 260.020982 
z
" style="fill:#43a2ca;opacity:0.8;"/>
   </g>
   <g id="patch_93">
    <path clip-path="url(#p96676f0161)" d="M 298.649062 299.078125 
L 304.661913 299.078125 
L 304.661913 273.04003 
L 298.649062 273.04003 
z
" style="fill:#43a2ca;opacity:0.8;"/>
   </g>
   <g id="patch_94">
    <path clip-path="url(#p96676f0161)" d="M 303.407732 299.078125 
L 309.420584 299.078125 
L 309.420584 273.04003 
L 303.407732 273.04003 
z
" style="fill:#43a2ca;opacity:0.8;"/>
   </g>
   <g id="patch_95">
    <path clip-path="url(#p96676f0161)" d="M 308.166403 299.078125 
L 314.179254 299.078125 
L 314.179254 286.059077 
L 308.166403 286.059077 
z
" style="fill:#43a2ca;opacity:0.8;"/>
   </g>
   <g id="patch_96">
    <path clip-path="url(#p96676f0161)" d="M 312.925073 299.078125 
L 318.937925 299.078125 
L 318.937925 286.059077 
L 312.925073 286.059077 
z
" style="fill:#43a2ca;opacity:0.8;"/>
   </g>
   <g id="patch_97">
    <path clip-path="url(#p96676f0161)" d="M 317.683744 299.078125 
L 323.696595 299.078125 
L 323.696595 273.04003 
L 317.683744 273.04003 
z
" style="fill:#43a2ca;opacity:0.8;"/>
   </g>
   <g id="patch_98">
    <path clip-path="url(#p96676f0161)" d="M 322.442414 299.078125 
L 328.455265 299.078125 
L 328.455265 273.04003 
L 322.442414 273.04003 
z
" style="fill:#43a2ca;opacity:0.8;"/>
   </g>
   <g id="patch_99">
    <path clip-path="url(#p96676f0161)" d="M 327.201084 299.078125 
L 333.213936 299.078125 
L 333.213936 299.078125 
L 327.201084 299.078125 
z
" style="fill:#43a2ca;opacity:0.8;"/>
   </g>
   <g id="patch_100">
    <path clip-path="url(#p96676f0161)" d="M 331.959755 299.078125 
L 337.972606 299.078125 
L 337.972606 299.078125 
L 331.959755 299.078125 
z
" style="fill:#43a2ca;opacity:0.8;"/>
   </g>
   <g id="patch_101">
    <path clip-path="url(#p96676f0161)" d="M 336.718425 299.078125 
L 342.731277 299.078125 
L 342.731277 273.04003 
L 336.718425 273.04003 
z
" style="fill:#43a2ca;opacity:0.8;"/>
   </g>
   <g id="patch_102">
    <path clip-path="url(#p96676f0161)" d="M 341.477096 299.078125 
L 347.489947 299.078125 
L 347.489947 299.078125 
L 341.477096 299.078125 
z
" style="fill:#43a2ca;opacity:0.8;"/>
   </g>
   <g id="patch_103">
    <path clip-path="url(#p96676f0161)" d="M 346.235766 299.078125 
L 352.248618 299.078125 
L 352.248618 260.020982 
L 346.235766 260.020982 
z
" style="fill:#43a2ca;opacity:0.8;"/>
   </g>
   <g id="patch_104">
    <path clip-path="url(#p96676f0161)" d="M 350.994437 299.078125 
L 357.007288 299.078125 
L 357.007288 299.078125 
L 350.994437 299.078125 
z
" style="fill:#43a2ca;opacity:0.8;"/>
   </g>
   <g id="patch_105">
    <path clip-path="url(#p96676f0161)" d="M 355.753107 299.078125 
L 361.765958 299.078125 
L 361.765958 299.078125 
L 355.753107 299.078125 
z
" style="fill:#43a2ca;opacity:0.8;"/>
   </g>
   <g id="patch_106">
    <path clip-path="url(#p96676f0161)" d="M 360.511777 299.078125 
L 366.524629 299.078125 
L 366.524629 286.059077 
L 360.511777 286.059077 
z
" style="fill:#43a2ca;opacity:0.8;"/>
   </g>
   <g id="patch_107">
    <path clip-path="url(#p96676f0161)" d="M 365.270448 299.078125 
L 371.283299 299.078125 
L 371.283299 260.020982 
L 365.270448 260.020982 
z
" style="fill:#43a2ca;opacity:0.8;"/>
   </g>
   <g id="matplotlib.axis_3">
    <g id="xtick_6">
     <g id="line2d_6">
      <g>
       <use style="stroke:#000000;stroke-width:0.8;" x="89.435845" xlink:href="#m4d737db508" y="299.078125"/>
      </g>
     </g>
     <g id="text_8">
      <!-- −0.4 -->
      <g transform="translate(77.294439 313.676562)scale(0.1 -0.1)">
       <use xlink:href="#DejaVuSans-8722"/>
       <use x="83.789062" xlink:href="#DejaVuSans-48"/>
       <use x="147.412109" xlink:href="#DejaVuSans-46"/>
       <use x="179.199219" xlink:href="#DejaVuSans-52"/>
      </g>
     </g>
    </g>
    <g id="xtick_7">
     <g id="line2d_7">
      <g>
       <use style="stroke:#000000;stroke-width:0.8;" x="171.635078" xlink:href="#m4d737db508" y="299.078125"/>
      </g>
     </g>
     <g id="text_9">
      <!-- −0.2 -->
      <g transform="translate(159.493672 313.676562)scale(0.1 -0.1)">
       <use xlink:href="#DejaVuSans-8722"/>
       <use x="83.789062" xlink:href="#DejaVuSans-48"/>
       <use x="147.412109" xlink:href="#DejaVuSans-46"/>
       <use x="179.199219" xlink:href="#DejaVuSans-50"/>
      </g>
     </g>
    </g>
    <g id="xtick_8">
     <g id="line2d_8">
      <g>
       <use style="stroke:#000000;stroke-width:0.8;" x="253.834311" xlink:href="#m4d737db508" y="299.078125"/>
      </g>
     </g>
     <g id="text_10">
      <!-- 0.0 -->
      <g transform="translate(245.882749 313.676562)scale(0.1 -0.1)">
       <use xlink:href="#DejaVuSans-48"/>
       <use x="63.623047" xlink:href="#DejaVuSans-46"/>
       <use x="95.410156" xlink:href="#DejaVuSans-48"/>
      </g>
     </g>
    </g>
    <g id="xtick_9">
     <g id="line2d_9">
      <g>
       <use style="stroke:#000000;stroke-width:0.8;" x="336.033544" xlink:href="#m4d737db508" y="299.078125"/>
      </g>
     </g>
     <g id="text_11">
      <!-- 0.2 -->
      <g transform="translate(328.081981 313.676562)scale(0.1 -0.1)">
       <use xlink:href="#DejaVuSans-48"/>
       <use x="63.623047" xlink:href="#DejaVuSans-46"/>
       <use x="95.410156" xlink:href="#DejaVuSans-50"/>
      </g>
     </g>
    </g>
    <g id="xtick_10">
     <g id="line2d_10">
      <g>
       <use style="stroke:#000000;stroke-width:0.8;" x="418.232777" xlink:href="#m4d737db508" y="299.078125"/>
      </g>
     </g>
     <g id="text_12">
      <!-- 0.4 -->
      <g transform="translate(410.281214 313.676562)scale(0.1 -0.1)">
       <use xlink:href="#DejaVuSans-48"/>
       <use x="63.623047" xlink:href="#DejaVuSans-46"/>
       <use x="95.410156" xlink:href="#DejaVuSans-52"/>
      </g>
     </g>
    </g>
    <g id="text_13">
     <!-- Rho value -->
     <g transform="translate(215.156406 327.354687)scale(0.1 -0.1)">
      <defs>
       <path d="M 44.390625 34.1875 
Q 47.5625 33.109375 50.5625 29.59375 
Q 53.5625 26.078125 56.59375 19.921875 
L 66.609375 0 
L 56 0 
L 46.6875 18.703125 
Q 43.0625 26.03125 39.671875 28.421875 
Q 36.28125 30.8125 30.421875 30.8125 
L 19.671875 30.8125 
L 19.671875 0 
L 9.8125 0 
L 9.8125 72.90625 
L 32.078125 72.90625 
Q 44.578125 72.90625 50.734375 67.671875 
Q 56.890625 62.453125 56.890625 51.90625 
Q 56.890625 45.015625 53.6875 40.46875 
Q 50.484375 35.9375 44.390625 34.1875 
z
M 19.671875 64.796875 
L 19.671875 38.921875 
L 32.078125 38.921875 
Q 39.203125 38.921875 42.84375 42.21875 
Q 46.484375 45.515625 46.484375 51.90625 
Q 46.484375 58.296875 42.84375 61.546875 
Q 39.203125 64.796875 32.078125 64.796875 
z
" id="DejaVuSans-82"/>
       <path d="M 54.890625 33.015625 
L 54.890625 0 
L 45.90625 0 
L 45.90625 32.71875 
Q 45.90625 40.484375 42.875 44.328125 
Q 39.84375 48.1875 33.796875 48.1875 
Q 26.515625 48.1875 22.3125 43.546875 
Q 18.109375 38.921875 18.109375 30.90625 
L 18.109375 0 
L 9.078125 0 
L 9.078125 75.984375 
L 18.109375 75.984375 
L 18.109375 46.1875 
Q 21.34375 51.125 25.703125 53.5625 
Q 30.078125 56 35.796875 56 
Q 45.21875 56 50.046875 50.171875 
Q 54.890625 44.34375 54.890625 33.015625 
z
" id="DejaVuSans-104"/>
      </defs>
      <use xlink:href="#DejaVuSans-82"/>
      <use x="69.482422" xlink:href="#DejaVuSans-104"/>
      <use x="132.861328" xlink:href="#DejaVuSans-111"/>
      <use x="194.042969" xlink:href="#DejaVuSans-32"/>
      <use x="225.830078" xlink:href="#DejaVuSans-118"/>
      <use x="285.009766" xlink:href="#DejaVuSans-97"/>
      <use x="346.289062" xlink:href="#DejaVuSans-108"/>
      <use x="374.072266" xlink:href="#DejaVuSans-117"/>
      <use x="437.451172" xlink:href="#DejaVuSans-101"/>
     </g>
    </g>
   </g>
   <g id="matplotlib.axis_4">
    <g id="ytick_1">
     <g id="line2d_11">
      <defs>
       <path d="M 0 0 
L -3.5 0 
" id="made913c8ad" style="stroke:#000000;stroke-width:0.8;"/>
      </defs>
      <g>
       <use style="stroke:#000000;stroke-width:0.8;" x="34.240625" xlink:href="#made913c8ad" y="299.078125"/>
      </g>
     </g>
     <g id="text_14">
      <!-- 0 -->
      <g transform="translate(20.878125 302.877344)scale(0.1 -0.1)">
       <use xlink:href="#DejaVuSans-48"/>
      </g>
     </g>
    </g>
    <g id="ytick_2">
     <g id="line2d_12">
      <g>
       <use style="stroke:#000000;stroke-width:0.8;" x="34.240625" xlink:href="#made913c8ad" y="273.04003"/>
      </g>
     </g>
     <g id="text_15">
      <!-- 2 -->
      <g transform="translate(20.878125 276.839249)scale(0.1 -0.1)">
       <use xlink:href="#DejaVuSans-50"/>
      </g>
     </g>
    </g>
    <g id="ytick_3">
     <g id="line2d_13">
      <g>
       <use style="stroke:#000000;stroke-width:0.8;" x="34.240625" xlink:href="#made913c8ad" y="247.001935"/>
      </g>
     </g>
     <g id="text_16">
      <!-- 4 -->
      <g transform="translate(20.878125 250.801153)scale(0.1 -0.1)">
       <use xlink:href="#DejaVuSans-52"/>
      </g>
     </g>
    </g>
    <g id="ytick_4">
     <g id="line2d_14">
      <g>
       <use style="stroke:#000000;stroke-width:0.8;" x="34.240625" xlink:href="#made913c8ad" y="220.963839"/>
      </g>
     </g>
     <g id="text_17">
      <!-- 6 -->
      <g transform="translate(20.878125 224.763058)scale(0.1 -0.1)">
       <defs>
        <path d="M 33.015625 40.375 
Q 26.375 40.375 22.484375 35.828125 
Q 18.609375 31.296875 18.609375 23.390625 
Q 18.609375 15.53125 22.484375 10.953125 
Q 26.375 6.390625 33.015625 6.390625 
Q 39.65625 6.390625 43.53125 10.953125 
Q 47.40625 15.53125 47.40625 23.390625 
Q 47.40625 31.296875 43.53125 35.828125 
Q 39.65625 40.375 33.015625 40.375 
z
M 52.59375 71.296875 
L 52.59375 62.3125 
Q 48.875 64.0625 45.09375 64.984375 
Q 41.3125 65.921875 37.59375 65.921875 
Q 27.828125 65.921875 22.671875 59.328125 
Q 17.53125 52.734375 16.796875 39.40625 
Q 19.671875 43.65625 24.015625 45.921875 
Q 28.375 48.1875 33.59375 48.1875 
Q 44.578125 48.1875 50.953125 41.515625 
Q 57.328125 34.859375 57.328125 23.390625 
Q 57.328125 12.15625 50.6875 5.359375 
Q 44.046875 -1.421875 33.015625 -1.421875 
Q 20.359375 -1.421875 13.671875 8.265625 
Q 6.984375 17.96875 6.984375 36.375 
Q 6.984375 53.65625 15.1875 63.9375 
Q 23.390625 74.21875 37.203125 74.21875 
Q 40.921875 74.21875 44.703125 73.484375 
Q 48.484375 72.75 52.59375 71.296875 
z
" id="DejaVuSans-54"/>
       </defs>
       <use xlink:href="#DejaVuSans-54"/>
      </g>
     </g>
    </g>
    <g id="ytick_5">
     <g id="line2d_15">
      <g>
       <use style="stroke:#000000;stroke-width:0.8;" x="34.240625" xlink:href="#made913c8ad" y="194.925744"/>
      </g>
     </g>
     <g id="text_18">
      <!-- 8 -->
      <g transform="translate(20.878125 198.724963)scale(0.1 -0.1)">
       <defs>
        <path d="M 31.78125 34.625 
Q 24.75 34.625 20.71875 30.859375 
Q 16.703125 27.09375 16.703125 20.515625 
Q 16.703125 13.921875 20.71875 10.15625 
Q 24.75 6.390625 31.78125 6.390625 
Q 38.8125 6.390625 42.859375 10.171875 
Q 46.921875 13.96875 46.921875 20.515625 
Q 46.921875 27.09375 42.890625 30.859375 
Q 38.875 34.625 31.78125 34.625 
z
M 21.921875 38.8125 
Q 15.578125 40.375 12.03125 44.71875 
Q 8.5 49.078125 8.5 55.328125 
Q 8.5 64.0625 14.71875 69.140625 
Q 20.953125 74.21875 31.78125 74.21875 
Q 42.671875 74.21875 48.875 69.140625 
Q 55.078125 64.0625 55.078125 55.328125 
Q 55.078125 49.078125 51.53125 44.71875 
Q 48 40.375 41.703125 38.8125 
Q 48.828125 37.15625 52.796875 32.3125 
Q 56.78125 27.484375 56.78125 20.515625 
Q 56.78125 9.90625 50.3125 4.234375 
Q 43.84375 -1.421875 31.78125 -1.421875 
Q 19.734375 -1.421875 13.25 4.234375 
Q 6.78125 9.90625 6.78125 20.515625 
Q 6.78125 27.484375 10.78125 32.3125 
Q 14.796875 37.15625 21.921875 38.8125 
z
M 18.3125 54.390625 
Q 18.3125 48.734375 21.84375 45.5625 
Q 25.390625 42.390625 31.78125 42.390625 
Q 38.140625 42.390625 41.71875 45.5625 
Q 45.3125 48.734375 45.3125 54.390625 
Q 45.3125 60.0625 41.71875 63.234375 
Q 38.140625 66.40625 31.78125 66.40625 
Q 25.390625 66.40625 21.84375 63.234375 
Q 18.3125 60.0625 18.3125 54.390625 
z
" id="DejaVuSans-56"/>
       </defs>
       <use xlink:href="#DejaVuSans-56"/>
      </g>
     </g>
    </g>
    <g id="text_19">
     <!-- Number of bacteria -->
     <g transform="translate(14.798438 293.014531)rotate(-90)scale(0.1 -0.1)">
      <defs>
       <path d="M 9.8125 72.90625 
L 23.09375 72.90625 
L 55.421875 11.921875 
L 55.421875 72.90625 
L 64.984375 72.90625 
L 64.984375 0 
L 51.703125 0 
L 19.390625 60.984375 
L 19.390625 0 
L 9.8125 0 
z
" id="DejaVuSans-78"/>
       <path d="M 52 44.1875 
Q 55.375 50.25 60.0625 53.125 
Q 64.75 56 71.09375 56 
Q 79.640625 56 84.28125 50.015625 
Q 88.921875 44.046875 88.921875 33.015625 
L 88.921875 0 
L 79.890625 0 
L 79.890625 32.71875 
Q 79.890625 40.578125 77.09375 44.375 
Q 74.3125 48.1875 68.609375 48.1875 
Q 61.625 48.1875 57.5625 43.546875 
Q 53.515625 38.921875 53.515625 30.90625 
L 53.515625 0 
L 44.484375 0 
L 44.484375 32.71875 
Q 44.484375 40.625 41.703125 44.40625 
Q 38.921875 48.1875 33.109375 48.1875 
Q 26.21875 48.1875 22.15625 43.53125 
Q 18.109375 38.875 18.109375 30.90625 
L 18.109375 0 
L 9.078125 0 
L 9.078125 54.6875 
L 18.109375 54.6875 
L 18.109375 46.1875 
Q 21.1875 51.21875 25.484375 53.609375 
Q 29.78125 56 35.6875 56 
Q 41.65625 56 45.828125 52.96875 
Q 50 49.953125 52 44.1875 
z
" id="DejaVuSans-109"/>
       <path d="M 48.6875 27.296875 
Q 48.6875 37.203125 44.609375 42.84375 
Q 40.53125 48.484375 33.40625 48.484375 
Q 26.265625 48.484375 22.1875 42.84375 
Q 18.109375 37.203125 18.109375 27.296875 
Q 18.109375 17.390625 22.1875 11.75 
Q 26.265625 6.109375 33.40625 6.109375 
Q 40.53125 6.109375 44.609375 11.75 
Q 48.6875 17.390625 48.6875 27.296875 
z
M 18.109375 46.390625 
Q 20.953125 51.265625 25.265625 53.625 
Q 29.59375 56 35.59375 56 
Q 45.5625 56 51.78125 48.09375 
Q 58.015625 40.1875 58.015625 27.296875 
Q 58.015625 14.40625 51.78125 6.484375 
Q 45.5625 -1.421875 35.59375 -1.421875 
Q 29.59375 -1.421875 25.265625 0.953125 
Q 20.953125 3.328125 18.109375 8.203125 
L 18.109375 0 
L 9.078125 0 
L 9.078125 75.984375 
L 18.109375 75.984375 
z
" id="DejaVuSans-98"/>
       <path d="M 41.109375 46.296875 
Q 39.59375 47.171875 37.8125 47.578125 
Q 36.03125 48 33.890625 48 
Q 26.265625 48 22.1875 43.046875 
Q 18.109375 38.09375 18.109375 28.8125 
L 18.109375 0 
L 9.078125 0 
L 9.078125 54.6875 
L 18.109375 54.6875 
L 18.109375 46.1875 
Q 20.953125 51.171875 25.484375 53.578125 
Q 30.03125 56 36.53125 56 
Q 37.453125 56 38.578125 55.875 
Q 39.703125 55.765625 41.0625 55.515625 
z
" id="DejaVuSans-114"/>
       <path d="M 48.78125 52.59375 
L 48.78125 44.1875 
Q 44.96875 46.296875 41.140625 47.34375 
Q 37.3125 48.390625 33.40625 48.390625 
Q 24.65625 48.390625 19.8125 42.84375 
Q 14.984375 37.3125 14.984375 27.296875 
Q 14.984375 17.28125 19.8125 11.734375 
Q 24.65625 6.203125 33.40625 6.203125 
Q 37.3125 6.203125 41.140625 7.25 
Q 44.96875 8.296875 48.78125 10.40625 
L 48.78125 2.09375 
Q 45.015625 0.34375 40.984375 -0.53125 
Q 36.96875 -1.421875 32.421875 -1.421875 
Q 20.0625 -1.421875 12.78125 6.34375 
Q 5.515625 14.109375 5.515625 27.296875 
Q 5.515625 40.671875 12.859375 48.328125 
Q 20.21875 56 33.015625 56 
Q 37.15625 56 41.109375 55.140625 
Q 45.0625 54.296875 48.78125 52.59375 
z
" id="DejaVuSans-99"/>
       <path d="M 18.3125 70.21875 
L 18.3125 54.6875 
L 36.8125 54.6875 
L 36.8125 47.703125 
L 18.3125 47.703125 
L 18.3125 18.015625 
Q 18.3125 11.328125 20.140625 9.421875 
Q 21.96875 7.515625 27.59375 7.515625 
L 36.8125 7.515625 
L 36.8125 0 
L 27.59375 0 
Q 17.1875 0 13.234375 3.875 
Q 9.28125 7.765625 9.28125 18.015625 
L 9.28125 47.703125 
L 2.6875 47.703125 
L 2.6875 54.6875 
L 9.28125 54.6875 
L 9.28125 70.21875 
z
" id="DejaVuSans-116"/>
       <path d="M 9.421875 54.6875 
L 18.40625 54.6875 
L 18.40625 0 
L 9.421875 0 
z
M 9.421875 75.984375 
L 18.40625 75.984375 
L 18.40625 64.59375 
L 9.421875 64.59375 
z
" id="DejaVuSans-105"/>
      </defs>
      <use xlink:href="#DejaVuSans-78"/>
      <use x="74.804688" xlink:href="#DejaVuSans-117"/>
      <use x="138.183594" xlink:href="#DejaVuSans-109"/>
      <use x="235.595703" xlink:href="#DejaVuSans-98"/>
      <use x="299.072266" xlink:href="#DejaVuSans-101"/>
      <use x="360.595703" xlink:href="#DejaVuSans-114"/>
      <use x="401.708984" xlink:href="#DejaVuSans-32"/>
      <use x="433.496094" xlink:href="#DejaVuSans-111"/>
      <use x="494.677734" xlink:href="#DejaVuSans-102"/>
      <use x="529.882812" xlink:href="#DejaVuSans-32"/>
      <use x="561.669922" xlink:href="#DejaVuSans-98"/>
      <use x="625.146484" xlink:href="#DejaVuSans-97"/>
      <use x="686.425781" xlink:href="#DejaVuSans-99"/>
      <use x="741.40625" xlink:href="#DejaVuSans-116"/>
      <use x="780.615234" xlink:href="#DejaVuSans-101"/>
      <use x="842.138672" xlink:href="#DejaVuSans-114"/>
      <use x="883.251953" xlink:href="#DejaVuSans-105"/>
      <use x="911.035156" xlink:href="#DejaVuSans-97"/>
     </g>
    </g>
   </g>
   <g id="patch_108">
    <path d="M 34.240625 299.078125 
L 34.240625 189.718125 
" style="fill:none;stroke:#000000;stroke-linecap:square;stroke-linejoin:miter;stroke-width:0.8;"/>
   </g>
   <g id="patch_109">
    <path d="M 445.970625 299.078125 
L 445.970625 189.718125 
" style="fill:none;stroke:#000000;stroke-linecap:square;stroke-linejoin:miter;stroke-width:0.8;"/>
   </g>
   <g id="patch_110">
    <path d="M 34.240625 299.078125 
L 445.970625 299.078125 
" style="fill:none;stroke:#000000;stroke-linecap:square;stroke-linejoin:miter;stroke-width:0.8;"/>
   </g>
   <g id="patch_111">
    <path d="M 34.240625 189.718125 
L 445.970625 189.718125 
" style="fill:none;stroke:#000000;stroke-linecap:square;stroke-linejoin:miter;stroke-width:0.8;"/>
   </g>
   <g id="text_20">
    <!-- Real tags vs. Mixed tags at age -->
    <g transform="translate(146.303125 183.718125)scale(0.12 -0.12)">
     <defs>
      <path d="M 44.28125 53.078125 
L 44.28125 44.578125 
Q 40.484375 46.53125 36.375 47.5 
Q 32.28125 48.484375 27.875 48.484375 
Q 21.1875 48.484375 17.84375 46.4375 
Q 14.5 44.390625 14.5 40.28125 
Q 14.5 37.15625 16.890625 35.375 
Q 19.28125 33.59375 26.515625 31.984375 
L 29.59375 31.296875 
Q 39.15625 29.25 43.1875 25.515625 
Q 47.21875 21.78125 47.21875 15.09375 
Q 47.21875 7.46875 41.1875 3.015625 
Q 35.15625 -1.421875 24.609375 -1.421875 
Q 20.21875 -1.421875 15.453125 -0.5625 
Q 10.6875 0.296875 5.421875 2 
L 5.421875 11.28125 
Q 10.40625 8.6875 15.234375 7.390625 
Q 20.0625 6.109375 24.8125 6.109375 
Q 31.15625 6.109375 34.5625 8.28125 
Q 37.984375 10.453125 37.984375 14.40625 
Q 37.984375 18.0625 35.515625 20.015625 
Q 33.0625 21.96875 24.703125 23.78125 
L 21.578125 24.515625 
Q 13.234375 26.265625 9.515625 29.90625 
Q 5.8125 33.546875 5.8125 39.890625 
Q 5.8125 47.609375 11.28125 51.796875 
Q 16.75 56 26.8125 56 
Q 31.78125 56 36.171875 55.265625 
Q 40.578125 54.546875 44.28125 53.078125 
z
" id="DejaVuSans-115"/>
      <path d="M 9.8125 72.90625 
L 24.515625 72.90625 
L 43.109375 23.296875 
L 61.8125 72.90625 
L 76.515625 72.90625 
L 76.515625 0 
L 66.890625 0 
L 66.890625 64.015625 
L 48.09375 14.015625 
L 38.1875 14.015625 
L 19.390625 64.015625 
L 19.390625 0 
L 9.8125 0 
z
" id="DejaVuSans-77"/>
      <path d="M 54.890625 54.6875 
L 35.109375 28.078125 
L 55.90625 0 
L 45.3125 0 
L 29.390625 21.484375 
L 13.484375 0 
L 2.875 0 
L 24.125 28.609375 
L 4.6875 54.6875 
L 15.28125 54.6875 
L 29.78125 35.203125 
L 44.28125 54.6875 
z
" id="DejaVuSans-120"/>
      <path d="M 45.40625 46.390625 
L 45.40625 75.984375 
L 54.390625 75.984375 
L 54.390625 0 
L 45.40625 0 
L 45.40625 8.203125 
Q 42.578125 3.328125 38.25 0.953125 
Q 33.9375 -1.421875 27.875 -1.421875 
Q 17.96875 -1.421875 11.734375 6.484375 
Q 5.515625 14.40625 5.515625 27.296875 
Q 5.515625 40.1875 11.734375 48.09375 
Q 17.96875 56 27.875 56 
Q 33.9375 56 38.25 53.625 
Q 42.578125 51.265625 45.40625 46.390625 
z
M 14.796875 27.296875 
Q 14.796875 17.390625 18.875 11.75 
Q 22.953125 6.109375 30.078125 6.109375 
Q 37.203125 6.109375 41.296875 11.75 
Q 45.40625 17.390625 45.40625 27.296875 
Q 45.40625 37.203125 41.296875 42.84375 
Q 37.203125 48.484375 30.078125 48.484375 
Q 22.953125 48.484375 18.875 42.84375 
Q 14.796875 37.203125 14.796875 27.296875 
z
" id="DejaVuSans-100"/>
     </defs>
     <use xlink:href="#DejaVuSans-82"/>
     <use x="64.982422" xlink:href="#DejaVuSans-101"/>
     <use x="126.505859" xlink:href="#DejaVuSans-97"/>
     <use x="187.785156" xlink:href="#DejaVuSans-108"/>
     <use x="215.568359" xlink:href="#DejaVuSans-32"/>
     <use x="247.355469" xlink:href="#DejaVuSans-116"/>
     <use x="286.564453" xlink:href="#DejaVuSans-97"/>
     <use x="347.84375" xlink:href="#DejaVuSans-103"/>
     <use x="411.320312" xlink:href="#DejaVuSans-115"/>
     <use x="463.419922" xlink:href="#DejaVuSans-32"/>
     <use x="495.207031" xlink:href="#DejaVuSans-118"/>
     <use x="554.386719" xlink:href="#DejaVuSans-115"/>
     <use x="606.486328" xlink:href="#DejaVuSans-46"/>
     <use x="638.273438" xlink:href="#DejaVuSans-32"/>
     <use x="670.060547" xlink:href="#DejaVuSans-77"/>
     <use x="756.339844" xlink:href="#DejaVuSans-105"/>
     <use x="784.123047" xlink:href="#DejaVuSans-120"/>
     <use x="840.177734" xlink:href="#DejaVuSans-101"/>
     <use x="901.701172" xlink:href="#DejaVuSans-100"/>
     <use x="965.177734" xlink:href="#DejaVuSans-32"/>
     <use x="996.964844" xlink:href="#DejaVuSans-116"/>
     <use x="1036.173828" xlink:href="#DejaVuSans-97"/>
     <use x="1097.453125" xlink:href="#DejaVuSans-103"/>
     <use x="1160.929688" xlink:href="#DejaVuSans-115"/>
     <use x="1213.029297" xlink:href="#DejaVuSans-32"/>
     <use x="1244.816406" xlink:href="#DejaVuSans-97"/>
     <use x="1306.095703" xlink:href="#DejaVuSans-116"/>
     <use x="1345.304688" xlink:href="#DejaVuSans-32"/>
     <use x="1377.091797" xlink:href="#DejaVuSans-97"/>
     <use x="1438.371094" xlink:href="#DejaVuSans-103"/>
     <use x="1501.847656" xlink:href="#DejaVuSans-101"/>
    </g>
   </g>
   <g id="legend_1">
    <g id="patch_112">
     <path d="M 352.672188 227.074375 
L 438.970625 227.074375 
Q 440.970625 227.074375 440.970625 225.074375 
L 440.970625 196.718125 
Q 440.970625 194.718125 438.970625 194.718125 
L 352.672188 194.718125 
Q 350.672188 194.718125 350.672188 196.718125 
L 350.672188 225.074375 
Q 350.672188 227.074375 352.672188 227.074375 
z
" style="fill:#ffffff;opacity:0.8;stroke:#cccccc;stroke-linejoin:miter;"/>
    </g>
    <g id="patch_113">
     <path d="M 354.672188 206.316562 
L 374.672188 206.316562 
L 374.672188 199.316562 
L 354.672188 199.316562 
z
" style="fill:#d95f0e;opacity:0.5;"/>
    </g>
    <g id="text_21">
     <!-- Mixed tags -->
     <g transform="translate(382.672188 206.316562)scale(0.1 -0.1)">
      <use xlink:href="#DejaVuSans-77"/>
      <use x="86.279297" xlink:href="#DejaVuSans-105"/>
      <use x="114.0625" xlink:href="#DejaVuSans-120"/>
      <use x="170.117188" xlink:href="#DejaVuSans-101"/>
      <use x="231.640625" xlink:href="#DejaVuSans-100"/>
      <use x="295.117188" xlink:href="#DejaVuSans-32"/>
      <use x="326.904297" xlink:href="#DejaVuSans-116"/>
      <use x="366.113281" xlink:href="#DejaVuSans-97"/>
      <use x="427.392578" xlink:href="#DejaVuSans-103"/>
      <use x="490.869141" xlink:href="#DejaVuSans-115"/>
     </g>
    </g>
    <g id="patch_114">
     <path d="M 354.672188 220.994687 
L 374.672188 220.994687 
L 374.672188 213.994687 
L 354.672188 213.994687 
z
" style="fill:#43a2ca;opacity:0.8;"/>
    </g>
    <g id="text_22">
     <!-- Real tags -->
     <g transform="translate(382.672188 220.994687)scale(0.1 -0.1)">
      <use xlink:href="#DejaVuSans-82"/>
      <use x="64.982422" xlink:href="#DejaVuSans-101"/>
      <use x="126.505859" xlink:href="#DejaVuSans-97"/>
      <use x="187.785156" xlink:href="#DejaVuSans-108"/>
      <use x="215.568359" xlink:href="#DejaVuSans-32"/>
      <use x="247.355469" xlink:href="#DejaVuSans-116"/>
      <use x="286.564453" xlink:href="#DejaVuSans-97"/>
      <use x="347.84375" xlink:href="#DejaVuSans-103"/>
      <use x="411.320312" xlink:href="#DejaVuSans-115"/>
     </g>
    </g>
   </g>
  </g>
 </g>
 <defs>
  <clipPath id="p96676f0161">
   <rect height="109.36" width="411.73" x="34.240625" y="189.718125"/>
  </clipPath>
 </defs>
</svg>
