<?xml version="1.0" encoding="utf-8" standalone="no"?>
<!DOCTYPE svg PUBLIC "-//W3C//DTD SVG 1.1//EN"
  "http://www.w3.org/Graphics/SVG/1.1/DTD/svg11.dtd">
<!-- Created with matplotlib (https://matplotlib.org/) -->
<svg height="331.721219pt" version="1.1" viewBox="0 0 456.716797 331.721219" width="456.716797pt" xmlns="http://www.w3.org/2000/svg" xmlns:xlink="http://www.w3.org/1999/xlink">
 <defs>
  <style type="text/css">
*{stroke-linecap:butt;stroke-linejoin:round;}
  </style>
 </defs>
 <g id="figure_1">
  <g id="patch_1">
   <path d="M 0 331.721219 
L 456.716797 331.721219 
L 456.716797 0 
L 0 0 
z
" style="fill:#ffffff;"/>
  </g>
  <g id="axes_1">
   <g id="patch_2">
    <path d="M 138.2125 292.229344 
L 368.6125 292.229344 
L 368.6125 26.117344 
L 138.2125 26.117344 
z
" style="fill:#ffffff;"/>
   </g>
   <g id="patch_3">
    <path clip-path="url(#pb0a92129c6)" d="M 138.2125 280.133344 
L 138.24358 280.133344 
L 138.24358 274.874213 
L 138.2125 274.874213 
z
" style="fill:#0000ff;"/>
   </g>
   <g id="patch_4">
    <path clip-path="url(#pb0a92129c6)" d="M 138.2125 273.559431 
L 138.494609 273.559431 
L 138.494609 268.3003 
L 138.2125 268.3003 
z
" style="fill:#0000ff;"/>
   </g>
   <g id="patch_5">
    <path clip-path="url(#pb0a92129c6)" d="M 138.2125 266.985518 
L 139.00779 266.985518 
L 139.00779 261.726387 
L 138.2125 261.726387 
z
" style="fill:#0000ff;"/>
   </g>
   <g id="patch_6">
    <path clip-path="url(#pb0a92129c6)" d="M 138.2125 260.411605 
L 140.158519 260.411605 
L 140.158519 255.152474 
L 138.2125 255.152474 
z
" style="fill:#0000ff;"/>
   </g>
   <g id="patch_7">
    <path clip-path="url(#pb0a92129c6)" d="M 138.2125 253.837692 
L 142.062238 253.837692 
L 142.062238 248.578561 
L 138.2125 248.578561 
z
" style="fill:#0000ff;"/>
   </g>
   <g id="patch_8">
    <path clip-path="url(#pb0a92129c6)" d="M 138.2125 247.263779 
L 142.829838 247.263779 
L 142.829838 242.004648 
L 138.2125 242.004648 
z
" style="fill:#0000ff;"/>
   </g>
   <g id="patch_9">
    <path clip-path="url(#pb0a92129c6)" d="M 138.2125 240.689865 
L 329.523887 240.689865 
L 329.523887 235.430735 
L 138.2125 235.430735 
z
" style="fill:#0000ff;"/>
   </g>
   <g id="patch_10">
    <path clip-path="url(#pb0a92129c6)" d="M 138.2125 234.115952 
L 329.523887 234.115952 
L 329.523887 228.856822 
L 138.2125 228.856822 
z
" style="fill:#0000ff;"/>
   </g>
   <g id="patch_11">
    <path clip-path="url(#pb0a92129c6)" d="M 138.2125 227.542039 
L 329.523887 227.542039 
L 329.523887 222.282909 
L 138.2125 222.282909 
z
" style="fill:#0000ff;"/>
   </g>
   <g id="patch_12">
    <path clip-path="url(#pb0a92129c6)" d="M 138.2125 220.968126 
L 329.523887 220.968126 
L 329.523887 215.708996 
L 138.2125 215.708996 
z
" style="fill:#0000ff;"/>
   </g>
   <g id="patch_13">
    <path clip-path="url(#pb0a92129c6)" d="M 138.2125 214.394213 
L 329.523887 214.394213 
L 329.523887 209.135083 
L 138.2125 209.135083 
z
" style="fill:#0000ff;"/>
   </g>
   <g id="patch_14">
    <path clip-path="url(#pb0a92129c6)" d="M 138.2125 207.8203 
L 329.523887 207.8203 
L 329.523887 202.56117 
L 138.2125 202.56117 
z
" style="fill:#0000ff;"/>
   </g>
   <g id="patch_15">
    <path clip-path="url(#pb0a92129c6)" d="M 138.2125 201.246387 
L 329.523887 201.246387 
L 329.523887 195.987257 
L 138.2125 195.987257 
z
" style="fill:#0000ff;"/>
   </g>
   <g id="patch_16">
    <path clip-path="url(#pb0a92129c6)" d="M 138.2125 194.672474 
L 329.523887 194.672474 
L 329.523887 189.413344 
L 138.2125 189.413344 
z
" style="fill:#0000ff;"/>
   </g>
   <g id="patch_17">
    <path clip-path="url(#pb0a92129c6)" d="M 138.2125 188.098561 
L 329.523887 188.098561 
L 329.523887 182.839431 
L 138.2125 182.839431 
z
" style="fill:#0000ff;"/>
   </g>
   <g id="patch_18">
    <path clip-path="url(#pb0a92129c6)" d="M 138.2125 181.524648 
L 329.523887 181.524648 
L 329.523887 176.265518 
L 138.2125 176.265518 
z
" style="fill:#0000ff;"/>
   </g>
   <g id="patch_19">
    <path clip-path="url(#pb0a92129c6)" d="M 138.2125 174.950735 
L 329.523887 174.950735 
L 329.523887 169.691605 
L 138.2125 169.691605 
z
" style="fill:#0000ff;"/>
   </g>
   <g id="patch_20">
    <path clip-path="url(#pb0a92129c6)" d="M 138.2125 168.376822 
L 329.523887 168.376822 
L 329.523887 163.117692 
L 138.2125 163.117692 
z
" style="fill:#0000ff;"/>
   </g>
   <g id="patch_21">
    <path clip-path="url(#pb0a92129c6)" d="M 138.2125 161.802909 
L 329.523887 161.802909 
L 329.523887 156.543779 
L 138.2125 156.543779 
z
" style="fill:#0000ff;"/>
   </g>
   <g id="patch_22">
    <path clip-path="url(#pb0a92129c6)" d="M 138.2125 155.228996 
L 329.523887 155.228996 
L 329.523887 149.969865 
L 138.2125 149.969865 
z
" style="fill:#0000ff;"/>
   </g>
   <g id="patch_23">
    <path clip-path="url(#pb0a92129c6)" d="M 138.2125 148.655083 
L 329.523887 148.655083 
L 329.523887 143.395952 
L 138.2125 143.395952 
z
" style="fill:#0000ff;"/>
   </g>
   <g id="patch_24">
    <path clip-path="url(#pb0a92129c6)" d="M 138.2125 142.08117 
L 329.523887 142.08117 
L 329.523887 136.822039 
L 138.2125 136.822039 
z
" style="fill:#0000ff;"/>
   </g>
   <g id="patch_25">
    <path clip-path="url(#pb0a92129c6)" d="M 138.2125 135.507257 
L 329.523887 135.507257 
L 329.523887 130.248126 
L 138.2125 130.248126 
z
" style="fill:#0000ff;"/>
   </g>
   <g id="patch_26">
    <path clip-path="url(#pb0a92129c6)" d="M 138.2125 128.933344 
L 329.523887 128.933344 
L 329.523887 123.674213 
L 138.2125 123.674213 
z
" style="fill:#0000ff;"/>
   </g>
   <g id="patch_27">
    <path clip-path="url(#pb0a92129c6)" d="M 138.2125 122.359431 
L 329.523887 122.359431 
L 329.523887 117.1003 
L 138.2125 117.1003 
z
" style="fill:#0000ff;"/>
   </g>
   <g id="patch_28">
    <path clip-path="url(#pb0a92129c6)" d="M 138.2125 115.785518 
L 329.523887 115.785518 
L 329.523887 110.526387 
L 138.2125 110.526387 
z
" style="fill:#0000ff;"/>
   </g>
   <g id="patch_29">
    <path clip-path="url(#pb0a92129c6)" d="M 138.2125 109.211605 
L 329.523887 109.211605 
L 329.523887 103.952474 
L 138.2125 103.952474 
z
" style="fill:#0000ff;"/>
   </g>
   <g id="patch_30">
    <path clip-path="url(#pb0a92129c6)" d="M 138.2125 102.637692 
L 329.523887 102.637692 
L 329.523887 97.378561 
L 138.2125 97.378561 
z
" style="fill:#0000ff;"/>
   </g>
   <g id="patch_31">
    <path clip-path="url(#pb0a92129c6)" d="M 138.2125 96.063779 
L 329.523887 96.063779 
L 329.523887 90.804648 
L 138.2125 90.804648 
z
" style="fill:#0000ff;"/>
   </g>
   <g id="patch_32">
    <path clip-path="url(#pb0a92129c6)" d="M 138.2125 89.489865 
L 331.876488 89.489865 
L 331.876488 84.230735 
L 138.2125 84.230735 
z
" style="fill:#0000ff;"/>
   </g>
   <g id="patch_33">
    <path clip-path="url(#pb0a92129c6)" d="M 138.2125 82.915952 
L 335.658326 82.915952 
L 335.658326 77.656822 
L 138.2125 77.656822 
z
" style="fill:#0000ff;"/>
   </g>
   <g id="patch_34">
    <path clip-path="url(#pb0a92129c6)" d="M 138.2125 76.342039 
L 335.691976 76.342039 
L 335.691976 71.082909 
L 138.2125 71.082909 
z
" style="fill:#0000ff;"/>
   </g>
   <g id="patch_35">
    <path clip-path="url(#pb0a92129c6)" d="M 138.2125 69.768126 
L 340.063638 69.768126 
L 340.063638 64.508996 
L 138.2125 64.508996 
z
" style="fill:#0000ff;"/>
   </g>
   <g id="patch_36">
    <path clip-path="url(#pb0a92129c6)" d="M 138.2125 63.194213 
L 340.872101 63.194213 
L 340.872101 57.935083 
L 138.2125 57.935083 
z
" style="fill:#0000ff;"/>
   </g>
   <g id="patch_37">
    <path clip-path="url(#pb0a92129c6)" d="M 138.2125 56.6203 
L 341.686013 56.6203 
L 341.686013 51.36117 
L 138.2125 51.36117 
z
" style="fill:#0000ff;"/>
   </g>
   <g id="patch_38">
    <path clip-path="url(#pb0a92129c6)" d="M 138.2125 50.046387 
L 351.749728 50.046387 
L 351.749728 44.787257 
L 138.2125 44.787257 
z
" style="fill:#0000ff;"/>
   </g>
   <g id="patch_39">
    <path clip-path="url(#pb0a92129c6)" d="M 138.2125 43.472474 
L 357.641071 43.472474 
L 357.641071 38.213344 
L 138.2125 38.213344 
z
" style="fill:#0000ff;"/>
   </g>
   <g id="matplotlib.axis_1">
    <g id="xtick_1">
     <g id="line2d_1">
      <defs>
       <path d="M 0 0 
L 0 3.5 
" id="m7bf613c33c" style="stroke:#000000;stroke-width:0.8;"/>
      </defs>
      <g>
       <use style="stroke:#000000;stroke-width:0.8;" x="138.2125" xlink:href="#m7bf613c33c" y="292.229344"/>
      </g>
     </g>
     <g id="text_1">
      <!-- 0.0 -->
      <defs>
       <path d="M 31.78125 66.40625 
Q 24.171875 66.40625 20.328125 58.90625 
Q 16.5 51.421875 16.5 36.375 
Q 16.5 21.390625 20.328125 13.890625 
Q 24.171875 6.390625 31.78125 6.390625 
Q 39.453125 6.390625 43.28125 13.890625 
Q 47.125 21.390625 47.125 36.375 
Q 47.125 51.421875 43.28125 58.90625 
Q 39.453125 66.40625 31.78125 66.40625 
z
M 31.78125 74.21875 
Q 44.046875 74.21875 50.515625 64.515625 
Q 56.984375 54.828125 56.984375 36.375 
Q 56.984375 17.96875 50.515625 8.265625 
Q 44.046875 -1.421875 31.78125 -1.421875 
Q 19.53125 -1.421875 13.0625 8.265625 
Q 6.59375 17.96875 6.59375 36.375 
Q 6.59375 54.828125 13.0625 64.515625 
Q 19.53125 74.21875 31.78125 74.21875 
z
" id="DejaVuSans-48"/>
       <path d="M 10.6875 12.40625 
L 21 12.40625 
L 21 0 
L 10.6875 0 
z
" id="DejaVuSans-46"/>
      </defs>
      <g transform="translate(130.260938 306.827781)scale(0.1 -0.1)">
       <use xlink:href="#DejaVuSans-48"/>
       <use x="63.623047" xlink:href="#DejaVuSans-46"/>
       <use x="95.410156" xlink:href="#DejaVuSans-48"/>
      </g>
     </g>
    </g>
    <g id="xtick_2">
     <g id="line2d_2">
      <g>
       <use style="stroke:#000000;stroke-width:0.8;" x="194.235091" xlink:href="#m7bf613c33c" y="292.229344"/>
      </g>
     </g>
     <g id="text_2">
      <!-- 0.1 -->
      <defs>
       <path d="M 12.40625 8.296875 
L 28.515625 8.296875 
L 28.515625 63.921875 
L 10.984375 60.40625 
L 10.984375 69.390625 
L 28.421875 72.90625 
L 38.28125 72.90625 
L 38.28125 8.296875 
L 54.390625 8.296875 
L 54.390625 0 
L 12.40625 0 
z
" id="DejaVuSans-49"/>
      </defs>
      <g transform="translate(186.283529 306.827781)scale(0.1 -0.1)">
       <use xlink:href="#DejaVuSans-48"/>
       <use x="63.623047" xlink:href="#DejaVuSans-46"/>
       <use x="95.410156" xlink:href="#DejaVuSans-49"/>
      </g>
     </g>
    </g>
    <g id="xtick_3">
     <g id="line2d_3">
      <g>
       <use style="stroke:#000000;stroke-width:0.8;" x="250.257682" xlink:href="#m7bf613c33c" y="292.229344"/>
      </g>
     </g>
     <g id="text_3">
      <!-- 0.2 -->
      <defs>
       <path d="M 19.1875 8.296875 
L 53.609375 8.296875 
L 53.609375 0 
L 7.328125 0 
L 7.328125 8.296875 
Q 12.9375 14.109375 22.625 23.890625 
Q 32.328125 33.6875 34.8125 36.53125 
Q 39.546875 41.84375 41.421875 45.53125 
Q 43.3125 49.21875 43.3125 52.78125 
Q 43.3125 58.59375 39.234375 62.25 
Q 35.15625 65.921875 28.609375 65.921875 
Q 23.96875 65.921875 18.8125 64.3125 
Q 13.671875 62.703125 7.8125 59.421875 
L 7.8125 69.390625 
Q 13.765625 71.78125 18.9375 73 
Q 24.125 74.21875 28.421875 74.21875 
Q 39.75 74.21875 46.484375 68.546875 
Q 53.21875 62.890625 53.21875 53.421875 
Q 53.21875 48.921875 51.53125 44.890625 
Q 49.859375 40.875 45.40625 35.40625 
Q 44.1875 33.984375 37.640625 27.21875 
Q 31.109375 20.453125 19.1875 8.296875 
z
" id="DejaVuSans-50"/>
      </defs>
      <g transform="translate(242.30612 306.827781)scale(0.1 -0.1)">
       <use xlink:href="#DejaVuSans-48"/>
       <use x="63.623047" xlink:href="#DejaVuSans-46"/>
       <use x="95.410156" xlink:href="#DejaVuSans-50"/>
      </g>
     </g>
    </g>
    <g id="xtick_4">
     <g id="line2d_4">
      <g>
       <use style="stroke:#000000;stroke-width:0.8;" x="306.280273" xlink:href="#m7bf613c33c" y="292.229344"/>
      </g>
     </g>
     <g id="text_4">
      <!-- 0.3 -->
      <defs>
       <path d="M 40.578125 39.3125 
Q 47.65625 37.796875 51.625 33 
Q 55.609375 28.21875 55.609375 21.1875 
Q 55.609375 10.40625 48.1875 4.484375 
Q 40.765625 -1.421875 27.09375 -1.421875 
Q 22.515625 -1.421875 17.65625 -0.515625 
Q 12.796875 0.390625 7.625 2.203125 
L 7.625 11.71875 
Q 11.71875 9.328125 16.59375 8.109375 
Q 21.484375 6.890625 26.8125 6.890625 
Q 36.078125 6.890625 40.9375 10.546875 
Q 45.796875 14.203125 45.796875 21.1875 
Q 45.796875 27.640625 41.28125 31.265625 
Q 36.765625 34.90625 28.71875 34.90625 
L 20.21875 34.90625 
L 20.21875 43.015625 
L 29.109375 43.015625 
Q 36.375 43.015625 40.234375 45.921875 
Q 44.09375 48.828125 44.09375 54.296875 
Q 44.09375 59.90625 40.109375 62.90625 
Q 36.140625 65.921875 28.71875 65.921875 
Q 24.65625 65.921875 20.015625 65.03125 
Q 15.375 64.15625 9.8125 62.3125 
L 9.8125 71.09375 
Q 15.4375 72.65625 20.34375 73.4375 
Q 25.25 74.21875 29.59375 74.21875 
Q 40.828125 74.21875 47.359375 69.109375 
Q 53.90625 64.015625 53.90625 55.328125 
Q 53.90625 49.265625 50.4375 45.09375 
Q 46.96875 40.921875 40.578125 39.3125 
z
" id="DejaVuSans-51"/>
      </defs>
      <g transform="translate(298.328711 306.827781)scale(0.1 -0.1)">
       <use xlink:href="#DejaVuSans-48"/>
       <use x="63.623047" xlink:href="#DejaVuSans-46"/>
       <use x="95.410156" xlink:href="#DejaVuSans-51"/>
      </g>
     </g>
    </g>
    <g id="xtick_5">
     <g id="line2d_5">
      <g>
       <use style="stroke:#000000;stroke-width:0.8;" x="362.302864" xlink:href="#m7bf613c33c" y="292.229344"/>
      </g>
     </g>
     <g id="text_5">
      <!-- 0.4 -->
      <defs>
       <path d="M 37.796875 64.3125 
L 12.890625 25.390625 
L 37.796875 25.390625 
z
M 35.203125 72.90625 
L 47.609375 72.90625 
L 47.609375 25.390625 
L 58.015625 25.390625 
L 58.015625 17.1875 
L 47.609375 17.1875 
L 47.609375 0 
L 37.796875 0 
L 37.796875 17.1875 
L 4.890625 17.1875 
L 4.890625 26.703125 
z
" id="DejaVuSans-52"/>
      </defs>
      <g transform="translate(354.351302 306.827781)scale(0.1 -0.1)">
       <use xlink:href="#DejaVuSans-48"/>
       <use x="63.623047" xlink:href="#DejaVuSans-46"/>
       <use x="95.410156" xlink:href="#DejaVuSans-52"/>
      </g>
     </g>
    </g>
    <g id="text_6">
     <!-- p value -->
     <defs>
      <path d="M 18.109375 8.203125 
L 18.109375 -20.796875 
L 9.078125 -20.796875 
L 9.078125 54.6875 
L 18.109375 54.6875 
L 18.109375 46.390625 
Q 20.953125 51.265625 25.265625 53.625 
Q 29.59375 56 35.59375 56 
Q 45.5625 56 51.78125 48.09375 
Q 58.015625 40.1875 58.015625 27.296875 
Q 58.015625 14.40625 51.78125 6.484375 
Q 45.5625 -1.421875 35.59375 -1.421875 
Q 29.59375 -1.421875 25.265625 0.953125 
Q 20.953125 3.328125 18.109375 8.203125 
z
M 48.6875 27.296875 
Q 48.6875 37.203125 44.609375 42.84375 
Q 40.53125 48.484375 33.40625 48.484375 
Q 26.265625 48.484375 22.1875 42.84375 
Q 18.109375 37.203125 18.109375 27.296875 
Q 18.109375 17.390625 22.1875 11.75 
Q 26.265625 6.109375 33.40625 6.109375 
Q 40.53125 6.109375 44.609375 11.75 
Q 48.6875 17.390625 48.6875 27.296875 
z
" id="DejaVuSans-112"/>
      <path id="DejaVuSans-32"/>
      <path d="M 2.984375 54.6875 
L 12.5 54.6875 
L 29.59375 8.796875 
L 46.6875 54.6875 
L 56.203125 54.6875 
L 35.6875 0 
L 23.484375 0 
z
" id="DejaVuSans-118"/>
      <path d="M 34.28125 27.484375 
Q 23.390625 27.484375 19.1875 25 
Q 14.984375 22.515625 14.984375 16.5 
Q 14.984375 11.71875 18.140625 8.90625 
Q 21.296875 6.109375 26.703125 6.109375 
Q 34.1875 6.109375 38.703125 11.40625 
Q 43.21875 16.703125 43.21875 25.484375 
L 43.21875 27.484375 
z
M 52.203125 31.203125 
L 52.203125 0 
L 43.21875 0 
L 43.21875 8.296875 
Q 40.140625 3.328125 35.546875 0.953125 
Q 30.953125 -1.421875 24.3125 -1.421875 
Q 15.921875 -1.421875 10.953125 3.296875 
Q 6 8.015625 6 15.921875 
Q 6 25.140625 12.171875 29.828125 
Q 18.359375 34.515625 30.609375 34.515625 
L 43.21875 34.515625 
L 43.21875 35.40625 
Q 43.21875 41.609375 39.140625 45 
Q 35.0625 48.390625 27.6875 48.390625 
Q 23 48.390625 18.546875 47.265625 
Q 14.109375 46.140625 10.015625 43.890625 
L 10.015625 52.203125 
Q 14.9375 54.109375 19.578125 55.046875 
Q 24.21875 56 28.609375 56 
Q 40.484375 56 46.34375 49.84375 
Q 52.203125 43.703125 52.203125 31.203125 
z
" id="DejaVuSans-97"/>
      <path d="M 9.421875 75.984375 
L 18.40625 75.984375 
L 18.40625 0 
L 9.421875 0 
z
" id="DejaVuSans-108"/>
      <path d="M 8.5 21.578125 
L 8.5 54.6875 
L 17.484375 54.6875 
L 17.484375 21.921875 
Q 17.484375 14.15625 20.5 10.265625 
Q 23.53125 6.390625 29.59375 6.390625 
Q 36.859375 6.390625 41.078125 11.03125 
Q 45.3125 15.671875 45.3125 23.6875 
L 45.3125 54.6875 
L 54.296875 54.6875 
L 54.296875 0 
L 45.3125 0 
L 45.3125 8.40625 
Q 42.046875 3.421875 37.71875 1 
Q 33.40625 -1.421875 27.6875 -1.421875 
Q 18.265625 -1.421875 13.375 4.4375 
Q 8.5 10.296875 8.5 21.578125 
z
M 31.109375 56 
z
" id="DejaVuSans-117"/>
      <path d="M 56.203125 29.59375 
L 56.203125 25.203125 
L 14.890625 25.203125 
Q 15.484375 15.921875 20.484375 11.0625 
Q 25.484375 6.203125 34.421875 6.203125 
Q 39.59375 6.203125 44.453125 7.46875 
Q 49.3125 8.734375 54.109375 11.28125 
L 54.109375 2.78125 
Q 49.265625 0.734375 44.1875 -0.34375 
Q 39.109375 -1.421875 33.890625 -1.421875 
Q 20.796875 -1.421875 13.15625 6.1875 
Q 5.515625 13.8125 5.515625 26.8125 
Q 5.515625 40.234375 12.765625 48.109375 
Q 20.015625 56 32.328125 56 
Q 43.359375 56 49.78125 48.890625 
Q 56.203125 41.796875 56.203125 29.59375 
z
M 47.21875 32.234375 
Q 47.125 39.59375 43.09375 43.984375 
Q 39.0625 48.390625 32.421875 48.390625 
Q 24.90625 48.390625 20.390625 44.140625 
Q 15.875 39.890625 15.1875 32.171875 
z
" id="DejaVuSans-101"/>
     </defs>
     <g transform="translate(231.307188 322.025594)scale(0.12 -0.12)">
      <use xlink:href="#DejaVuSans-112"/>
      <use x="63.476562" xlink:href="#DejaVuSans-32"/>
      <use x="95.263672" xlink:href="#DejaVuSans-118"/>
      <use x="154.443359" xlink:href="#DejaVuSans-97"/>
      <use x="215.722656" xlink:href="#DejaVuSans-108"/>
      <use x="243.505859" xlink:href="#DejaVuSans-117"/>
      <use x="306.884766" xlink:href="#DejaVuSans-101"/>
     </g>
    </g>
   </g>
   <g id="matplotlib.axis_2">
    <g id="ytick_1">
     <g id="line2d_6">
      <defs>
       <path d="M 0 0 
L -3.5 0 
" id="m26fc21461b" style="stroke:#000000;stroke-width:0.8;"/>
      </defs>
      <g>
       <use style="stroke:#000000;stroke-width:0.8;" x="138.2125" xlink:href="#m26fc21461b" y="277.503779"/>
      </g>
     </g>
     <g id="text_7">
      <!--  g__Oribacterium -->
      <defs>
       <path d="M 45.40625 27.984375 
Q 45.40625 37.75 41.375 43.109375 
Q 37.359375 48.484375 30.078125 48.484375 
Q 22.859375 48.484375 18.828125 43.109375 
Q 14.796875 37.75 14.796875 27.984375 
Q 14.796875 18.265625 18.828125 12.890625 
Q 22.859375 7.515625 30.078125 7.515625 
Q 37.359375 7.515625 41.375 12.890625 
Q 45.40625 18.265625 45.40625 27.984375 
z
M 54.390625 6.78125 
Q 54.390625 -7.171875 48.1875 -13.984375 
Q 42 -20.796875 29.203125 -20.796875 
Q 24.46875 -20.796875 20.265625 -20.09375 
Q 16.0625 -19.390625 12.109375 -17.921875 
L 12.109375 -9.1875 
Q 16.0625 -11.328125 19.921875 -12.34375 
Q 23.78125 -13.375 27.78125 -13.375 
Q 36.625 -13.375 41.015625 -8.765625 
Q 45.40625 -4.15625 45.40625 5.171875 
L 45.40625 9.625 
Q 42.625 4.78125 38.28125 2.390625 
Q 33.9375 0 27.875 0 
Q 17.828125 0 11.671875 7.65625 
Q 5.515625 15.328125 5.515625 27.984375 
Q 5.515625 40.671875 11.671875 48.328125 
Q 17.828125 56 27.875 56 
Q 33.9375 56 38.28125 53.609375 
Q 42.625 51.21875 45.40625 46.390625 
L 45.40625 54.6875 
L 54.390625 54.6875 
z
" id="DejaVuSans-103"/>
       <path d="M 50.984375 -16.609375 
L 50.984375 -23.578125 
L -0.984375 -23.578125 
L -0.984375 -16.609375 
z
" id="DejaVuSans-95"/>
       <path d="M 39.40625 66.21875 
Q 28.65625 66.21875 22.328125 58.203125 
Q 16.015625 50.203125 16.015625 36.375 
Q 16.015625 22.609375 22.328125 14.59375 
Q 28.65625 6.59375 39.40625 6.59375 
Q 50.140625 6.59375 56.421875 14.59375 
Q 62.703125 22.609375 62.703125 36.375 
Q 62.703125 50.203125 56.421875 58.203125 
Q 50.140625 66.21875 39.40625 66.21875 
z
M 39.40625 74.21875 
Q 54.734375 74.21875 63.90625 63.9375 
Q 73.09375 53.65625 73.09375 36.375 
Q 73.09375 19.140625 63.90625 8.859375 
Q 54.734375 -1.421875 39.40625 -1.421875 
Q 24.03125 -1.421875 14.8125 8.828125 
Q 5.609375 19.09375 5.609375 36.375 
Q 5.609375 53.65625 14.8125 63.9375 
Q 24.03125 74.21875 39.40625 74.21875 
z
" id="DejaVuSans-79"/>
       <path d="M 41.109375 46.296875 
Q 39.59375 47.171875 37.8125 47.578125 
Q 36.03125 48 33.890625 48 
Q 26.265625 48 22.1875 43.046875 
Q 18.109375 38.09375 18.109375 28.8125 
L 18.109375 0 
L 9.078125 0 
L 9.078125 54.6875 
L 18.109375 54.6875 
L 18.109375 46.1875 
Q 20.953125 51.171875 25.484375 53.578125 
Q 30.03125 56 36.53125 56 
Q 37.453125 56 38.578125 55.875 
Q 39.703125 55.765625 41.0625 55.515625 
z
" id="DejaVuSans-114"/>
       <path d="M 9.421875 54.6875 
L 18.40625 54.6875 
L 18.40625 0 
L 9.421875 0 
z
M 9.421875 75.984375 
L 18.40625 75.984375 
L 18.40625 64.59375 
L 9.421875 64.59375 
z
" id="DejaVuSans-105"/>
       <path d="M 48.6875 27.296875 
Q 48.6875 37.203125 44.609375 42.84375 
Q 40.53125 48.484375 33.40625 48.484375 
Q 26.265625 48.484375 22.1875 42.84375 
Q 18.109375 37.203125 18.109375 27.296875 
Q 18.109375 17.390625 22.1875 11.75 
Q 26.265625 6.109375 33.40625 6.109375 
Q 40.53125 6.109375 44.609375 11.75 
Q 48.6875 17.390625 48.6875 27.296875 
z
M 18.109375 46.390625 
Q 20.953125 51.265625 25.265625 53.625 
Q 29.59375 56 35.59375 56 
Q 45.5625 56 51.78125 48.09375 
Q 58.015625 40.1875 58.015625 27.296875 
Q 58.015625 14.40625 51.78125 6.484375 
Q 45.5625 -1.421875 35.59375 -1.421875 
Q 29.59375 -1.421875 25.265625 0.953125 
Q 20.953125 3.328125 18.109375 8.203125 
L 18.109375 0 
L 9.078125 0 
L 9.078125 75.984375 
L 18.109375 75.984375 
z
" id="DejaVuSans-98"/>
       <path d="M 48.78125 52.59375 
L 48.78125 44.1875 
Q 44.96875 46.296875 41.140625 47.34375 
Q 37.3125 48.390625 33.40625 48.390625 
Q 24.65625 48.390625 19.8125 42.84375 
Q 14.984375 37.3125 14.984375 27.296875 
Q 14.984375 17.28125 19.8125 11.734375 
Q 24.65625 6.203125 33.40625 6.203125 
Q 37.3125 6.203125 41.140625 7.25 
Q 44.96875 8.296875 48.78125 10.40625 
L 48.78125 2.09375 
Q 45.015625 0.34375 40.984375 -0.53125 
Q 36.96875 -1.421875 32.421875 -1.421875 
Q 20.0625 -1.421875 12.78125 6.34375 
Q 5.515625 14.109375 5.515625 27.296875 
Q 5.515625 40.671875 12.859375 48.328125 
Q 20.21875 56 33.015625 56 
Q 37.15625 56 41.109375 55.140625 
Q 45.0625 54.296875 48.78125 52.59375 
z
" id="DejaVuSans-99"/>
       <path d="M 18.3125 70.21875 
L 18.3125 54.6875 
L 36.8125 54.6875 
L 36.8125 47.703125 
L 18.3125 47.703125 
L 18.3125 18.015625 
Q 18.3125 11.328125 20.140625 9.421875 
Q 21.96875 7.515625 27.59375 7.515625 
L 36.8125 7.515625 
L 36.8125 0 
L 27.59375 0 
Q 17.1875 0 13.234375 3.875 
Q 9.28125 7.765625 9.28125 18.015625 
L 9.28125 47.703125 
L 2.6875 47.703125 
L 2.6875 54.6875 
L 9.28125 54.6875 
L 9.28125 70.21875 
z
" id="DejaVuSans-116"/>
       <path d="M 52 44.1875 
Q 55.375 50.25 60.0625 53.125 
Q 64.75 56 71.09375 56 
Q 79.640625 56 84.28125 50.015625 
Q 88.921875 44.046875 88.921875 33.015625 
L 88.921875 0 
L 79.890625 0 
L 79.890625 32.71875 
Q 79.890625 40.578125 77.09375 44.375 
Q 74.3125 48.1875 68.609375 48.1875 
Q 61.625 48.1875 57.5625 43.546875 
Q 53.515625 38.921875 53.515625 30.90625 
L 53.515625 0 
L 44.484375 0 
L 44.484375 32.71875 
Q 44.484375 40.625 41.703125 44.40625 
Q 38.921875 48.1875 33.109375 48.1875 
Q 26.21875 48.1875 22.15625 43.53125 
Q 18.109375 38.875 18.109375 30.90625 
L 18.109375 0 
L 9.078125 0 
L 9.078125 54.6875 
L 18.109375 54.6875 
L 18.109375 46.1875 
Q 21.1875 51.21875 25.484375 53.609375 
Q 29.78125 56 35.6875 56 
Q 41.65625 56 45.828125 52.96875 
Q 50 49.953125 52 44.1875 
z
" id="DejaVuSans-109"/>
      </defs>
      <g transform="translate(45.909375 281.302997)scale(0.1 -0.1)">
       <use xlink:href="#DejaVuSans-32"/>
       <use x="31.787109" xlink:href="#DejaVuSans-103"/>
       <use x="95.263672" xlink:href="#DejaVuSans-95"/>
       <use x="145.263672" xlink:href="#DejaVuSans-95"/>
       <use x="195.263672" xlink:href="#DejaVuSans-79"/>
       <use x="273.974609" xlink:href="#DejaVuSans-114"/>
       <use x="315.087891" xlink:href="#DejaVuSans-105"/>
       <use x="342.871094" xlink:href="#DejaVuSans-98"/>
       <use x="406.347656" xlink:href="#DejaVuSans-97"/>
       <use x="467.626953" xlink:href="#DejaVuSans-99"/>
       <use x="522.607422" xlink:href="#DejaVuSans-116"/>
       <use x="561.816406" xlink:href="#DejaVuSans-101"/>
       <use x="623.339844" xlink:href="#DejaVuSans-114"/>
       <use x="664.453125" xlink:href="#DejaVuSans-105"/>
       <use x="692.236328" xlink:href="#DejaVuSans-117"/>
       <use x="755.615234" xlink:href="#DejaVuSans-109"/>
      </g>
     </g>
    </g>
    <g id="ytick_2">
     <g id="line2d_7">
      <g>
       <use style="stroke:#000000;stroke-width:0.8;" x="138.2125" xlink:href="#m26fc21461b" y="270.929865"/>
      </g>
     </g>
     <g id="text_8">
      <!--  g__Moryella -->
      <defs>
       <path d="M 9.8125 72.90625 
L 24.515625 72.90625 
L 43.109375 23.296875 
L 61.8125 72.90625 
L 76.515625 72.90625 
L 76.515625 0 
L 66.890625 0 
L 66.890625 64.015625 
L 48.09375 14.015625 
L 38.1875 14.015625 
L 19.390625 64.015625 
L 19.390625 0 
L 9.8125 0 
z
" id="DejaVuSans-77"/>
       <path d="M 30.609375 48.390625 
Q 23.390625 48.390625 19.1875 42.75 
Q 14.984375 37.109375 14.984375 27.296875 
Q 14.984375 17.484375 19.15625 11.84375 
Q 23.34375 6.203125 30.609375 6.203125 
Q 37.796875 6.203125 41.984375 11.859375 
Q 46.1875 17.53125 46.1875 27.296875 
Q 46.1875 37.015625 41.984375 42.703125 
Q 37.796875 48.390625 30.609375 48.390625 
z
M 30.609375 56 
Q 42.328125 56 49.015625 48.375 
Q 55.71875 40.765625 55.71875 27.296875 
Q 55.71875 13.875 49.015625 6.21875 
Q 42.328125 -1.421875 30.609375 -1.421875 
Q 18.84375 -1.421875 12.171875 6.21875 
Q 5.515625 13.875 5.515625 27.296875 
Q 5.515625 40.765625 12.171875 48.375 
Q 18.84375 56 30.609375 56 
z
" id="DejaVuSans-111"/>
       <path d="M 32.171875 -5.078125 
Q 28.375 -14.84375 24.75 -17.8125 
Q 21.140625 -20.796875 15.09375 -20.796875 
L 7.90625 -20.796875 
L 7.90625 -13.28125 
L 13.1875 -13.28125 
Q 16.890625 -13.28125 18.9375 -11.515625 
Q 21 -9.765625 23.484375 -3.21875 
L 25.09375 0.875 
L 2.984375 54.6875 
L 12.5 54.6875 
L 29.59375 11.921875 
L 46.6875 54.6875 
L 56.203125 54.6875 
z
" id="DejaVuSans-121"/>
      </defs>
      <g transform="translate(69.071875 274.729084)scale(0.1 -0.1)">
       <use xlink:href="#DejaVuSans-32"/>
       <use x="31.787109" xlink:href="#DejaVuSans-103"/>
       <use x="95.263672" xlink:href="#DejaVuSans-95"/>
       <use x="145.263672" xlink:href="#DejaVuSans-95"/>
       <use x="195.263672" xlink:href="#DejaVuSans-77"/>
       <use x="281.542969" xlink:href="#DejaVuSans-111"/>
       <use x="342.724609" xlink:href="#DejaVuSans-114"/>
       <use x="383.837891" xlink:href="#DejaVuSans-121"/>
       <use x="443.017578" xlink:href="#DejaVuSans-101"/>
       <use x="504.541016" xlink:href="#DejaVuSans-108"/>
       <use x="532.324219" xlink:href="#DejaVuSans-108"/>
       <use x="560.107422" xlink:href="#DejaVuSans-97"/>
      </g>
     </g>
    </g>
    <g id="ytick_3">
     <g id="line2d_8">
      <g>
       <use style="stroke:#000000;stroke-width:0.8;" x="138.2125" xlink:href="#m26fc21461b" y="264.355952"/>
      </g>
     </g>
     <g id="text_9">
      <!--  g__Dorea -->
      <defs>
       <path d="M 19.671875 64.796875 
L 19.671875 8.109375 
L 31.59375 8.109375 
Q 46.6875 8.109375 53.6875 14.9375 
Q 60.6875 21.78125 60.6875 36.53125 
Q 60.6875 51.171875 53.6875 57.984375 
Q 46.6875 64.796875 31.59375 64.796875 
z
M 9.8125 72.90625 
L 30.078125 72.90625 
Q 51.265625 72.90625 61.171875 64.09375 
Q 71.09375 55.28125 71.09375 36.53125 
Q 71.09375 17.671875 61.125 8.828125 
Q 51.171875 0 30.078125 0 
L 9.8125 0 
z
" id="DejaVuSans-68"/>
      </defs>
      <g transform="translate(81.478125 268.016109)scale(0.1 -0.1)">
       <use xlink:href="#DejaVuSans-32"/>
       <use x="31.787109" xlink:href="#DejaVuSans-103"/>
       <use x="95.263672" xlink:href="#DejaVuSans-95"/>
       <use x="145.263672" xlink:href="#DejaVuSans-95"/>
       <use x="195.263672" xlink:href="#DejaVuSans-68"/>
       <use x="272.265625" xlink:href="#DejaVuSans-111"/>
       <use x="333.447266" xlink:href="#DejaVuSans-114"/>
       <use x="374.529297" xlink:href="#DejaVuSans-101"/>
       <use x="436.052734" xlink:href="#DejaVuSans-97"/>
      </g>
     </g>
    </g>
    <g id="ytick_4">
     <g id="line2d_9">
      <g>
       <use style="stroke:#000000;stroke-width:0.8;" x="138.2125" xlink:href="#m26fc21461b" y="257.782039"/>
      </g>
     </g>
     <g id="text_10">
      <!--  f__Lachnospiraceae -->
      <defs>
       <path d="M 37.109375 75.984375 
L 37.109375 68.5 
L 28.515625 68.5 
Q 23.6875 68.5 21.796875 66.546875 
Q 19.921875 64.59375 19.921875 59.515625 
L 19.921875 54.6875 
L 34.71875 54.6875 
L 34.71875 47.703125 
L 19.921875 47.703125 
L 19.921875 0 
L 10.890625 0 
L 10.890625 47.703125 
L 2.296875 47.703125 
L 2.296875 54.6875 
L 10.890625 54.6875 
L 10.890625 58.5 
Q 10.890625 67.625 15.140625 71.796875 
Q 19.390625 75.984375 28.609375 75.984375 
z
" id="DejaVuSans-102"/>
       <path d="M 9.8125 72.90625 
L 19.671875 72.90625 
L 19.671875 8.296875 
L 55.171875 8.296875 
L 55.171875 0 
L 9.8125 0 
z
" id="DejaVuSans-76"/>
       <path d="M 54.890625 33.015625 
L 54.890625 0 
L 45.90625 0 
L 45.90625 32.71875 
Q 45.90625 40.484375 42.875 44.328125 
Q 39.84375 48.1875 33.796875 48.1875 
Q 26.515625 48.1875 22.3125 43.546875 
Q 18.109375 38.921875 18.109375 30.90625 
L 18.109375 0 
L 9.078125 0 
L 9.078125 75.984375 
L 18.109375 75.984375 
L 18.109375 46.1875 
Q 21.34375 51.125 25.703125 53.5625 
Q 30.078125 56 35.796875 56 
Q 45.21875 56 50.046875 50.171875 
Q 54.890625 44.34375 54.890625 33.015625 
z
" id="DejaVuSans-104"/>
       <path d="M 54.890625 33.015625 
L 54.890625 0 
L 45.90625 0 
L 45.90625 32.71875 
Q 45.90625 40.484375 42.875 44.328125 
Q 39.84375 48.1875 33.796875 48.1875 
Q 26.515625 48.1875 22.3125 43.546875 
Q 18.109375 38.921875 18.109375 30.90625 
L 18.109375 0 
L 9.078125 0 
L 9.078125 54.6875 
L 18.109375 54.6875 
L 18.109375 46.1875 
Q 21.34375 51.125 25.703125 53.5625 
Q 30.078125 56 35.796875 56 
Q 45.21875 56 50.046875 50.171875 
Q 54.890625 44.34375 54.890625 33.015625 
z
" id="DejaVuSans-110"/>
       <path d="M 44.28125 53.078125 
L 44.28125 44.578125 
Q 40.484375 46.53125 36.375 47.5 
Q 32.28125 48.484375 27.875 48.484375 
Q 21.1875 48.484375 17.84375 46.4375 
Q 14.5 44.390625 14.5 40.28125 
Q 14.5 37.15625 16.890625 35.375 
Q 19.28125 33.59375 26.515625 31.984375 
L 29.59375 31.296875 
Q 39.15625 29.25 43.1875 25.515625 
Q 47.21875 21.78125 47.21875 15.09375 
Q 47.21875 7.46875 41.1875 3.015625 
Q 35.15625 -1.421875 24.609375 -1.421875 
Q 20.21875 -1.421875 15.453125 -0.5625 
Q 10.6875 0.296875 5.421875 2 
L 5.421875 11.28125 
Q 10.40625 8.6875 15.234375 7.390625 
Q 20.0625 6.109375 24.8125 6.109375 
Q 31.15625 6.109375 34.5625 8.28125 
Q 37.984375 10.453125 37.984375 14.40625 
Q 37.984375 18.0625 35.515625 20.015625 
Q 33.0625 21.96875 24.703125 23.78125 
L 21.578125 24.515625 
Q 13.234375 26.265625 9.515625 29.90625 
Q 5.8125 33.546875 5.8125 39.890625 
Q 5.8125 47.609375 11.28125 51.796875 
Q 16.75 56 26.8125 56 
Q 31.78125 56 36.171875 55.265625 
Q 40.578125 54.546875 44.28125 53.078125 
z
" id="DejaVuSans-115"/>
      </defs>
      <g transform="translate(30.014062 261.581258)scale(0.1 -0.1)">
       <use xlink:href="#DejaVuSans-32"/>
       <use x="31.787109" xlink:href="#DejaVuSans-102"/>
       <use x="66.992188" xlink:href="#DejaVuSans-95"/>
       <use x="116.992188" xlink:href="#DejaVuSans-95"/>
       <use x="166.992188" xlink:href="#DejaVuSans-76"/>
       <use x="222.705078" xlink:href="#DejaVuSans-97"/>
       <use x="283.984375" xlink:href="#DejaVuSans-99"/>
       <use x="338.964844" xlink:href="#DejaVuSans-104"/>
       <use x="402.34375" xlink:href="#DejaVuSans-110"/>
       <use x="465.722656" xlink:href="#DejaVuSans-111"/>
       <use x="526.904297" xlink:href="#DejaVuSans-115"/>
       <use x="579.003906" xlink:href="#DejaVuSans-112"/>
       <use x="642.480469" xlink:href="#DejaVuSans-105"/>
       <use x="670.263672" xlink:href="#DejaVuSans-114"/>
       <use x="711.376953" xlink:href="#DejaVuSans-97"/>
       <use x="772.65625" xlink:href="#DejaVuSans-99"/>
       <use x="827.636719" xlink:href="#DejaVuSans-101"/>
       <use x="889.160156" xlink:href="#DejaVuSans-97"/>
       <use x="950.439453" xlink:href="#DejaVuSans-101"/>
      </g>
     </g>
    </g>
    <g id="ytick_5">
     <g id="line2d_10">
      <g>
       <use style="stroke:#000000;stroke-width:0.8;" x="138.2125" xlink:href="#m26fc21461b" y="251.208126"/>
      </g>
     </g>
     <g id="text_11">
      <!--  g__Lautropia -->
      <g transform="translate(64.246875 255.007345)scale(0.1 -0.1)">
       <use xlink:href="#DejaVuSans-32"/>
       <use x="31.787109" xlink:href="#DejaVuSans-103"/>
       <use x="95.263672" xlink:href="#DejaVuSans-95"/>
       <use x="145.263672" xlink:href="#DejaVuSans-95"/>
       <use x="195.263672" xlink:href="#DejaVuSans-76"/>
       <use x="250.976562" xlink:href="#DejaVuSans-97"/>
       <use x="312.255859" xlink:href="#DejaVuSans-117"/>
       <use x="375.634766" xlink:href="#DejaVuSans-116"/>
       <use x="414.84375" xlink:href="#DejaVuSans-114"/>
       <use x="455.925781" xlink:href="#DejaVuSans-111"/>
       <use x="517.107422" xlink:href="#DejaVuSans-112"/>
       <use x="580.583984" xlink:href="#DejaVuSans-105"/>
       <use x="608.367188" xlink:href="#DejaVuSans-97"/>
      </g>
     </g>
    </g>
    <g id="ytick_6">
     <g id="line2d_11">
      <g>
       <use style="stroke:#000000;stroke-width:0.8;" x="138.2125" xlink:href="#m26fc21461b" y="244.634213"/>
      </g>
     </g>
     <g id="text_12">
      <!--  g__Bulleidia -->
      <defs>
       <path d="M 19.671875 34.8125 
L 19.671875 8.109375 
L 35.5 8.109375 
Q 43.453125 8.109375 47.28125 11.40625 
Q 51.125 14.703125 51.125 21.484375 
Q 51.125 28.328125 47.28125 31.5625 
Q 43.453125 34.8125 35.5 34.8125 
z
M 19.671875 64.796875 
L 19.671875 42.828125 
L 34.28125 42.828125 
Q 41.5 42.828125 45.03125 45.53125 
Q 48.578125 48.25 48.578125 53.8125 
Q 48.578125 59.328125 45.03125 62.0625 
Q 41.5 64.796875 34.28125 64.796875 
z
M 9.8125 72.90625 
L 35.015625 72.90625 
Q 46.296875 72.90625 52.390625 68.21875 
Q 58.5 63.53125 58.5 54.890625 
Q 58.5 48.1875 55.375 44.234375 
Q 52.25 40.28125 46.1875 39.3125 
Q 53.46875 37.75 57.5 32.78125 
Q 61.53125 27.828125 61.53125 20.40625 
Q 61.53125 10.640625 54.890625 5.3125 
Q 48.25 0 35.984375 0 
L 9.8125 0 
z
" id="DejaVuSans-66"/>
       <path d="M 45.40625 46.390625 
L 45.40625 75.984375 
L 54.390625 75.984375 
L 54.390625 0 
L 45.40625 0 
L 45.40625 8.203125 
Q 42.578125 3.328125 38.25 0.953125 
Q 33.9375 -1.421875 27.875 -1.421875 
Q 17.96875 -1.421875 11.734375 6.484375 
Q 5.515625 14.40625 5.515625 27.296875 
Q 5.515625 40.1875 11.734375 48.09375 
Q 17.96875 56 27.875 56 
Q 33.9375 56 38.25 53.625 
Q 42.578125 51.265625 45.40625 46.390625 
z
M 14.796875 27.296875 
Q 14.796875 17.390625 18.875 11.75 
Q 22.953125 6.109375 30.078125 6.109375 
Q 37.203125 6.109375 41.296875 11.75 
Q 45.40625 17.390625 45.40625 27.296875 
Q 45.40625 37.203125 41.296875 42.84375 
Q 37.203125 48.484375 30.078125 48.484375 
Q 22.953125 48.484375 18.875 42.84375 
Q 14.796875 37.203125 14.796875 27.296875 
z
" id="DejaVuSans-100"/>
      </defs>
      <g transform="translate(68.745313 248.433432)scale(0.1 -0.1)">
       <use xlink:href="#DejaVuSans-32"/>
       <use x="31.787109" xlink:href="#DejaVuSans-103"/>
       <use x="95.263672" xlink:href="#DejaVuSans-95"/>
       <use x="145.263672" xlink:href="#DejaVuSans-95"/>
       <use x="195.263672" xlink:href="#DejaVuSans-66"/>
       <use x="263.867188" xlink:href="#DejaVuSans-117"/>
       <use x="327.246094" xlink:href="#DejaVuSans-108"/>
       <use x="355.029297" xlink:href="#DejaVuSans-108"/>
       <use x="382.8125" xlink:href="#DejaVuSans-101"/>
       <use x="444.335938" xlink:href="#DejaVuSans-105"/>
       <use x="472.119141" xlink:href="#DejaVuSans-100"/>
       <use x="535.595703" xlink:href="#DejaVuSans-105"/>
       <use x="563.378906" xlink:href="#DejaVuSans-97"/>
      </g>
     </g>
    </g>
    <g id="ytick_7">
     <g id="line2d_12">
      <g>
       <use style="stroke:#000000;stroke-width:0.8;" x="138.2125" xlink:href="#m26fc21461b" y="238.0603"/>
      </g>
     </g>
     <g id="text_13">
      <!--  g__Flexispira -->
      <defs>
       <path d="M 9.8125 72.90625 
L 51.703125 72.90625 
L 51.703125 64.59375 
L 19.671875 64.59375 
L 19.671875 43.109375 
L 48.578125 43.109375 
L 48.578125 34.8125 
L 19.671875 34.8125 
L 19.671875 0 
L 9.8125 0 
z
" id="DejaVuSans-70"/>
       <path d="M 54.890625 54.6875 
L 35.109375 28.078125 
L 55.90625 0 
L 45.3125 0 
L 29.390625 21.484375 
L 13.484375 0 
L 2.875 0 
L 24.125 28.609375 
L 4.6875 54.6875 
L 15.28125 54.6875 
L 29.78125 35.203125 
L 44.28125 54.6875 
z
" id="DejaVuSans-120"/>
      </defs>
      <g transform="translate(63.732813 241.859519)scale(0.1 -0.1)">
       <use xlink:href="#DejaVuSans-32"/>
       <use x="31.787109" xlink:href="#DejaVuSans-103"/>
       <use x="95.263672" xlink:href="#DejaVuSans-95"/>
       <use x="145.263672" xlink:href="#DejaVuSans-95"/>
       <use x="195.263672" xlink:href="#DejaVuSans-70"/>
       <use x="252.783203" xlink:href="#DejaVuSans-108"/>
       <use x="280.566406" xlink:href="#DejaVuSans-101"/>
       <use x="342.074219" xlink:href="#DejaVuSans-120"/>
       <use x="401.253906" xlink:href="#DejaVuSans-105"/>
       <use x="429.037109" xlink:href="#DejaVuSans-115"/>
       <use x="481.136719" xlink:href="#DejaVuSans-112"/>
       <use x="544.613281" xlink:href="#DejaVuSans-105"/>
       <use x="572.396484" xlink:href="#DejaVuSans-114"/>
       <use x="613.509766" xlink:href="#DejaVuSans-97"/>
      </g>
     </g>
    </g>
    <g id="ytick_8">
     <g id="line2d_13">
      <g>
       <use style="stroke:#000000;stroke-width:0.8;" x="138.2125" xlink:href="#m26fc21461b" y="231.486387"/>
      </g>
     </g>
     <g id="text_14">
      <!--  g__Serratia -->
      <defs>
       <path d="M 53.515625 70.515625 
L 53.515625 60.890625 
Q 47.90625 63.578125 42.921875 64.890625 
Q 37.9375 66.21875 33.296875 66.21875 
Q 25.25 66.21875 20.875 63.09375 
Q 16.5 59.96875 16.5 54.203125 
Q 16.5 49.359375 19.40625 46.890625 
Q 22.3125 44.4375 30.421875 42.921875 
L 36.375 41.703125 
Q 47.40625 39.59375 52.65625 34.296875 
Q 57.90625 29 57.90625 20.125 
Q 57.90625 9.515625 50.796875 4.046875 
Q 43.703125 -1.421875 29.984375 -1.421875 
Q 24.8125 -1.421875 18.96875 -0.25 
Q 13.140625 0.921875 6.890625 3.21875 
L 6.890625 13.375 
Q 12.890625 10.015625 18.65625 8.296875 
Q 24.421875 6.59375 29.984375 6.59375 
Q 38.421875 6.59375 43.015625 9.90625 
Q 47.609375 13.234375 47.609375 19.390625 
Q 47.609375 24.75 44.3125 27.78125 
Q 41.015625 30.8125 33.5 32.328125 
L 27.484375 33.5 
Q 16.453125 35.6875 11.515625 40.375 
Q 6.59375 45.0625 6.59375 53.421875 
Q 6.59375 63.09375 13.40625 68.65625 
Q 20.21875 74.21875 32.171875 74.21875 
Q 37.3125 74.21875 42.625 73.28125 
Q 47.953125 72.359375 53.515625 70.515625 
z
" id="DejaVuSans-83"/>
      </defs>
      <g transform="translate(72.009375 235.285606)scale(0.1 -0.1)">
       <use xlink:href="#DejaVuSans-32"/>
       <use x="31.787109" xlink:href="#DejaVuSans-103"/>
       <use x="95.263672" xlink:href="#DejaVuSans-95"/>
       <use x="145.263672" xlink:href="#DejaVuSans-95"/>
       <use x="195.263672" xlink:href="#DejaVuSans-83"/>
       <use x="258.740234" xlink:href="#DejaVuSans-101"/>
       <use x="320.263672" xlink:href="#DejaVuSans-114"/>
       <use x="361.361328" xlink:href="#DejaVuSans-114"/>
       <use x="402.474609" xlink:href="#DejaVuSans-97"/>
       <use x="463.753906" xlink:href="#DejaVuSans-116"/>
       <use x="502.962891" xlink:href="#DejaVuSans-105"/>
       <use x="530.746094" xlink:href="#DejaVuSans-97"/>
      </g>
     </g>
    </g>
    <g id="ytick_9">
     <g id="line2d_14">
      <g>
       <use style="stroke:#000000;stroke-width:0.8;" x="138.2125" xlink:href="#m26fc21461b" y="224.912474"/>
      </g>
     </g>
     <g id="text_15">
      <!--  f__Aeromonadaceae -->
      <defs>
       <path d="M 34.1875 63.1875 
L 20.796875 26.90625 
L 47.609375 26.90625 
z
M 28.609375 72.90625 
L 39.796875 72.90625 
L 67.578125 0 
L 57.328125 0 
L 50.6875 18.703125 
L 17.828125 18.703125 
L 11.1875 0 
L 0.78125 0 
z
" id="DejaVuSans-65"/>
      </defs>
      <g transform="translate(26.560937 228.711693)scale(0.1 -0.1)">
       <use xlink:href="#DejaVuSans-32"/>
       <use x="31.787109" xlink:href="#DejaVuSans-102"/>
       <use x="66.992188" xlink:href="#DejaVuSans-95"/>
       <use x="116.992188" xlink:href="#DejaVuSans-95"/>
       <use x="166.992188" xlink:href="#DejaVuSans-65"/>
       <use x="235.384766" xlink:href="#DejaVuSans-101"/>
       <use x="296.908203" xlink:href="#DejaVuSans-114"/>
       <use x="337.990234" xlink:href="#DejaVuSans-111"/>
       <use x="399.171875" xlink:href="#DejaVuSans-109"/>
       <use x="496.583984" xlink:href="#DejaVuSans-111"/>
       <use x="557.765625" xlink:href="#DejaVuSans-110"/>
       <use x="621.144531" xlink:href="#DejaVuSans-97"/>
       <use x="682.423828" xlink:href="#DejaVuSans-100"/>
       <use x="745.900391" xlink:href="#DejaVuSans-97"/>
       <use x="807.179688" xlink:href="#DejaVuSans-99"/>
       <use x="862.160156" xlink:href="#DejaVuSans-101"/>
       <use x="923.683594" xlink:href="#DejaVuSans-97"/>
       <use x="984.962891" xlink:href="#DejaVuSans-101"/>
      </g>
     </g>
    </g>
    <g id="ytick_10">
     <g id="line2d_15">
      <g>
       <use style="stroke:#000000;stroke-width:0.8;" x="138.2125" xlink:href="#m26fc21461b" y="218.338561"/>
      </g>
     </g>
     <g id="text_16">
      <!--  o__Entomoplasmatales -->
      <defs>
       <path d="M 9.8125 72.90625 
L 55.90625 72.90625 
L 55.90625 64.59375 
L 19.671875 64.59375 
L 19.671875 43.015625 
L 54.390625 43.015625 
L 54.390625 34.71875 
L 19.671875 34.71875 
L 19.671875 8.296875 
L 56.78125 8.296875 
L 56.78125 0 
L 9.8125 0 
z
" id="DejaVuSans-69"/>
      </defs>
      <g transform="translate(12.839062 222.13778)scale(0.1 -0.1)">
       <use xlink:href="#DejaVuSans-32"/>
       <use x="31.787109" xlink:href="#DejaVuSans-111"/>
       <use x="92.96875" xlink:href="#DejaVuSans-95"/>
       <use x="142.96875" xlink:href="#DejaVuSans-95"/>
       <use x="192.96875" xlink:href="#DejaVuSans-69"/>
       <use x="256.152344" xlink:href="#DejaVuSans-110"/>
       <use x="319.53125" xlink:href="#DejaVuSans-116"/>
       <use x="358.740234" xlink:href="#DejaVuSans-111"/>
       <use x="419.921875" xlink:href="#DejaVuSans-109"/>
       <use x="517.333984" xlink:href="#DejaVuSans-111"/>
       <use x="578.515625" xlink:href="#DejaVuSans-112"/>
       <use x="641.992188" xlink:href="#DejaVuSans-108"/>
       <use x="669.775391" xlink:href="#DejaVuSans-97"/>
       <use x="731.054688" xlink:href="#DejaVuSans-115"/>
       <use x="783.154297" xlink:href="#DejaVuSans-109"/>
       <use x="880.566406" xlink:href="#DejaVuSans-97"/>
       <use x="941.845703" xlink:href="#DejaVuSans-116"/>
       <use x="981.054688" xlink:href="#DejaVuSans-97"/>
       <use x="1042.333984" xlink:href="#DejaVuSans-108"/>
       <use x="1070.117188" xlink:href="#DejaVuSans-101"/>
       <use x="1131.640625" xlink:href="#DejaVuSans-115"/>
      </g>
     </g>
    </g>
    <g id="ytick_11">
     <g id="line2d_16">
      <g>
       <use style="stroke:#000000;stroke-width:0.8;" x="138.2125" xlink:href="#m26fc21461b" y="211.764648"/>
      </g>
     </g>
     <g id="text_17">
      <!--  f__Synergistaceae -->
      <g transform="translate(37.329688 215.563867)scale(0.1 -0.1)">
       <use xlink:href="#DejaVuSans-32"/>
       <use x="31.787109" xlink:href="#DejaVuSans-102"/>
       <use x="66.992188" xlink:href="#DejaVuSans-95"/>
       <use x="116.992188" xlink:href="#DejaVuSans-95"/>
       <use x="166.992188" xlink:href="#DejaVuSans-83"/>
       <use x="230.46875" xlink:href="#DejaVuSans-121"/>
       <use x="289.648438" xlink:href="#DejaVuSans-110"/>
       <use x="353.027344" xlink:href="#DejaVuSans-101"/>
       <use x="414.550781" xlink:href="#DejaVuSans-114"/>
       <use x="455.648438" xlink:href="#DejaVuSans-103"/>
       <use x="519.125" xlink:href="#DejaVuSans-105"/>
       <use x="546.908203" xlink:href="#DejaVuSans-115"/>
       <use x="599.007812" xlink:href="#DejaVuSans-116"/>
       <use x="638.216797" xlink:href="#DejaVuSans-97"/>
       <use x="699.496094" xlink:href="#DejaVuSans-99"/>
       <use x="754.476562" xlink:href="#DejaVuSans-101"/>
       <use x="816" xlink:href="#DejaVuSans-97"/>
       <use x="877.279297" xlink:href="#DejaVuSans-101"/>
      </g>
     </g>
    </g>
    <g id="ytick_12">
     <g id="line2d_17">
      <g>
       <use style="stroke:#000000;stroke-width:0.8;" x="138.2125" xlink:href="#m26fc21461b" y="205.190735"/>
      </g>
     </g>
     <g id="text_18">
      <!--  g__Dok59 -->
      <defs>
       <path d="M 9.078125 75.984375 
L 18.109375 75.984375 
L 18.109375 31.109375 
L 44.921875 54.6875 
L 56.390625 54.6875 
L 27.390625 29.109375 
L 57.625 0 
L 45.90625 0 
L 18.109375 26.703125 
L 18.109375 0 
L 9.078125 0 
z
" id="DejaVuSans-107"/>
       <path d="M 10.796875 72.90625 
L 49.515625 72.90625 
L 49.515625 64.59375 
L 19.828125 64.59375 
L 19.828125 46.734375 
Q 21.96875 47.46875 24.109375 47.828125 
Q 26.265625 48.1875 28.421875 48.1875 
Q 40.625 48.1875 47.75 41.5 
Q 54.890625 34.8125 54.890625 23.390625 
Q 54.890625 11.625 47.5625 5.09375 
Q 40.234375 -1.421875 26.90625 -1.421875 
Q 22.3125 -1.421875 17.546875 -0.640625 
Q 12.796875 0.140625 7.71875 1.703125 
L 7.71875 11.625 
Q 12.109375 9.234375 16.796875 8.0625 
Q 21.484375 6.890625 26.703125 6.890625 
Q 35.15625 6.890625 40.078125 11.328125 
Q 45.015625 15.765625 45.015625 23.390625 
Q 45.015625 31 40.078125 35.4375 
Q 35.15625 39.890625 26.703125 39.890625 
Q 22.75 39.890625 18.8125 39.015625 
Q 14.890625 38.140625 10.796875 36.28125 
z
" id="DejaVuSans-53"/>
       <path d="M 10.984375 1.515625 
L 10.984375 10.5 
Q 14.703125 8.734375 18.5 7.8125 
Q 22.3125 6.890625 25.984375 6.890625 
Q 35.75 6.890625 40.890625 13.453125 
Q 46.046875 20.015625 46.78125 33.40625 
Q 43.953125 29.203125 39.59375 26.953125 
Q 35.25 24.703125 29.984375 24.703125 
Q 19.046875 24.703125 12.671875 31.3125 
Q 6.296875 37.9375 6.296875 49.421875 
Q 6.296875 60.640625 12.9375 67.421875 
Q 19.578125 74.21875 30.609375 74.21875 
Q 43.265625 74.21875 49.921875 64.515625 
Q 56.59375 54.828125 56.59375 36.375 
Q 56.59375 19.140625 48.40625 8.859375 
Q 40.234375 -1.421875 26.421875 -1.421875 
Q 22.703125 -1.421875 18.890625 -0.6875 
Q 15.09375 0.046875 10.984375 1.515625 
z
M 30.609375 32.421875 
Q 37.25 32.421875 41.125 36.953125 
Q 45.015625 41.5 45.015625 49.421875 
Q 45.015625 57.28125 41.125 61.84375 
Q 37.25 66.40625 30.609375 66.40625 
Q 23.96875 66.40625 20.09375 61.84375 
Q 16.21875 57.28125 16.21875 49.421875 
Q 16.21875 41.5 20.09375 36.953125 
Q 23.96875 32.421875 30.609375 32.421875 
z
" id="DejaVuSans-57"/>
      </defs>
      <g transform="translate(79.351562 208.989954)scale(0.1 -0.1)">
       <use xlink:href="#DejaVuSans-32"/>
       <use x="31.787109" xlink:href="#DejaVuSans-103"/>
       <use x="95.263672" xlink:href="#DejaVuSans-95"/>
       <use x="145.263672" xlink:href="#DejaVuSans-95"/>
       <use x="195.263672" xlink:href="#DejaVuSans-68"/>
       <use x="272.265625" xlink:href="#DejaVuSans-111"/>
       <use x="333.447266" xlink:href="#DejaVuSans-107"/>
       <use x="391.357422" xlink:href="#DejaVuSans-53"/>
       <use x="454.980469" xlink:href="#DejaVuSans-57"/>
      </g>
     </g>
    </g>
    <g id="ytick_13">
     <g id="line2d_18">
      <g>
       <use style="stroke:#000000;stroke-width:0.8;" x="138.2125" xlink:href="#m26fc21461b" y="198.616822"/>
      </g>
     </g>
     <g id="text_19">
      <!--  g__Limnobacter -->
      <g transform="translate(48.979687 202.416041)scale(0.1 -0.1)">
       <use xlink:href="#DejaVuSans-32"/>
       <use x="31.787109" xlink:href="#DejaVuSans-103"/>
       <use x="95.263672" xlink:href="#DejaVuSans-95"/>
       <use x="145.263672" xlink:href="#DejaVuSans-95"/>
       <use x="195.263672" xlink:href="#DejaVuSans-76"/>
       <use x="250.976562" xlink:href="#DejaVuSans-105"/>
       <use x="278.759766" xlink:href="#DejaVuSans-109"/>
       <use x="376.171875" xlink:href="#DejaVuSans-110"/>
       <use x="439.550781" xlink:href="#DejaVuSans-111"/>
       <use x="500.732422" xlink:href="#DejaVuSans-98"/>
       <use x="564.208984" xlink:href="#DejaVuSans-97"/>
       <use x="625.488281" xlink:href="#DejaVuSans-99"/>
       <use x="680.46875" xlink:href="#DejaVuSans-116"/>
       <use x="719.677734" xlink:href="#DejaVuSans-101"/>
       <use x="781.201172" xlink:href="#DejaVuSans-114"/>
      </g>
     </g>
    </g>
    <g id="ytick_14">
     <g id="line2d_19">
      <g>
       <use style="stroke:#000000;stroke-width:0.8;" x="138.2125" xlink:href="#m26fc21461b" y="192.042909"/>
      </g>
     </g>
     <g id="text_20">
      <!--  g__Shigella -->
      <g transform="translate(72.035938 195.842128)scale(0.1 -0.1)">
       <use xlink:href="#DejaVuSans-32"/>
       <use x="31.787109" xlink:href="#DejaVuSans-103"/>
       <use x="95.263672" xlink:href="#DejaVuSans-95"/>
       <use x="145.263672" xlink:href="#DejaVuSans-95"/>
       <use x="195.263672" xlink:href="#DejaVuSans-83"/>
       <use x="258.740234" xlink:href="#DejaVuSans-104"/>
       <use x="322.119141" xlink:href="#DejaVuSans-105"/>
       <use x="349.902344" xlink:href="#DejaVuSans-103"/>
       <use x="413.378906" xlink:href="#DejaVuSans-101"/>
       <use x="474.902344" xlink:href="#DejaVuSans-108"/>
       <use x="502.685547" xlink:href="#DejaVuSans-108"/>
       <use x="530.46875" xlink:href="#DejaVuSans-97"/>
      </g>
     </g>
    </g>
    <g id="ytick_15">
     <g id="line2d_20">
      <g>
       <use style="stroke:#000000;stroke-width:0.8;" x="138.2125" xlink:href="#m26fc21461b" y="185.468996"/>
      </g>
     </g>
     <g id="text_21">
      <!--  g__Thermomonas -->
      <defs>
       <path d="M -0.296875 72.90625 
L 61.375 72.90625 
L 61.375 64.59375 
L 35.5 64.59375 
L 35.5 0 
L 25.59375 0 
L 25.59375 64.59375 
L -0.296875 64.59375 
z
" id="DejaVuSans-84"/>
      </defs>
      <g transform="translate(39.584375 189.268215)scale(0.1 -0.1)">
       <use xlink:href="#DejaVuSans-32"/>
       <use x="31.787109" xlink:href="#DejaVuSans-103"/>
       <use x="95.263672" xlink:href="#DejaVuSans-95"/>
       <use x="145.263672" xlink:href="#DejaVuSans-95"/>
       <use x="195.263672" xlink:href="#DejaVuSans-84"/>
       <use x="256.347656" xlink:href="#DejaVuSans-104"/>
       <use x="319.726562" xlink:href="#DejaVuSans-101"/>
       <use x="381.25" xlink:href="#DejaVuSans-114"/>
       <use x="422.347656" xlink:href="#DejaVuSans-109"/>
       <use x="519.759766" xlink:href="#DejaVuSans-111"/>
       <use x="580.941406" xlink:href="#DejaVuSans-109"/>
       <use x="678.353516" xlink:href="#DejaVuSans-111"/>
       <use x="739.535156" xlink:href="#DejaVuSans-110"/>
       <use x="802.914062" xlink:href="#DejaVuSans-97"/>
       <use x="864.193359" xlink:href="#DejaVuSans-115"/>
      </g>
     </g>
    </g>
    <g id="ytick_16">
     <g id="line2d_21">
      <g>
       <use style="stroke:#000000;stroke-width:0.8;" x="138.2125" xlink:href="#m26fc21461b" y="178.895083"/>
      </g>
     </g>
     <g id="text_22">
      <!--  f__0319-6G20 -->
      <defs>
       <path d="M 4.890625 31.390625 
L 31.203125 31.390625 
L 31.203125 23.390625 
L 4.890625 23.390625 
z
" id="DejaVuSans-45"/>
       <path d="M 33.015625 40.375 
Q 26.375 40.375 22.484375 35.828125 
Q 18.609375 31.296875 18.609375 23.390625 
Q 18.609375 15.53125 22.484375 10.953125 
Q 26.375 6.390625 33.015625 6.390625 
Q 39.65625 6.390625 43.53125 10.953125 
Q 47.40625 15.53125 47.40625 23.390625 
Q 47.40625 31.296875 43.53125 35.828125 
Q 39.65625 40.375 33.015625 40.375 
z
M 52.59375 71.296875 
L 52.59375 62.3125 
Q 48.875 64.0625 45.09375 64.984375 
Q 41.3125 65.921875 37.59375 65.921875 
Q 27.828125 65.921875 22.671875 59.328125 
Q 17.53125 52.734375 16.796875 39.40625 
Q 19.671875 43.65625 24.015625 45.921875 
Q 28.375 48.1875 33.59375 48.1875 
Q 44.578125 48.1875 50.953125 41.515625 
Q 57.328125 34.859375 57.328125 23.390625 
Q 57.328125 12.15625 50.6875 5.359375 
Q 44.046875 -1.421875 33.015625 -1.421875 
Q 20.359375 -1.421875 13.671875 8.265625 
Q 6.984375 17.96875 6.984375 36.375 
Q 6.984375 53.65625 15.1875 63.9375 
Q 23.390625 74.21875 37.203125 74.21875 
Q 40.921875 74.21875 44.703125 73.484375 
Q 48.484375 72.75 52.59375 71.296875 
z
" id="DejaVuSans-54"/>
       <path d="M 59.515625 10.40625 
L 59.515625 29.984375 
L 43.40625 29.984375 
L 43.40625 38.09375 
L 69.28125 38.09375 
L 69.28125 6.78125 
Q 63.578125 2.734375 56.6875 0.65625 
Q 49.8125 -1.421875 42 -1.421875 
Q 24.90625 -1.421875 15.25 8.5625 
Q 5.609375 18.5625 5.609375 36.375 
Q 5.609375 54.25 15.25 64.234375 
Q 24.90625 74.21875 42 74.21875 
Q 49.125 74.21875 55.546875 72.453125 
Q 61.96875 70.703125 67.390625 67.28125 
L 67.390625 56.78125 
Q 61.921875 61.421875 55.765625 63.765625 
Q 49.609375 66.109375 42.828125 66.109375 
Q 29.4375 66.109375 22.71875 58.640625 
Q 16.015625 51.171875 16.015625 36.375 
Q 16.015625 21.625 22.71875 14.15625 
Q 29.4375 6.6875 42.828125 6.6875 
Q 48.046875 6.6875 52.140625 7.59375 
Q 56.25 8.5 59.515625 10.40625 
z
" id="DejaVuSans-71"/>
      </defs>
      <g transform="translate(58.620312 182.694302)scale(0.1 -0.1)">
       <use xlink:href="#DejaVuSans-32"/>
       <use x="31.787109" xlink:href="#DejaVuSans-102"/>
       <use x="66.992188" xlink:href="#DejaVuSans-95"/>
       <use x="116.992188" xlink:href="#DejaVuSans-95"/>
       <use x="166.992188" xlink:href="#DejaVuSans-48"/>
       <use x="230.615234" xlink:href="#DejaVuSans-51"/>
       <use x="294.238281" xlink:href="#DejaVuSans-49"/>
       <use x="357.861328" xlink:href="#DejaVuSans-57"/>
       <use x="421.484375" xlink:href="#DejaVuSans-45"/>
       <use x="457.568359" xlink:href="#DejaVuSans-54"/>
       <use x="521.191406" xlink:href="#DejaVuSans-71"/>
       <use x="598.681641" xlink:href="#DejaVuSans-50"/>
       <use x="662.304688" xlink:href="#DejaVuSans-48"/>
      </g>
     </g>
    </g>
    <g id="ytick_17">
     <g id="line2d_22">
      <g>
       <use style="stroke:#000000;stroke-width:0.8;" x="138.2125" xlink:href="#m26fc21461b" y="172.32117"/>
      </g>
     </g>
     <g id="text_23">
      <!--  f__Anaeroplasmataceae -->
      <g transform="translate(8.514062 176.120389)scale(0.1 -0.1)">
       <use xlink:href="#DejaVuSans-32"/>
       <use x="31.787109" xlink:href="#DejaVuSans-102"/>
       <use x="66.992188" xlink:href="#DejaVuSans-95"/>
       <use x="116.992188" xlink:href="#DejaVuSans-95"/>
       <use x="166.992188" xlink:href="#DejaVuSans-65"/>
       <use x="235.400391" xlink:href="#DejaVuSans-110"/>
       <use x="298.779297" xlink:href="#DejaVuSans-97"/>
       <use x="360.058594" xlink:href="#DejaVuSans-101"/>
       <use x="421.582031" xlink:href="#DejaVuSans-114"/>
       <use x="462.664062" xlink:href="#DejaVuSans-111"/>
       <use x="523.845703" xlink:href="#DejaVuSans-112"/>
       <use x="587.322266" xlink:href="#DejaVuSans-108"/>
       <use x="615.105469" xlink:href="#DejaVuSans-97"/>
       <use x="676.384766" xlink:href="#DejaVuSans-115"/>
       <use x="728.484375" xlink:href="#DejaVuSans-109"/>
       <use x="825.896484" xlink:href="#DejaVuSans-97"/>
       <use x="887.175781" xlink:href="#DejaVuSans-116"/>
       <use x="926.384766" xlink:href="#DejaVuSans-97"/>
       <use x="987.664062" xlink:href="#DejaVuSans-99"/>
       <use x="1042.644531" xlink:href="#DejaVuSans-101"/>
       <use x="1104.167969" xlink:href="#DejaVuSans-97"/>
       <use x="1165.447266" xlink:href="#DejaVuSans-101"/>
      </g>
     </g>
    </g>
    <g id="ytick_18">
     <g id="line2d_23">
      <g>
       <use style="stroke:#000000;stroke-width:0.8;" x="138.2125" xlink:href="#m26fc21461b" y="165.747257"/>
      </g>
     </g>
     <g id="text_24">
      <!--  f__Rhodocyclaceae -->
      <defs>
       <path d="M 44.390625 34.1875 
Q 47.5625 33.109375 50.5625 29.59375 
Q 53.5625 26.078125 56.59375 19.921875 
L 66.609375 0 
L 56 0 
L 46.6875 18.703125 
Q 43.0625 26.03125 39.671875 28.421875 
Q 36.28125 30.8125 30.421875 30.8125 
L 19.671875 30.8125 
L 19.671875 0 
L 9.8125 0 
L 9.8125 72.90625 
L 32.078125 72.90625 
Q 44.578125 72.90625 50.734375 67.671875 
Q 56.890625 62.453125 56.890625 51.90625 
Q 56.890625 45.015625 53.6875 40.46875 
Q 50.484375 35.9375 44.390625 34.1875 
z
M 19.671875 64.796875 
L 19.671875 38.921875 
L 32.078125 38.921875 
Q 39.203125 38.921875 42.84375 42.21875 
Q 46.484375 45.515625 46.484375 51.90625 
Q 46.484375 58.296875 42.84375 61.546875 
Q 39.203125 64.796875 32.078125 64.796875 
z
" id="DejaVuSans-82"/>
      </defs>
      <g transform="translate(32.8875 169.546476)scale(0.1 -0.1)">
       <use xlink:href="#DejaVuSans-32"/>
       <use x="31.787109" xlink:href="#DejaVuSans-102"/>
       <use x="66.992188" xlink:href="#DejaVuSans-95"/>
       <use x="116.992188" xlink:href="#DejaVuSans-95"/>
       <use x="166.992188" xlink:href="#DejaVuSans-82"/>
       <use x="236.474609" xlink:href="#DejaVuSans-104"/>
       <use x="299.853516" xlink:href="#DejaVuSans-111"/>
       <use x="361.035156" xlink:href="#DejaVuSans-100"/>
       <use x="424.511719" xlink:href="#DejaVuSans-111"/>
       <use x="485.693359" xlink:href="#DejaVuSans-99"/>
       <use x="540.673828" xlink:href="#DejaVuSans-121"/>
       <use x="599.853516" xlink:href="#DejaVuSans-99"/>
       <use x="654.833984" xlink:href="#DejaVuSans-108"/>
       <use x="682.617188" xlink:href="#DejaVuSans-97"/>
       <use x="743.896484" xlink:href="#DejaVuSans-99"/>
       <use x="798.876953" xlink:href="#DejaVuSans-101"/>
       <use x="860.400391" xlink:href="#DejaVuSans-97"/>
       <use x="921.679688" xlink:href="#DejaVuSans-101"/>
      </g>
     </g>
    </g>
    <g id="ytick_19">
     <g id="line2d_24">
      <g>
       <use style="stroke:#000000;stroke-width:0.8;" x="138.2125" xlink:href="#m26fc21461b" y="159.173344"/>
      </g>
     </g>
     <g id="text_25">
      <!--  g__Ureaplasma -->
      <defs>
       <path d="M 8.6875 72.90625 
L 18.609375 72.90625 
L 18.609375 28.609375 
Q 18.609375 16.890625 22.84375 11.734375 
Q 27.09375 6.59375 36.625 6.59375 
Q 46.09375 6.59375 50.34375 11.734375 
Q 54.59375 16.890625 54.59375 28.609375 
L 54.59375 72.90625 
L 64.5 72.90625 
L 64.5 27.390625 
Q 64.5 13.140625 57.4375 5.859375 
Q 50.390625 -1.421875 36.625 -1.421875 
Q 22.796875 -1.421875 15.734375 5.859375 
Q 8.6875 13.140625 8.6875 27.390625 
z
" id="DejaVuSans-85"/>
      </defs>
      <g transform="translate(51.645313 162.972562)scale(0.1 -0.1)">
       <use xlink:href="#DejaVuSans-32"/>
       <use x="31.787109" xlink:href="#DejaVuSans-103"/>
       <use x="95.263672" xlink:href="#DejaVuSans-95"/>
       <use x="145.263672" xlink:href="#DejaVuSans-95"/>
       <use x="195.263672" xlink:href="#DejaVuSans-85"/>
       <use x="268.457031" xlink:href="#DejaVuSans-114"/>
       <use x="309.539062" xlink:href="#DejaVuSans-101"/>
       <use x="371.0625" xlink:href="#DejaVuSans-97"/>
       <use x="432.341797" xlink:href="#DejaVuSans-112"/>
       <use x="495.818359" xlink:href="#DejaVuSans-108"/>
       <use x="523.601562" xlink:href="#DejaVuSans-97"/>
       <use x="584.880859" xlink:href="#DejaVuSans-115"/>
       <use x="636.980469" xlink:href="#DejaVuSans-109"/>
       <use x="734.392578" xlink:href="#DejaVuSans-97"/>
      </g>
     </g>
    </g>
    <g id="ytick_20">
     <g id="line2d_25">
      <g>
       <use style="stroke:#000000;stroke-width:0.8;" x="138.2125" xlink:href="#m26fc21461b" y="152.599431"/>
      </g>
     </g>
     <g id="text_26">
      <!--  g__Yersinia -->
      <defs>
       <path d="M -0.203125 72.90625 
L 10.40625 72.90625 
L 30.609375 42.921875 
L 50.6875 72.90625 
L 61.28125 72.90625 
L 35.5 34.71875 
L 35.5 0 
L 25.59375 0 
L 25.59375 34.71875 
z
" id="DejaVuSans-89"/>
      </defs>
      <g transform="translate(72.103125 156.398649)scale(0.1 -0.1)">
       <use xlink:href="#DejaVuSans-32"/>
       <use x="31.787109" xlink:href="#DejaVuSans-103"/>
       <use x="95.263672" xlink:href="#DejaVuSans-95"/>
       <use x="145.263672" xlink:href="#DejaVuSans-95"/>
       <use x="195.263672" xlink:href="#DejaVuSans-89"/>
       <use x="256.144531" xlink:href="#DejaVuSans-101"/>
       <use x="317.667969" xlink:href="#DejaVuSans-114"/>
       <use x="358.78125" xlink:href="#DejaVuSans-115"/>
       <use x="410.880859" xlink:href="#DejaVuSans-105"/>
       <use x="438.664062" xlink:href="#DejaVuSans-110"/>
       <use x="502.042969" xlink:href="#DejaVuSans-105"/>
       <use x="529.826172" xlink:href="#DejaVuSans-97"/>
      </g>
     </g>
    </g>
    <g id="ytick_21">
     <g id="line2d_26">
      <g>
       <use style="stroke:#000000;stroke-width:0.8;" x="138.2125" xlink:href="#m26fc21461b" y="146.025518"/>
      </g>
     </g>
     <g id="text_27">
      <!--  g__Rubrivivax -->
      <g transform="translate(58.50625 149.824736)scale(0.1 -0.1)">
       <use xlink:href="#DejaVuSans-32"/>
       <use x="31.787109" xlink:href="#DejaVuSans-103"/>
       <use x="95.263672" xlink:href="#DejaVuSans-95"/>
       <use x="145.263672" xlink:href="#DejaVuSans-95"/>
       <use x="195.263672" xlink:href="#DejaVuSans-82"/>
       <use x="264.683594" xlink:href="#DejaVuSans-117"/>
       <use x="328.0625" xlink:href="#DejaVuSans-98"/>
       <use x="391.539062" xlink:href="#DejaVuSans-114"/>
       <use x="432.652344" xlink:href="#DejaVuSans-105"/>
       <use x="460.435547" xlink:href="#DejaVuSans-118"/>
       <use x="519.615234" xlink:href="#DejaVuSans-105"/>
       <use x="547.398438" xlink:href="#DejaVuSans-118"/>
       <use x="606.578125" xlink:href="#DejaVuSans-97"/>
       <use x="667.857422" xlink:href="#DejaVuSans-120"/>
      </g>
     </g>
    </g>
    <g id="ytick_22">
     <g id="line2d_27">
      <g>
       <use style="stroke:#000000;stroke-width:0.8;" x="138.2125" xlink:href="#m26fc21461b" y="139.451605"/>
      </g>
     </g>
     <g id="text_28">
      <!--  g__Pseudoxanthomonas -->
      <defs>
       <path d="M 19.671875 64.796875 
L 19.671875 37.40625 
L 32.078125 37.40625 
Q 38.96875 37.40625 42.71875 40.96875 
Q 46.484375 44.53125 46.484375 51.125 
Q 46.484375 57.671875 42.71875 61.234375 
Q 38.96875 64.796875 32.078125 64.796875 
z
M 9.8125 72.90625 
L 32.078125 72.90625 
Q 44.34375 72.90625 50.609375 67.359375 
Q 56.890625 61.8125 56.890625 51.125 
Q 56.890625 40.328125 50.609375 34.8125 
Q 44.34375 29.296875 32.078125 29.296875 
L 19.671875 29.296875 
L 19.671875 0 
L 9.8125 0 
z
" id="DejaVuSans-80"/>
      </defs>
      <g transform="translate(7.2 143.250823)scale(0.1 -0.1)">
       <use xlink:href="#DejaVuSans-32"/>
       <use x="31.787109" xlink:href="#DejaVuSans-103"/>
       <use x="95.263672" xlink:href="#DejaVuSans-95"/>
       <use x="145.263672" xlink:href="#DejaVuSans-95"/>
       <use x="195.263672" xlink:href="#DejaVuSans-80"/>
       <use x="255.550781" xlink:href="#DejaVuSans-115"/>
       <use x="307.650391" xlink:href="#DejaVuSans-101"/>
       <use x="369.173828" xlink:href="#DejaVuSans-117"/>
       <use x="432.552734" xlink:href="#DejaVuSans-100"/>
       <use x="496.029297" xlink:href="#DejaVuSans-111"/>
       <use x="557.164062" xlink:href="#DejaVuSans-120"/>
       <use x="616.34375" xlink:href="#DejaVuSans-97"/>
       <use x="677.623047" xlink:href="#DejaVuSans-110"/>
       <use x="741.001953" xlink:href="#DejaVuSans-116"/>
       <use x="780.210938" xlink:href="#DejaVuSans-104"/>
       <use x="843.589844" xlink:href="#DejaVuSans-111"/>
       <use x="904.771484" xlink:href="#DejaVuSans-109"/>
       <use x="1002.183594" xlink:href="#DejaVuSans-111"/>
       <use x="1063.365234" xlink:href="#DejaVuSans-110"/>
       <use x="1126.744141" xlink:href="#DejaVuSans-97"/>
       <use x="1188.023438" xlink:href="#DejaVuSans-115"/>
      </g>
     </g>
    </g>
    <g id="ytick_23">
     <g id="line2d_28">
      <g>
       <use style="stroke:#000000;stroke-width:0.8;" x="138.2125" xlink:href="#m26fc21461b" y="132.877692"/>
      </g>
     </g>
     <g id="text_29">
      <!--  f__Mycoplasmataceae -->
      <g transform="translate(18.035938 136.67691)scale(0.1 -0.1)">
       <use xlink:href="#DejaVuSans-32"/>
       <use x="31.787109" xlink:href="#DejaVuSans-102"/>
       <use x="66.992188" xlink:href="#DejaVuSans-95"/>
       <use x="116.992188" xlink:href="#DejaVuSans-95"/>
       <use x="166.992188" xlink:href="#DejaVuSans-77"/>
       <use x="253.271484" xlink:href="#DejaVuSans-121"/>
       <use x="312.451172" xlink:href="#DejaVuSans-99"/>
       <use x="367.431641" xlink:href="#DejaVuSans-111"/>
       <use x="428.613281" xlink:href="#DejaVuSans-112"/>
       <use x="492.089844" xlink:href="#DejaVuSans-108"/>
       <use x="519.873047" xlink:href="#DejaVuSans-97"/>
       <use x="581.152344" xlink:href="#DejaVuSans-115"/>
       <use x="633.251953" xlink:href="#DejaVuSans-109"/>
       <use x="730.664062" xlink:href="#DejaVuSans-97"/>
       <use x="791.943359" xlink:href="#DejaVuSans-116"/>
       <use x="831.152344" xlink:href="#DejaVuSans-97"/>
       <use x="892.431641" xlink:href="#DejaVuSans-99"/>
       <use x="947.412109" xlink:href="#DejaVuSans-101"/>
       <use x="1008.935547" xlink:href="#DejaVuSans-97"/>
       <use x="1070.214844" xlink:href="#DejaVuSans-101"/>
      </g>
     </g>
    </g>
    <g id="ytick_24">
     <g id="line2d_29">
      <g>
       <use style="stroke:#000000;stroke-width:0.8;" x="138.2125" xlink:href="#m26fc21461b" y="126.303779"/>
      </g>
     </g>
     <g id="text_30">
      <!--  g__Vibrio -->
      <defs>
       <path d="M 28.609375 0 
L 0.78125 72.90625 
L 11.078125 72.90625 
L 34.1875 11.53125 
L 57.328125 72.90625 
L 67.578125 72.90625 
L 39.796875 0 
z
" id="DejaVuSans-86"/>
      </defs>
      <g transform="translate(82.714063 130.102997)scale(0.1 -0.1)">
       <use xlink:href="#DejaVuSans-32"/>
       <use x="31.787109" xlink:href="#DejaVuSans-103"/>
       <use x="95.263672" xlink:href="#DejaVuSans-95"/>
       <use x="145.263672" xlink:href="#DejaVuSans-95"/>
       <use x="195.263672" xlink:href="#DejaVuSans-86"/>
       <use x="263.640625" xlink:href="#DejaVuSans-105"/>
       <use x="291.423828" xlink:href="#DejaVuSans-98"/>
       <use x="354.900391" xlink:href="#DejaVuSans-114"/>
       <use x="396.013672" xlink:href="#DejaVuSans-105"/>
       <use x="423.796875" xlink:href="#DejaVuSans-111"/>
      </g>
     </g>
    </g>
    <g id="ytick_25">
     <g id="line2d_30">
      <g>
       <use style="stroke:#000000;stroke-width:0.8;" x="138.2125" xlink:href="#m26fc21461b" y="119.729865"/>
      </g>
     </g>
     <g id="text_31">
      <!--  g__Ralstonia -->
      <g transform="translate(65.342188 123.529084)scale(0.1 -0.1)">
       <use xlink:href="#DejaVuSans-32"/>
       <use x="31.787109" xlink:href="#DejaVuSans-103"/>
       <use x="95.263672" xlink:href="#DejaVuSans-95"/>
       <use x="145.263672" xlink:href="#DejaVuSans-95"/>
       <use x="195.263672" xlink:href="#DejaVuSans-82"/>
       <use x="264.714844" xlink:href="#DejaVuSans-97"/>
       <use x="325.994141" xlink:href="#DejaVuSans-108"/>
       <use x="353.777344" xlink:href="#DejaVuSans-115"/>
       <use x="405.876953" xlink:href="#DejaVuSans-116"/>
       <use x="445.085938" xlink:href="#DejaVuSans-111"/>
       <use x="506.267578" xlink:href="#DejaVuSans-110"/>
       <use x="569.646484" xlink:href="#DejaVuSans-105"/>
       <use x="597.429688" xlink:href="#DejaVuSans-97"/>
      </g>
     </g>
    </g>
    <g id="ytick_26">
     <g id="line2d_31">
      <g>
       <use style="stroke:#000000;stroke-width:0.8;" x="138.2125" xlink:href="#m26fc21461b" y="113.155952"/>
      </g>
     </g>
     <g id="text_32">
      <!--  g__Methylibium -->
      <g transform="translate(49.967187 116.955171)scale(0.1 -0.1)">
       <use xlink:href="#DejaVuSans-32"/>
       <use x="31.787109" xlink:href="#DejaVuSans-103"/>
       <use x="95.263672" xlink:href="#DejaVuSans-95"/>
       <use x="145.263672" xlink:href="#DejaVuSans-95"/>
       <use x="195.263672" xlink:href="#DejaVuSans-77"/>
       <use x="281.542969" xlink:href="#DejaVuSans-101"/>
       <use x="343.066406" xlink:href="#DejaVuSans-116"/>
       <use x="382.275391" xlink:href="#DejaVuSans-104"/>
       <use x="445.654297" xlink:href="#DejaVuSans-121"/>
       <use x="504.833984" xlink:href="#DejaVuSans-108"/>
       <use x="532.617188" xlink:href="#DejaVuSans-105"/>
       <use x="560.400391" xlink:href="#DejaVuSans-98"/>
       <use x="623.876953" xlink:href="#DejaVuSans-105"/>
       <use x="651.660156" xlink:href="#DejaVuSans-117"/>
       <use x="715.039062" xlink:href="#DejaVuSans-109"/>
      </g>
     </g>
    </g>
    <g id="ytick_27">
     <g id="line2d_32">
      <g>
       <use style="stroke:#000000;stroke-width:0.8;" x="138.2125" xlink:href="#m26fc21461b" y="106.582039"/>
      </g>
     </g>
     <g id="text_33">
      <!--  g__Marinomonas -->
      <g transform="translate(44.05 110.381258)scale(0.1 -0.1)">
       <use xlink:href="#DejaVuSans-32"/>
       <use x="31.787109" xlink:href="#DejaVuSans-103"/>
       <use x="95.263672" xlink:href="#DejaVuSans-95"/>
       <use x="145.263672" xlink:href="#DejaVuSans-95"/>
       <use x="195.263672" xlink:href="#DejaVuSans-77"/>
       <use x="281.542969" xlink:href="#DejaVuSans-97"/>
       <use x="342.822266" xlink:href="#DejaVuSans-114"/>
       <use x="383.935547" xlink:href="#DejaVuSans-105"/>
       <use x="411.71875" xlink:href="#DejaVuSans-110"/>
       <use x="475.097656" xlink:href="#DejaVuSans-111"/>
       <use x="536.279297" xlink:href="#DejaVuSans-109"/>
       <use x="633.691406" xlink:href="#DejaVuSans-111"/>
       <use x="694.873047" xlink:href="#DejaVuSans-110"/>
       <use x="758.251953" xlink:href="#DejaVuSans-97"/>
       <use x="819.53125" xlink:href="#DejaVuSans-115"/>
      </g>
     </g>
    </g>
    <g id="ytick_28">
     <g id="line2d_33">
      <g>
       <use style="stroke:#000000;stroke-width:0.8;" x="138.2125" xlink:href="#m26fc21461b" y="100.008126"/>
      </g>
     </g>
     <g id="text_34">
      <!--  f__Oxalobacteraceae -->
      <g transform="translate(23.478125 103.807345)scale(0.1 -0.1)">
       <use xlink:href="#DejaVuSans-32"/>
       <use x="31.787109" xlink:href="#DejaVuSans-102"/>
       <use x="66.992188" xlink:href="#DejaVuSans-95"/>
       <use x="116.992188" xlink:href="#DejaVuSans-95"/>
       <use x="166.992188" xlink:href="#DejaVuSans-79"/>
       <use x="245.703125" xlink:href="#DejaVuSans-120"/>
       <use x="304.882812" xlink:href="#DejaVuSans-97"/>
       <use x="366.162109" xlink:href="#DejaVuSans-108"/>
       <use x="393.945312" xlink:href="#DejaVuSans-111"/>
       <use x="455.126953" xlink:href="#DejaVuSans-98"/>
       <use x="518.603516" xlink:href="#DejaVuSans-97"/>
       <use x="579.882812" xlink:href="#DejaVuSans-99"/>
       <use x="634.863281" xlink:href="#DejaVuSans-116"/>
       <use x="674.072266" xlink:href="#DejaVuSans-101"/>
       <use x="735.595703" xlink:href="#DejaVuSans-114"/>
       <use x="776.708984" xlink:href="#DejaVuSans-97"/>
       <use x="837.988281" xlink:href="#DejaVuSans-99"/>
       <use x="892.96875" xlink:href="#DejaVuSans-101"/>
       <use x="954.492188" xlink:href="#DejaVuSans-97"/>
       <use x="1015.771484" xlink:href="#DejaVuSans-101"/>
      </g>
     </g>
    </g>
    <g id="ytick_29">
     <g id="line2d_34">
      <g>
       <use style="stroke:#000000;stroke-width:0.8;" x="138.2125" xlink:href="#m26fc21461b" y="93.434213"/>
      </g>
     </g>
     <g id="text_35">
      <!--  g__Acholeplasma -->
      <g transform="translate(41.628125 97.233432)scale(0.1 -0.1)">
       <use xlink:href="#DejaVuSans-32"/>
       <use x="31.787109" xlink:href="#DejaVuSans-103"/>
       <use x="95.263672" xlink:href="#DejaVuSans-95"/>
       <use x="145.263672" xlink:href="#DejaVuSans-95"/>
       <use x="195.263672" xlink:href="#DejaVuSans-65"/>
       <use x="263.65625" xlink:href="#DejaVuSans-99"/>
       <use x="318.636719" xlink:href="#DejaVuSans-104"/>
       <use x="382.015625" xlink:href="#DejaVuSans-111"/>
       <use x="443.197266" xlink:href="#DejaVuSans-108"/>
       <use x="470.980469" xlink:href="#DejaVuSans-101"/>
       <use x="532.503906" xlink:href="#DejaVuSans-112"/>
       <use x="595.980469" xlink:href="#DejaVuSans-108"/>
       <use x="623.763672" xlink:href="#DejaVuSans-97"/>
       <use x="685.042969" xlink:href="#DejaVuSans-115"/>
       <use x="737.142578" xlink:href="#DejaVuSans-109"/>
       <use x="834.554688" xlink:href="#DejaVuSans-97"/>
      </g>
     </g>
    </g>
    <g id="ytick_30">
     <g id="line2d_35">
      <g>
       <use style="stroke:#000000;stroke-width:0.8;" x="138.2125" xlink:href="#m26fc21461b" y="86.8603"/>
      </g>
     </g>
     <g id="text_36">
      <!--  g__Granulicatella -->
      <g transform="translate(42.082813 90.659519)scale(0.1 -0.1)">
       <use xlink:href="#DejaVuSans-32"/>
       <use x="31.787109" xlink:href="#DejaVuSans-103"/>
       <use x="95.263672" xlink:href="#DejaVuSans-95"/>
       <use x="145.263672" xlink:href="#DejaVuSans-95"/>
       <use x="195.263672" xlink:href="#DejaVuSans-71"/>
       <use x="272.753906" xlink:href="#DejaVuSans-114"/>
       <use x="313.867188" xlink:href="#DejaVuSans-97"/>
       <use x="375.146484" xlink:href="#DejaVuSans-110"/>
       <use x="438.525391" xlink:href="#DejaVuSans-117"/>
       <use x="501.904297" xlink:href="#DejaVuSans-108"/>
       <use x="529.6875" xlink:href="#DejaVuSans-105"/>
       <use x="557.470703" xlink:href="#DejaVuSans-99"/>
       <use x="612.451172" xlink:href="#DejaVuSans-97"/>
       <use x="673.730469" xlink:href="#DejaVuSans-116"/>
       <use x="712.939453" xlink:href="#DejaVuSans-101"/>
       <use x="774.462891" xlink:href="#DejaVuSans-108"/>
       <use x="802.246094" xlink:href="#DejaVuSans-108"/>
       <use x="830.029297" xlink:href="#DejaVuSans-97"/>
      </g>
     </g>
    </g>
    <g id="ytick_31">
     <g id="line2d_36">
      <g>
       <use style="stroke:#000000;stroke-width:0.8;" x="138.2125" xlink:href="#m26fc21461b" y="80.286387"/>
      </g>
     </g>
     <g id="text_37">
      <!--  f__Enterobacteriaceae -->
      <g transform="translate(16.559375 84.085606)scale(0.1 -0.1)">
       <use xlink:href="#DejaVuSans-32"/>
       <use x="31.787109" xlink:href="#DejaVuSans-102"/>
       <use x="66.992188" xlink:href="#DejaVuSans-95"/>
       <use x="116.992188" xlink:href="#DejaVuSans-95"/>
       <use x="166.992188" xlink:href="#DejaVuSans-69"/>
       <use x="230.175781" xlink:href="#DejaVuSans-110"/>
       <use x="293.554688" xlink:href="#DejaVuSans-116"/>
       <use x="332.763672" xlink:href="#DejaVuSans-101"/>
       <use x="394.287109" xlink:href="#DejaVuSans-114"/>
       <use x="435.369141" xlink:href="#DejaVuSans-111"/>
       <use x="496.550781" xlink:href="#DejaVuSans-98"/>
       <use x="560.027344" xlink:href="#DejaVuSans-97"/>
       <use x="621.306641" xlink:href="#DejaVuSans-99"/>
       <use x="676.287109" xlink:href="#DejaVuSans-116"/>
       <use x="715.496094" xlink:href="#DejaVuSans-101"/>
       <use x="777.019531" xlink:href="#DejaVuSans-114"/>
       <use x="818.132812" xlink:href="#DejaVuSans-105"/>
       <use x="845.916016" xlink:href="#DejaVuSans-97"/>
       <use x="907.195312" xlink:href="#DejaVuSans-99"/>
       <use x="962.175781" xlink:href="#DejaVuSans-101"/>
       <use x="1023.699219" xlink:href="#DejaVuSans-97"/>
       <use x="1084.978516" xlink:href="#DejaVuSans-101"/>
      </g>
     </g>
    </g>
    <g id="ytick_32">
     <g id="line2d_37">
      <g>
       <use style="stroke:#000000;stroke-width:0.8;" x="138.2125" xlink:href="#m26fc21461b" y="73.712474"/>
      </g>
     </g>
     <g id="text_38">
      <!--  g__Mogibacterium -->
      <g transform="translate(36.796875 77.511693)scale(0.1 -0.1)">
       <use xlink:href="#DejaVuSans-32"/>
       <use x="31.787109" xlink:href="#DejaVuSans-103"/>
       <use x="95.263672" xlink:href="#DejaVuSans-95"/>
       <use x="145.263672" xlink:href="#DejaVuSans-95"/>
       <use x="195.263672" xlink:href="#DejaVuSans-77"/>
       <use x="281.542969" xlink:href="#DejaVuSans-111"/>
       <use x="342.724609" xlink:href="#DejaVuSans-103"/>
       <use x="406.201172" xlink:href="#DejaVuSans-105"/>
       <use x="433.984375" xlink:href="#DejaVuSans-98"/>
       <use x="497.460938" xlink:href="#DejaVuSans-97"/>
       <use x="558.740234" xlink:href="#DejaVuSans-99"/>
       <use x="613.720703" xlink:href="#DejaVuSans-116"/>
       <use x="652.929688" xlink:href="#DejaVuSans-101"/>
       <use x="714.453125" xlink:href="#DejaVuSans-114"/>
       <use x="755.566406" xlink:href="#DejaVuSans-105"/>
       <use x="783.349609" xlink:href="#DejaVuSans-117"/>
       <use x="846.728516" xlink:href="#DejaVuSans-109"/>
      </g>
     </g>
    </g>
    <g id="ytick_33">
     <g id="line2d_38">
      <g>
       <use style="stroke:#000000;stroke-width:0.8;" x="138.2125" xlink:href="#m26fc21461b" y="67.138561"/>
      </g>
     </g>
     <g id="text_39">
      <!--  g__Sharpea -->
      <g transform="translate(70.13125 70.93778)scale(0.1 -0.1)">
       <use xlink:href="#DejaVuSans-32"/>
       <use x="31.787109" xlink:href="#DejaVuSans-103"/>
       <use x="95.263672" xlink:href="#DejaVuSans-95"/>
       <use x="145.263672" xlink:href="#DejaVuSans-95"/>
       <use x="195.263672" xlink:href="#DejaVuSans-83"/>
       <use x="258.740234" xlink:href="#DejaVuSans-104"/>
       <use x="322.119141" xlink:href="#DejaVuSans-97"/>
       <use x="383.398438" xlink:href="#DejaVuSans-114"/>
       <use x="424.511719" xlink:href="#DejaVuSans-112"/>
       <use x="487.988281" xlink:href="#DejaVuSans-101"/>
       <use x="549.511719" xlink:href="#DejaVuSans-97"/>
      </g>
     </g>
    </g>
    <g id="ytick_34">
     <g id="line2d_39">
      <g>
       <use style="stroke:#000000;stroke-width:0.8;" x="138.2125" xlink:href="#m26fc21461b" y="60.564648"/>
      </g>
     </g>
     <g id="text_40">
      <!--  g__Slackia -->
      <g transform="translate(76.235938 64.363867)scale(0.1 -0.1)">
       <use xlink:href="#DejaVuSans-32"/>
       <use x="31.787109" xlink:href="#DejaVuSans-103"/>
       <use x="95.263672" xlink:href="#DejaVuSans-95"/>
       <use x="145.263672" xlink:href="#DejaVuSans-95"/>
       <use x="195.263672" xlink:href="#DejaVuSans-83"/>
       <use x="258.740234" xlink:href="#DejaVuSans-108"/>
       <use x="286.523438" xlink:href="#DejaVuSans-97"/>
       <use x="347.802734" xlink:href="#DejaVuSans-99"/>
       <use x="402.783203" xlink:href="#DejaVuSans-107"/>
       <use x="460.693359" xlink:href="#DejaVuSans-105"/>
       <use x="488.476562" xlink:href="#DejaVuSans-97"/>
      </g>
     </g>
    </g>
    <g id="ytick_35">
     <g id="line2d_40">
      <g>
       <use style="stroke:#000000;stroke-width:0.8;" x="138.2125" xlink:href="#m26fc21461b" y="53.990735"/>
      </g>
     </g>
     <g id="text_41">
      <!--  g__Tannerella -->
      <g transform="translate(58.701563 57.789954)scale(0.1 -0.1)">
       <use xlink:href="#DejaVuSans-32"/>
       <use x="31.787109" xlink:href="#DejaVuSans-103"/>
       <use x="95.263672" xlink:href="#DejaVuSans-95"/>
       <use x="145.263672" xlink:href="#DejaVuSans-95"/>
       <use x="195.263672" xlink:href="#DejaVuSans-84"/>
       <use x="256.097656" xlink:href="#DejaVuSans-97"/>
       <use x="317.376953" xlink:href="#DejaVuSans-110"/>
       <use x="380.755859" xlink:href="#DejaVuSans-110"/>
       <use x="444.134766" xlink:href="#DejaVuSans-101"/>
       <use x="505.658203" xlink:href="#DejaVuSans-114"/>
       <use x="546.740234" xlink:href="#DejaVuSans-101"/>
       <use x="608.263672" xlink:href="#DejaVuSans-108"/>
       <use x="636.046875" xlink:href="#DejaVuSans-108"/>
       <use x="663.830078" xlink:href="#DejaVuSans-97"/>
      </g>
     </g>
    </g>
    <g id="ytick_36">
     <g id="line2d_41">
      <g>
       <use style="stroke:#000000;stroke-width:0.8;" x="138.2125" xlink:href="#m26fc21461b" y="47.416822"/>
      </g>
     </g>
     <g id="text_42">
      <!--  g__Lachnospira -->
      <g transform="translate(51.11875 51.216041)scale(0.1 -0.1)">
       <use xlink:href="#DejaVuSans-32"/>
       <use x="31.787109" xlink:href="#DejaVuSans-103"/>
       <use x="95.263672" xlink:href="#DejaVuSans-95"/>
       <use x="145.263672" xlink:href="#DejaVuSans-95"/>
       <use x="195.263672" xlink:href="#DejaVuSans-76"/>
       <use x="250.976562" xlink:href="#DejaVuSans-97"/>
       <use x="312.255859" xlink:href="#DejaVuSans-99"/>
       <use x="367.236328" xlink:href="#DejaVuSans-104"/>
       <use x="430.615234" xlink:href="#DejaVuSans-110"/>
       <use x="493.994141" xlink:href="#DejaVuSans-111"/>
       <use x="555.175781" xlink:href="#DejaVuSans-115"/>
       <use x="607.275391" xlink:href="#DejaVuSans-112"/>
       <use x="670.751953" xlink:href="#DejaVuSans-105"/>
       <use x="698.535156" xlink:href="#DejaVuSans-114"/>
       <use x="739.648438" xlink:href="#DejaVuSans-97"/>
      </g>
     </g>
    </g>
    <g id="ytick_37">
     <g id="line2d_42">
      <g>
       <use style="stroke:#000000;stroke-width:0.8;" x="138.2125" xlink:href="#m26fc21461b" y="40.842909"/>
      </g>
     </g>
     <g id="text_43">
      <!--  g__Butyrivibrio -->
      <g transform="translate(53.70625 44.642128)scale(0.1 -0.1)">
       <use xlink:href="#DejaVuSans-32"/>
       <use x="31.787109" xlink:href="#DejaVuSans-103"/>
       <use x="95.263672" xlink:href="#DejaVuSans-95"/>
       <use x="145.263672" xlink:href="#DejaVuSans-95"/>
       <use x="195.263672" xlink:href="#DejaVuSans-66"/>
       <use x="263.867188" xlink:href="#DejaVuSans-117"/>
       <use x="327.246094" xlink:href="#DejaVuSans-116"/>
       <use x="366.455078" xlink:href="#DejaVuSans-121"/>
       <use x="425.634766" xlink:href="#DejaVuSans-114"/>
       <use x="466.748047" xlink:href="#DejaVuSans-105"/>
       <use x="494.53125" xlink:href="#DejaVuSans-118"/>
       <use x="553.710938" xlink:href="#DejaVuSans-105"/>
       <use x="581.494141" xlink:href="#DejaVuSans-98"/>
       <use x="644.970703" xlink:href="#DejaVuSans-114"/>
       <use x="686.083984" xlink:href="#DejaVuSans-105"/>
       <use x="713.867188" xlink:href="#DejaVuSans-111"/>
      </g>
     </g>
    </g>
   </g>
   <g id="patch_40">
    <path d="M 138.2125 292.229344 
L 138.2125 26.117344 
" style="fill:none;stroke:#000000;stroke-linecap:square;stroke-linejoin:miter;stroke-width:0.8;"/>
   </g>
   <g id="patch_41">
    <path d="M 368.6125 292.229344 
L 368.6125 26.117344 
" style="fill:none;stroke:#000000;stroke-linecap:square;stroke-linejoin:miter;stroke-width:0.8;"/>
   </g>
   <g id="patch_42">
    <path d="M 138.2125 292.229344 
L 368.6125 292.229344 
" style="fill:none;stroke:#000000;stroke-linecap:square;stroke-linejoin:miter;stroke-width:0.8;"/>
   </g>
   <g id="patch_43">
    <path d="M 138.2125 26.117344 
L 368.6125 26.117344 
" style="fill:none;stroke:#000000;stroke-linecap:square;stroke-linejoin:miter;stroke-width:0.8;"/>
   </g>
   <g id="text_44">
    <!-- Two-way ANOVA - significant bacteria (p=0.6) -->
    <defs>
     <path d="M 4.203125 54.6875 
L 13.1875 54.6875 
L 24.421875 12.015625 
L 35.59375 54.6875 
L 46.1875 54.6875 
L 57.421875 12.015625 
L 68.609375 54.6875 
L 77.59375 54.6875 
L 63.28125 0 
L 52.6875 0 
L 40.921875 44.828125 
L 29.109375 0 
L 18.5 0 
z
" id="DejaVuSans-119"/>
     <path d="M 9.8125 72.90625 
L 23.09375 72.90625 
L 55.421875 11.921875 
L 55.421875 72.90625 
L 64.984375 72.90625 
L 64.984375 0 
L 51.703125 0 
L 19.390625 60.984375 
L 19.390625 0 
L 9.8125 0 
z
" id="DejaVuSans-78"/>
     <path d="M 31 75.875 
Q 24.46875 64.65625 21.28125 53.65625 
Q 18.109375 42.671875 18.109375 31.390625 
Q 18.109375 20.125 21.3125 9.0625 
Q 24.515625 -2 31 -13.1875 
L 23.1875 -13.1875 
Q 15.875 -1.703125 12.234375 9.375 
Q 8.59375 20.453125 8.59375 31.390625 
Q 8.59375 42.28125 12.203125 53.3125 
Q 15.828125 64.359375 23.1875 75.875 
z
" id="DejaVuSans-40"/>
     <path d="M 10.59375 45.40625 
L 73.1875 45.40625 
L 73.1875 37.203125 
L 10.59375 37.203125 
z
M 10.59375 25.484375 
L 73.1875 25.484375 
L 73.1875 17.1875 
L 10.59375 17.1875 
z
" id="DejaVuSans-61"/>
     <path d="M 8.015625 75.875 
L 15.828125 75.875 
Q 23.140625 64.359375 26.78125 53.3125 
Q 30.421875 42.28125 30.421875 31.390625 
Q 30.421875 20.453125 26.78125 9.375 
Q 23.140625 -1.703125 15.828125 -13.1875 
L 8.015625 -13.1875 
Q 14.5 -2 17.703125 9.0625 
Q 20.90625 20.125 20.90625 31.390625 
Q 20.90625 42.671875 17.703125 53.65625 
Q 14.5 64.65625 8.015625 75.875 
z
" id="DejaVuSans-41"/>
    </defs>
    <g transform="translate(57.308203 20.117344)scale(0.17 -0.17)">
     <use xlink:href="#DejaVuSans-84"/>
     <use x="60.833984" xlink:href="#DejaVuSans-119"/>
     <use x="142.621094" xlink:href="#DejaVuSans-111"/>
     <use x="203.818359" xlink:href="#DejaVuSans-45"/>
     <use x="239.902344" xlink:href="#DejaVuSans-119"/>
     <use x="321.689453" xlink:href="#DejaVuSans-97"/>
     <use x="382.96875" xlink:href="#DejaVuSans-121"/>
     <use x="442.148438" xlink:href="#DejaVuSans-32"/>
     <use x="473.935547" xlink:href="#DejaVuSans-65"/>
     <use x="542.34375" xlink:href="#DejaVuSans-78"/>
     <use x="617.148438" xlink:href="#DejaVuSans-79"/>
     <use x="695.84375" xlink:href="#DejaVuSans-86"/>
     <use x="764.158203" xlink:href="#DejaVuSans-65"/>
     <use x="832.566406" xlink:href="#DejaVuSans-32"/>
     <use x="864.353516" xlink:href="#DejaVuSans-45"/>
     <use x="900.4375" xlink:href="#DejaVuSans-32"/>
     <use x="932.224609" xlink:href="#DejaVuSans-115"/>
     <use x="984.324219" xlink:href="#DejaVuSans-105"/>
     <use x="1012.107422" xlink:href="#DejaVuSans-103"/>
     <use x="1075.583984" xlink:href="#DejaVuSans-110"/>
     <use x="1138.962891" xlink:href="#DejaVuSans-105"/>
     <use x="1166.746094" xlink:href="#DejaVuSans-102"/>
     <use x="1201.951172" xlink:href="#DejaVuSans-105"/>
     <use x="1229.734375" xlink:href="#DejaVuSans-99"/>
     <use x="1284.714844" xlink:href="#DejaVuSans-97"/>
     <use x="1345.994141" xlink:href="#DejaVuSans-110"/>
     <use x="1409.373047" xlink:href="#DejaVuSans-116"/>
     <use x="1448.582031" xlink:href="#DejaVuSans-32"/>
     <use x="1480.369141" xlink:href="#DejaVuSans-98"/>
     <use x="1543.845703" xlink:href="#DejaVuSans-97"/>
     <use x="1605.125" xlink:href="#DejaVuSans-99"/>
     <use x="1660.105469" xlink:href="#DejaVuSans-116"/>
     <use x="1699.314453" xlink:href="#DejaVuSans-101"/>
     <use x="1760.837891" xlink:href="#DejaVuSans-114"/>
     <use x="1801.951172" xlink:href="#DejaVuSans-105"/>
     <use x="1829.734375" xlink:href="#DejaVuSans-97"/>
     <use x="1891.013672" xlink:href="#DejaVuSans-32"/>
     <use x="1922.800781" xlink:href="#DejaVuSans-40"/>
     <use x="1961.814453" xlink:href="#DejaVuSans-112"/>
     <use x="2025.291016" xlink:href="#DejaVuSans-61"/>
     <use x="2109.080078" xlink:href="#DejaVuSans-48"/>
     <use x="2172.703125" xlink:href="#DejaVuSans-46"/>
     <use x="2204.490234" xlink:href="#DejaVuSans-54"/>
     <use x="2268.113281" xlink:href="#DejaVuSans-41"/>
    </g>
   </g>
   <g id="legend_1">
    <g id="patch_44">
     <path d="M 258.304375 286.229344 
L 360.2125 286.229344 
Q 362.6125 286.229344 362.6125 283.829344 
L 362.6125 232.188094 
Q 362.6125 229.788094 360.2125 229.788094 
L 258.304375 229.788094 
Q 255.904375 229.788094 255.904375 232.188094 
L 255.904375 283.829344 
Q 255.904375 286.229344 258.304375 286.229344 
z
" style="fill:#ffffff;opacity:0.8;stroke:#cccccc;stroke-linejoin:miter;"/>
    </g>
    <g id="patch_45">
     <path d="M 260.704375 243.706219 
L 284.704375 243.706219 
L 284.704375 235.306219 
L 260.704375 235.306219 
z
" style="fill:#0000ff;stroke:#0000ff;stroke-linejoin:miter;"/>
    </g>
    <g id="text_45">
     <!-- time -->
     <g transform="translate(294.304375 243.706219)scale(0.12 -0.12)">
      <use xlink:href="#DejaVuSans-116"/>
      <use x="39.208984" xlink:href="#DejaVuSans-105"/>
      <use x="66.992188" xlink:href="#DejaVuSans-109"/>
      <use x="164.404297" xlink:href="#DejaVuSans-101"/>
     </g>
    </g>
    <g id="patch_46">
     <path d="M 260.704375 261.319969 
L 284.704375 261.319969 
L 284.704375 252.919969 
L 260.704375 252.919969 
z
" style="fill:#008000;stroke:#008000;stroke-linejoin:miter;"/>
    </g>
    <g id="text_46">
     <!-- state -->
     <g transform="translate(294.304375 261.319969)scale(0.12 -0.12)">
      <use xlink:href="#DejaVuSans-115"/>
      <use x="52.099609" xlink:href="#DejaVuSans-116"/>
      <use x="91.308594" xlink:href="#DejaVuSans-97"/>
      <use x="152.587891" xlink:href="#DejaVuSans-116"/>
      <use x="191.796875" xlink:href="#DejaVuSans-101"/>
     </g>
    </g>
    <g id="patch_47">
     <path d="M 260.704375 278.933719 
L 284.704375 278.933719 
L 284.704375 270.533719 
L 260.704375 270.533719 
z
" style="fill:#ff0000;stroke:#ff0000;stroke-linejoin:miter;"/>
    </g>
    <g id="text_47">
     <!-- time*state -->
     <defs>
      <path d="M 47.015625 60.890625 
L 29.5 51.421875 
L 47.015625 41.890625 
L 44.1875 37.109375 
L 27.78125 47.015625 
L 27.78125 28.609375 
L 22.21875 28.609375 
L 22.21875 47.015625 
L 5.8125 37.109375 
L 2.984375 41.890625 
L 20.515625 51.421875 
L 2.984375 60.890625 
L 5.8125 65.71875 
L 22.21875 55.8125 
L 22.21875 74.21875 
L 27.78125 74.21875 
L 27.78125 55.8125 
L 44.1875 65.71875 
z
" id="DejaVuSans-42"/>
     </defs>
     <g transform="translate(294.304375 278.933719)scale(0.12 -0.12)">
      <use xlink:href="#DejaVuSans-116"/>
      <use x="39.208984" xlink:href="#DejaVuSans-105"/>
      <use x="66.992188" xlink:href="#DejaVuSans-109"/>
      <use x="164.404297" xlink:href="#DejaVuSans-101"/>
      <use x="225.927734" xlink:href="#DejaVuSans-42"/>
      <use x="275.927734" xlink:href="#DejaVuSans-115"/>
      <use x="328.027344" xlink:href="#DejaVuSans-116"/>
      <use x="367.236328" xlink:href="#DejaVuSans-97"/>
      <use x="428.515625" xlink:href="#DejaVuSans-116"/>
      <use x="467.724609" xlink:href="#DejaVuSans-101"/>
     </g>
    </g>
   </g>
  </g>
 </g>
 <defs>
  <clipPath id="pb0a92129c6">
   <rect height="266.112" width="230.4" x="138.2125" y="26.117344"/>
  </clipPath>
 </defs>
</svg>
