<?xml version="1.0" encoding="utf-8" standalone="no"?>
<!DOCTYPE svg PUBLIC "-//W3C//DTD SVG 1.1//EN"
  "http://www.w3.org/Graphics/SVG/1.1/DTD/svg11.dtd">
<!-- Created with matplotlib (https://matplotlib.org/) -->
<svg height="337.488125pt" version="1.1" viewBox="0 0 323.93625 337.488125" width="323.93625pt" xmlns="http://www.w3.org/2000/svg" xmlns:xlink="http://www.w3.org/1999/xlink">
 <defs>
  <style type="text/css">
*{stroke-linecap:butt;stroke-linejoin:round;}
  </style>
 </defs>
 <g id="figure_1">
  <g id="patch_1">
   <path d="M 0 337.488125 
L 323.93625 337.488125 
L 323.93625 0 
L 0 0 
z
" style="fill:#ffffff;"/>
  </g>
  <g id="axes_1">
   <g id="patch_2">
    <path d="M 46.768125 301.8675 
L 277.168125 301.8675 
L 277.168125 35.7555 
L 46.768125 35.7555 
z
" style="fill:#ffffff;"/>
   </g>
   <g id="patch_3">
    <path clip-path="url(#p7196d39628)" d="M 57.240852 168.8115 
L 59.149322 168.8115 
L 59.149322 153.583523 
L 57.240852 153.583523 
z
" style="fill:#008000;"/>
   </g>
   <g id="patch_4">
    <path clip-path="url(#p7196d39628)" d="M 59.626439 168.8115 
L 61.534909 168.8115 
L 61.534909 187.32528 
L 59.626439 187.32528 
z
" style="fill:#ff0000;"/>
   </g>
   <g id="patch_5">
    <path clip-path="url(#p7196d39628)" d="M 62.012026 168.8115 
L 63.920496 168.8115 
L 63.920496 183.21506 
L 62.012026 183.21506 
z
" style="fill:#ff0000;"/>
   </g>
   <g id="patch_6">
    <path clip-path="url(#p7196d39628)" d="M 64.397614 168.8115 
L 66.306083 168.8115 
L 66.306083 156.898982 
L 64.397614 156.898982 
z
" style="fill:#008000;"/>
   </g>
   <g id="patch_7">
    <path clip-path="url(#p7196d39628)" d="M 66.783201 168.8115 
L 68.69167 168.8115 
L 68.69167 162.281411 
L 66.783201 162.281411 
z
" style="fill:#008000;"/>
   </g>
   <g id="patch_8">
    <path clip-path="url(#p7196d39628)" d="M 69.168788 168.8115 
L 71.077257 168.8115 
L 71.077257 161.531133 
L 69.168788 161.531133 
z
" style="fill:#008000;"/>
   </g>
   <g id="patch_9">
    <path clip-path="url(#p7196d39628)" d="M 71.554375 168.8115 
L 73.462844 168.8115 
L 73.462844 192.600951 
L 71.554375 192.600951 
z
" style="fill:#ff0000;"/>
   </g>
   <g id="patch_10">
    <path clip-path="url(#p7196d39628)" d="M 73.939962 168.8115 
L 75.848431 168.8115 
L 75.848431 177.423388 
L 73.939962 177.423388 
z
" style="fill:#ff0000;"/>
   </g>
   <g id="patch_11">
    <path clip-path="url(#p7196d39628)" d="M 76.325549 168.8115 
L 78.234019 168.8115 
L 78.234019 168.597982 
L 76.325549 168.597982 
z
" style="fill:#008000;"/>
   </g>
   <g id="patch_12">
    <path clip-path="url(#p7196d39628)" d="M 78.711136 168.8115 
L 80.619606 168.8115 
L 80.619606 163.03169 
L 78.711136 163.03169 
z
" style="fill:#008000;"/>
   </g>
   <g id="patch_13">
    <path clip-path="url(#p7196d39628)" d="M 81.096723 168.8115 
L 83.005193 168.8115 
L 83.005193 168.277705 
L 81.096723 168.277705 
z
" style="fill:#008000;"/>
   </g>
   <g id="patch_14">
    <path clip-path="url(#p7196d39628)" d="M 83.48231 168.8115 
L 85.39078 168.8115 
L 85.39078 161.198994 
L 83.48231 161.198994 
z
" style="fill:#008000;"/>
   </g>
   <g id="patch_15">
    <path clip-path="url(#p7196d39628)" d="M 85.867897 168.8115 
L 87.776367 168.8115 
L 87.776367 163.408311 
L 85.867897 163.408311 
z
" style="fill:#008000;"/>
   </g>
   <g id="patch_16">
    <path clip-path="url(#p7196d39628)" d="M 88.253484 168.8115 
L 90.161954 168.8115 
L 90.161954 151.569931 
L 88.253484 151.569931 
z
" style="fill:#008000;"/>
   </g>
   <g id="patch_17">
    <path clip-path="url(#p7196d39628)" d="M 90.639071 168.8115 
L 92.547541 168.8115 
L 92.547541 182.639748 
L 90.639071 182.639748 
z
" style="fill:#ff0000;"/>
   </g>
   <g id="patch_18">
    <path clip-path="url(#p7196d39628)" d="M 93.024658 168.8115 
L 94.933128 168.8115 
L 94.933128 167.889221 
L 93.024658 167.889221 
z
" style="fill:#008000;"/>
   </g>
   <g id="patch_19">
    <path clip-path="url(#p7196d39628)" d="M 95.410246 168.8115 
L 97.318715 168.8115 
L 97.318715 148.192197 
L 95.410246 148.192197 
z
" style="fill:#008000;"/>
   </g>
   <g id="patch_20">
    <path clip-path="url(#p7196d39628)" d="M 97.795833 168.8115 
L 99.704302 168.8115 
L 99.704302 175.967315 
L 97.795833 175.967315 
z
" style="fill:#ff0000;"/>
   </g>
   <g id="patch_21">
    <path clip-path="url(#p7196d39628)" d="M 100.18142 168.8115 
L 102.089889 168.8115 
L 102.089889 178.321942 
L 100.18142 178.321942 
z
" style="fill:#ff0000;"/>
   </g>
   <g id="patch_22">
    <path clip-path="url(#p7196d39628)" d="M 102.567007 168.8115 
L 104.475476 168.8115 
L 104.475476 171.180955 
L 102.567007 171.180955 
z
" style="fill:#ff0000;"/>
   </g>
   <g id="patch_23">
    <path clip-path="url(#p7196d39628)" d="M 104.952594 168.8115 
L 106.861063 168.8115 
L 106.861063 154.206284 
L 104.952594 154.206284 
z
" style="fill:#008000;"/>
   </g>
   <g id="patch_24">
    <path clip-path="url(#p7196d39628)" d="M 107.338181 168.8115 
L 109.246651 168.8115 
L 109.246651 172.883167 
L 107.338181 172.883167 
z
" style="fill:#ff0000;"/>
   </g>
   <g id="patch_25">
    <path clip-path="url(#p7196d39628)" d="M 109.723768 168.8115 
L 111.632238 168.8115 
L 111.632238 175.919866 
L 109.723768 175.919866 
z
" style="fill:#ff0000;"/>
   </g>
   <g id="patch_26">
    <path clip-path="url(#p7196d39628)" d="M 112.109355 168.8115 
L 114.017825 168.8115 
L 114.017825 170.430677 
L 112.109355 170.430677 
z
" style="fill:#ff0000;"/>
   </g>
   <g id="patch_27">
    <path clip-path="url(#p7196d39628)" d="M 114.494942 168.8115 
L 116.403412 168.8115 
L 116.403412 174.781104 
L 114.494942 174.781104 
z
" style="fill:#ff0000;"/>
   </g>
   <g id="patch_28">
    <path clip-path="url(#p7196d39628)" d="M 116.880529 168.8115 
L 118.788999 168.8115 
L 118.788999 162.942724 
L 116.880529 162.942724 
z
" style="fill:#008000;"/>
   </g>
   <g id="patch_29">
    <path clip-path="url(#p7196d39628)" d="M 119.266116 168.8115 
L 121.174586 168.8115 
L 121.174586 175.285244 
L 119.266116 175.285244 
z
" style="fill:#ff0000;"/>
   </g>
   <g id="patch_30">
    <path clip-path="url(#p7196d39628)" d="M 121.651703 168.8115 
L 123.560173 168.8115 
L 123.560173 159.010436 
L 121.651703 159.010436 
z
" style="fill:#008000;"/>
   </g>
   <g id="patch_31">
    <path clip-path="url(#p7196d39628)" d="M 124.03729 168.8115 
L 125.94576 168.8115 
L 125.94576 146.890331 
L 124.03729 146.890331 
z
" style="fill:#008000;"/>
   </g>
   <g id="patch_32">
    <path clip-path="url(#p7196d39628)" d="M 126.422878 168.8115 
L 128.331347 168.8115 
L 128.331347 185.394722 
L 126.422878 185.394722 
z
" style="fill:#ff0000;"/>
   </g>
   <g id="patch_33">
    <path clip-path="url(#p7196d39628)" d="M 128.808465 168.8115 
L 130.716934 168.8115 
L 130.716934 163.215552 
L 128.808465 163.215552 
z
" style="fill:#008000;"/>
   </g>
   <g id="patch_34">
    <path clip-path="url(#p7196d39628)" d="M 131.194052 168.8115 
L 133.102521 168.8115 
L 133.102521 175.332692 
L 131.194052 175.332692 
z
" style="fill:#ff0000;"/>
   </g>
   <g id="patch_35">
    <path clip-path="url(#p7196d39628)" d="M 133.579639 168.8115 
L 135.488108 168.8115 
L 135.488108 159.443403 
L 133.579639 159.443403 
z
" style="fill:#008000;"/>
   </g>
   <g id="patch_36">
    <path clip-path="url(#p7196d39628)" d="M 135.965226 168.8115 
L 137.873696 168.8115 
L 137.873696 159.953473 
L 135.965226 159.953473 
z
" style="fill:#008000;"/>
   </g>
   <g id="patch_37">
    <path clip-path="url(#p7196d39628)" d="M 138.350813 168.8115 
L 140.259283 168.8115 
L 140.259283 159.455265 
L 138.350813 159.455265 
z
" style="fill:#008000;"/>
   </g>
   <g id="patch_38">
    <path clip-path="url(#p7196d39628)" d="M 140.7364 168.8115 
L 142.64487 168.8115 
L 142.64487 168.476396 
L 140.7364 168.476396 
z
" style="fill:#008000;"/>
   </g>
   <g id="patch_39">
    <path clip-path="url(#p7196d39628)" d="M 143.121987 168.8115 
L 145.030457 168.8115 
L 145.030457 177.49456 
L 143.121987 177.49456 
z
" style="fill:#ff0000;"/>
   </g>
   <g id="patch_40">
    <path clip-path="url(#p7196d39628)" d="M 145.507574 168.8115 
L 147.416044 168.8115 
L 147.416044 167.201219 
L 145.507574 167.201219 
z
" style="fill:#008000;"/>
   </g>
   <g id="patch_41">
    <path clip-path="url(#p7196d39628)" d="M 147.893161 168.8115 
L 149.801631 168.8115 
L 149.801631 171.705853 
L 147.893161 171.705853 
z
" style="fill:#ff0000;"/>
   </g>
   <g id="patch_42">
    <path clip-path="url(#p7196d39628)" d="M 150.278748 168.8115 
L 152.187218 168.8115 
L 152.187218 159.390023 
L 150.278748 159.390023 
z
" style="fill:#008000;"/>
   </g>
   <g id="patch_43">
    <path clip-path="url(#p7196d39628)" d="M 152.664335 168.8115 
L 154.572805 168.8115 
L 154.572805 175.392002 
L 152.664335 175.392002 
z
" style="fill:#ff0000;"/>
   </g>
   <g id="patch_44">
    <path clip-path="url(#p7196d39628)" d="M 155.049922 168.8115 
L 156.958392 168.8115 
L 156.958392 167.794325 
L 155.049922 167.794325 
z
" style="fill:#008000;"/>
   </g>
   <g id="patch_45">
    <path clip-path="url(#p7196d39628)" d="M 157.43551 168.8115 
L 159.343979 168.8115 
L 159.343979 165.478249 
L 157.43551 165.478249 
z
" style="fill:#008000;"/>
   </g>
   <g id="patch_46">
    <path clip-path="url(#p7196d39628)" d="M 159.821097 168.8115 
L 161.729566 168.8115 
L 161.729566 161.658651 
L 159.821097 161.658651 
z
" style="fill:#008000;"/>
   </g>
   <g id="patch_47">
    <path clip-path="url(#p7196d39628)" d="M 162.206684 168.8115 
L 164.115153 168.8115 
L 164.115153 173.019582 
L 162.206684 173.019582 
z
" style="fill:#ff0000;"/>
   </g>
   <g id="patch_48">
    <path clip-path="url(#p7196d39628)" d="M 164.592271 168.8115 
L 166.50074 168.8115 
L 166.50074 168.129429 
L 164.592271 168.129429 
z
" style="fill:#008000;"/>
   </g>
   <g id="patch_49">
    <path clip-path="url(#p7196d39628)" d="M 166.977858 168.8115 
L 168.886328 168.8115 
L 168.886328 160.104715 
L 166.977858 160.104715 
z
" style="fill:#008000;"/>
   </g>
   <g id="patch_50">
    <path clip-path="url(#p7196d39628)" d="M 169.363445 168.8115 
L 171.271915 168.8115 
L 171.271915 162.655068 
L 169.363445 162.655068 
z
" style="fill:#008000;"/>
   </g>
   <g id="patch_51">
    <path clip-path="url(#p7196d39628)" d="M 171.749032 168.8115 
L 173.657502 168.8115 
L 173.657502 155.457736 
L 171.749032 155.457736 
z
" style="fill:#008000;"/>
   </g>
   <g id="patch_52">
    <path clip-path="url(#p7196d39628)" d="M 174.134619 168.8115 
L 176.043089 168.8115 
L 176.043089 163.093966 
L 174.134619 163.093966 
z
" style="fill:#008000;"/>
   </g>
   <g id="patch_53">
    <path clip-path="url(#p7196d39628)" d="M 176.520206 168.8115 
L 178.428676 168.8115 
L 178.428676 178.594771 
L 176.520206 178.594771 
z
" style="fill:#ff0000;"/>
   </g>
   <g id="patch_54">
    <path clip-path="url(#p7196d39628)" d="M 178.905793 168.8115 
L 180.814263 168.8115 
L 180.814263 163.06431 
L 178.905793 163.06431 
z
" style="fill:#008000;"/>
   </g>
   <g id="patch_55">
    <path clip-path="url(#p7196d39628)" d="M 181.29138 168.8115 
L 183.19985 168.8115 
L 183.19985 152.590072 
L 181.29138 152.590072 
z
" style="fill:#008000;"/>
   </g>
   <g id="patch_56">
    <path clip-path="url(#p7196d39628)" d="M 183.676967 168.8115 
L 185.585437 168.8115 
L 185.585437 174.623931 
L 183.676967 174.623931 
z
" style="fill:#ff0000;"/>
   </g>
   <g id="patch_57">
    <path clip-path="url(#p7196d39628)" d="M 186.062554 168.8115 
L 187.971024 168.8115 
L 187.971024 174.67138 
L 186.062554 174.67138 
z
" style="fill:#ff0000;"/>
   </g>
   <g id="patch_58">
    <path clip-path="url(#p7196d39628)" d="M 188.448142 168.8115 
L 190.356611 168.8115 
L 190.356611 172.631098 
L 188.448142 172.631098 
z
" style="fill:#ff0000;"/>
   </g>
   <g id="patch_59">
    <path clip-path="url(#p7196d39628)" d="M 190.833729 168.8115 
L 192.742198 168.8115 
L 192.742198 166.747494 
L 190.833729 166.747494 
z
" style="fill:#008000;"/>
   </g>
   <g id="patch_60">
    <path clip-path="url(#p7196d39628)" d="M 193.219316 168.8115 
L 195.127785 168.8115 
L 195.127785 170.151918 
L 193.219316 170.151918 
z
" style="fill:#ff0000;"/>
   </g>
   <g id="patch_61">
    <path clip-path="url(#p7196d39628)" d="M 195.604903 168.8115 
L 197.513372 168.8115 
L 197.513372 164.383969 
L 195.604903 164.383969 
z
" style="fill:#008000;"/>
   </g>
   <g id="patch_62">
    <path clip-path="url(#p7196d39628)" d="M 197.99049 168.8115 
L 199.89896 168.8115 
L 199.89896 173.965584 
L 197.99049 173.965584 
z
" style="fill:#ff0000;"/>
   </g>
   <g id="patch_63">
    <path clip-path="url(#p7196d39628)" d="M 200.376077 168.8115 
L 202.284547 168.8115 
L 202.284547 171.693991 
L 200.376077 171.693991 
z
" style="fill:#ff0000;"/>
   </g>
   <g id="patch_64">
    <path clip-path="url(#p7196d39628)" d="M 202.761664 168.8115 
L 204.670134 168.8115 
L 204.670134 175.724141 
L 202.761664 175.724141 
z
" style="fill:#ff0000;"/>
   </g>
   <g id="patch_65">
    <path clip-path="url(#p7196d39628)" d="M 205.147251 168.8115 
L 207.055721 168.8115 
L 207.055721 172.245579 
L 205.147251 172.245579 
z
" style="fill:#ff0000;"/>
   </g>
   <g id="patch_66">
    <path clip-path="url(#p7196d39628)" d="M 207.532838 168.8115 
L 209.441308 168.8115 
L 209.441308 171.622819 
L 207.532838 171.622819 
z
" style="fill:#ff0000;"/>
   </g>
   <g id="patch_67">
    <path clip-path="url(#p7196d39628)" d="M 209.918425 168.8115 
L 211.826895 168.8115 
L 211.826895 165.937905 
L 209.918425 165.937905 
z
" style="fill:#008000;"/>
   </g>
   <g id="patch_68">
    <path clip-path="url(#p7196d39628)" d="M 212.304012 168.8115 
L 214.212482 168.8115 
L 214.212482 183.117198 
L 212.304012 183.117198 
z
" style="fill:#ff0000;"/>
   </g>
   <g id="patch_69">
    <path clip-path="url(#p7196d39628)" d="M 214.689599 168.8115 
L 216.598069 168.8115 
L 216.598069 166.676321 
L 214.689599 166.676321 
z
" style="fill:#008000;"/>
   </g>
   <g id="patch_70">
    <path clip-path="url(#p7196d39628)" d="M 217.075187 168.8115 
L 218.983656 168.8115 
L 218.983656 171.041576 
L 217.075187 171.041576 
z
" style="fill:#ff0000;"/>
   </g>
   <g id="patch_71">
    <path clip-path="url(#p7196d39628)" d="M 219.460774 168.8115 
L 221.369243 168.8115 
L 221.369243 170.863644 
L 219.460774 170.863644 
z
" style="fill:#ff0000;"/>
   </g>
   <g id="patch_72">
    <path clip-path="url(#p7196d39628)" d="M 221.846361 168.8115 
L 223.75483 168.8115 
L 223.75483 170.125228 
L 221.846361 170.125228 
z
" style="fill:#ff0000;"/>
   </g>
   <g id="patch_73">
    <path clip-path="url(#p7196d39628)" d="M 224.231948 168.8115 
L 226.140417 168.8115 
L 226.140417 168.449706 
L 224.231948 168.449706 
z
" style="fill:#008000;"/>
   </g>
   <g id="patch_74">
    <path clip-path="url(#p7196d39628)" d="M 226.617535 168.8115 
L 228.526004 168.8115 
L 228.526004 174.069378 
L 226.617535 174.069378 
z
" style="fill:#ff0000;"/>
   </g>
   <g id="patch_75">
    <path clip-path="url(#p7196d39628)" d="M 229.003122 168.8115 
L 230.911592 168.8115 
L 230.911592 164.123003 
L 229.003122 164.123003 
z
" style="fill:#008000;"/>
   </g>
   <g id="patch_76">
    <path clip-path="url(#p7196d39628)" d="M 231.388709 168.8115 
L 233.297179 168.8115 
L 233.297179 178.277459 
L 231.388709 178.277459 
z
" style="fill:#ff0000;"/>
   </g>
   <g id="patch_77">
    <path clip-path="url(#p7196d39628)" d="M 233.774296 168.8115 
L 235.682766 168.8115 
L 235.682766 172.233717 
L 233.774296 172.233717 
z
" style="fill:#ff0000;"/>
   </g>
   <g id="patch_78">
    <path clip-path="url(#p7196d39628)" d="M 236.159883 168.8115 
L 238.068353 168.8115 
L 238.068353 163.188862 
L 236.159883 163.188862 
z
" style="fill:#008000;"/>
   </g>
   <g id="patch_79">
    <path clip-path="url(#p7196d39628)" d="M 238.54547 168.8115 
L 240.45394 168.8115 
L 240.45394 175.602555 
L 238.54547 175.602555 
z
" style="fill:#ff0000;"/>
   </g>
   <g id="patch_80">
    <path clip-path="url(#p7196d39628)" d="M 240.931057 168.8115 
L 242.839527 168.8115 
L 242.839527 171.664336 
L 240.931057 171.664336 
z
" style="fill:#ff0000;"/>
   </g>
   <g id="patch_81">
    <path clip-path="url(#p7196d39628)" d="M 243.316644 168.8115 
L 245.225114 168.8115 
L 245.225114 165.335903 
L 243.316644 165.335903 
z
" style="fill:#008000;"/>
   </g>
   <g id="patch_82">
    <path clip-path="url(#p7196d39628)" d="M 245.702231 168.8115 
L 247.610701 168.8115 
L 247.610701 168.832259 
L 245.702231 168.832259 
z
" style="fill:#ff0000;"/>
   </g>
   <g id="patch_83">
    <path clip-path="url(#p7196d39628)" d="M 248.087819 168.8115 
L 249.996288 168.8115 
L 249.996288 173.585997 
L 248.087819 173.585997 
z
" style="fill:#ff0000;"/>
   </g>
   <g id="patch_84">
    <path clip-path="url(#p7196d39628)" d="M 250.473406 168.8115 
L 252.381875 168.8115 
L 252.381875 161.800996 
L 250.473406 161.800996 
z
" style="fill:#008000;"/>
   </g>
   <g id="patch_85">
    <path clip-path="url(#p7196d39628)" d="M 252.858993 168.8115 
L 254.767462 168.8115 
L 254.767462 168.624672 
L 252.858993 168.624672 
z
" style="fill:#008000;"/>
   </g>
   <g id="patch_86">
    <path clip-path="url(#p7196d39628)" d="M 255.24458 168.8115 
L 257.153049 168.8115 
L 257.153049 172.675581 
L 255.24458 172.675581 
z
" style="fill:#ff0000;"/>
   </g>
   <g id="patch_87">
    <path clip-path="url(#p7196d39628)" d="M 257.630167 168.8115 
L 259.538636 168.8115 
L 259.538636 163.592174 
L 257.630167 163.592174 
z
" style="fill:#008000;"/>
   </g>
   <g id="patch_88">
    <path clip-path="url(#p7196d39628)" d="M 260.015754 168.8115 
L 261.924224 168.8115 
L 261.924224 172.883167 
L 260.015754 172.883167 
z
" style="fill:#ff0000;"/>
   </g>
   <g id="patch_89">
    <path clip-path="url(#p7196d39628)" d="M 262.401341 168.8115 
L 264.309811 168.8115 
L 264.309811 173.218272 
L 262.401341 173.218272 
z
" style="fill:#ff0000;"/>
   </g>
   <g id="patch_90">
    <path clip-path="url(#p7196d39628)" d="M 264.786928 168.8115 
L 266.695398 168.8115 
L 266.695398 170.492953 
L 264.786928 170.492953 
z
" style="fill:#ff0000;"/>
   </g>
   <g id="matplotlib.axis_1">
    <g id="xtick_1">
     <g id="line2d_1">
      <defs>
       <path d="M 0 0 
L 0 3.5 
" id="mc4d0ca49cc" style="stroke:#000000;stroke-width:0.8;"/>
      </defs>
      <g>
       <use style="stroke:#000000;stroke-width:0.8;" x="58.195087" xlink:href="#mc4d0ca49cc" y="301.8675"/>
      </g>
     </g>
     <g id="text_1">
      <!-- 1 -->
      <defs>
       <path d="M 12.40625 8.296875 
L 28.515625 8.296875 
L 28.515625 63.921875 
L 10.984375 60.40625 
L 10.984375 69.390625 
L 28.421875 72.90625 
L 38.28125 72.90625 
L 38.28125 8.296875 
L 54.390625 8.296875 
L 54.390625 0 
L 12.40625 0 
z
" id="DejaVuSans-49"/>
      </defs>
      <g transform="translate(55.650087 314.94625)scale(0.08 -0.08)">
       <use xlink:href="#DejaVuSans-49"/>
      </g>
     </g>
    </g>
    <g id="xtick_2">
     <g id="line2d_2">
      <g>
       <use style="stroke:#000000;stroke-width:0.8;" x="60.580674" xlink:href="#mc4d0ca49cc" y="301.8675"/>
      </g>
     </g>
     <g id="text_2">
      <!-- 2 -->
      <defs>
       <path d="M 19.1875 8.296875 
L 53.609375 8.296875 
L 53.609375 0 
L 7.328125 0 
L 7.328125 8.296875 
Q 12.9375 14.109375 22.625 23.890625 
Q 32.328125 33.6875 34.8125 36.53125 
Q 39.546875 41.84375 41.421875 45.53125 
Q 43.3125 49.21875 43.3125 52.78125 
Q 43.3125 58.59375 39.234375 62.25 
Q 35.15625 65.921875 28.609375 65.921875 
Q 23.96875 65.921875 18.8125 64.3125 
Q 13.671875 62.703125 7.8125 59.421875 
L 7.8125 69.390625 
Q 13.765625 71.78125 18.9375 73 
Q 24.125 74.21875 28.421875 74.21875 
Q 39.75 74.21875 46.484375 68.546875 
Q 53.21875 62.890625 53.21875 53.421875 
Q 53.21875 48.921875 51.53125 44.890625 
Q 49.859375 40.875 45.40625 35.40625 
Q 44.1875 33.984375 37.640625 27.21875 
Q 31.109375 20.453125 19.1875 8.296875 
z
" id="DejaVuSans-50"/>
      </defs>
      <g transform="translate(58.035674 314.94625)scale(0.08 -0.08)">
       <use xlink:href="#DejaVuSans-50"/>
      </g>
     </g>
    </g>
    <g id="xtick_3">
     <g id="line2d_3">
      <g>
       <use style="stroke:#000000;stroke-width:0.8;" x="62.966261" xlink:href="#mc4d0ca49cc" y="301.8675"/>
      </g>
     </g>
     <g id="text_3">
      <!-- 3 -->
      <defs>
       <path d="M 40.578125 39.3125 
Q 47.65625 37.796875 51.625 33 
Q 55.609375 28.21875 55.609375 21.1875 
Q 55.609375 10.40625 48.1875 4.484375 
Q 40.765625 -1.421875 27.09375 -1.421875 
Q 22.515625 -1.421875 17.65625 -0.515625 
Q 12.796875 0.390625 7.625 2.203125 
L 7.625 11.71875 
Q 11.71875 9.328125 16.59375 8.109375 
Q 21.484375 6.890625 26.8125 6.890625 
Q 36.078125 6.890625 40.9375 10.546875 
Q 45.796875 14.203125 45.796875 21.1875 
Q 45.796875 27.640625 41.28125 31.265625 
Q 36.765625 34.90625 28.71875 34.90625 
L 20.21875 34.90625 
L 20.21875 43.015625 
L 29.109375 43.015625 
Q 36.375 43.015625 40.234375 45.921875 
Q 44.09375 48.828125 44.09375 54.296875 
Q 44.09375 59.90625 40.109375 62.90625 
Q 36.140625 65.921875 28.71875 65.921875 
Q 24.65625 65.921875 20.015625 65.03125 
Q 15.375 64.15625 9.8125 62.3125 
L 9.8125 71.09375 
Q 15.4375 72.65625 20.34375 73.4375 
Q 25.25 74.21875 29.59375 74.21875 
Q 40.828125 74.21875 47.359375 69.109375 
Q 53.90625 64.015625 53.90625 55.328125 
Q 53.90625 49.265625 50.4375 45.09375 
Q 46.96875 40.921875 40.578125 39.3125 
z
" id="DejaVuSans-51"/>
      </defs>
      <g transform="translate(60.421261 314.94625)scale(0.08 -0.08)">
       <use xlink:href="#DejaVuSans-51"/>
      </g>
     </g>
    </g>
    <g id="xtick_4">
     <g id="line2d_4">
      <g>
       <use style="stroke:#000000;stroke-width:0.8;" x="65.351848" xlink:href="#mc4d0ca49cc" y="301.8675"/>
      </g>
     </g>
     <g id="text_4">
      <!-- 4 -->
      <defs>
       <path d="M 37.796875 64.3125 
L 12.890625 25.390625 
L 37.796875 25.390625 
z
M 35.203125 72.90625 
L 47.609375 72.90625 
L 47.609375 25.390625 
L 58.015625 25.390625 
L 58.015625 17.1875 
L 47.609375 17.1875 
L 47.609375 0 
L 37.796875 0 
L 37.796875 17.1875 
L 4.890625 17.1875 
L 4.890625 26.703125 
z
" id="DejaVuSans-52"/>
      </defs>
      <g transform="translate(62.806848 314.94625)scale(0.08 -0.08)">
       <use xlink:href="#DejaVuSans-52"/>
      </g>
     </g>
    </g>
    <g id="xtick_5">
     <g id="line2d_5">
      <g>
       <use style="stroke:#000000;stroke-width:0.8;" x="67.737435" xlink:href="#mc4d0ca49cc" y="301.8675"/>
      </g>
     </g>
     <g id="text_5">
      <!-- 5 -->
      <defs>
       <path d="M 10.796875 72.90625 
L 49.515625 72.90625 
L 49.515625 64.59375 
L 19.828125 64.59375 
L 19.828125 46.734375 
Q 21.96875 47.46875 24.109375 47.828125 
Q 26.265625 48.1875 28.421875 48.1875 
Q 40.625 48.1875 47.75 41.5 
Q 54.890625 34.8125 54.890625 23.390625 
Q 54.890625 11.625 47.5625 5.09375 
Q 40.234375 -1.421875 26.90625 -1.421875 
Q 22.3125 -1.421875 17.546875 -0.640625 
Q 12.796875 0.140625 7.71875 1.703125 
L 7.71875 11.625 
Q 12.109375 9.234375 16.796875 8.0625 
Q 21.484375 6.890625 26.703125 6.890625 
Q 35.15625 6.890625 40.078125 11.328125 
Q 45.015625 15.765625 45.015625 23.390625 
Q 45.015625 31 40.078125 35.4375 
Q 35.15625 39.890625 26.703125 39.890625 
Q 22.75 39.890625 18.8125 39.015625 
Q 14.890625 38.140625 10.796875 36.28125 
z
" id="DejaVuSans-53"/>
      </defs>
      <g transform="translate(65.192435 314.94625)scale(0.08 -0.08)">
       <use xlink:href="#DejaVuSans-53"/>
      </g>
     </g>
    </g>
    <g id="xtick_6">
     <g id="line2d_6">
      <g>
       <use style="stroke:#000000;stroke-width:0.8;" x="70.123022" xlink:href="#mc4d0ca49cc" y="301.8675"/>
      </g>
     </g>
     <g id="text_6">
      <!-- 6 -->
      <defs>
       <path d="M 33.015625 40.375 
Q 26.375 40.375 22.484375 35.828125 
Q 18.609375 31.296875 18.609375 23.390625 
Q 18.609375 15.53125 22.484375 10.953125 
Q 26.375 6.390625 33.015625 6.390625 
Q 39.65625 6.390625 43.53125 10.953125 
Q 47.40625 15.53125 47.40625 23.390625 
Q 47.40625 31.296875 43.53125 35.828125 
Q 39.65625 40.375 33.015625 40.375 
z
M 52.59375 71.296875 
L 52.59375 62.3125 
Q 48.875 64.0625 45.09375 64.984375 
Q 41.3125 65.921875 37.59375 65.921875 
Q 27.828125 65.921875 22.671875 59.328125 
Q 17.53125 52.734375 16.796875 39.40625 
Q 19.671875 43.65625 24.015625 45.921875 
Q 28.375 48.1875 33.59375 48.1875 
Q 44.578125 48.1875 50.953125 41.515625 
Q 57.328125 34.859375 57.328125 23.390625 
Q 57.328125 12.15625 50.6875 5.359375 
Q 44.046875 -1.421875 33.015625 -1.421875 
Q 20.359375 -1.421875 13.671875 8.265625 
Q 6.984375 17.96875 6.984375 36.375 
Q 6.984375 53.65625 15.1875 63.9375 
Q 23.390625 74.21875 37.203125 74.21875 
Q 40.921875 74.21875 44.703125 73.484375 
Q 48.484375 72.75 52.59375 71.296875 
z
" id="DejaVuSans-54"/>
      </defs>
      <g transform="translate(67.578022 314.94625)scale(0.08 -0.08)">
       <use xlink:href="#DejaVuSans-54"/>
      </g>
     </g>
    </g>
    <g id="xtick_7">
     <g id="line2d_7">
      <g>
       <use style="stroke:#000000;stroke-width:0.8;" x="72.50861" xlink:href="#mc4d0ca49cc" y="301.8675"/>
      </g>
     </g>
     <g id="text_7">
      <!-- 7 -->
      <defs>
       <path d="M 8.203125 72.90625 
L 55.078125 72.90625 
L 55.078125 68.703125 
L 28.609375 0 
L 18.3125 0 
L 43.21875 64.59375 
L 8.203125 64.59375 
z
" id="DejaVuSans-55"/>
      </defs>
      <g transform="translate(69.96361 314.94625)scale(0.08 -0.08)">
       <use xlink:href="#DejaVuSans-55"/>
      </g>
     </g>
    </g>
    <g id="xtick_8">
     <g id="line2d_8">
      <g>
       <use style="stroke:#000000;stroke-width:0.8;" x="74.894197" xlink:href="#mc4d0ca49cc" y="301.8675"/>
      </g>
     </g>
     <g id="text_8">
      <!-- 8 -->
      <defs>
       <path d="M 31.78125 34.625 
Q 24.75 34.625 20.71875 30.859375 
Q 16.703125 27.09375 16.703125 20.515625 
Q 16.703125 13.921875 20.71875 10.15625 
Q 24.75 6.390625 31.78125 6.390625 
Q 38.8125 6.390625 42.859375 10.171875 
Q 46.921875 13.96875 46.921875 20.515625 
Q 46.921875 27.09375 42.890625 30.859375 
Q 38.875 34.625 31.78125 34.625 
z
M 21.921875 38.8125 
Q 15.578125 40.375 12.03125 44.71875 
Q 8.5 49.078125 8.5 55.328125 
Q 8.5 64.0625 14.71875 69.140625 
Q 20.953125 74.21875 31.78125 74.21875 
Q 42.671875 74.21875 48.875 69.140625 
Q 55.078125 64.0625 55.078125 55.328125 
Q 55.078125 49.078125 51.53125 44.71875 
Q 48 40.375 41.703125 38.8125 
Q 48.828125 37.15625 52.796875 32.3125 
Q 56.78125 27.484375 56.78125 20.515625 
Q 56.78125 9.90625 50.3125 4.234375 
Q 43.84375 -1.421875 31.78125 -1.421875 
Q 19.734375 -1.421875 13.25 4.234375 
Q 6.78125 9.90625 6.78125 20.515625 
Q 6.78125 27.484375 10.78125 32.3125 
Q 14.796875 37.15625 21.921875 38.8125 
z
M 18.3125 54.390625 
Q 18.3125 48.734375 21.84375 45.5625 
Q 25.390625 42.390625 31.78125 42.390625 
Q 38.140625 42.390625 41.71875 45.5625 
Q 45.3125 48.734375 45.3125 54.390625 
Q 45.3125 60.0625 41.71875 63.234375 
Q 38.140625 66.40625 31.78125 66.40625 
Q 25.390625 66.40625 21.84375 63.234375 
Q 18.3125 60.0625 18.3125 54.390625 
z
" id="DejaVuSans-56"/>
      </defs>
      <g transform="translate(72.349197 314.94625)scale(0.08 -0.08)">
       <use xlink:href="#DejaVuSans-56"/>
      </g>
     </g>
    </g>
    <g id="xtick_9">
     <g id="line2d_9">
      <g>
       <use style="stroke:#000000;stroke-width:0.8;" x="77.279784" xlink:href="#mc4d0ca49cc" y="301.8675"/>
      </g>
     </g>
     <g id="text_9">
      <!-- 9 -->
      <defs>
       <path d="M 10.984375 1.515625 
L 10.984375 10.5 
Q 14.703125 8.734375 18.5 7.8125 
Q 22.3125 6.890625 25.984375 6.890625 
Q 35.75 6.890625 40.890625 13.453125 
Q 46.046875 20.015625 46.78125 33.40625 
Q 43.953125 29.203125 39.59375 26.953125 
Q 35.25 24.703125 29.984375 24.703125 
Q 19.046875 24.703125 12.671875 31.3125 
Q 6.296875 37.9375 6.296875 49.421875 
Q 6.296875 60.640625 12.9375 67.421875 
Q 19.578125 74.21875 30.609375 74.21875 
Q 43.265625 74.21875 49.921875 64.515625 
Q 56.59375 54.828125 56.59375 36.375 
Q 56.59375 19.140625 48.40625 8.859375 
Q 40.234375 -1.421875 26.421875 -1.421875 
Q 22.703125 -1.421875 18.890625 -0.6875 
Q 15.09375 0.046875 10.984375 1.515625 
z
M 30.609375 32.421875 
Q 37.25 32.421875 41.125 36.953125 
Q 45.015625 41.5 45.015625 49.421875 
Q 45.015625 57.28125 41.125 61.84375 
Q 37.25 66.40625 30.609375 66.40625 
Q 23.96875 66.40625 20.09375 61.84375 
Q 16.21875 57.28125 16.21875 49.421875 
Q 16.21875 41.5 20.09375 36.953125 
Q 23.96875 32.421875 30.609375 32.421875 
z
" id="DejaVuSans-57"/>
      </defs>
      <g transform="translate(74.734784 314.94625)scale(0.08 -0.08)">
       <use xlink:href="#DejaVuSans-57"/>
      </g>
     </g>
    </g>
    <g id="xtick_10">
     <g id="line2d_10">
      <g>
       <use style="stroke:#000000;stroke-width:0.8;" x="79.665371" xlink:href="#mc4d0ca49cc" y="301.8675"/>
      </g>
     </g>
     <g id="text_10">
      <!-- 10 -->
      <defs>
       <path d="M 31.78125 66.40625 
Q 24.171875 66.40625 20.328125 58.90625 
Q 16.5 51.421875 16.5 36.375 
Q 16.5 21.390625 20.328125 13.890625 
Q 24.171875 6.390625 31.78125 6.390625 
Q 39.453125 6.390625 43.28125 13.890625 
Q 47.125 21.390625 47.125 36.375 
Q 47.125 51.421875 43.28125 58.90625 
Q 39.453125 66.40625 31.78125 66.40625 
z
M 31.78125 74.21875 
Q 44.046875 74.21875 50.515625 64.515625 
Q 56.984375 54.828125 56.984375 36.375 
Q 56.984375 17.96875 50.515625 8.265625 
Q 44.046875 -1.421875 31.78125 -1.421875 
Q 19.53125 -1.421875 13.0625 8.265625 
Q 6.59375 17.96875 6.59375 36.375 
Q 6.59375 54.828125 13.0625 64.515625 
Q 19.53125 74.21875 31.78125 74.21875 
z
" id="DejaVuSans-48"/>
      </defs>
      <g transform="translate(74.575371 314.94625)scale(0.08 -0.08)">
       <use xlink:href="#DejaVuSans-49"/>
       <use x="63.623047" xlink:href="#DejaVuSans-48"/>
      </g>
     </g>
    </g>
    <g id="xtick_11">
     <g id="line2d_11">
      <g>
       <use style="stroke:#000000;stroke-width:0.8;" x="82.050958" xlink:href="#mc4d0ca49cc" y="301.8675"/>
      </g>
     </g>
     <g id="text_11">
      <!-- 11 -->
      <g transform="translate(76.960958 314.94625)scale(0.08 -0.08)">
       <use xlink:href="#DejaVuSans-49"/>
       <use x="63.623047" xlink:href="#DejaVuSans-49"/>
      </g>
     </g>
    </g>
    <g id="xtick_12">
     <g id="line2d_12">
      <g>
       <use style="stroke:#000000;stroke-width:0.8;" x="84.436545" xlink:href="#mc4d0ca49cc" y="301.8675"/>
      </g>
     </g>
     <g id="text_12">
      <!-- 12 -->
      <g transform="translate(79.346545 314.94625)scale(0.08 -0.08)">
       <use xlink:href="#DejaVuSans-49"/>
       <use x="63.623047" xlink:href="#DejaVuSans-50"/>
      </g>
     </g>
    </g>
    <g id="xtick_13">
     <g id="line2d_13">
      <g>
       <use style="stroke:#000000;stroke-width:0.8;" x="86.822132" xlink:href="#mc4d0ca49cc" y="301.8675"/>
      </g>
     </g>
     <g id="text_13">
      <!-- 13 -->
      <g transform="translate(81.732132 314.94625)scale(0.08 -0.08)">
       <use xlink:href="#DejaVuSans-49"/>
       <use x="63.623047" xlink:href="#DejaVuSans-51"/>
      </g>
     </g>
    </g>
    <g id="xtick_14">
     <g id="line2d_14">
      <g>
       <use style="stroke:#000000;stroke-width:0.8;" x="89.207719" xlink:href="#mc4d0ca49cc" y="301.8675"/>
      </g>
     </g>
     <g id="text_14">
      <!-- 14 -->
      <g transform="translate(84.117719 314.94625)scale(0.08 -0.08)">
       <use xlink:href="#DejaVuSans-49"/>
       <use x="63.623047" xlink:href="#DejaVuSans-52"/>
      </g>
     </g>
    </g>
    <g id="xtick_15">
     <g id="line2d_15">
      <g>
       <use style="stroke:#000000;stroke-width:0.8;" x="91.593306" xlink:href="#mc4d0ca49cc" y="301.8675"/>
      </g>
     </g>
     <g id="text_15">
      <!-- 15 -->
      <g transform="translate(86.503306 314.94625)scale(0.08 -0.08)">
       <use xlink:href="#DejaVuSans-49"/>
       <use x="63.623047" xlink:href="#DejaVuSans-53"/>
      </g>
     </g>
    </g>
    <g id="xtick_16">
     <g id="line2d_16">
      <g>
       <use style="stroke:#000000;stroke-width:0.8;" x="93.978893" xlink:href="#mc4d0ca49cc" y="301.8675"/>
      </g>
     </g>
     <g id="text_16">
      <!-- 16 -->
      <g transform="translate(88.888893 314.94625)scale(0.08 -0.08)">
       <use xlink:href="#DejaVuSans-49"/>
       <use x="63.623047" xlink:href="#DejaVuSans-54"/>
      </g>
     </g>
    </g>
    <g id="xtick_17">
     <g id="line2d_17">
      <g>
       <use style="stroke:#000000;stroke-width:0.8;" x="96.36448" xlink:href="#mc4d0ca49cc" y="301.8675"/>
      </g>
     </g>
     <g id="text_17">
      <!-- 17 -->
      <g transform="translate(91.27448 314.94625)scale(0.08 -0.08)">
       <use xlink:href="#DejaVuSans-49"/>
       <use x="63.623047" xlink:href="#DejaVuSans-55"/>
      </g>
     </g>
    </g>
    <g id="xtick_18">
     <g id="line2d_18">
      <g>
       <use style="stroke:#000000;stroke-width:0.8;" x="98.750067" xlink:href="#mc4d0ca49cc" y="301.8675"/>
      </g>
     </g>
     <g id="text_18">
      <!-- 18 -->
      <g transform="translate(93.660067 314.94625)scale(0.08 -0.08)">
       <use xlink:href="#DejaVuSans-49"/>
       <use x="63.623047" xlink:href="#DejaVuSans-56"/>
      </g>
     </g>
    </g>
    <g id="xtick_19">
     <g id="line2d_19">
      <g>
       <use style="stroke:#000000;stroke-width:0.8;" x="101.135655" xlink:href="#mc4d0ca49cc" y="301.8675"/>
      </g>
     </g>
     <g id="text_19">
      <!-- 19 -->
      <g transform="translate(96.045655 314.94625)scale(0.08 -0.08)">
       <use xlink:href="#DejaVuSans-49"/>
       <use x="63.623047" xlink:href="#DejaVuSans-57"/>
      </g>
     </g>
    </g>
    <g id="xtick_20">
     <g id="line2d_20">
      <g>
       <use style="stroke:#000000;stroke-width:0.8;" x="103.521242" xlink:href="#mc4d0ca49cc" y="301.8675"/>
      </g>
     </g>
     <g id="text_20">
      <!-- 20 -->
      <g transform="translate(98.431242 314.94625)scale(0.08 -0.08)">
       <use xlink:href="#DejaVuSans-50"/>
       <use x="63.623047" xlink:href="#DejaVuSans-48"/>
      </g>
     </g>
    </g>
    <g id="xtick_21">
     <g id="line2d_21">
      <g>
       <use style="stroke:#000000;stroke-width:0.8;" x="105.906829" xlink:href="#mc4d0ca49cc" y="301.8675"/>
      </g>
     </g>
     <g id="text_21">
      <!-- 21 -->
      <g transform="translate(100.816829 314.94625)scale(0.08 -0.08)">
       <use xlink:href="#DejaVuSans-50"/>
       <use x="63.623047" xlink:href="#DejaVuSans-49"/>
      </g>
     </g>
    </g>
    <g id="xtick_22">
     <g id="line2d_22">
      <g>
       <use style="stroke:#000000;stroke-width:0.8;" x="108.292416" xlink:href="#mc4d0ca49cc" y="301.8675"/>
      </g>
     </g>
     <g id="text_22">
      <!-- 22 -->
      <g transform="translate(103.202416 314.94625)scale(0.08 -0.08)">
       <use xlink:href="#DejaVuSans-50"/>
       <use x="63.623047" xlink:href="#DejaVuSans-50"/>
      </g>
     </g>
    </g>
    <g id="xtick_23">
     <g id="line2d_23">
      <g>
       <use style="stroke:#000000;stroke-width:0.8;" x="110.678003" xlink:href="#mc4d0ca49cc" y="301.8675"/>
      </g>
     </g>
     <g id="text_23">
      <!-- 23 -->
      <g transform="translate(105.588003 314.94625)scale(0.08 -0.08)">
       <use xlink:href="#DejaVuSans-50"/>
       <use x="63.623047" xlink:href="#DejaVuSans-51"/>
      </g>
     </g>
    </g>
    <g id="xtick_24">
     <g id="line2d_24">
      <g>
       <use style="stroke:#000000;stroke-width:0.8;" x="113.06359" xlink:href="#mc4d0ca49cc" y="301.8675"/>
      </g>
     </g>
     <g id="text_24">
      <!-- 24 -->
      <g transform="translate(107.97359 314.94625)scale(0.08 -0.08)">
       <use xlink:href="#DejaVuSans-50"/>
       <use x="63.623047" xlink:href="#DejaVuSans-52"/>
      </g>
     </g>
    </g>
    <g id="xtick_25">
     <g id="line2d_25">
      <g>
       <use style="stroke:#000000;stroke-width:0.8;" x="115.449177" xlink:href="#mc4d0ca49cc" y="301.8675"/>
      </g>
     </g>
     <g id="text_25">
      <!-- 25 -->
      <g transform="translate(110.359177 314.94625)scale(0.08 -0.08)">
       <use xlink:href="#DejaVuSans-50"/>
       <use x="63.623047" xlink:href="#DejaVuSans-53"/>
      </g>
     </g>
    </g>
    <g id="xtick_26">
     <g id="line2d_26">
      <g>
       <use style="stroke:#000000;stroke-width:0.8;" x="117.834764" xlink:href="#mc4d0ca49cc" y="301.8675"/>
      </g>
     </g>
     <g id="text_26">
      <!-- 26 -->
      <g transform="translate(112.744764 314.94625)scale(0.08 -0.08)">
       <use xlink:href="#DejaVuSans-50"/>
       <use x="63.623047" xlink:href="#DejaVuSans-54"/>
      </g>
     </g>
    </g>
    <g id="xtick_27">
     <g id="line2d_27">
      <g>
       <use style="stroke:#000000;stroke-width:0.8;" x="120.220351" xlink:href="#mc4d0ca49cc" y="301.8675"/>
      </g>
     </g>
     <g id="text_27">
      <!-- 27 -->
      <g transform="translate(115.130351 314.94625)scale(0.08 -0.08)">
       <use xlink:href="#DejaVuSans-50"/>
       <use x="63.623047" xlink:href="#DejaVuSans-55"/>
      </g>
     </g>
    </g>
    <g id="xtick_28">
     <g id="line2d_28">
      <g>
       <use style="stroke:#000000;stroke-width:0.8;" x="122.605938" xlink:href="#mc4d0ca49cc" y="301.8675"/>
      </g>
     </g>
     <g id="text_28">
      <!-- 28 -->
      <g transform="translate(117.515938 314.94625)scale(0.08 -0.08)">
       <use xlink:href="#DejaVuSans-50"/>
       <use x="63.623047" xlink:href="#DejaVuSans-56"/>
      </g>
     </g>
    </g>
    <g id="xtick_29">
     <g id="line2d_29">
      <g>
       <use style="stroke:#000000;stroke-width:0.8;" x="124.991525" xlink:href="#mc4d0ca49cc" y="301.8675"/>
      </g>
     </g>
     <g id="text_29">
      <!-- 29 -->
      <g transform="translate(119.901525 314.94625)scale(0.08 -0.08)">
       <use xlink:href="#DejaVuSans-50"/>
       <use x="63.623047" xlink:href="#DejaVuSans-57"/>
      </g>
     </g>
    </g>
    <g id="xtick_30">
     <g id="line2d_30">
      <g>
       <use style="stroke:#000000;stroke-width:0.8;" x="127.377112" xlink:href="#mc4d0ca49cc" y="301.8675"/>
      </g>
     </g>
     <g id="text_30">
      <!-- 30 -->
      <g transform="translate(122.287112 314.94625)scale(0.08 -0.08)">
       <use xlink:href="#DejaVuSans-51"/>
       <use x="63.623047" xlink:href="#DejaVuSans-48"/>
      </g>
     </g>
    </g>
    <g id="xtick_31">
     <g id="line2d_31">
      <g>
       <use style="stroke:#000000;stroke-width:0.8;" x="129.762699" xlink:href="#mc4d0ca49cc" y="301.8675"/>
      </g>
     </g>
     <g id="text_31">
      <!-- 31 -->
      <g transform="translate(124.672699 314.94625)scale(0.08 -0.08)">
       <use xlink:href="#DejaVuSans-51"/>
       <use x="63.623047" xlink:href="#DejaVuSans-49"/>
      </g>
     </g>
    </g>
    <g id="xtick_32">
     <g id="line2d_32">
      <g>
       <use style="stroke:#000000;stroke-width:0.8;" x="132.148287" xlink:href="#mc4d0ca49cc" y="301.8675"/>
      </g>
     </g>
     <g id="text_32">
      <!-- 32 -->
      <g transform="translate(127.058287 314.94625)scale(0.08 -0.08)">
       <use xlink:href="#DejaVuSans-51"/>
       <use x="63.623047" xlink:href="#DejaVuSans-50"/>
      </g>
     </g>
    </g>
    <g id="xtick_33">
     <g id="line2d_33">
      <g>
       <use style="stroke:#000000;stroke-width:0.8;" x="134.533874" xlink:href="#mc4d0ca49cc" y="301.8675"/>
      </g>
     </g>
     <g id="text_33">
      <!-- 33 -->
      <g transform="translate(129.443874 314.94625)scale(0.08 -0.08)">
       <use xlink:href="#DejaVuSans-51"/>
       <use x="63.623047" xlink:href="#DejaVuSans-51"/>
      </g>
     </g>
    </g>
    <g id="xtick_34">
     <g id="line2d_34">
      <g>
       <use style="stroke:#000000;stroke-width:0.8;" x="136.919461" xlink:href="#mc4d0ca49cc" y="301.8675"/>
      </g>
     </g>
     <g id="text_34">
      <!-- 34 -->
      <g transform="translate(131.829461 314.94625)scale(0.08 -0.08)">
       <use xlink:href="#DejaVuSans-51"/>
       <use x="63.623047" xlink:href="#DejaVuSans-52"/>
      </g>
     </g>
    </g>
    <g id="xtick_35">
     <g id="line2d_35">
      <g>
       <use style="stroke:#000000;stroke-width:0.8;" x="139.305048" xlink:href="#mc4d0ca49cc" y="301.8675"/>
      </g>
     </g>
     <g id="text_35">
      <!-- 35 -->
      <g transform="translate(134.215048 314.94625)scale(0.08 -0.08)">
       <use xlink:href="#DejaVuSans-51"/>
       <use x="63.623047" xlink:href="#DejaVuSans-53"/>
      </g>
     </g>
    </g>
    <g id="xtick_36">
     <g id="line2d_36">
      <g>
       <use style="stroke:#000000;stroke-width:0.8;" x="141.690635" xlink:href="#mc4d0ca49cc" y="301.8675"/>
      </g>
     </g>
     <g id="text_36">
      <!-- 36 -->
      <g transform="translate(136.600635 314.94625)scale(0.08 -0.08)">
       <use xlink:href="#DejaVuSans-51"/>
       <use x="63.623047" xlink:href="#DejaVuSans-54"/>
      </g>
     </g>
    </g>
    <g id="xtick_37">
     <g id="line2d_37">
      <g>
       <use style="stroke:#000000;stroke-width:0.8;" x="144.076222" xlink:href="#mc4d0ca49cc" y="301.8675"/>
      </g>
     </g>
     <g id="text_37">
      <!-- 37 -->
      <g transform="translate(138.986222 314.94625)scale(0.08 -0.08)">
       <use xlink:href="#DejaVuSans-51"/>
       <use x="63.623047" xlink:href="#DejaVuSans-55"/>
      </g>
     </g>
    </g>
    <g id="xtick_38">
     <g id="line2d_38">
      <g>
       <use style="stroke:#000000;stroke-width:0.8;" x="146.461809" xlink:href="#mc4d0ca49cc" y="301.8675"/>
      </g>
     </g>
     <g id="text_38">
      <!-- 38 -->
      <g transform="translate(141.371809 314.94625)scale(0.08 -0.08)">
       <use xlink:href="#DejaVuSans-51"/>
       <use x="63.623047" xlink:href="#DejaVuSans-56"/>
      </g>
     </g>
    </g>
    <g id="xtick_39">
     <g id="line2d_39">
      <g>
       <use style="stroke:#000000;stroke-width:0.8;" x="148.847396" xlink:href="#mc4d0ca49cc" y="301.8675"/>
      </g>
     </g>
     <g id="text_39">
      <!-- 39 -->
      <g transform="translate(143.757396 314.94625)scale(0.08 -0.08)">
       <use xlink:href="#DejaVuSans-51"/>
       <use x="63.623047" xlink:href="#DejaVuSans-57"/>
      </g>
     </g>
    </g>
    <g id="xtick_40">
     <g id="line2d_40">
      <g>
       <use style="stroke:#000000;stroke-width:0.8;" x="151.232983" xlink:href="#mc4d0ca49cc" y="301.8675"/>
      </g>
     </g>
     <g id="text_40">
      <!-- 40 -->
      <g transform="translate(146.142983 314.94625)scale(0.08 -0.08)">
       <use xlink:href="#DejaVuSans-52"/>
       <use x="63.623047" xlink:href="#DejaVuSans-48"/>
      </g>
     </g>
    </g>
    <g id="xtick_41">
     <g id="line2d_41">
      <g>
       <use style="stroke:#000000;stroke-width:0.8;" x="153.61857" xlink:href="#mc4d0ca49cc" y="301.8675"/>
      </g>
     </g>
     <g id="text_41">
      <!-- 41 -->
      <g transform="translate(148.52857 314.94625)scale(0.08 -0.08)">
       <use xlink:href="#DejaVuSans-52"/>
       <use x="63.623047" xlink:href="#DejaVuSans-49"/>
      </g>
     </g>
    </g>
    <g id="xtick_42">
     <g id="line2d_42">
      <g>
       <use style="stroke:#000000;stroke-width:0.8;" x="156.004157" xlink:href="#mc4d0ca49cc" y="301.8675"/>
      </g>
     </g>
     <g id="text_42">
      <!-- 42 -->
      <g transform="translate(150.914157 314.94625)scale(0.08 -0.08)">
       <use xlink:href="#DejaVuSans-52"/>
       <use x="63.623047" xlink:href="#DejaVuSans-50"/>
      </g>
     </g>
    </g>
    <g id="xtick_43">
     <g id="line2d_43">
      <g>
       <use style="stroke:#000000;stroke-width:0.8;" x="158.389744" xlink:href="#mc4d0ca49cc" y="301.8675"/>
      </g>
     </g>
     <g id="text_43">
      <!-- 43 -->
      <g transform="translate(153.299744 314.94625)scale(0.08 -0.08)">
       <use xlink:href="#DejaVuSans-52"/>
       <use x="63.623047" xlink:href="#DejaVuSans-51"/>
      </g>
     </g>
    </g>
    <g id="xtick_44">
     <g id="line2d_44">
      <g>
       <use style="stroke:#000000;stroke-width:0.8;" x="160.775331" xlink:href="#mc4d0ca49cc" y="301.8675"/>
      </g>
     </g>
     <g id="text_44">
      <!-- 44 -->
      <g transform="translate(155.685331 314.94625)scale(0.08 -0.08)">
       <use xlink:href="#DejaVuSans-52"/>
       <use x="63.623047" xlink:href="#DejaVuSans-52"/>
      </g>
     </g>
    </g>
    <g id="xtick_45">
     <g id="line2d_45">
      <g>
       <use style="stroke:#000000;stroke-width:0.8;" x="163.160919" xlink:href="#mc4d0ca49cc" y="301.8675"/>
      </g>
     </g>
     <g id="text_45">
      <!-- 45 -->
      <g transform="translate(158.070919 314.94625)scale(0.08 -0.08)">
       <use xlink:href="#DejaVuSans-52"/>
       <use x="63.623047" xlink:href="#DejaVuSans-53"/>
      </g>
     </g>
    </g>
    <g id="xtick_46">
     <g id="line2d_46">
      <g>
       <use style="stroke:#000000;stroke-width:0.8;" x="165.546506" xlink:href="#mc4d0ca49cc" y="301.8675"/>
      </g>
     </g>
     <g id="text_46">
      <!-- 46 -->
      <g transform="translate(160.456506 314.94625)scale(0.08 -0.08)">
       <use xlink:href="#DejaVuSans-52"/>
       <use x="63.623047" xlink:href="#DejaVuSans-54"/>
      </g>
     </g>
    </g>
    <g id="xtick_47">
     <g id="line2d_47">
      <g>
       <use style="stroke:#000000;stroke-width:0.8;" x="167.932093" xlink:href="#mc4d0ca49cc" y="301.8675"/>
      </g>
     </g>
     <g id="text_47">
      <!-- 47 -->
      <g transform="translate(162.842093 314.94625)scale(0.08 -0.08)">
       <use xlink:href="#DejaVuSans-52"/>
       <use x="63.623047" xlink:href="#DejaVuSans-55"/>
      </g>
     </g>
    </g>
    <g id="xtick_48">
     <g id="line2d_48">
      <g>
       <use style="stroke:#000000;stroke-width:0.8;" x="170.31768" xlink:href="#mc4d0ca49cc" y="301.8675"/>
      </g>
     </g>
     <g id="text_48">
      <!-- 48 -->
      <g transform="translate(165.22768 314.94625)scale(0.08 -0.08)">
       <use xlink:href="#DejaVuSans-52"/>
       <use x="63.623047" xlink:href="#DejaVuSans-56"/>
      </g>
     </g>
    </g>
    <g id="xtick_49">
     <g id="line2d_49">
      <g>
       <use style="stroke:#000000;stroke-width:0.8;" x="172.703267" xlink:href="#mc4d0ca49cc" y="301.8675"/>
      </g>
     </g>
     <g id="text_49">
      <!-- 49 -->
      <g transform="translate(167.613267 314.94625)scale(0.08 -0.08)">
       <use xlink:href="#DejaVuSans-52"/>
       <use x="63.623047" xlink:href="#DejaVuSans-57"/>
      </g>
     </g>
    </g>
    <g id="xtick_50">
     <g id="line2d_50">
      <g>
       <use style="stroke:#000000;stroke-width:0.8;" x="175.088854" xlink:href="#mc4d0ca49cc" y="301.8675"/>
      </g>
     </g>
     <g id="text_50">
      <!-- 50 -->
      <g transform="translate(169.998854 314.94625)scale(0.08 -0.08)">
       <use xlink:href="#DejaVuSans-53"/>
       <use x="63.623047" xlink:href="#DejaVuSans-48"/>
      </g>
     </g>
    </g>
    <g id="xtick_51">
     <g id="line2d_51">
      <g>
       <use style="stroke:#000000;stroke-width:0.8;" x="177.474441" xlink:href="#mc4d0ca49cc" y="301.8675"/>
      </g>
     </g>
     <g id="text_51">
      <!-- 51 -->
      <g transform="translate(172.384441 314.94625)scale(0.08 -0.08)">
       <use xlink:href="#DejaVuSans-53"/>
       <use x="63.623047" xlink:href="#DejaVuSans-49"/>
      </g>
     </g>
    </g>
    <g id="xtick_52">
     <g id="line2d_52">
      <g>
       <use style="stroke:#000000;stroke-width:0.8;" x="179.860028" xlink:href="#mc4d0ca49cc" y="301.8675"/>
      </g>
     </g>
     <g id="text_52">
      <!-- 52 -->
      <g transform="translate(174.770028 314.94625)scale(0.08 -0.08)">
       <use xlink:href="#DejaVuSans-53"/>
       <use x="63.623047" xlink:href="#DejaVuSans-50"/>
      </g>
     </g>
    </g>
    <g id="xtick_53">
     <g id="line2d_53">
      <g>
       <use style="stroke:#000000;stroke-width:0.8;" x="182.245615" xlink:href="#mc4d0ca49cc" y="301.8675"/>
      </g>
     </g>
     <g id="text_53">
      <!-- 53 -->
      <g transform="translate(177.155615 314.94625)scale(0.08 -0.08)">
       <use xlink:href="#DejaVuSans-53"/>
       <use x="63.623047" xlink:href="#DejaVuSans-51"/>
      </g>
     </g>
    </g>
    <g id="xtick_54">
     <g id="line2d_54">
      <g>
       <use style="stroke:#000000;stroke-width:0.8;" x="184.631202" xlink:href="#mc4d0ca49cc" y="301.8675"/>
      </g>
     </g>
     <g id="text_54">
      <!-- 54 -->
      <g transform="translate(179.541202 314.94625)scale(0.08 -0.08)">
       <use xlink:href="#DejaVuSans-53"/>
       <use x="63.623047" xlink:href="#DejaVuSans-52"/>
      </g>
     </g>
    </g>
    <g id="xtick_55">
     <g id="line2d_55">
      <g>
       <use style="stroke:#000000;stroke-width:0.8;" x="187.016789" xlink:href="#mc4d0ca49cc" y="301.8675"/>
      </g>
     </g>
     <g id="text_55">
      <!-- 55 -->
      <g transform="translate(181.926789 314.94625)scale(0.08 -0.08)">
       <use xlink:href="#DejaVuSans-53"/>
       <use x="63.623047" xlink:href="#DejaVuSans-53"/>
      </g>
     </g>
    </g>
    <g id="xtick_56">
     <g id="line2d_56">
      <g>
       <use style="stroke:#000000;stroke-width:0.8;" x="189.402376" xlink:href="#mc4d0ca49cc" y="301.8675"/>
      </g>
     </g>
     <g id="text_56">
      <!-- 56 -->
      <g transform="translate(184.312376 314.94625)scale(0.08 -0.08)">
       <use xlink:href="#DejaVuSans-53"/>
       <use x="63.623047" xlink:href="#DejaVuSans-54"/>
      </g>
     </g>
    </g>
    <g id="xtick_57">
     <g id="line2d_57">
      <g>
       <use style="stroke:#000000;stroke-width:0.8;" x="191.787963" xlink:href="#mc4d0ca49cc" y="301.8675"/>
      </g>
     </g>
     <g id="text_57">
      <!-- 57 -->
      <g transform="translate(186.697963 314.94625)scale(0.08 -0.08)">
       <use xlink:href="#DejaVuSans-53"/>
       <use x="63.623047" xlink:href="#DejaVuSans-55"/>
      </g>
     </g>
    </g>
    <g id="xtick_58">
     <g id="line2d_58">
      <g>
       <use style="stroke:#000000;stroke-width:0.8;" x="194.173551" xlink:href="#mc4d0ca49cc" y="301.8675"/>
      </g>
     </g>
     <g id="text_58">
      <!-- 58 -->
      <g transform="translate(189.083551 314.94625)scale(0.08 -0.08)">
       <use xlink:href="#DejaVuSans-53"/>
       <use x="63.623047" xlink:href="#DejaVuSans-56"/>
      </g>
     </g>
    </g>
    <g id="xtick_59">
     <g id="line2d_59">
      <g>
       <use style="stroke:#000000;stroke-width:0.8;" x="196.559138" xlink:href="#mc4d0ca49cc" y="301.8675"/>
      </g>
     </g>
     <g id="text_59">
      <!-- 59 -->
      <g transform="translate(191.469138 314.94625)scale(0.08 -0.08)">
       <use xlink:href="#DejaVuSans-53"/>
       <use x="63.623047" xlink:href="#DejaVuSans-57"/>
      </g>
     </g>
    </g>
    <g id="xtick_60">
     <g id="line2d_60">
      <g>
       <use style="stroke:#000000;stroke-width:0.8;" x="198.944725" xlink:href="#mc4d0ca49cc" y="301.8675"/>
      </g>
     </g>
     <g id="text_60">
      <!-- 60 -->
      <g transform="translate(193.854725 314.94625)scale(0.08 -0.08)">
       <use xlink:href="#DejaVuSans-54"/>
       <use x="63.623047" xlink:href="#DejaVuSans-48"/>
      </g>
     </g>
    </g>
    <g id="xtick_61">
     <g id="line2d_61">
      <g>
       <use style="stroke:#000000;stroke-width:0.8;" x="201.330312" xlink:href="#mc4d0ca49cc" y="301.8675"/>
      </g>
     </g>
     <g id="text_61">
      <!-- 61 -->
      <g transform="translate(196.240312 314.94625)scale(0.08 -0.08)">
       <use xlink:href="#DejaVuSans-54"/>
       <use x="63.623047" xlink:href="#DejaVuSans-49"/>
      </g>
     </g>
    </g>
    <g id="xtick_62">
     <g id="line2d_62">
      <g>
       <use style="stroke:#000000;stroke-width:0.8;" x="203.715899" xlink:href="#mc4d0ca49cc" y="301.8675"/>
      </g>
     </g>
     <g id="text_62">
      <!-- 62 -->
      <g transform="translate(198.625899 314.94625)scale(0.08 -0.08)">
       <use xlink:href="#DejaVuSans-54"/>
       <use x="63.623047" xlink:href="#DejaVuSans-50"/>
      </g>
     </g>
    </g>
    <g id="xtick_63">
     <g id="line2d_63">
      <g>
       <use style="stroke:#000000;stroke-width:0.8;" x="206.101486" xlink:href="#mc4d0ca49cc" y="301.8675"/>
      </g>
     </g>
     <g id="text_63">
      <!-- 63 -->
      <g transform="translate(201.011486 314.94625)scale(0.08 -0.08)">
       <use xlink:href="#DejaVuSans-54"/>
       <use x="63.623047" xlink:href="#DejaVuSans-51"/>
      </g>
     </g>
    </g>
    <g id="xtick_64">
     <g id="line2d_64">
      <g>
       <use style="stroke:#000000;stroke-width:0.8;" x="208.487073" xlink:href="#mc4d0ca49cc" y="301.8675"/>
      </g>
     </g>
     <g id="text_64">
      <!-- 64 -->
      <g transform="translate(203.397073 314.94625)scale(0.08 -0.08)">
       <use xlink:href="#DejaVuSans-54"/>
       <use x="63.623047" xlink:href="#DejaVuSans-52"/>
      </g>
     </g>
    </g>
    <g id="xtick_65">
     <g id="line2d_65">
      <g>
       <use style="stroke:#000000;stroke-width:0.8;" x="210.87266" xlink:href="#mc4d0ca49cc" y="301.8675"/>
      </g>
     </g>
     <g id="text_65">
      <!-- 65 -->
      <g transform="translate(205.78266 314.94625)scale(0.08 -0.08)">
       <use xlink:href="#DejaVuSans-54"/>
       <use x="63.623047" xlink:href="#DejaVuSans-53"/>
      </g>
     </g>
    </g>
    <g id="xtick_66">
     <g id="line2d_66">
      <g>
       <use style="stroke:#000000;stroke-width:0.8;" x="213.258247" xlink:href="#mc4d0ca49cc" y="301.8675"/>
      </g>
     </g>
     <g id="text_66">
      <!-- 66 -->
      <g transform="translate(208.168247 314.94625)scale(0.08 -0.08)">
       <use xlink:href="#DejaVuSans-54"/>
       <use x="63.623047" xlink:href="#DejaVuSans-54"/>
      </g>
     </g>
    </g>
    <g id="xtick_67">
     <g id="line2d_67">
      <g>
       <use style="stroke:#000000;stroke-width:0.8;" x="215.643834" xlink:href="#mc4d0ca49cc" y="301.8675"/>
      </g>
     </g>
     <g id="text_67">
      <!-- 67 -->
      <g transform="translate(210.553834 314.94625)scale(0.08 -0.08)">
       <use xlink:href="#DejaVuSans-54"/>
       <use x="63.623047" xlink:href="#DejaVuSans-55"/>
      </g>
     </g>
    </g>
    <g id="xtick_68">
     <g id="line2d_68">
      <g>
       <use style="stroke:#000000;stroke-width:0.8;" x="218.029421" xlink:href="#mc4d0ca49cc" y="301.8675"/>
      </g>
     </g>
     <g id="text_68">
      <!-- 68 -->
      <g transform="translate(212.939421 314.94625)scale(0.08 -0.08)">
       <use xlink:href="#DejaVuSans-54"/>
       <use x="63.623047" xlink:href="#DejaVuSans-56"/>
      </g>
     </g>
    </g>
    <g id="xtick_69">
     <g id="line2d_69">
      <g>
       <use style="stroke:#000000;stroke-width:0.8;" x="220.415008" xlink:href="#mc4d0ca49cc" y="301.8675"/>
      </g>
     </g>
     <g id="text_69">
      <!-- 69 -->
      <g transform="translate(215.325008 314.94625)scale(0.08 -0.08)">
       <use xlink:href="#DejaVuSans-54"/>
       <use x="63.623047" xlink:href="#DejaVuSans-57"/>
      </g>
     </g>
    </g>
    <g id="xtick_70">
     <g id="line2d_70">
      <g>
       <use style="stroke:#000000;stroke-width:0.8;" x="222.800595" xlink:href="#mc4d0ca49cc" y="301.8675"/>
      </g>
     </g>
     <g id="text_70">
      <!-- 70 -->
      <g transform="translate(217.710595 314.94625)scale(0.08 -0.08)">
       <use xlink:href="#DejaVuSans-55"/>
       <use x="63.623047" xlink:href="#DejaVuSans-48"/>
      </g>
     </g>
    </g>
    <g id="xtick_71">
     <g id="line2d_71">
      <g>
       <use style="stroke:#000000;stroke-width:0.8;" x="225.186183" xlink:href="#mc4d0ca49cc" y="301.8675"/>
      </g>
     </g>
     <g id="text_71">
      <!-- 71 -->
      <g transform="translate(220.096183 314.94625)scale(0.08 -0.08)">
       <use xlink:href="#DejaVuSans-55"/>
       <use x="63.623047" xlink:href="#DejaVuSans-49"/>
      </g>
     </g>
    </g>
    <g id="xtick_72">
     <g id="line2d_72">
      <g>
       <use style="stroke:#000000;stroke-width:0.8;" x="227.57177" xlink:href="#mc4d0ca49cc" y="301.8675"/>
      </g>
     </g>
     <g id="text_72">
      <!-- 72 -->
      <g transform="translate(222.48177 314.94625)scale(0.08 -0.08)">
       <use xlink:href="#DejaVuSans-55"/>
       <use x="63.623047" xlink:href="#DejaVuSans-50"/>
      </g>
     </g>
    </g>
    <g id="xtick_73">
     <g id="line2d_73">
      <g>
       <use style="stroke:#000000;stroke-width:0.8;" x="229.957357" xlink:href="#mc4d0ca49cc" y="301.8675"/>
      </g>
     </g>
     <g id="text_73">
      <!-- 73 -->
      <g transform="translate(224.867357 314.94625)scale(0.08 -0.08)">
       <use xlink:href="#DejaVuSans-55"/>
       <use x="63.623047" xlink:href="#DejaVuSans-51"/>
      </g>
     </g>
    </g>
    <g id="xtick_74">
     <g id="line2d_74">
      <g>
       <use style="stroke:#000000;stroke-width:0.8;" x="232.342944" xlink:href="#mc4d0ca49cc" y="301.8675"/>
      </g>
     </g>
     <g id="text_74">
      <!-- 74 -->
      <g transform="translate(227.252944 314.94625)scale(0.08 -0.08)">
       <use xlink:href="#DejaVuSans-55"/>
       <use x="63.623047" xlink:href="#DejaVuSans-52"/>
      </g>
     </g>
    </g>
    <g id="xtick_75">
     <g id="line2d_75">
      <g>
       <use style="stroke:#000000;stroke-width:0.8;" x="234.728531" xlink:href="#mc4d0ca49cc" y="301.8675"/>
      </g>
     </g>
     <g id="text_75">
      <!-- 75 -->
      <g transform="translate(229.638531 314.94625)scale(0.08 -0.08)">
       <use xlink:href="#DejaVuSans-55"/>
       <use x="63.623047" xlink:href="#DejaVuSans-53"/>
      </g>
     </g>
    </g>
    <g id="xtick_76">
     <g id="line2d_76">
      <g>
       <use style="stroke:#000000;stroke-width:0.8;" x="237.114118" xlink:href="#mc4d0ca49cc" y="301.8675"/>
      </g>
     </g>
     <g id="text_76">
      <!-- 76 -->
      <g transform="translate(232.024118 314.94625)scale(0.08 -0.08)">
       <use xlink:href="#DejaVuSans-55"/>
       <use x="63.623047" xlink:href="#DejaVuSans-54"/>
      </g>
     </g>
    </g>
    <g id="xtick_77">
     <g id="line2d_77">
      <g>
       <use style="stroke:#000000;stroke-width:0.8;" x="239.499705" xlink:href="#mc4d0ca49cc" y="301.8675"/>
      </g>
     </g>
     <g id="text_77">
      <!-- 77 -->
      <g transform="translate(234.409705 314.94625)scale(0.08 -0.08)">
       <use xlink:href="#DejaVuSans-55"/>
       <use x="63.623047" xlink:href="#DejaVuSans-55"/>
      </g>
     </g>
    </g>
    <g id="xtick_78">
     <g id="line2d_78">
      <g>
       <use style="stroke:#000000;stroke-width:0.8;" x="241.885292" xlink:href="#mc4d0ca49cc" y="301.8675"/>
      </g>
     </g>
     <g id="text_78">
      <!-- 78 -->
      <g transform="translate(236.795292 314.94625)scale(0.08 -0.08)">
       <use xlink:href="#DejaVuSans-55"/>
       <use x="63.623047" xlink:href="#DejaVuSans-56"/>
      </g>
     </g>
    </g>
    <g id="xtick_79">
     <g id="line2d_79">
      <g>
       <use style="stroke:#000000;stroke-width:0.8;" x="244.270879" xlink:href="#mc4d0ca49cc" y="301.8675"/>
      </g>
     </g>
     <g id="text_79">
      <!-- 79 -->
      <g transform="translate(239.180879 314.94625)scale(0.08 -0.08)">
       <use xlink:href="#DejaVuSans-55"/>
       <use x="63.623047" xlink:href="#DejaVuSans-57"/>
      </g>
     </g>
    </g>
    <g id="xtick_80">
     <g id="line2d_80">
      <g>
       <use style="stroke:#000000;stroke-width:0.8;" x="246.656466" xlink:href="#mc4d0ca49cc" y="301.8675"/>
      </g>
     </g>
     <g id="text_80">
      <!-- 80 -->
      <g transform="translate(241.566466 314.94625)scale(0.08 -0.08)">
       <use xlink:href="#DejaVuSans-56"/>
       <use x="63.623047" xlink:href="#DejaVuSans-48"/>
      </g>
     </g>
    </g>
    <g id="xtick_81">
     <g id="line2d_81">
      <g>
       <use style="stroke:#000000;stroke-width:0.8;" x="249.042053" xlink:href="#mc4d0ca49cc" y="301.8675"/>
      </g>
     </g>
     <g id="text_81">
      <!-- 81 -->
      <g transform="translate(243.952053 314.94625)scale(0.08 -0.08)">
       <use xlink:href="#DejaVuSans-56"/>
       <use x="63.623047" xlink:href="#DejaVuSans-49"/>
      </g>
     </g>
    </g>
    <g id="xtick_82">
     <g id="line2d_82">
      <g>
       <use style="stroke:#000000;stroke-width:0.8;" x="251.42764" xlink:href="#mc4d0ca49cc" y="301.8675"/>
      </g>
     </g>
     <g id="text_82">
      <!-- 82 -->
      <g transform="translate(246.33764 314.94625)scale(0.08 -0.08)">
       <use xlink:href="#DejaVuSans-56"/>
       <use x="63.623047" xlink:href="#DejaVuSans-50"/>
      </g>
     </g>
    </g>
    <g id="xtick_83">
     <g id="line2d_83">
      <g>
       <use style="stroke:#000000;stroke-width:0.8;" x="253.813228" xlink:href="#mc4d0ca49cc" y="301.8675"/>
      </g>
     </g>
     <g id="text_83">
      <!-- 83 -->
      <g transform="translate(248.723228 314.94625)scale(0.08 -0.08)">
       <use xlink:href="#DejaVuSans-56"/>
       <use x="63.623047" xlink:href="#DejaVuSans-51"/>
      </g>
     </g>
    </g>
    <g id="xtick_84">
     <g id="line2d_84">
      <g>
       <use style="stroke:#000000;stroke-width:0.8;" x="256.198815" xlink:href="#mc4d0ca49cc" y="301.8675"/>
      </g>
     </g>
     <g id="text_84">
      <!-- 84 -->
      <g transform="translate(251.108815 314.94625)scale(0.08 -0.08)">
       <use xlink:href="#DejaVuSans-56"/>
       <use x="63.623047" xlink:href="#DejaVuSans-52"/>
      </g>
     </g>
    </g>
    <g id="xtick_85">
     <g id="line2d_85">
      <g>
       <use style="stroke:#000000;stroke-width:0.8;" x="258.584402" xlink:href="#mc4d0ca49cc" y="301.8675"/>
      </g>
     </g>
     <g id="text_85">
      <!-- 85 -->
      <g transform="translate(253.494402 314.94625)scale(0.08 -0.08)">
       <use xlink:href="#DejaVuSans-56"/>
       <use x="63.623047" xlink:href="#DejaVuSans-53"/>
      </g>
     </g>
    </g>
    <g id="xtick_86">
     <g id="line2d_86">
      <g>
       <use style="stroke:#000000;stroke-width:0.8;" x="260.969989" xlink:href="#mc4d0ca49cc" y="301.8675"/>
      </g>
     </g>
     <g id="text_86">
      <!-- 86 -->
      <g transform="translate(255.879989 314.94625)scale(0.08 -0.08)">
       <use xlink:href="#DejaVuSans-56"/>
       <use x="63.623047" xlink:href="#DejaVuSans-54"/>
      </g>
     </g>
    </g>
    <g id="xtick_87">
     <g id="line2d_87">
      <g>
       <use style="stroke:#000000;stroke-width:0.8;" x="263.355576" xlink:href="#mc4d0ca49cc" y="301.8675"/>
      </g>
     </g>
     <g id="text_87">
      <!-- 87 -->
      <g transform="translate(258.265576 314.94625)scale(0.08 -0.08)">
       <use xlink:href="#DejaVuSans-56"/>
       <use x="63.623047" xlink:href="#DejaVuSans-55"/>
      </g>
     </g>
    </g>
    <g id="xtick_88">
     <g id="line2d_88">
      <g>
       <use style="stroke:#000000;stroke-width:0.8;" x="265.741163" xlink:href="#mc4d0ca49cc" y="301.8675"/>
      </g>
     </g>
    </g>
    <g id="text_88">
     <!-- spearman correlation -->
     <defs>
      <path d="M 44.28125 53.078125 
L 44.28125 44.578125 
Q 40.484375 46.53125 36.375 47.5 
Q 32.28125 48.484375 27.875 48.484375 
Q 21.1875 48.484375 17.84375 46.4375 
Q 14.5 44.390625 14.5 40.28125 
Q 14.5 37.15625 16.890625 35.375 
Q 19.28125 33.59375 26.515625 31.984375 
L 29.59375 31.296875 
Q 39.15625 29.25 43.1875 25.515625 
Q 47.21875 21.78125 47.21875 15.09375 
Q 47.21875 7.46875 41.1875 3.015625 
Q 35.15625 -1.421875 24.609375 -1.421875 
Q 20.21875 -1.421875 15.453125 -0.5625 
Q 10.6875 0.296875 5.421875 2 
L 5.421875 11.28125 
Q 10.40625 8.6875 15.234375 7.390625 
Q 20.0625 6.109375 24.8125 6.109375 
Q 31.15625 6.109375 34.5625 8.28125 
Q 37.984375 10.453125 37.984375 14.40625 
Q 37.984375 18.0625 35.515625 20.015625 
Q 33.0625 21.96875 24.703125 23.78125 
L 21.578125 24.515625 
Q 13.234375 26.265625 9.515625 29.90625 
Q 5.8125 33.546875 5.8125 39.890625 
Q 5.8125 47.609375 11.28125 51.796875 
Q 16.75 56 26.8125 56 
Q 31.78125 56 36.171875 55.265625 
Q 40.578125 54.546875 44.28125 53.078125 
z
" id="DejaVuSans-115"/>
      <path d="M 18.109375 8.203125 
L 18.109375 -20.796875 
L 9.078125 -20.796875 
L 9.078125 54.6875 
L 18.109375 54.6875 
L 18.109375 46.390625 
Q 20.953125 51.265625 25.265625 53.625 
Q 29.59375 56 35.59375 56 
Q 45.5625 56 51.78125 48.09375 
Q 58.015625 40.1875 58.015625 27.296875 
Q 58.015625 14.40625 51.78125 6.484375 
Q 45.5625 -1.421875 35.59375 -1.421875 
Q 29.59375 -1.421875 25.265625 0.953125 
Q 20.953125 3.328125 18.109375 8.203125 
z
M 48.6875 27.296875 
Q 48.6875 37.203125 44.609375 42.84375 
Q 40.53125 48.484375 33.40625 48.484375 
Q 26.265625 48.484375 22.1875 42.84375 
Q 18.109375 37.203125 18.109375 27.296875 
Q 18.109375 17.390625 22.1875 11.75 
Q 26.265625 6.109375 33.40625 6.109375 
Q 40.53125 6.109375 44.609375 11.75 
Q 48.6875 17.390625 48.6875 27.296875 
z
" id="DejaVuSans-112"/>
      <path d="M 56.203125 29.59375 
L 56.203125 25.203125 
L 14.890625 25.203125 
Q 15.484375 15.921875 20.484375 11.0625 
Q 25.484375 6.203125 34.421875 6.203125 
Q 39.59375 6.203125 44.453125 7.46875 
Q 49.3125 8.734375 54.109375 11.28125 
L 54.109375 2.78125 
Q 49.265625 0.734375 44.1875 -0.34375 
Q 39.109375 -1.421875 33.890625 -1.421875 
Q 20.796875 -1.421875 13.15625 6.1875 
Q 5.515625 13.8125 5.515625 26.8125 
Q 5.515625 40.234375 12.765625 48.109375 
Q 20.015625 56 32.328125 56 
Q 43.359375 56 49.78125 48.890625 
Q 56.203125 41.796875 56.203125 29.59375 
z
M 47.21875 32.234375 
Q 47.125 39.59375 43.09375 43.984375 
Q 39.0625 48.390625 32.421875 48.390625 
Q 24.90625 48.390625 20.390625 44.140625 
Q 15.875 39.890625 15.1875 32.171875 
z
" id="DejaVuSans-101"/>
      <path d="M 34.28125 27.484375 
Q 23.390625 27.484375 19.1875 25 
Q 14.984375 22.515625 14.984375 16.5 
Q 14.984375 11.71875 18.140625 8.90625 
Q 21.296875 6.109375 26.703125 6.109375 
Q 34.1875 6.109375 38.703125 11.40625 
Q 43.21875 16.703125 43.21875 25.484375 
L 43.21875 27.484375 
z
M 52.203125 31.203125 
L 52.203125 0 
L 43.21875 0 
L 43.21875 8.296875 
Q 40.140625 3.328125 35.546875 0.953125 
Q 30.953125 -1.421875 24.3125 -1.421875 
Q 15.921875 -1.421875 10.953125 3.296875 
Q 6 8.015625 6 15.921875 
Q 6 25.140625 12.171875 29.828125 
Q 18.359375 34.515625 30.609375 34.515625 
L 43.21875 34.515625 
L 43.21875 35.40625 
Q 43.21875 41.609375 39.140625 45 
Q 35.0625 48.390625 27.6875 48.390625 
Q 23 48.390625 18.546875 47.265625 
Q 14.109375 46.140625 10.015625 43.890625 
L 10.015625 52.203125 
Q 14.9375 54.109375 19.578125 55.046875 
Q 24.21875 56 28.609375 56 
Q 40.484375 56 46.34375 49.84375 
Q 52.203125 43.703125 52.203125 31.203125 
z
" id="DejaVuSans-97"/>
      <path d="M 41.109375 46.296875 
Q 39.59375 47.171875 37.8125 47.578125 
Q 36.03125 48 33.890625 48 
Q 26.265625 48 22.1875 43.046875 
Q 18.109375 38.09375 18.109375 28.8125 
L 18.109375 0 
L 9.078125 0 
L 9.078125 54.6875 
L 18.109375 54.6875 
L 18.109375 46.1875 
Q 20.953125 51.171875 25.484375 53.578125 
Q 30.03125 56 36.53125 56 
Q 37.453125 56 38.578125 55.875 
Q 39.703125 55.765625 41.0625 55.515625 
z
" id="DejaVuSans-114"/>
      <path d="M 52 44.1875 
Q 55.375 50.25 60.0625 53.125 
Q 64.75 56 71.09375 56 
Q 79.640625 56 84.28125 50.015625 
Q 88.921875 44.046875 88.921875 33.015625 
L 88.921875 0 
L 79.890625 0 
L 79.890625 32.71875 
Q 79.890625 40.578125 77.09375 44.375 
Q 74.3125 48.1875 68.609375 48.1875 
Q 61.625 48.1875 57.5625 43.546875 
Q 53.515625 38.921875 53.515625 30.90625 
L 53.515625 0 
L 44.484375 0 
L 44.484375 32.71875 
Q 44.484375 40.625 41.703125 44.40625 
Q 38.921875 48.1875 33.109375 48.1875 
Q 26.21875 48.1875 22.15625 43.53125 
Q 18.109375 38.875 18.109375 30.90625 
L 18.109375 0 
L 9.078125 0 
L 9.078125 54.6875 
L 18.109375 54.6875 
L 18.109375 46.1875 
Q 21.1875 51.21875 25.484375 53.609375 
Q 29.78125 56 35.6875 56 
Q 41.65625 56 45.828125 52.96875 
Q 50 49.953125 52 44.1875 
z
" id="DejaVuSans-109"/>
      <path d="M 54.890625 33.015625 
L 54.890625 0 
L 45.90625 0 
L 45.90625 32.71875 
Q 45.90625 40.484375 42.875 44.328125 
Q 39.84375 48.1875 33.796875 48.1875 
Q 26.515625 48.1875 22.3125 43.546875 
Q 18.109375 38.921875 18.109375 30.90625 
L 18.109375 0 
L 9.078125 0 
L 9.078125 54.6875 
L 18.109375 54.6875 
L 18.109375 46.1875 
Q 21.34375 51.125 25.703125 53.5625 
Q 30.078125 56 35.796875 56 
Q 45.21875 56 50.046875 50.171875 
Q 54.890625 44.34375 54.890625 33.015625 
z
" id="DejaVuSans-110"/>
      <path id="DejaVuSans-32"/>
      <path d="M 48.78125 52.59375 
L 48.78125 44.1875 
Q 44.96875 46.296875 41.140625 47.34375 
Q 37.3125 48.390625 33.40625 48.390625 
Q 24.65625 48.390625 19.8125 42.84375 
Q 14.984375 37.3125 14.984375 27.296875 
Q 14.984375 17.28125 19.8125 11.734375 
Q 24.65625 6.203125 33.40625 6.203125 
Q 37.3125 6.203125 41.140625 7.25 
Q 44.96875 8.296875 48.78125 10.40625 
L 48.78125 2.09375 
Q 45.015625 0.34375 40.984375 -0.53125 
Q 36.96875 -1.421875 32.421875 -1.421875 
Q 20.0625 -1.421875 12.78125 6.34375 
Q 5.515625 14.109375 5.515625 27.296875 
Q 5.515625 40.671875 12.859375 48.328125 
Q 20.21875 56 33.015625 56 
Q 37.15625 56 41.109375 55.140625 
Q 45.0625 54.296875 48.78125 52.59375 
z
" id="DejaVuSans-99"/>
      <path d="M 30.609375 48.390625 
Q 23.390625 48.390625 19.1875 42.75 
Q 14.984375 37.109375 14.984375 27.296875 
Q 14.984375 17.484375 19.15625 11.84375 
Q 23.34375 6.203125 30.609375 6.203125 
Q 37.796875 6.203125 41.984375 11.859375 
Q 46.1875 17.53125 46.1875 27.296875 
Q 46.1875 37.015625 41.984375 42.703125 
Q 37.796875 48.390625 30.609375 48.390625 
z
M 30.609375 56 
Q 42.328125 56 49.015625 48.375 
Q 55.71875 40.765625 55.71875 27.296875 
Q 55.71875 13.875 49.015625 6.21875 
Q 42.328125 -1.421875 30.609375 -1.421875 
Q 18.84375 -1.421875 12.171875 6.21875 
Q 5.515625 13.875 5.515625 27.296875 
Q 5.515625 40.765625 12.171875 48.375 
Q 18.84375 56 30.609375 56 
z
" id="DejaVuSans-111"/>
      <path d="M 9.421875 75.984375 
L 18.40625 75.984375 
L 18.40625 0 
L 9.421875 0 
z
" id="DejaVuSans-108"/>
      <path d="M 18.3125 70.21875 
L 18.3125 54.6875 
L 36.8125 54.6875 
L 36.8125 47.703125 
L 18.3125 47.703125 
L 18.3125 18.015625 
Q 18.3125 11.328125 20.140625 9.421875 
Q 21.96875 7.515625 27.59375 7.515625 
L 36.8125 7.515625 
L 36.8125 0 
L 27.59375 0 
Q 17.1875 0 13.234375 3.875 
Q 9.28125 7.765625 9.28125 18.015625 
L 9.28125 47.703125 
L 2.6875 47.703125 
L 2.6875 54.6875 
L 9.28125 54.6875 
L 9.28125 70.21875 
z
" id="DejaVuSans-116"/>
      <path d="M 9.421875 54.6875 
L 18.40625 54.6875 
L 18.40625 0 
L 9.421875 0 
z
M 9.421875 75.984375 
L 18.40625 75.984375 
L 18.40625 64.59375 
L 9.421875 64.59375 
z
" id="DejaVuSans-105"/>
     </defs>
     <g transform="translate(108.2775 328.208437)scale(0.1 -0.1)">
      <use xlink:href="#DejaVuSans-115"/>
      <use x="52.099609" xlink:href="#DejaVuSans-112"/>
      <use x="115.576172" xlink:href="#DejaVuSans-101"/>
      <use x="177.099609" xlink:href="#DejaVuSans-97"/>
      <use x="238.378906" xlink:href="#DejaVuSans-114"/>
      <use x="279.476562" xlink:href="#DejaVuSans-109"/>
      <use x="376.888672" xlink:href="#DejaVuSans-97"/>
      <use x="438.167969" xlink:href="#DejaVuSans-110"/>
      <use x="501.546875" xlink:href="#DejaVuSans-32"/>
      <use x="533.333984" xlink:href="#DejaVuSans-99"/>
      <use x="588.314453" xlink:href="#DejaVuSans-111"/>
      <use x="649.496094" xlink:href="#DejaVuSans-114"/>
      <use x="690.59375" xlink:href="#DejaVuSans-114"/>
      <use x="731.675781" xlink:href="#DejaVuSans-101"/>
      <use x="793.199219" xlink:href="#DejaVuSans-108"/>
      <use x="820.982422" xlink:href="#DejaVuSans-97"/>
      <use x="882.261719" xlink:href="#DejaVuSans-116"/>
      <use x="921.470703" xlink:href="#DejaVuSans-105"/>
      <use x="949.253906" xlink:href="#DejaVuSans-111"/>
      <use x="1010.435547" xlink:href="#DejaVuSans-110"/>
     </g>
    </g>
   </g>
   <g id="matplotlib.axis_2">
    <g id="ytick_1">
     <g id="line2d_89">
      <defs>
       <path d="M 0 0 
L -3.5 0 
" id="mc654446eb5" style="stroke:#000000;stroke-width:0.8;"/>
      </defs>
      <g>
       <use style="stroke:#000000;stroke-width:0.8;" x="46.768125" xlink:href="#mc654446eb5" y="301.8675"/>
      </g>
     </g>
     <g id="text_89">
      <!-- 1.00 -->
      <defs>
       <path d="M 10.59375 35.5 
L 73.1875 35.5 
L 73.1875 27.203125 
L 10.59375 27.203125 
z
" id="DejaVuSans-8722"/>
       <path d="M 10.6875 12.40625 
L 21 12.40625 
L 21 0 
L 10.6875 0 
z
" id="DejaVuSans-46"/>
      </defs>
      <g transform="translate(9.122812 305.666719)scale(0.1 -0.1)">
       <use xlink:href="#DejaVuSans-8722"/>
       <use x="83.789062" xlink:href="#DejaVuSans-49"/>
       <use x="147.412109" xlink:href="#DejaVuSans-46"/>
       <use x="179.199219" xlink:href="#DejaVuSans-48"/>
       <use x="242.822266" xlink:href="#DejaVuSans-48"/>
      </g>
     </g>
    </g>
    <g id="ytick_2">
     <g id="line2d_90">
      <g>
       <use style="stroke:#000000;stroke-width:0.8;" x="46.768125" xlink:href="#mc654446eb5" y="268.6035"/>
      </g>
     </g>
     <g id="text_90">
      <!-- 0.75 -->
      <g transform="translate(9.122812 272.402719)scale(0.1 -0.1)">
       <use xlink:href="#DejaVuSans-8722"/>
       <use x="83.789062" xlink:href="#DejaVuSans-48"/>
       <use x="147.412109" xlink:href="#DejaVuSans-46"/>
       <use x="179.199219" xlink:href="#DejaVuSans-55"/>
       <use x="242.822266" xlink:href="#DejaVuSans-53"/>
      </g>
     </g>
    </g>
    <g id="ytick_3">
     <g id="line2d_91">
      <g>
       <use style="stroke:#000000;stroke-width:0.8;" x="46.768125" xlink:href="#mc654446eb5" y="235.3395"/>
      </g>
     </g>
     <g id="text_91">
      <!-- 0.50 -->
      <g transform="translate(9.122812 239.138719)scale(0.1 -0.1)">
       <use xlink:href="#DejaVuSans-8722"/>
       <use x="83.789062" xlink:href="#DejaVuSans-48"/>
       <use x="147.412109" xlink:href="#DejaVuSans-46"/>
       <use x="179.199219" xlink:href="#DejaVuSans-53"/>
       <use x="242.822266" xlink:href="#DejaVuSans-48"/>
      </g>
     </g>
    </g>
    <g id="ytick_4">
     <g id="line2d_92">
      <g>
       <use style="stroke:#000000;stroke-width:0.8;" x="46.768125" xlink:href="#mc654446eb5" y="202.0755"/>
      </g>
     </g>
     <g id="text_92">
      <!-- 0.25 -->
      <g transform="translate(9.122812 205.874719)scale(0.1 -0.1)">
       <use xlink:href="#DejaVuSans-8722"/>
       <use x="83.789062" xlink:href="#DejaVuSans-48"/>
       <use x="147.412109" xlink:href="#DejaVuSans-46"/>
       <use x="179.199219" xlink:href="#DejaVuSans-50"/>
       <use x="242.822266" xlink:href="#DejaVuSans-53"/>
      </g>
     </g>
    </g>
    <g id="ytick_5">
     <g id="line2d_93">
      <g>
       <use style="stroke:#000000;stroke-width:0.8;" x="46.768125" xlink:href="#mc654446eb5" y="168.8115"/>
      </g>
     </g>
     <g id="text_93">
      <!-- 0.00 -->
      <g transform="translate(17.5025 172.610719)scale(0.1 -0.1)">
       <use xlink:href="#DejaVuSans-48"/>
       <use x="63.623047" xlink:href="#DejaVuSans-46"/>
       <use x="95.410156" xlink:href="#DejaVuSans-48"/>
       <use x="159.033203" xlink:href="#DejaVuSans-48"/>
      </g>
     </g>
    </g>
    <g id="ytick_6">
     <g id="line2d_94">
      <g>
       <use style="stroke:#000000;stroke-width:0.8;" x="46.768125" xlink:href="#mc654446eb5" y="135.5475"/>
      </g>
     </g>
     <g id="text_94">
      <!-- 0.25 -->
      <g transform="translate(17.5025 139.346719)scale(0.1 -0.1)">
       <use xlink:href="#DejaVuSans-48"/>
       <use x="63.623047" xlink:href="#DejaVuSans-46"/>
       <use x="95.410156" xlink:href="#DejaVuSans-50"/>
       <use x="159.033203" xlink:href="#DejaVuSans-53"/>
      </g>
     </g>
    </g>
    <g id="ytick_7">
     <g id="line2d_95">
      <g>
       <use style="stroke:#000000;stroke-width:0.8;" x="46.768125" xlink:href="#mc654446eb5" y="102.2835"/>
      </g>
     </g>
     <g id="text_95">
      <!-- 0.50 -->
      <g transform="translate(17.5025 106.082719)scale(0.1 -0.1)">
       <use xlink:href="#DejaVuSans-48"/>
       <use x="63.623047" xlink:href="#DejaVuSans-46"/>
       <use x="95.410156" xlink:href="#DejaVuSans-53"/>
       <use x="159.033203" xlink:href="#DejaVuSans-48"/>
      </g>
     </g>
    </g>
    <g id="ytick_8">
     <g id="line2d_96">
      <g>
       <use style="stroke:#000000;stroke-width:0.8;" x="46.768125" xlink:href="#mc654446eb5" y="69.0195"/>
      </g>
     </g>
     <g id="text_96">
      <!-- 0.75 -->
      <g transform="translate(17.5025 72.818719)scale(0.1 -0.1)">
       <use xlink:href="#DejaVuSans-48"/>
       <use x="63.623047" xlink:href="#DejaVuSans-46"/>
       <use x="95.410156" xlink:href="#DejaVuSans-55"/>
       <use x="159.033203" xlink:href="#DejaVuSans-53"/>
      </g>
     </g>
    </g>
    <g id="ytick_9">
     <g id="line2d_97">
      <g>
       <use style="stroke:#000000;stroke-width:0.8;" x="46.768125" xlink:href="#mc654446eb5" y="35.7555"/>
      </g>
     </g>
     <g id="text_97">
      <!-- 1.00 -->
      <g transform="translate(17.5025 39.554719)scale(0.1 -0.1)">
       <use xlink:href="#DejaVuSans-49"/>
       <use x="63.623047" xlink:href="#DejaVuSans-46"/>
       <use x="95.410156" xlink:href="#DejaVuSans-48"/>
       <use x="159.033203" xlink:href="#DejaVuSans-48"/>
      </g>
     </g>
    </g>
   </g>
   <g id="patch_91">
    <path d="M 46.768125 301.8675 
L 46.768125 35.7555 
" style="fill:none;stroke:#000000;stroke-linecap:square;stroke-linejoin:miter;stroke-width:0.8;"/>
   </g>
   <g id="patch_92">
    <path d="M 277.168125 301.8675 
L 277.168125 35.7555 
" style="fill:none;stroke:#000000;stroke-linecap:square;stroke-linejoin:miter;stroke-width:0.8;"/>
   </g>
   <g id="patch_93">
    <path d="M 46.768125 301.8675 
L 277.168125 301.8675 
" style="fill:none;stroke:#000000;stroke-linecap:square;stroke-linejoin:miter;stroke-width:0.8;"/>
   </g>
   <g id="patch_94">
    <path d="M 46.768125 35.7555 
L 277.168125 35.7555 
" style="fill:none;stroke:#000000;stroke-linecap:square;stroke-linejoin:miter;stroke-width:0.8;"/>
   </g>
   <g id="text_98">
    <!-- Correlation between each component and the label -->
    <defs>
     <path d="M 64.40625 67.28125 
L 64.40625 56.890625 
Q 59.421875 61.53125 53.78125 63.8125 
Q 48.140625 66.109375 41.796875 66.109375 
Q 29.296875 66.109375 22.65625 58.46875 
Q 16.015625 50.828125 16.015625 36.375 
Q 16.015625 21.96875 22.65625 14.328125 
Q 29.296875 6.6875 41.796875 6.6875 
Q 48.140625 6.6875 53.78125 8.984375 
Q 59.421875 11.28125 64.40625 15.921875 
L 64.40625 5.609375 
Q 59.234375 2.09375 53.4375 0.328125 
Q 47.65625 -1.421875 41.21875 -1.421875 
Q 24.65625 -1.421875 15.125 8.703125 
Q 5.609375 18.84375 5.609375 36.375 
Q 5.609375 53.953125 15.125 64.078125 
Q 24.65625 74.21875 41.21875 74.21875 
Q 47.75 74.21875 53.53125 72.484375 
Q 59.328125 70.75 64.40625 67.28125 
z
" id="DejaVuSans-67"/>
     <path d="M 48.6875 27.296875 
Q 48.6875 37.203125 44.609375 42.84375 
Q 40.53125 48.484375 33.40625 48.484375 
Q 26.265625 48.484375 22.1875 42.84375 
Q 18.109375 37.203125 18.109375 27.296875 
Q 18.109375 17.390625 22.1875 11.75 
Q 26.265625 6.109375 33.40625 6.109375 
Q 40.53125 6.109375 44.609375 11.75 
Q 48.6875 17.390625 48.6875 27.296875 
z
M 18.109375 46.390625 
Q 20.953125 51.265625 25.265625 53.625 
Q 29.59375 56 35.59375 56 
Q 45.5625 56 51.78125 48.09375 
Q 58.015625 40.1875 58.015625 27.296875 
Q 58.015625 14.40625 51.78125 6.484375 
Q 45.5625 -1.421875 35.59375 -1.421875 
Q 29.59375 -1.421875 25.265625 0.953125 
Q 20.953125 3.328125 18.109375 8.203125 
L 18.109375 0 
L 9.078125 0 
L 9.078125 75.984375 
L 18.109375 75.984375 
z
" id="DejaVuSans-98"/>
     <path d="M 4.203125 54.6875 
L 13.1875 54.6875 
L 24.421875 12.015625 
L 35.59375 54.6875 
L 46.1875 54.6875 
L 57.421875 12.015625 
L 68.609375 54.6875 
L 77.59375 54.6875 
L 63.28125 0 
L 52.6875 0 
L 40.921875 44.828125 
L 29.109375 0 
L 18.5 0 
z
" id="DejaVuSans-119"/>
     <path d="M 54.890625 33.015625 
L 54.890625 0 
L 45.90625 0 
L 45.90625 32.71875 
Q 45.90625 40.484375 42.875 44.328125 
Q 39.84375 48.1875 33.796875 48.1875 
Q 26.515625 48.1875 22.3125 43.546875 
Q 18.109375 38.921875 18.109375 30.90625 
L 18.109375 0 
L 9.078125 0 
L 9.078125 75.984375 
L 18.109375 75.984375 
L 18.109375 46.1875 
Q 21.34375 51.125 25.703125 53.5625 
Q 30.078125 56 35.796875 56 
Q 45.21875 56 50.046875 50.171875 
Q 54.890625 44.34375 54.890625 33.015625 
z
" id="DejaVuSans-104"/>
     <path d="M 45.40625 46.390625 
L 45.40625 75.984375 
L 54.390625 75.984375 
L 54.390625 0 
L 45.40625 0 
L 45.40625 8.203125 
Q 42.578125 3.328125 38.25 0.953125 
Q 33.9375 -1.421875 27.875 -1.421875 
Q 17.96875 -1.421875 11.734375 6.484375 
Q 5.515625 14.40625 5.515625 27.296875 
Q 5.515625 40.1875 11.734375 48.09375 
Q 17.96875 56 27.875 56 
Q 33.9375 56 38.25 53.625 
Q 42.578125 51.265625 45.40625 46.390625 
z
M 14.796875 27.296875 
Q 14.796875 17.390625 18.875 11.75 
Q 22.953125 6.109375 30.078125 6.109375 
Q 37.203125 6.109375 41.296875 11.75 
Q 45.40625 17.390625 45.40625 27.296875 
Q 45.40625 37.203125 41.296875 42.84375 
Q 37.203125 48.484375 30.078125 48.484375 
Q 22.953125 48.484375 18.875 42.84375 
Q 14.796875 37.203125 14.796875 27.296875 
z
" id="DejaVuSans-100"/>
    </defs>
    <g transform="translate(7.2 16.318125)scale(0.12 -0.12)">
     <use xlink:href="#DejaVuSans-67"/>
     <use x="69.824219" xlink:href="#DejaVuSans-111"/>
     <use x="131.005859" xlink:href="#DejaVuSans-114"/>
     <use x="172.103516" xlink:href="#DejaVuSans-114"/>
     <use x="213.185547" xlink:href="#DejaVuSans-101"/>
     <use x="274.708984" xlink:href="#DejaVuSans-108"/>
     <use x="302.492188" xlink:href="#DejaVuSans-97"/>
     <use x="363.771484" xlink:href="#DejaVuSans-116"/>
     <use x="402.980469" xlink:href="#DejaVuSans-105"/>
     <use x="430.763672" xlink:href="#DejaVuSans-111"/>
     <use x="491.945312" xlink:href="#DejaVuSans-110"/>
     <use x="555.324219" xlink:href="#DejaVuSans-32"/>
     <use x="587.111328" xlink:href="#DejaVuSans-98"/>
     <use x="650.587891" xlink:href="#DejaVuSans-101"/>
     <use x="712.111328" xlink:href="#DejaVuSans-116"/>
     <use x="751.320312" xlink:href="#DejaVuSans-119"/>
     <use x="833.107422" xlink:href="#DejaVuSans-101"/>
     <use x="894.630859" xlink:href="#DejaVuSans-101"/>
     <use x="956.154297" xlink:href="#DejaVuSans-110"/>
     <use x="1019.533203" xlink:href="#DejaVuSans-32"/>
     <use x="1051.320312" xlink:href="#DejaVuSans-101"/>
     <use x="1112.84375" xlink:href="#DejaVuSans-97"/>
     <use x="1174.123047" xlink:href="#DejaVuSans-99"/>
     <use x="1229.103516" xlink:href="#DejaVuSans-104"/>
     <use x="1292.482422" xlink:href="#DejaVuSans-32"/>
     <use x="1324.269531" xlink:href="#DejaVuSans-99"/>
     <use x="1379.25" xlink:href="#DejaVuSans-111"/>
     <use x="1440.431641" xlink:href="#DejaVuSans-109"/>
     <use x="1537.84375" xlink:href="#DejaVuSans-112"/>
     <use x="1601.320312" xlink:href="#DejaVuSans-111"/>
     <use x="1662.501953" xlink:href="#DejaVuSans-110"/>
     <use x="1725.880859" xlink:href="#DejaVuSans-101"/>
     <use x="1787.404297" xlink:href="#DejaVuSans-110"/>
     <use x="1850.783203" xlink:href="#DejaVuSans-116"/>
     <use x="1889.992188" xlink:href="#DejaVuSans-32"/>
     <use x="1921.779297" xlink:href="#DejaVuSans-97"/>
     <use x="1983.058594" xlink:href="#DejaVuSans-110"/>
     <use x="2046.4375" xlink:href="#DejaVuSans-100"/>
     <use x="2109.914062" xlink:href="#DejaVuSans-32"/>
     <use x="2141.701172" xlink:href="#DejaVuSans-116"/>
     <use x="2180.910156" xlink:href="#DejaVuSans-104"/>
     <use x="2244.289062" xlink:href="#DejaVuSans-101"/>
     <use x="2305.8125" xlink:href="#DejaVuSans-32"/>
     <use x="2337.599609" xlink:href="#DejaVuSans-108"/>
     <use x="2365.382812" xlink:href="#DejaVuSans-97"/>
     <use x="2426.662109" xlink:href="#DejaVuSans-98"/>
     <use x="2490.138672" xlink:href="#DejaVuSans-101"/>
     <use x="2551.662109" xlink:href="#DejaVuSans-108"/>
    </g>
    <!-- prognosis task -->
    <defs>
     <path d="M 45.40625 27.984375 
Q 45.40625 37.75 41.375 43.109375 
Q 37.359375 48.484375 30.078125 48.484375 
Q 22.859375 48.484375 18.828125 43.109375 
Q 14.796875 37.75 14.796875 27.984375 
Q 14.796875 18.265625 18.828125 12.890625 
Q 22.859375 7.515625 30.078125 7.515625 
Q 37.359375 7.515625 41.375 12.890625 
Q 45.40625 18.265625 45.40625 27.984375 
z
M 54.390625 6.78125 
Q 54.390625 -7.171875 48.1875 -13.984375 
Q 42 -20.796875 29.203125 -20.796875 
Q 24.46875 -20.796875 20.265625 -20.09375 
Q 16.0625 -19.390625 12.109375 -17.921875 
L 12.109375 -9.1875 
Q 16.0625 -11.328125 19.921875 -12.34375 
Q 23.78125 -13.375 27.78125 -13.375 
Q 36.625 -13.375 41.015625 -8.765625 
Q 45.40625 -4.15625 45.40625 5.171875 
L 45.40625 9.625 
Q 42.625 4.78125 38.28125 2.390625 
Q 33.9375 0 27.875 0 
Q 17.828125 0 11.671875 7.65625 
Q 5.515625 15.328125 5.515625 27.984375 
Q 5.515625 40.671875 11.671875 48.328125 
Q 17.828125 56 27.875 56 
Q 33.9375 56 38.28125 53.609375 
Q 42.625 51.21875 45.40625 46.390625 
L 45.40625 54.6875 
L 54.390625 54.6875 
z
" id="DejaVuSans-103"/>
     <path d="M 9.078125 75.984375 
L 18.109375 75.984375 
L 18.109375 31.109375 
L 44.921875 54.6875 
L 56.390625 54.6875 
L 27.390625 29.109375 
L 57.625 0 
L 45.90625 0 
L 18.109375 26.703125 
L 18.109375 0 
L 9.078125 0 
z
" id="DejaVuSans-107"/>
    </defs>
    <g transform="translate(118.28625 29.7555)scale(0.12 -0.12)">
     <use xlink:href="#DejaVuSans-112"/>
     <use x="63.476562" xlink:href="#DejaVuSans-114"/>
     <use x="104.558594" xlink:href="#DejaVuSans-111"/>
     <use x="165.740234" xlink:href="#DejaVuSans-103"/>
     <use x="229.216797" xlink:href="#DejaVuSans-110"/>
     <use x="292.595703" xlink:href="#DejaVuSans-111"/>
     <use x="353.777344" xlink:href="#DejaVuSans-115"/>
     <use x="405.876953" xlink:href="#DejaVuSans-105"/>
     <use x="433.660156" xlink:href="#DejaVuSans-115"/>
     <use x="485.759766" xlink:href="#DejaVuSans-32"/>
     <use x="517.546875" xlink:href="#DejaVuSans-116"/>
     <use x="556.755859" xlink:href="#DejaVuSans-97"/>
     <use x="618.035156" xlink:href="#DejaVuSans-115"/>
     <use x="670.134766" xlink:href="#DejaVuSans-107"/>
    </g>
   </g>
  </g>
 </g>
 <defs>
  <clipPath id="p7196d39628">
   <rect height="266.112" width="230.4" x="46.768125" y="35.7555"/>
  </clipPath>
 </defs>
</svg>
