<?xml version="1.0" encoding="utf-8" standalone="no"?>
<!DOCTYPE svg PUBLIC "-//W3C//DTD SVG 1.1//EN"
  "http://www.w3.org/Graphics/SVG/1.1/DTD/svg11.dtd">
<!-- Created with matplotlib (https://matplotlib.org/) -->
<svg height="366.2985pt" version="1.1" viewBox="0 0 402.060625 366.2985" width="402.060625pt" xmlns="http://www.w3.org/2000/svg" xmlns:xlink="http://www.w3.org/1999/xlink">
 <defs>
  <style type="text/css">
*{stroke-linecap:butt;stroke-linejoin:round;}
  </style>
 </defs>
 <g id="figure_1">
  <g id="patch_1">
   <path d="M 0 366.2985 
L 402.060625 366.2985 
L 402.060625 0 
L 0 0 
z
" style="fill:#ffffff;"/>
  </g>
  <g id="axes_1">
   <g id="patch_2">
    <path d="M 34.240625 328.74225 
L 391.360625 328.74225 
L 391.360625 62.63025 
L 34.240625 62.63025 
z
" style="fill:#ffffff;"/>
   </g>
   <g id="patch_3">
    <path clip-path="url(#pa15c17fd23)" d="M 77.21541 328.74225 
L 82.001152 328.74225 
L 82.001152 322.40625 
L 77.21541 322.40625 
z
" style="fill:#d95f0e;opacity:0.5;"/>
   </g>
   <g id="patch_4">
    <path clip-path="url(#pa15c17fd23)" d="M 83.197588 328.74225 
L 87.983331 328.74225 
L 87.983331 322.40625 
L 83.197588 322.40625 
z
" style="fill:#d95f0e;opacity:0.5;"/>
   </g>
   <g id="patch_5">
    <path clip-path="url(#pa15c17fd23)" d="M 89.179767 328.74225 
L 93.965509 328.74225 
L 93.965509 322.40625 
L 89.179767 322.40625 
z
" style="fill:#d95f0e;opacity:0.5;"/>
   </g>
   <g id="patch_6">
    <path clip-path="url(#pa15c17fd23)" d="M 95.161945 328.74225 
L 99.947688 328.74225 
L 99.947688 316.07025 
L 95.161945 316.07025 
z
" style="fill:#d95f0e;opacity:0.5;"/>
   </g>
   <g id="patch_7">
    <path clip-path="url(#pa15c17fd23)" d="M 101.144124 328.74225 
L 105.929866 328.74225 
L 105.929866 319.23825 
L 101.144124 319.23825 
z
" style="fill:#d95f0e;opacity:0.5;"/>
   </g>
   <g id="patch_8">
    <path clip-path="url(#pa15c17fd23)" d="M 107.126302 328.74225 
L 111.912045 328.74225 
L 111.912045 309.73425 
L 107.126302 309.73425 
z
" style="fill:#d95f0e;opacity:0.5;"/>
   </g>
   <g id="patch_9">
    <path clip-path="url(#pa15c17fd23)" d="M 113.10848 328.74225 
L 117.894223 328.74225 
L 117.894223 303.39825 
L 113.10848 303.39825 
z
" style="fill:#d95f0e;opacity:0.5;"/>
   </g>
   <g id="patch_10">
    <path clip-path="url(#pa15c17fd23)" d="M 119.090659 328.74225 
L 123.876402 328.74225 
L 123.876402 306.56625 
L 119.090659 306.56625 
z
" style="fill:#d95f0e;opacity:0.5;"/>
   </g>
   <g id="patch_11">
    <path clip-path="url(#pa15c17fd23)" d="M 125.072837 328.74225 
L 129.85858 328.74225 
L 129.85858 319.23825 
L 125.072837 319.23825 
z
" style="fill:#d95f0e;opacity:0.5;"/>
   </g>
   <g id="patch_12">
    <path clip-path="url(#pa15c17fd23)" d="M 131.055016 328.74225 
L 135.840759 328.74225 
L 135.840759 309.73425 
L 131.055016 309.73425 
z
" style="fill:#d95f0e;opacity:0.5;"/>
   </g>
   <g id="patch_13">
    <path clip-path="url(#pa15c17fd23)" d="M 137.037194 328.74225 
L 141.822937 328.74225 
L 141.822937 309.73425 
L 137.037194 309.73425 
z
" style="fill:#d95f0e;opacity:0.5;"/>
   </g>
   <g id="patch_14">
    <path clip-path="url(#pa15c17fd23)" d="M 143.019373 328.74225 
L 147.805116 328.74225 
L 147.805116 221.03025 
L 143.019373 221.03025 
z
" style="fill:#d95f0e;opacity:0.5;"/>
   </g>
   <g id="patch_15">
    <path clip-path="url(#pa15c17fd23)" d="M 149.001551 328.74225 
L 153.787294 328.74225 
L 153.787294 300.23025 
L 149.001551 300.23025 
z
" style="fill:#d95f0e;opacity:0.5;"/>
   </g>
   <g id="patch_16">
    <path clip-path="url(#pa15c17fd23)" d="M 154.98373 328.74225 
L 159.769473 328.74225 
L 159.769473 255.87825 
L 154.98373 255.87825 
z
" style="fill:#d95f0e;opacity:0.5;"/>
   </g>
   <g id="patch_17">
    <path clip-path="url(#pa15c17fd23)" d="M 160.965908 328.74225 
L 165.751651 328.74225 
L 165.751651 262.21425 
L 160.965908 262.21425 
z
" style="fill:#d95f0e;opacity:0.5;"/>
   </g>
   <g id="patch_18">
    <path clip-path="url(#pa15c17fd23)" d="M 166.948087 328.74225 
L 171.73383 328.74225 
L 171.73383 271.71825 
L 166.948087 271.71825 
z
" style="fill:#d95f0e;opacity:0.5;"/>
   </g>
   <g id="patch_19">
    <path clip-path="url(#pa15c17fd23)" d="M 172.930265 328.74225 
L 177.716008 328.74225 
L 177.716008 278.05425 
L 172.930265 278.05425 
z
" style="fill:#d95f0e;opacity:0.5;"/>
   </g>
   <g id="patch_20">
    <path clip-path="url(#pa15c17fd23)" d="M 178.912444 328.74225 
L 183.698187 328.74225 
L 183.698187 278.05425 
L 178.912444 278.05425 
z
" style="fill:#d95f0e;opacity:0.5;"/>
   </g>
   <g id="patch_21">
    <path clip-path="url(#pa15c17fd23)" d="M 184.894622 328.74225 
L 189.680365 328.74225 
L 189.680365 252.71025 
L 184.894622 252.71025 
z
" style="fill:#d95f0e;opacity:0.5;"/>
   </g>
   <g id="patch_22">
    <path clip-path="url(#pa15c17fd23)" d="M 190.876801 328.74225 
L 195.662543 328.74225 
L 195.662543 246.37425 
L 190.876801 246.37425 
z
" style="fill:#d95f0e;opacity:0.5;"/>
   </g>
   <g id="patch_23">
    <path clip-path="url(#pa15c17fd23)" d="M 196.858979 328.74225 
L 201.644722 328.74225 
L 201.644722 268.55025 
L 196.858979 268.55025 
z
" style="fill:#d95f0e;opacity:0.5;"/>
   </g>
   <g id="patch_24">
    <path clip-path="url(#pa15c17fd23)" d="M 202.841158 328.74225 
L 207.6269 328.74225 
L 207.6269 278.05425 
L 202.841158 278.05425 
z
" style="fill:#d95f0e;opacity:0.5;"/>
   </g>
   <g id="patch_25">
    <path clip-path="url(#pa15c17fd23)" d="M 208.823336 328.74225 
L 213.609079 328.74225 
L 213.609079 290.72625 
L 208.823336 290.72625 
z
" style="fill:#d95f0e;opacity:0.5;"/>
   </g>
   <g id="patch_26">
    <path clip-path="url(#pa15c17fd23)" d="M 214.805515 328.74225 
L 219.591257 328.74225 
L 219.591257 202.02225 
L 214.805515 202.02225 
z
" style="fill:#d95f0e;opacity:0.5;"/>
   </g>
   <g id="patch_27">
    <path clip-path="url(#pa15c17fd23)" d="M 220.787693 328.74225 
L 225.573436 328.74225 
L 225.573436 259.04625 
L 220.787693 259.04625 
z
" style="fill:#d95f0e;opacity:0.5;"/>
   </g>
   <g id="patch_28">
    <path clip-path="url(#pa15c17fd23)" d="M 226.769872 328.74225 
L 231.555614 328.74225 
L 231.555614 259.04625 
L 226.769872 259.04625 
z
" style="fill:#d95f0e;opacity:0.5;"/>
   </g>
   <g id="patch_29">
    <path clip-path="url(#pa15c17fd23)" d="M 232.75205 328.74225 
L 237.537793 328.74225 
L 237.537793 246.37425 
L 232.75205 246.37425 
z
" style="fill:#d95f0e;opacity:0.5;"/>
   </g>
   <g id="patch_30">
    <path clip-path="url(#pa15c17fd23)" d="M 238.734228 328.74225 
L 243.519971 328.74225 
L 243.519971 265.38225 
L 238.734228 265.38225 
z
" style="fill:#d95f0e;opacity:0.5;"/>
   </g>
   <g id="patch_31">
    <path clip-path="url(#pa15c17fd23)" d="M 244.716407 328.74225 
L 249.50215 328.74225 
L 249.50215 246.37425 
L 244.716407 246.37425 
z
" style="fill:#d95f0e;opacity:0.5;"/>
   </g>
   <g id="patch_32">
    <path clip-path="url(#pa15c17fd23)" d="M 250.698585 328.74225 
L 255.484328 328.74225 
L 255.484328 262.21425 
L 250.698585 262.21425 
z
" style="fill:#d95f0e;opacity:0.5;"/>
   </g>
   <g id="patch_33">
    <path clip-path="url(#pa15c17fd23)" d="M 256.680764 328.74225 
L 261.466507 328.74225 
L 261.466507 249.54225 
L 256.680764 249.54225 
z
" style="fill:#d95f0e;opacity:0.5;"/>
   </g>
   <g id="patch_34">
    <path clip-path="url(#pa15c17fd23)" d="M 262.662942 328.74225 
L 267.448685 328.74225 
L 267.448685 249.54225 
L 262.662942 249.54225 
z
" style="fill:#d95f0e;opacity:0.5;"/>
   </g>
   <g id="patch_35">
    <path clip-path="url(#pa15c17fd23)" d="M 268.645121 328.74225 
L 273.430864 328.74225 
L 273.430864 268.55025 
L 268.645121 268.55025 
z
" style="fill:#d95f0e;opacity:0.5;"/>
   </g>
   <g id="patch_36">
    <path clip-path="url(#pa15c17fd23)" d="M 274.627299 328.74225 
L 279.413042 328.74225 
L 279.413042 236.87025 
L 274.627299 236.87025 
z
" style="fill:#d95f0e;opacity:0.5;"/>
   </g>
   <g id="patch_37">
    <path clip-path="url(#pa15c17fd23)" d="M 280.609478 328.74225 
L 285.395221 328.74225 
L 285.395221 300.23025 
L 280.609478 300.23025 
z
" style="fill:#d95f0e;opacity:0.5;"/>
   </g>
   <g id="patch_38">
    <path clip-path="url(#pa15c17fd23)" d="M 286.591656 328.74225 
L 291.377399 328.74225 
L 291.377399 262.21425 
L 286.591656 262.21425 
z
" style="fill:#d95f0e;opacity:0.5;"/>
   </g>
   <g id="patch_39">
    <path clip-path="url(#pa15c17fd23)" d="M 292.573835 328.74225 
L 297.359578 328.74225 
L 297.359578 287.55825 
L 292.573835 287.55825 
z
" style="fill:#d95f0e;opacity:0.5;"/>
   </g>
   <g id="patch_40">
    <path clip-path="url(#pa15c17fd23)" d="M 298.556013 328.74225 
L 303.341756 328.74225 
L 303.341756 306.56625 
L 298.556013 306.56625 
z
" style="fill:#d95f0e;opacity:0.5;"/>
   </g>
   <g id="patch_41">
    <path clip-path="url(#pa15c17fd23)" d="M 304.538192 328.74225 
L 309.323934 328.74225 
L 309.323934 297.06225 
L 304.538192 297.06225 
z
" style="fill:#d95f0e;opacity:0.5;"/>
   </g>
   <g id="patch_42">
    <path clip-path="url(#pa15c17fd23)" d="M 310.52037 328.74225 
L 315.306113 328.74225 
L 315.306113 312.90225 
L 310.52037 312.90225 
z
" style="fill:#d95f0e;opacity:0.5;"/>
   </g>
   <g id="patch_43">
    <path clip-path="url(#pa15c17fd23)" d="M 316.502549 328.74225 
L 321.288291 328.74225 
L 321.288291 297.06225 
L 316.502549 297.06225 
z
" style="fill:#d95f0e;opacity:0.5;"/>
   </g>
   <g id="patch_44">
    <path clip-path="url(#pa15c17fd23)" d="M 322.484727 328.74225 
L 327.27047 328.74225 
L 327.27047 316.07025 
L 322.484727 316.07025 
z
" style="fill:#d95f0e;opacity:0.5;"/>
   </g>
   <g id="patch_45">
    <path clip-path="url(#pa15c17fd23)" d="M 328.466906 328.74225 
L 333.252648 328.74225 
L 333.252648 316.07025 
L 328.466906 316.07025 
z
" style="fill:#d95f0e;opacity:0.5;"/>
   </g>
   <g id="patch_46">
    <path clip-path="url(#pa15c17fd23)" d="M 334.449084 328.74225 
L 339.234827 328.74225 
L 339.234827 325.57425 
L 334.449084 325.57425 
z
" style="fill:#d95f0e;opacity:0.5;"/>
   </g>
   <g id="patch_47">
    <path clip-path="url(#pa15c17fd23)" d="M 340.431263 328.74225 
L 345.217005 328.74225 
L 345.217005 322.40625 
L 340.431263 322.40625 
z
" style="fill:#d95f0e;opacity:0.5;"/>
   </g>
   <g id="patch_48">
    <path clip-path="url(#pa15c17fd23)" d="M 346.413441 328.74225 
L 351.199184 328.74225 
L 351.199184 319.23825 
L 346.413441 319.23825 
z
" style="fill:#d95f0e;opacity:0.5;"/>
   </g>
   <g id="patch_49">
    <path clip-path="url(#pa15c17fd23)" d="M 352.39562 328.74225 
L 357.181362 328.74225 
L 357.181362 328.74225 
L 352.39562 328.74225 
z
" style="fill:#d95f0e;opacity:0.5;"/>
   </g>
   <g id="patch_50">
    <path clip-path="url(#pa15c17fd23)" d="M 358.377798 328.74225 
L 363.163541 328.74225 
L 363.163541 325.57425 
L 358.377798 325.57425 
z
" style="fill:#d95f0e;opacity:0.5;"/>
   </g>
   <g id="patch_51">
    <path clip-path="url(#pa15c17fd23)" d="M 364.359976 328.74225 
L 369.145719 328.74225 
L 369.145719 325.57425 
L 364.359976 325.57425 
z
" style="fill:#d95f0e;opacity:0.5;"/>
   </g>
   <g id="patch_52">
    <path clip-path="url(#pa15c17fd23)" d="M 370.342155 328.74225 
L 375.127898 328.74225 
L 375.127898 325.57425 
L 370.342155 325.57425 
z
" style="fill:#d95f0e;opacity:0.5;"/>
   </g>
   <g id="patch_53">
    <path clip-path="url(#pa15c17fd23)" d="M 50.473352 328.74225 
L 55.259095 328.74225 
L 55.259095 265.38225 
L 50.473352 265.38225 
z
" style="fill:#43a2ca;opacity:0.8;"/>
   </g>
   <g id="patch_54">
    <path clip-path="url(#pa15c17fd23)" d="M 56.012544 328.74225 
L 60.798286 328.74225 
L 60.798286 328.74225 
L 56.012544 328.74225 
z
" style="fill:#43a2ca;opacity:0.8;"/>
   </g>
   <g id="patch_55">
    <path clip-path="url(#pa15c17fd23)" d="M 61.551735 328.74225 
L 66.337478 328.74225 
L 66.337478 328.74225 
L 61.551735 328.74225 
z
" style="fill:#43a2ca;opacity:0.8;"/>
   </g>
   <g id="patch_56">
    <path clip-path="url(#pa15c17fd23)" d="M 67.090927 328.74225 
L 71.876669 328.74225 
L 71.876669 328.74225 
L 67.090927 328.74225 
z
" style="fill:#43a2ca;opacity:0.8;"/>
   </g>
   <g id="patch_57">
    <path clip-path="url(#pa15c17fd23)" d="M 72.630118 328.74225 
L 77.415861 328.74225 
L 77.415861 328.74225 
L 72.630118 328.74225 
z
" style="fill:#43a2ca;opacity:0.8;"/>
   </g>
   <g id="patch_58">
    <path clip-path="url(#pa15c17fd23)" d="M 78.169309 328.74225 
L 82.955052 328.74225 
L 82.955052 328.74225 
L 78.169309 328.74225 
z
" style="fill:#43a2ca;opacity:0.8;"/>
   </g>
   <g id="patch_59">
    <path clip-path="url(#pa15c17fd23)" d="M 83.708501 328.74225 
L 88.494244 328.74225 
L 88.494244 328.74225 
L 83.708501 328.74225 
z
" style="fill:#43a2ca;opacity:0.8;"/>
   </g>
   <g id="patch_60">
    <path clip-path="url(#pa15c17fd23)" d="M 89.247692 328.74225 
L 94.033435 328.74225 
L 94.033435 328.74225 
L 89.247692 328.74225 
z
" style="fill:#43a2ca;opacity:0.8;"/>
   </g>
   <g id="patch_61">
    <path clip-path="url(#pa15c17fd23)" d="M 94.786884 328.74225 
L 99.572627 328.74225 
L 99.572627 297.06225 
L 94.786884 297.06225 
z
" style="fill:#43a2ca;opacity:0.8;"/>
   </g>
   <g id="patch_62">
    <path clip-path="url(#pa15c17fd23)" d="M 100.326075 328.74225 
L 105.111818 328.74225 
L 105.111818 328.74225 
L 100.326075 328.74225 
z
" style="fill:#43a2ca;opacity:0.8;"/>
   </g>
   <g id="patch_63">
    <path clip-path="url(#pa15c17fd23)" d="M 105.865267 328.74225 
L 110.651009 328.74225 
L 110.651009 328.74225 
L 105.865267 328.74225 
z
" style="fill:#43a2ca;opacity:0.8;"/>
   </g>
   <g id="patch_64">
    <path clip-path="url(#pa15c17fd23)" d="M 111.404458 328.74225 
L 116.190201 328.74225 
L 116.190201 297.06225 
L 111.404458 297.06225 
z
" style="fill:#43a2ca;opacity:0.8;"/>
   </g>
   <g id="patch_65">
    <path clip-path="url(#pa15c17fd23)" d="M 116.94365 328.74225 
L 121.729392 328.74225 
L 121.729392 328.74225 
L 116.94365 328.74225 
z
" style="fill:#43a2ca;opacity:0.8;"/>
   </g>
   <g id="patch_66">
    <path clip-path="url(#pa15c17fd23)" d="M 122.482841 328.74225 
L 127.268584 328.74225 
L 127.268584 265.38225 
L 122.482841 265.38225 
z
" style="fill:#43a2ca;opacity:0.8;"/>
   </g>
   <g id="patch_67">
    <path clip-path="url(#pa15c17fd23)" d="M 128.022032 328.74225 
L 132.807775 328.74225 
L 132.807775 328.74225 
L 128.022032 328.74225 
z
" style="fill:#43a2ca;opacity:0.8;"/>
   </g>
   <g id="patch_68">
    <path clip-path="url(#pa15c17fd23)" d="M 133.561224 328.74225 
L 138.346967 328.74225 
L 138.346967 233.70225 
L 133.561224 233.70225 
z
" style="fill:#43a2ca;opacity:0.8;"/>
   </g>
   <g id="patch_69">
    <path clip-path="url(#pa15c17fd23)" d="M 139.100415 328.74225 
L 143.886158 328.74225 
L 143.886158 233.70225 
L 139.100415 233.70225 
z
" style="fill:#43a2ca;opacity:0.8;"/>
   </g>
   <g id="patch_70">
    <path clip-path="url(#pa15c17fd23)" d="M 144.639607 328.74225 
L 149.42535 328.74225 
L 149.42535 265.38225 
L 144.639607 265.38225 
z
" style="fill:#43a2ca;opacity:0.8;"/>
   </g>
   <g id="patch_71">
    <path clip-path="url(#pa15c17fd23)" d="M 150.178798 328.74225 
L 154.964541 328.74225 
L 154.964541 233.70225 
L 150.178798 233.70225 
z
" style="fill:#43a2ca;opacity:0.8;"/>
   </g>
   <g id="patch_72">
    <path clip-path="url(#pa15c17fd23)" d="M 155.71799 328.74225 
L 160.503732 328.74225 
L 160.503732 265.38225 
L 155.71799 265.38225 
z
" style="fill:#43a2ca;opacity:0.8;"/>
   </g>
   <g id="patch_73">
    <path clip-path="url(#pa15c17fd23)" d="M 161.257181 328.74225 
L 166.042924 328.74225 
L 166.042924 75.30225 
L 161.257181 75.30225 
z
" style="fill:#43a2ca;opacity:0.8;"/>
   </g>
   <g id="patch_74">
    <path clip-path="url(#pa15c17fd23)" d="M 166.796373 328.74225 
L 171.582115 328.74225 
L 171.582115 265.38225 
L 166.796373 265.38225 
z
" style="fill:#43a2ca;opacity:0.8;"/>
   </g>
   <g id="patch_75">
    <path clip-path="url(#pa15c17fd23)" d="M 172.335564 328.74225 
L 177.121307 328.74225 
L 177.121307 297.06225 
L 172.335564 297.06225 
z
" style="fill:#43a2ca;opacity:0.8;"/>
   </g>
   <g id="patch_76">
    <path clip-path="url(#pa15c17fd23)" d="M 177.874755 328.74225 
L 182.660498 328.74225 
L 182.660498 328.74225 
L 177.874755 328.74225 
z
" style="fill:#43a2ca;opacity:0.8;"/>
   </g>
   <g id="patch_77">
    <path clip-path="url(#pa15c17fd23)" d="M 183.413947 328.74225 
L 188.19969 328.74225 
L 188.19969 328.74225 
L 183.413947 328.74225 
z
" style="fill:#43a2ca;opacity:0.8;"/>
   </g>
   <g id="patch_78">
    <path clip-path="url(#pa15c17fd23)" d="M 188.953138 328.74225 
L 193.738881 328.74225 
L 193.738881 328.74225 
L 188.953138 328.74225 
z
" style="fill:#43a2ca;opacity:0.8;"/>
   </g>
   <g id="patch_79">
    <path clip-path="url(#pa15c17fd23)" d="M 194.49233 328.74225 
L 199.278073 328.74225 
L 199.278073 328.74225 
L 194.49233 328.74225 
z
" style="fill:#43a2ca;opacity:0.8;"/>
   </g>
   <g id="patch_80">
    <path clip-path="url(#pa15c17fd23)" d="M 200.031521 328.74225 
L 204.817264 328.74225 
L 204.817264 233.70225 
L 200.031521 233.70225 
z
" style="fill:#43a2ca;opacity:0.8;"/>
   </g>
   <g id="patch_81">
    <path clip-path="url(#pa15c17fd23)" d="M 205.570713 328.74225 
L 210.356455 328.74225 
L 210.356455 297.06225 
L 205.570713 297.06225 
z
" style="fill:#43a2ca;opacity:0.8;"/>
   </g>
   <g id="patch_82">
    <path clip-path="url(#pa15c17fd23)" d="M 211.109904 328.74225 
L 215.895647 328.74225 
L 215.895647 297.06225 
L 211.109904 297.06225 
z
" style="fill:#43a2ca;opacity:0.8;"/>
   </g>
   <g id="patch_83">
    <path clip-path="url(#pa15c17fd23)" d="M 216.649096 328.74225 
L 221.434838 328.74225 
L 221.434838 265.38225 
L 216.649096 265.38225 
z
" style="fill:#43a2ca;opacity:0.8;"/>
   </g>
   <g id="patch_84">
    <path clip-path="url(#pa15c17fd23)" d="M 222.188287 328.74225 
L 226.97403 328.74225 
L 226.97403 202.02225 
L 222.188287 202.02225 
z
" style="fill:#43a2ca;opacity:0.8;"/>
   </g>
   <g id="patch_85">
    <path clip-path="url(#pa15c17fd23)" d="M 227.727478 328.74225 
L 232.513221 328.74225 
L 232.513221 297.06225 
L 227.727478 297.06225 
z
" style="fill:#43a2ca;opacity:0.8;"/>
   </g>
   <g id="patch_86">
    <path clip-path="url(#pa15c17fd23)" d="M 233.26667 328.74225 
L 238.052413 328.74225 
L 238.052413 328.74225 
L 233.26667 328.74225 
z
" style="fill:#43a2ca;opacity:0.8;"/>
   </g>
   <g id="patch_87">
    <path clip-path="url(#pa15c17fd23)" d="M 238.805861 328.74225 
L 243.591604 328.74225 
L 243.591604 328.74225 
L 238.805861 328.74225 
z
" style="fill:#43a2ca;opacity:0.8;"/>
   </g>
   <g id="patch_88">
    <path clip-path="url(#pa15c17fd23)" d="M 244.345053 328.74225 
L 249.130796 328.74225 
L 249.130796 170.34225 
L 244.345053 170.34225 
z
" style="fill:#43a2ca;opacity:0.8;"/>
   </g>
   <g id="patch_89">
    <path clip-path="url(#pa15c17fd23)" d="M 249.884244 328.74225 
L 254.669987 328.74225 
L 254.669987 265.38225 
L 249.884244 265.38225 
z
" style="fill:#43a2ca;opacity:0.8;"/>
   </g>
   <g id="patch_90">
    <path clip-path="url(#pa15c17fd23)" d="M 255.423436 328.74225 
L 260.209178 328.74225 
L 260.209178 297.06225 
L 255.423436 297.06225 
z
" style="fill:#43a2ca;opacity:0.8;"/>
   </g>
   <g id="patch_91">
    <path clip-path="url(#pa15c17fd23)" d="M 260.962627 328.74225 
L 265.74837 328.74225 
L 265.74837 297.06225 
L 260.962627 297.06225 
z
" style="fill:#43a2ca;opacity:0.8;"/>
   </g>
   <g id="patch_92">
    <path clip-path="url(#pa15c17fd23)" d="M 266.501819 328.74225 
L 271.287561 328.74225 
L 271.287561 202.02225 
L 266.501819 202.02225 
z
" style="fill:#43a2ca;opacity:0.8;"/>
   </g>
   <g id="patch_93">
    <path clip-path="url(#pa15c17fd23)" d="M 272.04101 328.74225 
L 276.826753 328.74225 
L 276.826753 297.06225 
L 272.04101 297.06225 
z
" style="fill:#43a2ca;opacity:0.8;"/>
   </g>
   <g id="patch_94">
    <path clip-path="url(#pa15c17fd23)" d="M 277.580201 328.74225 
L 282.365944 328.74225 
L 282.365944 297.06225 
L 277.580201 297.06225 
z
" style="fill:#43a2ca;opacity:0.8;"/>
   </g>
   <g id="patch_95">
    <path clip-path="url(#pa15c17fd23)" d="M 283.119393 328.74225 
L 287.905136 328.74225 
L 287.905136 265.38225 
L 283.119393 265.38225 
z
" style="fill:#43a2ca;opacity:0.8;"/>
   </g>
   <g id="patch_96">
    <path clip-path="url(#pa15c17fd23)" d="M 288.658584 328.74225 
L 293.444327 328.74225 
L 293.444327 265.38225 
L 288.658584 265.38225 
z
" style="fill:#43a2ca;opacity:0.8;"/>
   </g>
   <g id="patch_97">
    <path clip-path="url(#pa15c17fd23)" d="M 294.197776 328.74225 
L 298.983519 328.74225 
L 298.983519 297.06225 
L 294.197776 297.06225 
z
" style="fill:#43a2ca;opacity:0.8;"/>
   </g>
   <g id="patch_98">
    <path clip-path="url(#pa15c17fd23)" d="M 299.736967 328.74225 
L 304.52271 328.74225 
L 304.52271 328.74225 
L 299.736967 328.74225 
z
" style="fill:#43a2ca;opacity:0.8;"/>
   </g>
   <g id="patch_99">
    <path clip-path="url(#pa15c17fd23)" d="M 305.276159 328.74225 
L 310.061901 328.74225 
L 310.061901 328.74225 
L 305.276159 328.74225 
z
" style="fill:#43a2ca;opacity:0.8;"/>
   </g>
   <g id="patch_100">
    <path clip-path="url(#pa15c17fd23)" d="M 310.81535 328.74225 
L 315.601093 328.74225 
L 315.601093 265.38225 
L 310.81535 265.38225 
z
" style="fill:#43a2ca;opacity:0.8;"/>
   </g>
   <g id="patch_101">
    <path clip-path="url(#pa15c17fd23)" d="M 316.354542 328.74225 
L 321.140284 328.74225 
L 321.140284 328.74225 
L 316.354542 328.74225 
z
" style="fill:#43a2ca;opacity:0.8;"/>
   </g>
   <g id="patch_102">
    <path clip-path="url(#pa15c17fd23)" d="M 321.893733 328.74225 
L 326.679476 328.74225 
L 326.679476 297.06225 
L 321.893733 297.06225 
z
" style="fill:#43a2ca;opacity:0.8;"/>
   </g>
   <g id="matplotlib.axis_1">
    <g id="xtick_1">
     <g id="line2d_1">
      <defs>
       <path d="M 0 0 
L 0 3.5 
" id="m3c3e2f75a4" style="stroke:#000000;stroke-width:0.8;"/>
      </defs>
      <g>
       <use style="stroke:#000000;stroke-width:0.8;" x="52.984204" xlink:href="#m3c3e2f75a4" y="328.74225"/>
      </g>
     </g>
     <g id="text_1">
      <!-- −0.6 -->
      <defs>
       <path d="M 10.59375 35.5 
L 73.1875 35.5 
L 73.1875 27.203125 
L 10.59375 27.203125 
z
" id="DejaVuSans-8722"/>
       <path d="M 31.78125 66.40625 
Q 24.171875 66.40625 20.328125 58.90625 
Q 16.5 51.421875 16.5 36.375 
Q 16.5 21.390625 20.328125 13.890625 
Q 24.171875 6.390625 31.78125 6.390625 
Q 39.453125 6.390625 43.28125 13.890625 
Q 47.125 21.390625 47.125 36.375 
Q 47.125 51.421875 43.28125 58.90625 
Q 39.453125 66.40625 31.78125 66.40625 
z
M 31.78125 74.21875 
Q 44.046875 74.21875 50.515625 64.515625 
Q 56.984375 54.828125 56.984375 36.375 
Q 56.984375 17.96875 50.515625 8.265625 
Q 44.046875 -1.421875 31.78125 -1.421875 
Q 19.53125 -1.421875 13.0625 8.265625 
Q 6.59375 17.96875 6.59375 36.375 
Q 6.59375 54.828125 13.0625 64.515625 
Q 19.53125 74.21875 31.78125 74.21875 
z
" id="DejaVuSans-48"/>
       <path d="M 10.6875 12.40625 
L 21 12.40625 
L 21 0 
L 10.6875 0 
z
" id="DejaVuSans-46"/>
       <path d="M 33.015625 40.375 
Q 26.375 40.375 22.484375 35.828125 
Q 18.609375 31.296875 18.609375 23.390625 
Q 18.609375 15.53125 22.484375 10.953125 
Q 26.375 6.390625 33.015625 6.390625 
Q 39.65625 6.390625 43.53125 10.953125 
Q 47.40625 15.53125 47.40625 23.390625 
Q 47.40625 31.296875 43.53125 35.828125 
Q 39.65625 40.375 33.015625 40.375 
z
M 52.59375 71.296875 
L 52.59375 62.3125 
Q 48.875 64.0625 45.09375 64.984375 
Q 41.3125 65.921875 37.59375 65.921875 
Q 27.828125 65.921875 22.671875 59.328125 
Q 17.53125 52.734375 16.796875 39.40625 
Q 19.671875 43.65625 24.015625 45.921875 
Q 28.375 48.1875 33.59375 48.1875 
Q 44.578125 48.1875 50.953125 41.515625 
Q 57.328125 34.859375 57.328125 23.390625 
Q 57.328125 12.15625 50.6875 5.359375 
Q 44.046875 -1.421875 33.015625 -1.421875 
Q 20.359375 -1.421875 13.671875 8.265625 
Q 6.984375 17.96875 6.984375 36.375 
Q 6.984375 53.65625 15.1875 63.9375 
Q 23.390625 74.21875 37.203125 74.21875 
Q 40.921875 74.21875 44.703125 73.484375 
Q 48.484375 72.75 52.59375 71.296875 
z
" id="DejaVuSans-54"/>
      </defs>
      <g transform="translate(40.842798 343.340687)scale(0.1 -0.1)">
       <use xlink:href="#DejaVuSans-8722"/>
       <use x="83.789062" xlink:href="#DejaVuSans-48"/>
       <use x="147.412109" xlink:href="#DejaVuSans-46"/>
       <use x="179.199219" xlink:href="#DejaVuSans-54"/>
      </g>
     </g>
    </g>
    <g id="xtick_2">
     <g id="line2d_2">
      <g>
       <use style="stroke:#000000;stroke-width:0.8;" x="108.351623" xlink:href="#m3c3e2f75a4" y="328.74225"/>
      </g>
     </g>
     <g id="text_2">
      <!-- −0.4 -->
      <defs>
       <path d="M 37.796875 64.3125 
L 12.890625 25.390625 
L 37.796875 25.390625 
z
M 35.203125 72.90625 
L 47.609375 72.90625 
L 47.609375 25.390625 
L 58.015625 25.390625 
L 58.015625 17.1875 
L 47.609375 17.1875 
L 47.609375 0 
L 37.796875 0 
L 37.796875 17.1875 
L 4.890625 17.1875 
L 4.890625 26.703125 
z
" id="DejaVuSans-52"/>
      </defs>
      <g transform="translate(96.210217 343.340687)scale(0.1 -0.1)">
       <use xlink:href="#DejaVuSans-8722"/>
       <use x="83.789062" xlink:href="#DejaVuSans-48"/>
       <use x="147.412109" xlink:href="#DejaVuSans-46"/>
       <use x="179.199219" xlink:href="#DejaVuSans-52"/>
      </g>
     </g>
    </g>
    <g id="xtick_3">
     <g id="line2d_3">
      <g>
       <use style="stroke:#000000;stroke-width:0.8;" x="163.719043" xlink:href="#m3c3e2f75a4" y="328.74225"/>
      </g>
     </g>
     <g id="text_3">
      <!-- −0.2 -->
      <defs>
       <path d="M 19.1875 8.296875 
L 53.609375 8.296875 
L 53.609375 0 
L 7.328125 0 
L 7.328125 8.296875 
Q 12.9375 14.109375 22.625 23.890625 
Q 32.328125 33.6875 34.8125 36.53125 
Q 39.546875 41.84375 41.421875 45.53125 
Q 43.3125 49.21875 43.3125 52.78125 
Q 43.3125 58.59375 39.234375 62.25 
Q 35.15625 65.921875 28.609375 65.921875 
Q 23.96875 65.921875 18.8125 64.3125 
Q 13.671875 62.703125 7.8125 59.421875 
L 7.8125 69.390625 
Q 13.765625 71.78125 18.9375 73 
Q 24.125 74.21875 28.421875 74.21875 
Q 39.75 74.21875 46.484375 68.546875 
Q 53.21875 62.890625 53.21875 53.421875 
Q 53.21875 48.921875 51.53125 44.890625 
Q 49.859375 40.875 45.40625 35.40625 
Q 44.1875 33.984375 37.640625 27.21875 
Q 31.109375 20.453125 19.1875 8.296875 
z
" id="DejaVuSans-50"/>
      </defs>
      <g transform="translate(151.577637 343.340687)scale(0.1 -0.1)">
       <use xlink:href="#DejaVuSans-8722"/>
       <use x="83.789062" xlink:href="#DejaVuSans-48"/>
       <use x="147.412109" xlink:href="#DejaVuSans-46"/>
       <use x="179.199219" xlink:href="#DejaVuSans-50"/>
      </g>
     </g>
    </g>
    <g id="xtick_4">
     <g id="line2d_4">
      <g>
       <use style="stroke:#000000;stroke-width:0.8;" x="219.086463" xlink:href="#m3c3e2f75a4" y="328.74225"/>
      </g>
     </g>
     <g id="text_4">
      <!-- 0.0 -->
      <g transform="translate(211.1349 343.340687)scale(0.1 -0.1)">
       <use xlink:href="#DejaVuSans-48"/>
       <use x="63.623047" xlink:href="#DejaVuSans-46"/>
       <use x="95.410156" xlink:href="#DejaVuSans-48"/>
      </g>
     </g>
    </g>
    <g id="xtick_5">
     <g id="line2d_5">
      <g>
       <use style="stroke:#000000;stroke-width:0.8;" x="274.453882" xlink:href="#m3c3e2f75a4" y="328.74225"/>
      </g>
     </g>
     <g id="text_5">
      <!-- 0.2 -->
      <g transform="translate(266.50232 343.340687)scale(0.1 -0.1)">
       <use xlink:href="#DejaVuSans-48"/>
       <use x="63.623047" xlink:href="#DejaVuSans-46"/>
       <use x="95.410156" xlink:href="#DejaVuSans-50"/>
      </g>
     </g>
    </g>
    <g id="xtick_6">
     <g id="line2d_6">
      <g>
       <use style="stroke:#000000;stroke-width:0.8;" x="329.821302" xlink:href="#m3c3e2f75a4" y="328.74225"/>
      </g>
     </g>
     <g id="text_6">
      <!-- 0.4 -->
      <g transform="translate(321.869739 343.340687)scale(0.1 -0.1)">
       <use xlink:href="#DejaVuSans-48"/>
       <use x="63.623047" xlink:href="#DejaVuSans-46"/>
       <use x="95.410156" xlink:href="#DejaVuSans-52"/>
      </g>
     </g>
    </g>
    <g id="xtick_7">
     <g id="line2d_7">
      <g>
       <use style="stroke:#000000;stroke-width:0.8;" x="385.188721" xlink:href="#m3c3e2f75a4" y="328.74225"/>
      </g>
     </g>
     <g id="text_7">
      <!-- 0.6 -->
      <g transform="translate(377.237159 343.340687)scale(0.1 -0.1)">
       <use xlink:href="#DejaVuSans-48"/>
       <use x="63.623047" xlink:href="#DejaVuSans-46"/>
       <use x="95.410156" xlink:href="#DejaVuSans-54"/>
      </g>
     </g>
    </g>
    <g id="text_8">
     <!-- Rho value -->
     <defs>
      <path d="M 44.390625 34.1875 
Q 47.5625 33.109375 50.5625 29.59375 
Q 53.5625 26.078125 56.59375 19.921875 
L 66.609375 0 
L 56 0 
L 46.6875 18.703125 
Q 43.0625 26.03125 39.671875 28.421875 
Q 36.28125 30.8125 30.421875 30.8125 
L 19.671875 30.8125 
L 19.671875 0 
L 9.8125 0 
L 9.8125 72.90625 
L 32.078125 72.90625 
Q 44.578125 72.90625 50.734375 67.671875 
Q 56.890625 62.453125 56.890625 51.90625 
Q 56.890625 45.015625 53.6875 40.46875 
Q 50.484375 35.9375 44.390625 34.1875 
z
M 19.671875 64.796875 
L 19.671875 38.921875 
L 32.078125 38.921875 
Q 39.203125 38.921875 42.84375 42.21875 
Q 46.484375 45.515625 46.484375 51.90625 
Q 46.484375 58.296875 42.84375 61.546875 
Q 39.203125 64.796875 32.078125 64.796875 
z
" id="DejaVuSans-82"/>
      <path d="M 54.890625 33.015625 
L 54.890625 0 
L 45.90625 0 
L 45.90625 32.71875 
Q 45.90625 40.484375 42.875 44.328125 
Q 39.84375 48.1875 33.796875 48.1875 
Q 26.515625 48.1875 22.3125 43.546875 
Q 18.109375 38.921875 18.109375 30.90625 
L 18.109375 0 
L 9.078125 0 
L 9.078125 75.984375 
L 18.109375 75.984375 
L 18.109375 46.1875 
Q 21.34375 51.125 25.703125 53.5625 
Q 30.078125 56 35.796875 56 
Q 45.21875 56 50.046875 50.171875 
Q 54.890625 44.34375 54.890625 33.015625 
z
" id="DejaVuSans-104"/>
      <path d="M 30.609375 48.390625 
Q 23.390625 48.390625 19.1875 42.75 
Q 14.984375 37.109375 14.984375 27.296875 
Q 14.984375 17.484375 19.15625 11.84375 
Q 23.34375 6.203125 30.609375 6.203125 
Q 37.796875 6.203125 41.984375 11.859375 
Q 46.1875 17.53125 46.1875 27.296875 
Q 46.1875 37.015625 41.984375 42.703125 
Q 37.796875 48.390625 30.609375 48.390625 
z
M 30.609375 56 
Q 42.328125 56 49.015625 48.375 
Q 55.71875 40.765625 55.71875 27.296875 
Q 55.71875 13.875 49.015625 6.21875 
Q 42.328125 -1.421875 30.609375 -1.421875 
Q 18.84375 -1.421875 12.171875 6.21875 
Q 5.515625 13.875 5.515625 27.296875 
Q 5.515625 40.765625 12.171875 48.375 
Q 18.84375 56 30.609375 56 
z
" id="DejaVuSans-111"/>
      <path id="DejaVuSans-32"/>
      <path d="M 2.984375 54.6875 
L 12.5 54.6875 
L 29.59375 8.796875 
L 46.6875 54.6875 
L 56.203125 54.6875 
L 35.6875 0 
L 23.484375 0 
z
" id="DejaVuSans-118"/>
      <path d="M 34.28125 27.484375 
Q 23.390625 27.484375 19.1875 25 
Q 14.984375 22.515625 14.984375 16.5 
Q 14.984375 11.71875 18.140625 8.90625 
Q 21.296875 6.109375 26.703125 6.109375 
Q 34.1875 6.109375 38.703125 11.40625 
Q 43.21875 16.703125 43.21875 25.484375 
L 43.21875 27.484375 
z
M 52.203125 31.203125 
L 52.203125 0 
L 43.21875 0 
L 43.21875 8.296875 
Q 40.140625 3.328125 35.546875 0.953125 
Q 30.953125 -1.421875 24.3125 -1.421875 
Q 15.921875 -1.421875 10.953125 3.296875 
Q 6 8.015625 6 15.921875 
Q 6 25.140625 12.171875 29.828125 
Q 18.359375 34.515625 30.609375 34.515625 
L 43.21875 34.515625 
L 43.21875 35.40625 
Q 43.21875 41.609375 39.140625 45 
Q 35.0625 48.390625 27.6875 48.390625 
Q 23 48.390625 18.546875 47.265625 
Q 14.109375 46.140625 10.015625 43.890625 
L 10.015625 52.203125 
Q 14.9375 54.109375 19.578125 55.046875 
Q 24.21875 56 28.609375 56 
Q 40.484375 56 46.34375 49.84375 
Q 52.203125 43.703125 52.203125 31.203125 
z
" id="DejaVuSans-97"/>
      <path d="M 9.421875 75.984375 
L 18.40625 75.984375 
L 18.40625 0 
L 9.421875 0 
z
" id="DejaVuSans-108"/>
      <path d="M 8.5 21.578125 
L 8.5 54.6875 
L 17.484375 54.6875 
L 17.484375 21.921875 
Q 17.484375 14.15625 20.5 10.265625 
Q 23.53125 6.390625 29.59375 6.390625 
Q 36.859375 6.390625 41.078125 11.03125 
Q 45.3125 15.671875 45.3125 23.6875 
L 45.3125 54.6875 
L 54.296875 54.6875 
L 54.296875 0 
L 45.3125 0 
L 45.3125 8.40625 
Q 42.046875 3.421875 37.71875 1 
Q 33.40625 -1.421875 27.6875 -1.421875 
Q 18.265625 -1.421875 13.375 4.4375 
Q 8.5 10.296875 8.5 21.578125 
z
M 31.109375 56 
z
" id="DejaVuSans-117"/>
      <path d="M 56.203125 29.59375 
L 56.203125 25.203125 
L 14.890625 25.203125 
Q 15.484375 15.921875 20.484375 11.0625 
Q 25.484375 6.203125 34.421875 6.203125 
Q 39.59375 6.203125 44.453125 7.46875 
Q 49.3125 8.734375 54.109375 11.28125 
L 54.109375 2.78125 
Q 49.265625 0.734375 44.1875 -0.34375 
Q 39.109375 -1.421875 33.890625 -1.421875 
Q 20.796875 -1.421875 13.15625 6.1875 
Q 5.515625 13.8125 5.515625 26.8125 
Q 5.515625 40.234375 12.765625 48.109375 
Q 20.015625 56 32.328125 56 
Q 43.359375 56 49.78125 48.890625 
Q 56.203125 41.796875 56.203125 29.59375 
z
M 47.21875 32.234375 
Q 47.125 39.59375 43.09375 43.984375 
Q 39.0625 48.390625 32.421875 48.390625 
Q 24.90625 48.390625 20.390625 44.140625 
Q 15.875 39.890625 15.1875 32.171875 
z
" id="DejaVuSans-101"/>
     </defs>
     <g transform="translate(187.851406 357.018812)scale(0.1 -0.1)">
      <use xlink:href="#DejaVuSans-82"/>
      <use x="69.482422" xlink:href="#DejaVuSans-104"/>
      <use x="132.861328" xlink:href="#DejaVuSans-111"/>
      <use x="194.042969" xlink:href="#DejaVuSans-32"/>
      <use x="225.830078" xlink:href="#DejaVuSans-118"/>
      <use x="285.009766" xlink:href="#DejaVuSans-97"/>
      <use x="346.289062" xlink:href="#DejaVuSans-108"/>
      <use x="374.072266" xlink:href="#DejaVuSans-117"/>
      <use x="437.451172" xlink:href="#DejaVuSans-101"/>
     </g>
    </g>
   </g>
   <g id="matplotlib.axis_2">
    <g id="ytick_1">
     <g id="line2d_8">
      <defs>
       <path d="M 0 0 
L -3.5 0 
" id="mcddba56c9a" style="stroke:#000000;stroke-width:0.8;"/>
      </defs>
      <g>
       <use style="stroke:#000000;stroke-width:0.8;" x="34.240625" xlink:href="#mcddba56c9a" y="328.74225"/>
      </g>
     </g>
     <g id="text_9">
      <!-- 0 -->
      <g transform="translate(20.878125 332.541469)scale(0.1 -0.1)">
       <use xlink:href="#DejaVuSans-48"/>
      </g>
     </g>
    </g>
    <g id="ytick_2">
     <g id="line2d_9">
      <g>
       <use style="stroke:#000000;stroke-width:0.8;" x="34.240625" xlink:href="#mcddba56c9a" y="297.06225"/>
      </g>
     </g>
     <g id="text_10">
      <!-- 1 -->
      <defs>
       <path d="M 12.40625 8.296875 
L 28.515625 8.296875 
L 28.515625 63.921875 
L 10.984375 60.40625 
L 10.984375 69.390625 
L 28.421875 72.90625 
L 38.28125 72.90625 
L 38.28125 8.296875 
L 54.390625 8.296875 
L 54.390625 0 
L 12.40625 0 
z
" id="DejaVuSans-49"/>
      </defs>
      <g transform="translate(20.878125 300.861469)scale(0.1 -0.1)">
       <use xlink:href="#DejaVuSans-49"/>
      </g>
     </g>
    </g>
    <g id="ytick_3">
     <g id="line2d_10">
      <g>
       <use style="stroke:#000000;stroke-width:0.8;" x="34.240625" xlink:href="#mcddba56c9a" y="265.38225"/>
      </g>
     </g>
     <g id="text_11">
      <!-- 2 -->
      <g transform="translate(20.878125 269.181469)scale(0.1 -0.1)">
       <use xlink:href="#DejaVuSans-50"/>
      </g>
     </g>
    </g>
    <g id="ytick_4">
     <g id="line2d_11">
      <g>
       <use style="stroke:#000000;stroke-width:0.8;" x="34.240625" xlink:href="#mcddba56c9a" y="233.70225"/>
      </g>
     </g>
     <g id="text_12">
      <!-- 3 -->
      <defs>
       <path d="M 40.578125 39.3125 
Q 47.65625 37.796875 51.625 33 
Q 55.609375 28.21875 55.609375 21.1875 
Q 55.609375 10.40625 48.1875 4.484375 
Q 40.765625 -1.421875 27.09375 -1.421875 
Q 22.515625 -1.421875 17.65625 -0.515625 
Q 12.796875 0.390625 7.625 2.203125 
L 7.625 11.71875 
Q 11.71875 9.328125 16.59375 8.109375 
Q 21.484375 6.890625 26.8125 6.890625 
Q 36.078125 6.890625 40.9375 10.546875 
Q 45.796875 14.203125 45.796875 21.1875 
Q 45.796875 27.640625 41.28125 31.265625 
Q 36.765625 34.90625 28.71875 34.90625 
L 20.21875 34.90625 
L 20.21875 43.015625 
L 29.109375 43.015625 
Q 36.375 43.015625 40.234375 45.921875 
Q 44.09375 48.828125 44.09375 54.296875 
Q 44.09375 59.90625 40.109375 62.90625 
Q 36.140625 65.921875 28.71875 65.921875 
Q 24.65625 65.921875 20.015625 65.03125 
Q 15.375 64.15625 9.8125 62.3125 
L 9.8125 71.09375 
Q 15.4375 72.65625 20.34375 73.4375 
Q 25.25 74.21875 29.59375 74.21875 
Q 40.828125 74.21875 47.359375 69.109375 
Q 53.90625 64.015625 53.90625 55.328125 
Q 53.90625 49.265625 50.4375 45.09375 
Q 46.96875 40.921875 40.578125 39.3125 
z
" id="DejaVuSans-51"/>
      </defs>
      <g transform="translate(20.878125 237.501469)scale(0.1 -0.1)">
       <use xlink:href="#DejaVuSans-51"/>
      </g>
     </g>
    </g>
    <g id="ytick_5">
     <g id="line2d_12">
      <g>
       <use style="stroke:#000000;stroke-width:0.8;" x="34.240625" xlink:href="#mcddba56c9a" y="202.02225"/>
      </g>
     </g>
     <g id="text_13">
      <!-- 4 -->
      <g transform="translate(20.878125 205.821469)scale(0.1 -0.1)">
       <use xlink:href="#DejaVuSans-52"/>
      </g>
     </g>
    </g>
    <g id="ytick_6">
     <g id="line2d_13">
      <g>
       <use style="stroke:#000000;stroke-width:0.8;" x="34.240625" xlink:href="#mcddba56c9a" y="170.34225"/>
      </g>
     </g>
     <g id="text_14">
      <!-- 5 -->
      <defs>
       <path d="M 10.796875 72.90625 
L 49.515625 72.90625 
L 49.515625 64.59375 
L 19.828125 64.59375 
L 19.828125 46.734375 
Q 21.96875 47.46875 24.109375 47.828125 
Q 26.265625 48.1875 28.421875 48.1875 
Q 40.625 48.1875 47.75 41.5 
Q 54.890625 34.8125 54.890625 23.390625 
Q 54.890625 11.625 47.5625 5.09375 
Q 40.234375 -1.421875 26.90625 -1.421875 
Q 22.3125 -1.421875 17.546875 -0.640625 
Q 12.796875 0.140625 7.71875 1.703125 
L 7.71875 11.625 
Q 12.109375 9.234375 16.796875 8.0625 
Q 21.484375 6.890625 26.703125 6.890625 
Q 35.15625 6.890625 40.078125 11.328125 
Q 45.015625 15.765625 45.015625 23.390625 
Q 45.015625 31 40.078125 35.4375 
Q 35.15625 39.890625 26.703125 39.890625 
Q 22.75 39.890625 18.8125 39.015625 
Q 14.890625 38.140625 10.796875 36.28125 
z
" id="DejaVuSans-53"/>
      </defs>
      <g transform="translate(20.878125 174.141469)scale(0.1 -0.1)">
       <use xlink:href="#DejaVuSans-53"/>
      </g>
     </g>
    </g>
    <g id="ytick_7">
     <g id="line2d_14">
      <g>
       <use style="stroke:#000000;stroke-width:0.8;" x="34.240625" xlink:href="#mcddba56c9a" y="138.66225"/>
      </g>
     </g>
     <g id="text_15">
      <!-- 6 -->
      <g transform="translate(20.878125 142.461469)scale(0.1 -0.1)">
       <use xlink:href="#DejaVuSans-54"/>
      </g>
     </g>
    </g>
    <g id="ytick_8">
     <g id="line2d_15">
      <g>
       <use style="stroke:#000000;stroke-width:0.8;" x="34.240625" xlink:href="#mcddba56c9a" y="106.98225"/>
      </g>
     </g>
     <g id="text_16">
      <!-- 7 -->
      <defs>
       <path d="M 8.203125 72.90625 
L 55.078125 72.90625 
L 55.078125 68.703125 
L 28.609375 0 
L 18.3125 0 
L 43.21875 64.59375 
L 8.203125 64.59375 
z
" id="DejaVuSans-55"/>
      </defs>
      <g transform="translate(20.878125 110.781469)scale(0.1 -0.1)">
       <use xlink:href="#DejaVuSans-55"/>
      </g>
     </g>
    </g>
    <g id="ytick_9">
     <g id="line2d_16">
      <g>
       <use style="stroke:#000000;stroke-width:0.8;" x="34.240625" xlink:href="#mcddba56c9a" y="75.30225"/>
      </g>
     </g>
     <g id="text_17">
      <!-- 8 -->
      <defs>
       <path d="M 31.78125 34.625 
Q 24.75 34.625 20.71875 30.859375 
Q 16.703125 27.09375 16.703125 20.515625 
Q 16.703125 13.921875 20.71875 10.15625 
Q 24.75 6.390625 31.78125 6.390625 
Q 38.8125 6.390625 42.859375 10.171875 
Q 46.921875 13.96875 46.921875 20.515625 
Q 46.921875 27.09375 42.890625 30.859375 
Q 38.875 34.625 31.78125 34.625 
z
M 21.921875 38.8125 
Q 15.578125 40.375 12.03125 44.71875 
Q 8.5 49.078125 8.5 55.328125 
Q 8.5 64.0625 14.71875 69.140625 
Q 20.953125 74.21875 31.78125 74.21875 
Q 42.671875 74.21875 48.875 69.140625 
Q 55.078125 64.0625 55.078125 55.328125 
Q 55.078125 49.078125 51.53125 44.71875 
Q 48 40.375 41.703125 38.8125 
Q 48.828125 37.15625 52.796875 32.3125 
Q 56.78125 27.484375 56.78125 20.515625 
Q 56.78125 9.90625 50.3125 4.234375 
Q 43.84375 -1.421875 31.78125 -1.421875 
Q 19.734375 -1.421875 13.25 4.234375 
Q 6.78125 9.90625 6.78125 20.515625 
Q 6.78125 27.484375 10.78125 32.3125 
Q 14.796875 37.15625 21.921875 38.8125 
z
M 18.3125 54.390625 
Q 18.3125 48.734375 21.84375 45.5625 
Q 25.390625 42.390625 31.78125 42.390625 
Q 38.140625 42.390625 41.71875 45.5625 
Q 45.3125 48.734375 45.3125 54.390625 
Q 45.3125 60.0625 41.71875 63.234375 
Q 38.140625 66.40625 31.78125 66.40625 
Q 25.390625 66.40625 21.84375 63.234375 
Q 18.3125 60.0625 18.3125 54.390625 
z
" id="DejaVuSans-56"/>
      </defs>
      <g transform="translate(20.878125 79.101469)scale(0.1 -0.1)">
       <use xlink:href="#DejaVuSans-56"/>
      </g>
     </g>
    </g>
    <g id="text_18">
     <!-- Number of bacteria -->
     <defs>
      <path d="M 9.8125 72.90625 
L 23.09375 72.90625 
L 55.421875 11.921875 
L 55.421875 72.90625 
L 64.984375 72.90625 
L 64.984375 0 
L 51.703125 0 
L 19.390625 60.984375 
L 19.390625 0 
L 9.8125 0 
z
" id="DejaVuSans-78"/>
      <path d="M 52 44.1875 
Q 55.375 50.25 60.0625 53.125 
Q 64.75 56 71.09375 56 
Q 79.640625 56 84.28125 50.015625 
Q 88.921875 44.046875 88.921875 33.015625 
L 88.921875 0 
L 79.890625 0 
L 79.890625 32.71875 
Q 79.890625 40.578125 77.09375 44.375 
Q 74.3125 48.1875 68.609375 48.1875 
Q 61.625 48.1875 57.5625 43.546875 
Q 53.515625 38.921875 53.515625 30.90625 
L 53.515625 0 
L 44.484375 0 
L 44.484375 32.71875 
Q 44.484375 40.625 41.703125 44.40625 
Q 38.921875 48.1875 33.109375 48.1875 
Q 26.21875 48.1875 22.15625 43.53125 
Q 18.109375 38.875 18.109375 30.90625 
L 18.109375 0 
L 9.078125 0 
L 9.078125 54.6875 
L 18.109375 54.6875 
L 18.109375 46.1875 
Q 21.1875 51.21875 25.484375 53.609375 
Q 29.78125 56 35.6875 56 
Q 41.65625 56 45.828125 52.96875 
Q 50 49.953125 52 44.1875 
z
" id="DejaVuSans-109"/>
      <path d="M 48.6875 27.296875 
Q 48.6875 37.203125 44.609375 42.84375 
Q 40.53125 48.484375 33.40625 48.484375 
Q 26.265625 48.484375 22.1875 42.84375 
Q 18.109375 37.203125 18.109375 27.296875 
Q 18.109375 17.390625 22.1875 11.75 
Q 26.265625 6.109375 33.40625 6.109375 
Q 40.53125 6.109375 44.609375 11.75 
Q 48.6875 17.390625 48.6875 27.296875 
z
M 18.109375 46.390625 
Q 20.953125 51.265625 25.265625 53.625 
Q 29.59375 56 35.59375 56 
Q 45.5625 56 51.78125 48.09375 
Q 58.015625 40.1875 58.015625 27.296875 
Q 58.015625 14.40625 51.78125 6.484375 
Q 45.5625 -1.421875 35.59375 -1.421875 
Q 29.59375 -1.421875 25.265625 0.953125 
Q 20.953125 3.328125 18.109375 8.203125 
L 18.109375 0 
L 9.078125 0 
L 9.078125 75.984375 
L 18.109375 75.984375 
z
" id="DejaVuSans-98"/>
      <path d="M 41.109375 46.296875 
Q 39.59375 47.171875 37.8125 47.578125 
Q 36.03125 48 33.890625 48 
Q 26.265625 48 22.1875 43.046875 
Q 18.109375 38.09375 18.109375 28.8125 
L 18.109375 0 
L 9.078125 0 
L 9.078125 54.6875 
L 18.109375 54.6875 
L 18.109375 46.1875 
Q 20.953125 51.171875 25.484375 53.578125 
Q 30.03125 56 36.53125 56 
Q 37.453125 56 38.578125 55.875 
Q 39.703125 55.765625 41.0625 55.515625 
z
" id="DejaVuSans-114"/>
      <path d="M 37.109375 75.984375 
L 37.109375 68.5 
L 28.515625 68.5 
Q 23.6875 68.5 21.796875 66.546875 
Q 19.921875 64.59375 19.921875 59.515625 
L 19.921875 54.6875 
L 34.71875 54.6875 
L 34.71875 47.703125 
L 19.921875 47.703125 
L 19.921875 0 
L 10.890625 0 
L 10.890625 47.703125 
L 2.296875 47.703125 
L 2.296875 54.6875 
L 10.890625 54.6875 
L 10.890625 58.5 
Q 10.890625 67.625 15.140625 71.796875 
Q 19.390625 75.984375 28.609375 75.984375 
z
" id="DejaVuSans-102"/>
      <path d="M 48.78125 52.59375 
L 48.78125 44.1875 
Q 44.96875 46.296875 41.140625 47.34375 
Q 37.3125 48.390625 33.40625 48.390625 
Q 24.65625 48.390625 19.8125 42.84375 
Q 14.984375 37.3125 14.984375 27.296875 
Q 14.984375 17.28125 19.8125 11.734375 
Q 24.65625 6.203125 33.40625 6.203125 
Q 37.3125 6.203125 41.140625 7.25 
Q 44.96875 8.296875 48.78125 10.40625 
L 48.78125 2.09375 
Q 45.015625 0.34375 40.984375 -0.53125 
Q 36.96875 -1.421875 32.421875 -1.421875 
Q 20.0625 -1.421875 12.78125 6.34375 
Q 5.515625 14.109375 5.515625 27.296875 
Q 5.515625 40.671875 12.859375 48.328125 
Q 20.21875 56 33.015625 56 
Q 37.15625 56 41.109375 55.140625 
Q 45.0625 54.296875 48.78125 52.59375 
z
" id="DejaVuSans-99"/>
      <path d="M 18.3125 70.21875 
L 18.3125 54.6875 
L 36.8125 54.6875 
L 36.8125 47.703125 
L 18.3125 47.703125 
L 18.3125 18.015625 
Q 18.3125 11.328125 20.140625 9.421875 
Q 21.96875 7.515625 27.59375 7.515625 
L 36.8125 7.515625 
L 36.8125 0 
L 27.59375 0 
Q 17.1875 0 13.234375 3.875 
Q 9.28125 7.765625 9.28125 18.015625 
L 9.28125 47.703125 
L 2.6875 47.703125 
L 2.6875 54.6875 
L 9.28125 54.6875 
L 9.28125 70.21875 
z
" id="DejaVuSans-116"/>
      <path d="M 9.421875 54.6875 
L 18.40625 54.6875 
L 18.40625 0 
L 9.421875 0 
z
M 9.421875 75.984375 
L 18.40625 75.984375 
L 18.40625 64.59375 
L 9.421875 64.59375 
z
" id="DejaVuSans-105"/>
     </defs>
     <g transform="translate(14.798438 244.302656)rotate(-90)scale(0.1 -0.1)">
      <use xlink:href="#DejaVuSans-78"/>
      <use x="74.804688" xlink:href="#DejaVuSans-117"/>
      <use x="138.183594" xlink:href="#DejaVuSans-109"/>
      <use x="235.595703" xlink:href="#DejaVuSans-98"/>
      <use x="299.072266" xlink:href="#DejaVuSans-101"/>
      <use x="360.595703" xlink:href="#DejaVuSans-114"/>
      <use x="401.708984" xlink:href="#DejaVuSans-32"/>
      <use x="433.496094" xlink:href="#DejaVuSans-111"/>
      <use x="494.677734" xlink:href="#DejaVuSans-102"/>
      <use x="529.882812" xlink:href="#DejaVuSans-32"/>
      <use x="561.669922" xlink:href="#DejaVuSans-98"/>
      <use x="625.146484" xlink:href="#DejaVuSans-97"/>
      <use x="686.425781" xlink:href="#DejaVuSans-99"/>
      <use x="741.40625" xlink:href="#DejaVuSans-116"/>
      <use x="780.615234" xlink:href="#DejaVuSans-101"/>
      <use x="842.138672" xlink:href="#DejaVuSans-114"/>
      <use x="883.251953" xlink:href="#DejaVuSans-105"/>
      <use x="911.035156" xlink:href="#DejaVuSans-97"/>
     </g>
    </g>
   </g>
   <g id="patch_103">
    <path d="M 34.240625 328.74225 
L 34.240625 62.63025 
" style="fill:none;stroke:#000000;stroke-linecap:square;stroke-linejoin:miter;stroke-width:0.8;"/>
   </g>
   <g id="patch_104">
    <path d="M 391.360625 328.74225 
L 391.360625 62.63025 
" style="fill:none;stroke:#000000;stroke-linecap:square;stroke-linejoin:miter;stroke-width:0.8;"/>
   </g>
   <g id="patch_105">
    <path d="M 34.240625 328.74225 
L 391.360625 328.74225 
" style="fill:none;stroke:#000000;stroke-linecap:square;stroke-linejoin:miter;stroke-width:0.8;"/>
   </g>
   <g id="patch_106">
    <path d="M 34.240625 62.63025 
L 391.360625 62.63025 
" style="fill:none;stroke:#000000;stroke-linecap:square;stroke-linejoin:miter;stroke-width:0.8;"/>
   </g>
   <g id="text_19">
    <!-- Real tags vs. Mixed tags at Chemotherapy correlation task -->
    <defs>
     <path d="M 45.40625 27.984375 
Q 45.40625 37.75 41.375 43.109375 
Q 37.359375 48.484375 30.078125 48.484375 
Q 22.859375 48.484375 18.828125 43.109375 
Q 14.796875 37.75 14.796875 27.984375 
Q 14.796875 18.265625 18.828125 12.890625 
Q 22.859375 7.515625 30.078125 7.515625 
Q 37.359375 7.515625 41.375 12.890625 
Q 45.40625 18.265625 45.40625 27.984375 
z
M 54.390625 6.78125 
Q 54.390625 -7.171875 48.1875 -13.984375 
Q 42 -20.796875 29.203125 -20.796875 
Q 24.46875 -20.796875 20.265625 -20.09375 
Q 16.0625 -19.390625 12.109375 -17.921875 
L 12.109375 -9.1875 
Q 16.0625 -11.328125 19.921875 -12.34375 
Q 23.78125 -13.375 27.78125 -13.375 
Q 36.625 -13.375 41.015625 -8.765625 
Q 45.40625 -4.15625 45.40625 5.171875 
L 45.40625 9.625 
Q 42.625 4.78125 38.28125 2.390625 
Q 33.9375 0 27.875 0 
Q 17.828125 0 11.671875 7.65625 
Q 5.515625 15.328125 5.515625 27.984375 
Q 5.515625 40.671875 11.671875 48.328125 
Q 17.828125 56 27.875 56 
Q 33.9375 56 38.28125 53.609375 
Q 42.625 51.21875 45.40625 46.390625 
L 45.40625 54.6875 
L 54.390625 54.6875 
z
" id="DejaVuSans-103"/>
     <path d="M 44.28125 53.078125 
L 44.28125 44.578125 
Q 40.484375 46.53125 36.375 47.5 
Q 32.28125 48.484375 27.875 48.484375 
Q 21.1875 48.484375 17.84375 46.4375 
Q 14.5 44.390625 14.5 40.28125 
Q 14.5 37.15625 16.890625 35.375 
Q 19.28125 33.59375 26.515625 31.984375 
L 29.59375 31.296875 
Q 39.15625 29.25 43.1875 25.515625 
Q 47.21875 21.78125 47.21875 15.09375 
Q 47.21875 7.46875 41.1875 3.015625 
Q 35.15625 -1.421875 24.609375 -1.421875 
Q 20.21875 -1.421875 15.453125 -0.5625 
Q 10.6875 0.296875 5.421875 2 
L 5.421875 11.28125 
Q 10.40625 8.6875 15.234375 7.390625 
Q 20.0625 6.109375 24.8125 6.109375 
Q 31.15625 6.109375 34.5625 8.28125 
Q 37.984375 10.453125 37.984375 14.40625 
Q 37.984375 18.0625 35.515625 20.015625 
Q 33.0625 21.96875 24.703125 23.78125 
L 21.578125 24.515625 
Q 13.234375 26.265625 9.515625 29.90625 
Q 5.8125 33.546875 5.8125 39.890625 
Q 5.8125 47.609375 11.28125 51.796875 
Q 16.75 56 26.8125 56 
Q 31.78125 56 36.171875 55.265625 
Q 40.578125 54.546875 44.28125 53.078125 
z
" id="DejaVuSans-115"/>
     <path d="M 9.8125 72.90625 
L 24.515625 72.90625 
L 43.109375 23.296875 
L 61.8125 72.90625 
L 76.515625 72.90625 
L 76.515625 0 
L 66.890625 0 
L 66.890625 64.015625 
L 48.09375 14.015625 
L 38.1875 14.015625 
L 19.390625 64.015625 
L 19.390625 0 
L 9.8125 0 
z
" id="DejaVuSans-77"/>
     <path d="M 54.890625 54.6875 
L 35.109375 28.078125 
L 55.90625 0 
L 45.3125 0 
L 29.390625 21.484375 
L 13.484375 0 
L 2.875 0 
L 24.125 28.609375 
L 4.6875 54.6875 
L 15.28125 54.6875 
L 29.78125 35.203125 
L 44.28125 54.6875 
z
" id="DejaVuSans-120"/>
     <path d="M 45.40625 46.390625 
L 45.40625 75.984375 
L 54.390625 75.984375 
L 54.390625 0 
L 45.40625 0 
L 45.40625 8.203125 
Q 42.578125 3.328125 38.25 0.953125 
Q 33.9375 -1.421875 27.875 -1.421875 
Q 17.96875 -1.421875 11.734375 6.484375 
Q 5.515625 14.40625 5.515625 27.296875 
Q 5.515625 40.1875 11.734375 48.09375 
Q 17.96875 56 27.875 56 
Q 33.9375 56 38.25 53.625 
Q 42.578125 51.265625 45.40625 46.390625 
z
M 14.796875 27.296875 
Q 14.796875 17.390625 18.875 11.75 
Q 22.953125 6.109375 30.078125 6.109375 
Q 37.203125 6.109375 41.296875 11.75 
Q 45.40625 17.390625 45.40625 27.296875 
Q 45.40625 37.203125 41.296875 42.84375 
Q 37.203125 48.484375 30.078125 48.484375 
Q 22.953125 48.484375 18.875 42.84375 
Q 14.796875 37.203125 14.796875 27.296875 
z
" id="DejaVuSans-100"/>
     <path d="M 64.40625 67.28125 
L 64.40625 56.890625 
Q 59.421875 61.53125 53.78125 63.8125 
Q 48.140625 66.109375 41.796875 66.109375 
Q 29.296875 66.109375 22.65625 58.46875 
Q 16.015625 50.828125 16.015625 36.375 
Q 16.015625 21.96875 22.65625 14.328125 
Q 29.296875 6.6875 41.796875 6.6875 
Q 48.140625 6.6875 53.78125 8.984375 
Q 59.421875 11.28125 64.40625 15.921875 
L 64.40625 5.609375 
Q 59.234375 2.09375 53.4375 0.328125 
Q 47.65625 -1.421875 41.21875 -1.421875 
Q 24.65625 -1.421875 15.125 8.703125 
Q 5.609375 18.84375 5.609375 36.375 
Q 5.609375 53.953125 15.125 64.078125 
Q 24.65625 74.21875 41.21875 74.21875 
Q 47.75 74.21875 53.53125 72.484375 
Q 59.328125 70.75 64.40625 67.28125 
z
" id="DejaVuSans-67"/>
     <path d="M 18.109375 8.203125 
L 18.109375 -20.796875 
L 9.078125 -20.796875 
L 9.078125 54.6875 
L 18.109375 54.6875 
L 18.109375 46.390625 
Q 20.953125 51.265625 25.265625 53.625 
Q 29.59375 56 35.59375 56 
Q 45.5625 56 51.78125 48.09375 
Q 58.015625 40.1875 58.015625 27.296875 
Q 58.015625 14.40625 51.78125 6.484375 
Q 45.5625 -1.421875 35.59375 -1.421875 
Q 29.59375 -1.421875 25.265625 0.953125 
Q 20.953125 3.328125 18.109375 8.203125 
z
M 48.6875 27.296875 
Q 48.6875 37.203125 44.609375 42.84375 
Q 40.53125 48.484375 33.40625 48.484375 
Q 26.265625 48.484375 22.1875 42.84375 
Q 18.109375 37.203125 18.109375 27.296875 
Q 18.109375 17.390625 22.1875 11.75 
Q 26.265625 6.109375 33.40625 6.109375 
Q 40.53125 6.109375 44.609375 11.75 
Q 48.6875 17.390625 48.6875 27.296875 
z
" id="DejaVuSans-112"/>
     <path d="M 32.171875 -5.078125 
Q 28.375 -14.84375 24.75 -17.8125 
Q 21.140625 -20.796875 15.09375 -20.796875 
L 7.90625 -20.796875 
L 7.90625 -13.28125 
L 13.1875 -13.28125 
Q 16.890625 -13.28125 18.9375 -11.515625 
Q 21 -9.765625 23.484375 -3.21875 
L 25.09375 0.875 
L 2.984375 54.6875 
L 12.5 54.6875 
L 29.59375 11.921875 
L 46.6875 54.6875 
L 56.203125 54.6875 
z
" id="DejaVuSans-121"/>
     <path d="M 54.890625 33.015625 
L 54.890625 0 
L 45.90625 0 
L 45.90625 32.71875 
Q 45.90625 40.484375 42.875 44.328125 
Q 39.84375 48.1875 33.796875 48.1875 
Q 26.515625 48.1875 22.3125 43.546875 
Q 18.109375 38.921875 18.109375 30.90625 
L 18.109375 0 
L 9.078125 0 
L 9.078125 54.6875 
L 18.109375 54.6875 
L 18.109375 46.1875 
Q 21.34375 51.125 25.703125 53.5625 
Q 30.078125 56 35.796875 56 
Q 45.21875 56 50.046875 50.171875 
Q 54.890625 44.34375 54.890625 33.015625 
z
" id="DejaVuSans-110"/>
     <path d="M 9.078125 75.984375 
L 18.109375 75.984375 
L 18.109375 31.109375 
L 44.921875 54.6875 
L 56.390625 54.6875 
L 27.390625 29.109375 
L 57.625 0 
L 45.90625 0 
L 18.109375 26.703125 
L 18.109375 0 
L 9.078125 0 
z
" id="DejaVuSans-107"/>
    </defs>
    <g transform="translate(36.303125 16.318125)scale(0.12 -0.12)">
     <use xlink:href="#DejaVuSans-82"/>
     <use x="69.419922" xlink:href="#DejaVuSans-101"/>
     <use x="130.943359" xlink:href="#DejaVuSans-97"/>
     <use x="192.222656" xlink:href="#DejaVuSans-108"/>
     <use x="220.005859" xlink:href="#DejaVuSans-32"/>
     <use x="251.792969" xlink:href="#DejaVuSans-116"/>
     <use x="291.001953" xlink:href="#DejaVuSans-97"/>
     <use x="352.28125" xlink:href="#DejaVuSans-103"/>
     <use x="415.757812" xlink:href="#DejaVuSans-115"/>
     <use x="467.857422" xlink:href="#DejaVuSans-32"/>
     <use x="499.644531" xlink:href="#DejaVuSans-118"/>
     <use x="558.824219" xlink:href="#DejaVuSans-115"/>
     <use x="610.923828" xlink:href="#DejaVuSans-46"/>
     <use x="642.710938" xlink:href="#DejaVuSans-32"/>
     <use x="674.498047" xlink:href="#DejaVuSans-77"/>
     <use x="760.777344" xlink:href="#DejaVuSans-105"/>
     <use x="788.560547" xlink:href="#DejaVuSans-120"/>
     <use x="847.693359" xlink:href="#DejaVuSans-101"/>
     <use x="909.216797" xlink:href="#DejaVuSans-100"/>
     <use x="972.693359" xlink:href="#DejaVuSans-32"/>
     <use x="1004.480469" xlink:href="#DejaVuSans-116"/>
     <use x="1043.689453" xlink:href="#DejaVuSans-97"/>
     <use x="1104.96875" xlink:href="#DejaVuSans-103"/>
     <use x="1168.445312" xlink:href="#DejaVuSans-115"/>
     <use x="1220.544922" xlink:href="#DejaVuSans-32"/>
     <use x="1252.332031" xlink:href="#DejaVuSans-97"/>
     <use x="1313.611328" xlink:href="#DejaVuSans-116"/>
     <use x="1352.820312" xlink:href="#DejaVuSans-32"/>
     <use x="1384.607422" xlink:href="#DejaVuSans-67"/>
     <use x="1454.431641" xlink:href="#DejaVuSans-104"/>
     <use x="1517.810547" xlink:href="#DejaVuSans-101"/>
     <use x="1579.333984" xlink:href="#DejaVuSans-109"/>
     <use x="1676.746094" xlink:href="#DejaVuSans-111"/>
     <use x="1737.927734" xlink:href="#DejaVuSans-116"/>
     <use x="1777.136719" xlink:href="#DejaVuSans-104"/>
     <use x="1840.515625" xlink:href="#DejaVuSans-101"/>
     <use x="1902.039062" xlink:href="#DejaVuSans-114"/>
     <use x="1943.152344" xlink:href="#DejaVuSans-97"/>
     <use x="2004.431641" xlink:href="#DejaVuSans-112"/>
     <use x="2067.908203" xlink:href="#DejaVuSans-121"/>
     <use x="2127.087891" xlink:href="#DejaVuSans-32"/>
     <use x="2158.875" xlink:href="#DejaVuSans-99"/>
     <use x="2213.855469" xlink:href="#DejaVuSans-111"/>
     <use x="2275.037109" xlink:href="#DejaVuSans-114"/>
     <use x="2316.134766" xlink:href="#DejaVuSans-114"/>
     <use x="2357.216797" xlink:href="#DejaVuSans-101"/>
     <use x="2418.740234" xlink:href="#DejaVuSans-108"/>
     <use x="2446.523438" xlink:href="#DejaVuSans-97"/>
     <use x="2507.802734" xlink:href="#DejaVuSans-116"/>
     <use x="2547.011719" xlink:href="#DejaVuSans-105"/>
     <use x="2574.794922" xlink:href="#DejaVuSans-111"/>
     <use x="2635.976562" xlink:href="#DejaVuSans-110"/>
     <use x="2699.355469" xlink:href="#DejaVuSans-32"/>
     <use x="2731.142578" xlink:href="#DejaVuSans-116"/>
     <use x="2770.351562" xlink:href="#DejaVuSans-97"/>
     <use x="2831.630859" xlink:href="#DejaVuSans-115"/>
     <use x="2883.730469" xlink:href="#DejaVuSans-107"/>
    </g>
    <!-- Weight gain during chemotherapy -->
    <defs>
     <path d="M 3.328125 72.90625 
L 13.28125 72.90625 
L 28.609375 11.28125 
L 43.890625 72.90625 
L 54.984375 72.90625 
L 70.3125 11.28125 
L 85.59375 72.90625 
L 95.609375 72.90625 
L 77.296875 0 
L 64.890625 0 
L 49.515625 63.28125 
L 33.984375 0 
L 21.578125 0 
z
" id="DejaVuSans-87"/>
    </defs>
    <g transform="translate(109.858438 29.7555)scale(0.12 -0.12)">
     <use xlink:href="#DejaVuSans-87"/>
     <use x="98.798828" xlink:href="#DejaVuSans-101"/>
     <use x="160.322266" xlink:href="#DejaVuSans-105"/>
     <use x="188.105469" xlink:href="#DejaVuSans-103"/>
     <use x="251.582031" xlink:href="#DejaVuSans-104"/>
     <use x="314.960938" xlink:href="#DejaVuSans-116"/>
     <use x="354.169922" xlink:href="#DejaVuSans-32"/>
     <use x="385.957031" xlink:href="#DejaVuSans-103"/>
     <use x="449.433594" xlink:href="#DejaVuSans-97"/>
     <use x="510.712891" xlink:href="#DejaVuSans-105"/>
     <use x="538.496094" xlink:href="#DejaVuSans-110"/>
     <use x="601.875" xlink:href="#DejaVuSans-32"/>
     <use x="633.662109" xlink:href="#DejaVuSans-100"/>
     <use x="697.138672" xlink:href="#DejaVuSans-117"/>
     <use x="760.517578" xlink:href="#DejaVuSans-114"/>
     <use x="801.630859" xlink:href="#DejaVuSans-105"/>
     <use x="829.414062" xlink:href="#DejaVuSans-110"/>
     <use x="892.792969" xlink:href="#DejaVuSans-103"/>
     <use x="956.269531" xlink:href="#DejaVuSans-32"/>
     <use x="988.056641" xlink:href="#DejaVuSans-99"/>
     <use x="1043.037109" xlink:href="#DejaVuSans-104"/>
     <use x="1106.416016" xlink:href="#DejaVuSans-101"/>
     <use x="1167.939453" xlink:href="#DejaVuSans-109"/>
     <use x="1265.351562" xlink:href="#DejaVuSans-111"/>
     <use x="1326.533203" xlink:href="#DejaVuSans-116"/>
     <use x="1365.742188" xlink:href="#DejaVuSans-104"/>
     <use x="1429.121094" xlink:href="#DejaVuSans-101"/>
     <use x="1490.644531" xlink:href="#DejaVuSans-114"/>
     <use x="1531.757812" xlink:href="#DejaVuSans-97"/>
     <use x="1593.037109" xlink:href="#DejaVuSans-112"/>
     <use x="1656.513672" xlink:href="#DejaVuSans-121"/>
    </g>
    <!-- Eliminating the effect of receiving antibiotics -->
    <defs>
     <path d="M 9.8125 72.90625 
L 55.90625 72.90625 
L 55.90625 64.59375 
L 19.671875 64.59375 
L 19.671875 43.015625 
L 54.390625 43.015625 
L 54.390625 34.71875 
L 19.671875 34.71875 
L 19.671875 8.296875 
L 56.78125 8.296875 
L 56.78125 0 
L 9.8125 0 
z
" id="DejaVuSans-69"/>
    </defs>
    <g transform="translate(77.897188 43.192875)scale(0.12 -0.12)">
     <use xlink:href="#DejaVuSans-69"/>
     <use x="63.183594" xlink:href="#DejaVuSans-108"/>
     <use x="90.966797" xlink:href="#DejaVuSans-105"/>
     <use x="118.75" xlink:href="#DejaVuSans-109"/>
     <use x="216.162109" xlink:href="#DejaVuSans-105"/>
     <use x="243.945312" xlink:href="#DejaVuSans-110"/>
     <use x="307.324219" xlink:href="#DejaVuSans-97"/>
     <use x="368.603516" xlink:href="#DejaVuSans-116"/>
     <use x="407.8125" xlink:href="#DejaVuSans-105"/>
     <use x="435.595703" xlink:href="#DejaVuSans-110"/>
     <use x="498.974609" xlink:href="#DejaVuSans-103"/>
     <use x="562.451172" xlink:href="#DejaVuSans-32"/>
     <use x="594.238281" xlink:href="#DejaVuSans-116"/>
     <use x="633.447266" xlink:href="#DejaVuSans-104"/>
     <use x="696.826172" xlink:href="#DejaVuSans-101"/>
     <use x="758.349609" xlink:href="#DejaVuSans-32"/>
     <use x="790.136719" xlink:href="#DejaVuSans-101"/>
     <use x="851.660156" xlink:href="#DejaVuSans-102"/>
     <use x="886.865234" xlink:href="#DejaVuSans-102"/>
     <use x="922.070312" xlink:href="#DejaVuSans-101"/>
     <use x="983.59375" xlink:href="#DejaVuSans-99"/>
     <use x="1038.574219" xlink:href="#DejaVuSans-116"/>
     <use x="1077.783203" xlink:href="#DejaVuSans-32"/>
     <use x="1109.570312" xlink:href="#DejaVuSans-111"/>
     <use x="1170.751953" xlink:href="#DejaVuSans-102"/>
     <use x="1205.957031" xlink:href="#DejaVuSans-32"/>
     <use x="1237.744141" xlink:href="#DejaVuSans-114"/>
     <use x="1278.826172" xlink:href="#DejaVuSans-101"/>
     <use x="1340.349609" xlink:href="#DejaVuSans-99"/>
     <use x="1395.330078" xlink:href="#DejaVuSans-101"/>
     <use x="1456.853516" xlink:href="#DejaVuSans-105"/>
     <use x="1484.636719" xlink:href="#DejaVuSans-118"/>
     <use x="1543.816406" xlink:href="#DejaVuSans-105"/>
     <use x="1571.599609" xlink:href="#DejaVuSans-110"/>
     <use x="1634.978516" xlink:href="#DejaVuSans-103"/>
     <use x="1698.455078" xlink:href="#DejaVuSans-32"/>
     <use x="1730.242188" xlink:href="#DejaVuSans-97"/>
     <use x="1791.521484" xlink:href="#DejaVuSans-110"/>
     <use x="1854.900391" xlink:href="#DejaVuSans-116"/>
     <use x="1894.109375" xlink:href="#DejaVuSans-105"/>
     <use x="1921.892578" xlink:href="#DejaVuSans-98"/>
     <use x="1985.369141" xlink:href="#DejaVuSans-105"/>
     <use x="2013.152344" xlink:href="#DejaVuSans-111"/>
     <use x="2074.333984" xlink:href="#DejaVuSans-116"/>
     <use x="2113.542969" xlink:href="#DejaVuSans-105"/>
     <use x="2141.326172" xlink:href="#DejaVuSans-99"/>
     <use x="2196.306641" xlink:href="#DejaVuSans-115"/>
    </g>
    <!-- (time=4-6 months post treatment) -->
    <defs>
     <path d="M 31 75.875 
Q 24.46875 64.65625 21.28125 53.65625 
Q 18.109375 42.671875 18.109375 31.390625 
Q 18.109375 20.125 21.3125 9.0625 
Q 24.515625 -2 31 -13.1875 
L 23.1875 -13.1875 
Q 15.875 -1.703125 12.234375 9.375 
Q 8.59375 20.453125 8.59375 31.390625 
Q 8.59375 42.28125 12.203125 53.3125 
Q 15.828125 64.359375 23.1875 75.875 
z
" id="DejaVuSans-40"/>
     <path d="M 10.59375 45.40625 
L 73.1875 45.40625 
L 73.1875 37.203125 
L 10.59375 37.203125 
z
M 10.59375 25.484375 
L 73.1875 25.484375 
L 73.1875 17.1875 
L 10.59375 17.1875 
z
" id="DejaVuSans-61"/>
     <path d="M 4.890625 31.390625 
L 31.203125 31.390625 
L 31.203125 23.390625 
L 4.890625 23.390625 
z
" id="DejaVuSans-45"/>
     <path d="M 8.015625 75.875 
L 15.828125 75.875 
Q 23.140625 64.359375 26.78125 53.3125 
Q 30.421875 42.28125 30.421875 31.390625 
Q 30.421875 20.453125 26.78125 9.375 
Q 23.140625 -1.703125 15.828125 -13.1875 
L 8.015625 -13.1875 
Q 14.5 -2 17.703125 9.0625 
Q 20.90625 20.125 20.90625 31.390625 
Q 20.90625 42.671875 17.703125 53.65625 
Q 14.5 64.65625 8.015625 75.875 
z
" id="DejaVuSans-41"/>
    </defs>
    <g transform="translate(108.23 56.63025)scale(0.12 -0.12)">
     <use xlink:href="#DejaVuSans-40"/>
     <use x="39.013672" xlink:href="#DejaVuSans-116"/>
     <use x="78.222656" xlink:href="#DejaVuSans-105"/>
     <use x="106.005859" xlink:href="#DejaVuSans-109"/>
     <use x="203.417969" xlink:href="#DejaVuSans-101"/>
     <use x="264.941406" xlink:href="#DejaVuSans-61"/>
     <use x="348.730469" xlink:href="#DejaVuSans-52"/>
     <use x="412.353516" xlink:href="#DejaVuSans-45"/>
     <use x="448.4375" xlink:href="#DejaVuSans-54"/>
     <use x="512.060547" xlink:href="#DejaVuSans-32"/>
     <use x="543.847656" xlink:href="#DejaVuSans-109"/>
     <use x="641.259766" xlink:href="#DejaVuSans-111"/>
     <use x="702.441406" xlink:href="#DejaVuSans-110"/>
     <use x="765.820312" xlink:href="#DejaVuSans-116"/>
     <use x="805.029297" xlink:href="#DejaVuSans-104"/>
     <use x="868.408203" xlink:href="#DejaVuSans-115"/>
     <use x="920.507812" xlink:href="#DejaVuSans-32"/>
     <use x="952.294922" xlink:href="#DejaVuSans-112"/>
     <use x="1015.771484" xlink:href="#DejaVuSans-111"/>
     <use x="1076.953125" xlink:href="#DejaVuSans-115"/>
     <use x="1129.052734" xlink:href="#DejaVuSans-116"/>
     <use x="1168.261719" xlink:href="#DejaVuSans-32"/>
     <use x="1200.048828" xlink:href="#DejaVuSans-116"/>
     <use x="1239.257812" xlink:href="#DejaVuSans-114"/>
     <use x="1280.339844" xlink:href="#DejaVuSans-101"/>
     <use x="1341.863281" xlink:href="#DejaVuSans-97"/>
     <use x="1403.142578" xlink:href="#DejaVuSans-116"/>
     <use x="1442.351562" xlink:href="#DejaVuSans-109"/>
     <use x="1539.763672" xlink:href="#DejaVuSans-101"/>
     <use x="1601.287109" xlink:href="#DejaVuSans-110"/>
     <use x="1664.666016" xlink:href="#DejaVuSans-116"/>
     <use x="1703.875" xlink:href="#DejaVuSans-41"/>
    </g>
   </g>
   <g id="legend_1">
    <g id="patch_107">
     <path d="M 296.641875 99.9865 
L 384.360625 99.9865 
Q 386.360625 99.9865 386.360625 97.9865 
L 386.360625 69.63025 
Q 386.360625 67.63025 384.360625 67.63025 
L 296.641875 67.63025 
Q 294.641875 67.63025 294.641875 69.63025 
L 294.641875 97.9865 
Q 294.641875 99.9865 296.641875 99.9865 
z
" style="fill:#ffffff;opacity:0.8;stroke:#cccccc;stroke-linejoin:miter;"/>
    </g>
    <g id="patch_108">
     <path d="M 298.641875 79.228687 
L 318.641875 79.228687 
L 318.641875 72.228687 
L 298.641875 72.228687 
z
" style="fill:#d95f0e;opacity:0.5;"/>
    </g>
    <g id="text_20">
     <!-- mixed tags -->
     <g transform="translate(326.641875 79.228687)scale(0.1 -0.1)">
      <use xlink:href="#DejaVuSans-109"/>
      <use x="97.412109" xlink:href="#DejaVuSans-105"/>
      <use x="125.195312" xlink:href="#DejaVuSans-120"/>
      <use x="184.328125" xlink:href="#DejaVuSans-101"/>
      <use x="245.851562" xlink:href="#DejaVuSans-100"/>
      <use x="309.328125" xlink:href="#DejaVuSans-32"/>
      <use x="341.115234" xlink:href="#DejaVuSans-116"/>
      <use x="380.324219" xlink:href="#DejaVuSans-97"/>
      <use x="441.603516" xlink:href="#DejaVuSans-103"/>
      <use x="505.080078" xlink:href="#DejaVuSans-115"/>
     </g>
    </g>
    <g id="patch_109">
     <path d="M 298.641875 93.906812 
L 318.641875 93.906812 
L 318.641875 86.906812 
L 298.641875 86.906812 
z
" style="fill:#43a2ca;opacity:0.8;"/>
    </g>
    <g id="text_21">
     <!-- real tags -->
     <g transform="translate(326.641875 93.906812)scale(0.1 -0.1)">
      <use xlink:href="#DejaVuSans-114"/>
      <use x="41.082031" xlink:href="#DejaVuSans-101"/>
      <use x="102.605469" xlink:href="#DejaVuSans-97"/>
      <use x="163.884766" xlink:href="#DejaVuSans-108"/>
      <use x="191.667969" xlink:href="#DejaVuSans-32"/>
      <use x="223.455078" xlink:href="#DejaVuSans-116"/>
      <use x="262.664062" xlink:href="#DejaVuSans-97"/>
      <use x="323.943359" xlink:href="#DejaVuSans-103"/>
      <use x="387.419922" xlink:href="#DejaVuSans-115"/>
     </g>
    </g>
   </g>
  </g>
 </g>
 <defs>
  <clipPath id="pa15c17fd23">
   <rect height="266.112" width="357.12" x="34.240625" y="62.63025"/>
  </clipPath>
 </defs>
</svg>
