<?xml version="1.0" encoding="utf-8" standalone="no"?>
<!DOCTYPE svg PUBLIC "-//W3C//DTD SVG 1.1//EN"
  "http://www.w3.org/Graphics/SVG/1.1/DTD/svg11.dtd">
<!-- Created with matplotlib (https://matplotlib.org/) -->
<svg height="375.105656pt" version="1.1" viewBox="0 0 422.8275 375.105656" width="422.8275pt" xmlns="http://www.w3.org/2000/svg" xmlns:xlink="http://www.w3.org/1999/xlink">
 <defs>
  <style type="text/css">
*{stroke-linecap:butt;stroke-linejoin:round;}
  </style>
 </defs>
 <g id="figure_1">
  <g id="patch_1">
   <path d="M 0 375.105656 
L 422.8275 375.105656 
L 422.8275 0 
L 0 0 
z
" style="fill:#ffffff;"/>
  </g>
  <g id="axes_1">
   <g id="patch_2">
    <path d="M 50.555938 330.774719 
L 407.675938 330.774719 
L 407.675938 64.662719 
L 50.555938 64.662719 
z
" style="fill:#ffffff;"/>
   </g>
   <g id="matplotlib.axis_1">
    <g id="xtick_1">
     <g id="line2d_1">
      <defs>
       <path d="M 0 0 
L 0 3.5 
" id="m7ff4866838" style="stroke:#000000;stroke-width:0.8;"/>
      </defs>
      <g>
       <use style="stroke:#000000;stroke-width:0.8;" x="50.555938" xlink:href="#m7ff4866838" y="330.774719"/>
      </g>
     </g>
     <g id="text_1">
      <!-- 0.0 -->
      <defs>
       <path d="M 31.78125 66.40625 
Q 24.171875 66.40625 20.328125 58.90625 
Q 16.5 51.421875 16.5 36.375 
Q 16.5 21.390625 20.328125 13.890625 
Q 24.171875 6.390625 31.78125 6.390625 
Q 39.453125 6.390625 43.28125 13.890625 
Q 47.125 21.390625 47.125 36.375 
Q 47.125 51.421875 43.28125 58.90625 
Q 39.453125 66.40625 31.78125 66.40625 
z
M 31.78125 74.21875 
Q 44.046875 74.21875 50.515625 64.515625 
Q 56.984375 54.828125 56.984375 36.375 
Q 56.984375 17.96875 50.515625 8.265625 
Q 44.046875 -1.421875 31.78125 -1.421875 
Q 19.53125 -1.421875 13.0625 8.265625 
Q 6.59375 17.96875 6.59375 36.375 
Q 6.59375 54.828125 13.0625 64.515625 
Q 19.53125 74.21875 31.78125 74.21875 
z
" id="DejaVuSans-48"/>
       <path d="M 10.6875 12.40625 
L 21 12.40625 
L 21 0 
L 10.6875 0 
z
" id="DejaVuSans-46"/>
      </defs>
      <g transform="translate(42.604375 345.373156)scale(0.1 -0.1)">
       <use xlink:href="#DejaVuSans-48"/>
       <use x="63.623047" xlink:href="#DejaVuSans-46"/>
       <use x="95.410156" xlink:href="#DejaVuSans-48"/>
      </g>
     </g>
    </g>
    <g id="xtick_2">
     <g id="line2d_2">
      <g>
       <use style="stroke:#000000;stroke-width:0.8;" x="121.979938" xlink:href="#m7ff4866838" y="330.774719"/>
      </g>
     </g>
     <g id="text_2">
      <!-- 0.2 -->
      <defs>
       <path d="M 19.1875 8.296875 
L 53.609375 8.296875 
L 53.609375 0 
L 7.328125 0 
L 7.328125 8.296875 
Q 12.9375 14.109375 22.625 23.890625 
Q 32.328125 33.6875 34.8125 36.53125 
Q 39.546875 41.84375 41.421875 45.53125 
Q 43.3125 49.21875 43.3125 52.78125 
Q 43.3125 58.59375 39.234375 62.25 
Q 35.15625 65.921875 28.609375 65.921875 
Q 23.96875 65.921875 18.8125 64.3125 
Q 13.671875 62.703125 7.8125 59.421875 
L 7.8125 69.390625 
Q 13.765625 71.78125 18.9375 73 
Q 24.125 74.21875 28.421875 74.21875 
Q 39.75 74.21875 46.484375 68.546875 
Q 53.21875 62.890625 53.21875 53.421875 
Q 53.21875 48.921875 51.53125 44.890625 
Q 49.859375 40.875 45.40625 35.40625 
Q 44.1875 33.984375 37.640625 27.21875 
Q 31.109375 20.453125 19.1875 8.296875 
z
" id="DejaVuSans-50"/>
      </defs>
      <g transform="translate(114.028375 345.373156)scale(0.1 -0.1)">
       <use xlink:href="#DejaVuSans-48"/>
       <use x="63.623047" xlink:href="#DejaVuSans-46"/>
       <use x="95.410156" xlink:href="#DejaVuSans-50"/>
      </g>
     </g>
    </g>
    <g id="xtick_3">
     <g id="line2d_3">
      <g>
       <use style="stroke:#000000;stroke-width:0.8;" x="193.403938" xlink:href="#m7ff4866838" y="330.774719"/>
      </g>
     </g>
     <g id="text_3">
      <!-- 0.4 -->
      <defs>
       <path d="M 37.796875 64.3125 
L 12.890625 25.390625 
L 37.796875 25.390625 
z
M 35.203125 72.90625 
L 47.609375 72.90625 
L 47.609375 25.390625 
L 58.015625 25.390625 
L 58.015625 17.1875 
L 47.609375 17.1875 
L 47.609375 0 
L 37.796875 0 
L 37.796875 17.1875 
L 4.890625 17.1875 
L 4.890625 26.703125 
z
" id="DejaVuSans-52"/>
      </defs>
      <g transform="translate(185.452375 345.373156)scale(0.1 -0.1)">
       <use xlink:href="#DejaVuSans-48"/>
       <use x="63.623047" xlink:href="#DejaVuSans-46"/>
       <use x="95.410156" xlink:href="#DejaVuSans-52"/>
      </g>
     </g>
    </g>
    <g id="xtick_4">
     <g id="line2d_4">
      <g>
       <use style="stroke:#000000;stroke-width:0.8;" x="264.827938" xlink:href="#m7ff4866838" y="330.774719"/>
      </g>
     </g>
     <g id="text_4">
      <!-- 0.6 -->
      <defs>
       <path d="M 33.015625 40.375 
Q 26.375 40.375 22.484375 35.828125 
Q 18.609375 31.296875 18.609375 23.390625 
Q 18.609375 15.53125 22.484375 10.953125 
Q 26.375 6.390625 33.015625 6.390625 
Q 39.65625 6.390625 43.53125 10.953125 
Q 47.40625 15.53125 47.40625 23.390625 
Q 47.40625 31.296875 43.53125 35.828125 
Q 39.65625 40.375 33.015625 40.375 
z
M 52.59375 71.296875 
L 52.59375 62.3125 
Q 48.875 64.0625 45.09375 64.984375 
Q 41.3125 65.921875 37.59375 65.921875 
Q 27.828125 65.921875 22.671875 59.328125 
Q 17.53125 52.734375 16.796875 39.40625 
Q 19.671875 43.65625 24.015625 45.921875 
Q 28.375 48.1875 33.59375 48.1875 
Q 44.578125 48.1875 50.953125 41.515625 
Q 57.328125 34.859375 57.328125 23.390625 
Q 57.328125 12.15625 50.6875 5.359375 
Q 44.046875 -1.421875 33.015625 -1.421875 
Q 20.359375 -1.421875 13.671875 8.265625 
Q 6.984375 17.96875 6.984375 36.375 
Q 6.984375 53.65625 15.1875 63.9375 
Q 23.390625 74.21875 37.203125 74.21875 
Q 40.921875 74.21875 44.703125 73.484375 
Q 48.484375 72.75 52.59375 71.296875 
z
" id="DejaVuSans-54"/>
      </defs>
      <g transform="translate(256.876375 345.373156)scale(0.1 -0.1)">
       <use xlink:href="#DejaVuSans-48"/>
       <use x="63.623047" xlink:href="#DejaVuSans-46"/>
       <use x="95.410156" xlink:href="#DejaVuSans-54"/>
      </g>
     </g>
    </g>
    <g id="xtick_5">
     <g id="line2d_5">
      <g>
       <use style="stroke:#000000;stroke-width:0.8;" x="336.251938" xlink:href="#m7ff4866838" y="330.774719"/>
      </g>
     </g>
     <g id="text_5">
      <!-- 0.8 -->
      <defs>
       <path d="M 31.78125 34.625 
Q 24.75 34.625 20.71875 30.859375 
Q 16.703125 27.09375 16.703125 20.515625 
Q 16.703125 13.921875 20.71875 10.15625 
Q 24.75 6.390625 31.78125 6.390625 
Q 38.8125 6.390625 42.859375 10.171875 
Q 46.921875 13.96875 46.921875 20.515625 
Q 46.921875 27.09375 42.890625 30.859375 
Q 38.875 34.625 31.78125 34.625 
z
M 21.921875 38.8125 
Q 15.578125 40.375 12.03125 44.71875 
Q 8.5 49.078125 8.5 55.328125 
Q 8.5 64.0625 14.71875 69.140625 
Q 20.953125 74.21875 31.78125 74.21875 
Q 42.671875 74.21875 48.875 69.140625 
Q 55.078125 64.0625 55.078125 55.328125 
Q 55.078125 49.078125 51.53125 44.71875 
Q 48 40.375 41.703125 38.8125 
Q 48.828125 37.15625 52.796875 32.3125 
Q 56.78125 27.484375 56.78125 20.515625 
Q 56.78125 9.90625 50.3125 4.234375 
Q 43.84375 -1.421875 31.78125 -1.421875 
Q 19.734375 -1.421875 13.25 4.234375 
Q 6.78125 9.90625 6.78125 20.515625 
Q 6.78125 27.484375 10.78125 32.3125 
Q 14.796875 37.15625 21.921875 38.8125 
z
M 18.3125 54.390625 
Q 18.3125 48.734375 21.84375 45.5625 
Q 25.390625 42.390625 31.78125 42.390625 
Q 38.140625 42.390625 41.71875 45.5625 
Q 45.3125 48.734375 45.3125 54.390625 
Q 45.3125 60.0625 41.71875 63.234375 
Q 38.140625 66.40625 31.78125 66.40625 
Q 25.390625 66.40625 21.84375 63.234375 
Q 18.3125 60.0625 18.3125 54.390625 
z
" id="DejaVuSans-56"/>
      </defs>
      <g transform="translate(328.300375 345.373156)scale(0.1 -0.1)">
       <use xlink:href="#DejaVuSans-48"/>
       <use x="63.623047" xlink:href="#DejaVuSans-46"/>
       <use x="95.410156" xlink:href="#DejaVuSans-56"/>
      </g>
     </g>
    </g>
    <g id="xtick_6">
     <g id="line2d_6">
      <g>
       <use style="stroke:#000000;stroke-width:0.8;" x="407.675938" xlink:href="#m7ff4866838" y="330.774719"/>
      </g>
     </g>
     <g id="text_6">
      <!-- 1.0 -->
      <defs>
       <path d="M 12.40625 8.296875 
L 28.515625 8.296875 
L 28.515625 63.921875 
L 10.984375 60.40625 
L 10.984375 69.390625 
L 28.421875 72.90625 
L 38.28125 72.90625 
L 38.28125 8.296875 
L 54.390625 8.296875 
L 54.390625 0 
L 12.40625 0 
z
" id="DejaVuSans-49"/>
      </defs>
      <g transform="translate(399.724375 345.373156)scale(0.1 -0.1)">
       <use xlink:href="#DejaVuSans-49"/>
       <use x="63.623047" xlink:href="#DejaVuSans-46"/>
       <use x="95.410156" xlink:href="#DejaVuSans-48"/>
      </g>
     </g>
    </g>
    <g id="text_7">
     <!-- Specificity -->
     <defs>
      <path d="M 53.515625 70.515625 
L 53.515625 60.890625 
Q 47.90625 63.578125 42.921875 64.890625 
Q 37.9375 66.21875 33.296875 66.21875 
Q 25.25 66.21875 20.875 63.09375 
Q 16.5 59.96875 16.5 54.203125 
Q 16.5 49.359375 19.40625 46.890625 
Q 22.3125 44.4375 30.421875 42.921875 
L 36.375 41.703125 
Q 47.40625 39.59375 52.65625 34.296875 
Q 57.90625 29 57.90625 20.125 
Q 57.90625 9.515625 50.796875 4.046875 
Q 43.703125 -1.421875 29.984375 -1.421875 
Q 24.8125 -1.421875 18.96875 -0.25 
Q 13.140625 0.921875 6.890625 3.21875 
L 6.890625 13.375 
Q 12.890625 10.015625 18.65625 8.296875 
Q 24.421875 6.59375 29.984375 6.59375 
Q 38.421875 6.59375 43.015625 9.90625 
Q 47.609375 13.234375 47.609375 19.390625 
Q 47.609375 24.75 44.3125 27.78125 
Q 41.015625 30.8125 33.5 32.328125 
L 27.484375 33.5 
Q 16.453125 35.6875 11.515625 40.375 
Q 6.59375 45.0625 6.59375 53.421875 
Q 6.59375 63.09375 13.40625 68.65625 
Q 20.21875 74.21875 32.171875 74.21875 
Q 37.3125 74.21875 42.625 73.28125 
Q 47.953125 72.359375 53.515625 70.515625 
z
" id="DejaVuSans-83"/>
      <path d="M 18.109375 8.203125 
L 18.109375 -20.796875 
L 9.078125 -20.796875 
L 9.078125 54.6875 
L 18.109375 54.6875 
L 18.109375 46.390625 
Q 20.953125 51.265625 25.265625 53.625 
Q 29.59375 56 35.59375 56 
Q 45.5625 56 51.78125 48.09375 
Q 58.015625 40.1875 58.015625 27.296875 
Q 58.015625 14.40625 51.78125 6.484375 
Q 45.5625 -1.421875 35.59375 -1.421875 
Q 29.59375 -1.421875 25.265625 0.953125 
Q 20.953125 3.328125 18.109375 8.203125 
z
M 48.6875 27.296875 
Q 48.6875 37.203125 44.609375 42.84375 
Q 40.53125 48.484375 33.40625 48.484375 
Q 26.265625 48.484375 22.1875 42.84375 
Q 18.109375 37.203125 18.109375 27.296875 
Q 18.109375 17.390625 22.1875 11.75 
Q 26.265625 6.109375 33.40625 6.109375 
Q 40.53125 6.109375 44.609375 11.75 
Q 48.6875 17.390625 48.6875 27.296875 
z
" id="DejaVuSans-112"/>
      <path d="M 56.203125 29.59375 
L 56.203125 25.203125 
L 14.890625 25.203125 
Q 15.484375 15.921875 20.484375 11.0625 
Q 25.484375 6.203125 34.421875 6.203125 
Q 39.59375 6.203125 44.453125 7.46875 
Q 49.3125 8.734375 54.109375 11.28125 
L 54.109375 2.78125 
Q 49.265625 0.734375 44.1875 -0.34375 
Q 39.109375 -1.421875 33.890625 -1.421875 
Q 20.796875 -1.421875 13.15625 6.1875 
Q 5.515625 13.8125 5.515625 26.8125 
Q 5.515625 40.234375 12.765625 48.109375 
Q 20.015625 56 32.328125 56 
Q 43.359375 56 49.78125 48.890625 
Q 56.203125 41.796875 56.203125 29.59375 
z
M 47.21875 32.234375 
Q 47.125 39.59375 43.09375 43.984375 
Q 39.0625 48.390625 32.421875 48.390625 
Q 24.90625 48.390625 20.390625 44.140625 
Q 15.875 39.890625 15.1875 32.171875 
z
" id="DejaVuSans-101"/>
      <path d="M 48.78125 52.59375 
L 48.78125 44.1875 
Q 44.96875 46.296875 41.140625 47.34375 
Q 37.3125 48.390625 33.40625 48.390625 
Q 24.65625 48.390625 19.8125 42.84375 
Q 14.984375 37.3125 14.984375 27.296875 
Q 14.984375 17.28125 19.8125 11.734375 
Q 24.65625 6.203125 33.40625 6.203125 
Q 37.3125 6.203125 41.140625 7.25 
Q 44.96875 8.296875 48.78125 10.40625 
L 48.78125 2.09375 
Q 45.015625 0.34375 40.984375 -0.53125 
Q 36.96875 -1.421875 32.421875 -1.421875 
Q 20.0625 -1.421875 12.78125 6.34375 
Q 5.515625 14.109375 5.515625 27.296875 
Q 5.515625 40.671875 12.859375 48.328125 
Q 20.21875 56 33.015625 56 
Q 37.15625 56 41.109375 55.140625 
Q 45.0625 54.296875 48.78125 52.59375 
z
" id="DejaVuSans-99"/>
      <path d="M 9.421875 54.6875 
L 18.40625 54.6875 
L 18.40625 0 
L 9.421875 0 
z
M 9.421875 75.984375 
L 18.40625 75.984375 
L 18.40625 64.59375 
L 9.421875 64.59375 
z
" id="DejaVuSans-105"/>
      <path d="M 37.109375 75.984375 
L 37.109375 68.5 
L 28.515625 68.5 
Q 23.6875 68.5 21.796875 66.546875 
Q 19.921875 64.59375 19.921875 59.515625 
L 19.921875 54.6875 
L 34.71875 54.6875 
L 34.71875 47.703125 
L 19.921875 47.703125 
L 19.921875 0 
L 10.890625 0 
L 10.890625 47.703125 
L 2.296875 47.703125 
L 2.296875 54.6875 
L 10.890625 54.6875 
L 10.890625 58.5 
Q 10.890625 67.625 15.140625 71.796875 
Q 19.390625 75.984375 28.609375 75.984375 
z
" id="DejaVuSans-102"/>
      <path d="M 18.3125 70.21875 
L 18.3125 54.6875 
L 36.8125 54.6875 
L 36.8125 47.703125 
L 18.3125 47.703125 
L 18.3125 18.015625 
Q 18.3125 11.328125 20.140625 9.421875 
Q 21.96875 7.515625 27.59375 7.515625 
L 36.8125 7.515625 
L 36.8125 0 
L 27.59375 0 
Q 17.1875 0 13.234375 3.875 
Q 9.28125 7.765625 9.28125 18.015625 
L 9.28125 47.703125 
L 2.6875 47.703125 
L 2.6875 54.6875 
L 9.28125 54.6875 
L 9.28125 70.21875 
z
" id="DejaVuSans-116"/>
      <path d="M 32.171875 -5.078125 
Q 28.375 -14.84375 24.75 -17.8125 
Q 21.140625 -20.796875 15.09375 -20.796875 
L 7.90625 -20.796875 
L 7.90625 -13.28125 
L 13.1875 -13.28125 
Q 16.890625 -13.28125 18.9375 -11.515625 
Q 21 -9.765625 23.484375 -3.21875 
L 25.09375 0.875 
L 2.984375 54.6875 
L 12.5 54.6875 
L 29.59375 11.921875 
L 46.6875 54.6875 
L 56.203125 54.6875 
z
" id="DejaVuSans-121"/>
     </defs>
     <g transform="translate(185.306406 364.370187)scale(0.17 -0.17)">
      <use xlink:href="#DejaVuSans-83"/>
      <use x="63.476562" xlink:href="#DejaVuSans-112"/>
      <use x="126.953125" xlink:href="#DejaVuSans-101"/>
      <use x="188.476562" xlink:href="#DejaVuSans-99"/>
      <use x="243.457031" xlink:href="#DejaVuSans-105"/>
      <use x="271.240234" xlink:href="#DejaVuSans-102"/>
      <use x="306.445312" xlink:href="#DejaVuSans-105"/>
      <use x="334.228516" xlink:href="#DejaVuSans-99"/>
      <use x="389.208984" xlink:href="#DejaVuSans-105"/>
      <use x="416.992188" xlink:href="#DejaVuSans-116"/>
      <use x="456.201172" xlink:href="#DejaVuSans-121"/>
     </g>
    </g>
   </g>
   <g id="matplotlib.axis_2">
    <g id="ytick_1">
     <g id="line2d_7">
      <defs>
       <path d="M 0 0 
L -3.5 0 
" id="mc5b2f48620" style="stroke:#000000;stroke-width:0.8;"/>
      </defs>
      <g>
       <use style="stroke:#000000;stroke-width:0.8;" x="50.555938" xlink:href="#mc5b2f48620" y="330.774719"/>
      </g>
     </g>
     <g id="text_8">
      <!-- 0.0 -->
      <g transform="translate(27.652813 334.573937)scale(0.1 -0.1)">
       <use xlink:href="#DejaVuSans-48"/>
       <use x="63.623047" xlink:href="#DejaVuSans-46"/>
       <use x="95.410156" xlink:href="#DejaVuSans-48"/>
      </g>
     </g>
    </g>
    <g id="ytick_2">
     <g id="line2d_8">
      <g>
       <use style="stroke:#000000;stroke-width:0.8;" x="50.555938" xlink:href="#mc5b2f48620" y="280.086719"/>
      </g>
     </g>
     <g id="text_9">
      <!-- 0.2 -->
      <g transform="translate(27.652813 283.885937)scale(0.1 -0.1)">
       <use xlink:href="#DejaVuSans-48"/>
       <use x="63.623047" xlink:href="#DejaVuSans-46"/>
       <use x="95.410156" xlink:href="#DejaVuSans-50"/>
      </g>
     </g>
    </g>
    <g id="ytick_3">
     <g id="line2d_9">
      <g>
       <use style="stroke:#000000;stroke-width:0.8;" x="50.555938" xlink:href="#mc5b2f48620" y="229.398719"/>
      </g>
     </g>
     <g id="text_10">
      <!-- 0.4 -->
      <g transform="translate(27.652813 233.197937)scale(0.1 -0.1)">
       <use xlink:href="#DejaVuSans-48"/>
       <use x="63.623047" xlink:href="#DejaVuSans-46"/>
       <use x="95.410156" xlink:href="#DejaVuSans-52"/>
      </g>
     </g>
    </g>
    <g id="ytick_4">
     <g id="line2d_10">
      <g>
       <use style="stroke:#000000;stroke-width:0.8;" x="50.555938" xlink:href="#mc5b2f48620" y="178.710719"/>
      </g>
     </g>
     <g id="text_11">
      <!-- 0.6 -->
      <g transform="translate(27.652813 182.509937)scale(0.1 -0.1)">
       <use xlink:href="#DejaVuSans-48"/>
       <use x="63.623047" xlink:href="#DejaVuSans-46"/>
       <use x="95.410156" xlink:href="#DejaVuSans-54"/>
      </g>
     </g>
    </g>
    <g id="ytick_5">
     <g id="line2d_11">
      <g>
       <use style="stroke:#000000;stroke-width:0.8;" x="50.555938" xlink:href="#mc5b2f48620" y="128.022719"/>
      </g>
     </g>
     <g id="text_12">
      <!-- 0.8 -->
      <g transform="translate(27.652813 131.821937)scale(0.1 -0.1)">
       <use xlink:href="#DejaVuSans-48"/>
       <use x="63.623047" xlink:href="#DejaVuSans-46"/>
       <use x="95.410156" xlink:href="#DejaVuSans-56"/>
      </g>
     </g>
    </g>
    <g id="ytick_6">
     <g id="line2d_12">
      <g>
       <use style="stroke:#000000;stroke-width:0.8;" x="50.555938" xlink:href="#mc5b2f48620" y="77.334719"/>
      </g>
     </g>
     <g id="text_13">
      <!-- 1.0 -->
      <g transform="translate(27.652813 81.133938)scale(0.1 -0.1)">
       <use xlink:href="#DejaVuSans-49"/>
       <use x="63.623047" xlink:href="#DejaVuSans-46"/>
       <use x="95.410156" xlink:href="#DejaVuSans-48"/>
      </g>
     </g>
    </g>
    <g id="text_14">
     <!-- Sensitivity -->
     <defs>
      <path d="M 54.890625 33.015625 
L 54.890625 0 
L 45.90625 0 
L 45.90625 32.71875 
Q 45.90625 40.484375 42.875 44.328125 
Q 39.84375 48.1875 33.796875 48.1875 
Q 26.515625 48.1875 22.3125 43.546875 
Q 18.109375 38.921875 18.109375 30.90625 
L 18.109375 0 
L 9.078125 0 
L 9.078125 54.6875 
L 18.109375 54.6875 
L 18.109375 46.1875 
Q 21.34375 51.125 25.703125 53.5625 
Q 30.078125 56 35.796875 56 
Q 45.21875 56 50.046875 50.171875 
Q 54.890625 44.34375 54.890625 33.015625 
z
" id="DejaVuSans-110"/>
      <path d="M 44.28125 53.078125 
L 44.28125 44.578125 
Q 40.484375 46.53125 36.375 47.5 
Q 32.28125 48.484375 27.875 48.484375 
Q 21.1875 48.484375 17.84375 46.4375 
Q 14.5 44.390625 14.5 40.28125 
Q 14.5 37.15625 16.890625 35.375 
Q 19.28125 33.59375 26.515625 31.984375 
L 29.59375 31.296875 
Q 39.15625 29.25 43.1875 25.515625 
Q 47.21875 21.78125 47.21875 15.09375 
Q 47.21875 7.46875 41.1875 3.015625 
Q 35.15625 -1.421875 24.609375 -1.421875 
Q 20.21875 -1.421875 15.453125 -0.5625 
Q 10.6875 0.296875 5.421875 2 
L 5.421875 11.28125 
Q 10.40625 8.6875 15.234375 7.390625 
Q 20.0625 6.109375 24.8125 6.109375 
Q 31.15625 6.109375 34.5625 8.28125 
Q 37.984375 10.453125 37.984375 14.40625 
Q 37.984375 18.0625 35.515625 20.015625 
Q 33.0625 21.96875 24.703125 23.78125 
L 21.578125 24.515625 
Q 13.234375 26.265625 9.515625 29.90625 
Q 5.8125 33.546875 5.8125 39.890625 
Q 5.8125 47.609375 11.28125 51.796875 
Q 16.75 56 26.8125 56 
Q 31.78125 56 36.171875 55.265625 
Q 40.578125 54.546875 44.28125 53.078125 
z
" id="DejaVuSans-115"/>
      <path d="M 2.984375 54.6875 
L 12.5 54.6875 
L 29.59375 8.796875 
L 46.6875 54.6875 
L 56.203125 54.6875 
L 35.6875 0 
L 23.484375 0 
z
" id="DejaVuSans-118"/>
     </defs>
     <g transform="translate(20.117344 241.970516)rotate(-90)scale(0.17 -0.17)">
      <use xlink:href="#DejaVuSans-83"/>
      <use x="63.476562" xlink:href="#DejaVuSans-101"/>
      <use x="125" xlink:href="#DejaVuSans-110"/>
      <use x="188.378906" xlink:href="#DejaVuSans-115"/>
      <use x="240.478516" xlink:href="#DejaVuSans-105"/>
      <use x="268.261719" xlink:href="#DejaVuSans-116"/>
      <use x="307.470703" xlink:href="#DejaVuSans-105"/>
      <use x="335.253906" xlink:href="#DejaVuSans-118"/>
      <use x="394.433594" xlink:href="#DejaVuSans-105"/>
      <use x="422.216797" xlink:href="#DejaVuSans-116"/>
      <use x="461.425781" xlink:href="#DejaVuSans-121"/>
     </g>
    </g>
   </g>
   <g id="line2d_13">
    <path clip-path="url(#p5f0ff8e2d3)" d="M 50.555938 330.774719 
L 50.555938 325.324396 
L 51.219729 325.324396 
L 51.219729 324.643106 
L 53.211105 324.643106 
L 53.211105 319.874074 
L 55.20248 319.874074 
L 55.20248 311.69859 
L 55.866272 311.69859 
L 55.866272 309.654719 
L 56.530064 309.654719 
L 56.530064 308.973428 
L 57.193856 308.973428 
L 57.193856 308.292138 
L 57.857648 308.292138 
L 57.857648 306.929557 
L 58.521439 306.929557 
L 58.521439 305.566977 
L 59.185231 305.566977 
L 59.185231 304.204396 
L 59.849023 304.204396 
L 59.849023 303.523106 
L 61.176607 303.523106 
L 61.176607 302.160525 
L 61.840398 302.160525 
L 61.840398 299.435364 
L 62.50419 299.435364 
L 62.50419 298.072783 
L 63.831774 298.072783 
L 63.831774 296.710203 
L 65.159358 296.710203 
L 65.159358 293.985041 
L 68.478317 293.985041 
L 68.478317 293.303751 
L 71.797276 293.303751 
L 71.797276 291.94117 
L 73.124859 291.94117 
L 73.124859 291.25988 
L 73.788651 291.25988 
L 73.788651 289.897299 
L 75.116235 289.897299 
L 75.116235 288.534719 
L 75.780027 288.534719 
L 75.780027 283.765686 
L 76.443819 283.765686 
L 76.443819 283.084396 
L 77.771402 283.084396 
L 77.771402 281.721816 
L 78.435194 281.721816 
L 78.435194 281.040525 
L 80.426569 281.040525 
L 80.426569 278.996654 
L 81.754153 278.996654 
L 81.754153 278.315364 
L 82.417945 278.315364 
L 82.417945 276.952783 
L 83.081737 276.952783 
L 83.081737 275.590203 
L 84.40932 275.590203 
L 84.40932 274.908912 
L 85.073112 274.908912 
L 85.073112 272.183751 
L 85.736904 272.183751 
L 85.736904 270.82117 
L 86.400696 270.82117 
L 86.400696 268.777299 
L 87.064488 268.777299 
L 87.064488 268.096009 
L 88.392071 268.096009 
L 88.392071 267.414719 
L 89.055863 267.414719 
L 89.055863 266.733428 
L 89.719655 266.733428 
L 89.719655 264.689557 
L 90.383447 264.689557 
L 90.383447 261.283106 
L 91.71103 261.283106 
L 91.71103 259.239235 
L 92.374822 259.239235 
L 92.374822 258.557945 
L 93.038614 258.557945 
L 93.038614 255.832783 
L 94.366198 255.832783 
L 94.366198 253.788912 
L 97.685157 253.788912 
L 97.685157 253.107622 
L 99.676532 253.107622 
L 99.676532 251.745041 
L 100.340324 251.745041 
L 100.340324 251.063751 
L 101.667908 251.063751 
L 101.667908 248.33859 
L 102.3317 248.33859 
L 102.3317 244.932138 
L 102.995491 244.932138 
L 102.995491 243.569557 
L 103.659283 243.569557 
L 103.659283 241.525686 
L 104.986867 241.525686 
L 104.986867 238.800525 
L 106.314451 238.800525 
L 106.314451 238.119235 
L 106.978242 238.119235 
L 106.978242 236.756654 
L 107.642034 236.756654 
L 107.642034 236.075364 
L 108.305826 236.075364 
L 108.305826 235.394074 
L 108.969618 235.394074 
L 108.969618 234.712783 
L 109.63341 234.712783 
L 109.63341 233.350203 
L 110.297201 233.350203 
L 110.297201 231.987622 
L 110.960993 231.987622 
L 110.960993 230.625041 
L 111.624785 230.625041 
L 111.624785 229.943751 
L 112.952369 229.943751 
L 112.952369 227.89988 
L 114.943744 227.89988 
L 114.943744 225.856009 
L 117.598911 225.856009 
L 117.598911 223.812138 
L 118.262703 223.812138 
L 118.262703 221.768267 
L 120.254079 221.768267 
L 120.254079 221.086977 
L 120.917871 221.086977 
L 120.917871 220.405686 
L 121.581662 220.405686 
L 121.581662 219.724396 
L 124.23683 219.724396 
L 124.23683 217.680525 
L 124.900622 217.680525 
L 124.900622 216.317945 
L 126.891997 216.317945 
L 126.891997 214.955364 
L 128.883372 214.955364 
L 128.883372 214.274074 
L 129.547164 214.274074 
L 129.547164 212.911493 
L 130.210956 212.911493 
L 130.210956 210.867622 
L 131.53854 210.867622 
L 131.53854 209.505041 
L 132.202332 209.505041 
L 132.202332 208.823751 
L 133.529915 208.823751 
L 133.529915 207.46117 
L 135.521291 207.46117 
L 135.521291 206.77988 
L 136.185082 206.77988 
L 136.185082 206.09859 
L 138.176458 206.09859 
L 138.176458 203.373428 
L 138.84025 203.373428 
L 138.84025 201.329557 
L 139.504042 201.329557 
L 139.504042 199.285686 
L 142.159209 199.285686 
L 142.159209 198.604396 
L 143.486793 198.604396 
L 143.486793 197.241816 
L 144.814376 197.241816 
L 144.814376 196.560525 
L 149.460919 196.560525 
L 149.460919 194.516654 
L 152.116086 194.516654 
L 152.116086 193.835364 
L 152.779878 193.835364 
L 152.779878 191.110203 
L 153.44367 191.110203 
L 153.44367 190.428912 
L 156.098837 190.428912 
L 156.098837 189.747622 
L 156.762629 189.747622 
L 156.762629 188.385041 
L 157.426421 188.385041 
L 157.426421 187.703751 
L 158.090213 187.703751 
L 158.090213 185.65988 
L 158.754004 185.65988 
L 158.754004 184.97859 
L 160.74538 184.97859 
L 160.74538 184.297299 
L 166.055714 184.297299 
L 166.055714 183.616009 
L 166.719506 183.616009 
L 166.719506 182.934719 
L 167.383298 182.934719 
L 167.383298 179.528267 
L 169.374674 179.528267 
L 169.374674 178.165686 
L 170.038465 178.165686 
L 170.038465 175.440525 
L 172.029841 175.440525 
L 172.029841 173.396654 
L 172.693633 173.396654 
L 172.693633 172.034074 
L 174.685008 172.034074 
L 174.685008 170.671493 
L 178.667759 170.671493 
L 178.667759 169.990203 
L 179.331551 169.990203 
L 179.331551 167.946332 
L 181.322926 167.946332 
L 181.322926 167.265041 
L 182.65051 167.265041 
L 182.65051 166.583751 
L 183.978094 166.583751 
L 183.978094 165.902461 
L 185.305677 165.902461 
L 185.305677 164.53988 
L 189.288428 164.53988 
L 189.288428 163.177299 
L 190.616012 163.177299 
L 190.616012 162.496009 
L 191.943595 162.496009 
L 191.943595 161.814719 
L 192.607387 161.814719 
L 192.607387 160.452138 
L 195.926346 160.452138 
L 195.926346 159.770848 
L 197.25393 159.770848 
L 197.25393 159.089557 
L 199.909097 159.089557 
L 199.909097 155.683106 
L 203.891848 155.683106 
L 203.891848 155.001816 
L 204.55564 155.001816 
L 204.55564 154.320525 
L 206.547016 154.320525 
L 206.547016 152.957945 
L 208.538391 152.957945 
L 208.538391 150.232783 
L 209.202183 150.232783 
L 209.202183 149.551493 
L 211.85735 149.551493 
L 211.85735 148.188912 
L 212.521142 148.188912 
L 212.521142 146.826332 
L 213.184934 146.826332 
L 213.184934 145.463751 
L 213.848726 145.463751 
L 213.848726 142.057299 
L 214.512517 142.057299 
L 214.512517 141.376009 
L 215.176309 141.376009 
L 215.176309 140.694719 
L 215.840101 140.694719 
L 215.840101 140.013428 
L 217.167685 140.013428 
L 217.167685 137.969557 
L 218.495268 137.969557 
L 218.495268 137.288267 
L 219.15906 137.288267 
L 219.15906 136.606977 
L 219.822852 136.606977 
L 219.822852 135.244396 
L 221.814227 135.244396 
L 221.814227 134.563106 
L 223.141811 134.563106 
L 223.141811 132.519235 
L 224.469395 132.519235 
L 224.469395 131.156654 
L 225.133187 131.156654 
L 225.133187 130.475364 
L 229.779729 130.475364 
L 229.779729 129.794074 
L 232.434897 129.794074 
L 232.434897 129.112783 
L 233.76248 129.112783 
L 233.76248 128.431493 
L 237.745231 128.431493 
L 237.745231 127.750203 
L 239.072815 127.750203 
L 239.072815 127.068912 
L 239.736607 127.068912 
L 239.736607 126.387622 
L 241.06419 126.387622 
L 241.06419 125.025041 
L 241.727982 125.025041 
L 241.727982 124.343751 
L 243.719358 124.343751 
L 243.719358 123.662461 
L 244.383149 123.662461 
L 244.383149 122.98117 
L 250.357276 122.98117 
L 250.357276 121.61859 
L 251.021068 121.61859 
L 251.021068 120.937299 
L 253.012443 120.937299 
L 253.012443 120.256009 
L 256.995194 120.256009 
L 256.995194 118.893428 
L 257.658986 118.893428 
L 257.658986 117.530848 
L 264.960696 117.530848 
L 264.960696 116.168267 
L 265.624488 116.168267 
L 265.624488 115.486977 
L 266.28828 115.486977 
L 266.28828 114.805686 
L 266.952071 114.805686 
L 266.952071 114.124396 
L 268.279655 114.124396 
L 268.279655 113.443106 
L 268.943447 113.443106 
L 268.943447 112.761816 
L 272.262406 112.761816 
L 272.262406 112.080525 
L 274.253781 112.080525 
L 274.253781 109.355364 
L 276.245157 109.355364 
L 276.245157 108.674074 
L 277.57274 108.674074 
L 277.57274 107.992783 
L 278.900324 107.992783 
L 278.900324 105.948912 
L 279.564116 105.948912 
L 279.564116 105.267622 
L 282.883075 105.267622 
L 282.883075 104.586332 
L 285.538242 104.586332 
L 285.538242 103.905041 
L 288.857201 103.905041 
L 288.857201 103.223751 
L 292.839952 103.223751 
L 292.839952 102.542461 
L 302.133038 102.542461 
L 302.133038 101.86117 
L 304.788205 101.86117 
L 304.788205 101.17988 
L 307.443372 101.17988 
L 307.443372 99.817299 
L 308.107164 99.817299 
L 308.107164 99.136009 
L 308.770956 99.136009 
L 308.770956 98.454719 
L 309.434748 98.454719 
L 309.434748 97.773428 
L 311.426123 97.773428 
L 311.426123 97.092138 
L 318.727833 97.092138 
L 318.727833 96.410848 
L 322.046793 96.410848 
L 322.046793 95.729557 
L 323.374376 95.729557 
L 323.374376 95.048267 
L 325.365752 95.048267 
L 325.365752 93.004396 
L 328.020919 93.004396 
L 328.020919 92.323106 
L 330.012294 92.323106 
L 330.012294 91.641816 
L 330.676086 91.641816 
L 330.676086 88.916654 
L 332.667462 88.916654 
L 332.667462 87.554074 
L 333.331253 87.554074 
L 333.331253 86.872783 
L 343.288131 86.872783 
L 343.288131 85.510203 
L 343.951923 85.510203 
L 343.951923 84.828912 
L 345.279506 84.828912 
L 345.279506 82.785041 
L 353.245008 82.785041 
L 353.245008 82.103751 
L 361.21051 82.103751 
L 361.21051 81.422461 
L 362.538094 81.422461 
L 362.538094 80.05988 
L 367.848428 80.05988 
L 367.848428 79.37859 
L 373.158763 79.37859 
L 373.158763 78.697299 
L 380.460473 78.697299 
L 380.460473 78.016009 
L 387.098391 78.016009 
L 387.098391 77.334719 
L 407.675938 77.334719 
L 407.675938 77.334719 
" style="fill:none;stroke:#ff0000;stroke-linecap:square;stroke-width:1.5;"/>
   </g>
   <g id="line2d_14">
    <path clip-path="url(#p5f0ff8e2d3)" d="M 50.555938 330.774719 
L 407.675938 77.334719 
" style="fill:none;stroke:#000080;stroke-dasharray:5.55,2.4;stroke-dashoffset:0;stroke-width:1.5;"/>
   </g>
   <g id="patch_3">
    <path d="M 50.555938 330.774719 
L 50.555938 64.662719 
" style="fill:none;stroke:#000000;stroke-linecap:square;stroke-linejoin:miter;stroke-width:0.8;"/>
   </g>
   <g id="patch_4">
    <path d="M 407.675938 330.774719 
L 407.675938 64.662719 
" style="fill:none;stroke:#000000;stroke-linecap:square;stroke-linejoin:miter;stroke-width:0.8;"/>
   </g>
   <g id="patch_5">
    <path d="M 50.555938 330.774719 
L 407.675938 330.774719 
" style="fill:none;stroke:#000000;stroke-linecap:square;stroke-linejoin:miter;stroke-width:0.8;"/>
   </g>
   <g id="patch_6">
    <path d="M 50.555938 64.662719 
L 407.675938 64.662719 
" style="fill:none;stroke:#000000;stroke-linecap:square;stroke-linejoin:miter;stroke-width:0.8;"/>
   </g>
   <g id="text_15">
    <!-- SVM -->
    <defs>
     <path d="M 28.609375 0 
L 0.78125 72.90625 
L 11.078125 72.90625 
L 34.1875 11.53125 
L 57.328125 72.90625 
L 67.578125 72.90625 
L 39.796875 0 
z
" id="DejaVuSans-86"/>
     <path d="M 9.8125 72.90625 
L 24.515625 72.90625 
L 43.109375 23.296875 
L 61.8125 72.90625 
L 76.515625 72.90625 
L 76.515625 0 
L 66.890625 0 
L 66.890625 64.015625 
L 48.09375 14.015625 
L 38.1875 14.015625 
L 19.390625 64.015625 
L 19.390625 0 
L 9.8125 0 
z
" id="DejaVuSans-77"/>
    </defs>
    <g transform="translate(210.571328 20.117344)scale(0.17 -0.17)">
     <use xlink:href="#DejaVuSans-83"/>
     <use x="63.476562" xlink:href="#DejaVuSans-86"/>
     <use x="131.884766" xlink:href="#DejaVuSans-77"/>
    </g>
    <!-- First_task AUC on all iterations -->
    <defs>
     <path d="M 9.8125 72.90625 
L 51.703125 72.90625 
L 51.703125 64.59375 
L 19.671875 64.59375 
L 19.671875 43.109375 
L 48.578125 43.109375 
L 48.578125 34.8125 
L 19.671875 34.8125 
L 19.671875 0 
L 9.8125 0 
z
" id="DejaVuSans-70"/>
     <path d="M 41.109375 46.296875 
Q 39.59375 47.171875 37.8125 47.578125 
Q 36.03125 48 33.890625 48 
Q 26.265625 48 22.1875 43.046875 
Q 18.109375 38.09375 18.109375 28.8125 
L 18.109375 0 
L 9.078125 0 
L 9.078125 54.6875 
L 18.109375 54.6875 
L 18.109375 46.1875 
Q 20.953125 51.171875 25.484375 53.578125 
Q 30.03125 56 36.53125 56 
Q 37.453125 56 38.578125 55.875 
Q 39.703125 55.765625 41.0625 55.515625 
z
" id="DejaVuSans-114"/>
     <path d="M 50.984375 -16.609375 
L 50.984375 -23.578125 
L -0.984375 -23.578125 
L -0.984375 -16.609375 
z
" id="DejaVuSans-95"/>
     <path d="M 34.28125 27.484375 
Q 23.390625 27.484375 19.1875 25 
Q 14.984375 22.515625 14.984375 16.5 
Q 14.984375 11.71875 18.140625 8.90625 
Q 21.296875 6.109375 26.703125 6.109375 
Q 34.1875 6.109375 38.703125 11.40625 
Q 43.21875 16.703125 43.21875 25.484375 
L 43.21875 27.484375 
z
M 52.203125 31.203125 
L 52.203125 0 
L 43.21875 0 
L 43.21875 8.296875 
Q 40.140625 3.328125 35.546875 0.953125 
Q 30.953125 -1.421875 24.3125 -1.421875 
Q 15.921875 -1.421875 10.953125 3.296875 
Q 6 8.015625 6 15.921875 
Q 6 25.140625 12.171875 29.828125 
Q 18.359375 34.515625 30.609375 34.515625 
L 43.21875 34.515625 
L 43.21875 35.40625 
Q 43.21875 41.609375 39.140625 45 
Q 35.0625 48.390625 27.6875 48.390625 
Q 23 48.390625 18.546875 47.265625 
Q 14.109375 46.140625 10.015625 43.890625 
L 10.015625 52.203125 
Q 14.9375 54.109375 19.578125 55.046875 
Q 24.21875 56 28.609375 56 
Q 40.484375 56 46.34375 49.84375 
Q 52.203125 43.703125 52.203125 31.203125 
z
" id="DejaVuSans-97"/>
     <path d="M 9.078125 75.984375 
L 18.109375 75.984375 
L 18.109375 31.109375 
L 44.921875 54.6875 
L 56.390625 54.6875 
L 27.390625 29.109375 
L 57.625 0 
L 45.90625 0 
L 18.109375 26.703125 
L 18.109375 0 
L 9.078125 0 
z
" id="DejaVuSans-107"/>
     <path id="DejaVuSans-32"/>
     <path d="M 34.1875 63.1875 
L 20.796875 26.90625 
L 47.609375 26.90625 
z
M 28.609375 72.90625 
L 39.796875 72.90625 
L 67.578125 0 
L 57.328125 0 
L 50.6875 18.703125 
L 17.828125 18.703125 
L 11.1875 0 
L 0.78125 0 
z
" id="DejaVuSans-65"/>
     <path d="M 8.6875 72.90625 
L 18.609375 72.90625 
L 18.609375 28.609375 
Q 18.609375 16.890625 22.84375 11.734375 
Q 27.09375 6.59375 36.625 6.59375 
Q 46.09375 6.59375 50.34375 11.734375 
Q 54.59375 16.890625 54.59375 28.609375 
L 54.59375 72.90625 
L 64.5 72.90625 
L 64.5 27.390625 
Q 64.5 13.140625 57.4375 5.859375 
Q 50.390625 -1.421875 36.625 -1.421875 
Q 22.796875 -1.421875 15.734375 5.859375 
Q 8.6875 13.140625 8.6875 27.390625 
z
" id="DejaVuSans-85"/>
     <path d="M 64.40625 67.28125 
L 64.40625 56.890625 
Q 59.421875 61.53125 53.78125 63.8125 
Q 48.140625 66.109375 41.796875 66.109375 
Q 29.296875 66.109375 22.65625 58.46875 
Q 16.015625 50.828125 16.015625 36.375 
Q 16.015625 21.96875 22.65625 14.328125 
Q 29.296875 6.6875 41.796875 6.6875 
Q 48.140625 6.6875 53.78125 8.984375 
Q 59.421875 11.28125 64.40625 15.921875 
L 64.40625 5.609375 
Q 59.234375 2.09375 53.4375 0.328125 
Q 47.65625 -1.421875 41.21875 -1.421875 
Q 24.65625 -1.421875 15.125 8.703125 
Q 5.609375 18.84375 5.609375 36.375 
Q 5.609375 53.953125 15.125 64.078125 
Q 24.65625 74.21875 41.21875 74.21875 
Q 47.75 74.21875 53.53125 72.484375 
Q 59.328125 70.75 64.40625 67.28125 
z
" id="DejaVuSans-67"/>
     <path d="M 30.609375 48.390625 
Q 23.390625 48.390625 19.1875 42.75 
Q 14.984375 37.109375 14.984375 27.296875 
Q 14.984375 17.484375 19.15625 11.84375 
Q 23.34375 6.203125 30.609375 6.203125 
Q 37.796875 6.203125 41.984375 11.859375 
Q 46.1875 17.53125 46.1875 27.296875 
Q 46.1875 37.015625 41.984375 42.703125 
Q 37.796875 48.390625 30.609375 48.390625 
z
M 30.609375 56 
Q 42.328125 56 49.015625 48.375 
Q 55.71875 40.765625 55.71875 27.296875 
Q 55.71875 13.875 49.015625 6.21875 
Q 42.328125 -1.421875 30.609375 -1.421875 
Q 18.84375 -1.421875 12.171875 6.21875 
Q 5.515625 13.875 5.515625 27.296875 
Q 5.515625 40.765625 12.171875 48.375 
Q 18.84375 56 30.609375 56 
z
" id="DejaVuSans-111"/>
     <path d="M 9.421875 75.984375 
L 18.40625 75.984375 
L 18.40625 0 
L 9.421875 0 
z
" id="DejaVuSans-108"/>
    </defs>
    <g transform="translate(98.846797 39.153625)scale(0.17 -0.17)">
     <use xlink:href="#DejaVuSans-70"/>
     <use x="57.410156" xlink:href="#DejaVuSans-105"/>
     <use x="85.193359" xlink:href="#DejaVuSans-114"/>
     <use x="126.306641" xlink:href="#DejaVuSans-115"/>
     <use x="178.40625" xlink:href="#DejaVuSans-116"/>
     <use x="217.615234" xlink:href="#DejaVuSans-95"/>
     <use x="267.615234" xlink:href="#DejaVuSans-116"/>
     <use x="306.824219" xlink:href="#DejaVuSans-97"/>
     <use x="368.103516" xlink:href="#DejaVuSans-115"/>
     <use x="420.203125" xlink:href="#DejaVuSans-107"/>
     <use x="478.113281" xlink:href="#DejaVuSans-32"/>
     <use x="509.900391" xlink:href="#DejaVuSans-65"/>
     <use x="578.308594" xlink:href="#DejaVuSans-85"/>
     <use x="651.501953" xlink:href="#DejaVuSans-67"/>
     <use x="721.326172" xlink:href="#DejaVuSans-32"/>
     <use x="753.113281" xlink:href="#DejaVuSans-111"/>
     <use x="814.294922" xlink:href="#DejaVuSans-110"/>
     <use x="877.673828" xlink:href="#DejaVuSans-32"/>
     <use x="909.460938" xlink:href="#DejaVuSans-97"/>
     <use x="970.740234" xlink:href="#DejaVuSans-108"/>
     <use x="998.523438" xlink:href="#DejaVuSans-108"/>
     <use x="1026.306641" xlink:href="#DejaVuSans-32"/>
     <use x="1058.09375" xlink:href="#DejaVuSans-105"/>
     <use x="1085.876953" xlink:href="#DejaVuSans-116"/>
     <use x="1125.085938" xlink:href="#DejaVuSans-101"/>
     <use x="1186.609375" xlink:href="#DejaVuSans-114"/>
     <use x="1227.722656" xlink:href="#DejaVuSans-97"/>
     <use x="1289.001953" xlink:href="#DejaVuSans-116"/>
     <use x="1328.210938" xlink:href="#DejaVuSans-105"/>
     <use x="1355.994141" xlink:href="#DejaVuSans-111"/>
     <use x="1417.175781" xlink:href="#DejaVuSans-110"/>
     <use x="1480.554688" xlink:href="#DejaVuSans-115"/>
    </g>
    <!-- roc=0.694 -->
    <defs>
     <path d="M 10.59375 45.40625 
L 73.1875 45.40625 
L 73.1875 37.203125 
L 10.59375 37.203125 
z
M 10.59375 25.484375 
L 73.1875 25.484375 
L 73.1875 17.1875 
L 10.59375 17.1875 
z
" id="DejaVuSans-61"/>
     <path d="M 10.984375 1.515625 
L 10.984375 10.5 
Q 14.703125 8.734375 18.5 7.8125 
Q 22.3125 6.890625 25.984375 6.890625 
Q 35.75 6.890625 40.890625 13.453125 
Q 46.046875 20.015625 46.78125 33.40625 
Q 43.953125 29.203125 39.59375 26.953125 
Q 35.25 24.703125 29.984375 24.703125 
Q 19.046875 24.703125 12.671875 31.3125 
Q 6.296875 37.9375 6.296875 49.421875 
Q 6.296875 60.640625 12.9375 67.421875 
Q 19.578125 74.21875 30.609375 74.21875 
Q 43.265625 74.21875 49.921875 64.515625 
Q 56.59375 54.828125 56.59375 36.375 
Q 56.59375 19.140625 48.40625 8.859375 
Q 40.234375 -1.421875 26.421875 -1.421875 
Q 22.703125 -1.421875 18.890625 -0.6875 
Q 15.09375 0.046875 10.984375 1.515625 
z
M 30.609375 32.421875 
Q 37.25 32.421875 41.125 36.953125 
Q 45.015625 41.5 45.015625 49.421875 
Q 45.015625 57.28125 41.125 61.84375 
Q 37.25 66.40625 30.609375 66.40625 
Q 23.96875 66.40625 20.09375 61.84375 
Q 16.21875 57.28125 16.21875 49.421875 
Q 16.21875 41.5 20.09375 36.953125 
Q 23.96875 32.421875 30.609375 32.421875 
z
" id="DejaVuSans-57"/>
    </defs>
    <g transform="translate(184.293047 58.662719)scale(0.17 -0.17)">
     <use xlink:href="#DejaVuSans-114"/>
     <use x="41.082031" xlink:href="#DejaVuSans-111"/>
     <use x="102.263672" xlink:href="#DejaVuSans-99"/>
     <use x="157.244141" xlink:href="#DejaVuSans-61"/>
     <use x="241.033203" xlink:href="#DejaVuSans-48"/>
     <use x="304.65625" xlink:href="#DejaVuSans-46"/>
     <use x="336.443359" xlink:href="#DejaVuSans-54"/>
     <use x="400.066406" xlink:href="#DejaVuSans-57"/>
     <use x="463.689453" xlink:href="#DejaVuSans-52"/>
    </g>
   </g>
   <g id="legend_1">
    <g id="patch_7">
     <path d="M 238.813437 325.774719 
L 400.675938 325.774719 
Q 402.675938 325.774719 402.675938 323.774719 
L 402.675938 310.096594 
Q 402.675938 308.096594 400.675938 308.096594 
L 238.813437 308.096594 
Q 236.813437 308.096594 236.813437 310.096594 
L 236.813437 323.774719 
Q 236.813437 325.774719 238.813437 325.774719 
z
" style="fill:#ffffff;opacity:0.8;stroke:#cccccc;stroke-linejoin:miter;"/>
    </g>
    <g id="line2d_15">
     <path d="M 240.813437 316.195031 
L 260.813437 316.195031 
" style="fill:none;stroke:#ff0000;stroke-linecap:square;stroke-width:1.5;"/>
    </g>
    <g id="line2d_16"/>
    <g id="text_16">
     <!-- ROC curve (area = 0.694) -->
     <defs>
      <path d="M 44.390625 34.1875 
Q 47.5625 33.109375 50.5625 29.59375 
Q 53.5625 26.078125 56.59375 19.921875 
L 66.609375 0 
L 56 0 
L 46.6875 18.703125 
Q 43.0625 26.03125 39.671875 28.421875 
Q 36.28125 30.8125 30.421875 30.8125 
L 19.671875 30.8125 
L 19.671875 0 
L 9.8125 0 
L 9.8125 72.90625 
L 32.078125 72.90625 
Q 44.578125 72.90625 50.734375 67.671875 
Q 56.890625 62.453125 56.890625 51.90625 
Q 56.890625 45.015625 53.6875 40.46875 
Q 50.484375 35.9375 44.390625 34.1875 
z
M 19.671875 64.796875 
L 19.671875 38.921875 
L 32.078125 38.921875 
Q 39.203125 38.921875 42.84375 42.21875 
Q 46.484375 45.515625 46.484375 51.90625 
Q 46.484375 58.296875 42.84375 61.546875 
Q 39.203125 64.796875 32.078125 64.796875 
z
" id="DejaVuSans-82"/>
      <path d="M 39.40625 66.21875 
Q 28.65625 66.21875 22.328125 58.203125 
Q 16.015625 50.203125 16.015625 36.375 
Q 16.015625 22.609375 22.328125 14.59375 
Q 28.65625 6.59375 39.40625 6.59375 
Q 50.140625 6.59375 56.421875 14.59375 
Q 62.703125 22.609375 62.703125 36.375 
Q 62.703125 50.203125 56.421875 58.203125 
Q 50.140625 66.21875 39.40625 66.21875 
z
M 39.40625 74.21875 
Q 54.734375 74.21875 63.90625 63.9375 
Q 73.09375 53.65625 73.09375 36.375 
Q 73.09375 19.140625 63.90625 8.859375 
Q 54.734375 -1.421875 39.40625 -1.421875 
Q 24.03125 -1.421875 14.8125 8.828125 
Q 5.609375 19.09375 5.609375 36.375 
Q 5.609375 53.65625 14.8125 63.9375 
Q 24.03125 74.21875 39.40625 74.21875 
z
" id="DejaVuSans-79"/>
      <path d="M 8.5 21.578125 
L 8.5 54.6875 
L 17.484375 54.6875 
L 17.484375 21.921875 
Q 17.484375 14.15625 20.5 10.265625 
Q 23.53125 6.390625 29.59375 6.390625 
Q 36.859375 6.390625 41.078125 11.03125 
Q 45.3125 15.671875 45.3125 23.6875 
L 45.3125 54.6875 
L 54.296875 54.6875 
L 54.296875 0 
L 45.3125 0 
L 45.3125 8.40625 
Q 42.046875 3.421875 37.71875 1 
Q 33.40625 -1.421875 27.6875 -1.421875 
Q 18.265625 -1.421875 13.375 4.4375 
Q 8.5 10.296875 8.5 21.578125 
z
M 31.109375 56 
z
" id="DejaVuSans-117"/>
      <path d="M 31 75.875 
Q 24.46875 64.65625 21.28125 53.65625 
Q 18.109375 42.671875 18.109375 31.390625 
Q 18.109375 20.125 21.3125 9.0625 
Q 24.515625 -2 31 -13.1875 
L 23.1875 -13.1875 
Q 15.875 -1.703125 12.234375 9.375 
Q 8.59375 20.453125 8.59375 31.390625 
Q 8.59375 42.28125 12.203125 53.3125 
Q 15.828125 64.359375 23.1875 75.875 
z
" id="DejaVuSans-40"/>
      <path d="M 8.015625 75.875 
L 15.828125 75.875 
Q 23.140625 64.359375 26.78125 53.3125 
Q 30.421875 42.28125 30.421875 31.390625 
Q 30.421875 20.453125 26.78125 9.375 
Q 23.140625 -1.703125 15.828125 -13.1875 
L 8.015625 -13.1875 
Q 14.5 -2 17.703125 9.0625 
Q 20.90625 20.125 20.90625 31.390625 
Q 20.90625 42.671875 17.703125 53.65625 
Q 14.5 64.65625 8.015625 75.875 
z
" id="DejaVuSans-41"/>
     </defs>
     <g transform="translate(268.813437 319.695031)scale(0.1 -0.1)">
      <use xlink:href="#DejaVuSans-82"/>
      <use x="69.482422" xlink:href="#DejaVuSans-79"/>
      <use x="148.193359" xlink:href="#DejaVuSans-67"/>
      <use x="218.017578" xlink:href="#DejaVuSans-32"/>
      <use x="249.804688" xlink:href="#DejaVuSans-99"/>
      <use x="304.785156" xlink:href="#DejaVuSans-117"/>
      <use x="368.164062" xlink:href="#DejaVuSans-114"/>
      <use x="409.277344" xlink:href="#DejaVuSans-118"/>
      <use x="468.457031" xlink:href="#DejaVuSans-101"/>
      <use x="529.980469" xlink:href="#DejaVuSans-32"/>
      <use x="561.767578" xlink:href="#DejaVuSans-40"/>
      <use x="600.78125" xlink:href="#DejaVuSans-97"/>
      <use x="662.060547" xlink:href="#DejaVuSans-114"/>
      <use x="703.142578" xlink:href="#DejaVuSans-101"/>
      <use x="764.666016" xlink:href="#DejaVuSans-97"/>
      <use x="825.945312" xlink:href="#DejaVuSans-32"/>
      <use x="857.732422" xlink:href="#DejaVuSans-61"/>
      <use x="941.521484" xlink:href="#DejaVuSans-32"/>
      <use x="973.308594" xlink:href="#DejaVuSans-48"/>
      <use x="1036.931641" xlink:href="#DejaVuSans-46"/>
      <use x="1068.71875" xlink:href="#DejaVuSans-54"/>
      <use x="1132.341797" xlink:href="#DejaVuSans-57"/>
      <use x="1195.964844" xlink:href="#DejaVuSans-52"/>
      <use x="1259.587891" xlink:href="#DejaVuSans-41"/>
     </g>
    </g>
   </g>
  </g>
 </g>
 <defs>
  <clipPath id="p5f0ff8e2d3">
   <rect height="266.112" width="357.12" x="50.555938" y="64.662719"/>
  </clipPath>
 </defs>
</svg>
