<?xml version="1.0" encoding="utf-8" standalone="no"?>
<!DOCTYPE svg PUBLIC "-//W3C//DTD SVG 1.1//EN"
  "http://www.w3.org/Graphics/SVG/1.1/DTD/svg11.dtd">
<!-- Created with matplotlib (https://matplotlib.org/) -->
<svg height="374.632844pt" version="1.1" viewBox="0 0 422.8275 374.632844" width="422.8275pt" xmlns="http://www.w3.org/2000/svg" xmlns:xlink="http://www.w3.org/1999/xlink">
 <defs>
  <style type="text/css">
*{stroke-linecap:butt;stroke-linejoin:round;}
  </style>
 </defs>
 <g id="figure_1">
  <g id="patch_1">
   <path d="M 0 374.632844 
L 422.8275 374.632844 
L 422.8275 0 
L 0 0 
z
" style="fill:#ffffff;"/>
  </g>
  <g id="axes_1">
   <g id="patch_2">
    <path d="M 50.555938 330.301906 
L 407.675938 330.301906 
L 407.675938 64.189906 
L 50.555938 64.189906 
z
" style="fill:#ffffff;"/>
   </g>
   <g id="matplotlib.axis_1">
    <g id="xtick_1">
     <g id="line2d_1">
      <defs>
       <path d="M 0 0 
L 0 3.5 
" id="mda59836163" style="stroke:#000000;stroke-width:0.8;"/>
      </defs>
      <g>
       <use style="stroke:#000000;stroke-width:0.8;" x="50.555938" xlink:href="#mda59836163" y="330.301906"/>
      </g>
     </g>
     <g id="text_1">
      <!-- 0.0 -->
      <defs>
       <path d="M 31.78125 66.40625 
Q 24.171875 66.40625 20.328125 58.90625 
Q 16.5 51.421875 16.5 36.375 
Q 16.5 21.390625 20.328125 13.890625 
Q 24.171875 6.390625 31.78125 6.390625 
Q 39.453125 6.390625 43.28125 13.890625 
Q 47.125 21.390625 47.125 36.375 
Q 47.125 51.421875 43.28125 58.90625 
Q 39.453125 66.40625 31.78125 66.40625 
z
M 31.78125 74.21875 
Q 44.046875 74.21875 50.515625 64.515625 
Q 56.984375 54.828125 56.984375 36.375 
Q 56.984375 17.96875 50.515625 8.265625 
Q 44.046875 -1.421875 31.78125 -1.421875 
Q 19.53125 -1.421875 13.0625 8.265625 
Q 6.59375 17.96875 6.59375 36.375 
Q 6.59375 54.828125 13.0625 64.515625 
Q 19.53125 74.21875 31.78125 74.21875 
z
" id="DejaVuSans-48"/>
       <path d="M 10.6875 12.40625 
L 21 12.40625 
L 21 0 
L 10.6875 0 
z
" id="DejaVuSans-46"/>
      </defs>
      <g transform="translate(42.604375 344.900344)scale(0.1 -0.1)">
       <use xlink:href="#DejaVuSans-48"/>
       <use x="63.623047" xlink:href="#DejaVuSans-46"/>
       <use x="95.410156" xlink:href="#DejaVuSans-48"/>
      </g>
     </g>
    </g>
    <g id="xtick_2">
     <g id="line2d_2">
      <g>
       <use style="stroke:#000000;stroke-width:0.8;" x="121.979938" xlink:href="#mda59836163" y="330.301906"/>
      </g>
     </g>
     <g id="text_2">
      <!-- 0.2 -->
      <defs>
       <path d="M 19.1875 8.296875 
L 53.609375 8.296875 
L 53.609375 0 
L 7.328125 0 
L 7.328125 8.296875 
Q 12.9375 14.109375 22.625 23.890625 
Q 32.328125 33.6875 34.8125 36.53125 
Q 39.546875 41.84375 41.421875 45.53125 
Q 43.3125 49.21875 43.3125 52.78125 
Q 43.3125 58.59375 39.234375 62.25 
Q 35.15625 65.921875 28.609375 65.921875 
Q 23.96875 65.921875 18.8125 64.3125 
Q 13.671875 62.703125 7.8125 59.421875 
L 7.8125 69.390625 
Q 13.765625 71.78125 18.9375 73 
Q 24.125 74.21875 28.421875 74.21875 
Q 39.75 74.21875 46.484375 68.546875 
Q 53.21875 62.890625 53.21875 53.421875 
Q 53.21875 48.921875 51.53125 44.890625 
Q 49.859375 40.875 45.40625 35.40625 
Q 44.1875 33.984375 37.640625 27.21875 
Q 31.109375 20.453125 19.1875 8.296875 
z
" id="DejaVuSans-50"/>
      </defs>
      <g transform="translate(114.028375 344.900344)scale(0.1 -0.1)">
       <use xlink:href="#DejaVuSans-48"/>
       <use x="63.623047" xlink:href="#DejaVuSans-46"/>
       <use x="95.410156" xlink:href="#DejaVuSans-50"/>
      </g>
     </g>
    </g>
    <g id="xtick_3">
     <g id="line2d_3">
      <g>
       <use style="stroke:#000000;stroke-width:0.8;" x="193.403938" xlink:href="#mda59836163" y="330.301906"/>
      </g>
     </g>
     <g id="text_3">
      <!-- 0.4 -->
      <defs>
       <path d="M 37.796875 64.3125 
L 12.890625 25.390625 
L 37.796875 25.390625 
z
M 35.203125 72.90625 
L 47.609375 72.90625 
L 47.609375 25.390625 
L 58.015625 25.390625 
L 58.015625 17.1875 
L 47.609375 17.1875 
L 47.609375 0 
L 37.796875 0 
L 37.796875 17.1875 
L 4.890625 17.1875 
L 4.890625 26.703125 
z
" id="DejaVuSans-52"/>
      </defs>
      <g transform="translate(185.452375 344.900344)scale(0.1 -0.1)">
       <use xlink:href="#DejaVuSans-48"/>
       <use x="63.623047" xlink:href="#DejaVuSans-46"/>
       <use x="95.410156" xlink:href="#DejaVuSans-52"/>
      </g>
     </g>
    </g>
    <g id="xtick_4">
     <g id="line2d_4">
      <g>
       <use style="stroke:#000000;stroke-width:0.8;" x="264.827938" xlink:href="#mda59836163" y="330.301906"/>
      </g>
     </g>
     <g id="text_4">
      <!-- 0.6 -->
      <defs>
       <path d="M 33.015625 40.375 
Q 26.375 40.375 22.484375 35.828125 
Q 18.609375 31.296875 18.609375 23.390625 
Q 18.609375 15.53125 22.484375 10.953125 
Q 26.375 6.390625 33.015625 6.390625 
Q 39.65625 6.390625 43.53125 10.953125 
Q 47.40625 15.53125 47.40625 23.390625 
Q 47.40625 31.296875 43.53125 35.828125 
Q 39.65625 40.375 33.015625 40.375 
z
M 52.59375 71.296875 
L 52.59375 62.3125 
Q 48.875 64.0625 45.09375 64.984375 
Q 41.3125 65.921875 37.59375 65.921875 
Q 27.828125 65.921875 22.671875 59.328125 
Q 17.53125 52.734375 16.796875 39.40625 
Q 19.671875 43.65625 24.015625 45.921875 
Q 28.375 48.1875 33.59375 48.1875 
Q 44.578125 48.1875 50.953125 41.515625 
Q 57.328125 34.859375 57.328125 23.390625 
Q 57.328125 12.15625 50.6875 5.359375 
Q 44.046875 -1.421875 33.015625 -1.421875 
Q 20.359375 -1.421875 13.671875 8.265625 
Q 6.984375 17.96875 6.984375 36.375 
Q 6.984375 53.65625 15.1875 63.9375 
Q 23.390625 74.21875 37.203125 74.21875 
Q 40.921875 74.21875 44.703125 73.484375 
Q 48.484375 72.75 52.59375 71.296875 
z
" id="DejaVuSans-54"/>
      </defs>
      <g transform="translate(256.876375 344.900344)scale(0.1 -0.1)">
       <use xlink:href="#DejaVuSans-48"/>
       <use x="63.623047" xlink:href="#DejaVuSans-46"/>
       <use x="95.410156" xlink:href="#DejaVuSans-54"/>
      </g>
     </g>
    </g>
    <g id="xtick_5">
     <g id="line2d_5">
      <g>
       <use style="stroke:#000000;stroke-width:0.8;" x="336.251938" xlink:href="#mda59836163" y="330.301906"/>
      </g>
     </g>
     <g id="text_5">
      <!-- 0.8 -->
      <defs>
       <path d="M 31.78125 34.625 
Q 24.75 34.625 20.71875 30.859375 
Q 16.703125 27.09375 16.703125 20.515625 
Q 16.703125 13.921875 20.71875 10.15625 
Q 24.75 6.390625 31.78125 6.390625 
Q 38.8125 6.390625 42.859375 10.171875 
Q 46.921875 13.96875 46.921875 20.515625 
Q 46.921875 27.09375 42.890625 30.859375 
Q 38.875 34.625 31.78125 34.625 
z
M 21.921875 38.8125 
Q 15.578125 40.375 12.03125 44.71875 
Q 8.5 49.078125 8.5 55.328125 
Q 8.5 64.0625 14.71875 69.140625 
Q 20.953125 74.21875 31.78125 74.21875 
Q 42.671875 74.21875 48.875 69.140625 
Q 55.078125 64.0625 55.078125 55.328125 
Q 55.078125 49.078125 51.53125 44.71875 
Q 48 40.375 41.703125 38.8125 
Q 48.828125 37.15625 52.796875 32.3125 
Q 56.78125 27.484375 56.78125 20.515625 
Q 56.78125 9.90625 50.3125 4.234375 
Q 43.84375 -1.421875 31.78125 -1.421875 
Q 19.734375 -1.421875 13.25 4.234375 
Q 6.78125 9.90625 6.78125 20.515625 
Q 6.78125 27.484375 10.78125 32.3125 
Q 14.796875 37.15625 21.921875 38.8125 
z
M 18.3125 54.390625 
Q 18.3125 48.734375 21.84375 45.5625 
Q 25.390625 42.390625 31.78125 42.390625 
Q 38.140625 42.390625 41.71875 45.5625 
Q 45.3125 48.734375 45.3125 54.390625 
Q 45.3125 60.0625 41.71875 63.234375 
Q 38.140625 66.40625 31.78125 66.40625 
Q 25.390625 66.40625 21.84375 63.234375 
Q 18.3125 60.0625 18.3125 54.390625 
z
" id="DejaVuSans-56"/>
      </defs>
      <g transform="translate(328.300375 344.900344)scale(0.1 -0.1)">
       <use xlink:href="#DejaVuSans-48"/>
       <use x="63.623047" xlink:href="#DejaVuSans-46"/>
       <use x="95.410156" xlink:href="#DejaVuSans-56"/>
      </g>
     </g>
    </g>
    <g id="xtick_6">
     <g id="line2d_6">
      <g>
       <use style="stroke:#000000;stroke-width:0.8;" x="407.675938" xlink:href="#mda59836163" y="330.301906"/>
      </g>
     </g>
     <g id="text_6">
      <!-- 1.0 -->
      <defs>
       <path d="M 12.40625 8.296875 
L 28.515625 8.296875 
L 28.515625 63.921875 
L 10.984375 60.40625 
L 10.984375 69.390625 
L 28.421875 72.90625 
L 38.28125 72.90625 
L 38.28125 8.296875 
L 54.390625 8.296875 
L 54.390625 0 
L 12.40625 0 
z
" id="DejaVuSans-49"/>
      </defs>
      <g transform="translate(399.724375 344.900344)scale(0.1 -0.1)">
       <use xlink:href="#DejaVuSans-49"/>
       <use x="63.623047" xlink:href="#DejaVuSans-46"/>
       <use x="95.410156" xlink:href="#DejaVuSans-48"/>
      </g>
     </g>
    </g>
    <g id="text_7">
     <!-- Specificity -->
     <defs>
      <path d="M 53.515625 70.515625 
L 53.515625 60.890625 
Q 47.90625 63.578125 42.921875 64.890625 
Q 37.9375 66.21875 33.296875 66.21875 
Q 25.25 66.21875 20.875 63.09375 
Q 16.5 59.96875 16.5 54.203125 
Q 16.5 49.359375 19.40625 46.890625 
Q 22.3125 44.4375 30.421875 42.921875 
L 36.375 41.703125 
Q 47.40625 39.59375 52.65625 34.296875 
Q 57.90625 29 57.90625 20.125 
Q 57.90625 9.515625 50.796875 4.046875 
Q 43.703125 -1.421875 29.984375 -1.421875 
Q 24.8125 -1.421875 18.96875 -0.25 
Q 13.140625 0.921875 6.890625 3.21875 
L 6.890625 13.375 
Q 12.890625 10.015625 18.65625 8.296875 
Q 24.421875 6.59375 29.984375 6.59375 
Q 38.421875 6.59375 43.015625 9.90625 
Q 47.609375 13.234375 47.609375 19.390625 
Q 47.609375 24.75 44.3125 27.78125 
Q 41.015625 30.8125 33.5 32.328125 
L 27.484375 33.5 
Q 16.453125 35.6875 11.515625 40.375 
Q 6.59375 45.0625 6.59375 53.421875 
Q 6.59375 63.09375 13.40625 68.65625 
Q 20.21875 74.21875 32.171875 74.21875 
Q 37.3125 74.21875 42.625 73.28125 
Q 47.953125 72.359375 53.515625 70.515625 
z
" id="DejaVuSans-83"/>
      <path d="M 18.109375 8.203125 
L 18.109375 -20.796875 
L 9.078125 -20.796875 
L 9.078125 54.6875 
L 18.109375 54.6875 
L 18.109375 46.390625 
Q 20.953125 51.265625 25.265625 53.625 
Q 29.59375 56 35.59375 56 
Q 45.5625 56 51.78125 48.09375 
Q 58.015625 40.1875 58.015625 27.296875 
Q 58.015625 14.40625 51.78125 6.484375 
Q 45.5625 -1.421875 35.59375 -1.421875 
Q 29.59375 -1.421875 25.265625 0.953125 
Q 20.953125 3.328125 18.109375 8.203125 
z
M 48.6875 27.296875 
Q 48.6875 37.203125 44.609375 42.84375 
Q 40.53125 48.484375 33.40625 48.484375 
Q 26.265625 48.484375 22.1875 42.84375 
Q 18.109375 37.203125 18.109375 27.296875 
Q 18.109375 17.390625 22.1875 11.75 
Q 26.265625 6.109375 33.40625 6.109375 
Q 40.53125 6.109375 44.609375 11.75 
Q 48.6875 17.390625 48.6875 27.296875 
z
" id="DejaVuSans-112"/>
      <path d="M 56.203125 29.59375 
L 56.203125 25.203125 
L 14.890625 25.203125 
Q 15.484375 15.921875 20.484375 11.0625 
Q 25.484375 6.203125 34.421875 6.203125 
Q 39.59375 6.203125 44.453125 7.46875 
Q 49.3125 8.734375 54.109375 11.28125 
L 54.109375 2.78125 
Q 49.265625 0.734375 44.1875 -0.34375 
Q 39.109375 -1.421875 33.890625 -1.421875 
Q 20.796875 -1.421875 13.15625 6.1875 
Q 5.515625 13.8125 5.515625 26.8125 
Q 5.515625 40.234375 12.765625 48.109375 
Q 20.015625 56 32.328125 56 
Q 43.359375 56 49.78125 48.890625 
Q 56.203125 41.796875 56.203125 29.59375 
z
M 47.21875 32.234375 
Q 47.125 39.59375 43.09375 43.984375 
Q 39.0625 48.390625 32.421875 48.390625 
Q 24.90625 48.390625 20.390625 44.140625 
Q 15.875 39.890625 15.1875 32.171875 
z
" id="DejaVuSans-101"/>
      <path d="M 48.78125 52.59375 
L 48.78125 44.1875 
Q 44.96875 46.296875 41.140625 47.34375 
Q 37.3125 48.390625 33.40625 48.390625 
Q 24.65625 48.390625 19.8125 42.84375 
Q 14.984375 37.3125 14.984375 27.296875 
Q 14.984375 17.28125 19.8125 11.734375 
Q 24.65625 6.203125 33.40625 6.203125 
Q 37.3125 6.203125 41.140625 7.25 
Q 44.96875 8.296875 48.78125 10.40625 
L 48.78125 2.09375 
Q 45.015625 0.34375 40.984375 -0.53125 
Q 36.96875 -1.421875 32.421875 -1.421875 
Q 20.0625 -1.421875 12.78125 6.34375 
Q 5.515625 14.109375 5.515625 27.296875 
Q 5.515625 40.671875 12.859375 48.328125 
Q 20.21875 56 33.015625 56 
Q 37.15625 56 41.109375 55.140625 
Q 45.0625 54.296875 48.78125 52.59375 
z
" id="DejaVuSans-99"/>
      <path d="M 9.421875 54.6875 
L 18.40625 54.6875 
L 18.40625 0 
L 9.421875 0 
z
M 9.421875 75.984375 
L 18.40625 75.984375 
L 18.40625 64.59375 
L 9.421875 64.59375 
z
" id="DejaVuSans-105"/>
      <path d="M 37.109375 75.984375 
L 37.109375 68.5 
L 28.515625 68.5 
Q 23.6875 68.5 21.796875 66.546875 
Q 19.921875 64.59375 19.921875 59.515625 
L 19.921875 54.6875 
L 34.71875 54.6875 
L 34.71875 47.703125 
L 19.921875 47.703125 
L 19.921875 0 
L 10.890625 0 
L 10.890625 47.703125 
L 2.296875 47.703125 
L 2.296875 54.6875 
L 10.890625 54.6875 
L 10.890625 58.5 
Q 10.890625 67.625 15.140625 71.796875 
Q 19.390625 75.984375 28.609375 75.984375 
z
" id="DejaVuSans-102"/>
      <path d="M 18.3125 70.21875 
L 18.3125 54.6875 
L 36.8125 54.6875 
L 36.8125 47.703125 
L 18.3125 47.703125 
L 18.3125 18.015625 
Q 18.3125 11.328125 20.140625 9.421875 
Q 21.96875 7.515625 27.59375 7.515625 
L 36.8125 7.515625 
L 36.8125 0 
L 27.59375 0 
Q 17.1875 0 13.234375 3.875 
Q 9.28125 7.765625 9.28125 18.015625 
L 9.28125 47.703125 
L 2.6875 47.703125 
L 2.6875 54.6875 
L 9.28125 54.6875 
L 9.28125 70.21875 
z
" id="DejaVuSans-116"/>
      <path d="M 32.171875 -5.078125 
Q 28.375 -14.84375 24.75 -17.8125 
Q 21.140625 -20.796875 15.09375 -20.796875 
L 7.90625 -20.796875 
L 7.90625 -13.28125 
L 13.1875 -13.28125 
Q 16.890625 -13.28125 18.9375 -11.515625 
Q 21 -9.765625 23.484375 -3.21875 
L 25.09375 0.875 
L 2.984375 54.6875 
L 12.5 54.6875 
L 29.59375 11.921875 
L 46.6875 54.6875 
L 56.203125 54.6875 
z
" id="DejaVuSans-121"/>
     </defs>
     <g transform="translate(185.306406 363.897375)scale(0.17 -0.17)">
      <use xlink:href="#DejaVuSans-83"/>
      <use x="63.476562" xlink:href="#DejaVuSans-112"/>
      <use x="126.953125" xlink:href="#DejaVuSans-101"/>
      <use x="188.476562" xlink:href="#DejaVuSans-99"/>
      <use x="243.457031" xlink:href="#DejaVuSans-105"/>
      <use x="271.240234" xlink:href="#DejaVuSans-102"/>
      <use x="306.445312" xlink:href="#DejaVuSans-105"/>
      <use x="334.228516" xlink:href="#DejaVuSans-99"/>
      <use x="389.208984" xlink:href="#DejaVuSans-105"/>
      <use x="416.992188" xlink:href="#DejaVuSans-116"/>
      <use x="456.201172" xlink:href="#DejaVuSans-121"/>
     </g>
    </g>
   </g>
   <g id="matplotlib.axis_2">
    <g id="ytick_1">
     <g id="line2d_7">
      <defs>
       <path d="M 0 0 
L -3.5 0 
" id="md292539b10" style="stroke:#000000;stroke-width:0.8;"/>
      </defs>
      <g>
       <use style="stroke:#000000;stroke-width:0.8;" x="50.555938" xlink:href="#md292539b10" y="330.301906"/>
      </g>
     </g>
     <g id="text_8">
      <!-- 0.0 -->
      <g transform="translate(27.652813 334.101125)scale(0.1 -0.1)">
       <use xlink:href="#DejaVuSans-48"/>
       <use x="63.623047" xlink:href="#DejaVuSans-46"/>
       <use x="95.410156" xlink:href="#DejaVuSans-48"/>
      </g>
     </g>
    </g>
    <g id="ytick_2">
     <g id="line2d_8">
      <g>
       <use style="stroke:#000000;stroke-width:0.8;" x="50.555938" xlink:href="#md292539b10" y="279.613906"/>
      </g>
     </g>
     <g id="text_9">
      <!-- 0.2 -->
      <g transform="translate(27.652813 283.413125)scale(0.1 -0.1)">
       <use xlink:href="#DejaVuSans-48"/>
       <use x="63.623047" xlink:href="#DejaVuSans-46"/>
       <use x="95.410156" xlink:href="#DejaVuSans-50"/>
      </g>
     </g>
    </g>
    <g id="ytick_3">
     <g id="line2d_9">
      <g>
       <use style="stroke:#000000;stroke-width:0.8;" x="50.555938" xlink:href="#md292539b10" y="228.925906"/>
      </g>
     </g>
     <g id="text_10">
      <!-- 0.4 -->
      <g transform="translate(27.652813 232.725125)scale(0.1 -0.1)">
       <use xlink:href="#DejaVuSans-48"/>
       <use x="63.623047" xlink:href="#DejaVuSans-46"/>
       <use x="95.410156" xlink:href="#DejaVuSans-52"/>
      </g>
     </g>
    </g>
    <g id="ytick_4">
     <g id="line2d_10">
      <g>
       <use style="stroke:#000000;stroke-width:0.8;" x="50.555938" xlink:href="#md292539b10" y="178.237906"/>
      </g>
     </g>
     <g id="text_11">
      <!-- 0.6 -->
      <g transform="translate(27.652813 182.037125)scale(0.1 -0.1)">
       <use xlink:href="#DejaVuSans-48"/>
       <use x="63.623047" xlink:href="#DejaVuSans-46"/>
       <use x="95.410156" xlink:href="#DejaVuSans-54"/>
      </g>
     </g>
    </g>
    <g id="ytick_5">
     <g id="line2d_11">
      <g>
       <use style="stroke:#000000;stroke-width:0.8;" x="50.555938" xlink:href="#md292539b10" y="127.549906"/>
      </g>
     </g>
     <g id="text_12">
      <!-- 0.8 -->
      <g transform="translate(27.652813 131.349125)scale(0.1 -0.1)">
       <use xlink:href="#DejaVuSans-48"/>
       <use x="63.623047" xlink:href="#DejaVuSans-46"/>
       <use x="95.410156" xlink:href="#DejaVuSans-56"/>
      </g>
     </g>
    </g>
    <g id="ytick_6">
     <g id="line2d_12">
      <g>
       <use style="stroke:#000000;stroke-width:0.8;" x="50.555938" xlink:href="#md292539b10" y="76.861906"/>
      </g>
     </g>
     <g id="text_13">
      <!-- 1.0 -->
      <g transform="translate(27.652813 80.661125)scale(0.1 -0.1)">
       <use xlink:href="#DejaVuSans-49"/>
       <use x="63.623047" xlink:href="#DejaVuSans-46"/>
       <use x="95.410156" xlink:href="#DejaVuSans-48"/>
      </g>
     </g>
    </g>
    <g id="text_14">
     <!-- Sensitivity -->
     <defs>
      <path d="M 54.890625 33.015625 
L 54.890625 0 
L 45.90625 0 
L 45.90625 32.71875 
Q 45.90625 40.484375 42.875 44.328125 
Q 39.84375 48.1875 33.796875 48.1875 
Q 26.515625 48.1875 22.3125 43.546875 
Q 18.109375 38.921875 18.109375 30.90625 
L 18.109375 0 
L 9.078125 0 
L 9.078125 54.6875 
L 18.109375 54.6875 
L 18.109375 46.1875 
Q 21.34375 51.125 25.703125 53.5625 
Q 30.078125 56 35.796875 56 
Q 45.21875 56 50.046875 50.171875 
Q 54.890625 44.34375 54.890625 33.015625 
z
" id="DejaVuSans-110"/>
      <path d="M 44.28125 53.078125 
L 44.28125 44.578125 
Q 40.484375 46.53125 36.375 47.5 
Q 32.28125 48.484375 27.875 48.484375 
Q 21.1875 48.484375 17.84375 46.4375 
Q 14.5 44.390625 14.5 40.28125 
Q 14.5 37.15625 16.890625 35.375 
Q 19.28125 33.59375 26.515625 31.984375 
L 29.59375 31.296875 
Q 39.15625 29.25 43.1875 25.515625 
Q 47.21875 21.78125 47.21875 15.09375 
Q 47.21875 7.46875 41.1875 3.015625 
Q 35.15625 -1.421875 24.609375 -1.421875 
Q 20.21875 -1.421875 15.453125 -0.5625 
Q 10.6875 0.296875 5.421875 2 
L 5.421875 11.28125 
Q 10.40625 8.6875 15.234375 7.390625 
Q 20.0625 6.109375 24.8125 6.109375 
Q 31.15625 6.109375 34.5625 8.28125 
Q 37.984375 10.453125 37.984375 14.40625 
Q 37.984375 18.0625 35.515625 20.015625 
Q 33.0625 21.96875 24.703125 23.78125 
L 21.578125 24.515625 
Q 13.234375 26.265625 9.515625 29.90625 
Q 5.8125 33.546875 5.8125 39.890625 
Q 5.8125 47.609375 11.28125 51.796875 
Q 16.75 56 26.8125 56 
Q 31.78125 56 36.171875 55.265625 
Q 40.578125 54.546875 44.28125 53.078125 
z
" id="DejaVuSans-115"/>
      <path d="M 2.984375 54.6875 
L 12.5 54.6875 
L 29.59375 8.796875 
L 46.6875 54.6875 
L 56.203125 54.6875 
L 35.6875 0 
L 23.484375 0 
z
" id="DejaVuSans-118"/>
     </defs>
     <g transform="translate(20.117344 241.497703)rotate(-90)scale(0.17 -0.17)">
      <use xlink:href="#DejaVuSans-83"/>
      <use x="63.476562" xlink:href="#DejaVuSans-101"/>
      <use x="125" xlink:href="#DejaVuSans-110"/>
      <use x="188.378906" xlink:href="#DejaVuSans-115"/>
      <use x="240.478516" xlink:href="#DejaVuSans-105"/>
      <use x="268.261719" xlink:href="#DejaVuSans-116"/>
      <use x="307.470703" xlink:href="#DejaVuSans-105"/>
      <use x="335.253906" xlink:href="#DejaVuSans-118"/>
      <use x="394.433594" xlink:href="#DejaVuSans-105"/>
      <use x="422.216797" xlink:href="#DejaVuSans-116"/>
      <use x="461.425781" xlink:href="#DejaVuSans-121"/>
     </g>
    </g>
   </g>
   <g id="line2d_13">
    <path clip-path="url(#p9c40039ec8)" d="M 50.555938 330.301906 
L 50.555938 328.920762 
L 52.065959 328.920762 
L 52.065959 327.539617 
L 52.820969 327.539617 
L 52.820969 323.396184 
L 53.57598 323.396184 
L 53.57598 322.705612 
L 55.841011 322.705612 
L 55.841011 320.633895 
L 58.106043 320.633895 
L 58.106043 319.943323 
L 58.861054 319.943323 
L 58.861054 312.347029 
L 61.126085 312.347029 
L 61.126085 311.656457 
L 63.391117 311.656457 
L 63.391117 309.58474 
L 64.901138 309.58474 
L 64.901138 308.894168 
L 66.411159 308.894168 
L 66.411159 306.822451 
L 67.16617 306.822451 
L 67.16617 305.441307 
L 67.921181 305.441307 
L 67.921181 300.607301 
L 68.676191 300.607301 
L 68.676191 299.226157 
L 69.431202 299.226157 
L 69.431202 296.463868 
L 71.696233 296.463868 
L 71.696233 293.701579 
L 72.451244 293.701579 
L 72.451244 292.320435 
L 74.716276 292.320435 
L 74.716276 288.867574 
L 76.226297 288.867574 
L 76.226297 286.105285 
L 76.981307 286.105285 
L 76.981307 285.414713 
L 78.491329 285.414713 
L 78.491329 283.342996 
L 79.246339 283.342996 
L 79.246339 279.199563 
L 80.00135 279.199563 
L 80.00135 277.818419 
L 83.021392 277.818419 
L 83.021392 277.127846 
L 85.286424 277.127846 
L 85.286424 275.746702 
L 87.551455 275.746702 
L 87.551455 275.05613 
L 88.306466 275.05613 
L 88.306466 273.674985 
L 89.816487 273.674985 
L 89.816487 270.912696 
L 92.081519 270.912696 
L 92.081519 267.459835 
L 92.836529 267.459835 
L 92.836529 265.388119 
L 94.346551 265.388119 
L 94.346551 264.006974 
L 98.121603 264.006974 
L 98.121603 263.316402 
L 98.876614 263.316402 
L 98.876614 261.935258 
L 99.631625 261.935258 
L 99.631625 260.554113 
L 101.896656 260.554113 
L 101.896656 258.482397 
L 102.651667 258.482397 
L 102.651667 254.338963 
L 103.406677 254.338963 
L 103.406677 253.648391 
L 104.161688 253.648391 
L 104.161688 252.957819 
L 104.916699 252.957819 
L 104.916699 252.267247 
L 105.671709 252.267247 
L 105.671709 251.576675 
L 106.42672 251.576675 
L 106.42672 250.886102 
L 108.691751 250.886102 
L 108.691751 248.814386 
L 109.446762 248.814386 
L 109.446762 246.742669 
L 110.201773 246.742669 
L 110.201773 244.670953 
L 111.711794 244.670953 
L 111.711794 241.218092 
L 112.466804 241.218092 
L 112.466804 236.384086 
L 113.221815 236.384086 
L 113.221815 234.312369 
L 113.976825 234.312369 
L 113.976825 233.621797 
L 116.241857 233.621797 
L 116.241857 231.550081 
L 118.506889 231.550081 
L 118.506889 224.644359 
L 119.261899 224.644359 
L 119.261899 223.263214 
L 120.01691 223.263214 
L 120.01691 220.500925 
L 120.771921 220.500925 
L 120.771921 219.810353 
L 122.281942 219.810353 
L 122.281942 217.048064 
L 123.036952 217.048064 
L 123.036952 213.595203 
L 123.791963 213.595203 
L 123.791963 212.904631 
L 124.546973 212.904631 
L 124.546973 212.214059 
L 125.301984 212.214059 
L 125.301984 209.45177 
L 126.056995 209.45177 
L 126.056995 204.617765 
L 126.812005 204.617765 
L 126.812005 203.927192 
L 127.567016 203.927192 
L 127.567016 203.23662 
L 128.322026 203.23662 
L 128.322026 202.546048 
L 129.077037 202.546048 
L 129.077037 201.164904 
L 130.587058 201.164904 
L 130.587058 200.474331 
L 133.6071 200.474331 
L 133.6071 198.402615 
L 135.117121 198.402615 
L 135.117121 197.712042 
L 137.382153 197.712042 
L 137.382153 196.330898 
L 138.892174 196.330898 
L 138.892174 193.568609 
L 141.157206 193.568609 
L 141.157206 190.115748 
L 141.912217 190.115748 
L 141.912217 187.353459 
L 144.177248 187.353459 
L 144.177248 184.591171 
L 144.932259 184.591171 
L 144.932259 183.900598 
L 149.462322 183.900598 
L 149.462322 182.519454 
L 150.217333 182.519454 
L 150.217333 181.828882 
L 150.972343 181.828882 
L 150.972343 180.447737 
L 151.727354 180.447737 
L 151.727354 179.757165 
L 152.482365 179.757165 
L 152.482365 179.066593 
L 153.992386 179.066593 
L 153.992386 178.376021 
L 154.747396 178.376021 
L 154.747396 177.685448 
L 155.502407 177.685448 
L 155.502407 176.304304 
L 157.012428 176.304304 
L 157.012428 174.92316 
L 157.767439 174.92316 
L 157.767439 173.542015 
L 160.03247 173.542015 
L 160.03247 172.160871 
L 163.052513 172.160871 
L 163.052513 171.470299 
L 163.807523 171.470299 
L 163.807523 170.089154 
L 166.072555 170.089154 
L 166.072555 169.398582 
L 168.337587 169.398582 
L 168.337587 168.70801 
L 171.357629 168.70801 
L 171.357629 168.017438 
L 172.112639 168.017438 
L 172.112639 167.326865 
L 173.622661 167.326865 
L 173.622661 165.945721 
L 174.377671 165.945721 
L 174.377671 164.564577 
L 175.887692 164.564577 
L 175.887692 163.874004 
L 177.397713 163.874004 
L 177.397713 163.183432 
L 179.662745 163.183432 
L 179.662745 161.802288 
L 180.417756 161.802288 
L 180.417756 161.111716 
L 181.927777 161.111716 
L 181.927777 159.730571 
L 182.682787 159.730571 
L 182.682787 159.039999 
L 183.437798 159.039999 
L 183.437798 158.349427 
L 185.70283 158.349427 
L 185.70283 157.658854 
L 186.45784 157.658854 
L 186.45784 156.27771 
L 187.212851 156.27771 
L 187.212851 154.896566 
L 190.232893 154.896566 
L 190.232893 152.824849 
L 192.497925 152.824849 
L 192.497925 152.134277 
L 195.517967 152.134277 
L 195.517967 151.443705 
L 196.272978 151.443705 
L 196.272978 150.06256 
L 198.538009 150.06256 
L 198.538009 149.371988 
L 199.29302 149.371988 
L 199.29302 147.990844 
L 203.068073 147.990844 
L 203.068073 147.300271 
L 205.333105 147.300271 
L 205.333105 145.228555 
L 208.353147 145.228555 
L 208.353147 144.537983 
L 209.108157 144.537983 
L 209.108157 142.466266 
L 209.863168 142.466266 
L 209.863168 141.085122 
L 210.618179 141.085122 
L 210.618179 139.703977 
L 211.373189 139.703977 
L 211.373189 138.322833 
L 213.638221 138.322833 
L 213.638221 136.941688 
L 214.393231 136.941688 
L 214.393231 136.251116 
L 215.148242 136.251116 
L 215.148242 134.869972 
L 217.413274 134.869972 
L 217.413274 134.179399 
L 218.923295 134.179399 
L 218.923295 133.488827 
L 220.433316 133.488827 
L 220.433316 132.798255 
L 221.943337 132.798255 
L 221.943337 132.107683 
L 222.698348 132.107683 
L 222.698348 130.726538 
L 227.228411 130.726538 
L 227.228411 129.345394 
L 227.983422 129.345394 
L 227.983422 127.273677 
L 228.738432 127.273677 
L 228.738432 125.892533 
L 231.003464 125.892533 
L 231.003464 125.201961 
L 234.023506 125.201961 
L 234.023506 123.820816 
L 235.533527 123.820816 
L 235.533527 123.130244 
L 236.288538 123.130244 
L 236.288538 122.439672 
L 237.043548 122.439672 
L 237.043548 121.7491 
L 249.123718 121.7491 
L 249.123718 119.677383 
L 250.633739 119.677383 
L 250.633739 118.296239 
L 252.89877 118.296239 
L 252.89877 117.605666 
L 253.653781 117.605666 
L 253.653781 116.915094 
L 255.918813 116.915094 
L 255.918813 116.224522 
L 256.673823 116.224522 
L 256.673823 115.53395 
L 258.938855 115.53395 
L 258.938855 114.843378 
L 261.203887 114.843378 
L 261.203887 114.152805 
L 261.958897 114.152805 
L 261.958897 113.462233 
L 262.713908 113.462233 
L 262.713908 112.081089 
L 265.73395 112.081089 
L 265.73395 111.390517 
L 267.243971 111.390517 
L 267.243971 110.699944 
L 267.998982 110.699944 
L 267.998982 110.009372 
L 269.509003 110.009372 
L 269.509003 108.628228 
L 271.019024 108.628228 
L 271.019024 107.937656 
L 271.774035 107.937656 
L 271.774035 106.556511 
L 274.794077 106.556511 
L 274.794077 105.865939 
L 275.549088 105.865939 
L 275.549088 105.175367 
L 276.304098 105.175367 
L 276.304098 104.484795 
L 282.344183 104.484795 
L 282.344183 103.794222 
L 283.854204 103.794222 
L 283.854204 103.10365 
L 286.874246 103.10365 
L 286.874246 102.413078 
L 287.629257 102.413078 
L 287.629257 101.031933 
L 289.139278 101.031933 
L 289.139278 100.341361 
L 293.669341 100.341361 
L 293.669341 99.650789 
L 294.424352 99.650789 
L 294.424352 98.960217 
L 300.464436 98.960217 
L 300.464436 98.269645 
L 304.9945 98.269645 
L 304.9945 95.507356 
L 308.769553 95.507356 
L 308.769553 94.816784 
L 310.279574 94.816784 
L 310.279574 94.126211 
L 311.034584 94.126211 
L 311.034584 91.363923 
L 314.809637 91.363923 
L 314.809637 90.67335 
L 315.564648 90.67335 
L 315.564648 89.982778 
L 317.074669 89.982778 
L 317.074669 89.292206 
L 319.339701 89.292206 
L 319.339701 87.911062 
L 320.849722 87.911062 
L 320.849722 86.529917 
L 322.359743 86.529917 
L 322.359743 85.839345 
L 323.114754 85.839345 
L 323.114754 85.148773 
L 325.379785 85.148773 
L 325.379785 83.767628 
L 327.644817 83.767628 
L 327.644817 83.077056 
L 329.909849 83.077056 
L 329.909849 82.386484 
L 339.724986 82.386484 
L 339.724986 81.005339 
L 349.540124 81.005339 
L 349.540124 80.314767 
L 363.885324 80.314767 
L 363.885324 79.624195 
L 379.740546 79.624195 
L 379.740546 78.933623 
L 383.515599 78.933623 
L 383.515599 77.552478 
L 399.370821 77.552478 
L 399.370821 76.861906 
L 407.675938 76.861906 
L 407.675938 76.861906 
" style="fill:none;stroke:#ff0000;stroke-linecap:square;stroke-width:1.5;"/>
   </g>
   <g id="line2d_14">
    <path clip-path="url(#p9c40039ec8)" d="M 50.555938 330.301906 
L 407.675938 76.861906 
" style="fill:none;stroke:#000080;stroke-dasharray:5.55,2.4;stroke-dashoffset:0;stroke-width:1.5;"/>
   </g>
   <g id="patch_3">
    <path d="M 50.555938 330.301906 
L 50.555938 64.189906 
" style="fill:none;stroke:#000000;stroke-linecap:square;stroke-linejoin:miter;stroke-width:0.8;"/>
   </g>
   <g id="patch_4">
    <path d="M 407.675938 330.301906 
L 407.675938 64.189906 
" style="fill:none;stroke:#000000;stroke-linecap:square;stroke-linejoin:miter;stroke-width:0.8;"/>
   </g>
   <g id="patch_5">
    <path d="M 50.555938 330.301906 
L 407.675938 330.301906 
" style="fill:none;stroke:#000000;stroke-linecap:square;stroke-linejoin:miter;stroke-width:0.8;"/>
   </g>
   <g id="patch_6">
    <path d="M 50.555938 64.189906 
L 407.675938 64.189906 
" style="fill:none;stroke:#000000;stroke-linecap:square;stroke-linejoin:miter;stroke-width:0.8;"/>
   </g>
   <g id="text_15">
    <!-- SVM -->
    <defs>
     <path d="M 28.609375 0 
L 0.78125 72.90625 
L 11.078125 72.90625 
L 34.1875 11.53125 
L 57.328125 72.90625 
L 67.578125 72.90625 
L 39.796875 0 
z
" id="DejaVuSans-86"/>
     <path d="M 9.8125 72.90625 
L 24.515625 72.90625 
L 43.109375 23.296875 
L 61.8125 72.90625 
L 76.515625 72.90625 
L 76.515625 0 
L 66.890625 0 
L 66.890625 64.015625 
L 48.09375 14.015625 
L 38.1875 14.015625 
L 19.390625 64.015625 
L 19.390625 0 
L 9.8125 0 
z
" id="DejaVuSans-77"/>
    </defs>
    <g transform="translate(210.571328 20.117344)scale(0.17 -0.17)">
     <use xlink:href="#DejaVuSans-83"/>
     <use x="63.476562" xlink:href="#DejaVuSans-86"/>
     <use x="131.884766" xlink:href="#DejaVuSans-77"/>
    </g>
    <!-- Diagnostics task AUC on all iterations -->
    <defs>
     <path d="M 19.671875 64.796875 
L 19.671875 8.109375 
L 31.59375 8.109375 
Q 46.6875 8.109375 53.6875 14.9375 
Q 60.6875 21.78125 60.6875 36.53125 
Q 60.6875 51.171875 53.6875 57.984375 
Q 46.6875 64.796875 31.59375 64.796875 
z
M 9.8125 72.90625 
L 30.078125 72.90625 
Q 51.265625 72.90625 61.171875 64.09375 
Q 71.09375 55.28125 71.09375 36.53125 
Q 71.09375 17.671875 61.125 8.828125 
Q 51.171875 0 30.078125 0 
L 9.8125 0 
z
" id="DejaVuSans-68"/>
     <path d="M 34.28125 27.484375 
Q 23.390625 27.484375 19.1875 25 
Q 14.984375 22.515625 14.984375 16.5 
Q 14.984375 11.71875 18.140625 8.90625 
Q 21.296875 6.109375 26.703125 6.109375 
Q 34.1875 6.109375 38.703125 11.40625 
Q 43.21875 16.703125 43.21875 25.484375 
L 43.21875 27.484375 
z
M 52.203125 31.203125 
L 52.203125 0 
L 43.21875 0 
L 43.21875 8.296875 
Q 40.140625 3.328125 35.546875 0.953125 
Q 30.953125 -1.421875 24.3125 -1.421875 
Q 15.921875 -1.421875 10.953125 3.296875 
Q 6 8.015625 6 15.921875 
Q 6 25.140625 12.171875 29.828125 
Q 18.359375 34.515625 30.609375 34.515625 
L 43.21875 34.515625 
L 43.21875 35.40625 
Q 43.21875 41.609375 39.140625 45 
Q 35.0625 48.390625 27.6875 48.390625 
Q 23 48.390625 18.546875 47.265625 
Q 14.109375 46.140625 10.015625 43.890625 
L 10.015625 52.203125 
Q 14.9375 54.109375 19.578125 55.046875 
Q 24.21875 56 28.609375 56 
Q 40.484375 56 46.34375 49.84375 
Q 52.203125 43.703125 52.203125 31.203125 
z
" id="DejaVuSans-97"/>
     <path d="M 45.40625 27.984375 
Q 45.40625 37.75 41.375 43.109375 
Q 37.359375 48.484375 30.078125 48.484375 
Q 22.859375 48.484375 18.828125 43.109375 
Q 14.796875 37.75 14.796875 27.984375 
Q 14.796875 18.265625 18.828125 12.890625 
Q 22.859375 7.515625 30.078125 7.515625 
Q 37.359375 7.515625 41.375 12.890625 
Q 45.40625 18.265625 45.40625 27.984375 
z
M 54.390625 6.78125 
Q 54.390625 -7.171875 48.1875 -13.984375 
Q 42 -20.796875 29.203125 -20.796875 
Q 24.46875 -20.796875 20.265625 -20.09375 
Q 16.0625 -19.390625 12.109375 -17.921875 
L 12.109375 -9.1875 
Q 16.0625 -11.328125 19.921875 -12.34375 
Q 23.78125 -13.375 27.78125 -13.375 
Q 36.625 -13.375 41.015625 -8.765625 
Q 45.40625 -4.15625 45.40625 5.171875 
L 45.40625 9.625 
Q 42.625 4.78125 38.28125 2.390625 
Q 33.9375 0 27.875 0 
Q 17.828125 0 11.671875 7.65625 
Q 5.515625 15.328125 5.515625 27.984375 
Q 5.515625 40.671875 11.671875 48.328125 
Q 17.828125 56 27.875 56 
Q 33.9375 56 38.28125 53.609375 
Q 42.625 51.21875 45.40625 46.390625 
L 45.40625 54.6875 
L 54.390625 54.6875 
z
" id="DejaVuSans-103"/>
     <path d="M 30.609375 48.390625 
Q 23.390625 48.390625 19.1875 42.75 
Q 14.984375 37.109375 14.984375 27.296875 
Q 14.984375 17.484375 19.15625 11.84375 
Q 23.34375 6.203125 30.609375 6.203125 
Q 37.796875 6.203125 41.984375 11.859375 
Q 46.1875 17.53125 46.1875 27.296875 
Q 46.1875 37.015625 41.984375 42.703125 
Q 37.796875 48.390625 30.609375 48.390625 
z
M 30.609375 56 
Q 42.328125 56 49.015625 48.375 
Q 55.71875 40.765625 55.71875 27.296875 
Q 55.71875 13.875 49.015625 6.21875 
Q 42.328125 -1.421875 30.609375 -1.421875 
Q 18.84375 -1.421875 12.171875 6.21875 
Q 5.515625 13.875 5.515625 27.296875 
Q 5.515625 40.765625 12.171875 48.375 
Q 18.84375 56 30.609375 56 
z
" id="DejaVuSans-111"/>
     <path id="DejaVuSans-32"/>
     <path d="M 9.078125 75.984375 
L 18.109375 75.984375 
L 18.109375 31.109375 
L 44.921875 54.6875 
L 56.390625 54.6875 
L 27.390625 29.109375 
L 57.625 0 
L 45.90625 0 
L 18.109375 26.703125 
L 18.109375 0 
L 9.078125 0 
z
" id="DejaVuSans-107"/>
     <path d="M 34.1875 63.1875 
L 20.796875 26.90625 
L 47.609375 26.90625 
z
M 28.609375 72.90625 
L 39.796875 72.90625 
L 67.578125 0 
L 57.328125 0 
L 50.6875 18.703125 
L 17.828125 18.703125 
L 11.1875 0 
L 0.78125 0 
z
" id="DejaVuSans-65"/>
     <path d="M 8.6875 72.90625 
L 18.609375 72.90625 
L 18.609375 28.609375 
Q 18.609375 16.890625 22.84375 11.734375 
Q 27.09375 6.59375 36.625 6.59375 
Q 46.09375 6.59375 50.34375 11.734375 
Q 54.59375 16.890625 54.59375 28.609375 
L 54.59375 72.90625 
L 64.5 72.90625 
L 64.5 27.390625 
Q 64.5 13.140625 57.4375 5.859375 
Q 50.390625 -1.421875 36.625 -1.421875 
Q 22.796875 -1.421875 15.734375 5.859375 
Q 8.6875 13.140625 8.6875 27.390625 
z
" id="DejaVuSans-85"/>
     <path d="M 64.40625 67.28125 
L 64.40625 56.890625 
Q 59.421875 61.53125 53.78125 63.8125 
Q 48.140625 66.109375 41.796875 66.109375 
Q 29.296875 66.109375 22.65625 58.46875 
Q 16.015625 50.828125 16.015625 36.375 
Q 16.015625 21.96875 22.65625 14.328125 
Q 29.296875 6.6875 41.796875 6.6875 
Q 48.140625 6.6875 53.78125 8.984375 
Q 59.421875 11.28125 64.40625 15.921875 
L 64.40625 5.609375 
Q 59.234375 2.09375 53.4375 0.328125 
Q 47.65625 -1.421875 41.21875 -1.421875 
Q 24.65625 -1.421875 15.125 8.703125 
Q 5.609375 18.84375 5.609375 36.375 
Q 5.609375 53.953125 15.125 64.078125 
Q 24.65625 74.21875 41.21875 74.21875 
Q 47.75 74.21875 53.53125 72.484375 
Q 59.328125 70.75 64.40625 67.28125 
z
" id="DejaVuSans-67"/>
     <path d="M 9.421875 75.984375 
L 18.40625 75.984375 
L 18.40625 0 
L 9.421875 0 
z
" id="DejaVuSans-108"/>
     <path d="M 41.109375 46.296875 
Q 39.59375 47.171875 37.8125 47.578125 
Q 36.03125 48 33.890625 48 
Q 26.265625 48 22.1875 43.046875 
Q 18.109375 38.09375 18.109375 28.8125 
L 18.109375 0 
L 9.078125 0 
L 9.078125 54.6875 
L 18.109375 54.6875 
L 18.109375 46.1875 
Q 20.953125 51.171875 25.484375 53.578125 
Q 30.03125 56 36.53125 56 
Q 37.453125 56 38.578125 55.875 
Q 39.703125 55.765625 41.0625 55.515625 
z
" id="DejaVuSans-114"/>
    </defs>
    <g transform="translate(69.568281 39.153625)scale(0.17 -0.17)">
     <use xlink:href="#DejaVuSans-68"/>
     <use x="77.001953" xlink:href="#DejaVuSans-105"/>
     <use x="104.785156" xlink:href="#DejaVuSans-97"/>
     <use x="166.064453" xlink:href="#DejaVuSans-103"/>
     <use x="229.541016" xlink:href="#DejaVuSans-110"/>
     <use x="292.919922" xlink:href="#DejaVuSans-111"/>
     <use x="354.101562" xlink:href="#DejaVuSans-115"/>
     <use x="406.201172" xlink:href="#DejaVuSans-116"/>
     <use x="445.410156" xlink:href="#DejaVuSans-105"/>
     <use x="473.193359" xlink:href="#DejaVuSans-99"/>
     <use x="528.173828" xlink:href="#DejaVuSans-115"/>
     <use x="580.273438" xlink:href="#DejaVuSans-32"/>
     <use x="612.060547" xlink:href="#DejaVuSans-116"/>
     <use x="651.269531" xlink:href="#DejaVuSans-97"/>
     <use x="712.548828" xlink:href="#DejaVuSans-115"/>
     <use x="764.648438" xlink:href="#DejaVuSans-107"/>
     <use x="822.558594" xlink:href="#DejaVuSans-32"/>
     <use x="854.345703" xlink:href="#DejaVuSans-65"/>
     <use x="922.753906" xlink:href="#DejaVuSans-85"/>
     <use x="995.947266" xlink:href="#DejaVuSans-67"/>
     <use x="1065.771484" xlink:href="#DejaVuSans-32"/>
     <use x="1097.558594" xlink:href="#DejaVuSans-111"/>
     <use x="1158.740234" xlink:href="#DejaVuSans-110"/>
     <use x="1222.119141" xlink:href="#DejaVuSans-32"/>
     <use x="1253.90625" xlink:href="#DejaVuSans-97"/>
     <use x="1315.185547" xlink:href="#DejaVuSans-108"/>
     <use x="1342.96875" xlink:href="#DejaVuSans-108"/>
     <use x="1370.751953" xlink:href="#DejaVuSans-32"/>
     <use x="1402.539062" xlink:href="#DejaVuSans-105"/>
     <use x="1430.322266" xlink:href="#DejaVuSans-116"/>
     <use x="1469.53125" xlink:href="#DejaVuSans-101"/>
     <use x="1531.054688" xlink:href="#DejaVuSans-114"/>
     <use x="1572.167969" xlink:href="#DejaVuSans-97"/>
     <use x="1633.447266" xlink:href="#DejaVuSans-116"/>
     <use x="1672.65625" xlink:href="#DejaVuSans-105"/>
     <use x="1700.439453" xlink:href="#DejaVuSans-111"/>
     <use x="1761.621094" xlink:href="#DejaVuSans-110"/>
     <use x="1825" xlink:href="#DejaVuSans-115"/>
    </g>
    <!-- roc=0.703 -->
    <defs>
     <path d="M 10.59375 45.40625 
L 73.1875 45.40625 
L 73.1875 37.203125 
L 10.59375 37.203125 
z
M 10.59375 25.484375 
L 73.1875 25.484375 
L 73.1875 17.1875 
L 10.59375 17.1875 
z
" id="DejaVuSans-61"/>
     <path d="M 8.203125 72.90625 
L 55.078125 72.90625 
L 55.078125 68.703125 
L 28.609375 0 
L 18.3125 0 
L 43.21875 64.59375 
L 8.203125 64.59375 
z
" id="DejaVuSans-55"/>
     <path d="M 40.578125 39.3125 
Q 47.65625 37.796875 51.625 33 
Q 55.609375 28.21875 55.609375 21.1875 
Q 55.609375 10.40625 48.1875 4.484375 
Q 40.765625 -1.421875 27.09375 -1.421875 
Q 22.515625 -1.421875 17.65625 -0.515625 
Q 12.796875 0.390625 7.625 2.203125 
L 7.625 11.71875 
Q 11.71875 9.328125 16.59375 8.109375 
Q 21.484375 6.890625 26.8125 6.890625 
Q 36.078125 6.890625 40.9375 10.546875 
Q 45.796875 14.203125 45.796875 21.1875 
Q 45.796875 27.640625 41.28125 31.265625 
Q 36.765625 34.90625 28.71875 34.90625 
L 20.21875 34.90625 
L 20.21875 43.015625 
L 29.109375 43.015625 
Q 36.375 43.015625 40.234375 45.921875 
Q 44.09375 48.828125 44.09375 54.296875 
Q 44.09375 59.90625 40.109375 62.90625 
Q 36.140625 65.921875 28.71875 65.921875 
Q 24.65625 65.921875 20.015625 65.03125 
Q 15.375 64.15625 9.8125 62.3125 
L 9.8125 71.09375 
Q 15.4375 72.65625 20.34375 73.4375 
Q 25.25 74.21875 29.59375 74.21875 
Q 40.828125 74.21875 47.359375 69.109375 
Q 53.90625 64.015625 53.90625 55.328125 
Q 53.90625 49.265625 50.4375 45.09375 
Q 46.96875 40.921875 40.578125 39.3125 
z
" id="DejaVuSans-51"/>
    </defs>
    <g transform="translate(184.293047 58.189906)scale(0.17 -0.17)">
     <use xlink:href="#DejaVuSans-114"/>
     <use x="41.082031" xlink:href="#DejaVuSans-111"/>
     <use x="102.263672" xlink:href="#DejaVuSans-99"/>
     <use x="157.244141" xlink:href="#DejaVuSans-61"/>
     <use x="241.033203" xlink:href="#DejaVuSans-48"/>
     <use x="304.65625" xlink:href="#DejaVuSans-46"/>
     <use x="336.443359" xlink:href="#DejaVuSans-55"/>
     <use x="400.066406" xlink:href="#DejaVuSans-48"/>
     <use x="463.689453" xlink:href="#DejaVuSans-51"/>
    </g>
   </g>
   <g id="legend_1">
    <g id="patch_7">
     <path d="M 238.813437 325.301906 
L 400.675938 325.301906 
Q 402.675938 325.301906 402.675938 323.301906 
L 402.675938 309.623781 
Q 402.675938 307.623781 400.675938 307.623781 
L 238.813437 307.623781 
Q 236.813437 307.623781 236.813437 309.623781 
L 236.813437 323.301906 
Q 236.813437 325.301906 238.813437 325.301906 
z
" style="fill:#ffffff;opacity:0.8;stroke:#cccccc;stroke-linejoin:miter;"/>
    </g>
    <g id="line2d_15">
     <path d="M 240.813437 315.722219 
L 260.813437 315.722219 
" style="fill:none;stroke:#ff0000;stroke-linecap:square;stroke-width:1.5;"/>
    </g>
    <g id="line2d_16"/>
    <g id="text_16">
     <!-- ROC curve (area = 0.703) -->
     <defs>
      <path d="M 44.390625 34.1875 
Q 47.5625 33.109375 50.5625 29.59375 
Q 53.5625 26.078125 56.59375 19.921875 
L 66.609375 0 
L 56 0 
L 46.6875 18.703125 
Q 43.0625 26.03125 39.671875 28.421875 
Q 36.28125 30.8125 30.421875 30.8125 
L 19.671875 30.8125 
L 19.671875 0 
L 9.8125 0 
L 9.8125 72.90625 
L 32.078125 72.90625 
Q 44.578125 72.90625 50.734375 67.671875 
Q 56.890625 62.453125 56.890625 51.90625 
Q 56.890625 45.015625 53.6875 40.46875 
Q 50.484375 35.9375 44.390625 34.1875 
z
M 19.671875 64.796875 
L 19.671875 38.921875 
L 32.078125 38.921875 
Q 39.203125 38.921875 42.84375 42.21875 
Q 46.484375 45.515625 46.484375 51.90625 
Q 46.484375 58.296875 42.84375 61.546875 
Q 39.203125 64.796875 32.078125 64.796875 
z
" id="DejaVuSans-82"/>
      <path d="M 39.40625 66.21875 
Q 28.65625 66.21875 22.328125 58.203125 
Q 16.015625 50.203125 16.015625 36.375 
Q 16.015625 22.609375 22.328125 14.59375 
Q 28.65625 6.59375 39.40625 6.59375 
Q 50.140625 6.59375 56.421875 14.59375 
Q 62.703125 22.609375 62.703125 36.375 
Q 62.703125 50.203125 56.421875 58.203125 
Q 50.140625 66.21875 39.40625 66.21875 
z
M 39.40625 74.21875 
Q 54.734375 74.21875 63.90625 63.9375 
Q 73.09375 53.65625 73.09375 36.375 
Q 73.09375 19.140625 63.90625 8.859375 
Q 54.734375 -1.421875 39.40625 -1.421875 
Q 24.03125 -1.421875 14.8125 8.828125 
Q 5.609375 19.09375 5.609375 36.375 
Q 5.609375 53.65625 14.8125 63.9375 
Q 24.03125 74.21875 39.40625 74.21875 
z
" id="DejaVuSans-79"/>
      <path d="M 8.5 21.578125 
L 8.5 54.6875 
L 17.484375 54.6875 
L 17.484375 21.921875 
Q 17.484375 14.15625 20.5 10.265625 
Q 23.53125 6.390625 29.59375 6.390625 
Q 36.859375 6.390625 41.078125 11.03125 
Q 45.3125 15.671875 45.3125 23.6875 
L 45.3125 54.6875 
L 54.296875 54.6875 
L 54.296875 0 
L 45.3125 0 
L 45.3125 8.40625 
Q 42.046875 3.421875 37.71875 1 
Q 33.40625 -1.421875 27.6875 -1.421875 
Q 18.265625 -1.421875 13.375 4.4375 
Q 8.5 10.296875 8.5 21.578125 
z
M 31.109375 56 
z
" id="DejaVuSans-117"/>
      <path d="M 31 75.875 
Q 24.46875 64.65625 21.28125 53.65625 
Q 18.109375 42.671875 18.109375 31.390625 
Q 18.109375 20.125 21.3125 9.0625 
Q 24.515625 -2 31 -13.1875 
L 23.1875 -13.1875 
Q 15.875 -1.703125 12.234375 9.375 
Q 8.59375 20.453125 8.59375 31.390625 
Q 8.59375 42.28125 12.203125 53.3125 
Q 15.828125 64.359375 23.1875 75.875 
z
" id="DejaVuSans-40"/>
      <path d="M 8.015625 75.875 
L 15.828125 75.875 
Q 23.140625 64.359375 26.78125 53.3125 
Q 30.421875 42.28125 30.421875 31.390625 
Q 30.421875 20.453125 26.78125 9.375 
Q 23.140625 -1.703125 15.828125 -13.1875 
L 8.015625 -13.1875 
Q 14.5 -2 17.703125 9.0625 
Q 20.90625 20.125 20.90625 31.390625 
Q 20.90625 42.671875 17.703125 53.65625 
Q 14.5 64.65625 8.015625 75.875 
z
" id="DejaVuSans-41"/>
     </defs>
     <g transform="translate(268.813437 319.222219)scale(0.1 -0.1)">
      <use xlink:href="#DejaVuSans-82"/>
      <use x="69.482422" xlink:href="#DejaVuSans-79"/>
      <use x="148.193359" xlink:href="#DejaVuSans-67"/>
      <use x="218.017578" xlink:href="#DejaVuSans-32"/>
      <use x="249.804688" xlink:href="#DejaVuSans-99"/>
      <use x="304.785156" xlink:href="#DejaVuSans-117"/>
      <use x="368.164062" xlink:href="#DejaVuSans-114"/>
      <use x="409.277344" xlink:href="#DejaVuSans-118"/>
      <use x="468.457031" xlink:href="#DejaVuSans-101"/>
      <use x="529.980469" xlink:href="#DejaVuSans-32"/>
      <use x="561.767578" xlink:href="#DejaVuSans-40"/>
      <use x="600.78125" xlink:href="#DejaVuSans-97"/>
      <use x="662.060547" xlink:href="#DejaVuSans-114"/>
      <use x="703.142578" xlink:href="#DejaVuSans-101"/>
      <use x="764.666016" xlink:href="#DejaVuSans-97"/>
      <use x="825.945312" xlink:href="#DejaVuSans-32"/>
      <use x="857.732422" xlink:href="#DejaVuSans-61"/>
      <use x="941.521484" xlink:href="#DejaVuSans-32"/>
      <use x="973.308594" xlink:href="#DejaVuSans-48"/>
      <use x="1036.931641" xlink:href="#DejaVuSans-46"/>
      <use x="1068.71875" xlink:href="#DejaVuSans-55"/>
      <use x="1132.341797" xlink:href="#DejaVuSans-48"/>
      <use x="1195.964844" xlink:href="#DejaVuSans-51"/>
      <use x="1259.587891" xlink:href="#DejaVuSans-41"/>
     </g>
    </g>
   </g>
  </g>
 </g>
 <defs>
  <clipPath id="p9c40039ec8">
   <rect height="266.112" width="357.12" x="50.555938" y="64.189906"/>
  </clipPath>
 </defs>
</svg>
