<?xml version="1.0" encoding="utf-8" standalone="no"?>
<!DOCTYPE svg PUBLIC "-//W3C//DTD SVG 1.1//EN"
  "http://www.w3.org/Graphics/SVG/1.1/DTD/svg11.dtd">
<!-- Created with matplotlib (https://matplotlib.org/) -->
<svg height="336.634375pt" version="1.1" viewBox="0 0 453.119375 336.634375" width="453.119375pt" xmlns="http://www.w3.org/2000/svg" xmlns:xlink="http://www.w3.org/1999/xlink">
 <metadata>
  <rdf:RDF xmlns:cc="http://creativecommons.org/ns#" xmlns:dc="http://purl.org/dc/elements/1.1/" xmlns:rdf="http://www.w3.org/1999/02/22-rdf-syntax-ns#">
   <cc:Work>
    <dc:type rdf:resource="http://purl.org/dc/dcmitype/StillImage"/>
    <dc:date>2021-01-16T12:35:45.910732</dc:date>
    <dc:format>image/svg+xml</dc:format>
    <dc:creator>
     <cc:Agent>
      <dc:title>Matplotlib v3.3.2, https://matplotlib.org/</dc:title>
     </cc:Agent>
    </dc:creator>
   </cc:Work>
  </rdf:RDF>
 </metadata>
 <defs>
  <style type="text/css">*{stroke-linecap:butt;stroke-linejoin:round;}</style>
 </defs>
 <g id="figure_1">
  <g id="patch_1">
   <path d="M 0 336.634375 
L 453.119375 336.634375 
L 453.119375 0 
L 0 0 
z
" style="fill:#ffffff;"/>
  </g>
  <g id="axes_1">
   <g id="patch_2">
    <path d="M 124.509375 131.678125 
L 445.919375 131.678125 
L 445.919375 22.318125 
L 124.509375 22.318125 
z
" style="fill:#ffffff;"/>
   </g>
   <g id="patch_3">
    <path clip-path="url(#pf43f37fa35)" d="M 124.509375 126.707216 
L 328.935483 126.707216 
L 328.935483 98.302021 
L 124.509375 98.302021 
z
" style="fill:#008000;"/>
   </g>
   <g id="patch_4">
    <path clip-path="url(#pf43f37fa35)" d="M 124.509375 91.200722 
L 349.100206 91.200722 
L 349.100206 62.795528 
L 124.509375 62.795528 
z
" style="fill:#008000;"/>
   </g>
   <g id="patch_5">
    <path clip-path="url(#pf43f37fa35)" d="M 124.509375 55.694229 
L 430.614137 55.694229 
L 430.614137 27.289034 
L 124.509375 27.289034 
z
" style="fill:#008000;"/>
   </g>
   <g id="matplotlib.axis_1">
    <g id="xtick_1">
     <g id="line2d_1">
      <defs>
       <path d="M 0 0 
L 0 3.5 
" id="m8f5fb458d7" style="stroke:#000000;stroke-width:0.8;"/>
      </defs>
      <g>
       <use style="stroke:#000000;stroke-width:0.8;" x="124.509375" xlink:href="#m8f5fb458d7" y="131.678125"/>
      </g>
     </g>
     <g id="text_1">
      <!-- 0.0 -->
      <g transform="translate(116.557813 146.276562)scale(0.1 -0.1)">
       <defs>
        <path d="M 31.78125 66.40625 
Q 24.171875 66.40625 20.328125 58.90625 
Q 16.5 51.421875 16.5 36.375 
Q 16.5 21.390625 20.328125 13.890625 
Q 24.171875 6.390625 31.78125 6.390625 
Q 39.453125 6.390625 43.28125 13.890625 
Q 47.125 21.390625 47.125 36.375 
Q 47.125 51.421875 43.28125 58.90625 
Q 39.453125 66.40625 31.78125 66.40625 
z
M 31.78125 74.21875 
Q 44.046875 74.21875 50.515625 64.515625 
Q 56.984375 54.828125 56.984375 36.375 
Q 56.984375 17.96875 50.515625 8.265625 
Q 44.046875 -1.421875 31.78125 -1.421875 
Q 19.53125 -1.421875 13.0625 8.265625 
Q 6.59375 17.96875 6.59375 36.375 
Q 6.59375 54.828125 13.0625 64.515625 
Q 19.53125 74.21875 31.78125 74.21875 
z
" id="DejaVuSans-48"/>
        <path d="M 10.6875 12.40625 
L 21 12.40625 
L 21 0 
L 10.6875 0 
z
" id="DejaVuSans-46"/>
       </defs>
       <use xlink:href="#DejaVuSans-48"/>
       <use x="63.623047" xlink:href="#DejaVuSans-46"/>
       <use x="95.410156" xlink:href="#DejaVuSans-48"/>
      </g>
     </g>
    </g>
    <g id="xtick_2">
     <g id="line2d_2">
      <g>
       <use style="stroke:#000000;stroke-width:0.8;" x="185.700991" xlink:href="#m8f5fb458d7" y="131.678125"/>
      </g>
     </g>
     <g id="text_2">
      <!-- 0.1 -->
      <g transform="translate(177.749428 146.276562)scale(0.1 -0.1)">
       <defs>
        <path d="M 12.40625 8.296875 
L 28.515625 8.296875 
L 28.515625 63.921875 
L 10.984375 60.40625 
L 10.984375 69.390625 
L 28.421875 72.90625 
L 38.28125 72.90625 
L 38.28125 8.296875 
L 54.390625 8.296875 
L 54.390625 0 
L 12.40625 0 
z
" id="DejaVuSans-49"/>
       </defs>
       <use xlink:href="#DejaVuSans-48"/>
       <use x="63.623047" xlink:href="#DejaVuSans-46"/>
       <use x="95.410156" xlink:href="#DejaVuSans-49"/>
      </g>
     </g>
    </g>
    <g id="xtick_3">
     <g id="line2d_3">
      <g>
       <use style="stroke:#000000;stroke-width:0.8;" x="246.892606" xlink:href="#m8f5fb458d7" y="131.678125"/>
      </g>
     </g>
     <g id="text_3">
      <!-- 0.2 -->
      <g transform="translate(238.941044 146.276562)scale(0.1 -0.1)">
       <defs>
        <path d="M 19.1875 8.296875 
L 53.609375 8.296875 
L 53.609375 0 
L 7.328125 0 
L 7.328125 8.296875 
Q 12.9375 14.109375 22.625 23.890625 
Q 32.328125 33.6875 34.8125 36.53125 
Q 39.546875 41.84375 41.421875 45.53125 
Q 43.3125 49.21875 43.3125 52.78125 
Q 43.3125 58.59375 39.234375 62.25 
Q 35.15625 65.921875 28.609375 65.921875 
Q 23.96875 65.921875 18.8125 64.3125 
Q 13.671875 62.703125 7.8125 59.421875 
L 7.8125 69.390625 
Q 13.765625 71.78125 18.9375 73 
Q 24.125 74.21875 28.421875 74.21875 
Q 39.75 74.21875 46.484375 68.546875 
Q 53.21875 62.890625 53.21875 53.421875 
Q 53.21875 48.921875 51.53125 44.890625 
Q 49.859375 40.875 45.40625 35.40625 
Q 44.1875 33.984375 37.640625 27.21875 
Q 31.109375 20.453125 19.1875 8.296875 
z
" id="DejaVuSans-50"/>
       </defs>
       <use xlink:href="#DejaVuSans-48"/>
       <use x="63.623047" xlink:href="#DejaVuSans-46"/>
       <use x="95.410156" xlink:href="#DejaVuSans-50"/>
      </g>
     </g>
    </g>
    <g id="xtick_4">
     <g id="line2d_4">
      <g>
       <use style="stroke:#000000;stroke-width:0.8;" x="308.084222" xlink:href="#m8f5fb458d7" y="131.678125"/>
      </g>
     </g>
     <g id="text_4">
      <!-- 0.3 -->
      <g transform="translate(300.132659 146.276562)scale(0.1 -0.1)">
       <defs>
        <path d="M 40.578125 39.3125 
Q 47.65625 37.796875 51.625 33 
Q 55.609375 28.21875 55.609375 21.1875 
Q 55.609375 10.40625 48.1875 4.484375 
Q 40.765625 -1.421875 27.09375 -1.421875 
Q 22.515625 -1.421875 17.65625 -0.515625 
Q 12.796875 0.390625 7.625 2.203125 
L 7.625 11.71875 
Q 11.71875 9.328125 16.59375 8.109375 
Q 21.484375 6.890625 26.8125 6.890625 
Q 36.078125 6.890625 40.9375 10.546875 
Q 45.796875 14.203125 45.796875 21.1875 
Q 45.796875 27.640625 41.28125 31.265625 
Q 36.765625 34.90625 28.71875 34.90625 
L 20.21875 34.90625 
L 20.21875 43.015625 
L 29.109375 43.015625 
Q 36.375 43.015625 40.234375 45.921875 
Q 44.09375 48.828125 44.09375 54.296875 
Q 44.09375 59.90625 40.109375 62.90625 
Q 36.140625 65.921875 28.71875 65.921875 
Q 24.65625 65.921875 20.015625 65.03125 
Q 15.375 64.15625 9.8125 62.3125 
L 9.8125 71.09375 
Q 15.4375 72.65625 20.34375 73.4375 
Q 25.25 74.21875 29.59375 74.21875 
Q 40.828125 74.21875 47.359375 69.109375 
Q 53.90625 64.015625 53.90625 55.328125 
Q 53.90625 49.265625 50.4375 45.09375 
Q 46.96875 40.921875 40.578125 39.3125 
z
" id="DejaVuSans-51"/>
       </defs>
       <use xlink:href="#DejaVuSans-48"/>
       <use x="63.623047" xlink:href="#DejaVuSans-46"/>
       <use x="95.410156" xlink:href="#DejaVuSans-51"/>
      </g>
     </g>
    </g>
    <g id="xtick_5">
     <g id="line2d_5">
      <g>
       <use style="stroke:#000000;stroke-width:0.8;" x="369.275837" xlink:href="#m8f5fb458d7" y="131.678125"/>
      </g>
     </g>
     <g id="text_5">
      <!-- 0.4 -->
      <g transform="translate(361.324275 146.276562)scale(0.1 -0.1)">
       <defs>
        <path d="M 37.796875 64.3125 
L 12.890625 25.390625 
L 37.796875 25.390625 
z
M 35.203125 72.90625 
L 47.609375 72.90625 
L 47.609375 25.390625 
L 58.015625 25.390625 
L 58.015625 17.1875 
L 47.609375 17.1875 
L 47.609375 0 
L 37.796875 0 
L 37.796875 17.1875 
L 4.890625 17.1875 
L 4.890625 26.703125 
z
" id="DejaVuSans-52"/>
       </defs>
       <use xlink:href="#DejaVuSans-48"/>
       <use x="63.623047" xlink:href="#DejaVuSans-46"/>
       <use x="95.410156" xlink:href="#DejaVuSans-52"/>
      </g>
     </g>
    </g>
    <g id="xtick_6">
     <g id="line2d_6">
      <g>
       <use style="stroke:#000000;stroke-width:0.8;" x="430.467453" xlink:href="#m8f5fb458d7" y="131.678125"/>
      </g>
     </g>
     <g id="text_6">
      <!-- 0.5 -->
      <g transform="translate(422.51589 146.276562)scale(0.1 -0.1)">
       <defs>
        <path d="M 10.796875 72.90625 
L 49.515625 72.90625 
L 49.515625 64.59375 
L 19.828125 64.59375 
L 19.828125 46.734375 
Q 21.96875 47.46875 24.109375 47.828125 
Q 26.265625 48.1875 28.421875 48.1875 
Q 40.625 48.1875 47.75 41.5 
Q 54.890625 34.8125 54.890625 23.390625 
Q 54.890625 11.625 47.5625 5.09375 
Q 40.234375 -1.421875 26.90625 -1.421875 
Q 22.3125 -1.421875 17.546875 -0.640625 
Q 12.796875 0.140625 7.71875 1.703125 
L 7.71875 11.625 
Q 12.109375 9.234375 16.796875 8.0625 
Q 21.484375 6.890625 26.703125 6.890625 
Q 35.15625 6.890625 40.078125 11.328125 
Q 45.015625 15.765625 45.015625 23.390625 
Q 45.015625 31 40.078125 35.4375 
Q 35.15625 39.890625 26.703125 39.890625 
Q 22.75 39.890625 18.8125 39.015625 
Q 14.890625 38.140625 10.796875 36.28125 
z
" id="DejaVuSans-53"/>
       </defs>
       <use xlink:href="#DejaVuSans-48"/>
       <use x="63.623047" xlink:href="#DejaVuSans-46"/>
       <use x="95.410156" xlink:href="#DejaVuSans-53"/>
      </g>
     </g>
    </g>
    <g id="text_7">
     <!-- Coeff value -->
     <g transform="translate(256.819844 159.954687)scale(0.1 -0.1)">
      <defs>
       <path d="M 64.40625 67.28125 
L 64.40625 56.890625 
Q 59.421875 61.53125 53.78125 63.8125 
Q 48.140625 66.109375 41.796875 66.109375 
Q 29.296875 66.109375 22.65625 58.46875 
Q 16.015625 50.828125 16.015625 36.375 
Q 16.015625 21.96875 22.65625 14.328125 
Q 29.296875 6.6875 41.796875 6.6875 
Q 48.140625 6.6875 53.78125 8.984375 
Q 59.421875 11.28125 64.40625 15.921875 
L 64.40625 5.609375 
Q 59.234375 2.09375 53.4375 0.328125 
Q 47.65625 -1.421875 41.21875 -1.421875 
Q 24.65625 -1.421875 15.125 8.703125 
Q 5.609375 18.84375 5.609375 36.375 
Q 5.609375 53.953125 15.125 64.078125 
Q 24.65625 74.21875 41.21875 74.21875 
Q 47.75 74.21875 53.53125 72.484375 
Q 59.328125 70.75 64.40625 67.28125 
z
" id="DejaVuSans-67"/>
       <path d="M 30.609375 48.390625 
Q 23.390625 48.390625 19.1875 42.75 
Q 14.984375 37.109375 14.984375 27.296875 
Q 14.984375 17.484375 19.15625 11.84375 
Q 23.34375 6.203125 30.609375 6.203125 
Q 37.796875 6.203125 41.984375 11.859375 
Q 46.1875 17.53125 46.1875 27.296875 
Q 46.1875 37.015625 41.984375 42.703125 
Q 37.796875 48.390625 30.609375 48.390625 
z
M 30.609375 56 
Q 42.328125 56 49.015625 48.375 
Q 55.71875 40.765625 55.71875 27.296875 
Q 55.71875 13.875 49.015625 6.21875 
Q 42.328125 -1.421875 30.609375 -1.421875 
Q 18.84375 -1.421875 12.171875 6.21875 
Q 5.515625 13.875 5.515625 27.296875 
Q 5.515625 40.765625 12.171875 48.375 
Q 18.84375 56 30.609375 56 
z
" id="DejaVuSans-111"/>
       <path d="M 56.203125 29.59375 
L 56.203125 25.203125 
L 14.890625 25.203125 
Q 15.484375 15.921875 20.484375 11.0625 
Q 25.484375 6.203125 34.421875 6.203125 
Q 39.59375 6.203125 44.453125 7.46875 
Q 49.3125 8.734375 54.109375 11.28125 
L 54.109375 2.78125 
Q 49.265625 0.734375 44.1875 -0.34375 
Q 39.109375 -1.421875 33.890625 -1.421875 
Q 20.796875 -1.421875 13.15625 6.1875 
Q 5.515625 13.8125 5.515625 26.8125 
Q 5.515625 40.234375 12.765625 48.109375 
Q 20.015625 56 32.328125 56 
Q 43.359375 56 49.78125 48.890625 
Q 56.203125 41.796875 56.203125 29.59375 
z
M 47.21875 32.234375 
Q 47.125 39.59375 43.09375 43.984375 
Q 39.0625 48.390625 32.421875 48.390625 
Q 24.90625 48.390625 20.390625 44.140625 
Q 15.875 39.890625 15.1875 32.171875 
z
" id="DejaVuSans-101"/>
       <path d="M 37.109375 75.984375 
L 37.109375 68.5 
L 28.515625 68.5 
Q 23.6875 68.5 21.796875 66.546875 
Q 19.921875 64.59375 19.921875 59.515625 
L 19.921875 54.6875 
L 34.71875 54.6875 
L 34.71875 47.703125 
L 19.921875 47.703125 
L 19.921875 0 
L 10.890625 0 
L 10.890625 47.703125 
L 2.296875 47.703125 
L 2.296875 54.6875 
L 10.890625 54.6875 
L 10.890625 58.5 
Q 10.890625 67.625 15.140625 71.796875 
Q 19.390625 75.984375 28.609375 75.984375 
z
" id="DejaVuSans-102"/>
       <path id="DejaVuSans-32"/>
       <path d="M 2.984375 54.6875 
L 12.5 54.6875 
L 29.59375 8.796875 
L 46.6875 54.6875 
L 56.203125 54.6875 
L 35.6875 0 
L 23.484375 0 
z
" id="DejaVuSans-118"/>
       <path d="M 34.28125 27.484375 
Q 23.390625 27.484375 19.1875 25 
Q 14.984375 22.515625 14.984375 16.5 
Q 14.984375 11.71875 18.140625 8.90625 
Q 21.296875 6.109375 26.703125 6.109375 
Q 34.1875 6.109375 38.703125 11.40625 
Q 43.21875 16.703125 43.21875 25.484375 
L 43.21875 27.484375 
z
M 52.203125 31.203125 
L 52.203125 0 
L 43.21875 0 
L 43.21875 8.296875 
Q 40.140625 3.328125 35.546875 0.953125 
Q 30.953125 -1.421875 24.3125 -1.421875 
Q 15.921875 -1.421875 10.953125 3.296875 
Q 6 8.015625 6 15.921875 
Q 6 25.140625 12.171875 29.828125 
Q 18.359375 34.515625 30.609375 34.515625 
L 43.21875 34.515625 
L 43.21875 35.40625 
Q 43.21875 41.609375 39.140625 45 
Q 35.0625 48.390625 27.6875 48.390625 
Q 23 48.390625 18.546875 47.265625 
Q 14.109375 46.140625 10.015625 43.890625 
L 10.015625 52.203125 
Q 14.9375 54.109375 19.578125 55.046875 
Q 24.21875 56 28.609375 56 
Q 40.484375 56 46.34375 49.84375 
Q 52.203125 43.703125 52.203125 31.203125 
z
" id="DejaVuSans-97"/>
       <path d="M 9.421875 75.984375 
L 18.40625 75.984375 
L 18.40625 0 
L 9.421875 0 
z
" id="DejaVuSans-108"/>
       <path d="M 8.5 21.578125 
L 8.5 54.6875 
L 17.484375 54.6875 
L 17.484375 21.921875 
Q 17.484375 14.15625 20.5 10.265625 
Q 23.53125 6.390625 29.59375 6.390625 
Q 36.859375 6.390625 41.078125 11.03125 
Q 45.3125 15.671875 45.3125 23.6875 
L 45.3125 54.6875 
L 54.296875 54.6875 
L 54.296875 0 
L 45.3125 0 
L 45.3125 8.40625 
Q 42.046875 3.421875 37.71875 1 
Q 33.40625 -1.421875 27.6875 -1.421875 
Q 18.265625 -1.421875 13.375 4.4375 
Q 8.5 10.296875 8.5 21.578125 
z
M 31.109375 56 
z
" id="DejaVuSans-117"/>
      </defs>
      <use xlink:href="#DejaVuSans-67"/>
      <use x="69.824219" xlink:href="#DejaVuSans-111"/>
      <use x="131.005859" xlink:href="#DejaVuSans-101"/>
      <use x="192.529297" xlink:href="#DejaVuSans-102"/>
      <use x="227.734375" xlink:href="#DejaVuSans-102"/>
      <use x="262.939453" xlink:href="#DejaVuSans-32"/>
      <use x="294.726562" xlink:href="#DejaVuSans-118"/>
      <use x="353.90625" xlink:href="#DejaVuSans-97"/>
      <use x="415.185547" xlink:href="#DejaVuSans-108"/>
      <use x="442.96875" xlink:href="#DejaVuSans-117"/>
      <use x="506.347656" xlink:href="#DejaVuSans-101"/>
     </g>
    </g>
   </g>
   <g id="matplotlib.axis_2">
    <g id="ytick_1">
     <g id="line2d_7">
      <defs>
       <path d="M 0 0 
L -3.5 0 
" id="m054cf95297" style="stroke:#000000;stroke-width:0.8;"/>
      </defs>
      <g>
       <use style="stroke:#000000;stroke-width:0.8;" x="124.509375" xlink:href="#m054cf95297" y="112.504619"/>
      </g>
     </g>
     <g id="text_8">
      <!--  g__Ruminococcus_0 -->
      <g transform="translate(14.648438 116.303837)scale(0.1 -0.1)">
       <defs>
        <path d="M 45.40625 27.984375 
Q 45.40625 37.75 41.375 43.109375 
Q 37.359375 48.484375 30.078125 48.484375 
Q 22.859375 48.484375 18.828125 43.109375 
Q 14.796875 37.75 14.796875 27.984375 
Q 14.796875 18.265625 18.828125 12.890625 
Q 22.859375 7.515625 30.078125 7.515625 
Q 37.359375 7.515625 41.375 12.890625 
Q 45.40625 18.265625 45.40625 27.984375 
z
M 54.390625 6.78125 
Q 54.390625 -7.171875 48.1875 -13.984375 
Q 42 -20.796875 29.203125 -20.796875 
Q 24.46875 -20.796875 20.265625 -20.09375 
Q 16.0625 -19.390625 12.109375 -17.921875 
L 12.109375 -9.1875 
Q 16.0625 -11.328125 19.921875 -12.34375 
Q 23.78125 -13.375 27.78125 -13.375 
Q 36.625 -13.375 41.015625 -8.765625 
Q 45.40625 -4.15625 45.40625 5.171875 
L 45.40625 9.625 
Q 42.625 4.78125 38.28125 2.390625 
Q 33.9375 0 27.875 0 
Q 17.828125 0 11.671875 7.65625 
Q 5.515625 15.328125 5.515625 27.984375 
Q 5.515625 40.671875 11.671875 48.328125 
Q 17.828125 56 27.875 56 
Q 33.9375 56 38.28125 53.609375 
Q 42.625 51.21875 45.40625 46.390625 
L 45.40625 54.6875 
L 54.390625 54.6875 
z
" id="DejaVuSans-103"/>
        <path d="M 50.984375 -16.609375 
L 50.984375 -23.578125 
L -0.984375 -23.578125 
L -0.984375 -16.609375 
z
" id="DejaVuSans-95"/>
        <path d="M 44.390625 34.1875 
Q 47.5625 33.109375 50.5625 29.59375 
Q 53.5625 26.078125 56.59375 19.921875 
L 66.609375 0 
L 56 0 
L 46.6875 18.703125 
Q 43.0625 26.03125 39.671875 28.421875 
Q 36.28125 30.8125 30.421875 30.8125 
L 19.671875 30.8125 
L 19.671875 0 
L 9.8125 0 
L 9.8125 72.90625 
L 32.078125 72.90625 
Q 44.578125 72.90625 50.734375 67.671875 
Q 56.890625 62.453125 56.890625 51.90625 
Q 56.890625 45.015625 53.6875 40.46875 
Q 50.484375 35.9375 44.390625 34.1875 
z
M 19.671875 64.796875 
L 19.671875 38.921875 
L 32.078125 38.921875 
Q 39.203125 38.921875 42.84375 42.21875 
Q 46.484375 45.515625 46.484375 51.90625 
Q 46.484375 58.296875 42.84375 61.546875 
Q 39.203125 64.796875 32.078125 64.796875 
z
" id="DejaVuSans-82"/>
        <path d="M 52 44.1875 
Q 55.375 50.25 60.0625 53.125 
Q 64.75 56 71.09375 56 
Q 79.640625 56 84.28125 50.015625 
Q 88.921875 44.046875 88.921875 33.015625 
L 88.921875 0 
L 79.890625 0 
L 79.890625 32.71875 
Q 79.890625 40.578125 77.09375 44.375 
Q 74.3125 48.1875 68.609375 48.1875 
Q 61.625 48.1875 57.5625 43.546875 
Q 53.515625 38.921875 53.515625 30.90625 
L 53.515625 0 
L 44.484375 0 
L 44.484375 32.71875 
Q 44.484375 40.625 41.703125 44.40625 
Q 38.921875 48.1875 33.109375 48.1875 
Q 26.21875 48.1875 22.15625 43.53125 
Q 18.109375 38.875 18.109375 30.90625 
L 18.109375 0 
L 9.078125 0 
L 9.078125 54.6875 
L 18.109375 54.6875 
L 18.109375 46.1875 
Q 21.1875 51.21875 25.484375 53.609375 
Q 29.78125 56 35.6875 56 
Q 41.65625 56 45.828125 52.96875 
Q 50 49.953125 52 44.1875 
z
" id="DejaVuSans-109"/>
        <path d="M 9.421875 54.6875 
L 18.40625 54.6875 
L 18.40625 0 
L 9.421875 0 
z
M 9.421875 75.984375 
L 18.40625 75.984375 
L 18.40625 64.59375 
L 9.421875 64.59375 
z
" id="DejaVuSans-105"/>
        <path d="M 54.890625 33.015625 
L 54.890625 0 
L 45.90625 0 
L 45.90625 32.71875 
Q 45.90625 40.484375 42.875 44.328125 
Q 39.84375 48.1875 33.796875 48.1875 
Q 26.515625 48.1875 22.3125 43.546875 
Q 18.109375 38.921875 18.109375 30.90625 
L 18.109375 0 
L 9.078125 0 
L 9.078125 54.6875 
L 18.109375 54.6875 
L 18.109375 46.1875 
Q 21.34375 51.125 25.703125 53.5625 
Q 30.078125 56 35.796875 56 
Q 45.21875 56 50.046875 50.171875 
Q 54.890625 44.34375 54.890625 33.015625 
z
" id="DejaVuSans-110"/>
        <path d="M 48.78125 52.59375 
L 48.78125 44.1875 
Q 44.96875 46.296875 41.140625 47.34375 
Q 37.3125 48.390625 33.40625 48.390625 
Q 24.65625 48.390625 19.8125 42.84375 
Q 14.984375 37.3125 14.984375 27.296875 
Q 14.984375 17.28125 19.8125 11.734375 
Q 24.65625 6.203125 33.40625 6.203125 
Q 37.3125 6.203125 41.140625 7.25 
Q 44.96875 8.296875 48.78125 10.40625 
L 48.78125 2.09375 
Q 45.015625 0.34375 40.984375 -0.53125 
Q 36.96875 -1.421875 32.421875 -1.421875 
Q 20.0625 -1.421875 12.78125 6.34375 
Q 5.515625 14.109375 5.515625 27.296875 
Q 5.515625 40.671875 12.859375 48.328125 
Q 20.21875 56 33.015625 56 
Q 37.15625 56 41.109375 55.140625 
Q 45.0625 54.296875 48.78125 52.59375 
z
" id="DejaVuSans-99"/>
        <path d="M 44.28125 53.078125 
L 44.28125 44.578125 
Q 40.484375 46.53125 36.375 47.5 
Q 32.28125 48.484375 27.875 48.484375 
Q 21.1875 48.484375 17.84375 46.4375 
Q 14.5 44.390625 14.5 40.28125 
Q 14.5 37.15625 16.890625 35.375 
Q 19.28125 33.59375 26.515625 31.984375 
L 29.59375 31.296875 
Q 39.15625 29.25 43.1875 25.515625 
Q 47.21875 21.78125 47.21875 15.09375 
Q 47.21875 7.46875 41.1875 3.015625 
Q 35.15625 -1.421875 24.609375 -1.421875 
Q 20.21875 -1.421875 15.453125 -0.5625 
Q 10.6875 0.296875 5.421875 2 
L 5.421875 11.28125 
Q 10.40625 8.6875 15.234375 7.390625 
Q 20.0625 6.109375 24.8125 6.109375 
Q 31.15625 6.109375 34.5625 8.28125 
Q 37.984375 10.453125 37.984375 14.40625 
Q 37.984375 18.0625 35.515625 20.015625 
Q 33.0625 21.96875 24.703125 23.78125 
L 21.578125 24.515625 
Q 13.234375 26.265625 9.515625 29.90625 
Q 5.8125 33.546875 5.8125 39.890625 
Q 5.8125 47.609375 11.28125 51.796875 
Q 16.75 56 26.8125 56 
Q 31.78125 56 36.171875 55.265625 
Q 40.578125 54.546875 44.28125 53.078125 
z
" id="DejaVuSans-115"/>
       </defs>
       <use xlink:href="#DejaVuSans-32"/>
       <use x="31.787109" xlink:href="#DejaVuSans-103"/>
       <use x="95.263672" xlink:href="#DejaVuSans-95"/>
       <use x="145.263672" xlink:href="#DejaVuSans-95"/>
       <use x="195.263672" xlink:href="#DejaVuSans-82"/>
       <use x="260.246094" xlink:href="#DejaVuSans-117"/>
       <use x="323.625" xlink:href="#DejaVuSans-109"/>
       <use x="421.037109" xlink:href="#DejaVuSans-105"/>
       <use x="448.820312" xlink:href="#DejaVuSans-110"/>
       <use x="512.199219" xlink:href="#DejaVuSans-111"/>
       <use x="573.380859" xlink:href="#DejaVuSans-99"/>
       <use x="628.361328" xlink:href="#DejaVuSans-111"/>
       <use x="689.542969" xlink:href="#DejaVuSans-99"/>
       <use x="744.523438" xlink:href="#DejaVuSans-99"/>
       <use x="799.503906" xlink:href="#DejaVuSans-117"/>
       <use x="862.882812" xlink:href="#DejaVuSans-115"/>
       <use x="914.982422" xlink:href="#DejaVuSans-95"/>
       <use x="964.982422" xlink:href="#DejaVuSans-48"/>
      </g>
     </g>
    </g>
    <g id="ytick_2">
     <g id="line2d_8">
      <g>
       <use style="stroke:#000000;stroke-width:0.8;" x="124.509375" xlink:href="#m054cf95297" y="76.998125"/>
      </g>
     </g>
     <g id="text_9">
      <!--  g__Bacteroides_1 -->
      <g transform="translate(27.565625 80.797344)scale(0.1 -0.1)">
       <defs>
        <path d="M 19.671875 34.8125 
L 19.671875 8.109375 
L 35.5 8.109375 
Q 43.453125 8.109375 47.28125 11.40625 
Q 51.125 14.703125 51.125 21.484375 
Q 51.125 28.328125 47.28125 31.5625 
Q 43.453125 34.8125 35.5 34.8125 
z
M 19.671875 64.796875 
L 19.671875 42.828125 
L 34.28125 42.828125 
Q 41.5 42.828125 45.03125 45.53125 
Q 48.578125 48.25 48.578125 53.8125 
Q 48.578125 59.328125 45.03125 62.0625 
Q 41.5 64.796875 34.28125 64.796875 
z
M 9.8125 72.90625 
L 35.015625 72.90625 
Q 46.296875 72.90625 52.390625 68.21875 
Q 58.5 63.53125 58.5 54.890625 
Q 58.5 48.1875 55.375 44.234375 
Q 52.25 40.28125 46.1875 39.3125 
Q 53.46875 37.75 57.5 32.78125 
Q 61.53125 27.828125 61.53125 20.40625 
Q 61.53125 10.640625 54.890625 5.3125 
Q 48.25 0 35.984375 0 
L 9.8125 0 
z
" id="DejaVuSans-66"/>
        <path d="M 18.3125 70.21875 
L 18.3125 54.6875 
L 36.8125 54.6875 
L 36.8125 47.703125 
L 18.3125 47.703125 
L 18.3125 18.015625 
Q 18.3125 11.328125 20.140625 9.421875 
Q 21.96875 7.515625 27.59375 7.515625 
L 36.8125 7.515625 
L 36.8125 0 
L 27.59375 0 
Q 17.1875 0 13.234375 3.875 
Q 9.28125 7.765625 9.28125 18.015625 
L 9.28125 47.703125 
L 2.6875 47.703125 
L 2.6875 54.6875 
L 9.28125 54.6875 
L 9.28125 70.21875 
z
" id="DejaVuSans-116"/>
        <path d="M 41.109375 46.296875 
Q 39.59375 47.171875 37.8125 47.578125 
Q 36.03125 48 33.890625 48 
Q 26.265625 48 22.1875 43.046875 
Q 18.109375 38.09375 18.109375 28.8125 
L 18.109375 0 
L 9.078125 0 
L 9.078125 54.6875 
L 18.109375 54.6875 
L 18.109375 46.1875 
Q 20.953125 51.171875 25.484375 53.578125 
Q 30.03125 56 36.53125 56 
Q 37.453125 56 38.578125 55.875 
Q 39.703125 55.765625 41.0625 55.515625 
z
" id="DejaVuSans-114"/>
        <path d="M 45.40625 46.390625 
L 45.40625 75.984375 
L 54.390625 75.984375 
L 54.390625 0 
L 45.40625 0 
L 45.40625 8.203125 
Q 42.578125 3.328125 38.25 0.953125 
Q 33.9375 -1.421875 27.875 -1.421875 
Q 17.96875 -1.421875 11.734375 6.484375 
Q 5.515625 14.40625 5.515625 27.296875 
Q 5.515625 40.1875 11.734375 48.09375 
Q 17.96875 56 27.875 56 
Q 33.9375 56 38.25 53.625 
Q 42.578125 51.265625 45.40625 46.390625 
z
M 14.796875 27.296875 
Q 14.796875 17.390625 18.875 11.75 
Q 22.953125 6.109375 30.078125 6.109375 
Q 37.203125 6.109375 41.296875 11.75 
Q 45.40625 17.390625 45.40625 27.296875 
Q 45.40625 37.203125 41.296875 42.84375 
Q 37.203125 48.484375 30.078125 48.484375 
Q 22.953125 48.484375 18.875 42.84375 
Q 14.796875 37.203125 14.796875 27.296875 
z
" id="DejaVuSans-100"/>
       </defs>
       <use xlink:href="#DejaVuSans-32"/>
       <use x="31.787109" xlink:href="#DejaVuSans-103"/>
       <use x="95.263672" xlink:href="#DejaVuSans-95"/>
       <use x="145.263672" xlink:href="#DejaVuSans-95"/>
       <use x="195.263672" xlink:href="#DejaVuSans-66"/>
       <use x="263.867188" xlink:href="#DejaVuSans-97"/>
       <use x="325.146484" xlink:href="#DejaVuSans-99"/>
       <use x="380.126953" xlink:href="#DejaVuSans-116"/>
       <use x="419.335938" xlink:href="#DejaVuSans-101"/>
       <use x="480.859375" xlink:href="#DejaVuSans-114"/>
       <use x="519.722656" xlink:href="#DejaVuSans-111"/>
       <use x="580.904297" xlink:href="#DejaVuSans-105"/>
       <use x="608.6875" xlink:href="#DejaVuSans-100"/>
       <use x="672.164062" xlink:href="#DejaVuSans-101"/>
       <use x="733.6875" xlink:href="#DejaVuSans-115"/>
       <use x="785.787109" xlink:href="#DejaVuSans-95"/>
       <use x="835.787109" xlink:href="#DejaVuSans-49"/>
      </g>
     </g>
    </g>
    <g id="ytick_3">
     <g id="line2d_9">
      <g>
       <use style="stroke:#000000;stroke-width:0.8;" x="124.509375" xlink:href="#m054cf95297" y="41.491631"/>
      </g>
     </g>
     <g id="text_10">
      <!--  g__Bifidobacterium_1 -->
      <g transform="translate(7.2 45.29085)scale(0.1 -0.1)">
       <defs>
        <path d="M 48.6875 27.296875 
Q 48.6875 37.203125 44.609375 42.84375 
Q 40.53125 48.484375 33.40625 48.484375 
Q 26.265625 48.484375 22.1875 42.84375 
Q 18.109375 37.203125 18.109375 27.296875 
Q 18.109375 17.390625 22.1875 11.75 
Q 26.265625 6.109375 33.40625 6.109375 
Q 40.53125 6.109375 44.609375 11.75 
Q 48.6875 17.390625 48.6875 27.296875 
z
M 18.109375 46.390625 
Q 20.953125 51.265625 25.265625 53.625 
Q 29.59375 56 35.59375 56 
Q 45.5625 56 51.78125 48.09375 
Q 58.015625 40.1875 58.015625 27.296875 
Q 58.015625 14.40625 51.78125 6.484375 
Q 45.5625 -1.421875 35.59375 -1.421875 
Q 29.59375 -1.421875 25.265625 0.953125 
Q 20.953125 3.328125 18.109375 8.203125 
L 18.109375 0 
L 9.078125 0 
L 9.078125 75.984375 
L 18.109375 75.984375 
z
" id="DejaVuSans-98"/>
       </defs>
       <use xlink:href="#DejaVuSans-32"/>
       <use x="31.787109" xlink:href="#DejaVuSans-103"/>
       <use x="95.263672" xlink:href="#DejaVuSans-95"/>
       <use x="145.263672" xlink:href="#DejaVuSans-95"/>
       <use x="195.263672" xlink:href="#DejaVuSans-66"/>
       <use x="263.867188" xlink:href="#DejaVuSans-105"/>
       <use x="291.650391" xlink:href="#DejaVuSans-102"/>
       <use x="326.855469" xlink:href="#DejaVuSans-105"/>
       <use x="354.638672" xlink:href="#DejaVuSans-100"/>
       <use x="418.115234" xlink:href="#DejaVuSans-111"/>
       <use x="479.296875" xlink:href="#DejaVuSans-98"/>
       <use x="542.773438" xlink:href="#DejaVuSans-97"/>
       <use x="604.052734" xlink:href="#DejaVuSans-99"/>
       <use x="659.033203" xlink:href="#DejaVuSans-116"/>
       <use x="698.242188" xlink:href="#DejaVuSans-101"/>
       <use x="759.765625" xlink:href="#DejaVuSans-114"/>
       <use x="800.878906" xlink:href="#DejaVuSans-105"/>
       <use x="828.662109" xlink:href="#DejaVuSans-117"/>
       <use x="892.041016" xlink:href="#DejaVuSans-109"/>
       <use x="989.453125" xlink:href="#DejaVuSans-95"/>
       <use x="1039.453125" xlink:href="#DejaVuSans-49"/>
      </g>
     </g>
    </g>
   </g>
   <g id="patch_6">
    <path d="M 124.509375 131.678125 
L 124.509375 22.318125 
" style="fill:none;stroke:#000000;stroke-linecap:square;stroke-linejoin:miter;stroke-width:0.8;"/>
   </g>
   <g id="patch_7">
    <path d="M 445.919375 131.678125 
L 445.919375 22.318125 
" style="fill:none;stroke:#000000;stroke-linecap:square;stroke-linejoin:miter;stroke-width:0.8;"/>
   </g>
   <g id="patch_8">
    <path d="M 124.509375 131.678125 
L 445.919375 131.678125 
" style="fill:none;stroke:#000000;stroke-linecap:square;stroke-linejoin:miter;stroke-width:0.8;"/>
   </g>
   <g id="patch_9">
    <path d="M 124.509375 22.318125 
L 445.919375 22.318125 
" style="fill:none;stroke:#000000;stroke-linecap:square;stroke-linejoin:miter;stroke-width:0.8;"/>
   </g>
   <g id="text_11">
    <!-- revenue number -->
    <g transform="translate(235.327188 16.318125)scale(0.12 -0.12)">
     <use xlink:href="#DejaVuSans-114"/>
     <use x="38.863281" xlink:href="#DejaVuSans-101"/>
     <use x="100.386719" xlink:href="#DejaVuSans-118"/>
     <use x="159.566406" xlink:href="#DejaVuSans-101"/>
     <use x="221.089844" xlink:href="#DejaVuSans-110"/>
     <use x="284.46875" xlink:href="#DejaVuSans-117"/>
     <use x="347.847656" xlink:href="#DejaVuSans-101"/>
     <use x="409.371094" xlink:href="#DejaVuSans-32"/>
     <use x="441.158203" xlink:href="#DejaVuSans-110"/>
     <use x="504.537109" xlink:href="#DejaVuSans-117"/>
     <use x="567.916016" xlink:href="#DejaVuSans-109"/>
     <use x="665.328125" xlink:href="#DejaVuSans-98"/>
     <use x="728.804688" xlink:href="#DejaVuSans-101"/>
     <use x="790.328125" xlink:href="#DejaVuSans-114"/>
    </g>
   </g>
  </g>
  <g id="axes_2">
   <g id="patch_10">
    <path d="M 124.509375 299.078125 
L 445.919375 299.078125 
L 445.919375 189.718125 
L 124.509375 189.718125 
z
" style="fill:#ffffff;"/>
   </g>
   <g id="patch_11">
    <path clip-path="url(#p14457f7f34)" d="M 139.11892 299.078125 
L 143.417149 299.078125 
L 143.417149 297.590234 
L 139.11892 297.590234 
z
" style="fill:#d95f0e;opacity:0.5;"/>
   </g>
   <g id="patch_12">
    <path clip-path="url(#p14457f7f34)" d="M 144.491706 299.078125 
L 148.789935 299.078125 
L 148.789935 297.590234 
L 144.491706 297.590234 
z
" style="fill:#d95f0e;opacity:0.5;"/>
   </g>
   <g id="patch_13">
    <path clip-path="url(#p14457f7f34)" d="M 149.864492 299.078125 
L 154.162721 299.078125 
L 154.162721 299.078125 
L 149.864492 299.078125 
z
" style="fill:#d95f0e;opacity:0.5;"/>
   </g>
   <g id="patch_14">
    <path clip-path="url(#p14457f7f34)" d="M 155.237278 299.078125 
L 159.535507 299.078125 
L 159.535507 299.078125 
L 155.237278 299.078125 
z
" style="fill:#d95f0e;opacity:0.5;"/>
   </g>
   <g id="patch_15">
    <path clip-path="url(#p14457f7f34)" d="M 160.610064 299.078125 
L 164.908293 299.078125 
L 164.908293 297.590234 
L 160.610064 297.590234 
z
" style="fill:#d95f0e;opacity:0.5;"/>
   </g>
   <g id="patch_16">
    <path clip-path="url(#p14457f7f34)" d="M 165.98285 299.078125 
L 170.281079 299.078125 
L 170.281079 299.078125 
L 165.98285 299.078125 
z
" style="fill:#d95f0e;opacity:0.5;"/>
   </g>
   <g id="patch_17">
    <path clip-path="url(#p14457f7f34)" d="M 171.355636 299.078125 
L 175.653865 299.078125 
L 175.653865 296.102343 
L 171.355636 296.102343 
z
" style="fill:#d95f0e;opacity:0.5;"/>
   </g>
   <g id="patch_18">
    <path clip-path="url(#p14457f7f34)" d="M 176.728422 299.078125 
L 181.026651 299.078125 
L 181.026651 296.102343 
L 176.728422 296.102343 
z
" style="fill:#d95f0e;opacity:0.5;"/>
   </g>
   <g id="patch_19">
    <path clip-path="url(#p14457f7f34)" d="M 182.101208 299.078125 
L 186.399436 299.078125 
L 186.399436 294.614452 
L 182.101208 294.614452 
z
" style="fill:#d95f0e;opacity:0.5;"/>
   </g>
   <g id="patch_20">
    <path clip-path="url(#p14457f7f34)" d="M 187.473994 299.078125 
L 191.772222 299.078125 
L 191.772222 293.12656 
L 187.473994 293.12656 
z
" style="fill:#d95f0e;opacity:0.5;"/>
   </g>
   <g id="patch_21">
    <path clip-path="url(#p14457f7f34)" d="M 192.84678 299.078125 
L 197.145008 299.078125 
L 197.145008 296.102343 
L 192.84678 296.102343 
z
" style="fill:#d95f0e;opacity:0.5;"/>
   </g>
   <g id="patch_22">
    <path clip-path="url(#p14457f7f34)" d="M 198.219565 299.078125 
L 202.517794 299.078125 
L 202.517794 287.174996 
L 198.219565 287.174996 
z
" style="fill:#d95f0e;opacity:0.5;"/>
   </g>
   <g id="patch_23">
    <path clip-path="url(#p14457f7f34)" d="M 203.592351 299.078125 
L 207.89058 299.078125 
L 207.89058 296.102343 
L 203.592351 296.102343 
z
" style="fill:#d95f0e;opacity:0.5;"/>
   </g>
   <g id="patch_24">
    <path clip-path="url(#p14457f7f34)" d="M 208.965137 299.078125 
L 213.263366 299.078125 
L 213.263366 284.199213 
L 208.965137 284.199213 
z
" style="fill:#d95f0e;opacity:0.5;"/>
   </g>
   <g id="patch_25">
    <path clip-path="url(#p14457f7f34)" d="M 214.337923 299.078125 
L 218.636152 299.078125 
L 218.636152 285.687105 
L 214.337923 285.687105 
z
" style="fill:#d95f0e;opacity:0.5;"/>
   </g>
   <g id="patch_26">
    <path clip-path="url(#p14457f7f34)" d="M 219.710709 299.078125 
L 224.008938 299.078125 
L 224.008938 282.711322 
L 219.710709 282.711322 
z
" style="fill:#d95f0e;opacity:0.5;"/>
   </g>
   <g id="patch_27">
    <path clip-path="url(#p14457f7f34)" d="M 225.083495 299.078125 
L 229.381724 299.078125 
L 229.381724 276.759758 
L 225.083495 276.759758 
z
" style="fill:#d95f0e;opacity:0.5;"/>
   </g>
   <g id="patch_28">
    <path clip-path="url(#p14457f7f34)" d="M 230.456281 299.078125 
L 234.75451 299.078125 
L 234.75451 272.296084 
L 230.456281 272.296084 
z
" style="fill:#d95f0e;opacity:0.5;"/>
   </g>
   <g id="patch_29">
    <path clip-path="url(#p14457f7f34)" d="M 235.829067 299.078125 
L 240.127296 299.078125 
L 240.127296 269.320302 
L 235.829067 269.320302 
z
" style="fill:#d95f0e;opacity:0.5;"/>
   </g>
   <g id="patch_30">
    <path clip-path="url(#p14457f7f34)" d="M 241.201853 299.078125 
L 245.500081 299.078125 
L 245.500081 269.320302 
L 241.201853 269.320302 
z
" style="fill:#d95f0e;opacity:0.5;"/>
   </g>
   <g id="patch_31">
    <path clip-path="url(#p14457f7f34)" d="M 246.574639 299.078125 
L 250.872867 299.078125 
L 250.872867 263.368737 
L 246.574639 263.368737 
z
" style="fill:#d95f0e;opacity:0.5;"/>
   </g>
   <g id="patch_32">
    <path clip-path="url(#p14457f7f34)" d="M 251.947425 299.078125 
L 256.245653 299.078125 
L 256.245653 252.953499 
L 251.947425 252.953499 
z
" style="fill:#d95f0e;opacity:0.5;"/>
   </g>
   <g id="patch_33">
    <path clip-path="url(#p14457f7f34)" d="M 257.32021 299.078125 
L 261.618439 299.078125 
L 261.618439 232.123023 
L 257.32021 232.123023 
z
" style="fill:#d95f0e;opacity:0.5;"/>
   </g>
   <g id="patch_34">
    <path clip-path="url(#p14457f7f34)" d="M 262.692996 299.078125 
L 266.991225 299.078125 
L 266.991225 239.562479 
L 262.692996 239.562479 
z
" style="fill:#d95f0e;opacity:0.5;"/>
   </g>
   <g id="patch_35">
    <path clip-path="url(#p14457f7f34)" d="M 268.065782 299.078125 
L 272.364011 299.078125 
L 272.364011 258.905064 
L 268.065782 258.905064 
z
" style="fill:#d95f0e;opacity:0.5;"/>
   </g>
   <g id="patch_36">
    <path clip-path="url(#p14457f7f34)" d="M 273.438568 299.078125 
L 277.736797 299.078125 
L 277.736797 245.514043 
L 273.438568 245.514043 
z
" style="fill:#d95f0e;opacity:0.5;"/>
   </g>
   <g id="patch_37">
    <path clip-path="url(#p14457f7f34)" d="M 278.811354 299.078125 
L 283.109583 299.078125 
L 283.109583 239.562479 
L 278.811354 239.562479 
z
" style="fill:#d95f0e;opacity:0.5;"/>
   </g>
   <g id="patch_38">
    <path clip-path="url(#p14457f7f34)" d="M 284.18414 299.078125 
L 288.482369 299.078125 
L 288.482369 236.586696 
L 284.18414 236.586696 
z
" style="fill:#d95f0e;opacity:0.5;"/>
   </g>
   <g id="patch_39">
    <path clip-path="url(#p14457f7f34)" d="M 289.556926 299.078125 
L 293.855155 299.078125 
L 293.855155 224.683567 
L 289.556926 224.683567 
z
" style="fill:#d95f0e;opacity:0.5;"/>
   </g>
   <g id="patch_40">
    <path clip-path="url(#p14457f7f34)" d="M 294.929712 299.078125 
L 299.227941 299.078125 
L 299.227941 226.171458 
L 294.929712 226.171458 
z
" style="fill:#d95f0e;opacity:0.5;"/>
   </g>
   <g id="patch_41">
    <path clip-path="url(#p14457f7f34)" d="M 300.302498 299.078125 
L 304.600726 299.078125 
L 304.600726 242.538261 
L 300.302498 242.538261 
z
" style="fill:#d95f0e;opacity:0.5;"/>
   </g>
   <g id="patch_42">
    <path clip-path="url(#p14457f7f34)" d="M 305.675284 299.078125 
L 309.973512 299.078125 
L 309.973512 236.586696 
L 305.675284 236.586696 
z
" style="fill:#d95f0e;opacity:0.5;"/>
   </g>
   <g id="patch_43">
    <path clip-path="url(#p14457f7f34)" d="M 311.048069 299.078125 
L 315.346298 299.078125 
L 315.346298 254.44139 
L 311.048069 254.44139 
z
" style="fill:#d95f0e;opacity:0.5;"/>
   </g>
   <g id="patch_44">
    <path clip-path="url(#p14457f7f34)" d="M 316.420855 299.078125 
L 320.719084 299.078125 
L 320.719084 260.392955 
L 316.420855 260.392955 
z
" style="fill:#d95f0e;opacity:0.5;"/>
   </g>
   <g id="patch_45">
    <path clip-path="url(#p14457f7f34)" d="M 321.793641 299.078125 
L 326.09187 299.078125 
L 326.09187 247.001935 
L 321.793641 247.001935 
z
" style="fill:#d95f0e;opacity:0.5;"/>
   </g>
   <g id="patch_46">
    <path clip-path="url(#p14457f7f34)" d="M 327.166427 299.078125 
L 331.464656 299.078125 
L 331.464656 260.392955 
L 327.166427 260.392955 
z
" style="fill:#d95f0e;opacity:0.5;"/>
   </g>
   <g id="patch_47">
    <path clip-path="url(#p14457f7f34)" d="M 332.539213 299.078125 
L 336.837442 299.078125 
L 336.837442 258.905064 
L 332.539213 258.905064 
z
" style="fill:#d95f0e;opacity:0.5;"/>
   </g>
   <g id="patch_48">
    <path clip-path="url(#p14457f7f34)" d="M 337.911999 299.078125 
L 342.210228 299.078125 
L 342.210228 267.832411 
L 337.911999 267.832411 
z
" style="fill:#d95f0e;opacity:0.5;"/>
   </g>
   <g id="patch_49">
    <path clip-path="url(#p14457f7f34)" d="M 343.284785 299.078125 
L 347.583014 299.078125 
L 347.583014 261.880846 
L 343.284785 261.880846 
z
" style="fill:#d95f0e;opacity:0.5;"/>
   </g>
   <g id="patch_50">
    <path clip-path="url(#p14457f7f34)" d="M 348.657571 299.078125 
L 352.9558 299.078125 
L 352.9558 260.392955 
L 348.657571 260.392955 
z
" style="fill:#d95f0e;opacity:0.5;"/>
   </g>
   <g id="patch_51">
    <path clip-path="url(#p14457f7f34)" d="M 354.030357 299.078125 
L 358.328585 299.078125 
L 358.328585 267.832411 
L 354.030357 267.832411 
z
" style="fill:#d95f0e;opacity:0.5;"/>
   </g>
   <g id="patch_52">
    <path clip-path="url(#p14457f7f34)" d="M 359.403143 299.078125 
L 363.701371 299.078125 
L 363.701371 293.12656 
L 359.403143 293.12656 
z
" style="fill:#d95f0e;opacity:0.5;"/>
   </g>
   <g id="patch_53">
    <path clip-path="url(#p14457f7f34)" d="M 364.775929 299.078125 
L 369.074157 299.078125 
L 369.074157 288.662887 
L 364.775929 288.662887 
z
" style="fill:#d95f0e;opacity:0.5;"/>
   </g>
   <g id="patch_54">
    <path clip-path="url(#p14457f7f34)" d="M 370.148714 299.078125 
L 374.446943 299.078125 
L 374.446943 293.12656 
L 370.148714 293.12656 
z
" style="fill:#d95f0e;opacity:0.5;"/>
   </g>
   <g id="patch_55">
    <path clip-path="url(#p14457f7f34)" d="M 375.5215 299.078125 
L 379.819729 299.078125 
L 379.819729 296.102343 
L 375.5215 296.102343 
z
" style="fill:#d95f0e;opacity:0.5;"/>
   </g>
   <g id="patch_56">
    <path clip-path="url(#p14457f7f34)" d="M 380.894286 299.078125 
L 385.192515 299.078125 
L 385.192515 291.638669 
L 380.894286 291.638669 
z
" style="fill:#d95f0e;opacity:0.5;"/>
   </g>
   <g id="patch_57">
    <path clip-path="url(#p14457f7f34)" d="M 386.267072 299.078125 
L 390.565301 299.078125 
L 390.565301 296.102343 
L 386.267072 296.102343 
z
" style="fill:#d95f0e;opacity:0.5;"/>
   </g>
   <g id="patch_58">
    <path clip-path="url(#p14457f7f34)" d="M 391.639858 299.078125 
L 395.938087 299.078125 
L 395.938087 293.12656 
L 391.639858 293.12656 
z
" style="fill:#d95f0e;opacity:0.5;"/>
   </g>
   <g id="patch_59">
    <path clip-path="url(#p14457f7f34)" d="M 397.012644 299.078125 
L 401.310873 299.078125 
L 401.310873 299.078125 
L 397.012644 299.078125 
z
" style="fill:#d95f0e;opacity:0.5;"/>
   </g>
   <g id="patch_60">
    <path clip-path="url(#p14457f7f34)" d="M 402.38543 299.078125 
L 406.683659 299.078125 
L 406.683659 296.102343 
L 402.38543 296.102343 
z
" style="fill:#d95f0e;opacity:0.5;"/>
   </g>
   <g id="patch_61">
    <path clip-path="url(#p14457f7f34)" d="M 195.604177 299.078125 
L 199.902406 299.078125 
L 199.902406 284.199213 
L 195.604177 284.199213 
z
" style="fill:#43a2ca;opacity:0.8;"/>
   </g>
   <g id="patch_62">
    <path clip-path="url(#p14457f7f34)" d="M 200.326778 299.078125 
L 204.625006 299.078125 
L 204.625006 284.199213 
L 200.326778 284.199213 
z
" style="fill:#43a2ca;opacity:0.8;"/>
   </g>
   <g id="patch_63">
    <path clip-path="url(#p14457f7f34)" d="M 205.049378 299.078125 
L 209.347607 299.078125 
L 209.347607 299.078125 
L 205.049378 299.078125 
z
" style="fill:#43a2ca;opacity:0.8;"/>
   </g>
   <g id="patch_64">
    <path clip-path="url(#p14457f7f34)" d="M 209.771979 299.078125 
L 214.070207 299.078125 
L 214.070207 299.078125 
L 209.771979 299.078125 
z
" style="fill:#43a2ca;opacity:0.8;"/>
   </g>
   <g id="patch_65">
    <path clip-path="url(#p14457f7f34)" d="M 214.494579 299.078125 
L 218.792808 299.078125 
L 218.792808 299.078125 
L 214.494579 299.078125 
z
" style="fill:#43a2ca;opacity:0.8;"/>
   </g>
   <g id="patch_66">
    <path clip-path="url(#p14457f7f34)" d="M 219.217179 299.078125 
L 223.515408 299.078125 
L 223.515408 299.078125 
L 219.217179 299.078125 
z
" style="fill:#43a2ca;opacity:0.8;"/>
   </g>
   <g id="patch_67">
    <path clip-path="url(#p14457f7f34)" d="M 223.93978 299.078125 
L 228.238009 299.078125 
L 228.238009 239.562479 
L 223.93978 239.562479 
z
" style="fill:#43a2ca;opacity:0.8;"/>
   </g>
   <g id="patch_68">
    <path clip-path="url(#p14457f7f34)" d="M 228.66238 299.078125 
L 232.960609 299.078125 
L 232.960609 299.078125 
L 228.66238 299.078125 
z
" style="fill:#43a2ca;opacity:0.8;"/>
   </g>
   <g id="patch_69">
    <path clip-path="url(#p14457f7f34)" d="M 233.384981 299.078125 
L 237.68321 299.078125 
L 237.68321 299.078125 
L 233.384981 299.078125 
z
" style="fill:#43a2ca;opacity:0.8;"/>
   </g>
   <g id="patch_70">
    <path clip-path="url(#p14457f7f34)" d="M 238.107581 299.078125 
L 242.40581 299.078125 
L 242.40581 299.078125 
L 238.107581 299.078125 
z
" style="fill:#43a2ca;opacity:0.8;"/>
   </g>
   <g id="patch_71">
    <path clip-path="url(#p14457f7f34)" d="M 242.830182 299.078125 
L 247.128411 299.078125 
L 247.128411 284.199213 
L 242.830182 284.199213 
z
" style="fill:#43a2ca;opacity:0.8;"/>
   </g>
   <g id="patch_72">
    <path clip-path="url(#p14457f7f34)" d="M 247.552782 299.078125 
L 251.851011 299.078125 
L 251.851011 239.562479 
L 247.552782 239.562479 
z
" style="fill:#43a2ca;opacity:0.8;"/>
   </g>
   <g id="patch_73">
    <path clip-path="url(#p14457f7f34)" d="M 252.275383 299.078125 
L 256.573612 299.078125 
L 256.573612 284.199213 
L 252.275383 284.199213 
z
" style="fill:#43a2ca;opacity:0.8;"/>
   </g>
   <g id="patch_74">
    <path clip-path="url(#p14457f7f34)" d="M 256.997983 299.078125 
L 261.296212 299.078125 
L 261.296212 299.078125 
L 256.997983 299.078125 
z
" style="fill:#43a2ca;opacity:0.8;"/>
   </g>
   <g id="patch_75">
    <path clip-path="url(#p14457f7f34)" d="M 261.720584 299.078125 
L 266.018813 299.078125 
L 266.018813 209.804656 
L 261.720584 209.804656 
z
" style="fill:#43a2ca;opacity:0.8;"/>
   </g>
   <g id="patch_76">
    <path clip-path="url(#p14457f7f34)" d="M 266.443184 299.078125 
L 270.741413 299.078125 
L 270.741413 299.078125 
L 266.443184 299.078125 
z
" style="fill:#43a2ca;opacity:0.8;"/>
   </g>
   <g id="patch_77">
    <path clip-path="url(#p14457f7f34)" d="M 271.165785 299.078125 
L 275.464014 299.078125 
L 275.464014 269.320302 
L 271.165785 269.320302 
z
" style="fill:#43a2ca;opacity:0.8;"/>
   </g>
   <g id="patch_78">
    <path clip-path="url(#p14457f7f34)" d="M 275.888385 299.078125 
L 280.186614 299.078125 
L 280.186614 254.44139 
L 275.888385 254.44139 
z
" style="fill:#43a2ca;opacity:0.8;"/>
   </g>
   <g id="patch_79">
    <path clip-path="url(#p14457f7f34)" d="M 280.610986 299.078125 
L 284.909215 299.078125 
L 284.909215 269.320302 
L 280.610986 269.320302 
z
" style="fill:#43a2ca;opacity:0.8;"/>
   </g>
   <g id="patch_80">
    <path clip-path="url(#p14457f7f34)" d="M 285.333586 299.078125 
L 289.631815 299.078125 
L 289.631815 254.44139 
L 285.333586 254.44139 
z
" style="fill:#43a2ca;opacity:0.8;"/>
   </g>
   <g id="patch_81">
    <path clip-path="url(#p14457f7f34)" d="M 290.056187 299.078125 
L 294.354415 299.078125 
L 294.354415 269.320302 
L 290.056187 269.320302 
z
" style="fill:#43a2ca;opacity:0.8;"/>
   </g>
   <g id="patch_82">
    <path clip-path="url(#p14457f7f34)" d="M 294.778787 299.078125 
L 299.077016 299.078125 
L 299.077016 284.199213 
L 294.778787 284.199213 
z
" style="fill:#43a2ca;opacity:0.8;"/>
   </g>
   <g id="patch_83">
    <path clip-path="url(#p14457f7f34)" d="M 299.501388 299.078125 
L 303.799616 299.078125 
L 303.799616 209.804656 
L 299.501388 209.804656 
z
" style="fill:#43a2ca;opacity:0.8;"/>
   </g>
   <g id="patch_84">
    <path clip-path="url(#p14457f7f34)" d="M 304.223988 299.078125 
L 308.522217 299.078125 
L 308.522217 209.804656 
L 304.223988 209.804656 
z
" style="fill:#43a2ca;opacity:0.8;"/>
   </g>
   <g id="patch_85">
    <path clip-path="url(#p14457f7f34)" d="M 308.946589 299.078125 
L 313.244817 299.078125 
L 313.244817 254.44139 
L 308.946589 254.44139 
z
" style="fill:#43a2ca;opacity:0.8;"/>
   </g>
   <g id="patch_86">
    <path clip-path="url(#p14457f7f34)" d="M 313.669189 299.078125 
L 317.967418 299.078125 
L 317.967418 269.320302 
L 313.669189 269.320302 
z
" style="fill:#43a2ca;opacity:0.8;"/>
   </g>
   <g id="patch_87">
    <path clip-path="url(#p14457f7f34)" d="M 318.39179 299.078125 
L 322.690018 299.078125 
L 322.690018 239.562479 
L 318.39179 239.562479 
z
" style="fill:#43a2ca;opacity:0.8;"/>
   </g>
   <g id="patch_88">
    <path clip-path="url(#p14457f7f34)" d="M 323.11439 299.078125 
L 327.412619 299.078125 
L 327.412619 194.925744 
L 323.11439 194.925744 
z
" style="fill:#43a2ca;opacity:0.8;"/>
   </g>
   <g id="patch_89">
    <path clip-path="url(#p14457f7f34)" d="M 327.836991 299.078125 
L 332.135219 299.078125 
L 332.135219 239.562479 
L 327.836991 239.562479 
z
" style="fill:#43a2ca;opacity:0.8;"/>
   </g>
   <g id="patch_90">
    <path clip-path="url(#p14457f7f34)" d="M 332.559591 299.078125 
L 336.85782 299.078125 
L 336.85782 284.199213 
L 332.559591 284.199213 
z
" style="fill:#43a2ca;opacity:0.8;"/>
   </g>
   <g id="patch_91">
    <path clip-path="url(#p14457f7f34)" d="M 337.282192 299.078125 
L 341.58042 299.078125 
L 341.58042 254.44139 
L 337.282192 254.44139 
z
" style="fill:#43a2ca;opacity:0.8;"/>
   </g>
   <g id="patch_92">
    <path clip-path="url(#p14457f7f34)" d="M 342.004792 299.078125 
L 346.303021 299.078125 
L 346.303021 269.320302 
L 342.004792 269.320302 
z
" style="fill:#43a2ca;opacity:0.8;"/>
   </g>
   <g id="patch_93">
    <path clip-path="url(#p14457f7f34)" d="M 346.727393 299.078125 
L 351.025621 299.078125 
L 351.025621 239.562479 
L 346.727393 239.562479 
z
" style="fill:#43a2ca;opacity:0.8;"/>
   </g>
   <g id="patch_94">
    <path clip-path="url(#p14457f7f34)" d="M 351.449993 299.078125 
L 355.748222 299.078125 
L 355.748222 269.320302 
L 351.449993 269.320302 
z
" style="fill:#43a2ca;opacity:0.8;"/>
   </g>
   <g id="patch_95">
    <path clip-path="url(#p14457f7f34)" d="M 356.172594 299.078125 
L 360.470822 299.078125 
L 360.470822 254.44139 
L 356.172594 254.44139 
z
" style="fill:#43a2ca;opacity:0.8;"/>
   </g>
   <g id="patch_96">
    <path clip-path="url(#p14457f7f34)" d="M 360.895194 299.078125 
L 365.193423 299.078125 
L 365.193423 269.320302 
L 360.895194 269.320302 
z
" style="fill:#43a2ca;opacity:0.8;"/>
   </g>
   <g id="patch_97">
    <path clip-path="url(#p14457f7f34)" d="M 365.617795 299.078125 
L 369.916023 299.078125 
L 369.916023 299.078125 
L 365.617795 299.078125 
z
" style="fill:#43a2ca;opacity:0.8;"/>
   </g>
   <g id="patch_98">
    <path clip-path="url(#p14457f7f34)" d="M 370.340395 299.078125 
L 374.638624 299.078125 
L 374.638624 284.199213 
L 370.340395 284.199213 
z
" style="fill:#43a2ca;opacity:0.8;"/>
   </g>
   <g id="patch_99">
    <path clip-path="url(#p14457f7f34)" d="M 375.062995 299.078125 
L 379.361224 299.078125 
L 379.361224 284.199213 
L 375.062995 284.199213 
z
" style="fill:#43a2ca;opacity:0.8;"/>
   </g>
   <g id="patch_100">
    <path clip-path="url(#p14457f7f34)" d="M 379.785596 299.078125 
L 384.083825 299.078125 
L 384.083825 284.199213 
L 379.785596 284.199213 
z
" style="fill:#43a2ca;opacity:0.8;"/>
   </g>
   <g id="patch_101">
    <path clip-path="url(#p14457f7f34)" d="M 384.508196 299.078125 
L 388.806425 299.078125 
L 388.806425 284.199213 
L 384.508196 284.199213 
z
" style="fill:#43a2ca;opacity:0.8;"/>
   </g>
   <g id="patch_102">
    <path clip-path="url(#p14457f7f34)" d="M 389.230797 299.078125 
L 393.529026 299.078125 
L 393.529026 299.078125 
L 389.230797 299.078125 
z
" style="fill:#43a2ca;opacity:0.8;"/>
   </g>
   <g id="patch_103">
    <path clip-path="url(#p14457f7f34)" d="M 393.953397 299.078125 
L 398.251626 299.078125 
L 398.251626 284.199213 
L 393.953397 284.199213 
z
" style="fill:#43a2ca;opacity:0.8;"/>
   </g>
   <g id="patch_104">
    <path clip-path="url(#p14457f7f34)" d="M 398.675998 299.078125 
L 402.974227 299.078125 
L 402.974227 299.078125 
L 398.675998 299.078125 
z
" style="fill:#43a2ca;opacity:0.8;"/>
   </g>
   <g id="patch_105">
    <path clip-path="url(#p14457f7f34)" d="M 403.398598 299.078125 
L 407.696827 299.078125 
L 407.696827 299.078125 
L 403.398598 299.078125 
z
" style="fill:#43a2ca;opacity:0.8;"/>
   </g>
   <g id="patch_106">
    <path clip-path="url(#p14457f7f34)" d="M 408.121199 299.078125 
L 412.419428 299.078125 
L 412.419428 299.078125 
L 408.121199 299.078125 
z
" style="fill:#43a2ca;opacity:0.8;"/>
   </g>
   <g id="patch_107">
    <path clip-path="url(#p14457f7f34)" d="M 412.843799 299.078125 
L 417.142028 299.078125 
L 417.142028 299.078125 
L 412.843799 299.078125 
z
" style="fill:#43a2ca;opacity:0.8;"/>
   </g>
   <g id="patch_108">
    <path clip-path="url(#p14457f7f34)" d="M 417.5664 299.078125 
L 421.864629 299.078125 
L 421.864629 299.078125 
L 417.5664 299.078125 
z
" style="fill:#43a2ca;opacity:0.8;"/>
   </g>
   <g id="patch_109">
    <path clip-path="url(#p14457f7f34)" d="M 422.289 299.078125 
L 426.587229 299.078125 
L 426.587229 299.078125 
L 422.289 299.078125 
z
" style="fill:#43a2ca;opacity:0.8;"/>
   </g>
   <g id="patch_110">
    <path clip-path="url(#p14457f7f34)" d="M 427.011601 299.078125 
L 431.30983 299.078125 
L 431.30983 284.199213 
L 427.011601 284.199213 
z
" style="fill:#43a2ca;opacity:0.8;"/>
   </g>
   <g id="matplotlib.axis_3">
    <g id="xtick_7">
     <g id="line2d_10">
      <g>
       <use style="stroke:#000000;stroke-width:0.8;" x="133.029923" xlink:href="#m8f5fb458d7" y="299.078125"/>
      </g>
     </g>
     <g id="text_12">
      <!-- 0.6 -->
      <g transform="translate(120.888517 313.676562)scale(0.1 -0.1)">
       <defs>
        <path d="M 10.59375 35.5 
L 73.1875 35.5 
L 73.1875 27.203125 
L 10.59375 27.203125 
z
" id="DejaVuSans-8722"/>
        <path d="M 33.015625 40.375 
Q 26.375 40.375 22.484375 35.828125 
Q 18.609375 31.296875 18.609375 23.390625 
Q 18.609375 15.53125 22.484375 10.953125 
Q 26.375 6.390625 33.015625 6.390625 
Q 39.65625 6.390625 43.53125 10.953125 
Q 47.40625 15.53125 47.40625 23.390625 
Q 47.40625 31.296875 43.53125 35.828125 
Q 39.65625 40.375 33.015625 40.375 
z
M 52.59375 71.296875 
L 52.59375 62.3125 
Q 48.875 64.0625 45.09375 64.984375 
Q 41.3125 65.921875 37.59375 65.921875 
Q 27.828125 65.921875 22.671875 59.328125 
Q 17.53125 52.734375 16.796875 39.40625 
Q 19.671875 43.65625 24.015625 45.921875 
Q 28.375 48.1875 33.59375 48.1875 
Q 44.578125 48.1875 50.953125 41.515625 
Q 57.328125 34.859375 57.328125 23.390625 
Q 57.328125 12.15625 50.6875 5.359375 
Q 44.046875 -1.421875 33.015625 -1.421875 
Q 20.359375 -1.421875 13.671875 8.265625 
Q 6.984375 17.96875 6.984375 36.375 
Q 6.984375 53.65625 15.1875 63.9375 
Q 23.390625 74.21875 37.203125 74.21875 
Q 40.921875 74.21875 44.703125 73.484375 
Q 48.484375 72.75 52.59375 71.296875 
z
" id="DejaVuSans-54"/>
       </defs>
       <use xlink:href="#DejaVuSans-8722"/>
       <use x="83.789062" xlink:href="#DejaVuSans-48"/>
       <use x="147.412109" xlink:href="#DejaVuSans-46"/>
       <use x="179.199219" xlink:href="#DejaVuSans-54"/>
      </g>
     </g>
    </g>
    <g id="xtick_8">
     <g id="line2d_11">
      <g>
       <use style="stroke:#000000;stroke-width:0.8;" x="187.718622" xlink:href="#m8f5fb458d7" y="299.078125"/>
      </g>
     </g>
     <g id="text_13">
      <!-- 0.4 -->
      <g transform="translate(175.577216 313.676562)scale(0.1 -0.1)">
       <use xlink:href="#DejaVuSans-8722"/>
       <use x="83.789062" xlink:href="#DejaVuSans-48"/>
       <use x="147.412109" xlink:href="#DejaVuSans-46"/>
       <use x="179.199219" xlink:href="#DejaVuSans-52"/>
      </g>
     </g>
    </g>
    <g id="xtick_9">
     <g id="line2d_12">
      <g>
       <use style="stroke:#000000;stroke-width:0.8;" x="242.407321" xlink:href="#m8f5fb458d7" y="299.078125"/>
      </g>
     </g>
     <g id="text_14">
      <!-- 0.2 -->
      <g transform="translate(230.265915 313.676562)scale(0.1 -0.1)">
       <use xlink:href="#DejaVuSans-8722"/>
       <use x="83.789062" xlink:href="#DejaVuSans-48"/>
       <use x="147.412109" xlink:href="#DejaVuSans-46"/>
       <use x="179.199219" xlink:href="#DejaVuSans-50"/>
      </g>
     </g>
    </g>
    <g id="xtick_10">
     <g id="line2d_13">
      <g>
       <use style="stroke:#000000;stroke-width:0.8;" x="297.09602" xlink:href="#m8f5fb458d7" y="299.078125"/>
      </g>
     </g>
     <g id="text_15">
      <!-- 0.0 -->
      <g transform="translate(289.144458 313.676562)scale(0.1 -0.1)">
       <use xlink:href="#DejaVuSans-48"/>
       <use x="63.623047" xlink:href="#DejaVuSans-46"/>
       <use x="95.410156" xlink:href="#DejaVuSans-48"/>
      </g>
     </g>
    </g>
    <g id="xtick_11">
     <g id="line2d_14">
      <g>
       <use style="stroke:#000000;stroke-width:0.8;" x="351.784719" xlink:href="#m8f5fb458d7" y="299.078125"/>
      </g>
     </g>
     <g id="text_16">
      <!-- 0.2 -->
      <g transform="translate(343.833157 313.676562)scale(0.1 -0.1)">
       <use xlink:href="#DejaVuSans-48"/>
       <use x="63.623047" xlink:href="#DejaVuSans-46"/>
       <use x="95.410156" xlink:href="#DejaVuSans-50"/>
      </g>
     </g>
    </g>
    <g id="xtick_12">
     <g id="line2d_15">
      <g>
       <use style="stroke:#000000;stroke-width:0.8;" x="406.473418" xlink:href="#m8f5fb458d7" y="299.078125"/>
      </g>
     </g>
     <g id="text_17">
      <!-- 0.4 -->
      <g transform="translate(398.521856 313.676562)scale(0.1 -0.1)">
       <use xlink:href="#DejaVuSans-48"/>
       <use x="63.623047" xlink:href="#DejaVuSans-46"/>
       <use x="95.410156" xlink:href="#DejaVuSans-52"/>
      </g>
     </g>
    </g>
    <g id="text_18">
     <!-- Rho value -->
     <g transform="translate(260.265156 327.354687)scale(0.1 -0.1)">
      <defs>
       <path d="M 54.890625 33.015625 
L 54.890625 0 
L 45.90625 0 
L 45.90625 32.71875 
Q 45.90625 40.484375 42.875 44.328125 
Q 39.84375 48.1875 33.796875 48.1875 
Q 26.515625 48.1875 22.3125 43.546875 
Q 18.109375 38.921875 18.109375 30.90625 
L 18.109375 0 
L 9.078125 0 
L 9.078125 75.984375 
L 18.109375 75.984375 
L 18.109375 46.1875 
Q 21.34375 51.125 25.703125 53.5625 
Q 30.078125 56 35.796875 56 
Q 45.21875 56 50.046875 50.171875 
Q 54.890625 44.34375 54.890625 33.015625 
z
" id="DejaVuSans-104"/>
      </defs>
      <use xlink:href="#DejaVuSans-82"/>
      <use x="69.482422" xlink:href="#DejaVuSans-104"/>
      <use x="132.861328" xlink:href="#DejaVuSans-111"/>
      <use x="194.042969" xlink:href="#DejaVuSans-32"/>
      <use x="225.830078" xlink:href="#DejaVuSans-118"/>
      <use x="285.009766" xlink:href="#DejaVuSans-97"/>
      <use x="346.289062" xlink:href="#DejaVuSans-108"/>
      <use x="374.072266" xlink:href="#DejaVuSans-117"/>
      <use x="437.451172" xlink:href="#DejaVuSans-101"/>
     </g>
    </g>
   </g>
   <g id="matplotlib.axis_4">
    <g id="ytick_4">
     <g id="line2d_16">
      <g>
       <use style="stroke:#000000;stroke-width:0.8;" x="124.509375" xlink:href="#m054cf95297" y="299.078125"/>
      </g>
     </g>
     <g id="text_19">
      <!-- 0 -->
      <g transform="translate(111.146875 302.877344)scale(0.1 -0.1)">
       <use xlink:href="#DejaVuSans-48"/>
      </g>
     </g>
    </g>
    <g id="ytick_5">
     <g id="line2d_17">
      <g>
       <use style="stroke:#000000;stroke-width:0.8;" x="124.509375" xlink:href="#m054cf95297" y="269.320302"/>
      </g>
     </g>
     <g id="text_20">
      <!-- 2 -->
      <g transform="translate(111.146875 273.119521)scale(0.1 -0.1)">
       <use xlink:href="#DejaVuSans-50"/>
      </g>
     </g>
    </g>
    <g id="ytick_6">
     <g id="line2d_18">
      <g>
       <use style="stroke:#000000;stroke-width:0.8;" x="124.509375" xlink:href="#m054cf95297" y="239.562479"/>
      </g>
     </g>
     <g id="text_21">
      <!-- 4 -->
      <g transform="translate(111.146875 243.361697)scale(0.1 -0.1)">
       <use xlink:href="#DejaVuSans-52"/>
      </g>
     </g>
    </g>
    <g id="ytick_7">
     <g id="line2d_19">
      <g>
       <use style="stroke:#000000;stroke-width:0.8;" x="124.509375" xlink:href="#m054cf95297" y="209.804656"/>
      </g>
     </g>
     <g id="text_22">
      <!-- 6 -->
      <g transform="translate(111.146875 213.603874)scale(0.1 -0.1)">
       <use xlink:href="#DejaVuSans-54"/>
      </g>
     </g>
    </g>
    <g id="text_23">
     <!-- Number of bacteria -->
     <g transform="translate(105.067188 293.014531)rotate(-90)scale(0.1 -0.1)">
      <defs>
       <path d="M 9.8125 72.90625 
L 23.09375 72.90625 
L 55.421875 11.921875 
L 55.421875 72.90625 
L 64.984375 72.90625 
L 64.984375 0 
L 51.703125 0 
L 19.390625 60.984375 
L 19.390625 0 
L 9.8125 0 
z
" id="DejaVuSans-78"/>
      </defs>
      <use xlink:href="#DejaVuSans-78"/>
      <use x="74.804688" xlink:href="#DejaVuSans-117"/>
      <use x="138.183594" xlink:href="#DejaVuSans-109"/>
      <use x="235.595703" xlink:href="#DejaVuSans-98"/>
      <use x="299.072266" xlink:href="#DejaVuSans-101"/>
      <use x="360.595703" xlink:href="#DejaVuSans-114"/>
      <use x="401.708984" xlink:href="#DejaVuSans-32"/>
      <use x="433.496094" xlink:href="#DejaVuSans-111"/>
      <use x="494.677734" xlink:href="#DejaVuSans-102"/>
      <use x="529.882812" xlink:href="#DejaVuSans-32"/>
      <use x="561.669922" xlink:href="#DejaVuSans-98"/>
      <use x="625.146484" xlink:href="#DejaVuSans-97"/>
      <use x="686.425781" xlink:href="#DejaVuSans-99"/>
      <use x="741.40625" xlink:href="#DejaVuSans-116"/>
      <use x="780.615234" xlink:href="#DejaVuSans-101"/>
      <use x="842.138672" xlink:href="#DejaVuSans-114"/>
      <use x="883.251953" xlink:href="#DejaVuSans-105"/>
      <use x="911.035156" xlink:href="#DejaVuSans-97"/>
     </g>
    </g>
   </g>
   <g id="patch_111">
    <path d="M 124.509375 299.078125 
L 124.509375 189.718125 
" style="fill:none;stroke:#000000;stroke-linecap:square;stroke-linejoin:miter;stroke-width:0.8;"/>
   </g>
   <g id="patch_112">
    <path d="M 445.919375 299.078125 
L 445.919375 189.718125 
" style="fill:none;stroke:#000000;stroke-linecap:square;stroke-linejoin:miter;stroke-width:0.8;"/>
   </g>
   <g id="patch_113">
    <path d="M 124.509375 299.078125 
L 445.919375 299.078125 
" style="fill:none;stroke:#000000;stroke-linecap:square;stroke-linejoin:miter;stroke-width:0.8;"/>
   </g>
   <g id="patch_114">
    <path d="M 124.509375 189.718125 
L 445.919375 189.718125 
" style="fill:none;stroke:#000000;stroke-linecap:square;stroke-linejoin:miter;stroke-width:0.8;"/>
   </g>
   <g id="text_24">
    <!-- Real tags vs. Mixed tags at revenue number -->
    <g transform="translate(152.7025 183.718125)scale(0.12 -0.12)">
     <defs>
      <path d="M 9.8125 72.90625 
L 24.515625 72.90625 
L 43.109375 23.296875 
L 61.8125 72.90625 
L 76.515625 72.90625 
L 76.515625 0 
L 66.890625 0 
L 66.890625 64.015625 
L 48.09375 14.015625 
L 38.1875 14.015625 
L 19.390625 64.015625 
L 19.390625 0 
L 9.8125 0 
z
" id="DejaVuSans-77"/>
      <path d="M 54.890625 54.6875 
L 35.109375 28.078125 
L 55.90625 0 
L 45.3125 0 
L 29.390625 21.484375 
L 13.484375 0 
L 2.875 0 
L 24.125 28.609375 
L 4.6875 54.6875 
L 15.28125 54.6875 
L 29.78125 35.203125 
L 44.28125 54.6875 
z
" id="DejaVuSans-120"/>
     </defs>
     <use xlink:href="#DejaVuSans-82"/>
     <use x="64.982422" xlink:href="#DejaVuSans-101"/>
     <use x="126.505859" xlink:href="#DejaVuSans-97"/>
     <use x="187.785156" xlink:href="#DejaVuSans-108"/>
     <use x="215.568359" xlink:href="#DejaVuSans-32"/>
     <use x="247.355469" xlink:href="#DejaVuSans-116"/>
     <use x="286.564453" xlink:href="#DejaVuSans-97"/>
     <use x="347.84375" xlink:href="#DejaVuSans-103"/>
     <use x="411.320312" xlink:href="#DejaVuSans-115"/>
     <use x="463.419922" xlink:href="#DejaVuSans-32"/>
     <use x="495.207031" xlink:href="#DejaVuSans-118"/>
     <use x="554.386719" xlink:href="#DejaVuSans-115"/>
     <use x="606.486328" xlink:href="#DejaVuSans-46"/>
     <use x="638.273438" xlink:href="#DejaVuSans-32"/>
     <use x="670.060547" xlink:href="#DejaVuSans-77"/>
     <use x="756.339844" xlink:href="#DejaVuSans-105"/>
     <use x="784.123047" xlink:href="#DejaVuSans-120"/>
     <use x="840.177734" xlink:href="#DejaVuSans-101"/>
     <use x="901.701172" xlink:href="#DejaVuSans-100"/>
     <use x="965.177734" xlink:href="#DejaVuSans-32"/>
     <use x="996.964844" xlink:href="#DejaVuSans-116"/>
     <use x="1036.173828" xlink:href="#DejaVuSans-97"/>
     <use x="1097.453125" xlink:href="#DejaVuSans-103"/>
     <use x="1160.929688" xlink:href="#DejaVuSans-115"/>
     <use x="1213.029297" xlink:href="#DejaVuSans-32"/>
     <use x="1244.816406" xlink:href="#DejaVuSans-97"/>
     <use x="1306.095703" xlink:href="#DejaVuSans-116"/>
     <use x="1345.304688" xlink:href="#DejaVuSans-32"/>
     <use x="1377.091797" xlink:href="#DejaVuSans-114"/>
     <use x="1415.955078" xlink:href="#DejaVuSans-101"/>
     <use x="1477.478516" xlink:href="#DejaVuSans-118"/>
     <use x="1536.658203" xlink:href="#DejaVuSans-101"/>
     <use x="1598.181641" xlink:href="#DejaVuSans-110"/>
     <use x="1661.560547" xlink:href="#DejaVuSans-117"/>
     <use x="1724.939453" xlink:href="#DejaVuSans-101"/>
     <use x="1786.462891" xlink:href="#DejaVuSans-32"/>
     <use x="1818.25" xlink:href="#DejaVuSans-110"/>
     <use x="1881.628906" xlink:href="#DejaVuSans-117"/>
     <use x="1945.007812" xlink:href="#DejaVuSans-109"/>
     <use x="2042.419922" xlink:href="#DejaVuSans-98"/>
     <use x="2105.896484" xlink:href="#DejaVuSans-101"/>
     <use x="2167.419922" xlink:href="#DejaVuSans-114"/>
    </g>
   </g>
   <g id="legend_1">
    <g id="patch_115">
     <path d="M 352.620937 227.074375 
L 438.919375 227.074375 
Q 440.919375 227.074375 440.919375 225.074375 
L 440.919375 196.718125 
Q 440.919375 194.718125 438.919375 194.718125 
L 352.620937 194.718125 
Q 350.620937 194.718125 350.620937 196.718125 
L 350.620937 225.074375 
Q 350.620937 227.074375 352.620937 227.074375 
z
" style="fill:#ffffff;opacity:0.8;stroke:#cccccc;stroke-linejoin:miter;"/>
    </g>
    <g id="patch_116">
     <path d="M 354.620937 206.316562 
L 374.620937 206.316562 
L 374.620937 199.316562 
L 354.620937 199.316562 
z
" style="fill:#d95f0e;opacity:0.5;"/>
    </g>
    <g id="text_25">
     <!-- Mixed tags -->
     <g transform="translate(382.620937 206.316562)scale(0.1 -0.1)">
      <use xlink:href="#DejaVuSans-77"/>
      <use x="86.279297" xlink:href="#DejaVuSans-105"/>
      <use x="114.0625" xlink:href="#DejaVuSans-120"/>
      <use x="170.117188" xlink:href="#DejaVuSans-101"/>
      <use x="231.640625" xlink:href="#DejaVuSans-100"/>
      <use x="295.117188" xlink:href="#DejaVuSans-32"/>
      <use x="326.904297" xlink:href="#DejaVuSans-116"/>
      <use x="366.113281" xlink:href="#DejaVuSans-97"/>
      <use x="427.392578" xlink:href="#DejaVuSans-103"/>
      <use x="490.869141" xlink:href="#DejaVuSans-115"/>
     </g>
    </g>
    <g id="patch_117">
     <path d="M 354.620937 220.994687 
L 374.620937 220.994687 
L 374.620937 213.994687 
L 354.620937 213.994687 
z
" style="fill:#43a2ca;opacity:0.8;"/>
    </g>
    <g id="text_26">
     <!-- Real tags -->
     <g transform="translate(382.620937 220.994687)scale(0.1 -0.1)">
      <use xlink:href="#DejaVuSans-82"/>
      <use x="64.982422" xlink:href="#DejaVuSans-101"/>
      <use x="126.505859" xlink:href="#DejaVuSans-97"/>
      <use x="187.785156" xlink:href="#DejaVuSans-108"/>
      <use x="215.568359" xlink:href="#DejaVuSans-32"/>
      <use x="247.355469" xlink:href="#DejaVuSans-116"/>
      <use x="286.564453" xlink:href="#DejaVuSans-97"/>
      <use x="347.84375" xlink:href="#DejaVuSans-103"/>
      <use x="411.320312" xlink:href="#DejaVuSans-115"/>
     </g>
    </g>
   </g>
  </g>
 </g>
 <defs>
  <clipPath id="pf43f37fa35">
   <rect height="109.36" width="321.41" x="124.509375" y="22.318125"/>
  </clipPath>
  <clipPath id="p14457f7f34">
   <rect height="109.36" width="321.41" x="124.509375" y="189.718125"/>
  </clipPath>
 </defs>
</svg>
