<?xml version="1.0" encoding="utf-8" standalone="no"?>
<!DOCTYPE svg PUBLIC "-//W3C//DTD SVG 1.1//EN"
  "http://www.w3.org/Graphics/SVG/1.1/DTD/svg11.dtd">
<!-- Created with matplotlib (https://matplotlib.org/) -->
<svg height="325.986375pt" version="1.1" viewBox="0 0 400.551049 325.986375" width="400.551049pt" xmlns="http://www.w3.org/2000/svg" xmlns:xlink="http://www.w3.org/1999/xlink">
 <defs>
  <style type="text/css">
*{stroke-linecap:butt;stroke-linejoin:round;}
  </style>
 </defs>
 <g id="figure_1">
  <g id="patch_1">
   <path d="M 0 325.986375 
L 400.551049 325.986375 
L 400.551049 0 
L 0 0 
z
" style="fill:#ffffff;"/>
  </g>
  <g id="axes_1">
   <g id="patch_2">
    <path d="M 34.240625 288.430125 
L 391.360625 288.430125 
L 391.360625 22.318125 
L 34.240625 22.318125 
z
" style="fill:#ffffff;"/>
   </g>
   <g id="patch_3">
    <path clip-path="url(#p671a36025c)" d="M 50.473352 288.430125 
L 55.688686 288.430125 
L 55.688686 276.910125 
L 50.473352 276.910125 
z
" style="fill:#d95f0e;opacity:0.5;"/>
   </g>
   <g id="patch_4">
    <path clip-path="url(#p671a36025c)" d="M 56.99252 288.430125 
L 62.207854 288.430125 
L 62.207854 288.430125 
L 56.99252 288.430125 
z
" style="fill:#d95f0e;opacity:0.5;"/>
   </g>
   <g id="patch_5">
    <path clip-path="url(#p671a36025c)" d="M 63.511687 288.430125 
L 68.727021 288.430125 
L 68.727021 282.670125 
L 63.511687 282.670125 
z
" style="fill:#d95f0e;opacity:0.5;"/>
   </g>
   <g id="patch_6">
    <path clip-path="url(#p671a36025c)" d="M 70.030855 288.430125 
L 75.246189 288.430125 
L 75.246189 288.430125 
L 70.030855 288.430125 
z
" style="fill:#d95f0e;opacity:0.5;"/>
   </g>
   <g id="patch_7">
    <path clip-path="url(#p671a36025c)" d="M 76.550023 288.430125 
L 81.765357 288.430125 
L 81.765357 282.670125 
L 76.550023 282.670125 
z
" style="fill:#d95f0e;opacity:0.5;"/>
   </g>
   <g id="patch_8">
    <path clip-path="url(#p671a36025c)" d="M 83.06919 288.430125 
L 88.284524 288.430125 
L 88.284524 276.910125 
L 83.06919 276.910125 
z
" style="fill:#d95f0e;opacity:0.5;"/>
   </g>
   <g id="patch_9">
    <path clip-path="url(#p671a36025c)" d="M 89.588358 288.430125 
L 94.803692 288.430125 
L 94.803692 282.670125 
L 89.588358 282.670125 
z
" style="fill:#d95f0e;opacity:0.5;"/>
   </g>
   <g id="patch_10">
    <path clip-path="url(#p671a36025c)" d="M 96.107525 288.430125 
L 101.322859 288.430125 
L 101.322859 282.670125 
L 96.107525 282.670125 
z
" style="fill:#d95f0e;opacity:0.5;"/>
   </g>
   <g id="patch_11">
    <path clip-path="url(#p671a36025c)" d="M 102.626693 288.430125 
L 107.842027 288.430125 
L 107.842027 276.910125 
L 102.626693 276.910125 
z
" style="fill:#d95f0e;opacity:0.5;"/>
   </g>
   <g id="patch_12">
    <path clip-path="url(#p671a36025c)" d="M 109.14586 288.430125 
L 114.361195 288.430125 
L 114.361195 225.070125 
L 109.14586 225.070125 
z
" style="fill:#d95f0e;opacity:0.5;"/>
   </g>
   <g id="patch_13">
    <path clip-path="url(#p671a36025c)" d="M 115.665028 288.430125 
L 120.880362 288.430125 
L 120.880362 253.870125 
L 115.665028 253.870125 
z
" style="fill:#d95f0e;opacity:0.5;"/>
   </g>
   <g id="patch_14">
    <path clip-path="url(#p671a36025c)" d="M 122.184196 288.430125 
L 127.39953 288.430125 
L 127.39953 259.630125 
L 122.184196 259.630125 
z
" style="fill:#d95f0e;opacity:0.5;"/>
   </g>
   <g id="patch_15">
    <path clip-path="url(#p671a36025c)" d="M 128.703363 288.430125 
L 133.918697 288.430125 
L 133.918697 259.630125 
L 128.703363 259.630125 
z
" style="fill:#d95f0e;opacity:0.5;"/>
   </g>
   <g id="patch_16">
    <path clip-path="url(#p671a36025c)" d="M 135.222531 288.430125 
L 140.437865 288.430125 
L 140.437865 196.270125 
L 135.222531 196.270125 
z
" style="fill:#d95f0e;opacity:0.5;"/>
   </g>
   <g id="patch_17">
    <path clip-path="url(#p671a36025c)" d="M 141.741698 288.430125 
L 146.957032 288.430125 
L 146.957032 248.110125 
L 141.741698 248.110125 
z
" style="fill:#d95f0e;opacity:0.5;"/>
   </g>
   <g id="patch_18">
    <path clip-path="url(#p671a36025c)" d="M 148.260866 288.430125 
L 153.4762 288.430125 
L 153.4762 115.630125 
L 148.260866 115.630125 
z
" style="fill:#d95f0e;opacity:0.5;"/>
   </g>
   <g id="patch_19">
    <path clip-path="url(#p671a36025c)" d="M 154.780034 288.430125 
L 159.995368 288.430125 
L 159.995368 225.070125 
L 154.780034 225.070125 
z
" style="fill:#d95f0e;opacity:0.5;"/>
   </g>
   <g id="patch_20">
    <path clip-path="url(#p671a36025c)" d="M 161.299201 288.430125 
L 166.514535 288.430125 
L 166.514535 34.990125 
L 161.299201 34.990125 
z
" style="fill:#d95f0e;opacity:0.5;"/>
   </g>
   <g id="patch_21">
    <path clip-path="url(#p671a36025c)" d="M 167.818369 288.430125 
L 173.033703 288.430125 
L 173.033703 184.750125 
L 167.818369 184.750125 
z
" style="fill:#d95f0e;opacity:0.5;"/>
   </g>
   <g id="patch_22">
    <path clip-path="url(#p671a36025c)" d="M 174.337536 288.430125 
L 179.55287 288.430125 
L 179.55287 207.790125 
L 174.337536 207.790125 
z
" style="fill:#d95f0e;opacity:0.5;"/>
   </g>
   <g id="patch_23">
    <path clip-path="url(#p671a36025c)" d="M 180.856704 288.430125 
L 186.072038 288.430125 
L 186.072038 190.510125 
L 180.856704 190.510125 
z
" style="fill:#d95f0e;opacity:0.5;"/>
   </g>
   <g id="patch_24">
    <path clip-path="url(#p671a36025c)" d="M 187.375871 288.430125 
L 192.591206 288.430125 
L 192.591206 196.270125 
L 187.375871 196.270125 
z
" style="fill:#d95f0e;opacity:0.5;"/>
   </g>
   <g id="patch_25">
    <path clip-path="url(#p671a36025c)" d="M 193.895039 288.430125 
L 199.110373 288.430125 
L 199.110373 167.470125 
L 193.895039 167.470125 
z
" style="fill:#d95f0e;opacity:0.5;"/>
   </g>
   <g id="patch_26">
    <path clip-path="url(#p671a36025c)" d="M 200.414207 288.430125 
L 205.629541 288.430125 
L 205.629541 127.150125 
L 200.414207 127.150125 
z
" style="fill:#d95f0e;opacity:0.5;"/>
   </g>
   <g id="patch_27">
    <path clip-path="url(#p671a36025c)" d="M 206.933374 288.430125 
L 212.148708 288.430125 
L 212.148708 184.750125 
L 206.933374 184.750125 
z
" style="fill:#d95f0e;opacity:0.5;"/>
   </g>
   <g id="patch_28">
    <path clip-path="url(#p671a36025c)" d="M 213.452542 288.430125 
L 218.667876 288.430125 
L 218.667876 161.710125 
L 213.452542 161.710125 
z
" style="fill:#d95f0e;opacity:0.5;"/>
   </g>
   <g id="patch_29">
    <path clip-path="url(#p671a36025c)" d="M 219.971709 288.430125 
L 225.187043 288.430125 
L 225.187043 144.430125 
L 219.971709 144.430125 
z
" style="fill:#d95f0e;opacity:0.5;"/>
   </g>
   <g id="patch_30">
    <path clip-path="url(#p671a36025c)" d="M 226.490877 288.430125 
L 231.706211 288.430125 
L 231.706211 40.750125 
L 226.490877 40.750125 
z
" style="fill:#d95f0e;opacity:0.5;"/>
   </g>
   <g id="patch_31">
    <path clip-path="url(#p671a36025c)" d="M 233.010044 288.430125 
L 238.225379 288.430125 
L 238.225379 150.190125 
L 233.010044 150.190125 
z
" style="fill:#d95f0e;opacity:0.5;"/>
   </g>
   <g id="patch_32">
    <path clip-path="url(#p671a36025c)" d="M 239.529212 288.430125 
L 244.744546 288.430125 
L 244.744546 150.190125 
L 239.529212 150.190125 
z
" style="fill:#d95f0e;opacity:0.5;"/>
   </g>
   <g id="patch_33">
    <path clip-path="url(#p671a36025c)" d="M 246.04838 288.430125 
L 251.263714 288.430125 
L 251.263714 213.550125 
L 246.04838 213.550125 
z
" style="fill:#d95f0e;opacity:0.5;"/>
   </g>
   <g id="patch_34">
    <path clip-path="url(#p671a36025c)" d="M 252.567547 288.430125 
L 257.782881 288.430125 
L 257.782881 178.990125 
L 252.567547 178.990125 
z
" style="fill:#d95f0e;opacity:0.5;"/>
   </g>
   <g id="patch_35">
    <path clip-path="url(#p671a36025c)" d="M 259.086715 288.430125 
L 264.302049 288.430125 
L 264.302049 213.550125 
L 259.086715 213.550125 
z
" style="fill:#d95f0e;opacity:0.5;"/>
   </g>
   <g id="patch_36">
    <path clip-path="url(#p671a36025c)" d="M 265.605882 288.430125 
L 270.821216 288.430125 
L 270.821216 219.310125 
L 265.605882 219.310125 
z
" style="fill:#d95f0e;opacity:0.5;"/>
   </g>
   <g id="patch_37">
    <path clip-path="url(#p671a36025c)" d="M 272.12505 288.430125 
L 277.340384 288.430125 
L 277.340384 190.510125 
L 272.12505 190.510125 
z
" style="fill:#d95f0e;opacity:0.5;"/>
   </g>
   <g id="patch_38">
    <path clip-path="url(#p671a36025c)" d="M 278.644218 288.430125 
L 283.859552 288.430125 
L 283.859552 196.270125 
L 278.644218 196.270125 
z
" style="fill:#d95f0e;opacity:0.5;"/>
   </g>
   <g id="patch_39">
    <path clip-path="url(#p671a36025c)" d="M 285.163385 288.430125 
L 290.378719 288.430125 
L 290.378719 236.590125 
L 285.163385 236.590125 
z
" style="fill:#d95f0e;opacity:0.5;"/>
   </g>
   <g id="patch_40">
    <path clip-path="url(#p671a36025c)" d="M 291.682553 288.430125 
L 296.897887 288.430125 
L 296.897887 253.870125 
L 291.682553 253.870125 
z
" style="fill:#d95f0e;opacity:0.5;"/>
   </g>
   <g id="patch_41">
    <path clip-path="url(#p671a36025c)" d="M 298.20172 288.430125 
L 303.417054 288.430125 
L 303.417054 225.070125 
L 298.20172 225.070125 
z
" style="fill:#d95f0e;opacity:0.5;"/>
   </g>
   <g id="patch_42">
    <path clip-path="url(#p671a36025c)" d="M 304.720888 288.430125 
L 309.936222 288.430125 
L 309.936222 265.390125 
L 304.720888 265.390125 
z
" style="fill:#d95f0e;opacity:0.5;"/>
   </g>
   <g id="patch_43">
    <path clip-path="url(#p671a36025c)" d="M 311.240055 288.430125 
L 316.45539 288.430125 
L 316.45539 230.830125 
L 311.240055 230.830125 
z
" style="fill:#d95f0e;opacity:0.5;"/>
   </g>
   <g id="patch_44">
    <path clip-path="url(#p671a36025c)" d="M 317.759223 288.430125 
L 322.974557 288.430125 
L 322.974557 276.910125 
L 317.759223 276.910125 
z
" style="fill:#d95f0e;opacity:0.5;"/>
   </g>
   <g id="patch_45">
    <path clip-path="url(#p671a36025c)" d="M 324.278391 288.430125 
L 329.493725 288.430125 
L 329.493725 282.670125 
L 324.278391 282.670125 
z
" style="fill:#d95f0e;opacity:0.5;"/>
   </g>
   <g id="patch_46">
    <path clip-path="url(#p671a36025c)" d="M 330.797558 288.430125 
L 336.012892 288.430125 
L 336.012892 276.910125 
L 330.797558 276.910125 
z
" style="fill:#d95f0e;opacity:0.5;"/>
   </g>
   <g id="patch_47">
    <path clip-path="url(#p671a36025c)" d="M 337.316726 288.430125 
L 342.53206 288.430125 
L 342.53206 282.670125 
L 337.316726 282.670125 
z
" style="fill:#d95f0e;opacity:0.5;"/>
   </g>
   <g id="patch_48">
    <path clip-path="url(#p671a36025c)" d="M 343.835893 288.430125 
L 349.051227 288.430125 
L 349.051227 265.390125 
L 343.835893 265.390125 
z
" style="fill:#d95f0e;opacity:0.5;"/>
   </g>
   <g id="patch_49">
    <path clip-path="url(#p671a36025c)" d="M 350.355061 288.430125 
L 355.570395 288.430125 
L 355.570395 276.910125 
L 350.355061 276.910125 
z
" style="fill:#d95f0e;opacity:0.5;"/>
   </g>
   <g id="patch_50">
    <path clip-path="url(#p671a36025c)" d="M 356.874229 288.430125 
L 362.089563 288.430125 
L 362.089563 282.670125 
L 356.874229 282.670125 
z
" style="fill:#d95f0e;opacity:0.5;"/>
   </g>
   <g id="patch_51">
    <path clip-path="url(#p671a36025c)" d="M 363.393396 288.430125 
L 368.60873 288.430125 
L 368.60873 282.670125 
L 363.393396 282.670125 
z
" style="fill:#d95f0e;opacity:0.5;"/>
   </g>
   <g id="patch_52">
    <path clip-path="url(#p671a36025c)" d="M 369.912564 288.430125 
L 375.127898 288.430125 
L 375.127898 282.670125 
L 369.912564 282.670125 
z
" style="fill:#d95f0e;opacity:0.5;"/>
   </g>
   <g id="patch_53">
    <path clip-path="url(#p671a36025c)" d="M 70.020631 288.430125 
L 75.235965 288.430125 
L 75.235965 230.830125 
L 70.020631 230.830125 
z
" style="fill:#43a2ca;opacity:0.8;"/>
   </g>
   <g id="patch_54">
    <path clip-path="url(#p671a36025c)" d="M 74.880422 288.430125 
L 80.095756 288.430125 
L 80.095756 230.830125 
L 74.880422 230.830125 
z
" style="fill:#43a2ca;opacity:0.8;"/>
   </g>
   <g id="patch_55">
    <path clip-path="url(#p671a36025c)" d="M 79.740213 288.430125 
L 84.955547 288.430125 
L 84.955547 230.830125 
L 79.740213 230.830125 
z
" style="fill:#43a2ca;opacity:0.8;"/>
   </g>
   <g id="patch_56">
    <path clip-path="url(#p671a36025c)" d="M 84.600004 288.430125 
L 89.815338 288.430125 
L 89.815338 230.830125 
L 84.600004 230.830125 
z
" style="fill:#43a2ca;opacity:0.8;"/>
   </g>
   <g id="patch_57">
    <path clip-path="url(#p671a36025c)" d="M 89.459795 288.430125 
L 94.675129 288.430125 
L 94.675129 288.430125 
L 89.459795 288.430125 
z
" style="fill:#43a2ca;opacity:0.8;"/>
   </g>
   <g id="patch_58">
    <path clip-path="url(#p671a36025c)" d="M 94.319586 288.430125 
L 99.53492 288.430125 
L 99.53492 115.630125 
L 94.319586 115.630125 
z
" style="fill:#43a2ca;opacity:0.8;"/>
   </g>
   <g id="patch_59">
    <path clip-path="url(#p671a36025c)" d="M 99.179377 288.430125 
L 104.394711 288.430125 
L 104.394711 173.230125 
L 99.179377 173.230125 
z
" style="fill:#43a2ca;opacity:0.8;"/>
   </g>
   <g id="patch_60">
    <path clip-path="url(#p671a36025c)" d="M 104.039168 288.430125 
L 109.254502 288.430125 
L 109.254502 288.430125 
L 104.039168 288.430125 
z
" style="fill:#43a2ca;opacity:0.8;"/>
   </g>
   <g id="patch_61">
    <path clip-path="url(#p671a36025c)" d="M 108.898959 288.430125 
L 114.114293 288.430125 
L 114.114293 288.430125 
L 108.898959 288.430125 
z
" style="fill:#43a2ca;opacity:0.8;"/>
   </g>
   <g id="patch_62">
    <path clip-path="url(#p671a36025c)" d="M 113.75875 288.430125 
L 118.974084 288.430125 
L 118.974084 230.830125 
L 113.75875 230.830125 
z
" style="fill:#43a2ca;opacity:0.8;"/>
   </g>
   <g id="patch_63">
    <path clip-path="url(#p671a36025c)" d="M 118.618541 288.430125 
L 123.833876 288.430125 
L 123.833876 173.230125 
L 118.618541 173.230125 
z
" style="fill:#43a2ca;opacity:0.8;"/>
   </g>
   <g id="patch_64">
    <path clip-path="url(#p671a36025c)" d="M 123.478333 288.430125 
L 128.693667 288.430125 
L 128.693667 173.230125 
L 123.478333 173.230125 
z
" style="fill:#43a2ca;opacity:0.8;"/>
   </g>
   <g id="patch_65">
    <path clip-path="url(#p671a36025c)" d="M 128.338124 288.430125 
L 133.553458 288.430125 
L 133.553458 173.230125 
L 128.338124 173.230125 
z
" style="fill:#43a2ca;opacity:0.8;"/>
   </g>
   <g id="patch_66">
    <path clip-path="url(#p671a36025c)" d="M 133.197915 288.430125 
L 138.413249 288.430125 
L 138.413249 173.230125 
L 133.197915 173.230125 
z
" style="fill:#43a2ca;opacity:0.8;"/>
   </g>
   <g id="patch_67">
    <path clip-path="url(#p671a36025c)" d="M 138.057706 288.430125 
L 143.27304 288.430125 
L 143.27304 230.830125 
L 138.057706 230.830125 
z
" style="fill:#43a2ca;opacity:0.8;"/>
   </g>
   <g id="patch_68">
    <path clip-path="url(#p671a36025c)" d="M 142.917497 288.430125 
L 148.132831 288.430125 
L 148.132831 58.030125 
L 142.917497 58.030125 
z
" style="fill:#43a2ca;opacity:0.8;"/>
   </g>
   <g id="patch_69">
    <path clip-path="url(#p671a36025c)" d="M 147.777288 288.430125 
L 152.992622 288.430125 
L 152.992622 288.430125 
L 147.777288 288.430125 
z
" style="fill:#43a2ca;opacity:0.8;"/>
   </g>
   <g id="patch_70">
    <path clip-path="url(#p671a36025c)" d="M 152.637079 288.430125 
L 157.852413 288.430125 
L 157.852413 230.830125 
L 152.637079 230.830125 
z
" style="fill:#43a2ca;opacity:0.8;"/>
   </g>
   <g id="patch_71">
    <path clip-path="url(#p671a36025c)" d="M 157.49687 288.430125 
L 162.712204 288.430125 
L 162.712204 173.230125 
L 157.49687 173.230125 
z
" style="fill:#43a2ca;opacity:0.8;"/>
   </g>
   <g id="patch_72">
    <path clip-path="url(#p671a36025c)" d="M 162.356661 288.430125 
L 167.571995 288.430125 
L 167.571995 58.030125 
L 162.356661 58.030125 
z
" style="fill:#43a2ca;opacity:0.8;"/>
   </g>
   <g id="patch_73">
    <path clip-path="url(#p671a36025c)" d="M 167.216452 288.430125 
L 172.431786 288.430125 
L 172.431786 173.230125 
L 167.216452 173.230125 
z
" style="fill:#43a2ca;opacity:0.8;"/>
   </g>
   <g id="patch_74">
    <path clip-path="url(#p671a36025c)" d="M 172.076243 288.430125 
L 177.291578 288.430125 
L 177.291578 230.830125 
L 172.076243 230.830125 
z
" style="fill:#43a2ca;opacity:0.8;"/>
   </g>
   <g id="patch_75">
    <path clip-path="url(#p671a36025c)" d="M 176.936035 288.430125 
L 182.151369 288.430125 
L 182.151369 288.430125 
L 176.936035 288.430125 
z
" style="fill:#43a2ca;opacity:0.8;"/>
   </g>
   <g id="patch_76">
    <path clip-path="url(#p671a36025c)" d="M 181.795826 288.430125 
L 187.01116 288.430125 
L 187.01116 173.230125 
L 181.795826 173.230125 
z
" style="fill:#43a2ca;opacity:0.8;"/>
   </g>
   <g id="patch_77">
    <path clip-path="url(#p671a36025c)" d="M 186.655617 288.430125 
L 191.870951 288.430125 
L 191.870951 173.230125 
L 186.655617 173.230125 
z
" style="fill:#43a2ca;opacity:0.8;"/>
   </g>
   <g id="patch_78">
    <path clip-path="url(#p671a36025c)" d="M 191.515408 288.430125 
L 196.730742 288.430125 
L 196.730742 230.830125 
L 191.515408 230.830125 
z
" style="fill:#43a2ca;opacity:0.8;"/>
   </g>
   <g id="patch_79">
    <path clip-path="url(#p671a36025c)" d="M 196.375199 288.430125 
L 201.590533 288.430125 
L 201.590533 288.430125 
L 196.375199 288.430125 
z
" style="fill:#43a2ca;opacity:0.8;"/>
   </g>
   <g id="patch_80">
    <path clip-path="url(#p671a36025c)" d="M 201.23499 288.430125 
L 206.450324 288.430125 
L 206.450324 173.230125 
L 201.23499 173.230125 
z
" style="fill:#43a2ca;opacity:0.8;"/>
   </g>
   <g id="patch_81">
    <path clip-path="url(#p671a36025c)" d="M 206.094781 288.430125 
L 211.310115 288.430125 
L 211.310115 230.830125 
L 206.094781 230.830125 
z
" style="fill:#43a2ca;opacity:0.8;"/>
   </g>
   <g id="patch_82">
    <path clip-path="url(#p671a36025c)" d="M 210.954572 288.430125 
L 216.169906 288.430125 
L 216.169906 115.630125 
L 210.954572 115.630125 
z
" style="fill:#43a2ca;opacity:0.8;"/>
   </g>
   <g id="patch_83">
    <path clip-path="url(#p671a36025c)" d="M 215.814363 288.430125 
L 221.029697 288.430125 
L 221.029697 288.430125 
L 215.814363 288.430125 
z
" style="fill:#43a2ca;opacity:0.8;"/>
   </g>
   <g id="patch_84">
    <path clip-path="url(#p671a36025c)" d="M 220.674154 288.430125 
L 225.889488 288.430125 
L 225.889488 230.830125 
L 220.674154 230.830125 
z
" style="fill:#43a2ca;opacity:0.8;"/>
   </g>
   <g id="patch_85">
    <path clip-path="url(#p671a36025c)" d="M 225.533945 288.430125 
L 230.74928 288.430125 
L 230.74928 173.230125 
L 225.533945 173.230125 
z
" style="fill:#43a2ca;opacity:0.8;"/>
   </g>
   <g id="patch_86">
    <path clip-path="url(#p671a36025c)" d="M 230.393737 288.430125 
L 235.609071 288.430125 
L 235.609071 115.630125 
L 230.393737 115.630125 
z
" style="fill:#43a2ca;opacity:0.8;"/>
   </g>
   <g id="patch_87">
    <path clip-path="url(#p671a36025c)" d="M 235.253528 288.430125 
L 240.468862 288.430125 
L 240.468862 288.430125 
L 235.253528 288.430125 
z
" style="fill:#43a2ca;opacity:0.8;"/>
   </g>
   <g id="patch_88">
    <path clip-path="url(#p671a36025c)" d="M 240.113319 288.430125 
L 245.328653 288.430125 
L 245.328653 230.830125 
L 240.113319 230.830125 
z
" style="fill:#43a2ca;opacity:0.8;"/>
   </g>
   <g id="patch_89">
    <path clip-path="url(#p671a36025c)" d="M 244.97311 288.430125 
L 250.188444 288.430125 
L 250.188444 288.430125 
L 244.97311 288.430125 
z
" style="fill:#43a2ca;opacity:0.8;"/>
   </g>
   <g id="patch_90">
    <path clip-path="url(#p671a36025c)" d="M 249.832901 288.430125 
L 255.048235 288.430125 
L 255.048235 230.830125 
L 249.832901 230.830125 
z
" style="fill:#43a2ca;opacity:0.8;"/>
   </g>
   <g id="patch_91">
    <path clip-path="url(#p671a36025c)" d="M 254.692692 288.430125 
L 259.908026 288.430125 
L 259.908026 288.430125 
L 254.692692 288.430125 
z
" style="fill:#43a2ca;opacity:0.8;"/>
   </g>
   <g id="patch_92">
    <path clip-path="url(#p671a36025c)" d="M 259.552483 288.430125 
L 264.767817 288.430125 
L 264.767817 288.430125 
L 259.552483 288.430125 
z
" style="fill:#43a2ca;opacity:0.8;"/>
   </g>
   <g id="patch_93">
    <path clip-path="url(#p671a36025c)" d="M 264.412274 288.430125 
L 269.627608 288.430125 
L 269.627608 230.830125 
L 264.412274 230.830125 
z
" style="fill:#43a2ca;opacity:0.8;"/>
   </g>
   <g id="patch_94">
    <path clip-path="url(#p671a36025c)" d="M 269.272065 288.430125 
L 274.487399 288.430125 
L 274.487399 288.430125 
L 269.272065 288.430125 
z
" style="fill:#43a2ca;opacity:0.8;"/>
   </g>
   <g id="patch_95">
    <path clip-path="url(#p671a36025c)" d="M 274.131856 288.430125 
L 279.34719 288.430125 
L 279.34719 288.430125 
L 274.131856 288.430125 
z
" style="fill:#43a2ca;opacity:0.8;"/>
   </g>
   <g id="patch_96">
    <path clip-path="url(#p671a36025c)" d="M 278.991647 288.430125 
L 284.206982 288.430125 
L 284.206982 230.830125 
L 278.991647 230.830125 
z
" style="fill:#43a2ca;opacity:0.8;"/>
   </g>
   <g id="patch_97">
    <path clip-path="url(#p671a36025c)" d="M 283.851439 288.430125 
L 289.066773 288.430125 
L 289.066773 288.430125 
L 283.851439 288.430125 
z
" style="fill:#43a2ca;opacity:0.8;"/>
   </g>
   <g id="patch_98">
    <path clip-path="url(#p671a36025c)" d="M 288.71123 288.430125 
L 293.926564 288.430125 
L 293.926564 288.430125 
L 288.71123 288.430125 
z
" style="fill:#43a2ca;opacity:0.8;"/>
   </g>
   <g id="patch_99">
    <path clip-path="url(#p671a36025c)" d="M 293.571021 288.430125 
L 298.786355 288.430125 
L 298.786355 288.430125 
L 293.571021 288.430125 
z
" style="fill:#43a2ca;opacity:0.8;"/>
   </g>
   <g id="patch_100">
    <path clip-path="url(#p671a36025c)" d="M 298.430812 288.430125 
L 303.646146 288.430125 
L 303.646146 288.430125 
L 298.430812 288.430125 
z
" style="fill:#43a2ca;opacity:0.8;"/>
   </g>
   <g id="patch_101">
    <path clip-path="url(#p671a36025c)" d="M 303.290603 288.430125 
L 308.505937 288.430125 
L 308.505937 288.430125 
L 303.290603 288.430125 
z
" style="fill:#43a2ca;opacity:0.8;"/>
   </g>
   <g id="patch_102">
    <path clip-path="url(#p671a36025c)" d="M 308.150394 288.430125 
L 313.365728 288.430125 
L 313.365728 173.230125 
L 308.150394 173.230125 
z
" style="fill:#43a2ca;opacity:0.8;"/>
   </g>
   <g id="matplotlib.axis_1">
    <g id="xtick_1">
     <g id="line2d_1">
      <defs>
       <path d="M 0 0 
L 0 3.5 
" id="m2765a9e548" style="stroke:#000000;stroke-width:0.8;"/>
      </defs>
      <g>
       <use style="stroke:#000000;stroke-width:0.8;" x="34.865025" xlink:href="#m2765a9e548" y="288.430125"/>
      </g>
     </g>
     <g id="text_1">
      <!-- −0.4 -->
      <defs>
       <path d="M 10.59375 35.5 
L 73.1875 35.5 
L 73.1875 27.203125 
L 10.59375 27.203125 
z
" id="DejaVuSans-8722"/>
       <path d="M 31.78125 66.40625 
Q 24.171875 66.40625 20.328125 58.90625 
Q 16.5 51.421875 16.5 36.375 
Q 16.5 21.390625 20.328125 13.890625 
Q 24.171875 6.390625 31.78125 6.390625 
Q 39.453125 6.390625 43.28125 13.890625 
Q 47.125 21.390625 47.125 36.375 
Q 47.125 51.421875 43.28125 58.90625 
Q 39.453125 66.40625 31.78125 66.40625 
z
M 31.78125 74.21875 
Q 44.046875 74.21875 50.515625 64.515625 
Q 56.984375 54.828125 56.984375 36.375 
Q 56.984375 17.96875 50.515625 8.265625 
Q 44.046875 -1.421875 31.78125 -1.421875 
Q 19.53125 -1.421875 13.0625 8.265625 
Q 6.59375 17.96875 6.59375 36.375 
Q 6.59375 54.828125 13.0625 64.515625 
Q 19.53125 74.21875 31.78125 74.21875 
z
" id="DejaVuSans-48"/>
       <path d="M 10.6875 12.40625 
L 21 12.40625 
L 21 0 
L 10.6875 0 
z
" id="DejaVuSans-46"/>
       <path d="M 37.796875 64.3125 
L 12.890625 25.390625 
L 37.796875 25.390625 
z
M 35.203125 72.90625 
L 47.609375 72.90625 
L 47.609375 25.390625 
L 58.015625 25.390625 
L 58.015625 17.1875 
L 47.609375 17.1875 
L 47.609375 0 
L 37.796875 0 
L 37.796875 17.1875 
L 4.890625 17.1875 
L 4.890625 26.703125 
z
" id="DejaVuSans-52"/>
      </defs>
      <g transform="translate(22.723619 303.028562)scale(0.1 -0.1)">
       <use xlink:href="#DejaVuSans-8722"/>
       <use x="83.789062" xlink:href="#DejaVuSans-48"/>
       <use x="147.412109" xlink:href="#DejaVuSans-46"/>
       <use x="179.199219" xlink:href="#DejaVuSans-52"/>
      </g>
     </g>
    </g>
    <g id="xtick_2">
     <g id="line2d_2">
      <g>
       <use style="stroke:#000000;stroke-width:0.8;" x="78.681833" xlink:href="#m2765a9e548" y="288.430125"/>
      </g>
     </g>
     <g id="text_2">
      <!-- −0.3 -->
      <defs>
       <path d="M 40.578125 39.3125 
Q 47.65625 37.796875 51.625 33 
Q 55.609375 28.21875 55.609375 21.1875 
Q 55.609375 10.40625 48.1875 4.484375 
Q 40.765625 -1.421875 27.09375 -1.421875 
Q 22.515625 -1.421875 17.65625 -0.515625 
Q 12.796875 0.390625 7.625 2.203125 
L 7.625 11.71875 
Q 11.71875 9.328125 16.59375 8.109375 
Q 21.484375 6.890625 26.8125 6.890625 
Q 36.078125 6.890625 40.9375 10.546875 
Q 45.796875 14.203125 45.796875 21.1875 
Q 45.796875 27.640625 41.28125 31.265625 
Q 36.765625 34.90625 28.71875 34.90625 
L 20.21875 34.90625 
L 20.21875 43.015625 
L 29.109375 43.015625 
Q 36.375 43.015625 40.234375 45.921875 
Q 44.09375 48.828125 44.09375 54.296875 
Q 44.09375 59.90625 40.109375 62.90625 
Q 36.140625 65.921875 28.71875 65.921875 
Q 24.65625 65.921875 20.015625 65.03125 
Q 15.375 64.15625 9.8125 62.3125 
L 9.8125 71.09375 
Q 15.4375 72.65625 20.34375 73.4375 
Q 25.25 74.21875 29.59375 74.21875 
Q 40.828125 74.21875 47.359375 69.109375 
Q 53.90625 64.015625 53.90625 55.328125 
Q 53.90625 49.265625 50.4375 45.09375 
Q 46.96875 40.921875 40.578125 39.3125 
z
" id="DejaVuSans-51"/>
      </defs>
      <g transform="translate(66.540427 303.028562)scale(0.1 -0.1)">
       <use xlink:href="#DejaVuSans-8722"/>
       <use x="83.789062" xlink:href="#DejaVuSans-48"/>
       <use x="147.412109" xlink:href="#DejaVuSans-46"/>
       <use x="179.199219" xlink:href="#DejaVuSans-51"/>
      </g>
     </g>
    </g>
    <g id="xtick_3">
     <g id="line2d_3">
      <g>
       <use style="stroke:#000000;stroke-width:0.8;" x="122.498641" xlink:href="#m2765a9e548" y="288.430125"/>
      </g>
     </g>
     <g id="text_3">
      <!-- −0.2 -->
      <defs>
       <path d="M 19.1875 8.296875 
L 53.609375 8.296875 
L 53.609375 0 
L 7.328125 0 
L 7.328125 8.296875 
Q 12.9375 14.109375 22.625 23.890625 
Q 32.328125 33.6875 34.8125 36.53125 
Q 39.546875 41.84375 41.421875 45.53125 
Q 43.3125 49.21875 43.3125 52.78125 
Q 43.3125 58.59375 39.234375 62.25 
Q 35.15625 65.921875 28.609375 65.921875 
Q 23.96875 65.921875 18.8125 64.3125 
Q 13.671875 62.703125 7.8125 59.421875 
L 7.8125 69.390625 
Q 13.765625 71.78125 18.9375 73 
Q 24.125 74.21875 28.421875 74.21875 
Q 39.75 74.21875 46.484375 68.546875 
Q 53.21875 62.890625 53.21875 53.421875 
Q 53.21875 48.921875 51.53125 44.890625 
Q 49.859375 40.875 45.40625 35.40625 
Q 44.1875 33.984375 37.640625 27.21875 
Q 31.109375 20.453125 19.1875 8.296875 
z
" id="DejaVuSans-50"/>
      </defs>
      <g transform="translate(110.357234 303.028562)scale(0.1 -0.1)">
       <use xlink:href="#DejaVuSans-8722"/>
       <use x="83.789062" xlink:href="#DejaVuSans-48"/>
       <use x="147.412109" xlink:href="#DejaVuSans-46"/>
       <use x="179.199219" xlink:href="#DejaVuSans-50"/>
      </g>
     </g>
    </g>
    <g id="xtick_4">
     <g id="line2d_4">
      <g>
       <use style="stroke:#000000;stroke-width:0.8;" x="166.315448" xlink:href="#m2765a9e548" y="288.430125"/>
      </g>
     </g>
     <g id="text_4">
      <!-- −0.1 -->
      <defs>
       <path d="M 12.40625 8.296875 
L 28.515625 8.296875 
L 28.515625 63.921875 
L 10.984375 60.40625 
L 10.984375 69.390625 
L 28.421875 72.90625 
L 38.28125 72.90625 
L 38.28125 8.296875 
L 54.390625 8.296875 
L 54.390625 0 
L 12.40625 0 
z
" id="DejaVuSans-49"/>
      </defs>
      <g transform="translate(154.174042 303.028562)scale(0.1 -0.1)">
       <use xlink:href="#DejaVuSans-8722"/>
       <use x="83.789062" xlink:href="#DejaVuSans-48"/>
       <use x="147.412109" xlink:href="#DejaVuSans-46"/>
       <use x="179.199219" xlink:href="#DejaVuSans-49"/>
      </g>
     </g>
    </g>
    <g id="xtick_5">
     <g id="line2d_5">
      <g>
       <use style="stroke:#000000;stroke-width:0.8;" x="210.132256" xlink:href="#m2765a9e548" y="288.430125"/>
      </g>
     </g>
     <g id="text_5">
      <!-- 0.0 -->
      <g transform="translate(202.180693 303.028562)scale(0.1 -0.1)">
       <use xlink:href="#DejaVuSans-48"/>
       <use x="63.623047" xlink:href="#DejaVuSans-46"/>
       <use x="95.410156" xlink:href="#DejaVuSans-48"/>
      </g>
     </g>
    </g>
    <g id="xtick_6">
     <g id="line2d_6">
      <g>
       <use style="stroke:#000000;stroke-width:0.8;" x="253.949064" xlink:href="#m2765a9e548" y="288.430125"/>
      </g>
     </g>
     <g id="text_6">
      <!-- 0.1 -->
      <g transform="translate(245.997501 303.028562)scale(0.1 -0.1)">
       <use xlink:href="#DejaVuSans-48"/>
       <use x="63.623047" xlink:href="#DejaVuSans-46"/>
       <use x="95.410156" xlink:href="#DejaVuSans-49"/>
      </g>
     </g>
    </g>
    <g id="xtick_7">
     <g id="line2d_7">
      <g>
       <use style="stroke:#000000;stroke-width:0.8;" x="297.765871" xlink:href="#m2765a9e548" y="288.430125"/>
      </g>
     </g>
     <g id="text_7">
      <!-- 0.2 -->
      <g transform="translate(289.814309 303.028562)scale(0.1 -0.1)">
       <use xlink:href="#DejaVuSans-48"/>
       <use x="63.623047" xlink:href="#DejaVuSans-46"/>
       <use x="95.410156" xlink:href="#DejaVuSans-50"/>
      </g>
     </g>
    </g>
    <g id="xtick_8">
     <g id="line2d_8">
      <g>
       <use style="stroke:#000000;stroke-width:0.8;" x="341.582679" xlink:href="#m2765a9e548" y="288.430125"/>
      </g>
     </g>
     <g id="text_8">
      <!-- 0.3 -->
      <g transform="translate(333.631116 303.028562)scale(0.1 -0.1)">
       <use xlink:href="#DejaVuSans-48"/>
       <use x="63.623047" xlink:href="#DejaVuSans-46"/>
       <use x="95.410156" xlink:href="#DejaVuSans-51"/>
      </g>
     </g>
    </g>
    <g id="xtick_9">
     <g id="line2d_9">
      <g>
       <use style="stroke:#000000;stroke-width:0.8;" x="385.399486" xlink:href="#m2765a9e548" y="288.430125"/>
      </g>
     </g>
     <g id="text_9">
      <!-- 0.4 -->
      <g transform="translate(377.447924 303.028562)scale(0.1 -0.1)">
       <use xlink:href="#DejaVuSans-48"/>
       <use x="63.623047" xlink:href="#DejaVuSans-46"/>
       <use x="95.410156" xlink:href="#DejaVuSans-52"/>
      </g>
     </g>
    </g>
    <g id="text_10">
     <!-- Rho value -->
     <defs>
      <path d="M 44.390625 34.1875 
Q 47.5625 33.109375 50.5625 29.59375 
Q 53.5625 26.078125 56.59375 19.921875 
L 66.609375 0 
L 56 0 
L 46.6875 18.703125 
Q 43.0625 26.03125 39.671875 28.421875 
Q 36.28125 30.8125 30.421875 30.8125 
L 19.671875 30.8125 
L 19.671875 0 
L 9.8125 0 
L 9.8125 72.90625 
L 32.078125 72.90625 
Q 44.578125 72.90625 50.734375 67.671875 
Q 56.890625 62.453125 56.890625 51.90625 
Q 56.890625 45.015625 53.6875 40.46875 
Q 50.484375 35.9375 44.390625 34.1875 
z
M 19.671875 64.796875 
L 19.671875 38.921875 
L 32.078125 38.921875 
Q 39.203125 38.921875 42.84375 42.21875 
Q 46.484375 45.515625 46.484375 51.90625 
Q 46.484375 58.296875 42.84375 61.546875 
Q 39.203125 64.796875 32.078125 64.796875 
z
" id="DejaVuSans-82"/>
      <path d="M 54.890625 33.015625 
L 54.890625 0 
L 45.90625 0 
L 45.90625 32.71875 
Q 45.90625 40.484375 42.875 44.328125 
Q 39.84375 48.1875 33.796875 48.1875 
Q 26.515625 48.1875 22.3125 43.546875 
Q 18.109375 38.921875 18.109375 30.90625 
L 18.109375 0 
L 9.078125 0 
L 9.078125 75.984375 
L 18.109375 75.984375 
L 18.109375 46.1875 
Q 21.34375 51.125 25.703125 53.5625 
Q 30.078125 56 35.796875 56 
Q 45.21875 56 50.046875 50.171875 
Q 54.890625 44.34375 54.890625 33.015625 
z
" id="DejaVuSans-104"/>
      <path d="M 30.609375 48.390625 
Q 23.390625 48.390625 19.1875 42.75 
Q 14.984375 37.109375 14.984375 27.296875 
Q 14.984375 17.484375 19.15625 11.84375 
Q 23.34375 6.203125 30.609375 6.203125 
Q 37.796875 6.203125 41.984375 11.859375 
Q 46.1875 17.53125 46.1875 27.296875 
Q 46.1875 37.015625 41.984375 42.703125 
Q 37.796875 48.390625 30.609375 48.390625 
z
M 30.609375 56 
Q 42.328125 56 49.015625 48.375 
Q 55.71875 40.765625 55.71875 27.296875 
Q 55.71875 13.875 49.015625 6.21875 
Q 42.328125 -1.421875 30.609375 -1.421875 
Q 18.84375 -1.421875 12.171875 6.21875 
Q 5.515625 13.875 5.515625 27.296875 
Q 5.515625 40.765625 12.171875 48.375 
Q 18.84375 56 30.609375 56 
z
" id="DejaVuSans-111"/>
      <path id="DejaVuSans-32"/>
      <path d="M 2.984375 54.6875 
L 12.5 54.6875 
L 29.59375 8.796875 
L 46.6875 54.6875 
L 56.203125 54.6875 
L 35.6875 0 
L 23.484375 0 
z
" id="DejaVuSans-118"/>
      <path d="M 34.28125 27.484375 
Q 23.390625 27.484375 19.1875 25 
Q 14.984375 22.515625 14.984375 16.5 
Q 14.984375 11.71875 18.140625 8.90625 
Q 21.296875 6.109375 26.703125 6.109375 
Q 34.1875 6.109375 38.703125 11.40625 
Q 43.21875 16.703125 43.21875 25.484375 
L 43.21875 27.484375 
z
M 52.203125 31.203125 
L 52.203125 0 
L 43.21875 0 
L 43.21875 8.296875 
Q 40.140625 3.328125 35.546875 0.953125 
Q 30.953125 -1.421875 24.3125 -1.421875 
Q 15.921875 -1.421875 10.953125 3.296875 
Q 6 8.015625 6 15.921875 
Q 6 25.140625 12.171875 29.828125 
Q 18.359375 34.515625 30.609375 34.515625 
L 43.21875 34.515625 
L 43.21875 35.40625 
Q 43.21875 41.609375 39.140625 45 
Q 35.0625 48.390625 27.6875 48.390625 
Q 23 48.390625 18.546875 47.265625 
Q 14.109375 46.140625 10.015625 43.890625 
L 10.015625 52.203125 
Q 14.9375 54.109375 19.578125 55.046875 
Q 24.21875 56 28.609375 56 
Q 40.484375 56 46.34375 49.84375 
Q 52.203125 43.703125 52.203125 31.203125 
z
" id="DejaVuSans-97"/>
      <path d="M 9.421875 75.984375 
L 18.40625 75.984375 
L 18.40625 0 
L 9.421875 0 
z
" id="DejaVuSans-108"/>
      <path d="M 8.5 21.578125 
L 8.5 54.6875 
L 17.484375 54.6875 
L 17.484375 21.921875 
Q 17.484375 14.15625 20.5 10.265625 
Q 23.53125 6.390625 29.59375 6.390625 
Q 36.859375 6.390625 41.078125 11.03125 
Q 45.3125 15.671875 45.3125 23.6875 
L 45.3125 54.6875 
L 54.296875 54.6875 
L 54.296875 0 
L 45.3125 0 
L 45.3125 8.40625 
Q 42.046875 3.421875 37.71875 1 
Q 33.40625 -1.421875 27.6875 -1.421875 
Q 18.265625 -1.421875 13.375 4.4375 
Q 8.5 10.296875 8.5 21.578125 
z
M 31.109375 56 
z
" id="DejaVuSans-117"/>
      <path d="M 56.203125 29.59375 
L 56.203125 25.203125 
L 14.890625 25.203125 
Q 15.484375 15.921875 20.484375 11.0625 
Q 25.484375 6.203125 34.421875 6.203125 
Q 39.59375 6.203125 44.453125 7.46875 
Q 49.3125 8.734375 54.109375 11.28125 
L 54.109375 2.78125 
Q 49.265625 0.734375 44.1875 -0.34375 
Q 39.109375 -1.421875 33.890625 -1.421875 
Q 20.796875 -1.421875 13.15625 6.1875 
Q 5.515625 13.8125 5.515625 26.8125 
Q 5.515625 40.234375 12.765625 48.109375 
Q 20.015625 56 32.328125 56 
Q 43.359375 56 49.78125 48.890625 
Q 56.203125 41.796875 56.203125 29.59375 
z
M 47.21875 32.234375 
Q 47.125 39.59375 43.09375 43.984375 
Q 39.0625 48.390625 32.421875 48.390625 
Q 24.90625 48.390625 20.390625 44.140625 
Q 15.875 39.890625 15.1875 32.171875 
z
" id="DejaVuSans-101"/>
     </defs>
     <g transform="translate(187.851406 316.706687)scale(0.1 -0.1)">
      <use xlink:href="#DejaVuSans-82"/>
      <use x="69.482422" xlink:href="#DejaVuSans-104"/>
      <use x="132.861328" xlink:href="#DejaVuSans-111"/>
      <use x="194.042969" xlink:href="#DejaVuSans-32"/>
      <use x="225.830078" xlink:href="#DejaVuSans-118"/>
      <use x="285.009766" xlink:href="#DejaVuSans-97"/>
      <use x="346.289062" xlink:href="#DejaVuSans-108"/>
      <use x="374.072266" xlink:href="#DejaVuSans-117"/>
      <use x="437.451172" xlink:href="#DejaVuSans-101"/>
     </g>
    </g>
   </g>
   <g id="matplotlib.axis_2">
    <g id="ytick_1">
     <g id="line2d_10">
      <defs>
       <path d="M 0 0 
L -3.5 0 
" id="mc4ede095fc" style="stroke:#000000;stroke-width:0.8;"/>
      </defs>
      <g>
       <use style="stroke:#000000;stroke-width:0.8;" x="34.240625" xlink:href="#mc4ede095fc" y="288.430125"/>
      </g>
     </g>
     <g id="text_11">
      <!-- 0 -->
      <g transform="translate(20.878125 292.229344)scale(0.1 -0.1)">
       <use xlink:href="#DejaVuSans-48"/>
      </g>
     </g>
    </g>
    <g id="ytick_2">
     <g id="line2d_11">
      <g>
       <use style="stroke:#000000;stroke-width:0.8;" x="34.240625" xlink:href="#mc4ede095fc" y="230.830125"/>
      </g>
     </g>
     <g id="text_12">
      <!-- 1 -->
      <g transform="translate(20.878125 234.629344)scale(0.1 -0.1)">
       <use xlink:href="#DejaVuSans-49"/>
      </g>
     </g>
    </g>
    <g id="ytick_3">
     <g id="line2d_12">
      <g>
       <use style="stroke:#000000;stroke-width:0.8;" x="34.240625" xlink:href="#mc4ede095fc" y="173.230125"/>
      </g>
     </g>
     <g id="text_13">
      <!-- 2 -->
      <g transform="translate(20.878125 177.029344)scale(0.1 -0.1)">
       <use xlink:href="#DejaVuSans-50"/>
      </g>
     </g>
    </g>
    <g id="ytick_4">
     <g id="line2d_13">
      <g>
       <use style="stroke:#000000;stroke-width:0.8;" x="34.240625" xlink:href="#mc4ede095fc" y="115.630125"/>
      </g>
     </g>
     <g id="text_14">
      <!-- 3 -->
      <g transform="translate(20.878125 119.429344)scale(0.1 -0.1)">
       <use xlink:href="#DejaVuSans-51"/>
      </g>
     </g>
    </g>
    <g id="ytick_5">
     <g id="line2d_14">
      <g>
       <use style="stroke:#000000;stroke-width:0.8;" x="34.240625" xlink:href="#mc4ede095fc" y="58.030125"/>
      </g>
     </g>
     <g id="text_15">
      <!-- 4 -->
      <g transform="translate(20.878125 61.829344)scale(0.1 -0.1)">
       <use xlink:href="#DejaVuSans-52"/>
      </g>
     </g>
    </g>
    <g id="text_16">
     <!-- Number of bacteria -->
     <defs>
      <path d="M 9.8125 72.90625 
L 23.09375 72.90625 
L 55.421875 11.921875 
L 55.421875 72.90625 
L 64.984375 72.90625 
L 64.984375 0 
L 51.703125 0 
L 19.390625 60.984375 
L 19.390625 0 
L 9.8125 0 
z
" id="DejaVuSans-78"/>
      <path d="M 52 44.1875 
Q 55.375 50.25 60.0625 53.125 
Q 64.75 56 71.09375 56 
Q 79.640625 56 84.28125 50.015625 
Q 88.921875 44.046875 88.921875 33.015625 
L 88.921875 0 
L 79.890625 0 
L 79.890625 32.71875 
Q 79.890625 40.578125 77.09375 44.375 
Q 74.3125 48.1875 68.609375 48.1875 
Q 61.625 48.1875 57.5625 43.546875 
Q 53.515625 38.921875 53.515625 30.90625 
L 53.515625 0 
L 44.484375 0 
L 44.484375 32.71875 
Q 44.484375 40.625 41.703125 44.40625 
Q 38.921875 48.1875 33.109375 48.1875 
Q 26.21875 48.1875 22.15625 43.53125 
Q 18.109375 38.875 18.109375 30.90625 
L 18.109375 0 
L 9.078125 0 
L 9.078125 54.6875 
L 18.109375 54.6875 
L 18.109375 46.1875 
Q 21.1875 51.21875 25.484375 53.609375 
Q 29.78125 56 35.6875 56 
Q 41.65625 56 45.828125 52.96875 
Q 50 49.953125 52 44.1875 
z
" id="DejaVuSans-109"/>
      <path d="M 48.6875 27.296875 
Q 48.6875 37.203125 44.609375 42.84375 
Q 40.53125 48.484375 33.40625 48.484375 
Q 26.265625 48.484375 22.1875 42.84375 
Q 18.109375 37.203125 18.109375 27.296875 
Q 18.109375 17.390625 22.1875 11.75 
Q 26.265625 6.109375 33.40625 6.109375 
Q 40.53125 6.109375 44.609375 11.75 
Q 48.6875 17.390625 48.6875 27.296875 
z
M 18.109375 46.390625 
Q 20.953125 51.265625 25.265625 53.625 
Q 29.59375 56 35.59375 56 
Q 45.5625 56 51.78125 48.09375 
Q 58.015625 40.1875 58.015625 27.296875 
Q 58.015625 14.40625 51.78125 6.484375 
Q 45.5625 -1.421875 35.59375 -1.421875 
Q 29.59375 -1.421875 25.265625 0.953125 
Q 20.953125 3.328125 18.109375 8.203125 
L 18.109375 0 
L 9.078125 0 
L 9.078125 75.984375 
L 18.109375 75.984375 
z
" id="DejaVuSans-98"/>
      <path d="M 41.109375 46.296875 
Q 39.59375 47.171875 37.8125 47.578125 
Q 36.03125 48 33.890625 48 
Q 26.265625 48 22.1875 43.046875 
Q 18.109375 38.09375 18.109375 28.8125 
L 18.109375 0 
L 9.078125 0 
L 9.078125 54.6875 
L 18.109375 54.6875 
L 18.109375 46.1875 
Q 20.953125 51.171875 25.484375 53.578125 
Q 30.03125 56 36.53125 56 
Q 37.453125 56 38.578125 55.875 
Q 39.703125 55.765625 41.0625 55.515625 
z
" id="DejaVuSans-114"/>
      <path d="M 37.109375 75.984375 
L 37.109375 68.5 
L 28.515625 68.5 
Q 23.6875 68.5 21.796875 66.546875 
Q 19.921875 64.59375 19.921875 59.515625 
L 19.921875 54.6875 
L 34.71875 54.6875 
L 34.71875 47.703125 
L 19.921875 47.703125 
L 19.921875 0 
L 10.890625 0 
L 10.890625 47.703125 
L 2.296875 47.703125 
L 2.296875 54.6875 
L 10.890625 54.6875 
L 10.890625 58.5 
Q 10.890625 67.625 15.140625 71.796875 
Q 19.390625 75.984375 28.609375 75.984375 
z
" id="DejaVuSans-102"/>
      <path d="M 48.78125 52.59375 
L 48.78125 44.1875 
Q 44.96875 46.296875 41.140625 47.34375 
Q 37.3125 48.390625 33.40625 48.390625 
Q 24.65625 48.390625 19.8125 42.84375 
Q 14.984375 37.3125 14.984375 27.296875 
Q 14.984375 17.28125 19.8125 11.734375 
Q 24.65625 6.203125 33.40625 6.203125 
Q 37.3125 6.203125 41.140625 7.25 
Q 44.96875 8.296875 48.78125 10.40625 
L 48.78125 2.09375 
Q 45.015625 0.34375 40.984375 -0.53125 
Q 36.96875 -1.421875 32.421875 -1.421875 
Q 20.0625 -1.421875 12.78125 6.34375 
Q 5.515625 14.109375 5.515625 27.296875 
Q 5.515625 40.671875 12.859375 48.328125 
Q 20.21875 56 33.015625 56 
Q 37.15625 56 41.109375 55.140625 
Q 45.0625 54.296875 48.78125 52.59375 
z
" id="DejaVuSans-99"/>
      <path d="M 18.3125 70.21875 
L 18.3125 54.6875 
L 36.8125 54.6875 
L 36.8125 47.703125 
L 18.3125 47.703125 
L 18.3125 18.015625 
Q 18.3125 11.328125 20.140625 9.421875 
Q 21.96875 7.515625 27.59375 7.515625 
L 36.8125 7.515625 
L 36.8125 0 
L 27.59375 0 
Q 17.1875 0 13.234375 3.875 
Q 9.28125 7.765625 9.28125 18.015625 
L 9.28125 47.703125 
L 2.6875 47.703125 
L 2.6875 54.6875 
L 9.28125 54.6875 
L 9.28125 70.21875 
z
" id="DejaVuSans-116"/>
      <path d="M 9.421875 54.6875 
L 18.40625 54.6875 
L 18.40625 0 
L 9.421875 0 
z
M 9.421875 75.984375 
L 18.40625 75.984375 
L 18.40625 64.59375 
L 9.421875 64.59375 
z
" id="DejaVuSans-105"/>
     </defs>
     <g transform="translate(14.798438 203.990531)rotate(-90)scale(0.1 -0.1)">
      <use xlink:href="#DejaVuSans-78"/>
      <use x="74.804688" xlink:href="#DejaVuSans-117"/>
      <use x="138.183594" xlink:href="#DejaVuSans-109"/>
      <use x="235.595703" xlink:href="#DejaVuSans-98"/>
      <use x="299.072266" xlink:href="#DejaVuSans-101"/>
      <use x="360.595703" xlink:href="#DejaVuSans-114"/>
      <use x="401.708984" xlink:href="#DejaVuSans-32"/>
      <use x="433.496094" xlink:href="#DejaVuSans-111"/>
      <use x="494.677734" xlink:href="#DejaVuSans-102"/>
      <use x="529.882812" xlink:href="#DejaVuSans-32"/>
      <use x="561.669922" xlink:href="#DejaVuSans-98"/>
      <use x="625.146484" xlink:href="#DejaVuSans-97"/>
      <use x="686.425781" xlink:href="#DejaVuSans-99"/>
      <use x="741.40625" xlink:href="#DejaVuSans-116"/>
      <use x="780.615234" xlink:href="#DejaVuSans-101"/>
      <use x="842.138672" xlink:href="#DejaVuSans-114"/>
      <use x="883.251953" xlink:href="#DejaVuSans-105"/>
      <use x="911.035156" xlink:href="#DejaVuSans-97"/>
     </g>
    </g>
   </g>
   <g id="patch_103">
    <path d="M 34.240625 288.430125 
L 34.240625 22.318125 
" style="fill:none;stroke:#000000;stroke-linecap:square;stroke-linejoin:miter;stroke-width:0.8;"/>
   </g>
   <g id="patch_104">
    <path d="M 391.360625 288.430125 
L 391.360625 22.318125 
" style="fill:none;stroke:#000000;stroke-linecap:square;stroke-linejoin:miter;stroke-width:0.8;"/>
   </g>
   <g id="patch_105">
    <path d="M 34.240625 288.430125 
L 391.360625 288.430125 
" style="fill:none;stroke:#000000;stroke-linecap:square;stroke-linejoin:miter;stroke-width:0.8;"/>
   </g>
   <g id="patch_106">
    <path d="M 34.240625 22.318125 
L 391.360625 22.318125 
" style="fill:none;stroke:#000000;stroke-linecap:square;stroke-linejoin:miter;stroke-width:0.8;"/>
   </g>
   <g id="text_17">
    <!-- Real tags vs. Mixed tags at child internalize 5 -->
    <defs>
     <path d="M 45.40625 27.984375 
Q 45.40625 37.75 41.375 43.109375 
Q 37.359375 48.484375 30.078125 48.484375 
Q 22.859375 48.484375 18.828125 43.109375 
Q 14.796875 37.75 14.796875 27.984375 
Q 14.796875 18.265625 18.828125 12.890625 
Q 22.859375 7.515625 30.078125 7.515625 
Q 37.359375 7.515625 41.375 12.890625 
Q 45.40625 18.265625 45.40625 27.984375 
z
M 54.390625 6.78125 
Q 54.390625 -7.171875 48.1875 -13.984375 
Q 42 -20.796875 29.203125 -20.796875 
Q 24.46875 -20.796875 20.265625 -20.09375 
Q 16.0625 -19.390625 12.109375 -17.921875 
L 12.109375 -9.1875 
Q 16.0625 -11.328125 19.921875 -12.34375 
Q 23.78125 -13.375 27.78125 -13.375 
Q 36.625 -13.375 41.015625 -8.765625 
Q 45.40625 -4.15625 45.40625 5.171875 
L 45.40625 9.625 
Q 42.625 4.78125 38.28125 2.390625 
Q 33.9375 0 27.875 0 
Q 17.828125 0 11.671875 7.65625 
Q 5.515625 15.328125 5.515625 27.984375 
Q 5.515625 40.671875 11.671875 48.328125 
Q 17.828125 56 27.875 56 
Q 33.9375 56 38.28125 53.609375 
Q 42.625 51.21875 45.40625 46.390625 
L 45.40625 54.6875 
L 54.390625 54.6875 
z
" id="DejaVuSans-103"/>
     <path d="M 44.28125 53.078125 
L 44.28125 44.578125 
Q 40.484375 46.53125 36.375 47.5 
Q 32.28125 48.484375 27.875 48.484375 
Q 21.1875 48.484375 17.84375 46.4375 
Q 14.5 44.390625 14.5 40.28125 
Q 14.5 37.15625 16.890625 35.375 
Q 19.28125 33.59375 26.515625 31.984375 
L 29.59375 31.296875 
Q 39.15625 29.25 43.1875 25.515625 
Q 47.21875 21.78125 47.21875 15.09375 
Q 47.21875 7.46875 41.1875 3.015625 
Q 35.15625 -1.421875 24.609375 -1.421875 
Q 20.21875 -1.421875 15.453125 -0.5625 
Q 10.6875 0.296875 5.421875 2 
L 5.421875 11.28125 
Q 10.40625 8.6875 15.234375 7.390625 
Q 20.0625 6.109375 24.8125 6.109375 
Q 31.15625 6.109375 34.5625 8.28125 
Q 37.984375 10.453125 37.984375 14.40625 
Q 37.984375 18.0625 35.515625 20.015625 
Q 33.0625 21.96875 24.703125 23.78125 
L 21.578125 24.515625 
Q 13.234375 26.265625 9.515625 29.90625 
Q 5.8125 33.546875 5.8125 39.890625 
Q 5.8125 47.609375 11.28125 51.796875 
Q 16.75 56 26.8125 56 
Q 31.78125 56 36.171875 55.265625 
Q 40.578125 54.546875 44.28125 53.078125 
z
" id="DejaVuSans-115"/>
     <path d="M 9.8125 72.90625 
L 24.515625 72.90625 
L 43.109375 23.296875 
L 61.8125 72.90625 
L 76.515625 72.90625 
L 76.515625 0 
L 66.890625 0 
L 66.890625 64.015625 
L 48.09375 14.015625 
L 38.1875 14.015625 
L 19.390625 64.015625 
L 19.390625 0 
L 9.8125 0 
z
" id="DejaVuSans-77"/>
     <path d="M 54.890625 54.6875 
L 35.109375 28.078125 
L 55.90625 0 
L 45.3125 0 
L 29.390625 21.484375 
L 13.484375 0 
L 2.875 0 
L 24.125 28.609375 
L 4.6875 54.6875 
L 15.28125 54.6875 
L 29.78125 35.203125 
L 44.28125 54.6875 
z
" id="DejaVuSans-120"/>
     <path d="M 45.40625 46.390625 
L 45.40625 75.984375 
L 54.390625 75.984375 
L 54.390625 0 
L 45.40625 0 
L 45.40625 8.203125 
Q 42.578125 3.328125 38.25 0.953125 
Q 33.9375 -1.421875 27.875 -1.421875 
Q 17.96875 -1.421875 11.734375 6.484375 
Q 5.515625 14.40625 5.515625 27.296875 
Q 5.515625 40.1875 11.734375 48.09375 
Q 17.96875 56 27.875 56 
Q 33.9375 56 38.25 53.625 
Q 42.578125 51.265625 45.40625 46.390625 
z
M 14.796875 27.296875 
Q 14.796875 17.390625 18.875 11.75 
Q 22.953125 6.109375 30.078125 6.109375 
Q 37.203125 6.109375 41.296875 11.75 
Q 45.40625 17.390625 45.40625 27.296875 
Q 45.40625 37.203125 41.296875 42.84375 
Q 37.203125 48.484375 30.078125 48.484375 
Q 22.953125 48.484375 18.875 42.84375 
Q 14.796875 37.203125 14.796875 27.296875 
z
" id="DejaVuSans-100"/>
     <path d="M 54.890625 33.015625 
L 54.890625 0 
L 45.90625 0 
L 45.90625 32.71875 
Q 45.90625 40.484375 42.875 44.328125 
Q 39.84375 48.1875 33.796875 48.1875 
Q 26.515625 48.1875 22.3125 43.546875 
Q 18.109375 38.921875 18.109375 30.90625 
L 18.109375 0 
L 9.078125 0 
L 9.078125 54.6875 
L 18.109375 54.6875 
L 18.109375 46.1875 
Q 21.34375 51.125 25.703125 53.5625 
Q 30.078125 56 35.796875 56 
Q 45.21875 56 50.046875 50.171875 
Q 54.890625 44.34375 54.890625 33.015625 
z
" id="DejaVuSans-110"/>
     <path d="M 5.515625 54.6875 
L 48.1875 54.6875 
L 48.1875 46.484375 
L 14.40625 7.171875 
L 48.1875 7.171875 
L 48.1875 0 
L 4.296875 0 
L 4.296875 8.203125 
L 38.09375 47.515625 
L 5.515625 47.515625 
z
" id="DejaVuSans-122"/>
     <path d="M 10.796875 72.90625 
L 49.515625 72.90625 
L 49.515625 64.59375 
L 19.828125 64.59375 
L 19.828125 46.734375 
Q 21.96875 47.46875 24.109375 47.828125 
Q 26.265625 48.1875 28.421875 48.1875 
Q 40.625 48.1875 47.75 41.5 
Q 54.890625 34.8125 54.890625 23.390625 
Q 54.890625 11.625 47.5625 5.09375 
Q 40.234375 -1.421875 26.90625 -1.421875 
Q 22.3125 -1.421875 17.546875 -0.640625 
Q 12.796875 0.140625 7.71875 1.703125 
L 7.71875 11.625 
Q 12.109375 9.234375 16.796875 8.0625 
Q 21.484375 6.890625 26.703125 6.890625 
Q 35.15625 6.890625 40.078125 11.328125 
Q 45.015625 15.765625 45.015625 23.390625 
Q 45.015625 31 40.078125 35.4375 
Q 35.15625 39.890625 26.703125 39.890625 
Q 22.75 39.890625 18.8125 39.015625 
Q 14.890625 38.140625 10.796875 36.28125 
z
" id="DejaVuSans-53"/>
    </defs>
    <g transform="translate(76.21625 16.318125)scale(0.12 -0.12)">
     <use xlink:href="#DejaVuSans-82"/>
     <use x="69.419922" xlink:href="#DejaVuSans-101"/>
     <use x="130.943359" xlink:href="#DejaVuSans-97"/>
     <use x="192.222656" xlink:href="#DejaVuSans-108"/>
     <use x="220.005859" xlink:href="#DejaVuSans-32"/>
     <use x="251.792969" xlink:href="#DejaVuSans-116"/>
     <use x="291.001953" xlink:href="#DejaVuSans-97"/>
     <use x="352.28125" xlink:href="#DejaVuSans-103"/>
     <use x="415.757812" xlink:href="#DejaVuSans-115"/>
     <use x="467.857422" xlink:href="#DejaVuSans-32"/>
     <use x="499.644531" xlink:href="#DejaVuSans-118"/>
     <use x="558.824219" xlink:href="#DejaVuSans-115"/>
     <use x="610.923828" xlink:href="#DejaVuSans-46"/>
     <use x="642.710938" xlink:href="#DejaVuSans-32"/>
     <use x="674.498047" xlink:href="#DejaVuSans-77"/>
     <use x="760.777344" xlink:href="#DejaVuSans-105"/>
     <use x="788.560547" xlink:href="#DejaVuSans-120"/>
     <use x="847.693359" xlink:href="#DejaVuSans-101"/>
     <use x="909.216797" xlink:href="#DejaVuSans-100"/>
     <use x="972.693359" xlink:href="#DejaVuSans-32"/>
     <use x="1004.480469" xlink:href="#DejaVuSans-116"/>
     <use x="1043.689453" xlink:href="#DejaVuSans-97"/>
     <use x="1104.96875" xlink:href="#DejaVuSans-103"/>
     <use x="1168.445312" xlink:href="#DejaVuSans-115"/>
     <use x="1220.544922" xlink:href="#DejaVuSans-32"/>
     <use x="1252.332031" xlink:href="#DejaVuSans-97"/>
     <use x="1313.611328" xlink:href="#DejaVuSans-116"/>
     <use x="1352.820312" xlink:href="#DejaVuSans-32"/>
     <use x="1384.607422" xlink:href="#DejaVuSans-99"/>
     <use x="1439.587891" xlink:href="#DejaVuSans-104"/>
     <use x="1502.966797" xlink:href="#DejaVuSans-105"/>
     <use x="1530.75" xlink:href="#DejaVuSans-108"/>
     <use x="1558.533203" xlink:href="#DejaVuSans-100"/>
     <use x="1622.009766" xlink:href="#DejaVuSans-32"/>
     <use x="1653.796875" xlink:href="#DejaVuSans-105"/>
     <use x="1681.580078" xlink:href="#DejaVuSans-110"/>
     <use x="1744.958984" xlink:href="#DejaVuSans-116"/>
     <use x="1784.167969" xlink:href="#DejaVuSans-101"/>
     <use x="1845.691406" xlink:href="#DejaVuSans-114"/>
     <use x="1886.789062" xlink:href="#DejaVuSans-110"/>
     <use x="1950.167969" xlink:href="#DejaVuSans-97"/>
     <use x="2011.447266" xlink:href="#DejaVuSans-108"/>
     <use x="2039.230469" xlink:href="#DejaVuSans-105"/>
     <use x="2067.013672" xlink:href="#DejaVuSans-122"/>
     <use x="2119.503906" xlink:href="#DejaVuSans-101"/>
     <use x="2181.027344" xlink:href="#DejaVuSans-32"/>
     <use x="2212.814453" xlink:href="#DejaVuSans-53"/>
    </g>
   </g>
   <g id="legend_1">
    <g id="patch_107">
     <path d="M 296.641875 59.674375 
L 384.360625 59.674375 
Q 386.360625 59.674375 386.360625 57.674375 
L 386.360625 29.318125 
Q 386.360625 27.318125 384.360625 27.318125 
L 296.641875 27.318125 
Q 294.641875 27.318125 294.641875 29.318125 
L 294.641875 57.674375 
Q 294.641875 59.674375 296.641875 59.674375 
z
" style="fill:#ffffff;opacity:0.8;stroke:#cccccc;stroke-linejoin:miter;"/>
    </g>
    <g id="patch_108">
     <path d="M 298.641875 38.916562 
L 318.641875 38.916562 
L 318.641875 31.916562 
L 298.641875 31.916562 
z
" style="fill:#d95f0e;opacity:0.5;"/>
    </g>
    <g id="text_18">
     <!-- mixed tags -->
     <g transform="translate(326.641875 38.916562)scale(0.1 -0.1)">
      <use xlink:href="#DejaVuSans-109"/>
      <use x="97.412109" xlink:href="#DejaVuSans-105"/>
      <use x="125.195312" xlink:href="#DejaVuSans-120"/>
      <use x="184.328125" xlink:href="#DejaVuSans-101"/>
      <use x="245.851562" xlink:href="#DejaVuSans-100"/>
      <use x="309.328125" xlink:href="#DejaVuSans-32"/>
      <use x="341.115234" xlink:href="#DejaVuSans-116"/>
      <use x="380.324219" xlink:href="#DejaVuSans-97"/>
      <use x="441.603516" xlink:href="#DejaVuSans-103"/>
      <use x="505.080078" xlink:href="#DejaVuSans-115"/>
     </g>
    </g>
    <g id="patch_109">
     <path d="M 298.641875 53.594687 
L 318.641875 53.594687 
L 318.641875 46.594687 
L 298.641875 46.594687 
z
" style="fill:#43a2ca;opacity:0.8;"/>
    </g>
    <g id="text_19">
     <!-- real tags -->
     <g transform="translate(326.641875 53.594687)scale(0.1 -0.1)">
      <use xlink:href="#DejaVuSans-114"/>
      <use x="41.082031" xlink:href="#DejaVuSans-101"/>
      <use x="102.605469" xlink:href="#DejaVuSans-97"/>
      <use x="163.884766" xlink:href="#DejaVuSans-108"/>
      <use x="191.667969" xlink:href="#DejaVuSans-32"/>
      <use x="223.455078" xlink:href="#DejaVuSans-116"/>
      <use x="262.664062" xlink:href="#DejaVuSans-97"/>
      <use x="323.943359" xlink:href="#DejaVuSans-103"/>
      <use x="387.419922" xlink:href="#DejaVuSans-115"/>
     </g>
    </g>
   </g>
  </g>
 </g>
 <defs>
  <clipPath id="p671a36025c">
   <rect height="266.112" width="357.12" x="34.240625" y="22.318125"/>
  </clipPath>
 </defs>
</svg>
