<?xml version="1.0" encoding="utf-8" standalone="no"?>
<!DOCTYPE svg PUBLIC "-//W3C//DTD SVG 1.1//EN"
  "http://www.w3.org/Graphics/SVG/1.1/DTD/svg11.dtd">
<!-- Created with matplotlib (https://matplotlib.org/) -->
<svg height="389.273625pt" version="1.1" viewBox="0 0 474.478125 389.273625" width="474.478125pt" xmlns="http://www.w3.org/2000/svg" xmlns:xlink="http://www.w3.org/1999/xlink">
 <defs>
  <style type="text/css">
*{stroke-linecap:butt;stroke-linejoin:round;}
  </style>
 </defs>
 <g id="figure_1">
  <g id="patch_1">
   <path d="M 0 389.273625 
L 474.478125 389.273625 
L 474.478125 0 
L 0 0 
z
" style="fill:#ffffff;"/>
  </g>
  <g id="axes_1">
   <g id="patch_2">
    <path d="M 20.878125 368.3955 
L 467.278125 368.3955 
L 467.278125 35.7555 
L 20.878125 35.7555 
z
" style="fill:#ffffff;"/>
   </g>
   <g id="PathCollection_1">
    <defs>
     <path d="M 0 3 
C 0.795609 3 1.55874 2.683901 2.12132 2.12132 
C 2.683901 1.55874 3 0.795609 3 0 
C 3 -0.795609 2.683901 -1.55874 2.12132 -2.12132 
C 1.55874 -2.683901 0.795609 -3 0 -3 
C -0.795609 -3 -1.55874 -2.683901 -2.12132 -2.12132 
C -2.683901 -1.55874 -3 -0.795609 -3 0 
C -3 0.795609 -2.683901 1.55874 -2.12132 2.12132 
C -1.55874 2.683901 -0.795609 3 0 3 
z
" id="C0_0_7b59a67f83"/>
    </defs>
    <g clip-path="url(#pd4c5b596e9)">
     <use style="fill:#00bfbf;stroke:#000000;" x="254.165974" xlink:href="#C0_0_7b59a67f83" y="306.007832"/>
    </g>
    <g clip-path="url(#pd4c5b596e9)">
     <use style="fill:#bf00bf;stroke:#000000;" x="184.166378" xlink:href="#C0_0_7b59a67f83" y="329.168784"/>
    </g>
    <g clip-path="url(#pd4c5b596e9)">
     <use style="fill:#00bfbf;stroke:#000000;" x="308.104308" xlink:href="#C0_0_7b59a67f83" y="315.199665"/>
    </g>
    <g clip-path="url(#pd4c5b596e9)">
     <use style="fill:#00bfbf;stroke:#000000;" x="217.505504" xlink:href="#C0_0_7b59a67f83" y="329.406663"/>
    </g>
    <g clip-path="url(#pd4c5b596e9)">
     <use style="fill:#bf00bf;stroke:#000000;" x="179.692535" xlink:href="#C0_0_7b59a67f83" y="327.169936"/>
    </g>
    <g clip-path="url(#pd4c5b596e9)">
     <use style="fill:#00bfbf;stroke:#000000;" x="210.931881" xlink:href="#C0_0_7b59a67f83" y="340.027158"/>
    </g>
    <g clip-path="url(#pd4c5b596e9)">
     <use style="fill:#00bfbf;stroke:#000000;" x="224.712828" xlink:href="#C0_0_7b59a67f83" y="336.775852"/>
    </g>
    <g clip-path="url(#pd4c5b596e9)">
     <use style="fill:#00bfbf;stroke:#000000;" x="138.743073" xlink:href="#C0_0_7b59a67f83" y="333.38824"/>
    </g>
    <g clip-path="url(#pd4c5b596e9)">
     <use style="fill:#bf00bf;stroke:#000000;" x="235.443529" xlink:href="#C0_0_7b59a67f83" y="312.9639"/>
    </g>
    <g clip-path="url(#pd4c5b596e9)">
     <use style="fill:#00bfbf;stroke:#000000;" x="175.175346" xlink:href="#C0_0_7b59a67f83" y="331.5557"/>
    </g>
    <g clip-path="url(#pd4c5b596e9)">
     <use style="fill:#bf00bf;stroke:#000000;" x="203.846231" xlink:href="#C0_0_7b59a67f83" y="334.585822"/>
    </g>
    <g clip-path="url(#pd4c5b596e9)">
     <use style="fill:#bf00bf;stroke:#000000;" x="170.724903" xlink:href="#C0_0_7b59a67f83" y="330.801173"/>
    </g>
    <g clip-path="url(#pd4c5b596e9)">
     <use style="fill:#bf00bf;stroke:#000000;" x="145.320283" xlink:href="#C0_0_7b59a67f83" y="332.806262"/>
    </g>
    <g clip-path="url(#pd4c5b596e9)">
     <use style="fill:#bf00bf;stroke:#000000;" x="267.170272" xlink:href="#C0_0_7b59a67f83" y="319.74175"/>
    </g>
    <g clip-path="url(#pd4c5b596e9)">
     <use style="fill:#00bfbf;stroke:#000000;" x="259.906614" xlink:href="#C0_0_7b59a67f83" y="328.303373"/>
    </g>
    <g clip-path="url(#pd4c5b596e9)">
     <use style="fill:#bf00bf;stroke:#000000;" x="292.306784" xlink:href="#C0_0_7b59a67f83" y="315.09634"/>
    </g>
    <g clip-path="url(#pd4c5b596e9)">
     <use style="fill:#00bfbf;stroke:#000000;" x="211.28373" xlink:href="#C0_0_7b59a67f83" y="309.473523"/>
    </g>
    <g clip-path="url(#pd4c5b596e9)">
     <use style="fill:#bf00bf;stroke:#000000;" x="203.146268" xlink:href="#C0_0_7b59a67f83" y="318.231796"/>
    </g>
    <g clip-path="url(#pd4c5b596e9)">
     <use style="fill:#00bfbf;stroke:#000000;" x="186.782045" xlink:href="#C0_0_7b59a67f83" y="341.129886"/>
    </g>
    <g clip-path="url(#pd4c5b596e9)">
     <use style="fill:#00bfbf;stroke:#000000;" x="109.766281" xlink:href="#C0_0_7b59a67f83" y="339.716891"/>
    </g>
    <g clip-path="url(#pd4c5b596e9)">
     <use style="fill:#00bfbf;stroke:#000000;" x="214.879531" xlink:href="#C0_0_7b59a67f83" y="266.71183"/>
    </g>
    <g clip-path="url(#pd4c5b596e9)">
     <use style="fill:#00bfbf;stroke:#000000;" x="218.466184" xlink:href="#C0_0_7b59a67f83" y="318.629899"/>
    </g>
    <g clip-path="url(#pd4c5b596e9)">
     <use style="fill:#bf00bf;stroke:#000000;" x="236.661114" xlink:href="#C0_0_7b59a67f83" y="324.282453"/>
    </g>
    <g clip-path="url(#pd4c5b596e9)">
     <use style="fill:#00bfbf;stroke:#000000;" x="41.289225" xlink:href="#C0_0_7b59a67f83" y="333.395617"/>
    </g>
    <g clip-path="url(#pd4c5b596e9)">
     <use style="fill:#00bfbf;stroke:#000000;" x="302.273149" xlink:href="#C0_0_7b59a67f83" y="327.033761"/>
    </g>
    <g clip-path="url(#pd4c5b596e9)">
     <use style="fill:#00bfbf;stroke:#000000;" x="152.615706" xlink:href="#C0_0_7b59a67f83" y="316.87683"/>
    </g>
    <g clip-path="url(#pd4c5b596e9)">
     <use style="fill:#00bfbf;stroke:#000000;" x="242.720313" xlink:href="#C0_0_7b59a67f83" y="332.542709"/>
    </g>
    <g clip-path="url(#pd4c5b596e9)">
     <use style="fill:#00bfbf;stroke:#000000;" x="224.954123" xlink:href="#C0_0_7b59a67f83" y="301.389353"/>
    </g>
    <g clip-path="url(#pd4c5b596e9)">
     <use style="fill:#bf00bf;stroke:#000000;" x="136.750741" xlink:href="#C0_0_7b59a67f83" y="332.940573"/>
    </g>
    <g clip-path="url(#pd4c5b596e9)">
     <use style="fill:#bf00bf;stroke:#000000;" x="192.994601" xlink:href="#C0_0_7b59a67f83" y="323.460839"/>
    </g>
    <g clip-path="url(#pd4c5b596e9)">
     <use style="fill:#bf00bf;stroke:#000000;" x="164.944535" xlink:href="#C0_0_7b59a67f83" y="314.132042"/>
    </g>
    <g clip-path="url(#pd4c5b596e9)">
     <use style="fill:#bf00bf;stroke:#000000;" x="173.718044" xlink:href="#C0_0_7b59a67f83" y="340.417873"/>
    </g>
    <g clip-path="url(#pd4c5b596e9)">
     <use style="fill:#00bfbf;stroke:#000000;" x="310.234416" xlink:href="#C0_0_7b59a67f83" y="325.412008"/>
    </g>
    <g clip-path="url(#pd4c5b596e9)">
     <use style="fill:#bf00bf;stroke:#000000;" x="236.360554" xlink:href="#C0_0_7b59a67f83" y="280.191967"/>
    </g>
    <g clip-path="url(#pd4c5b596e9)">
     <use style="fill:#bf00bf;stroke:#000000;" x="141.177681" xlink:href="#C0_0_7b59a67f83" y="339.211416"/>
    </g>
    <g clip-path="url(#pd4c5b596e9)">
     <use style="fill:#00bfbf;stroke:#000000;" x="197.390077" xlink:href="#C0_0_7b59a67f83" y="319.263586"/>
    </g>
    <g clip-path="url(#pd4c5b596e9)">
     <use style="fill:#00bfbf;stroke:#000000;" x="255.562797" xlink:href="#C0_0_7b59a67f83" y="325.634512"/>
    </g>
    <g clip-path="url(#pd4c5b596e9)">
     <use style="fill:#bf00bf;stroke:#000000;" x="115.379337" xlink:href="#C0_0_7b59a67f83" y="326.629984"/>
    </g>
    <g clip-path="url(#pd4c5b596e9)">
     <use style="fill:#00bfbf;stroke:#000000;" x="251.423129" xlink:href="#C0_0_7b59a67f83" y="325.205541"/>
    </g>
    <g clip-path="url(#pd4c5b596e9)">
     <use style="fill:#00bfbf;stroke:#000000;" x="264.611235" xlink:href="#C0_0_7b59a67f83" y="329.095659"/>
    </g>
    <g clip-path="url(#pd4c5b596e9)">
     <use style="fill:#00bfbf;stroke:#000000;" x="423.704938" xlink:href="#C0_0_7b59a67f83" y="329.791534"/>
    </g>
    <g clip-path="url(#pd4c5b596e9)">
     <use style="fill:#00bfbf;stroke:#000000;" x="236.676424" xlink:href="#C0_0_7b59a67f83" y="332.891921"/>
    </g>
    <g clip-path="url(#pd4c5b596e9)">
     <use style="fill:#00bfbf;stroke:#000000;" x="209.510173" xlink:href="#C0_0_7b59a67f83" y="339.904854"/>
    </g>
    <g clip-path="url(#pd4c5b596e9)">
     <use style="fill:#00bfbf;stroke:#000000;" x="386.802439" xlink:href="#C0_0_7b59a67f83" y="309.786217"/>
    </g>
    <g clip-path="url(#pd4c5b596e9)">
     <use style="fill:#00bfbf;stroke:#000000;" x="242.187686" xlink:href="#C0_0_7b59a67f83" y="332.962801"/>
    </g>
    <g clip-path="url(#pd4c5b596e9)">
     <use style="fill:#bf00bf;stroke:#000000;" x="211.111737" xlink:href="#C0_0_7b59a67f83" y="349.167455"/>
    </g>
    <g clip-path="url(#pd4c5b596e9)">
     <use style="fill:#bf00bf;stroke:#000000;" x="193.488212" xlink:href="#C0_0_7b59a67f83" y="326.33594"/>
    </g>
    <g clip-path="url(#pd4c5b596e9)">
     <use style="fill:#bf00bf;stroke:#000000;" x="225.834407" xlink:href="#C0_0_7b59a67f83" y="340.222805"/>
    </g>
    <g clip-path="url(#pd4c5b596e9)">
     <use style="fill:#00bfbf;stroke:#000000;" x="301.515047" xlink:href="#C0_0_7b59a67f83" y="337.845473"/>
    </g>
    <g clip-path="url(#pd4c5b596e9)">
     <use style="fill:#00bfbf;stroke:#000000;" x="222.553292" xlink:href="#C0_0_7b59a67f83" y="320.879598"/>
    </g>
    <g clip-path="url(#pd4c5b596e9)">
     <use style="fill:#00bfbf;stroke:#000000;" x="308.680962" xlink:href="#C0_0_7b59a67f83" y="315.852951"/>
    </g>
    <g clip-path="url(#pd4c5b596e9)">
     <use style="fill:#bf00bf;stroke:#000000;" x="268.742121" xlink:href="#C0_0_7b59a67f83" y="333.867896"/>
    </g>
    <g clip-path="url(#pd4c5b596e9)">
     <use style="fill:#bf00bf;stroke:#000000;" x="109.622534" xlink:href="#C0_0_7b59a67f83" y="297.810973"/>
    </g>
    <g clip-path="url(#pd4c5b596e9)">
     <use style="fill:#bf00bf;stroke:#000000;" x="205.980134" xlink:href="#C0_0_7b59a67f83" y="201.103395"/>
    </g>
    <g clip-path="url(#pd4c5b596e9)">
     <use style="fill:#00bfbf;stroke:#000000;" x="206.383423" xlink:href="#C0_0_7b59a67f83" y="322.311714"/>
    </g>
    <g clip-path="url(#pd4c5b596e9)">
     <use style="fill:#00bfbf;stroke:#000000;" x="280.006787" xlink:href="#C0_0_7b59a67f83" y="320.699243"/>
    </g>
    <g clip-path="url(#pd4c5b596e9)">
     <use style="fill:#bf00bf;stroke:#000000;" x="175.623442" xlink:href="#C0_0_7b59a67f83" y="331.850884"/>
    </g>
    <g clip-path="url(#pd4c5b596e9)">
     <use style="fill:#bf00bf;stroke:#000000;" x="231.091554" xlink:href="#C0_0_7b59a67f83" y="333.390121"/>
    </g>
    <g clip-path="url(#pd4c5b596e9)">
     <use style="fill:#bf00bf;stroke:#000000;" x="276.893169" xlink:href="#C0_0_7b59a67f83" y="343.710811"/>
    </g>
    <g clip-path="url(#pd4c5b596e9)">
     <use style="fill:#bf00bf;stroke:#000000;" x="412.751234" xlink:href="#C0_0_7b59a67f83" y="328.542075"/>
    </g>
    <g clip-path="url(#pd4c5b596e9)">
     <use style="fill:#00bfbf;stroke:#000000;" x="365.94878" xlink:href="#C0_0_7b59a67f83" y="338.714176"/>
    </g>
    <g clip-path="url(#pd4c5b596e9)">
     <use style="fill:#00bfbf;stroke:#000000;" x="175.251225" xlink:href="#C0_0_7b59a67f83" y="332.189845"/>
    </g>
    <g clip-path="url(#pd4c5b596e9)">
     <use style="fill:#00bfbf;stroke:#000000;" x="137.255323" xlink:href="#C0_0_7b59a67f83" y="339.413953"/>
    </g>
    <g clip-path="url(#pd4c5b596e9)">
     <use style="fill:#00bfbf;stroke:#000000;" x="244.631974" xlink:href="#C0_0_7b59a67f83" y="330.995999"/>
    </g>
    <g clip-path="url(#pd4c5b596e9)">
     <use style="fill:#00bfbf;stroke:#000000;" x="220.847226" xlink:href="#C0_0_7b59a67f83" y="330.024133"/>
    </g>
    <g clip-path="url(#pd4c5b596e9)">
     <use style="fill:#00bfbf;stroke:#000000;" x="122.753255" xlink:href="#C0_0_7b59a67f83" y="334.457718"/>
    </g>
    <g clip-path="url(#pd4c5b596e9)">
     <use style="fill:#00bfbf;stroke:#000000;" x="241.973956" xlink:href="#C0_0_7b59a67f83" y="317.79298"/>
    </g>
    <g clip-path="url(#pd4c5b596e9)">
     <use style="fill:#00bfbf;stroke:#000000;" x="184.636963" xlink:href="#C0_0_7b59a67f83" y="315.230095"/>
    </g>
    <g clip-path="url(#pd4c5b596e9)">
     <use style="fill:#bf00bf;stroke:#000000;" x="177.743876" xlink:href="#C0_0_7b59a67f83" y="322.112581"/>
    </g>
    <g clip-path="url(#pd4c5b596e9)">
     <use style="fill:#00bfbf;stroke:#000000;" x="290.005682" xlink:href="#C0_0_7b59a67f83" y="310.352511"/>
    </g>
    <g clip-path="url(#pd4c5b596e9)">
     <use style="fill:#bf00bf;stroke:#000000;" x="146.47444" xlink:href="#C0_0_7b59a67f83" y="317.851844"/>
    </g>
    <g clip-path="url(#pd4c5b596e9)">
     <use style="fill:#00bfbf;stroke:#000000;" x="274.325273" xlink:href="#C0_0_7b59a67f83" y="331.577422"/>
    </g>
    <g clip-path="url(#pd4c5b596e9)">
     <use style="fill:#bf00bf;stroke:#000000;" x="250.123598" xlink:href="#C0_0_7b59a67f83" y="331.254129"/>
    </g>
    <g clip-path="url(#pd4c5b596e9)">
     <use style="fill:#bf00bf;stroke:#000000;" x="316.620946" xlink:href="#C0_0_7b59a67f83" y="322.231566"/>
    </g>
    <g clip-path="url(#pd4c5b596e9)">
     <use style="fill:#bf00bf;stroke:#000000;" x="180.73781" xlink:href="#C0_0_7b59a67f83" y="309.996307"/>
    </g>
    <g clip-path="url(#pd4c5b596e9)">
     <use style="fill:#bf00bf;stroke:#000000;" x="260.06755" xlink:href="#C0_0_7b59a67f83" y="326.303765"/>
    </g>
    <g clip-path="url(#pd4c5b596e9)">
     <use style="fill:#bf00bf;stroke:#000000;" x="235.375175" xlink:href="#C0_0_7b59a67f83" y="353.183345"/>
    </g>
    <g clip-path="url(#pd4c5b596e9)">
     <use style="fill:#00bfbf;stroke:#000000;" x="168.028815" xlink:href="#C0_0_7b59a67f83" y="335.10449"/>
    </g>
    <g clip-path="url(#pd4c5b596e9)">
     <use style="fill:#00bfbf;stroke:#000000;" x="271.755103" xlink:href="#C0_0_7b59a67f83" y="341.335904"/>
    </g>
    <g clip-path="url(#pd4c5b596e9)">
     <use style="fill:#bf00bf;stroke:#000000;" x="305.353824" xlink:href="#C0_0_7b59a67f83" y="264.837039"/>
    </g>
    <g clip-path="url(#pd4c5b596e9)">
     <use style="fill:#00bfbf;stroke:#000000;" x="150.039354" xlink:href="#C0_0_7b59a67f83" y="332.553652"/>
    </g>
    <g clip-path="url(#pd4c5b596e9)">
     <use style="fill:#00bfbf;stroke:#000000;" x="311.305806" xlink:href="#C0_0_7b59a67f83" y="319.296267"/>
    </g>
    <g clip-path="url(#pd4c5b596e9)">
     <use style="fill:#00bfbf;stroke:#000000;" x="260.906647" xlink:href="#C0_0_7b59a67f83" y="315.270409"/>
    </g>
    <g clip-path="url(#pd4c5b596e9)">
     <use style="fill:#00bfbf;stroke:#000000;" x="171.909248" xlink:href="#C0_0_7b59a67f83" y="335.343229"/>
    </g>
    <g clip-path="url(#pd4c5b596e9)">
     <use style="fill:#00bfbf;stroke:#000000;" x="222.220953" xlink:href="#C0_0_7b59a67f83" y="299.040226"/>
    </g>
    <g clip-path="url(#pd4c5b596e9)">
     <use style="fill:#00bfbf;stroke:#000000;" x="231.246353" xlink:href="#C0_0_7b59a67f83" y="327.522171"/>
    </g>
    <g clip-path="url(#pd4c5b596e9)">
     <use style="fill:#bf00bf;stroke:#000000;" x="247.912768" xlink:href="#C0_0_7b59a67f83" y="313.587613"/>
    </g>
    <g clip-path="url(#pd4c5b596e9)">
     <use style="fill:#bf00bf;stroke:#000000;" x="248.69784" xlink:href="#C0_0_7b59a67f83" y="312.116325"/>
    </g>
    <g clip-path="url(#pd4c5b596e9)">
     <use style="fill:#00bfbf;stroke:#000000;" x="315.338549" xlink:href="#C0_0_7b59a67f83" y="293.708274"/>
    </g>
    <g clip-path="url(#pd4c5b596e9)">
     <use style="fill:#00bfbf;stroke:#000000;" x="236.542897" xlink:href="#C0_0_7b59a67f83" y="312.384695"/>
    </g>
    <g clip-path="url(#pd4c5b596e9)">
     <use style="fill:#00bfbf;stroke:#000000;" x="387.947996" xlink:href="#C0_0_7b59a67f83" y="315.427822"/>
    </g>
    <g clip-path="url(#pd4c5b596e9)">
     <use style="fill:#00bfbf;stroke:#000000;" x="213.447375" xlink:href="#C0_0_7b59a67f83" y="305.365537"/>
    </g>
    <g clip-path="url(#pd4c5b596e9)">
     <use style="fill:#00bfbf;stroke:#000000;" x="313.151998" xlink:href="#C0_0_7b59a67f83" y="162.539662"/>
    </g>
    <g clip-path="url(#pd4c5b596e9)">
     <use style="fill:#bf00bf;stroke:#000000;" x="287.674469" xlink:href="#C0_0_7b59a67f83" y="323.691606"/>
    </g>
    <g clip-path="url(#pd4c5b596e9)">
     <use style="fill:#00bfbf;stroke:#000000;" x="341.298902" xlink:href="#C0_0_7b59a67f83" y="339.757232"/>
    </g>
    <g clip-path="url(#pd4c5b596e9)">
     <use style="fill:#00bfbf;stroke:#000000;" x="166.270644" xlink:href="#C0_0_7b59a67f83" y="343.353408"/>
    </g>
    <g clip-path="url(#pd4c5b596e9)">
     <use style="fill:#bf00bf;stroke:#000000;" x="215.011489" xlink:href="#C0_0_7b59a67f83" y="334.746215"/>
    </g>
    <g clip-path="url(#pd4c5b596e9)">
     <use style="fill:#00bfbf;stroke:#000000;" x="180.76" xlink:href="#C0_0_7b59a67f83" y="325.626956"/>
    </g>
    <g clip-path="url(#pd4c5b596e9)">
     <use style="fill:#00bfbf;stroke:#000000;" x="154.220594" xlink:href="#C0_0_7b59a67f83" y="329.743197"/>
    </g>
    <g clip-path="url(#pd4c5b596e9)">
     <use style="fill:#00bfbf;stroke:#000000;" x="268.009952" xlink:href="#C0_0_7b59a67f83" y="332.045628"/>
    </g>
    <g clip-path="url(#pd4c5b596e9)">
     <use style="fill:#00bfbf;stroke:#000000;" x="151.703518" xlink:href="#C0_0_7b59a67f83" y="332.752373"/>
    </g>
    <g clip-path="url(#pd4c5b596e9)">
     <use style="fill:#bf00bf;stroke:#000000;" x="222.469455" xlink:href="#C0_0_7b59a67f83" y="336.653973"/>
    </g>
    <g clip-path="url(#pd4c5b596e9)">
     <use style="fill:#00bfbf;stroke:#000000;" x="188.706812" xlink:href="#C0_0_7b59a67f83" y="329.644649"/>
    </g>
    <g clip-path="url(#pd4c5b596e9)">
     <use style="fill:#00bfbf;stroke:#000000;" x="135.355569" xlink:href="#C0_0_7b59a67f83" y="305.567016"/>
    </g>
    <g clip-path="url(#pd4c5b596e9)">
     <use style="fill:#00bfbf;stroke:#000000;" x="114.205809" xlink:href="#C0_0_7b59a67f83" y="328.483895"/>
    </g>
    <g clip-path="url(#pd4c5b596e9)">
     <use style="fill:#00bfbf;stroke:#000000;" x="166.858819" xlink:href="#C0_0_7b59a67f83" y="327.692553"/>
    </g>
    <g clip-path="url(#pd4c5b596e9)">
     <use style="fill:#00bfbf;stroke:#000000;" x="222.036942" xlink:href="#C0_0_7b59a67f83" y="322.184218"/>
    </g>
    <g clip-path="url(#pd4c5b596e9)">
     <use style="fill:#00bfbf;stroke:#000000;" x="226.823591" xlink:href="#C0_0_7b59a67f83" y="336.614582"/>
    </g>
    <g clip-path="url(#pd4c5b596e9)">
     <use style="fill:#00bfbf;stroke:#000000;" x="186.917482" xlink:href="#C0_0_7b59a67f83" y="329.526672"/>
    </g>
    <g clip-path="url(#pd4c5b596e9)">
     <use style="fill:#00bfbf;stroke:#000000;" x="195.266294" xlink:href="#C0_0_7b59a67f83" y="321.869315"/>
    </g>
    <g clip-path="url(#pd4c5b596e9)">
     <use style="fill:#bf00bf;stroke:#000000;" x="358.258247" xlink:href="#C0_0_7b59a67f83" y="320.526587"/>
    </g>
    <g clip-path="url(#pd4c5b596e9)">
     <use style="fill:#00bfbf;stroke:#000000;" x="128.292621" xlink:href="#C0_0_7b59a67f83" y="209.125498"/>
    </g>
    <g clip-path="url(#pd4c5b596e9)">
     <use style="fill:#bf00bf;stroke:#000000;" x="446.867025" xlink:href="#C0_0_7b59a67f83" y="303.012075"/>
    </g>
    <g clip-path="url(#pd4c5b596e9)">
     <use style="fill:#00bfbf;stroke:#000000;" x="215.129938" xlink:href="#C0_0_7b59a67f83" y="328.418318"/>
    </g>
    <g clip-path="url(#pd4c5b596e9)">
     <use style="fill:#bf00bf;stroke:#000000;" x="311.375867" xlink:href="#C0_0_7b59a67f83" y="311.640174"/>
    </g>
    <g clip-path="url(#pd4c5b596e9)">
     <use style="fill:#00bfbf;stroke:#000000;" x="329.162259" xlink:href="#C0_0_7b59a67f83" y="309.446979"/>
    </g>
    <g clip-path="url(#pd4c5b596e9)">
     <use style="fill:#00bfbf;stroke:#000000;" x="297.816863" xlink:href="#C0_0_7b59a67f83" y="294.809811"/>
    </g>
    <g clip-path="url(#pd4c5b596e9)">
     <use style="fill:#00bfbf;stroke:#000000;" x="250.241223" xlink:href="#C0_0_7b59a67f83" y="293.862081"/>
    </g>
    <g clip-path="url(#pd4c5b596e9)">
     <use style="fill:#00bfbf;stroke:#000000;" x="161.274468" xlink:href="#C0_0_7b59a67f83" y="330.132035"/>
    </g>
    <g clip-path="url(#pd4c5b596e9)">
     <use style="fill:#00bfbf;stroke:#000000;" x="223.0787" xlink:href="#C0_0_7b59a67f83" y="327.162724"/>
    </g>
    <g clip-path="url(#pd4c5b596e9)">
     <use style="fill:#00bfbf;stroke:#000000;" x="126.294234" xlink:href="#C0_0_7b59a67f83" y="50.967655"/>
    </g>
    <g clip-path="url(#pd4c5b596e9)">
     <use style="fill:#00bfbf;stroke:#000000;" x="295.512848" xlink:href="#C0_0_7b59a67f83" y="308.742714"/>
    </g>
   </g>
   <g id="matplotlib.axis_1">
    <g id="text_1">
     <!-- 1st eigenvector -->
     <defs>
      <path d="M 12.40625 8.296875 
L 28.515625 8.296875 
L 28.515625 63.921875 
L 10.984375 60.40625 
L 10.984375 69.390625 
L 28.421875 72.90625 
L 38.28125 72.90625 
L 38.28125 8.296875 
L 54.390625 8.296875 
L 54.390625 0 
L 12.40625 0 
z
" id="DejaVuSans-49"/>
      <path d="M 44.28125 53.078125 
L 44.28125 44.578125 
Q 40.484375 46.53125 36.375 47.5 
Q 32.28125 48.484375 27.875 48.484375 
Q 21.1875 48.484375 17.84375 46.4375 
Q 14.5 44.390625 14.5 40.28125 
Q 14.5 37.15625 16.890625 35.375 
Q 19.28125 33.59375 26.515625 31.984375 
L 29.59375 31.296875 
Q 39.15625 29.25 43.1875 25.515625 
Q 47.21875 21.78125 47.21875 15.09375 
Q 47.21875 7.46875 41.1875 3.015625 
Q 35.15625 -1.421875 24.609375 -1.421875 
Q 20.21875 -1.421875 15.453125 -0.5625 
Q 10.6875 0.296875 5.421875 2 
L 5.421875 11.28125 
Q 10.40625 8.6875 15.234375 7.390625 
Q 20.0625 6.109375 24.8125 6.109375 
Q 31.15625 6.109375 34.5625 8.28125 
Q 37.984375 10.453125 37.984375 14.40625 
Q 37.984375 18.0625 35.515625 20.015625 
Q 33.0625 21.96875 24.703125 23.78125 
L 21.578125 24.515625 
Q 13.234375 26.265625 9.515625 29.90625 
Q 5.8125 33.546875 5.8125 39.890625 
Q 5.8125 47.609375 11.28125 51.796875 
Q 16.75 56 26.8125 56 
Q 31.78125 56 36.171875 55.265625 
Q 40.578125 54.546875 44.28125 53.078125 
z
" id="DejaVuSans-115"/>
      <path d="M 18.3125 70.21875 
L 18.3125 54.6875 
L 36.8125 54.6875 
L 36.8125 47.703125 
L 18.3125 47.703125 
L 18.3125 18.015625 
Q 18.3125 11.328125 20.140625 9.421875 
Q 21.96875 7.515625 27.59375 7.515625 
L 36.8125 7.515625 
L 36.8125 0 
L 27.59375 0 
Q 17.1875 0 13.234375 3.875 
Q 9.28125 7.765625 9.28125 18.015625 
L 9.28125 47.703125 
L 2.6875 47.703125 
L 2.6875 54.6875 
L 9.28125 54.6875 
L 9.28125 70.21875 
z
" id="DejaVuSans-116"/>
      <path id="DejaVuSans-32"/>
      <path d="M 56.203125 29.59375 
L 56.203125 25.203125 
L 14.890625 25.203125 
Q 15.484375 15.921875 20.484375 11.0625 
Q 25.484375 6.203125 34.421875 6.203125 
Q 39.59375 6.203125 44.453125 7.46875 
Q 49.3125 8.734375 54.109375 11.28125 
L 54.109375 2.78125 
Q 49.265625 0.734375 44.1875 -0.34375 
Q 39.109375 -1.421875 33.890625 -1.421875 
Q 20.796875 -1.421875 13.15625 6.1875 
Q 5.515625 13.8125 5.515625 26.8125 
Q 5.515625 40.234375 12.765625 48.109375 
Q 20.015625 56 32.328125 56 
Q 43.359375 56 49.78125 48.890625 
Q 56.203125 41.796875 56.203125 29.59375 
z
M 47.21875 32.234375 
Q 47.125 39.59375 43.09375 43.984375 
Q 39.0625 48.390625 32.421875 48.390625 
Q 24.90625 48.390625 20.390625 44.140625 
Q 15.875 39.890625 15.1875 32.171875 
z
" id="DejaVuSans-101"/>
      <path d="M 9.421875 54.6875 
L 18.40625 54.6875 
L 18.40625 0 
L 9.421875 0 
z
M 9.421875 75.984375 
L 18.40625 75.984375 
L 18.40625 64.59375 
L 9.421875 64.59375 
z
" id="DejaVuSans-105"/>
      <path d="M 45.40625 27.984375 
Q 45.40625 37.75 41.375 43.109375 
Q 37.359375 48.484375 30.078125 48.484375 
Q 22.859375 48.484375 18.828125 43.109375 
Q 14.796875 37.75 14.796875 27.984375 
Q 14.796875 18.265625 18.828125 12.890625 
Q 22.859375 7.515625 30.078125 7.515625 
Q 37.359375 7.515625 41.375 12.890625 
Q 45.40625 18.265625 45.40625 27.984375 
z
M 54.390625 6.78125 
Q 54.390625 -7.171875 48.1875 -13.984375 
Q 42 -20.796875 29.203125 -20.796875 
Q 24.46875 -20.796875 20.265625 -20.09375 
Q 16.0625 -19.390625 12.109375 -17.921875 
L 12.109375 -9.1875 
Q 16.0625 -11.328125 19.921875 -12.34375 
Q 23.78125 -13.375 27.78125 -13.375 
Q 36.625 -13.375 41.015625 -8.765625 
Q 45.40625 -4.15625 45.40625 5.171875 
L 45.40625 9.625 
Q 42.625 4.78125 38.28125 2.390625 
Q 33.9375 0 27.875 0 
Q 17.828125 0 11.671875 7.65625 
Q 5.515625 15.328125 5.515625 27.984375 
Q 5.515625 40.671875 11.671875 48.328125 
Q 17.828125 56 27.875 56 
Q 33.9375 56 38.28125 53.609375 
Q 42.625 51.21875 45.40625 46.390625 
L 45.40625 54.6875 
L 54.390625 54.6875 
z
" id="DejaVuSans-103"/>
      <path d="M 54.890625 33.015625 
L 54.890625 0 
L 45.90625 0 
L 45.90625 32.71875 
Q 45.90625 40.484375 42.875 44.328125 
Q 39.84375 48.1875 33.796875 48.1875 
Q 26.515625 48.1875 22.3125 43.546875 
Q 18.109375 38.921875 18.109375 30.90625 
L 18.109375 0 
L 9.078125 0 
L 9.078125 54.6875 
L 18.109375 54.6875 
L 18.109375 46.1875 
Q 21.34375 51.125 25.703125 53.5625 
Q 30.078125 56 35.796875 56 
Q 45.21875 56 50.046875 50.171875 
Q 54.890625 44.34375 54.890625 33.015625 
z
" id="DejaVuSans-110"/>
      <path d="M 2.984375 54.6875 
L 12.5 54.6875 
L 29.59375 8.796875 
L 46.6875 54.6875 
L 56.203125 54.6875 
L 35.6875 0 
L 23.484375 0 
z
" id="DejaVuSans-118"/>
      <path d="M 48.78125 52.59375 
L 48.78125 44.1875 
Q 44.96875 46.296875 41.140625 47.34375 
Q 37.3125 48.390625 33.40625 48.390625 
Q 24.65625 48.390625 19.8125 42.84375 
Q 14.984375 37.3125 14.984375 27.296875 
Q 14.984375 17.28125 19.8125 11.734375 
Q 24.65625 6.203125 33.40625 6.203125 
Q 37.3125 6.203125 41.140625 7.25 
Q 44.96875 8.296875 48.78125 10.40625 
L 48.78125 2.09375 
Q 45.015625 0.34375 40.984375 -0.53125 
Q 36.96875 -1.421875 32.421875 -1.421875 
Q 20.0625 -1.421875 12.78125 6.34375 
Q 5.515625 14.109375 5.515625 27.296875 
Q 5.515625 40.671875 12.859375 48.328125 
Q 20.21875 56 33.015625 56 
Q 37.15625 56 41.109375 55.140625 
Q 45.0625 54.296875 48.78125 52.59375 
z
" id="DejaVuSans-99"/>
      <path d="M 30.609375 48.390625 
Q 23.390625 48.390625 19.1875 42.75 
Q 14.984375 37.109375 14.984375 27.296875 
Q 14.984375 17.484375 19.15625 11.84375 
Q 23.34375 6.203125 30.609375 6.203125 
Q 37.796875 6.203125 41.984375 11.859375 
Q 46.1875 17.53125 46.1875 27.296875 
Q 46.1875 37.015625 41.984375 42.703125 
Q 37.796875 48.390625 30.609375 48.390625 
z
M 30.609375 56 
Q 42.328125 56 49.015625 48.375 
Q 55.71875 40.765625 55.71875 27.296875 
Q 55.71875 13.875 49.015625 6.21875 
Q 42.328125 -1.421875 30.609375 -1.421875 
Q 18.84375 -1.421875 12.171875 6.21875 
Q 5.515625 13.875 5.515625 27.296875 
Q 5.515625 40.765625 12.171875 48.375 
Q 18.84375 56 30.609375 56 
z
" id="DejaVuSans-111"/>
      <path d="M 41.109375 46.296875 
Q 39.59375 47.171875 37.8125 47.578125 
Q 36.03125 48 33.890625 48 
Q 26.265625 48 22.1875 43.046875 
Q 18.109375 38.09375 18.109375 28.8125 
L 18.109375 0 
L 9.078125 0 
L 9.078125 54.6875 
L 18.109375 54.6875 
L 18.109375 46.1875 
Q 20.953125 51.171875 25.484375 53.578125 
Q 30.03125 56 36.53125 56 
Q 37.453125 56 38.578125 55.875 
Q 39.703125 55.765625 41.0625 55.515625 
z
" id="DejaVuSans-114"/>
     </defs>
     <g transform="translate(204.997656 379.993937)scale(0.1 -0.1)">
      <use xlink:href="#DejaVuSans-49"/>
      <use x="63.623047" xlink:href="#DejaVuSans-115"/>
      <use x="115.722656" xlink:href="#DejaVuSans-116"/>
      <use x="154.931641" xlink:href="#DejaVuSans-32"/>
      <use x="186.71875" xlink:href="#DejaVuSans-101"/>
      <use x="248.242188" xlink:href="#DejaVuSans-105"/>
      <use x="276.025391" xlink:href="#DejaVuSans-103"/>
      <use x="339.501953" xlink:href="#DejaVuSans-101"/>
      <use x="401.025391" xlink:href="#DejaVuSans-110"/>
      <use x="464.404297" xlink:href="#DejaVuSans-118"/>
      <use x="523.583984" xlink:href="#DejaVuSans-101"/>
      <use x="585.107422" xlink:href="#DejaVuSans-99"/>
      <use x="640.087891" xlink:href="#DejaVuSans-116"/>
      <use x="679.296875" xlink:href="#DejaVuSans-111"/>
      <use x="740.478516" xlink:href="#DejaVuSans-114"/>
     </g>
    </g>
   </g>
   <g id="matplotlib.axis_2">
    <g id="text_2">
     <!-- 2nd eigenvector -->
     <defs>
      <path d="M 19.1875 8.296875 
L 53.609375 8.296875 
L 53.609375 0 
L 7.328125 0 
L 7.328125 8.296875 
Q 12.9375 14.109375 22.625 23.890625 
Q 32.328125 33.6875 34.8125 36.53125 
Q 39.546875 41.84375 41.421875 45.53125 
Q 43.3125 49.21875 43.3125 52.78125 
Q 43.3125 58.59375 39.234375 62.25 
Q 35.15625 65.921875 28.609375 65.921875 
Q 23.96875 65.921875 18.8125 64.3125 
Q 13.671875 62.703125 7.8125 59.421875 
L 7.8125 69.390625 
Q 13.765625 71.78125 18.9375 73 
Q 24.125 74.21875 28.421875 74.21875 
Q 39.75 74.21875 46.484375 68.546875 
Q 53.21875 62.890625 53.21875 53.421875 
Q 53.21875 48.921875 51.53125 44.890625 
Q 49.859375 40.875 45.40625 35.40625 
Q 44.1875 33.984375 37.640625 27.21875 
Q 31.109375 20.453125 19.1875 8.296875 
z
" id="DejaVuSans-50"/>
      <path d="M 45.40625 46.390625 
L 45.40625 75.984375 
L 54.390625 75.984375 
L 54.390625 0 
L 45.40625 0 
L 45.40625 8.203125 
Q 42.578125 3.328125 38.25 0.953125 
Q 33.9375 -1.421875 27.875 -1.421875 
Q 17.96875 -1.421875 11.734375 6.484375 
Q 5.515625 14.40625 5.515625 27.296875 
Q 5.515625 40.1875 11.734375 48.09375 
Q 17.96875 56 27.875 56 
Q 33.9375 56 38.25 53.625 
Q 42.578125 51.265625 45.40625 46.390625 
z
M 14.796875 27.296875 
Q 14.796875 17.390625 18.875 11.75 
Q 22.953125 6.109375 30.078125 6.109375 
Q 37.203125 6.109375 41.296875 11.75 
Q 45.40625 17.390625 45.40625 27.296875 
Q 45.40625 37.203125 41.296875 42.84375 
Q 37.203125 48.484375 30.078125 48.484375 
Q 22.953125 48.484375 18.875 42.84375 
Q 14.796875 37.203125 14.796875 27.296875 
z
" id="DejaVuSans-100"/>
     </defs>
     <g transform="translate(14.798438 242.934094)rotate(-90)scale(0.1 -0.1)">
      <use xlink:href="#DejaVuSans-50"/>
      <use x="63.623047" xlink:href="#DejaVuSans-110"/>
      <use x="127.001953" xlink:href="#DejaVuSans-100"/>
      <use x="190.478516" xlink:href="#DejaVuSans-32"/>
      <use x="222.265625" xlink:href="#DejaVuSans-101"/>
      <use x="283.789062" xlink:href="#DejaVuSans-105"/>
      <use x="311.572266" xlink:href="#DejaVuSans-103"/>
      <use x="375.048828" xlink:href="#DejaVuSans-101"/>
      <use x="436.572266" xlink:href="#DejaVuSans-110"/>
      <use x="499.951172" xlink:href="#DejaVuSans-118"/>
      <use x="559.130859" xlink:href="#DejaVuSans-101"/>
      <use x="620.654297" xlink:href="#DejaVuSans-99"/>
      <use x="675.634766" xlink:href="#DejaVuSans-116"/>
      <use x="714.84375" xlink:href="#DejaVuSans-111"/>
      <use x="776.025391" xlink:href="#DejaVuSans-114"/>
     </g>
    </g>
   </g>
   <g id="patch_3">
    <path d="M 20.878125 368.3955 
L 20.878125 35.7555 
" style="fill:none;stroke:#000000;stroke-linecap:square;stroke-linejoin:miter;stroke-width:0.8;"/>
   </g>
   <g id="patch_4">
    <path d="M 467.278125 368.3955 
L 467.278125 35.7555 
" style="fill:none;stroke:#000000;stroke-linecap:square;stroke-linejoin:miter;stroke-width:0.8;"/>
   </g>
   <g id="patch_5">
    <path d="M 20.878125 368.3955 
L 467.278125 368.3955 
" style="fill:none;stroke:#000000;stroke-linecap:square;stroke-linejoin:miter;stroke-width:0.8;"/>
   </g>
   <g id="patch_6">
    <path d="M 20.878125 35.7555 
L 467.278125 35.7555 
" style="fill:none;stroke:#000000;stroke-linecap:square;stroke-linejoin:miter;stroke-width:0.8;"/>
   </g>
   <g id="text_3">
    <!-- Prognostic ptsd task tax level 6 pca 8 -->
    <defs>
     <path d="M 19.671875 64.796875 
L 19.671875 37.40625 
L 32.078125 37.40625 
Q 38.96875 37.40625 42.71875 40.96875 
Q 46.484375 44.53125 46.484375 51.125 
Q 46.484375 57.671875 42.71875 61.234375 
Q 38.96875 64.796875 32.078125 64.796875 
z
M 9.8125 72.90625 
L 32.078125 72.90625 
Q 44.34375 72.90625 50.609375 67.359375 
Q 56.890625 61.8125 56.890625 51.125 
Q 56.890625 40.328125 50.609375 34.8125 
Q 44.34375 29.296875 32.078125 29.296875 
L 19.671875 29.296875 
L 19.671875 0 
L 9.8125 0 
z
" id="DejaVuSans-80"/>
     <path d="M 18.109375 8.203125 
L 18.109375 -20.796875 
L 9.078125 -20.796875 
L 9.078125 54.6875 
L 18.109375 54.6875 
L 18.109375 46.390625 
Q 20.953125 51.265625 25.265625 53.625 
Q 29.59375 56 35.59375 56 
Q 45.5625 56 51.78125 48.09375 
Q 58.015625 40.1875 58.015625 27.296875 
Q 58.015625 14.40625 51.78125 6.484375 
Q 45.5625 -1.421875 35.59375 -1.421875 
Q 29.59375 -1.421875 25.265625 0.953125 
Q 20.953125 3.328125 18.109375 8.203125 
z
M 48.6875 27.296875 
Q 48.6875 37.203125 44.609375 42.84375 
Q 40.53125 48.484375 33.40625 48.484375 
Q 26.265625 48.484375 22.1875 42.84375 
Q 18.109375 37.203125 18.109375 27.296875 
Q 18.109375 17.390625 22.1875 11.75 
Q 26.265625 6.109375 33.40625 6.109375 
Q 40.53125 6.109375 44.609375 11.75 
Q 48.6875 17.390625 48.6875 27.296875 
z
" id="DejaVuSans-112"/>
     <path d="M 34.28125 27.484375 
Q 23.390625 27.484375 19.1875 25 
Q 14.984375 22.515625 14.984375 16.5 
Q 14.984375 11.71875 18.140625 8.90625 
Q 21.296875 6.109375 26.703125 6.109375 
Q 34.1875 6.109375 38.703125 11.40625 
Q 43.21875 16.703125 43.21875 25.484375 
L 43.21875 27.484375 
z
M 52.203125 31.203125 
L 52.203125 0 
L 43.21875 0 
L 43.21875 8.296875 
Q 40.140625 3.328125 35.546875 0.953125 
Q 30.953125 -1.421875 24.3125 -1.421875 
Q 15.921875 -1.421875 10.953125 3.296875 
Q 6 8.015625 6 15.921875 
Q 6 25.140625 12.171875 29.828125 
Q 18.359375 34.515625 30.609375 34.515625 
L 43.21875 34.515625 
L 43.21875 35.40625 
Q 43.21875 41.609375 39.140625 45 
Q 35.0625 48.390625 27.6875 48.390625 
Q 23 48.390625 18.546875 47.265625 
Q 14.109375 46.140625 10.015625 43.890625 
L 10.015625 52.203125 
Q 14.9375 54.109375 19.578125 55.046875 
Q 24.21875 56 28.609375 56 
Q 40.484375 56 46.34375 49.84375 
Q 52.203125 43.703125 52.203125 31.203125 
z
" id="DejaVuSans-97"/>
     <path d="M 9.078125 75.984375 
L 18.109375 75.984375 
L 18.109375 31.109375 
L 44.921875 54.6875 
L 56.390625 54.6875 
L 27.390625 29.109375 
L 57.625 0 
L 45.90625 0 
L 18.109375 26.703125 
L 18.109375 0 
L 9.078125 0 
z
" id="DejaVuSans-107"/>
     <path d="M 54.890625 54.6875 
L 35.109375 28.078125 
L 55.90625 0 
L 45.3125 0 
L 29.390625 21.484375 
L 13.484375 0 
L 2.875 0 
L 24.125 28.609375 
L 4.6875 54.6875 
L 15.28125 54.6875 
L 29.78125 35.203125 
L 44.28125 54.6875 
z
" id="DejaVuSans-120"/>
     <path d="M 9.421875 75.984375 
L 18.40625 75.984375 
L 18.40625 0 
L 9.421875 0 
z
" id="DejaVuSans-108"/>
     <path d="M 33.015625 40.375 
Q 26.375 40.375 22.484375 35.828125 
Q 18.609375 31.296875 18.609375 23.390625 
Q 18.609375 15.53125 22.484375 10.953125 
Q 26.375 6.390625 33.015625 6.390625 
Q 39.65625 6.390625 43.53125 10.953125 
Q 47.40625 15.53125 47.40625 23.390625 
Q 47.40625 31.296875 43.53125 35.828125 
Q 39.65625 40.375 33.015625 40.375 
z
M 52.59375 71.296875 
L 52.59375 62.3125 
Q 48.875 64.0625 45.09375 64.984375 
Q 41.3125 65.921875 37.59375 65.921875 
Q 27.828125 65.921875 22.671875 59.328125 
Q 17.53125 52.734375 16.796875 39.40625 
Q 19.671875 43.65625 24.015625 45.921875 
Q 28.375 48.1875 33.59375 48.1875 
Q 44.578125 48.1875 50.953125 41.515625 
Q 57.328125 34.859375 57.328125 23.390625 
Q 57.328125 12.15625 50.6875 5.359375 
Q 44.046875 -1.421875 33.015625 -1.421875 
Q 20.359375 -1.421875 13.671875 8.265625 
Q 6.984375 17.96875 6.984375 36.375 
Q 6.984375 53.65625 15.1875 63.9375 
Q 23.390625 74.21875 37.203125 74.21875 
Q 40.921875 74.21875 44.703125 73.484375 
Q 48.484375 72.75 52.59375 71.296875 
z
" id="DejaVuSans-54"/>
     <path d="M 31.78125 34.625 
Q 24.75 34.625 20.71875 30.859375 
Q 16.703125 27.09375 16.703125 20.515625 
Q 16.703125 13.921875 20.71875 10.15625 
Q 24.75 6.390625 31.78125 6.390625 
Q 38.8125 6.390625 42.859375 10.171875 
Q 46.921875 13.96875 46.921875 20.515625 
Q 46.921875 27.09375 42.890625 30.859375 
Q 38.875 34.625 31.78125 34.625 
z
M 21.921875 38.8125 
Q 15.578125 40.375 12.03125 44.71875 
Q 8.5 49.078125 8.5 55.328125 
Q 8.5 64.0625 14.71875 69.140625 
Q 20.953125 74.21875 31.78125 74.21875 
Q 42.671875 74.21875 48.875 69.140625 
Q 55.078125 64.0625 55.078125 55.328125 
Q 55.078125 49.078125 51.53125 44.71875 
Q 48 40.375 41.703125 38.8125 
Q 48.828125 37.15625 52.796875 32.3125 
Q 56.78125 27.484375 56.78125 20.515625 
Q 56.78125 9.90625 50.3125 4.234375 
Q 43.84375 -1.421875 31.78125 -1.421875 
Q 19.734375 -1.421875 13.25 4.234375 
Q 6.78125 9.90625 6.78125 20.515625 
Q 6.78125 27.484375 10.78125 32.3125 
Q 14.796875 37.15625 21.921875 38.8125 
z
M 18.3125 54.390625 
Q 18.3125 48.734375 21.84375 45.5625 
Q 25.390625 42.390625 31.78125 42.390625 
Q 38.140625 42.390625 41.71875 45.5625 
Q 45.3125 48.734375 45.3125 54.390625 
Q 45.3125 60.0625 41.71875 63.234375 
Q 38.140625 66.40625 31.78125 66.40625 
Q 25.390625 66.40625 21.84375 63.234375 
Q 18.3125 60.0625 18.3125 54.390625 
z
" id="DejaVuSans-56"/>
    </defs>
    <g transform="translate(131.256563 16.318125)scale(0.12 -0.12)">
     <use xlink:href="#DejaVuSans-80"/>
     <use x="60.287109" xlink:href="#DejaVuSans-114"/>
     <use x="101.369141" xlink:href="#DejaVuSans-111"/>
     <use x="162.550781" xlink:href="#DejaVuSans-103"/>
     <use x="226.027344" xlink:href="#DejaVuSans-110"/>
     <use x="289.40625" xlink:href="#DejaVuSans-111"/>
     <use x="350.587891" xlink:href="#DejaVuSans-115"/>
     <use x="402.6875" xlink:href="#DejaVuSans-116"/>
     <use x="441.896484" xlink:href="#DejaVuSans-105"/>
     <use x="469.679688" xlink:href="#DejaVuSans-99"/>
     <use x="524.660156" xlink:href="#DejaVuSans-32"/>
     <use x="556.447266" xlink:href="#DejaVuSans-112"/>
     <use x="619.923828" xlink:href="#DejaVuSans-116"/>
     <use x="659.132812" xlink:href="#DejaVuSans-115"/>
     <use x="711.232422" xlink:href="#DejaVuSans-100"/>
     <use x="774.708984" xlink:href="#DejaVuSans-32"/>
     <use x="806.496094" xlink:href="#DejaVuSans-116"/>
     <use x="845.705078" xlink:href="#DejaVuSans-97"/>
     <use x="906.984375" xlink:href="#DejaVuSans-115"/>
     <use x="959.083984" xlink:href="#DejaVuSans-107"/>
     <use x="1016.994141" xlink:href="#DejaVuSans-32"/>
     <use x="1048.78125" xlink:href="#DejaVuSans-116"/>
     <use x="1087.990234" xlink:href="#DejaVuSans-97"/>
     <use x="1149.269531" xlink:href="#DejaVuSans-120"/>
     <use x="1208.449219" xlink:href="#DejaVuSans-32"/>
     <use x="1240.236328" xlink:href="#DejaVuSans-108"/>
     <use x="1268.019531" xlink:href="#DejaVuSans-101"/>
     <use x="1329.542969" xlink:href="#DejaVuSans-118"/>
     <use x="1388.722656" xlink:href="#DejaVuSans-101"/>
     <use x="1450.246094" xlink:href="#DejaVuSans-108"/>
     <use x="1478.029297" xlink:href="#DejaVuSans-32"/>
     <use x="1509.816406" xlink:href="#DejaVuSans-54"/>
     <use x="1573.439453" xlink:href="#DejaVuSans-32"/>
     <use x="1605.226562" xlink:href="#DejaVuSans-112"/>
     <use x="1668.703125" xlink:href="#DejaVuSans-99"/>
     <use x="1723.683594" xlink:href="#DejaVuSans-97"/>
     <use x="1784.962891" xlink:href="#DejaVuSans-32"/>
     <use x="1816.75" xlink:href="#DejaVuSans-56"/>
    </g>
    <!-- First two PCA directions -->
    <defs>
     <path d="M 9.8125 72.90625 
L 51.703125 72.90625 
L 51.703125 64.59375 
L 19.671875 64.59375 
L 19.671875 43.109375 
L 48.578125 43.109375 
L 48.578125 34.8125 
L 19.671875 34.8125 
L 19.671875 0 
L 9.8125 0 
z
" id="DejaVuSans-70"/>
     <path d="M 4.203125 54.6875 
L 13.1875 54.6875 
L 24.421875 12.015625 
L 35.59375 54.6875 
L 46.1875 54.6875 
L 57.421875 12.015625 
L 68.609375 54.6875 
L 77.59375 54.6875 
L 63.28125 0 
L 52.6875 0 
L 40.921875 44.828125 
L 29.109375 0 
L 18.5 0 
z
" id="DejaVuSans-119"/>
     <path d="M 64.40625 67.28125 
L 64.40625 56.890625 
Q 59.421875 61.53125 53.78125 63.8125 
Q 48.140625 66.109375 41.796875 66.109375 
Q 29.296875 66.109375 22.65625 58.46875 
Q 16.015625 50.828125 16.015625 36.375 
Q 16.015625 21.96875 22.65625 14.328125 
Q 29.296875 6.6875 41.796875 6.6875 
Q 48.140625 6.6875 53.78125 8.984375 
Q 59.421875 11.28125 64.40625 15.921875 
L 64.40625 5.609375 
Q 59.234375 2.09375 53.4375 0.328125 
Q 47.65625 -1.421875 41.21875 -1.421875 
Q 24.65625 -1.421875 15.125 8.703125 
Q 5.609375 18.84375 5.609375 36.375 
Q 5.609375 53.953125 15.125 64.078125 
Q 24.65625 74.21875 41.21875 74.21875 
Q 47.75 74.21875 53.53125 72.484375 
Q 59.328125 70.75 64.40625 67.28125 
z
" id="DejaVuSans-67"/>
     <path d="M 34.1875 63.1875 
L 20.796875 26.90625 
L 47.609375 26.90625 
z
M 28.609375 72.90625 
L 39.796875 72.90625 
L 67.578125 0 
L 57.328125 0 
L 50.6875 18.703125 
L 17.828125 18.703125 
L 11.1875 0 
L 0.78125 0 
z
" id="DejaVuSans-65"/>
    </defs>
    <g transform="translate(172.909688 29.7555)scale(0.12 -0.12)">
     <use xlink:href="#DejaVuSans-70"/>
     <use x="57.410156" xlink:href="#DejaVuSans-105"/>
     <use x="85.193359" xlink:href="#DejaVuSans-114"/>
     <use x="126.306641" xlink:href="#DejaVuSans-115"/>
     <use x="178.40625" xlink:href="#DejaVuSans-116"/>
     <use x="217.615234" xlink:href="#DejaVuSans-32"/>
     <use x="249.402344" xlink:href="#DejaVuSans-116"/>
     <use x="288.611328" xlink:href="#DejaVuSans-119"/>
     <use x="370.398438" xlink:href="#DejaVuSans-111"/>
     <use x="431.580078" xlink:href="#DejaVuSans-32"/>
     <use x="463.367188" xlink:href="#DejaVuSans-80"/>
     <use x="523.669922" xlink:href="#DejaVuSans-67"/>
     <use x="593.494141" xlink:href="#DejaVuSans-65"/>
     <use x="661.902344" xlink:href="#DejaVuSans-32"/>
     <use x="693.689453" xlink:href="#DejaVuSans-100"/>
     <use x="757.166016" xlink:href="#DejaVuSans-105"/>
     <use x="784.949219" xlink:href="#DejaVuSans-114"/>
     <use x="826.03125" xlink:href="#DejaVuSans-101"/>
     <use x="887.554688" xlink:href="#DejaVuSans-99"/>
     <use x="942.535156" xlink:href="#DejaVuSans-116"/>
     <use x="981.744141" xlink:href="#DejaVuSans-105"/>
     <use x="1009.527344" xlink:href="#DejaVuSans-111"/>
     <use x="1070.708984" xlink:href="#DejaVuSans-110"/>
     <use x="1134.087891" xlink:href="#DejaVuSans-115"/>
    </g>
   </g>
  </g>
 </g>
 <defs>
  <clipPath id="pd4c5b596e9">
   <rect height="332.64" width="446.4" x="20.878125" y="35.7555"/>
  </clipPath>
 </defs>
</svg>
