<?xml version="1.0" encoding="utf-8" standalone="no"?>
<!DOCTYPE svg PUBLIC "-//W3C//DTD SVG 1.1//EN"
  "http://www.w3.org/Graphics/SVG/1.1/DTD/svg11.dtd">
<!-- Created with matplotlib (https://matplotlib.org/) -->
<svg height="389.273625pt" version="1.1" viewBox="0 0 474.478125 389.273625" width="474.478125pt" xmlns="http://www.w3.org/2000/svg" xmlns:xlink="http://www.w3.org/1999/xlink">
 <defs>
  <style type="text/css">
*{stroke-linecap:butt;stroke-linejoin:round;}
  </style>
 </defs>
 <g id="figure_1">
  <g id="patch_1">
   <path d="M 0 389.273625 
L 474.478125 389.273625 
L 474.478125 0 
L 0 0 
z
" style="fill:#ffffff;"/>
  </g>
  <g id="axes_1">
   <g id="patch_2">
    <path d="M 20.878125 368.3955 
L 467.278125 368.3955 
L 467.278125 35.7555 
L 20.878125 35.7555 
z
" style="fill:#ffffff;"/>
   </g>
   <g id="PathCollection_1">
    <defs>
     <path d="M 0 3 
C 0.795609 3 1.55874 2.683901 2.12132 2.12132 
C 2.683901 1.55874 3 0.795609 3 0 
C 3 -0.795609 2.683901 -1.55874 2.12132 -2.12132 
C 1.55874 -2.683901 0.795609 -3 0 -3 
C -0.795609 -3 -1.55874 -2.683901 -2.12132 -2.12132 
C -2.683901 -1.55874 -3 -0.795609 -3 0 
C -3 0.795609 -2.683901 1.55874 -2.12132 2.12132 
C -1.55874 2.683901 -0.795609 3 0 3 
z
" id="C0_0_87cc619a74"/>
    </defs>
    <g clip-path="url(#p8ef0499107)">
     <use style="fill:#00bfbf;stroke:#000000;" x="215.544336" xlink:href="#C0_0_87cc619a74" y="317.979473"/>
    </g>
    <g clip-path="url(#p8ef0499107)">
     <use style="fill:#bf00bf;stroke:#000000;" x="186.939329" xlink:href="#C0_0_87cc619a74" y="307.111711"/>
    </g>
    <g clip-path="url(#p8ef0499107)">
     <use style="fill:#00bfbf;stroke:#000000;" x="294.938787" xlink:href="#C0_0_87cc619a74" y="303.314557"/>
    </g>
    <g clip-path="url(#p8ef0499107)">
     <use style="fill:#00bfbf;stroke:#000000;" x="211.125829" xlink:href="#C0_0_87cc619a74" y="305.648837"/>
    </g>
    <g clip-path="url(#p8ef0499107)">
     <use style="fill:#bf00bf;stroke:#000000;" x="152.022594" xlink:href="#C0_0_87cc619a74" y="321.422186"/>
    </g>
    <g clip-path="url(#p8ef0499107)">
     <use style="fill:#00bfbf;stroke:#000000;" x="195.97313" xlink:href="#C0_0_87cc619a74" y="314.490449"/>
    </g>
    <g clip-path="url(#p8ef0499107)">
     <use style="fill:#00bfbf;stroke:#000000;" x="234.59146" xlink:href="#C0_0_87cc619a74" y="309.999479"/>
    </g>
    <g clip-path="url(#p8ef0499107)">
     <use style="fill:#00bfbf;stroke:#000000;" x="134.553862" xlink:href="#C0_0_87cc619a74" y="312.628294"/>
    </g>
    <g clip-path="url(#p8ef0499107)">
     <use style="fill:#bf00bf;stroke:#000000;" x="195.647781" xlink:href="#C0_0_87cc619a74" y="283.09534"/>
    </g>
    <g clip-path="url(#p8ef0499107)">
     <use style="fill:#00bfbf;stroke:#000000;" x="176.40617" xlink:href="#C0_0_87cc619a74" y="292.020039"/>
    </g>
    <g clip-path="url(#p8ef0499107)">
     <use style="fill:#bf00bf;stroke:#000000;" x="188.501283" xlink:href="#C0_0_87cc619a74" y="319.721473"/>
    </g>
    <g clip-path="url(#p8ef0499107)">
     <use style="fill:#bf00bf;stroke:#000000;" x="191.507452" xlink:href="#C0_0_87cc619a74" y="313.218435"/>
    </g>
    <g clip-path="url(#p8ef0499107)">
     <use style="fill:#bf00bf;stroke:#000000;" x="177.112451" xlink:href="#C0_0_87cc619a74" y="300.521165"/>
    </g>
    <g clip-path="url(#p8ef0499107)">
     <use style="fill:#bf00bf;stroke:#000000;" x="236.524891" xlink:href="#C0_0_87cc619a74" y="313.575972"/>
    </g>
    <g clip-path="url(#p8ef0499107)">
     <use style="fill:#00bfbf;stroke:#000000;" x="253.376986" xlink:href="#C0_0_87cc619a74" y="311.515268"/>
    </g>
    <g clip-path="url(#p8ef0499107)">
     <use style="fill:#bf00bf;stroke:#000000;" x="299.644876" xlink:href="#C0_0_87cc619a74" y="279.905286"/>
    </g>
    <g clip-path="url(#p8ef0499107)">
     <use style="fill:#00bfbf;stroke:#000000;" x="201.515178" xlink:href="#C0_0_87cc619a74" y="274.756622"/>
    </g>
    <g clip-path="url(#p8ef0499107)">
     <use style="fill:#bf00bf;stroke:#000000;" x="220.225224" xlink:href="#C0_0_87cc619a74" y="256.349332"/>
    </g>
    <g clip-path="url(#p8ef0499107)">
     <use style="fill:#00bfbf;stroke:#000000;" x="193.432297" xlink:href="#C0_0_87cc619a74" y="332.782005"/>
    </g>
    <g clip-path="url(#p8ef0499107)">
     <use style="fill:#00bfbf;stroke:#000000;" x="134.703172" xlink:href="#C0_0_87cc619a74" y="307.875639"/>
    </g>
    <g clip-path="url(#p8ef0499107)">
     <use style="fill:#00bfbf;stroke:#000000;" x="222.597728" xlink:href="#C0_0_87cc619a74" y="142.312739"/>
    </g>
    <g clip-path="url(#p8ef0499107)">
     <use style="fill:#00bfbf;stroke:#000000;" x="197.969987" xlink:href="#C0_0_87cc619a74" y="298.498535"/>
    </g>
    <g clip-path="url(#p8ef0499107)">
     <use style="fill:#bf00bf;stroke:#000000;" x="199.840918" xlink:href="#C0_0_87cc619a74" y="285.685668"/>
    </g>
    <g clip-path="url(#p8ef0499107)">
     <use style="fill:#00bfbf;stroke:#000000;" x="41.307408" xlink:href="#C0_0_87cc619a74" y="315.35266"/>
    </g>
    <g clip-path="url(#p8ef0499107)">
     <use style="fill:#00bfbf;stroke:#000000;" x="294.209287" xlink:href="#C0_0_87cc619a74" y="301.021669"/>
    </g>
    <g clip-path="url(#p8ef0499107)">
     <use style="fill:#00bfbf;stroke:#000000;" x="131.619425" xlink:href="#C0_0_87cc619a74" y="262.795411"/>
    </g>
    <g clip-path="url(#p8ef0499107)">
     <use style="fill:#00bfbf;stroke:#000000;" x="245.64974" xlink:href="#C0_0_87cc619a74" y="247.434529"/>
    </g>
    <g clip-path="url(#p8ef0499107)">
     <use style="fill:#00bfbf;stroke:#000000;" x="233.06839" xlink:href="#C0_0_87cc619a74" y="294.76455"/>
    </g>
    <g clip-path="url(#p8ef0499107)">
     <use style="fill:#bf00bf;stroke:#000000;" x="138.420063" xlink:href="#C0_0_87cc619a74" y="300.520151"/>
    </g>
    <g clip-path="url(#p8ef0499107)">
     <use style="fill:#bf00bf;stroke:#000000;" x="168.060324" xlink:href="#C0_0_87cc619a74" y="284.693086"/>
    </g>
    <g clip-path="url(#p8ef0499107)">
     <use style="fill:#bf00bf;stroke:#000000;" x="140.551664" xlink:href="#C0_0_87cc619a74" y="301.643893"/>
    </g>
    <g clip-path="url(#p8ef0499107)">
     <use style="fill:#bf00bf;stroke:#000000;" x="158.546049" xlink:href="#C0_0_87cc619a74" y="315.810227"/>
    </g>
    <g clip-path="url(#p8ef0499107)">
     <use style="fill:#00bfbf;stroke:#000000;" x="267.730961" xlink:href="#C0_0_87cc619a74" y="328.931398"/>
    </g>
    <g clip-path="url(#p8ef0499107)">
     <use style="fill:#bf00bf;stroke:#000000;" x="214.698685" xlink:href="#C0_0_87cc619a74" y="212.845361"/>
    </g>
    <g clip-path="url(#p8ef0499107)">
     <use style="fill:#bf00bf;stroke:#000000;" x="134.060386" xlink:href="#C0_0_87cc619a74" y="316.51887"/>
    </g>
    <g clip-path="url(#p8ef0499107)">
     <use style="fill:#00bfbf;stroke:#000000;" x="180.930691" xlink:href="#C0_0_87cc619a74" y="294.126829"/>
    </g>
    <g clip-path="url(#p8ef0499107)">
     <use style="fill:#00bfbf;stroke:#000000;" x="192.102476" xlink:href="#C0_0_87cc619a74" y="291.302077"/>
    </g>
    <g clip-path="url(#p8ef0499107)">
     <use style="fill:#bf00bf;stroke:#000000;" x="98.674656" xlink:href="#C0_0_87cc619a74" y="306.040408"/>
    </g>
    <g clip-path="url(#p8ef0499107)">
     <use style="fill:#00bfbf;stroke:#000000;" x="211.800821" xlink:href="#C0_0_87cc619a74" y="294.291986"/>
    </g>
    <g clip-path="url(#p8ef0499107)">
     <use style="fill:#00bfbf;stroke:#000000;" x="234.498941" xlink:href="#C0_0_87cc619a74" y="294.293921"/>
    </g>
    <g clip-path="url(#p8ef0499107)">
     <use style="fill:#00bfbf;stroke:#000000;" x="340.882073" xlink:href="#C0_0_87cc619a74" y="294.829637"/>
    </g>
    <g clip-path="url(#p8ef0499107)">
     <use style="fill:#00bfbf;stroke:#000000;" x="224.675761" xlink:href="#C0_0_87cc619a74" y="311.818464"/>
    </g>
    <g clip-path="url(#p8ef0499107)">
     <use style="fill:#00bfbf;stroke:#000000;" x="186.223806" xlink:href="#C0_0_87cc619a74" y="317.651662"/>
    </g>
    <g clip-path="url(#p8ef0499107)">
     <use style="fill:#00bfbf;stroke:#000000;" x="354.470966" xlink:href="#C0_0_87cc619a74" y="303.632401"/>
    </g>
    <g clip-path="url(#p8ef0499107)">
     <use style="fill:#00bfbf;stroke:#000000;" x="223.720268" xlink:href="#C0_0_87cc619a74" y="307.573351"/>
    </g>
    <g clip-path="url(#p8ef0499107)">
     <use style="fill:#bf00bf;stroke:#000000;" x="185.541309" xlink:href="#C0_0_87cc619a74" y="350.189387"/>
    </g>
    <g clip-path="url(#p8ef0499107)">
     <use style="fill:#bf00bf;stroke:#000000;" x="173.529464" xlink:href="#C0_0_87cc619a74" y="307.258015"/>
    </g>
    <g clip-path="url(#p8ef0499107)">
     <use style="fill:#bf00bf;stroke:#000000;" x="214.428809" xlink:href="#C0_0_87cc619a74" y="324.985416"/>
    </g>
    <g clip-path="url(#p8ef0499107)">
     <use style="fill:#00bfbf;stroke:#000000;" x="281.343808" xlink:href="#C0_0_87cc619a74" y="331.897575"/>
    </g>
    <g clip-path="url(#p8ef0499107)">
     <use style="fill:#00bfbf;stroke:#000000;" x="192.130364" xlink:href="#C0_0_87cc619a74" y="295.441166"/>
    </g>
    <g clip-path="url(#p8ef0499107)">
     <use style="fill:#00bfbf;stroke:#000000;" x="282.476099" xlink:href="#C0_0_87cc619a74" y="302.68381"/>
    </g>
    <g clip-path="url(#p8ef0499107)">
     <use style="fill:#bf00bf;stroke:#000000;" x="222.479634" xlink:href="#C0_0_87cc619a74" y="316.279107"/>
    </g>
    <g clip-path="url(#p8ef0499107)">
     <use style="fill:#bf00bf;stroke:#000000;" x="100.177579" xlink:href="#C0_0_87cc619a74" y="257.511258"/>
    </g>
    <g clip-path="url(#p8ef0499107)">
     <use style="fill:#bf00bf;stroke:#000000;" x="194.94467" xlink:href="#C0_0_87cc619a74" y="182.797613"/>
    </g>
    <g clip-path="url(#p8ef0499107)">
     <use style="fill:#00bfbf;stroke:#000000;" x="193.318521" xlink:href="#C0_0_87cc619a74" y="298.405829"/>
    </g>
    <g clip-path="url(#p8ef0499107)">
     <use style="fill:#00bfbf;stroke:#000000;" x="258.810928" xlink:href="#C0_0_87cc619a74" y="304.324843"/>
    </g>
    <g clip-path="url(#p8ef0499107)">
     <use style="fill:#bf00bf;stroke:#000000;" x="182.0507" xlink:href="#C0_0_87cc619a74" y="304.573541"/>
    </g>
    <g clip-path="url(#p8ef0499107)">
     <use style="fill:#bf00bf;stroke:#000000;" x="218.620052" xlink:href="#C0_0_87cc619a74" y="308.50982"/>
    </g>
    <g clip-path="url(#p8ef0499107)">
     <use style="fill:#bf00bf;stroke:#000000;" x="283.64575" xlink:href="#C0_0_87cc619a74" y="291.897921"/>
    </g>
    <g clip-path="url(#p8ef0499107)">
     <use style="fill:#bf00bf;stroke:#000000;" x="446.848842" xlink:href="#C0_0_87cc619a74" y="274.669803"/>
    </g>
    <g clip-path="url(#p8ef0499107)">
     <use style="fill:#00bfbf;stroke:#000000;" x="292.425593" xlink:href="#C0_0_87cc619a74" y="292.309885"/>
    </g>
    <g clip-path="url(#p8ef0499107)">
     <use style="fill:#00bfbf;stroke:#000000;" x="173.756378" xlink:href="#C0_0_87cc619a74" y="299.824677"/>
    </g>
    <g clip-path="url(#p8ef0499107)">
     <use style="fill:#00bfbf;stroke:#000000;" x="124.455795" xlink:href="#C0_0_87cc619a74" y="317.156074"/>
    </g>
    <g clip-path="url(#p8ef0499107)">
     <use style="fill:#00bfbf;stroke:#000000;" x="220.914427" xlink:href="#C0_0_87cc619a74" y="321.843326"/>
    </g>
    <g clip-path="url(#p8ef0499107)">
     <use style="fill:#00bfbf;stroke:#000000;" x="211.569784" xlink:href="#C0_0_87cc619a74" y="301.041606"/>
    </g>
    <g clip-path="url(#p8ef0499107)">
     <use style="fill:#00bfbf;stroke:#000000;" x="113.96794" xlink:href="#C0_0_87cc619a74" y="312.560628"/>
    </g>
    <g clip-path="url(#p8ef0499107)">
     <use style="fill:#00bfbf;stroke:#000000;" x="218.18109" xlink:href="#C0_0_87cc619a74" y="301.324207"/>
    </g>
    <g clip-path="url(#p8ef0499107)">
     <use style="fill:#00bfbf;stroke:#000000;" x="153.326324" xlink:href="#C0_0_87cc619a74" y="283.28241"/>
    </g>
    <g clip-path="url(#p8ef0499107)">
     <use style="fill:#bf00bf;stroke:#000000;" x="172.65762" xlink:href="#C0_0_87cc619a74" y="310.816227"/>
    </g>
    <g clip-path="url(#p8ef0499107)">
     <use style="fill:#00bfbf;stroke:#000000;" x="285.286299" xlink:href="#C0_0_87cc619a74" y="287.7368"/>
    </g>
    <g clip-path="url(#p8ef0499107)">
     <use style="fill:#bf00bf;stroke:#000000;" x="154.919953" xlink:href="#C0_0_87cc619a74" y="301.770754"/>
    </g>
    <g clip-path="url(#p8ef0499107)">
     <use style="fill:#00bfbf;stroke:#000000;" x="241.903126" xlink:href="#C0_0_87cc619a74" y="309.394171"/>
    </g>
    <g clip-path="url(#p8ef0499107)">
     <use style="fill:#bf00bf;stroke:#000000;" x="245.141777" xlink:href="#C0_0_87cc619a74" y="303.108163"/>
    </g>
    <g clip-path="url(#p8ef0499107)">
     <use style="fill:#bf00bf;stroke:#000000;" x="274.881471" xlink:href="#C0_0_87cc619a74" y="304.878268"/>
    </g>
    <g clip-path="url(#p8ef0499107)">
     <use style="fill:#bf00bf;stroke:#000000;" x="149.487668" xlink:href="#C0_0_87cc619a74" y="295.486775"/>
    </g>
    <g clip-path="url(#p8ef0499107)">
     <use style="fill:#bf00bf;stroke:#000000;" x="227.840704" xlink:href="#C0_0_87cc619a74" y="314.422915"/>
    </g>
    <g clip-path="url(#p8ef0499107)">
     <use style="fill:#bf00bf;stroke:#000000;" x="199.639556" xlink:href="#C0_0_87cc619a74" y="353.160897"/>
    </g>
    <g clip-path="url(#p8ef0499107)">
     <use style="fill:#00bfbf;stroke:#000000;" x="156.213815" xlink:href="#C0_0_87cc619a74" y="341.309434"/>
    </g>
    <g clip-path="url(#p8ef0499107)">
     <use style="fill:#00bfbf;stroke:#000000;" x="270.409678" xlink:href="#C0_0_87cc619a74" y="329.382725"/>
    </g>
    <g clip-path="url(#p8ef0499107)">
     <use style="fill:#bf00bf;stroke:#000000;" x="323.770623" xlink:href="#C0_0_87cc619a74" y="273.747975"/>
    </g>
    <g clip-path="url(#p8ef0499107)">
     <use style="fill:#00bfbf;stroke:#000000;" x="123.414818" xlink:href="#C0_0_87cc619a74" y="308.900661"/>
    </g>
    <g clip-path="url(#p8ef0499107)">
     <use style="fill:#00bfbf;stroke:#000000;" x="264.785965" xlink:href="#C0_0_87cc619a74" y="292.501135"/>
    </g>
    <g clip-path="url(#p8ef0499107)">
     <use style="fill:#00bfbf;stroke:#000000;" x="243.718795" xlink:href="#C0_0_87cc619a74" y="291.882127"/>
    </g>
    <g clip-path="url(#p8ef0499107)">
     <use style="fill:#00bfbf;stroke:#000000;" x="159.945928" xlink:href="#C0_0_87cc619a74" y="316.474646"/>
    </g>
    <g clip-path="url(#p8ef0499107)">
     <use style="fill:#00bfbf;stroke:#000000;" x="180.631925" xlink:href="#C0_0_87cc619a74" y="269.394013"/>
    </g>
    <g clip-path="url(#p8ef0499107)">
     <use style="fill:#00bfbf;stroke:#000000;" x="202.186433" xlink:href="#C0_0_87cc619a74" y="301.907365"/>
    </g>
    <g clip-path="url(#p8ef0499107)">
     <use style="fill:#bf00bf;stroke:#000000;" x="208.907199" xlink:href="#C0_0_87cc619a74" y="298.465341"/>
    </g>
    <g clip-path="url(#p8ef0499107)">
     <use style="fill:#bf00bf;stroke:#000000;" x="250.938451" xlink:href="#C0_0_87cc619a74" y="304.106189"/>
    </g>
    <g clip-path="url(#p8ef0499107)">
     <use style="fill:#00bfbf;stroke:#000000;" x="280.867174" xlink:href="#C0_0_87cc619a74" y="294.446969"/>
    </g>
    <g clip-path="url(#p8ef0499107)">
     <use style="fill:#00bfbf;stroke:#000000;" x="226.70638" xlink:href="#C0_0_87cc619a74" y="304.001171"/>
    </g>
    <g clip-path="url(#p8ef0499107)">
     <use style="fill:#00bfbf;stroke:#000000;" x="376.369677" xlink:href="#C0_0_87cc619a74" y="293.383654"/>
    </g>
    <g clip-path="url(#p8ef0499107)">
     <use style="fill:#00bfbf;stroke:#000000;" x="226.865699" xlink:href="#C0_0_87cc619a74" y="294.210105"/>
    </g>
    <g clip-path="url(#p8ef0499107)">
     <use style="fill:#00bfbf;stroke:#000000;" x="288.352331" xlink:href="#C0_0_87cc619a74" y="249.998567"/>
    </g>
    <g clip-path="url(#p8ef0499107)">
     <use style="fill:#bf00bf;stroke:#000000;" x="244.293935" xlink:href="#C0_0_87cc619a74" y="313.048094"/>
    </g>
    <g clip-path="url(#p8ef0499107)">
     <use style="fill:#00bfbf;stroke:#000000;" x="308.217737" xlink:href="#C0_0_87cc619a74" y="309.711412"/>
    </g>
    <g clip-path="url(#p8ef0499107)">
     <use style="fill:#00bfbf;stroke:#000000;" x="139.045773" xlink:href="#C0_0_87cc619a74" y="325.293371"/>
    </g>
    <g clip-path="url(#p8ef0499107)">
     <use style="fill:#bf00bf;stroke:#000000;" x="209.943432" xlink:href="#C0_0_87cc619a74" y="315.181664"/>
    </g>
    <g clip-path="url(#p8ef0499107)">
     <use style="fill:#00bfbf;stroke:#000000;" x="157.221026" xlink:href="#C0_0_87cc619a74" y="298.519732"/>
    </g>
    <g clip-path="url(#p8ef0499107)">
     <use style="fill:#00bfbf;stroke:#000000;" x="149.376842" xlink:href="#C0_0_87cc619a74" y="307.455543"/>
    </g>
    <g clip-path="url(#p8ef0499107)">
     <use style="fill:#00bfbf;stroke:#000000;" x="238.79034" xlink:href="#C0_0_87cc619a74" y="331.401072"/>
    </g>
    <g clip-path="url(#p8ef0499107)">
     <use style="fill:#00bfbf;stroke:#000000;" x="135.107758" xlink:href="#C0_0_87cc619a74" y="311.043325"/>
    </g>
    <g clip-path="url(#p8ef0499107)">
     <use style="fill:#bf00bf;stroke:#000000;" x="197.153534" xlink:href="#C0_0_87cc619a74" y="327.532793"/>
    </g>
    <g clip-path="url(#p8ef0499107)">
     <use style="fill:#00bfbf;stroke:#000000;" x="182.758566" xlink:href="#C0_0_87cc619a74" y="289.202169"/>
    </g>
    <g clip-path="url(#p8ef0499107)">
     <use style="fill:#00bfbf;stroke:#000000;" x="129.819517" xlink:href="#C0_0_87cc619a74" y="281.175214"/>
    </g>
    <g clip-path="url(#p8ef0499107)">
     <use style="fill:#00bfbf;stroke:#000000;" x="116.175157" xlink:href="#C0_0_87cc619a74" y="298.244104"/>
    </g>
    <g clip-path="url(#p8ef0499107)">
     <use style="fill:#00bfbf;stroke:#000000;" x="149.843599" xlink:href="#C0_0_87cc619a74" y="283.954335"/>
    </g>
    <g clip-path="url(#p8ef0499107)">
     <use style="fill:#00bfbf;stroke:#000000;" x="208.217493" xlink:href="#C0_0_87cc619a74" y="307.424049"/>
    </g>
    <g clip-path="url(#p8ef0499107)">
     <use style="fill:#00bfbf;stroke:#000000;" x="223.550344" xlink:href="#C0_0_87cc619a74" y="316.754227"/>
    </g>
    <g clip-path="url(#p8ef0499107)">
     <use style="fill:#00bfbf;stroke:#000000;" x="167.746666" xlink:href="#C0_0_87cc619a74" y="307.468397"/>
    </g>
    <g clip-path="url(#p8ef0499107)">
     <use style="fill:#00bfbf;stroke:#000000;" x="197.94944" xlink:href="#C0_0_87cc619a74" y="300.39323"/>
    </g>
    <g clip-path="url(#p8ef0499107)">
     <use style="fill:#bf00bf;stroke:#000000;" x="314.365242" xlink:href="#C0_0_87cc619a74" y="318.023935"/>
    </g>
    <g clip-path="url(#p8ef0499107)">
     <use style="fill:#00bfbf;stroke:#000000;" x="156.709009" xlink:href="#C0_0_87cc619a74" y="241.051717"/>
    </g>
    <g clip-path="url(#p8ef0499107)">
     <use style="fill:#bf00bf;stroke:#000000;" x="418.147067" xlink:href="#C0_0_87cc619a74" y="303.580108"/>
    </g>
    <g clip-path="url(#p8ef0499107)">
     <use style="fill:#00bfbf;stroke:#000000;" x="217.791211" xlink:href="#C0_0_87cc619a74" y="290.041044"/>
    </g>
    <g clip-path="url(#p8ef0499107)">
     <use style="fill:#bf00bf;stroke:#000000;" x="251.334453" xlink:href="#C0_0_87cc619a74" y="289.7528"/>
    </g>
    <g clip-path="url(#p8ef0499107)">
     <use style="fill:#00bfbf;stroke:#000000;" x="317.278528" xlink:href="#C0_0_87cc619a74" y="310.381459"/>
    </g>
    <g clip-path="url(#p8ef0499107)">
     <use style="fill:#00bfbf;stroke:#000000;" x="274.933586" xlink:href="#C0_0_87cc619a74" y="295.728062"/>
    </g>
    <g clip-path="url(#p8ef0499107)">
     <use style="fill:#00bfbf;stroke:#000000;" x="237.61977" xlink:href="#C0_0_87cc619a74" y="276.538352"/>
    </g>
    <g clip-path="url(#p8ef0499107)">
     <use style="fill:#00bfbf;stroke:#000000;" x="154.244477" xlink:href="#C0_0_87cc619a74" y="298.805908"/>
    </g>
    <g clip-path="url(#p8ef0499107)">
     <use style="fill:#00bfbf;stroke:#000000;" x="208.098624" xlink:href="#C0_0_87cc619a74" y="296.746865"/>
    </g>
    <g clip-path="url(#p8ef0499107)">
     <use style="fill:#00bfbf;stroke:#000000;" x="156.783776" xlink:href="#C0_0_87cc619a74" y="50.990103"/>
    </g>
    <g clip-path="url(#p8ef0499107)">
     <use style="fill:#00bfbf;stroke:#000000;" x="236.176847" xlink:href="#C0_0_87cc619a74" y="258.991173"/>
    </g>
   </g>
   <g id="matplotlib.axis_1">
    <g id="text_1">
     <!-- 1st eigenvector -->
     <defs>
      <path d="M 12.40625 8.296875 
L 28.515625 8.296875 
L 28.515625 63.921875 
L 10.984375 60.40625 
L 10.984375 69.390625 
L 28.421875 72.90625 
L 38.28125 72.90625 
L 38.28125 8.296875 
L 54.390625 8.296875 
L 54.390625 0 
L 12.40625 0 
z
" id="DejaVuSans-49"/>
      <path d="M 44.28125 53.078125 
L 44.28125 44.578125 
Q 40.484375 46.53125 36.375 47.5 
Q 32.28125 48.484375 27.875 48.484375 
Q 21.1875 48.484375 17.84375 46.4375 
Q 14.5 44.390625 14.5 40.28125 
Q 14.5 37.15625 16.890625 35.375 
Q 19.28125 33.59375 26.515625 31.984375 
L 29.59375 31.296875 
Q 39.15625 29.25 43.1875 25.515625 
Q 47.21875 21.78125 47.21875 15.09375 
Q 47.21875 7.46875 41.1875 3.015625 
Q 35.15625 -1.421875 24.609375 -1.421875 
Q 20.21875 -1.421875 15.453125 -0.5625 
Q 10.6875 0.296875 5.421875 2 
L 5.421875 11.28125 
Q 10.40625 8.6875 15.234375 7.390625 
Q 20.0625 6.109375 24.8125 6.109375 
Q 31.15625 6.109375 34.5625 8.28125 
Q 37.984375 10.453125 37.984375 14.40625 
Q 37.984375 18.0625 35.515625 20.015625 
Q 33.0625 21.96875 24.703125 23.78125 
L 21.578125 24.515625 
Q 13.234375 26.265625 9.515625 29.90625 
Q 5.8125 33.546875 5.8125 39.890625 
Q 5.8125 47.609375 11.28125 51.796875 
Q 16.75 56 26.8125 56 
Q 31.78125 56 36.171875 55.265625 
Q 40.578125 54.546875 44.28125 53.078125 
z
" id="DejaVuSans-115"/>
      <path d="M 18.3125 70.21875 
L 18.3125 54.6875 
L 36.8125 54.6875 
L 36.8125 47.703125 
L 18.3125 47.703125 
L 18.3125 18.015625 
Q 18.3125 11.328125 20.140625 9.421875 
Q 21.96875 7.515625 27.59375 7.515625 
L 36.8125 7.515625 
L 36.8125 0 
L 27.59375 0 
Q 17.1875 0 13.234375 3.875 
Q 9.28125 7.765625 9.28125 18.015625 
L 9.28125 47.703125 
L 2.6875 47.703125 
L 2.6875 54.6875 
L 9.28125 54.6875 
L 9.28125 70.21875 
z
" id="DejaVuSans-116"/>
      <path id="DejaVuSans-32"/>
      <path d="M 56.203125 29.59375 
L 56.203125 25.203125 
L 14.890625 25.203125 
Q 15.484375 15.921875 20.484375 11.0625 
Q 25.484375 6.203125 34.421875 6.203125 
Q 39.59375 6.203125 44.453125 7.46875 
Q 49.3125 8.734375 54.109375 11.28125 
L 54.109375 2.78125 
Q 49.265625 0.734375 44.1875 -0.34375 
Q 39.109375 -1.421875 33.890625 -1.421875 
Q 20.796875 -1.421875 13.15625 6.1875 
Q 5.515625 13.8125 5.515625 26.8125 
Q 5.515625 40.234375 12.765625 48.109375 
Q 20.015625 56 32.328125 56 
Q 43.359375 56 49.78125 48.890625 
Q 56.203125 41.796875 56.203125 29.59375 
z
M 47.21875 32.234375 
Q 47.125 39.59375 43.09375 43.984375 
Q 39.0625 48.390625 32.421875 48.390625 
Q 24.90625 48.390625 20.390625 44.140625 
Q 15.875 39.890625 15.1875 32.171875 
z
" id="DejaVuSans-101"/>
      <path d="M 9.421875 54.6875 
L 18.40625 54.6875 
L 18.40625 0 
L 9.421875 0 
z
M 9.421875 75.984375 
L 18.40625 75.984375 
L 18.40625 64.59375 
L 9.421875 64.59375 
z
" id="DejaVuSans-105"/>
      <path d="M 45.40625 27.984375 
Q 45.40625 37.75 41.375 43.109375 
Q 37.359375 48.484375 30.078125 48.484375 
Q 22.859375 48.484375 18.828125 43.109375 
Q 14.796875 37.75 14.796875 27.984375 
Q 14.796875 18.265625 18.828125 12.890625 
Q 22.859375 7.515625 30.078125 7.515625 
Q 37.359375 7.515625 41.375 12.890625 
Q 45.40625 18.265625 45.40625 27.984375 
z
M 54.390625 6.78125 
Q 54.390625 -7.171875 48.1875 -13.984375 
Q 42 -20.796875 29.203125 -20.796875 
Q 24.46875 -20.796875 20.265625 -20.09375 
Q 16.0625 -19.390625 12.109375 -17.921875 
L 12.109375 -9.1875 
Q 16.0625 -11.328125 19.921875 -12.34375 
Q 23.78125 -13.375 27.78125 -13.375 
Q 36.625 -13.375 41.015625 -8.765625 
Q 45.40625 -4.15625 45.40625 5.171875 
L 45.40625 9.625 
Q 42.625 4.78125 38.28125 2.390625 
Q 33.9375 0 27.875 0 
Q 17.828125 0 11.671875 7.65625 
Q 5.515625 15.328125 5.515625 27.984375 
Q 5.515625 40.671875 11.671875 48.328125 
Q 17.828125 56 27.875 56 
Q 33.9375 56 38.28125 53.609375 
Q 42.625 51.21875 45.40625 46.390625 
L 45.40625 54.6875 
L 54.390625 54.6875 
z
" id="DejaVuSans-103"/>
      <path d="M 54.890625 33.015625 
L 54.890625 0 
L 45.90625 0 
L 45.90625 32.71875 
Q 45.90625 40.484375 42.875 44.328125 
Q 39.84375 48.1875 33.796875 48.1875 
Q 26.515625 48.1875 22.3125 43.546875 
Q 18.109375 38.921875 18.109375 30.90625 
L 18.109375 0 
L 9.078125 0 
L 9.078125 54.6875 
L 18.109375 54.6875 
L 18.109375 46.1875 
Q 21.34375 51.125 25.703125 53.5625 
Q 30.078125 56 35.796875 56 
Q 45.21875 56 50.046875 50.171875 
Q 54.890625 44.34375 54.890625 33.015625 
z
" id="DejaVuSans-110"/>
      <path d="M 2.984375 54.6875 
L 12.5 54.6875 
L 29.59375 8.796875 
L 46.6875 54.6875 
L 56.203125 54.6875 
L 35.6875 0 
L 23.484375 0 
z
" id="DejaVuSans-118"/>
      <path d="M 48.78125 52.59375 
L 48.78125 44.1875 
Q 44.96875 46.296875 41.140625 47.34375 
Q 37.3125 48.390625 33.40625 48.390625 
Q 24.65625 48.390625 19.8125 42.84375 
Q 14.984375 37.3125 14.984375 27.296875 
Q 14.984375 17.28125 19.8125 11.734375 
Q 24.65625 6.203125 33.40625 6.203125 
Q 37.3125 6.203125 41.140625 7.25 
Q 44.96875 8.296875 48.78125 10.40625 
L 48.78125 2.09375 
Q 45.015625 0.34375 40.984375 -0.53125 
Q 36.96875 -1.421875 32.421875 -1.421875 
Q 20.0625 -1.421875 12.78125 6.34375 
Q 5.515625 14.109375 5.515625 27.296875 
Q 5.515625 40.671875 12.859375 48.328125 
Q 20.21875 56 33.015625 56 
Q 37.15625 56 41.109375 55.140625 
Q 45.0625 54.296875 48.78125 52.59375 
z
" id="DejaVuSans-99"/>
      <path d="M 30.609375 48.390625 
Q 23.390625 48.390625 19.1875 42.75 
Q 14.984375 37.109375 14.984375 27.296875 
Q 14.984375 17.484375 19.15625 11.84375 
Q 23.34375 6.203125 30.609375 6.203125 
Q 37.796875 6.203125 41.984375 11.859375 
Q 46.1875 17.53125 46.1875 27.296875 
Q 46.1875 37.015625 41.984375 42.703125 
Q 37.796875 48.390625 30.609375 48.390625 
z
M 30.609375 56 
Q 42.328125 56 49.015625 48.375 
Q 55.71875 40.765625 55.71875 27.296875 
Q 55.71875 13.875 49.015625 6.21875 
Q 42.328125 -1.421875 30.609375 -1.421875 
Q 18.84375 -1.421875 12.171875 6.21875 
Q 5.515625 13.875 5.515625 27.296875 
Q 5.515625 40.765625 12.171875 48.375 
Q 18.84375 56 30.609375 56 
z
" id="DejaVuSans-111"/>
      <path d="M 41.109375 46.296875 
Q 39.59375 47.171875 37.8125 47.578125 
Q 36.03125 48 33.890625 48 
Q 26.265625 48 22.1875 43.046875 
Q 18.109375 38.09375 18.109375 28.8125 
L 18.109375 0 
L 9.078125 0 
L 9.078125 54.6875 
L 18.109375 54.6875 
L 18.109375 46.1875 
Q 20.953125 51.171875 25.484375 53.578125 
Q 30.03125 56 36.53125 56 
Q 37.453125 56 38.578125 55.875 
Q 39.703125 55.765625 41.0625 55.515625 
z
" id="DejaVuSans-114"/>
     </defs>
     <g transform="translate(204.997656 379.993937)scale(0.1 -0.1)">
      <use xlink:href="#DejaVuSans-49"/>
      <use x="63.623047" xlink:href="#DejaVuSans-115"/>
      <use x="115.722656" xlink:href="#DejaVuSans-116"/>
      <use x="154.931641" xlink:href="#DejaVuSans-32"/>
      <use x="186.71875" xlink:href="#DejaVuSans-101"/>
      <use x="248.242188" xlink:href="#DejaVuSans-105"/>
      <use x="276.025391" xlink:href="#DejaVuSans-103"/>
      <use x="339.501953" xlink:href="#DejaVuSans-101"/>
      <use x="401.025391" xlink:href="#DejaVuSans-110"/>
      <use x="464.404297" xlink:href="#DejaVuSans-118"/>
      <use x="523.583984" xlink:href="#DejaVuSans-101"/>
      <use x="585.107422" xlink:href="#DejaVuSans-99"/>
      <use x="640.087891" xlink:href="#DejaVuSans-116"/>
      <use x="679.296875" xlink:href="#DejaVuSans-111"/>
      <use x="740.478516" xlink:href="#DejaVuSans-114"/>
     </g>
    </g>
   </g>
   <g id="matplotlib.axis_2">
    <g id="text_2">
     <!-- 2nd eigenvector -->
     <defs>
      <path d="M 19.1875 8.296875 
L 53.609375 8.296875 
L 53.609375 0 
L 7.328125 0 
L 7.328125 8.296875 
Q 12.9375 14.109375 22.625 23.890625 
Q 32.328125 33.6875 34.8125 36.53125 
Q 39.546875 41.84375 41.421875 45.53125 
Q 43.3125 49.21875 43.3125 52.78125 
Q 43.3125 58.59375 39.234375 62.25 
Q 35.15625 65.921875 28.609375 65.921875 
Q 23.96875 65.921875 18.8125 64.3125 
Q 13.671875 62.703125 7.8125 59.421875 
L 7.8125 69.390625 
Q 13.765625 71.78125 18.9375 73 
Q 24.125 74.21875 28.421875 74.21875 
Q 39.75 74.21875 46.484375 68.546875 
Q 53.21875 62.890625 53.21875 53.421875 
Q 53.21875 48.921875 51.53125 44.890625 
Q 49.859375 40.875 45.40625 35.40625 
Q 44.1875 33.984375 37.640625 27.21875 
Q 31.109375 20.453125 19.1875 8.296875 
z
" id="DejaVuSans-50"/>
      <path d="M 45.40625 46.390625 
L 45.40625 75.984375 
L 54.390625 75.984375 
L 54.390625 0 
L 45.40625 0 
L 45.40625 8.203125 
Q 42.578125 3.328125 38.25 0.953125 
Q 33.9375 -1.421875 27.875 -1.421875 
Q 17.96875 -1.421875 11.734375 6.484375 
Q 5.515625 14.40625 5.515625 27.296875 
Q 5.515625 40.1875 11.734375 48.09375 
Q 17.96875 56 27.875 56 
Q 33.9375 56 38.25 53.625 
Q 42.578125 51.265625 45.40625 46.390625 
z
M 14.796875 27.296875 
Q 14.796875 17.390625 18.875 11.75 
Q 22.953125 6.109375 30.078125 6.109375 
Q 37.203125 6.109375 41.296875 11.75 
Q 45.40625 17.390625 45.40625 27.296875 
Q 45.40625 37.203125 41.296875 42.84375 
Q 37.203125 48.484375 30.078125 48.484375 
Q 22.953125 48.484375 18.875 42.84375 
Q 14.796875 37.203125 14.796875 27.296875 
z
" id="DejaVuSans-100"/>
     </defs>
     <g transform="translate(14.798438 242.934094)rotate(-90)scale(0.1 -0.1)">
      <use xlink:href="#DejaVuSans-50"/>
      <use x="63.623047" xlink:href="#DejaVuSans-110"/>
      <use x="127.001953" xlink:href="#DejaVuSans-100"/>
      <use x="190.478516" xlink:href="#DejaVuSans-32"/>
      <use x="222.265625" xlink:href="#DejaVuSans-101"/>
      <use x="283.789062" xlink:href="#DejaVuSans-105"/>
      <use x="311.572266" xlink:href="#DejaVuSans-103"/>
      <use x="375.048828" xlink:href="#DejaVuSans-101"/>
      <use x="436.572266" xlink:href="#DejaVuSans-110"/>
      <use x="499.951172" xlink:href="#DejaVuSans-118"/>
      <use x="559.130859" xlink:href="#DejaVuSans-101"/>
      <use x="620.654297" xlink:href="#DejaVuSans-99"/>
      <use x="675.634766" xlink:href="#DejaVuSans-116"/>
      <use x="714.84375" xlink:href="#DejaVuSans-111"/>
      <use x="776.025391" xlink:href="#DejaVuSans-114"/>
     </g>
    </g>
   </g>
   <g id="patch_3">
    <path d="M 20.878125 368.3955 
L 20.878125 35.7555 
" style="fill:none;stroke:#000000;stroke-linecap:square;stroke-linejoin:miter;stroke-width:0.8;"/>
   </g>
   <g id="patch_4">
    <path d="M 467.278125 368.3955 
L 467.278125 35.7555 
" style="fill:none;stroke:#000000;stroke-linecap:square;stroke-linejoin:miter;stroke-width:0.8;"/>
   </g>
   <g id="patch_5">
    <path d="M 20.878125 368.3955 
L 467.278125 368.3955 
" style="fill:none;stroke:#000000;stroke-linecap:square;stroke-linejoin:miter;stroke-width:0.8;"/>
   </g>
   <g id="patch_6">
    <path d="M 20.878125 35.7555 
L 467.278125 35.7555 
" style="fill:none;stroke:#000000;stroke-linecap:square;stroke-linejoin:miter;stroke-width:0.8;"/>
   </g>
   <g id="text_3">
    <!-- Prognostic ptsd task tax level 5 pca 8 -->
    <defs>
     <path d="M 19.671875 64.796875 
L 19.671875 37.40625 
L 32.078125 37.40625 
Q 38.96875 37.40625 42.71875 40.96875 
Q 46.484375 44.53125 46.484375 51.125 
Q 46.484375 57.671875 42.71875 61.234375 
Q 38.96875 64.796875 32.078125 64.796875 
z
M 9.8125 72.90625 
L 32.078125 72.90625 
Q 44.34375 72.90625 50.609375 67.359375 
Q 56.890625 61.8125 56.890625 51.125 
Q 56.890625 40.328125 50.609375 34.8125 
Q 44.34375 29.296875 32.078125 29.296875 
L 19.671875 29.296875 
L 19.671875 0 
L 9.8125 0 
z
" id="DejaVuSans-80"/>
     <path d="M 18.109375 8.203125 
L 18.109375 -20.796875 
L 9.078125 -20.796875 
L 9.078125 54.6875 
L 18.109375 54.6875 
L 18.109375 46.390625 
Q 20.953125 51.265625 25.265625 53.625 
Q 29.59375 56 35.59375 56 
Q 45.5625 56 51.78125 48.09375 
Q 58.015625 40.1875 58.015625 27.296875 
Q 58.015625 14.40625 51.78125 6.484375 
Q 45.5625 -1.421875 35.59375 -1.421875 
Q 29.59375 -1.421875 25.265625 0.953125 
Q 20.953125 3.328125 18.109375 8.203125 
z
M 48.6875 27.296875 
Q 48.6875 37.203125 44.609375 42.84375 
Q 40.53125 48.484375 33.40625 48.484375 
Q 26.265625 48.484375 22.1875 42.84375 
Q 18.109375 37.203125 18.109375 27.296875 
Q 18.109375 17.390625 22.1875 11.75 
Q 26.265625 6.109375 33.40625 6.109375 
Q 40.53125 6.109375 44.609375 11.75 
Q 48.6875 17.390625 48.6875 27.296875 
z
" id="DejaVuSans-112"/>
     <path d="M 34.28125 27.484375 
Q 23.390625 27.484375 19.1875 25 
Q 14.984375 22.515625 14.984375 16.5 
Q 14.984375 11.71875 18.140625 8.90625 
Q 21.296875 6.109375 26.703125 6.109375 
Q 34.1875 6.109375 38.703125 11.40625 
Q 43.21875 16.703125 43.21875 25.484375 
L 43.21875 27.484375 
z
M 52.203125 31.203125 
L 52.203125 0 
L 43.21875 0 
L 43.21875 8.296875 
Q 40.140625 3.328125 35.546875 0.953125 
Q 30.953125 -1.421875 24.3125 -1.421875 
Q 15.921875 -1.421875 10.953125 3.296875 
Q 6 8.015625 6 15.921875 
Q 6 25.140625 12.171875 29.828125 
Q 18.359375 34.515625 30.609375 34.515625 
L 43.21875 34.515625 
L 43.21875 35.40625 
Q 43.21875 41.609375 39.140625 45 
Q 35.0625 48.390625 27.6875 48.390625 
Q 23 48.390625 18.546875 47.265625 
Q 14.109375 46.140625 10.015625 43.890625 
L 10.015625 52.203125 
Q 14.9375 54.109375 19.578125 55.046875 
Q 24.21875 56 28.609375 56 
Q 40.484375 56 46.34375 49.84375 
Q 52.203125 43.703125 52.203125 31.203125 
z
" id="DejaVuSans-97"/>
     <path d="M 9.078125 75.984375 
L 18.109375 75.984375 
L 18.109375 31.109375 
L 44.921875 54.6875 
L 56.390625 54.6875 
L 27.390625 29.109375 
L 57.625 0 
L 45.90625 0 
L 18.109375 26.703125 
L 18.109375 0 
L 9.078125 0 
z
" id="DejaVuSans-107"/>
     <path d="M 54.890625 54.6875 
L 35.109375 28.078125 
L 55.90625 0 
L 45.3125 0 
L 29.390625 21.484375 
L 13.484375 0 
L 2.875 0 
L 24.125 28.609375 
L 4.6875 54.6875 
L 15.28125 54.6875 
L 29.78125 35.203125 
L 44.28125 54.6875 
z
" id="DejaVuSans-120"/>
     <path d="M 9.421875 75.984375 
L 18.40625 75.984375 
L 18.40625 0 
L 9.421875 0 
z
" id="DejaVuSans-108"/>
     <path d="M 10.796875 72.90625 
L 49.515625 72.90625 
L 49.515625 64.59375 
L 19.828125 64.59375 
L 19.828125 46.734375 
Q 21.96875 47.46875 24.109375 47.828125 
Q 26.265625 48.1875 28.421875 48.1875 
Q 40.625 48.1875 47.75 41.5 
Q 54.890625 34.8125 54.890625 23.390625 
Q 54.890625 11.625 47.5625 5.09375 
Q 40.234375 -1.421875 26.90625 -1.421875 
Q 22.3125 -1.421875 17.546875 -0.640625 
Q 12.796875 0.140625 7.71875 1.703125 
L 7.71875 11.625 
Q 12.109375 9.234375 16.796875 8.0625 
Q 21.484375 6.890625 26.703125 6.890625 
Q 35.15625 6.890625 40.078125 11.328125 
Q 45.015625 15.765625 45.015625 23.390625 
Q 45.015625 31 40.078125 35.4375 
Q 35.15625 39.890625 26.703125 39.890625 
Q 22.75 39.890625 18.8125 39.015625 
Q 14.890625 38.140625 10.796875 36.28125 
z
" id="DejaVuSans-53"/>
     <path d="M 31.78125 34.625 
Q 24.75 34.625 20.71875 30.859375 
Q 16.703125 27.09375 16.703125 20.515625 
Q 16.703125 13.921875 20.71875 10.15625 
Q 24.75 6.390625 31.78125 6.390625 
Q 38.8125 6.390625 42.859375 10.171875 
Q 46.921875 13.96875 46.921875 20.515625 
Q 46.921875 27.09375 42.890625 30.859375 
Q 38.875 34.625 31.78125 34.625 
z
M 21.921875 38.8125 
Q 15.578125 40.375 12.03125 44.71875 
Q 8.5 49.078125 8.5 55.328125 
Q 8.5 64.0625 14.71875 69.140625 
Q 20.953125 74.21875 31.78125 74.21875 
Q 42.671875 74.21875 48.875 69.140625 
Q 55.078125 64.0625 55.078125 55.328125 
Q 55.078125 49.078125 51.53125 44.71875 
Q 48 40.375 41.703125 38.8125 
Q 48.828125 37.15625 52.796875 32.3125 
Q 56.78125 27.484375 56.78125 20.515625 
Q 56.78125 9.90625 50.3125 4.234375 
Q 43.84375 -1.421875 31.78125 -1.421875 
Q 19.734375 -1.421875 13.25 4.234375 
Q 6.78125 9.90625 6.78125 20.515625 
Q 6.78125 27.484375 10.78125 32.3125 
Q 14.796875 37.15625 21.921875 38.8125 
z
M 18.3125 54.390625 
Q 18.3125 48.734375 21.84375 45.5625 
Q 25.390625 42.390625 31.78125 42.390625 
Q 38.140625 42.390625 41.71875 45.5625 
Q 45.3125 48.734375 45.3125 54.390625 
Q 45.3125 60.0625 41.71875 63.234375 
Q 38.140625 66.40625 31.78125 66.40625 
Q 25.390625 66.40625 21.84375 63.234375 
Q 18.3125 60.0625 18.3125 54.390625 
z
" id="DejaVuSans-56"/>
    </defs>
    <g transform="translate(131.256563 16.318125)scale(0.12 -0.12)">
     <use xlink:href="#DejaVuSans-80"/>
     <use x="60.287109" xlink:href="#DejaVuSans-114"/>
     <use x="101.369141" xlink:href="#DejaVuSans-111"/>
     <use x="162.550781" xlink:href="#DejaVuSans-103"/>
     <use x="226.027344" xlink:href="#DejaVuSans-110"/>
     <use x="289.40625" xlink:href="#DejaVuSans-111"/>
     <use x="350.587891" xlink:href="#DejaVuSans-115"/>
     <use x="402.6875" xlink:href="#DejaVuSans-116"/>
     <use x="441.896484" xlink:href="#DejaVuSans-105"/>
     <use x="469.679688" xlink:href="#DejaVuSans-99"/>
     <use x="524.660156" xlink:href="#DejaVuSans-32"/>
     <use x="556.447266" xlink:href="#DejaVuSans-112"/>
     <use x="619.923828" xlink:href="#DejaVuSans-116"/>
     <use x="659.132812" xlink:href="#DejaVuSans-115"/>
     <use x="711.232422" xlink:href="#DejaVuSans-100"/>
     <use x="774.708984" xlink:href="#DejaVuSans-32"/>
     <use x="806.496094" xlink:href="#DejaVuSans-116"/>
     <use x="845.705078" xlink:href="#DejaVuSans-97"/>
     <use x="906.984375" xlink:href="#DejaVuSans-115"/>
     <use x="959.083984" xlink:href="#DejaVuSans-107"/>
     <use x="1016.994141" xlink:href="#DejaVuSans-32"/>
     <use x="1048.78125" xlink:href="#DejaVuSans-116"/>
     <use x="1087.990234" xlink:href="#DejaVuSans-97"/>
     <use x="1149.269531" xlink:href="#DejaVuSans-120"/>
     <use x="1208.449219" xlink:href="#DejaVuSans-32"/>
     <use x="1240.236328" xlink:href="#DejaVuSans-108"/>
     <use x="1268.019531" xlink:href="#DejaVuSans-101"/>
     <use x="1329.542969" xlink:href="#DejaVuSans-118"/>
     <use x="1388.722656" xlink:href="#DejaVuSans-101"/>
     <use x="1450.246094" xlink:href="#DejaVuSans-108"/>
     <use x="1478.029297" xlink:href="#DejaVuSans-32"/>
     <use x="1509.816406" xlink:href="#DejaVuSans-53"/>
     <use x="1573.439453" xlink:href="#DejaVuSans-32"/>
     <use x="1605.226562" xlink:href="#DejaVuSans-112"/>
     <use x="1668.703125" xlink:href="#DejaVuSans-99"/>
     <use x="1723.683594" xlink:href="#DejaVuSans-97"/>
     <use x="1784.962891" xlink:href="#DejaVuSans-32"/>
     <use x="1816.75" xlink:href="#DejaVuSans-56"/>
    </g>
    <!-- First two PCA directions -->
    <defs>
     <path d="M 9.8125 72.90625 
L 51.703125 72.90625 
L 51.703125 64.59375 
L 19.671875 64.59375 
L 19.671875 43.109375 
L 48.578125 43.109375 
L 48.578125 34.8125 
L 19.671875 34.8125 
L 19.671875 0 
L 9.8125 0 
z
" id="DejaVuSans-70"/>
     <path d="M 4.203125 54.6875 
L 13.1875 54.6875 
L 24.421875 12.015625 
L 35.59375 54.6875 
L 46.1875 54.6875 
L 57.421875 12.015625 
L 68.609375 54.6875 
L 77.59375 54.6875 
L 63.28125 0 
L 52.6875 0 
L 40.921875 44.828125 
L 29.109375 0 
L 18.5 0 
z
" id="DejaVuSans-119"/>
     <path d="M 64.40625 67.28125 
L 64.40625 56.890625 
Q 59.421875 61.53125 53.78125 63.8125 
Q 48.140625 66.109375 41.796875 66.109375 
Q 29.296875 66.109375 22.65625 58.46875 
Q 16.015625 50.828125 16.015625 36.375 
Q 16.015625 21.96875 22.65625 14.328125 
Q 29.296875 6.6875 41.796875 6.6875 
Q 48.140625 6.6875 53.78125 8.984375 
Q 59.421875 11.28125 64.40625 15.921875 
L 64.40625 5.609375 
Q 59.234375 2.09375 53.4375 0.328125 
Q 47.65625 -1.421875 41.21875 -1.421875 
Q 24.65625 -1.421875 15.125 8.703125 
Q 5.609375 18.84375 5.609375 36.375 
Q 5.609375 53.953125 15.125 64.078125 
Q 24.65625 74.21875 41.21875 74.21875 
Q 47.75 74.21875 53.53125 72.484375 
Q 59.328125 70.75 64.40625 67.28125 
z
" id="DejaVuSans-67"/>
     <path d="M 34.1875 63.1875 
L 20.796875 26.90625 
L 47.609375 26.90625 
z
M 28.609375 72.90625 
L 39.796875 72.90625 
L 67.578125 0 
L 57.328125 0 
L 50.6875 18.703125 
L 17.828125 18.703125 
L 11.1875 0 
L 0.78125 0 
z
" id="DejaVuSans-65"/>
    </defs>
    <g transform="translate(172.909688 29.7555)scale(0.12 -0.12)">
     <use xlink:href="#DejaVuSans-70"/>
     <use x="57.410156" xlink:href="#DejaVuSans-105"/>
     <use x="85.193359" xlink:href="#DejaVuSans-114"/>
     <use x="126.306641" xlink:href="#DejaVuSans-115"/>
     <use x="178.40625" xlink:href="#DejaVuSans-116"/>
     <use x="217.615234" xlink:href="#DejaVuSans-32"/>
     <use x="249.402344" xlink:href="#DejaVuSans-116"/>
     <use x="288.611328" xlink:href="#DejaVuSans-119"/>
     <use x="370.398438" xlink:href="#DejaVuSans-111"/>
     <use x="431.580078" xlink:href="#DejaVuSans-32"/>
     <use x="463.367188" xlink:href="#DejaVuSans-80"/>
     <use x="523.669922" xlink:href="#DejaVuSans-67"/>
     <use x="593.494141" xlink:href="#DejaVuSans-65"/>
     <use x="661.902344" xlink:href="#DejaVuSans-32"/>
     <use x="693.689453" xlink:href="#DejaVuSans-100"/>
     <use x="757.166016" xlink:href="#DejaVuSans-105"/>
     <use x="784.949219" xlink:href="#DejaVuSans-114"/>
     <use x="826.03125" xlink:href="#DejaVuSans-101"/>
     <use x="887.554688" xlink:href="#DejaVuSans-99"/>
     <use x="942.535156" xlink:href="#DejaVuSans-116"/>
     <use x="981.744141" xlink:href="#DejaVuSans-105"/>
     <use x="1009.527344" xlink:href="#DejaVuSans-111"/>
     <use x="1070.708984" xlink:href="#DejaVuSans-110"/>
     <use x="1134.087891" xlink:href="#DejaVuSans-115"/>
    </g>
   </g>
  </g>
 </g>
 <defs>
  <clipPath id="p8ef0499107">
   <rect height="332.64" width="446.4" x="20.878125" y="35.7555"/>
  </clipPath>
 </defs>
</svg>
