<?xml version="1.0" encoding="utf-8" standalone="no"?>
<!DOCTYPE svg PUBLIC "-//W3C//DTD SVG 1.1//EN"
  "http://www.w3.org/Graphics/SVG/1.1/DTD/svg11.dtd">
<!-- Created with matplotlib (https://matplotlib.org/) -->
<svg height="325.986375pt" version="1.1" viewBox="0 0 408.423125 325.986375" width="408.423125pt" xmlns="http://www.w3.org/2000/svg" xmlns:xlink="http://www.w3.org/1999/xlink">
 <defs>
  <style type="text/css">
*{stroke-linecap:butt;stroke-linejoin:round;}
  </style>
 </defs>
 <g id="figure_1">
  <g id="patch_1">
   <path d="M 0 325.986375 
L 408.423125 325.986375 
L 408.423125 0 
L 0 0 
z
" style="fill:#ffffff;"/>
  </g>
  <g id="axes_1">
   <g id="patch_2">
    <path d="M 40.603125 288.430125 
L 397.723125 288.430125 
L 397.723125 22.318125 
L 40.603125 22.318125 
z
" style="fill:#ffffff;"/>
   </g>
   <g id="patch_3">
    <path clip-path="url(#p6ecec561fb)" d="M 124.24381 288.430125 
L 127.330993 288.430125 
L 127.330993 286.126125 
L 124.24381 286.126125 
z
" style="fill:#d95f0e;opacity:0.5;"/>
   </g>
   <g id="patch_4">
    <path clip-path="url(#p6ecec561fb)" d="M 128.102788 288.430125 
L 131.18997 288.430125 
L 131.18997 286.126125 
L 128.102788 286.126125 
z
" style="fill:#d95f0e;opacity:0.5;"/>
   </g>
   <g id="patch_5">
    <path clip-path="url(#p6ecec561fb)" d="M 131.961766 288.430125 
L 135.048948 288.430125 
L 135.048948 286.126125 
L 131.961766 286.126125 
z
" style="fill:#d95f0e;opacity:0.5;"/>
   </g>
   <g id="patch_6">
    <path clip-path="url(#p6ecec561fb)" d="M 135.820744 288.430125 
L 138.907926 288.430125 
L 138.907926 286.126125 
L 135.820744 286.126125 
z
" style="fill:#d95f0e;opacity:0.5;"/>
   </g>
   <g id="patch_7">
    <path clip-path="url(#p6ecec561fb)" d="M 139.679721 288.430125 
L 142.766904 288.430125 
L 142.766904 286.126125 
L 139.679721 286.126125 
z
" style="fill:#d95f0e;opacity:0.5;"/>
   </g>
   <g id="patch_8">
    <path clip-path="url(#p6ecec561fb)" d="M 143.538699 288.430125 
L 146.625881 288.430125 
L 146.625881 276.910125 
L 143.538699 276.910125 
z
" style="fill:#d95f0e;opacity:0.5;"/>
   </g>
   <g id="patch_9">
    <path clip-path="url(#p6ecec561fb)" d="M 147.397677 288.430125 
L 150.484859 288.430125 
L 150.484859 286.126125 
L 147.397677 286.126125 
z
" style="fill:#d95f0e;opacity:0.5;"/>
   </g>
   <g id="patch_10">
    <path clip-path="url(#p6ecec561fb)" d="M 151.256655 288.430125 
L 154.343837 288.430125 
L 154.343837 256.174125 
L 151.256655 256.174125 
z
" style="fill:#d95f0e;opacity:0.5;"/>
   </g>
   <g id="patch_11">
    <path clip-path="url(#p6ecec561fb)" d="M 155.115633 288.430125 
L 158.202815 288.430125 
L 158.202815 272.302125 
L 155.115633 272.302125 
z
" style="fill:#d95f0e;opacity:0.5;"/>
   </g>
   <g id="patch_12">
    <path clip-path="url(#p6ecec561fb)" d="M 158.97461 288.430125 
L 162.061793 288.430125 
L 162.061793 276.910125 
L 158.97461 276.910125 
z
" style="fill:#d95f0e;opacity:0.5;"/>
   </g>
   <g id="patch_13">
    <path clip-path="url(#p6ecec561fb)" d="M 162.833588 288.430125 
L 165.92077 288.430125 
L 165.92077 276.910125 
L 162.833588 276.910125 
z
" style="fill:#d95f0e;opacity:0.5;"/>
   </g>
   <g id="patch_14">
    <path clip-path="url(#p6ecec561fb)" d="M 166.692566 288.430125 
L 169.779748 288.430125 
L 169.779748 269.998125 
L 166.692566 269.998125 
z
" style="fill:#d95f0e;opacity:0.5;"/>
   </g>
   <g id="patch_15">
    <path clip-path="url(#p6ecec561fb)" d="M 170.551544 288.430125 
L 173.638726 288.430125 
L 173.638726 283.822125 
L 170.551544 283.822125 
z
" style="fill:#d95f0e;opacity:0.5;"/>
   </g>
   <g id="patch_16">
    <path clip-path="url(#p6ecec561fb)" d="M 174.410522 288.430125 
L 177.497704 288.430125 
L 177.497704 267.694125 
L 174.410522 267.694125 
z
" style="fill:#d95f0e;opacity:0.5;"/>
   </g>
   <g id="patch_17">
    <path clip-path="url(#p6ecec561fb)" d="M 178.269499 288.430125 
L 181.356682 288.430125 
L 181.356682 265.390125 
L 178.269499 265.390125 
z
" style="fill:#d95f0e;opacity:0.5;"/>
   </g>
   <g id="patch_18">
    <path clip-path="url(#p6ecec561fb)" d="M 182.128477 288.430125 
L 185.215659 288.430125 
L 185.215659 256.174125 
L 182.128477 256.174125 
z
" style="fill:#d95f0e;opacity:0.5;"/>
   </g>
   <g id="patch_19">
    <path clip-path="url(#p6ecec561fb)" d="M 185.987455 288.430125 
L 189.074637 288.430125 
L 189.074637 274.606125 
L 185.987455 274.606125 
z
" style="fill:#d95f0e;opacity:0.5;"/>
   </g>
   <g id="patch_20">
    <path clip-path="url(#p6ecec561fb)" d="M 189.846433 288.430125 
L 192.933615 288.430125 
L 192.933615 244.654125 
L 189.846433 244.654125 
z
" style="fill:#d95f0e;opacity:0.5;"/>
   </g>
   <g id="patch_21">
    <path clip-path="url(#p6ecec561fb)" d="M 193.705411 288.430125 
L 196.792593 288.430125 
L 196.792593 263.086125 
L 193.705411 263.086125 
z
" style="fill:#d95f0e;opacity:0.5;"/>
   </g>
   <g id="patch_22">
    <path clip-path="url(#p6ecec561fb)" d="M 197.564388 288.430125 
L 200.651571 288.430125 
L 200.651571 256.174125 
L 197.564388 256.174125 
z
" style="fill:#d95f0e;opacity:0.5;"/>
   </g>
   <g id="patch_23">
    <path clip-path="url(#p6ecec561fb)" d="M 201.423366 288.430125 
L 204.510548 288.430125 
L 204.510548 256.174125 
L 201.423366 256.174125 
z
" style="fill:#d95f0e;opacity:0.5;"/>
   </g>
   <g id="patch_24">
    <path clip-path="url(#p6ecec561fb)" d="M 205.282344 288.430125 
L 208.369526 288.430125 
L 208.369526 237.742125 
L 205.282344 237.742125 
z
" style="fill:#d95f0e;opacity:0.5;"/>
   </g>
   <g id="patch_25">
    <path clip-path="url(#p6ecec561fb)" d="M 209.141322 288.430125 
L 212.228504 288.430125 
L 212.228504 228.526125 
L 209.141322 228.526125 
z
" style="fill:#d95f0e;opacity:0.5;"/>
   </g>
   <g id="patch_26">
    <path clip-path="url(#p6ecec561fb)" d="M 213.000299 288.430125 
L 216.087482 288.430125 
L 216.087482 249.262125 
L 213.000299 249.262125 
z
" style="fill:#d95f0e;opacity:0.5;"/>
   </g>
   <g id="patch_27">
    <path clip-path="url(#p6ecec561fb)" d="M 216.859277 288.430125 
L 219.94646 288.430125 
L 219.94646 205.486125 
L 216.859277 205.486125 
z
" style="fill:#d95f0e;opacity:0.5;"/>
   </g>
   <g id="patch_28">
    <path clip-path="url(#p6ecec561fb)" d="M 220.718255 288.430125 
L 223.805437 288.430125 
L 223.805437 205.486125 
L 220.718255 205.486125 
z
" style="fill:#d95f0e;opacity:0.5;"/>
   </g>
   <g id="patch_29">
    <path clip-path="url(#p6ecec561fb)" d="M 224.577233 288.430125 
L 227.664415 288.430125 
L 227.664415 235.438125 
L 224.577233 235.438125 
z
" style="fill:#d95f0e;opacity:0.5;"/>
   </g>
   <g id="patch_30">
    <path clip-path="url(#p6ecec561fb)" d="M 228.436211 288.430125 
L 231.523393 288.430125 
L 231.523393 217.006125 
L 228.436211 217.006125 
z
" style="fill:#d95f0e;opacity:0.5;"/>
   </g>
   <g id="patch_31">
    <path clip-path="url(#p6ecec561fb)" d="M 232.295188 288.430125 
L 235.382371 288.430125 
L 235.382371 242.350125 
L 232.295188 242.350125 
z
" style="fill:#d95f0e;opacity:0.5;"/>
   </g>
   <g id="patch_32">
    <path clip-path="url(#p6ecec561fb)" d="M 236.154166 288.430125 
L 239.241348 288.430125 
L 239.241348 235.438125 
L 236.154166 235.438125 
z
" style="fill:#d95f0e;opacity:0.5;"/>
   </g>
   <g id="patch_33">
    <path clip-path="url(#p6ecec561fb)" d="M 240.013144 288.430125 
L 243.100326 288.430125 
L 243.100326 196.270125 
L 240.013144 196.270125 
z
" style="fill:#d95f0e;opacity:0.5;"/>
   </g>
   <g id="patch_34">
    <path clip-path="url(#p6ecec561fb)" d="M 243.872122 288.430125 
L 246.959304 288.430125 
L 246.959304 258.478125 
L 243.872122 258.478125 
z
" style="fill:#d95f0e;opacity:0.5;"/>
   </g>
   <g id="patch_35">
    <path clip-path="url(#p6ecec561fb)" d="M 247.7311 288.430125 
L 250.818282 288.430125 
L 250.818282 226.222125 
L 247.7311 226.222125 
z
" style="fill:#d95f0e;opacity:0.5;"/>
   </g>
   <g id="patch_36">
    <path clip-path="url(#p6ecec561fb)" d="M 251.590077 288.430125 
L 254.67726 288.430125 
L 254.67726 237.742125 
L 251.590077 237.742125 
z
" style="fill:#d95f0e;opacity:0.5;"/>
   </g>
   <g id="patch_37">
    <path clip-path="url(#p6ecec561fb)" d="M 255.449055 288.430125 
L 258.536237 288.430125 
L 258.536237 249.262125 
L 255.449055 249.262125 
z
" style="fill:#d95f0e;opacity:0.5;"/>
   </g>
   <g id="patch_38">
    <path clip-path="url(#p6ecec561fb)" d="M 259.308033 288.430125 
L 262.395215 288.430125 
L 262.395215 228.526125 
L 259.308033 228.526125 
z
" style="fill:#d95f0e;opacity:0.5;"/>
   </g>
   <g id="patch_39">
    <path clip-path="url(#p6ecec561fb)" d="M 263.167011 288.430125 
L 266.254193 288.430125 
L 266.254193 263.086125 
L 263.167011 263.086125 
z
" style="fill:#d95f0e;opacity:0.5;"/>
   </g>
   <g id="patch_40">
    <path clip-path="url(#p6ecec561fb)" d="M 267.025989 288.430125 
L 270.113171 288.430125 
L 270.113171 265.390125 
L 267.025989 265.390125 
z
" style="fill:#d95f0e;opacity:0.5;"/>
   </g>
   <g id="patch_41">
    <path clip-path="url(#p6ecec561fb)" d="M 270.884966 288.430125 
L 273.972149 288.430125 
L 273.972149 263.086125 
L 270.884966 263.086125 
z
" style="fill:#d95f0e;opacity:0.5;"/>
   </g>
   <g id="patch_42">
    <path clip-path="url(#p6ecec561fb)" d="M 274.743944 288.430125 
L 277.831126 288.430125 
L 277.831126 244.654125 
L 274.743944 244.654125 
z
" style="fill:#d95f0e;opacity:0.5;"/>
   </g>
   <g id="patch_43">
    <path clip-path="url(#p6ecec561fb)" d="M 278.602922 288.430125 
L 281.690104 288.430125 
L 281.690104 276.910125 
L 278.602922 276.910125 
z
" style="fill:#d95f0e;opacity:0.5;"/>
   </g>
   <g id="patch_44">
    <path clip-path="url(#p6ecec561fb)" d="M 282.4619 288.430125 
L 285.549082 288.430125 
L 285.549082 265.390125 
L 282.4619 265.390125 
z
" style="fill:#d95f0e;opacity:0.5;"/>
   </g>
   <g id="patch_45">
    <path clip-path="url(#p6ecec561fb)" d="M 286.320878 288.430125 
L 289.40806 288.430125 
L 289.40806 272.302125 
L 286.320878 272.302125 
z
" style="fill:#d95f0e;opacity:0.5;"/>
   </g>
   <g id="patch_46">
    <path clip-path="url(#p6ecec561fb)" d="M 290.179855 288.430125 
L 293.267038 288.430125 
L 293.267038 279.214125 
L 290.179855 279.214125 
z
" style="fill:#d95f0e;opacity:0.5;"/>
   </g>
   <g id="patch_47">
    <path clip-path="url(#p6ecec561fb)" d="M 294.038833 288.430125 
L 297.126015 288.430125 
L 297.126015 274.606125 
L 294.038833 274.606125 
z
" style="fill:#d95f0e;opacity:0.5;"/>
   </g>
   <g id="patch_48">
    <path clip-path="url(#p6ecec561fb)" d="M 297.897811 288.430125 
L 300.984993 288.430125 
L 300.984993 279.214125 
L 297.897811 279.214125 
z
" style="fill:#d95f0e;opacity:0.5;"/>
   </g>
   <g id="patch_49">
    <path clip-path="url(#p6ecec561fb)" d="M 301.756789 288.430125 
L 304.843971 288.430125 
L 304.843971 283.822125 
L 301.756789 283.822125 
z
" style="fill:#d95f0e;opacity:0.5;"/>
   </g>
   <g id="patch_50">
    <path clip-path="url(#p6ecec561fb)" d="M 305.615766 288.430125 
L 308.702949 288.430125 
L 308.702949 288.430125 
L 305.615766 288.430125 
z
" style="fill:#d95f0e;opacity:0.5;"/>
   </g>
   <g id="patch_51">
    <path clip-path="url(#p6ecec561fb)" d="M 309.474744 288.430125 
L 312.561927 288.430125 
L 312.561927 283.822125 
L 309.474744 283.822125 
z
" style="fill:#d95f0e;opacity:0.5;"/>
   </g>
   <g id="patch_52">
    <path clip-path="url(#p6ecec561fb)" d="M 313.333722 288.430125 
L 316.420904 288.430125 
L 316.420904 286.126125 
L 313.333722 286.126125 
z
" style="fill:#d95f0e;opacity:0.5;"/>
   </g>
   <g id="patch_53">
    <path clip-path="url(#p6ecec561fb)" d="M 56.835852 288.430125 
L 59.923035 288.430125 
L 59.923035 265.390125 
L 56.835852 265.390125 
z
" style="fill:#43a2ca;opacity:0.8;"/>
   </g>
   <g id="patch_54">
    <path clip-path="url(#p6ecec561fb)" d="M 63.398452 288.430125 
L 66.485634 288.430125 
L 66.485634 288.430125 
L 63.398452 288.430125 
z
" style="fill:#43a2ca;opacity:0.8;"/>
   </g>
   <g id="patch_55">
    <path clip-path="url(#p6ecec561fb)" d="M 69.961051 288.430125 
L 73.048233 288.430125 
L 73.048233 288.430125 
L 69.961051 288.430125 
z
" style="fill:#43a2ca;opacity:0.8;"/>
   </g>
   <g id="patch_56">
    <path clip-path="url(#p6ecec561fb)" d="M 76.52365 288.430125 
L 79.610832 288.430125 
L 79.610832 288.430125 
L 76.52365 288.430125 
z
" style="fill:#43a2ca;opacity:0.8;"/>
   </g>
   <g id="patch_57">
    <path clip-path="url(#p6ecec561fb)" d="M 83.086249 288.430125 
L 86.173432 288.430125 
L 86.173432 288.430125 
L 83.086249 288.430125 
z
" style="fill:#43a2ca;opacity:0.8;"/>
   </g>
   <g id="patch_58">
    <path clip-path="url(#p6ecec561fb)" d="M 89.648849 288.430125 
L 92.736031 288.430125 
L 92.736031 288.430125 
L 89.648849 288.430125 
z
" style="fill:#43a2ca;opacity:0.8;"/>
   </g>
   <g id="patch_59">
    <path clip-path="url(#p6ecec561fb)" d="M 96.211448 288.430125 
L 99.29863 288.430125 
L 99.29863 288.430125 
L 96.211448 288.430125 
z
" style="fill:#43a2ca;opacity:0.8;"/>
   </g>
   <g id="patch_60">
    <path clip-path="url(#p6ecec561fb)" d="M 102.774047 288.430125 
L 105.861229 288.430125 
L 105.861229 265.390125 
L 102.774047 265.390125 
z
" style="fill:#43a2ca;opacity:0.8;"/>
   </g>
   <g id="patch_61">
    <path clip-path="url(#p6ecec561fb)" d="M 109.336646 288.430125 
L 112.423829 288.430125 
L 112.423829 288.430125 
L 109.336646 288.430125 
z
" style="fill:#43a2ca;opacity:0.8;"/>
   </g>
   <g id="patch_62">
    <path clip-path="url(#p6ecec561fb)" d="M 115.899246 288.430125 
L 118.986428 288.430125 
L 118.986428 242.350125 
L 115.899246 242.350125 
z
" style="fill:#43a2ca;opacity:0.8;"/>
   </g>
   <g id="patch_63">
    <path clip-path="url(#p6ecec561fb)" d="M 122.461845 288.430125 
L 125.549027 288.430125 
L 125.549027 265.390125 
L 122.461845 265.390125 
z
" style="fill:#43a2ca;opacity:0.8;"/>
   </g>
   <g id="patch_64">
    <path clip-path="url(#p6ecec561fb)" d="M 129.024444 288.430125 
L 132.111626 288.430125 
L 132.111626 288.430125 
L 129.024444 288.430125 
z
" style="fill:#43a2ca;opacity:0.8;"/>
   </g>
   <g id="patch_65">
    <path clip-path="url(#p6ecec561fb)" d="M 135.587043 288.430125 
L 138.674225 288.430125 
L 138.674225 288.430125 
L 135.587043 288.430125 
z
" style="fill:#43a2ca;opacity:0.8;"/>
   </g>
   <g id="patch_66">
    <path clip-path="url(#p6ecec561fb)" d="M 142.149643 288.430125 
L 145.236825 288.430125 
L 145.236825 288.430125 
L 142.149643 288.430125 
z
" style="fill:#43a2ca;opacity:0.8;"/>
   </g>
   <g id="patch_67">
    <path clip-path="url(#p6ecec561fb)" d="M 148.712242 288.430125 
L 151.799424 288.430125 
L 151.799424 265.390125 
L 148.712242 265.390125 
z
" style="fill:#43a2ca;opacity:0.8;"/>
   </g>
   <g id="patch_68">
    <path clip-path="url(#p6ecec561fb)" d="M 155.274841 288.430125 
L 158.362023 288.430125 
L 158.362023 242.350125 
L 155.274841 242.350125 
z
" style="fill:#43a2ca;opacity:0.8;"/>
   </g>
   <g id="patch_69">
    <path clip-path="url(#p6ecec561fb)" d="M 161.83744 288.430125 
L 164.924622 288.430125 
L 164.924622 288.430125 
L 161.83744 288.430125 
z
" style="fill:#43a2ca;opacity:0.8;"/>
   </g>
   <g id="patch_70">
    <path clip-path="url(#p6ecec561fb)" d="M 168.40004 288.430125 
L 171.487222 288.430125 
L 171.487222 219.310125 
L 168.40004 219.310125 
z
" style="fill:#43a2ca;opacity:0.8;"/>
   </g>
   <g id="patch_71">
    <path clip-path="url(#p6ecec561fb)" d="M 174.962639 288.430125 
L 178.049821 288.430125 
L 178.049821 242.350125 
L 174.962639 242.350125 
z
" style="fill:#43a2ca;opacity:0.8;"/>
   </g>
   <g id="patch_72">
    <path clip-path="url(#p6ecec561fb)" d="M 181.525238 288.430125 
L 184.61242 288.430125 
L 184.61242 265.390125 
L 181.525238 265.390125 
z
" style="fill:#43a2ca;opacity:0.8;"/>
   </g>
   <g id="patch_73">
    <path clip-path="url(#p6ecec561fb)" d="M 188.087837 288.430125 
L 191.175019 288.430125 
L 191.175019 288.430125 
L 188.087837 288.430125 
z
" style="fill:#43a2ca;opacity:0.8;"/>
   </g>
   <g id="patch_74">
    <path clip-path="url(#p6ecec561fb)" d="M 194.650437 288.430125 
L 197.737619 288.430125 
L 197.737619 288.430125 
L 194.650437 288.430125 
z
" style="fill:#43a2ca;opacity:0.8;"/>
   </g>
   <g id="patch_75">
    <path clip-path="url(#p6ecec561fb)" d="M 201.213036 288.430125 
L 204.300218 288.430125 
L 204.300218 242.350125 
L 201.213036 242.350125 
z
" style="fill:#43a2ca;opacity:0.8;"/>
   </g>
   <g id="patch_76">
    <path clip-path="url(#p6ecec561fb)" d="M 207.775635 288.430125 
L 210.862817 288.430125 
L 210.862817 265.390125 
L 207.775635 265.390125 
z
" style="fill:#43a2ca;opacity:0.8;"/>
   </g>
   <g id="patch_77">
    <path clip-path="url(#p6ecec561fb)" d="M 214.338234 288.430125 
L 217.425416 288.430125 
L 217.425416 219.310125 
L 214.338234 219.310125 
z
" style="fill:#43a2ca;opacity:0.8;"/>
   </g>
   <g id="patch_78">
    <path clip-path="url(#p6ecec561fb)" d="M 220.900834 288.430125 
L 223.988016 288.430125 
L 223.988016 242.350125 
L 220.900834 242.350125 
z
" style="fill:#43a2ca;opacity:0.8;"/>
   </g>
   <g id="patch_79">
    <path clip-path="url(#p6ecec561fb)" d="M 227.463433 288.430125 
L 230.550615 288.430125 
L 230.550615 219.310125 
L 227.463433 219.310125 
z
" style="fill:#43a2ca;opacity:0.8;"/>
   </g>
   <g id="patch_80">
    <path clip-path="url(#p6ecec561fb)" d="M 234.026032 288.430125 
L 237.113214 288.430125 
L 237.113214 265.390125 
L 234.026032 265.390125 
z
" style="fill:#43a2ca;opacity:0.8;"/>
   </g>
   <g id="patch_81">
    <path clip-path="url(#p6ecec561fb)" d="M 240.588631 288.430125 
L 243.675813 288.430125 
L 243.675813 150.190125 
L 240.588631 150.190125 
z
" style="fill:#43a2ca;opacity:0.8;"/>
   </g>
   <g id="patch_82">
    <path clip-path="url(#p6ecec561fb)" d="M 247.151231 288.430125 
L 250.238413 288.430125 
L 250.238413 34.990125 
L 247.151231 34.990125 
z
" style="fill:#43a2ca;opacity:0.8;"/>
   </g>
   <g id="patch_83">
    <path clip-path="url(#p6ecec561fb)" d="M 253.71383 288.430125 
L 256.801012 288.430125 
L 256.801012 265.390125 
L 253.71383 265.390125 
z
" style="fill:#43a2ca;opacity:0.8;"/>
   </g>
   <g id="patch_84">
    <path clip-path="url(#p6ecec561fb)" d="M 260.276429 288.430125 
L 263.363611 288.430125 
L 263.363611 196.270125 
L 260.276429 196.270125 
z
" style="fill:#43a2ca;opacity:0.8;"/>
   </g>
   <g id="patch_85">
    <path clip-path="url(#p6ecec561fb)" d="M 266.839028 288.430125 
L 269.92621 288.430125 
L 269.92621 265.390125 
L 266.839028 265.390125 
z
" style="fill:#43a2ca;opacity:0.8;"/>
   </g>
   <g id="patch_86">
    <path clip-path="url(#p6ecec561fb)" d="M 273.401628 288.430125 
L 276.48881 288.430125 
L 276.48881 265.390125 
L 273.401628 265.390125 
z
" style="fill:#43a2ca;opacity:0.8;"/>
   </g>
   <g id="patch_87">
    <path clip-path="url(#p6ecec561fb)" d="M 279.964227 288.430125 
L 283.051409 288.430125 
L 283.051409 173.230125 
L 279.964227 173.230125 
z
" style="fill:#43a2ca;opacity:0.8;"/>
   </g>
   <g id="patch_88">
    <path clip-path="url(#p6ecec561fb)" d="M 286.526826 288.430125 
L 289.614008 288.430125 
L 289.614008 288.430125 
L 286.526826 288.430125 
z
" style="fill:#43a2ca;opacity:0.8;"/>
   </g>
   <g id="patch_89">
    <path clip-path="url(#p6ecec561fb)" d="M 293.089425 288.430125 
L 296.176607 288.430125 
L 296.176607 242.350125 
L 293.089425 242.350125 
z
" style="fill:#43a2ca;opacity:0.8;"/>
   </g>
   <g id="patch_90">
    <path clip-path="url(#p6ecec561fb)" d="M 299.652025 288.430125 
L 302.739207 288.430125 
L 302.739207 288.430125 
L 299.652025 288.430125 
z
" style="fill:#43a2ca;opacity:0.8;"/>
   </g>
   <g id="patch_91">
    <path clip-path="url(#p6ecec561fb)" d="M 306.214624 288.430125 
L 309.301806 288.430125 
L 309.301806 265.390125 
L 306.214624 265.390125 
z
" style="fill:#43a2ca;opacity:0.8;"/>
   </g>
   <g id="patch_92">
    <path clip-path="url(#p6ecec561fb)" d="M 312.777223 288.430125 
L 315.864405 288.430125 
L 315.864405 288.430125 
L 312.777223 288.430125 
z
" style="fill:#43a2ca;opacity:0.8;"/>
   </g>
   <g id="patch_93">
    <path clip-path="url(#p6ecec561fb)" d="M 319.339822 288.430125 
L 322.427004 288.430125 
L 322.427004 265.390125 
L 319.339822 265.390125 
z
" style="fill:#43a2ca;opacity:0.8;"/>
   </g>
   <g id="patch_94">
    <path clip-path="url(#p6ecec561fb)" d="M 325.902421 288.430125 
L 328.989604 288.430125 
L 328.989604 288.430125 
L 325.902421 288.430125 
z
" style="fill:#43a2ca;opacity:0.8;"/>
   </g>
   <g id="patch_95">
    <path clip-path="url(#p6ecec561fb)" d="M 332.465021 288.430125 
L 335.552203 288.430125 
L 335.552203 288.430125 
L 332.465021 288.430125 
z
" style="fill:#43a2ca;opacity:0.8;"/>
   </g>
   <g id="patch_96">
    <path clip-path="url(#p6ecec561fb)" d="M 339.02762 288.430125 
L 342.114802 288.430125 
L 342.114802 288.430125 
L 339.02762 288.430125 
z
" style="fill:#43a2ca;opacity:0.8;"/>
   </g>
   <g id="patch_97">
    <path clip-path="url(#p6ecec561fb)" d="M 345.590219 288.430125 
L 348.677401 288.430125 
L 348.677401 288.430125 
L 345.590219 288.430125 
z
" style="fill:#43a2ca;opacity:0.8;"/>
   </g>
   <g id="patch_98">
    <path clip-path="url(#p6ecec561fb)" d="M 352.152818 288.430125 
L 355.240001 288.430125 
L 355.240001 288.430125 
L 352.152818 288.430125 
z
" style="fill:#43a2ca;opacity:0.8;"/>
   </g>
   <g id="patch_99">
    <path clip-path="url(#p6ecec561fb)" d="M 358.715418 288.430125 
L 361.8026 288.430125 
L 361.8026 242.350125 
L 358.715418 242.350125 
z
" style="fill:#43a2ca;opacity:0.8;"/>
   </g>
   <g id="patch_100">
    <path clip-path="url(#p6ecec561fb)" d="M 365.278017 288.430125 
L 368.365199 288.430125 
L 368.365199 288.430125 
L 365.278017 288.430125 
z
" style="fill:#43a2ca;opacity:0.8;"/>
   </g>
   <g id="patch_101">
    <path clip-path="url(#p6ecec561fb)" d="M 371.840616 288.430125 
L 374.927798 288.430125 
L 374.927798 288.430125 
L 371.840616 288.430125 
z
" style="fill:#43a2ca;opacity:0.8;"/>
   </g>
   <g id="patch_102">
    <path clip-path="url(#p6ecec561fb)" d="M 378.403215 288.430125 
L 381.490398 288.430125 
L 381.490398 265.390125 
L 378.403215 265.390125 
z
" style="fill:#43a2ca;opacity:0.8;"/>
   </g>
   <g id="matplotlib.axis_1">
    <g id="xtick_1">
     <g id="line2d_1">
      <defs>
       <path d="M 0 0 
L 0 3.5 
" id="m19be5909d6" style="stroke:#000000;stroke-width:0.8;"/>
      </defs>
      <g>
       <use style="stroke:#000000;stroke-width:0.8;" x="69.451" xlink:href="#m19be5909d6" y="288.430125"/>
      </g>
     </g>
     <g id="text_1">
      <!-- −0.8 -->
      <defs>
       <path d="M 10.59375 35.5 
L 73.1875 35.5 
L 73.1875 27.203125 
L 10.59375 27.203125 
z
" id="DejaVuSans-8722"/>
       <path d="M 31.78125 66.40625 
Q 24.171875 66.40625 20.328125 58.90625 
Q 16.5 51.421875 16.5 36.375 
Q 16.5 21.390625 20.328125 13.890625 
Q 24.171875 6.390625 31.78125 6.390625 
Q 39.453125 6.390625 43.28125 13.890625 
Q 47.125 21.390625 47.125 36.375 
Q 47.125 51.421875 43.28125 58.90625 
Q 39.453125 66.40625 31.78125 66.40625 
z
M 31.78125 74.21875 
Q 44.046875 74.21875 50.515625 64.515625 
Q 56.984375 54.828125 56.984375 36.375 
Q 56.984375 17.96875 50.515625 8.265625 
Q 44.046875 -1.421875 31.78125 -1.421875 
Q 19.53125 -1.421875 13.0625 8.265625 
Q 6.59375 17.96875 6.59375 36.375 
Q 6.59375 54.828125 13.0625 64.515625 
Q 19.53125 74.21875 31.78125 74.21875 
z
" id="DejaVuSans-48"/>
       <path d="M 10.6875 12.40625 
L 21 12.40625 
L 21 0 
L 10.6875 0 
z
" id="DejaVuSans-46"/>
       <path d="M 31.78125 34.625 
Q 24.75 34.625 20.71875 30.859375 
Q 16.703125 27.09375 16.703125 20.515625 
Q 16.703125 13.921875 20.71875 10.15625 
Q 24.75 6.390625 31.78125 6.390625 
Q 38.8125 6.390625 42.859375 10.171875 
Q 46.921875 13.96875 46.921875 20.515625 
Q 46.921875 27.09375 42.890625 30.859375 
Q 38.875 34.625 31.78125 34.625 
z
M 21.921875 38.8125 
Q 15.578125 40.375 12.03125 44.71875 
Q 8.5 49.078125 8.5 55.328125 
Q 8.5 64.0625 14.71875 69.140625 
Q 20.953125 74.21875 31.78125 74.21875 
Q 42.671875 74.21875 48.875 69.140625 
Q 55.078125 64.0625 55.078125 55.328125 
Q 55.078125 49.078125 51.53125 44.71875 
Q 48 40.375 41.703125 38.8125 
Q 48.828125 37.15625 52.796875 32.3125 
Q 56.78125 27.484375 56.78125 20.515625 
Q 56.78125 9.90625 50.3125 4.234375 
Q 43.84375 -1.421875 31.78125 -1.421875 
Q 19.734375 -1.421875 13.25 4.234375 
Q 6.78125 9.90625 6.78125 20.515625 
Q 6.78125 27.484375 10.78125 32.3125 
Q 14.796875 37.15625 21.921875 38.8125 
z
M 18.3125 54.390625 
Q 18.3125 48.734375 21.84375 45.5625 
Q 25.390625 42.390625 31.78125 42.390625 
Q 38.140625 42.390625 41.71875 45.5625 
Q 45.3125 48.734375 45.3125 54.390625 
Q 45.3125 60.0625 41.71875 63.234375 
Q 38.140625 66.40625 31.78125 66.40625 
Q 25.390625 66.40625 21.84375 63.234375 
Q 18.3125 60.0625 18.3125 54.390625 
z
" id="DejaVuSans-56"/>
      </defs>
      <g transform="translate(57.309594 303.028562)scale(0.1 -0.1)">
       <use xlink:href="#DejaVuSans-8722"/>
       <use x="83.789062" xlink:href="#DejaVuSans-48"/>
       <use x="147.412109" xlink:href="#DejaVuSans-46"/>
       <use x="179.199219" xlink:href="#DejaVuSans-56"/>
      </g>
     </g>
    </g>
    <g id="xtick_2">
     <g id="line2d_2">
      <g>
       <use style="stroke:#000000;stroke-width:0.8;" x="109.178241" xlink:href="#m19be5909d6" y="288.430125"/>
      </g>
     </g>
     <g id="text_2">
      <!-- −0.6 -->
      <defs>
       <path d="M 33.015625 40.375 
Q 26.375 40.375 22.484375 35.828125 
Q 18.609375 31.296875 18.609375 23.390625 
Q 18.609375 15.53125 22.484375 10.953125 
Q 26.375 6.390625 33.015625 6.390625 
Q 39.65625 6.390625 43.53125 10.953125 
Q 47.40625 15.53125 47.40625 23.390625 
Q 47.40625 31.296875 43.53125 35.828125 
Q 39.65625 40.375 33.015625 40.375 
z
M 52.59375 71.296875 
L 52.59375 62.3125 
Q 48.875 64.0625 45.09375 64.984375 
Q 41.3125 65.921875 37.59375 65.921875 
Q 27.828125 65.921875 22.671875 59.328125 
Q 17.53125 52.734375 16.796875 39.40625 
Q 19.671875 43.65625 24.015625 45.921875 
Q 28.375 48.1875 33.59375 48.1875 
Q 44.578125 48.1875 50.953125 41.515625 
Q 57.328125 34.859375 57.328125 23.390625 
Q 57.328125 12.15625 50.6875 5.359375 
Q 44.046875 -1.421875 33.015625 -1.421875 
Q 20.359375 -1.421875 13.671875 8.265625 
Q 6.984375 17.96875 6.984375 36.375 
Q 6.984375 53.65625 15.1875 63.9375 
Q 23.390625 74.21875 37.203125 74.21875 
Q 40.921875 74.21875 44.703125 73.484375 
Q 48.484375 72.75 52.59375 71.296875 
z
" id="DejaVuSans-54"/>
      </defs>
      <g transform="translate(97.036835 303.028562)scale(0.1 -0.1)">
       <use xlink:href="#DejaVuSans-8722"/>
       <use x="83.789062" xlink:href="#DejaVuSans-48"/>
       <use x="147.412109" xlink:href="#DejaVuSans-46"/>
       <use x="179.199219" xlink:href="#DejaVuSans-54"/>
      </g>
     </g>
    </g>
    <g id="xtick_3">
     <g id="line2d_3">
      <g>
       <use style="stroke:#000000;stroke-width:0.8;" x="148.905483" xlink:href="#m19be5909d6" y="288.430125"/>
      </g>
     </g>
     <g id="text_3">
      <!-- −0.4 -->
      <defs>
       <path d="M 37.796875 64.3125 
L 12.890625 25.390625 
L 37.796875 25.390625 
z
M 35.203125 72.90625 
L 47.609375 72.90625 
L 47.609375 25.390625 
L 58.015625 25.390625 
L 58.015625 17.1875 
L 47.609375 17.1875 
L 47.609375 0 
L 37.796875 0 
L 37.796875 17.1875 
L 4.890625 17.1875 
L 4.890625 26.703125 
z
" id="DejaVuSans-52"/>
      </defs>
      <g transform="translate(136.764077 303.028562)scale(0.1 -0.1)">
       <use xlink:href="#DejaVuSans-8722"/>
       <use x="83.789062" xlink:href="#DejaVuSans-48"/>
       <use x="147.412109" xlink:href="#DejaVuSans-46"/>
       <use x="179.199219" xlink:href="#DejaVuSans-52"/>
      </g>
     </g>
    </g>
    <g id="xtick_4">
     <g id="line2d_4">
      <g>
       <use style="stroke:#000000;stroke-width:0.8;" x="188.632724" xlink:href="#m19be5909d6" y="288.430125"/>
      </g>
     </g>
     <g id="text_4">
      <!-- −0.2 -->
      <defs>
       <path d="M 19.1875 8.296875 
L 53.609375 8.296875 
L 53.609375 0 
L 7.328125 0 
L 7.328125 8.296875 
Q 12.9375 14.109375 22.625 23.890625 
Q 32.328125 33.6875 34.8125 36.53125 
Q 39.546875 41.84375 41.421875 45.53125 
Q 43.3125 49.21875 43.3125 52.78125 
Q 43.3125 58.59375 39.234375 62.25 
Q 35.15625 65.921875 28.609375 65.921875 
Q 23.96875 65.921875 18.8125 64.3125 
Q 13.671875 62.703125 7.8125 59.421875 
L 7.8125 69.390625 
Q 13.765625 71.78125 18.9375 73 
Q 24.125 74.21875 28.421875 74.21875 
Q 39.75 74.21875 46.484375 68.546875 
Q 53.21875 62.890625 53.21875 53.421875 
Q 53.21875 48.921875 51.53125 44.890625 
Q 49.859375 40.875 45.40625 35.40625 
Q 44.1875 33.984375 37.640625 27.21875 
Q 31.109375 20.453125 19.1875 8.296875 
z
" id="DejaVuSans-50"/>
      </defs>
      <g transform="translate(176.491318 303.028562)scale(0.1 -0.1)">
       <use xlink:href="#DejaVuSans-8722"/>
       <use x="83.789062" xlink:href="#DejaVuSans-48"/>
       <use x="147.412109" xlink:href="#DejaVuSans-46"/>
       <use x="179.199219" xlink:href="#DejaVuSans-50"/>
      </g>
     </g>
    </g>
    <g id="xtick_5">
     <g id="line2d_5">
      <g>
       <use style="stroke:#000000;stroke-width:0.8;" x="228.359966" xlink:href="#m19be5909d6" y="288.430125"/>
      </g>
     </g>
     <g id="text_5">
      <!-- 0.0 -->
      <g transform="translate(220.408403 303.028562)scale(0.1 -0.1)">
       <use xlink:href="#DejaVuSans-48"/>
       <use x="63.623047" xlink:href="#DejaVuSans-46"/>
       <use x="95.410156" xlink:href="#DejaVuSans-48"/>
      </g>
     </g>
    </g>
    <g id="xtick_6">
     <g id="line2d_6">
      <g>
       <use style="stroke:#000000;stroke-width:0.8;" x="268.087207" xlink:href="#m19be5909d6" y="288.430125"/>
      </g>
     </g>
     <g id="text_6">
      <!-- 0.2 -->
      <g transform="translate(260.135645 303.028562)scale(0.1 -0.1)">
       <use xlink:href="#DejaVuSans-48"/>
       <use x="63.623047" xlink:href="#DejaVuSans-46"/>
       <use x="95.410156" xlink:href="#DejaVuSans-50"/>
      </g>
     </g>
    </g>
    <g id="xtick_7">
     <g id="line2d_7">
      <g>
       <use style="stroke:#000000;stroke-width:0.8;" x="307.814449" xlink:href="#m19be5909d6" y="288.430125"/>
      </g>
     </g>
     <g id="text_7">
      <!-- 0.4 -->
      <g transform="translate(299.862886 303.028562)scale(0.1 -0.1)">
       <use xlink:href="#DejaVuSans-48"/>
       <use x="63.623047" xlink:href="#DejaVuSans-46"/>
       <use x="95.410156" xlink:href="#DejaVuSans-52"/>
      </g>
     </g>
    </g>
    <g id="xtick_8">
     <g id="line2d_8">
      <g>
       <use style="stroke:#000000;stroke-width:0.8;" x="347.54169" xlink:href="#m19be5909d6" y="288.430125"/>
      </g>
     </g>
     <g id="text_8">
      <!-- 0.6 -->
      <g transform="translate(339.590128 303.028562)scale(0.1 -0.1)">
       <use xlink:href="#DejaVuSans-48"/>
       <use x="63.623047" xlink:href="#DejaVuSans-46"/>
       <use x="95.410156" xlink:href="#DejaVuSans-54"/>
      </g>
     </g>
    </g>
    <g id="xtick_9">
     <g id="line2d_9">
      <g>
       <use style="stroke:#000000;stroke-width:0.8;" x="387.268932" xlink:href="#m19be5909d6" y="288.430125"/>
      </g>
     </g>
     <g id="text_9">
      <!-- 0.8 -->
      <g transform="translate(379.317369 303.028562)scale(0.1 -0.1)">
       <use xlink:href="#DejaVuSans-48"/>
       <use x="63.623047" xlink:href="#DejaVuSans-46"/>
       <use x="95.410156" xlink:href="#DejaVuSans-56"/>
      </g>
     </g>
    </g>
    <g id="text_10">
     <!-- Rho value -->
     <defs>
      <path d="M 44.390625 34.1875 
Q 47.5625 33.109375 50.5625 29.59375 
Q 53.5625 26.078125 56.59375 19.921875 
L 66.609375 0 
L 56 0 
L 46.6875 18.703125 
Q 43.0625 26.03125 39.671875 28.421875 
Q 36.28125 30.8125 30.421875 30.8125 
L 19.671875 30.8125 
L 19.671875 0 
L 9.8125 0 
L 9.8125 72.90625 
L 32.078125 72.90625 
Q 44.578125 72.90625 50.734375 67.671875 
Q 56.890625 62.453125 56.890625 51.90625 
Q 56.890625 45.015625 53.6875 40.46875 
Q 50.484375 35.9375 44.390625 34.1875 
z
M 19.671875 64.796875 
L 19.671875 38.921875 
L 32.078125 38.921875 
Q 39.203125 38.921875 42.84375 42.21875 
Q 46.484375 45.515625 46.484375 51.90625 
Q 46.484375 58.296875 42.84375 61.546875 
Q 39.203125 64.796875 32.078125 64.796875 
z
" id="DejaVuSans-82"/>
      <path d="M 54.890625 33.015625 
L 54.890625 0 
L 45.90625 0 
L 45.90625 32.71875 
Q 45.90625 40.484375 42.875 44.328125 
Q 39.84375 48.1875 33.796875 48.1875 
Q 26.515625 48.1875 22.3125 43.546875 
Q 18.109375 38.921875 18.109375 30.90625 
L 18.109375 0 
L 9.078125 0 
L 9.078125 75.984375 
L 18.109375 75.984375 
L 18.109375 46.1875 
Q 21.34375 51.125 25.703125 53.5625 
Q 30.078125 56 35.796875 56 
Q 45.21875 56 50.046875 50.171875 
Q 54.890625 44.34375 54.890625 33.015625 
z
" id="DejaVuSans-104"/>
      <path d="M 30.609375 48.390625 
Q 23.390625 48.390625 19.1875 42.75 
Q 14.984375 37.109375 14.984375 27.296875 
Q 14.984375 17.484375 19.15625 11.84375 
Q 23.34375 6.203125 30.609375 6.203125 
Q 37.796875 6.203125 41.984375 11.859375 
Q 46.1875 17.53125 46.1875 27.296875 
Q 46.1875 37.015625 41.984375 42.703125 
Q 37.796875 48.390625 30.609375 48.390625 
z
M 30.609375 56 
Q 42.328125 56 49.015625 48.375 
Q 55.71875 40.765625 55.71875 27.296875 
Q 55.71875 13.875 49.015625 6.21875 
Q 42.328125 -1.421875 30.609375 -1.421875 
Q 18.84375 -1.421875 12.171875 6.21875 
Q 5.515625 13.875 5.515625 27.296875 
Q 5.515625 40.765625 12.171875 48.375 
Q 18.84375 56 30.609375 56 
z
" id="DejaVuSans-111"/>
      <path id="DejaVuSans-32"/>
      <path d="M 2.984375 54.6875 
L 12.5 54.6875 
L 29.59375 8.796875 
L 46.6875 54.6875 
L 56.203125 54.6875 
L 35.6875 0 
L 23.484375 0 
z
" id="DejaVuSans-118"/>
      <path d="M 34.28125 27.484375 
Q 23.390625 27.484375 19.1875 25 
Q 14.984375 22.515625 14.984375 16.5 
Q 14.984375 11.71875 18.140625 8.90625 
Q 21.296875 6.109375 26.703125 6.109375 
Q 34.1875 6.109375 38.703125 11.40625 
Q 43.21875 16.703125 43.21875 25.484375 
L 43.21875 27.484375 
z
M 52.203125 31.203125 
L 52.203125 0 
L 43.21875 0 
L 43.21875 8.296875 
Q 40.140625 3.328125 35.546875 0.953125 
Q 30.953125 -1.421875 24.3125 -1.421875 
Q 15.921875 -1.421875 10.953125 3.296875 
Q 6 8.015625 6 15.921875 
Q 6 25.140625 12.171875 29.828125 
Q 18.359375 34.515625 30.609375 34.515625 
L 43.21875 34.515625 
L 43.21875 35.40625 
Q 43.21875 41.609375 39.140625 45 
Q 35.0625 48.390625 27.6875 48.390625 
Q 23 48.390625 18.546875 47.265625 
Q 14.109375 46.140625 10.015625 43.890625 
L 10.015625 52.203125 
Q 14.9375 54.109375 19.578125 55.046875 
Q 24.21875 56 28.609375 56 
Q 40.484375 56 46.34375 49.84375 
Q 52.203125 43.703125 52.203125 31.203125 
z
" id="DejaVuSans-97"/>
      <path d="M 9.421875 75.984375 
L 18.40625 75.984375 
L 18.40625 0 
L 9.421875 0 
z
" id="DejaVuSans-108"/>
      <path d="M 8.5 21.578125 
L 8.5 54.6875 
L 17.484375 54.6875 
L 17.484375 21.921875 
Q 17.484375 14.15625 20.5 10.265625 
Q 23.53125 6.390625 29.59375 6.390625 
Q 36.859375 6.390625 41.078125 11.03125 
Q 45.3125 15.671875 45.3125 23.6875 
L 45.3125 54.6875 
L 54.296875 54.6875 
L 54.296875 0 
L 45.3125 0 
L 45.3125 8.40625 
Q 42.046875 3.421875 37.71875 1 
Q 33.40625 -1.421875 27.6875 -1.421875 
Q 18.265625 -1.421875 13.375 4.4375 
Q 8.5 10.296875 8.5 21.578125 
z
M 31.109375 56 
z
" id="DejaVuSans-117"/>
      <path d="M 56.203125 29.59375 
L 56.203125 25.203125 
L 14.890625 25.203125 
Q 15.484375 15.921875 20.484375 11.0625 
Q 25.484375 6.203125 34.421875 6.203125 
Q 39.59375 6.203125 44.453125 7.46875 
Q 49.3125 8.734375 54.109375 11.28125 
L 54.109375 2.78125 
Q 49.265625 0.734375 44.1875 -0.34375 
Q 39.109375 -1.421875 33.890625 -1.421875 
Q 20.796875 -1.421875 13.15625 6.1875 
Q 5.515625 13.8125 5.515625 26.8125 
Q 5.515625 40.234375 12.765625 48.109375 
Q 20.015625 56 32.328125 56 
Q 43.359375 56 49.78125 48.890625 
Q 56.203125 41.796875 56.203125 29.59375 
z
M 47.21875 32.234375 
Q 47.125 39.59375 43.09375 43.984375 
Q 39.0625 48.390625 32.421875 48.390625 
Q 24.90625 48.390625 20.390625 44.140625 
Q 15.875 39.890625 15.1875 32.171875 
z
" id="DejaVuSans-101"/>
     </defs>
     <g transform="translate(194.213906 316.706687)scale(0.1 -0.1)">
      <use xlink:href="#DejaVuSans-82"/>
      <use x="69.482422" xlink:href="#DejaVuSans-104"/>
      <use x="132.861328" xlink:href="#DejaVuSans-111"/>
      <use x="194.042969" xlink:href="#DejaVuSans-32"/>
      <use x="225.830078" xlink:href="#DejaVuSans-118"/>
      <use x="285.009766" xlink:href="#DejaVuSans-97"/>
      <use x="346.289062" xlink:href="#DejaVuSans-108"/>
      <use x="374.072266" xlink:href="#DejaVuSans-117"/>
      <use x="437.451172" xlink:href="#DejaVuSans-101"/>
     </g>
    </g>
   </g>
   <g id="matplotlib.axis_2">
    <g id="ytick_1">
     <g id="line2d_10">
      <defs>
       <path d="M 0 0 
L -3.5 0 
" id="m93689cfa68" style="stroke:#000000;stroke-width:0.8;"/>
      </defs>
      <g>
       <use style="stroke:#000000;stroke-width:0.8;" x="40.603125" xlink:href="#m93689cfa68" y="288.430125"/>
      </g>
     </g>
     <g id="text_11">
      <!-- 0 -->
      <g transform="translate(27.240625 292.229344)scale(0.1 -0.1)">
       <use xlink:href="#DejaVuSans-48"/>
      </g>
     </g>
    </g>
    <g id="ytick_2">
     <g id="line2d_11">
      <g>
       <use style="stroke:#000000;stroke-width:0.8;" x="40.603125" xlink:href="#m93689cfa68" y="242.350125"/>
      </g>
     </g>
     <g id="text_12">
      <!-- 2 -->
      <g transform="translate(27.240625 246.149344)scale(0.1 -0.1)">
       <use xlink:href="#DejaVuSans-50"/>
      </g>
     </g>
    </g>
    <g id="ytick_3">
     <g id="line2d_12">
      <g>
       <use style="stroke:#000000;stroke-width:0.8;" x="40.603125" xlink:href="#m93689cfa68" y="196.270125"/>
      </g>
     </g>
     <g id="text_13">
      <!-- 4 -->
      <g transform="translate(27.240625 200.069344)scale(0.1 -0.1)">
       <use xlink:href="#DejaVuSans-52"/>
      </g>
     </g>
    </g>
    <g id="ytick_4">
     <g id="line2d_13">
      <g>
       <use style="stroke:#000000;stroke-width:0.8;" x="40.603125" xlink:href="#m93689cfa68" y="150.190125"/>
      </g>
     </g>
     <g id="text_14">
      <!-- 6 -->
      <g transform="translate(27.240625 153.989344)scale(0.1 -0.1)">
       <use xlink:href="#DejaVuSans-54"/>
      </g>
     </g>
    </g>
    <g id="ytick_5">
     <g id="line2d_14">
      <g>
       <use style="stroke:#000000;stroke-width:0.8;" x="40.603125" xlink:href="#m93689cfa68" y="104.110125"/>
      </g>
     </g>
     <g id="text_15">
      <!-- 8 -->
      <g transform="translate(27.240625 107.909344)scale(0.1 -0.1)">
       <use xlink:href="#DejaVuSans-56"/>
      </g>
     </g>
    </g>
    <g id="ytick_6">
     <g id="line2d_15">
      <g>
       <use style="stroke:#000000;stroke-width:0.8;" x="40.603125" xlink:href="#m93689cfa68" y="58.030125"/>
      </g>
     </g>
     <g id="text_16">
      <!-- 10 -->
      <defs>
       <path d="M 12.40625 8.296875 
L 28.515625 8.296875 
L 28.515625 63.921875 
L 10.984375 60.40625 
L 10.984375 69.390625 
L 28.421875 72.90625 
L 38.28125 72.90625 
L 38.28125 8.296875 
L 54.390625 8.296875 
L 54.390625 0 
L 12.40625 0 
z
" id="DejaVuSans-49"/>
      </defs>
      <g transform="translate(20.878125 61.829344)scale(0.1 -0.1)">
       <use xlink:href="#DejaVuSans-49"/>
       <use x="63.623047" xlink:href="#DejaVuSans-48"/>
      </g>
     </g>
    </g>
    <g id="text_17">
     <!-- Number of bacteria -->
     <defs>
      <path d="M 9.8125 72.90625 
L 23.09375 72.90625 
L 55.421875 11.921875 
L 55.421875 72.90625 
L 64.984375 72.90625 
L 64.984375 0 
L 51.703125 0 
L 19.390625 60.984375 
L 19.390625 0 
L 9.8125 0 
z
" id="DejaVuSans-78"/>
      <path d="M 52 44.1875 
Q 55.375 50.25 60.0625 53.125 
Q 64.75 56 71.09375 56 
Q 79.640625 56 84.28125 50.015625 
Q 88.921875 44.046875 88.921875 33.015625 
L 88.921875 0 
L 79.890625 0 
L 79.890625 32.71875 
Q 79.890625 40.578125 77.09375 44.375 
Q 74.3125 48.1875 68.609375 48.1875 
Q 61.625 48.1875 57.5625 43.546875 
Q 53.515625 38.921875 53.515625 30.90625 
L 53.515625 0 
L 44.484375 0 
L 44.484375 32.71875 
Q 44.484375 40.625 41.703125 44.40625 
Q 38.921875 48.1875 33.109375 48.1875 
Q 26.21875 48.1875 22.15625 43.53125 
Q 18.109375 38.875 18.109375 30.90625 
L 18.109375 0 
L 9.078125 0 
L 9.078125 54.6875 
L 18.109375 54.6875 
L 18.109375 46.1875 
Q 21.1875 51.21875 25.484375 53.609375 
Q 29.78125 56 35.6875 56 
Q 41.65625 56 45.828125 52.96875 
Q 50 49.953125 52 44.1875 
z
" id="DejaVuSans-109"/>
      <path d="M 48.6875 27.296875 
Q 48.6875 37.203125 44.609375 42.84375 
Q 40.53125 48.484375 33.40625 48.484375 
Q 26.265625 48.484375 22.1875 42.84375 
Q 18.109375 37.203125 18.109375 27.296875 
Q 18.109375 17.390625 22.1875 11.75 
Q 26.265625 6.109375 33.40625 6.109375 
Q 40.53125 6.109375 44.609375 11.75 
Q 48.6875 17.390625 48.6875 27.296875 
z
M 18.109375 46.390625 
Q 20.953125 51.265625 25.265625 53.625 
Q 29.59375 56 35.59375 56 
Q 45.5625 56 51.78125 48.09375 
Q 58.015625 40.1875 58.015625 27.296875 
Q 58.015625 14.40625 51.78125 6.484375 
Q 45.5625 -1.421875 35.59375 -1.421875 
Q 29.59375 -1.421875 25.265625 0.953125 
Q 20.953125 3.328125 18.109375 8.203125 
L 18.109375 0 
L 9.078125 0 
L 9.078125 75.984375 
L 18.109375 75.984375 
z
" id="DejaVuSans-98"/>
      <path d="M 41.109375 46.296875 
Q 39.59375 47.171875 37.8125 47.578125 
Q 36.03125 48 33.890625 48 
Q 26.265625 48 22.1875 43.046875 
Q 18.109375 38.09375 18.109375 28.8125 
L 18.109375 0 
L 9.078125 0 
L 9.078125 54.6875 
L 18.109375 54.6875 
L 18.109375 46.1875 
Q 20.953125 51.171875 25.484375 53.578125 
Q 30.03125 56 36.53125 56 
Q 37.453125 56 38.578125 55.875 
Q 39.703125 55.765625 41.0625 55.515625 
z
" id="DejaVuSans-114"/>
      <path d="M 37.109375 75.984375 
L 37.109375 68.5 
L 28.515625 68.5 
Q 23.6875 68.5 21.796875 66.546875 
Q 19.921875 64.59375 19.921875 59.515625 
L 19.921875 54.6875 
L 34.71875 54.6875 
L 34.71875 47.703125 
L 19.921875 47.703125 
L 19.921875 0 
L 10.890625 0 
L 10.890625 47.703125 
L 2.296875 47.703125 
L 2.296875 54.6875 
L 10.890625 54.6875 
L 10.890625 58.5 
Q 10.890625 67.625 15.140625 71.796875 
Q 19.390625 75.984375 28.609375 75.984375 
z
" id="DejaVuSans-102"/>
      <path d="M 48.78125 52.59375 
L 48.78125 44.1875 
Q 44.96875 46.296875 41.140625 47.34375 
Q 37.3125 48.390625 33.40625 48.390625 
Q 24.65625 48.390625 19.8125 42.84375 
Q 14.984375 37.3125 14.984375 27.296875 
Q 14.984375 17.28125 19.8125 11.734375 
Q 24.65625 6.203125 33.40625 6.203125 
Q 37.3125 6.203125 41.140625 7.25 
Q 44.96875 8.296875 48.78125 10.40625 
L 48.78125 2.09375 
Q 45.015625 0.34375 40.984375 -0.53125 
Q 36.96875 -1.421875 32.421875 -1.421875 
Q 20.0625 -1.421875 12.78125 6.34375 
Q 5.515625 14.109375 5.515625 27.296875 
Q 5.515625 40.671875 12.859375 48.328125 
Q 20.21875 56 33.015625 56 
Q 37.15625 56 41.109375 55.140625 
Q 45.0625 54.296875 48.78125 52.59375 
z
" id="DejaVuSans-99"/>
      <path d="M 18.3125 70.21875 
L 18.3125 54.6875 
L 36.8125 54.6875 
L 36.8125 47.703125 
L 18.3125 47.703125 
L 18.3125 18.015625 
Q 18.3125 11.328125 20.140625 9.421875 
Q 21.96875 7.515625 27.59375 7.515625 
L 36.8125 7.515625 
L 36.8125 0 
L 27.59375 0 
Q 17.1875 0 13.234375 3.875 
Q 9.28125 7.765625 9.28125 18.015625 
L 9.28125 47.703125 
L 2.6875 47.703125 
L 2.6875 54.6875 
L 9.28125 54.6875 
L 9.28125 70.21875 
z
" id="DejaVuSans-116"/>
      <path d="M 9.421875 54.6875 
L 18.40625 54.6875 
L 18.40625 0 
L 9.421875 0 
z
M 9.421875 75.984375 
L 18.40625 75.984375 
L 18.40625 64.59375 
L 9.421875 64.59375 
z
" id="DejaVuSans-105"/>
     </defs>
     <g transform="translate(14.798438 203.990531)rotate(-90)scale(0.1 -0.1)">
      <use xlink:href="#DejaVuSans-78"/>
      <use x="74.804688" xlink:href="#DejaVuSans-117"/>
      <use x="138.183594" xlink:href="#DejaVuSans-109"/>
      <use x="235.595703" xlink:href="#DejaVuSans-98"/>
      <use x="299.072266" xlink:href="#DejaVuSans-101"/>
      <use x="360.595703" xlink:href="#DejaVuSans-114"/>
      <use x="401.708984" xlink:href="#DejaVuSans-32"/>
      <use x="433.496094" xlink:href="#DejaVuSans-111"/>
      <use x="494.677734" xlink:href="#DejaVuSans-102"/>
      <use x="529.882812" xlink:href="#DejaVuSans-32"/>
      <use x="561.669922" xlink:href="#DejaVuSans-98"/>
      <use x="625.146484" xlink:href="#DejaVuSans-97"/>
      <use x="686.425781" xlink:href="#DejaVuSans-99"/>
      <use x="741.40625" xlink:href="#DejaVuSans-116"/>
      <use x="780.615234" xlink:href="#DejaVuSans-101"/>
      <use x="842.138672" xlink:href="#DejaVuSans-114"/>
      <use x="883.251953" xlink:href="#DejaVuSans-105"/>
      <use x="911.035156" xlink:href="#DejaVuSans-97"/>
     </g>
    </g>
   </g>
   <g id="patch_103">
    <path d="M 40.603125 288.430125 
L 40.603125 22.318125 
" style="fill:none;stroke:#000000;stroke-linecap:square;stroke-linejoin:miter;stroke-width:0.8;"/>
   </g>
   <g id="patch_104">
    <path d="M 397.723125 288.430125 
L 397.723125 22.318125 
" style="fill:none;stroke:#000000;stroke-linecap:square;stroke-linejoin:miter;stroke-width:0.8;"/>
   </g>
   <g id="patch_105">
    <path d="M 40.603125 288.430125 
L 397.723125 288.430125 
" style="fill:none;stroke:#000000;stroke-linecap:square;stroke-linejoin:miter;stroke-width:0.8;"/>
   </g>
   <g id="patch_106">
    <path d="M 40.603125 22.318125 
L 397.723125 22.318125 
" style="fill:none;stroke:#000000;stroke-linecap:square;stroke-linejoin:miter;stroke-width:0.8;"/>
   </g>
   <g id="text_18">
    <!-- Real tags vs. Mixed tags at Tumor Size -->
    <defs>
     <path d="M 45.40625 27.984375 
Q 45.40625 37.75 41.375 43.109375 
Q 37.359375 48.484375 30.078125 48.484375 
Q 22.859375 48.484375 18.828125 43.109375 
Q 14.796875 37.75 14.796875 27.984375 
Q 14.796875 18.265625 18.828125 12.890625 
Q 22.859375 7.515625 30.078125 7.515625 
Q 37.359375 7.515625 41.375 12.890625 
Q 45.40625 18.265625 45.40625 27.984375 
z
M 54.390625 6.78125 
Q 54.390625 -7.171875 48.1875 -13.984375 
Q 42 -20.796875 29.203125 -20.796875 
Q 24.46875 -20.796875 20.265625 -20.09375 
Q 16.0625 -19.390625 12.109375 -17.921875 
L 12.109375 -9.1875 
Q 16.0625 -11.328125 19.921875 -12.34375 
Q 23.78125 -13.375 27.78125 -13.375 
Q 36.625 -13.375 41.015625 -8.765625 
Q 45.40625 -4.15625 45.40625 5.171875 
L 45.40625 9.625 
Q 42.625 4.78125 38.28125 2.390625 
Q 33.9375 0 27.875 0 
Q 17.828125 0 11.671875 7.65625 
Q 5.515625 15.328125 5.515625 27.984375 
Q 5.515625 40.671875 11.671875 48.328125 
Q 17.828125 56 27.875 56 
Q 33.9375 56 38.28125 53.609375 
Q 42.625 51.21875 45.40625 46.390625 
L 45.40625 54.6875 
L 54.390625 54.6875 
z
" id="DejaVuSans-103"/>
     <path d="M 44.28125 53.078125 
L 44.28125 44.578125 
Q 40.484375 46.53125 36.375 47.5 
Q 32.28125 48.484375 27.875 48.484375 
Q 21.1875 48.484375 17.84375 46.4375 
Q 14.5 44.390625 14.5 40.28125 
Q 14.5 37.15625 16.890625 35.375 
Q 19.28125 33.59375 26.515625 31.984375 
L 29.59375 31.296875 
Q 39.15625 29.25 43.1875 25.515625 
Q 47.21875 21.78125 47.21875 15.09375 
Q 47.21875 7.46875 41.1875 3.015625 
Q 35.15625 -1.421875 24.609375 -1.421875 
Q 20.21875 -1.421875 15.453125 -0.5625 
Q 10.6875 0.296875 5.421875 2 
L 5.421875 11.28125 
Q 10.40625 8.6875 15.234375 7.390625 
Q 20.0625 6.109375 24.8125 6.109375 
Q 31.15625 6.109375 34.5625 8.28125 
Q 37.984375 10.453125 37.984375 14.40625 
Q 37.984375 18.0625 35.515625 20.015625 
Q 33.0625 21.96875 24.703125 23.78125 
L 21.578125 24.515625 
Q 13.234375 26.265625 9.515625 29.90625 
Q 5.8125 33.546875 5.8125 39.890625 
Q 5.8125 47.609375 11.28125 51.796875 
Q 16.75 56 26.8125 56 
Q 31.78125 56 36.171875 55.265625 
Q 40.578125 54.546875 44.28125 53.078125 
z
" id="DejaVuSans-115"/>
     <path d="M 9.8125 72.90625 
L 24.515625 72.90625 
L 43.109375 23.296875 
L 61.8125 72.90625 
L 76.515625 72.90625 
L 76.515625 0 
L 66.890625 0 
L 66.890625 64.015625 
L 48.09375 14.015625 
L 38.1875 14.015625 
L 19.390625 64.015625 
L 19.390625 0 
L 9.8125 0 
z
" id="DejaVuSans-77"/>
     <path d="M 54.890625 54.6875 
L 35.109375 28.078125 
L 55.90625 0 
L 45.3125 0 
L 29.390625 21.484375 
L 13.484375 0 
L 2.875 0 
L 24.125 28.609375 
L 4.6875 54.6875 
L 15.28125 54.6875 
L 29.78125 35.203125 
L 44.28125 54.6875 
z
" id="DejaVuSans-120"/>
     <path d="M 45.40625 46.390625 
L 45.40625 75.984375 
L 54.390625 75.984375 
L 54.390625 0 
L 45.40625 0 
L 45.40625 8.203125 
Q 42.578125 3.328125 38.25 0.953125 
Q 33.9375 -1.421875 27.875 -1.421875 
Q 17.96875 -1.421875 11.734375 6.484375 
Q 5.515625 14.40625 5.515625 27.296875 
Q 5.515625 40.1875 11.734375 48.09375 
Q 17.96875 56 27.875 56 
Q 33.9375 56 38.25 53.625 
Q 42.578125 51.265625 45.40625 46.390625 
z
M 14.796875 27.296875 
Q 14.796875 17.390625 18.875 11.75 
Q 22.953125 6.109375 30.078125 6.109375 
Q 37.203125 6.109375 41.296875 11.75 
Q 45.40625 17.390625 45.40625 27.296875 
Q 45.40625 37.203125 41.296875 42.84375 
Q 37.203125 48.484375 30.078125 48.484375 
Q 22.953125 48.484375 18.875 42.84375 
Q 14.796875 37.203125 14.796875 27.296875 
z
" id="DejaVuSans-100"/>
     <path d="M -0.296875 72.90625 
L 61.375 72.90625 
L 61.375 64.59375 
L 35.5 64.59375 
L 35.5 0 
L 25.59375 0 
L 25.59375 64.59375 
L -0.296875 64.59375 
z
" id="DejaVuSans-84"/>
     <path d="M 53.515625 70.515625 
L 53.515625 60.890625 
Q 47.90625 63.578125 42.921875 64.890625 
Q 37.9375 66.21875 33.296875 66.21875 
Q 25.25 66.21875 20.875 63.09375 
Q 16.5 59.96875 16.5 54.203125 
Q 16.5 49.359375 19.40625 46.890625 
Q 22.3125 44.4375 30.421875 42.921875 
L 36.375 41.703125 
Q 47.40625 39.59375 52.65625 34.296875 
Q 57.90625 29 57.90625 20.125 
Q 57.90625 9.515625 50.796875 4.046875 
Q 43.703125 -1.421875 29.984375 -1.421875 
Q 24.8125 -1.421875 18.96875 -0.25 
Q 13.140625 0.921875 6.890625 3.21875 
L 6.890625 13.375 
Q 12.890625 10.015625 18.65625 8.296875 
Q 24.421875 6.59375 29.984375 6.59375 
Q 38.421875 6.59375 43.015625 9.90625 
Q 47.609375 13.234375 47.609375 19.390625 
Q 47.609375 24.75 44.3125 27.78125 
Q 41.015625 30.8125 33.5 32.328125 
L 27.484375 33.5 
Q 16.453125 35.6875 11.515625 40.375 
Q 6.59375 45.0625 6.59375 53.421875 
Q 6.59375 63.09375 13.40625 68.65625 
Q 20.21875 74.21875 32.171875 74.21875 
Q 37.3125 74.21875 42.625 73.28125 
Q 47.953125 72.359375 53.515625 70.515625 
z
" id="DejaVuSans-83"/>
     <path d="M 5.515625 54.6875 
L 48.1875 54.6875 
L 48.1875 46.484375 
L 14.40625 7.171875 
L 48.1875 7.171875 
L 48.1875 0 
L 4.296875 0 
L 4.296875 8.203125 
L 38.09375 47.515625 
L 5.515625 47.515625 
z
" id="DejaVuSans-122"/>
    </defs>
    <g transform="translate(102.428438 16.318125)scale(0.12 -0.12)">
     <use xlink:href="#DejaVuSans-82"/>
     <use x="69.419922" xlink:href="#DejaVuSans-101"/>
     <use x="130.943359" xlink:href="#DejaVuSans-97"/>
     <use x="192.222656" xlink:href="#DejaVuSans-108"/>
     <use x="220.005859" xlink:href="#DejaVuSans-32"/>
     <use x="251.792969" xlink:href="#DejaVuSans-116"/>
     <use x="291.001953" xlink:href="#DejaVuSans-97"/>
     <use x="352.28125" xlink:href="#DejaVuSans-103"/>
     <use x="415.757812" xlink:href="#DejaVuSans-115"/>
     <use x="467.857422" xlink:href="#DejaVuSans-32"/>
     <use x="499.644531" xlink:href="#DejaVuSans-118"/>
     <use x="558.824219" xlink:href="#DejaVuSans-115"/>
     <use x="610.923828" xlink:href="#DejaVuSans-46"/>
     <use x="642.710938" xlink:href="#DejaVuSans-32"/>
     <use x="674.498047" xlink:href="#DejaVuSans-77"/>
     <use x="760.777344" xlink:href="#DejaVuSans-105"/>
     <use x="788.560547" xlink:href="#DejaVuSans-120"/>
     <use x="847.693359" xlink:href="#DejaVuSans-101"/>
     <use x="909.216797" xlink:href="#DejaVuSans-100"/>
     <use x="972.693359" xlink:href="#DejaVuSans-32"/>
     <use x="1004.480469" xlink:href="#DejaVuSans-116"/>
     <use x="1043.689453" xlink:href="#DejaVuSans-97"/>
     <use x="1104.96875" xlink:href="#DejaVuSans-103"/>
     <use x="1168.445312" xlink:href="#DejaVuSans-115"/>
     <use x="1220.544922" xlink:href="#DejaVuSans-32"/>
     <use x="1252.332031" xlink:href="#DejaVuSans-97"/>
     <use x="1313.611328" xlink:href="#DejaVuSans-116"/>
     <use x="1352.820312" xlink:href="#DejaVuSans-32"/>
     <use x="1384.607422" xlink:href="#DejaVuSans-84"/>
     <use x="1445.457031" xlink:href="#DejaVuSans-117"/>
     <use x="1508.835938" xlink:href="#DejaVuSans-109"/>
     <use x="1606.248047" xlink:href="#DejaVuSans-111"/>
     <use x="1667.429688" xlink:href="#DejaVuSans-114"/>
     <use x="1708.542969" xlink:href="#DejaVuSans-32"/>
     <use x="1740.330078" xlink:href="#DejaVuSans-83"/>
     <use x="1803.806641" xlink:href="#DejaVuSans-105"/>
     <use x="1831.589844" xlink:href="#DejaVuSans-122"/>
     <use x="1884.080078" xlink:href="#DejaVuSans-101"/>
    </g>
   </g>
   <g id="legend_1">
    <g id="patch_107">
     <path d="M 303.004375 59.674375 
L 390.723125 59.674375 
Q 392.723125 59.674375 392.723125 57.674375 
L 392.723125 29.318125 
Q 392.723125 27.318125 390.723125 27.318125 
L 303.004375 27.318125 
Q 301.004375 27.318125 301.004375 29.318125 
L 301.004375 57.674375 
Q 301.004375 59.674375 303.004375 59.674375 
z
" style="fill:#ffffff;opacity:0.8;stroke:#cccccc;stroke-linejoin:miter;"/>
    </g>
    <g id="patch_108">
     <path d="M 305.004375 38.916562 
L 325.004375 38.916562 
L 325.004375 31.916562 
L 305.004375 31.916562 
z
" style="fill:#d95f0e;opacity:0.5;"/>
    </g>
    <g id="text_19">
     <!-- mixed tags -->
     <g transform="translate(333.004375 38.916562)scale(0.1 -0.1)">
      <use xlink:href="#DejaVuSans-109"/>
      <use x="97.412109" xlink:href="#DejaVuSans-105"/>
      <use x="125.195312" xlink:href="#DejaVuSans-120"/>
      <use x="184.328125" xlink:href="#DejaVuSans-101"/>
      <use x="245.851562" xlink:href="#DejaVuSans-100"/>
      <use x="309.328125" xlink:href="#DejaVuSans-32"/>
      <use x="341.115234" xlink:href="#DejaVuSans-116"/>
      <use x="380.324219" xlink:href="#DejaVuSans-97"/>
      <use x="441.603516" xlink:href="#DejaVuSans-103"/>
      <use x="505.080078" xlink:href="#DejaVuSans-115"/>
     </g>
    </g>
    <g id="patch_109">
     <path d="M 305.004375 53.594687 
L 325.004375 53.594687 
L 325.004375 46.594687 
L 305.004375 46.594687 
z
" style="fill:#43a2ca;opacity:0.8;"/>
    </g>
    <g id="text_20">
     <!-- real tags -->
     <g transform="translate(333.004375 53.594687)scale(0.1 -0.1)">
      <use xlink:href="#DejaVuSans-114"/>
      <use x="41.082031" xlink:href="#DejaVuSans-101"/>
      <use x="102.605469" xlink:href="#DejaVuSans-97"/>
      <use x="163.884766" xlink:href="#DejaVuSans-108"/>
      <use x="191.667969" xlink:href="#DejaVuSans-32"/>
      <use x="223.455078" xlink:href="#DejaVuSans-116"/>
      <use x="262.664062" xlink:href="#DejaVuSans-97"/>
      <use x="323.943359" xlink:href="#DejaVuSans-103"/>
      <use x="387.419922" xlink:href="#DejaVuSans-115"/>
     </g>
    </g>
   </g>
  </g>
 </g>
 <defs>
  <clipPath id="p6ecec561fb">
   <rect height="266.112" width="357.12" x="40.603125" y="22.318125"/>
  </clipPath>
 </defs>
</svg>
