<?xml version="1.0" encoding="utf-8" standalone="no"?>
<!DOCTYPE svg PUBLIC "-//W3C//DTD SVG 1.1//EN"
  "http://www.w3.org/Graphics/SVG/1.1/DTD/svg11.dtd">
<!-- Created with matplotlib (https://matplotlib.org/) -->
<svg height="352.861125pt" version="1.1" viewBox="0 0 407.635937 352.861125" width="407.635937pt" xmlns="http://www.w3.org/2000/svg" xmlns:xlink="http://www.w3.org/1999/xlink">
 <defs>
  <style type="text/css">
*{stroke-linecap:butt;stroke-linejoin:round;}
  </style>
 </defs>
 <g id="figure_1">
  <g id="patch_1">
   <path d="M -0 352.861125 
L 407.635937 352.861125 
L 407.635937 0 
L -0 0 
z
" style="fill:#ffffff;"/>
  </g>
  <g id="axes_1">
   <g id="patch_2">
    <path d="M 132.198437 315.304875 
L 362.598437 315.304875 
L 362.598437 49.192875 
L 132.198437 49.192875 
z
" style="fill:#ffffff;"/>
   </g>
   <g id="patch_3">
    <path clip-path="url(#p46ca863d2d)" d="M 251.748622 303.208875 
L 142.671165 303.208875 
L 142.671165 297.802841 
L 251.748622 297.802841 
z
" style="fill:#ff0000;"/>
   </g>
   <g id="patch_4">
    <path clip-path="url(#p46ca863d2d)" d="M 251.748622 296.451333 
L 171.827094 296.451333 
L 171.827094 291.0453 
L 251.748622 291.0453 
z
" style="fill:#ff0000;"/>
   </g>
   <g id="patch_5">
    <path clip-path="url(#p46ca863d2d)" d="M 251.748622 289.693791 
L 203.48685 289.693791 
L 203.48685 284.287758 
L 251.748622 284.287758 
z
" style="fill:#ff0000;"/>
   </g>
   <g id="patch_6">
    <path clip-path="url(#p46ca863d2d)" d="M 251.748622 282.936249 
L 210.974598 282.936249 
L 210.974598 277.530216 
L 251.748622 277.530216 
z
" style="fill:#ff0000;"/>
   </g>
   <g id="patch_7">
    <path clip-path="url(#p46ca863d2d)" d="M 251.748622 276.178707 
L 218.030901 276.178707 
L 218.030901 270.772674 
L 251.748622 270.772674 
z
" style="fill:#ff0000;"/>
   </g>
   <g id="patch_8">
    <path clip-path="url(#p46ca863d2d)" d="M 251.748622 269.421166 
L 220.292915 269.421166 
L 220.292915 264.015132 
L 251.748622 264.015132 
z
" style="fill:#ff0000;"/>
   </g>
   <g id="patch_9">
    <path clip-path="url(#p46ca863d2d)" d="M 251.748622 262.663624 
L 224.793702 262.663624 
L 224.793702 257.25759 
L 251.748622 257.25759 
z
" style="fill:#ff0000;"/>
   </g>
   <g id="patch_10">
    <path clip-path="url(#p46ca863d2d)" d="M 251.748622 255.906082 
L 227.308106 255.906082 
L 227.308106 250.500048 
L 251.748622 250.500048 
z
" style="fill:#ff0000;"/>
   </g>
   <g id="patch_11">
    <path clip-path="url(#p46ca863d2d)" d="M 251.748622 249.14854 
L 227.502135 249.14854 
L 227.502135 243.742506 
L 251.748622 243.742506 
z
" style="fill:#ff0000;"/>
   </g>
   <g id="patch_12">
    <path clip-path="url(#p46ca863d2d)" d="M 251.748622 242.390998 
L 228.238383 242.390998 
L 228.238383 236.984964 
L 251.748622 236.984964 
z
" style="fill:#ff0000;"/>
   </g>
   <g id="patch_13">
    <path clip-path="url(#p46ca863d2d)" d="M 251.748622 235.633456 
L 228.289321 235.633456 
L 228.289321 230.227422 
L 251.748622 230.227422 
z
" style="fill:#ff0000;"/>
   </g>
   <g id="patch_14">
    <path clip-path="url(#p46ca863d2d)" d="M 251.748622 228.875914 
L 228.57022 228.875914 
L 228.57022 223.469881 
L 251.748622 223.469881 
z
" style="fill:#ff0000;"/>
   </g>
   <g id="patch_15">
    <path clip-path="url(#p46ca863d2d)" d="M 251.748622 222.118372 
L 228.777959 222.118372 
L 228.777959 216.712339 
L 251.748622 216.712339 
z
" style="fill:#ff0000;"/>
   </g>
   <g id="patch_16">
    <path clip-path="url(#p46ca863d2d)" d="M 251.748622 215.36083 
L 229.091413 215.36083 
L 229.091413 209.954797 
L 251.748622 209.954797 
z
" style="fill:#ff0000;"/>
   </g>
   <g id="patch_17">
    <path clip-path="url(#p46ca863d2d)" d="M 251.748622 208.603288 
L 230.696129 208.603288 
L 230.696129 203.197255 
L 251.748622 203.197255 
z
" style="fill:#ff0000;"/>
   </g>
   <g id="patch_18">
    <path clip-path="url(#p46ca863d2d)" d="M 251.748622 201.845747 
L 232.39981 201.845747 
L 232.39981 196.439713 
L 251.748622 196.439713 
z
" style="fill:#ff0000;"/>
   </g>
   <g id="patch_19">
    <path clip-path="url(#p46ca863d2d)" d="M 251.748622 195.088205 
L 232.502789 195.088205 
L 232.502789 189.682171 
L 251.748622 189.682171 
z
" style="fill:#ff0000;"/>
   </g>
   <g id="patch_20">
    <path clip-path="url(#p46ca863d2d)" d="M 251.748622 188.330663 
L 233.421732 188.330663 
L 233.421732 182.924629 
L 251.748622 182.924629 
z
" style="fill:#ff0000;"/>
   </g>
   <g id="patch_21">
    <path clip-path="url(#p46ca863d2d)" d="M 251.748622 181.573121 
L 286.758244 181.573121 
L 286.758244 176.167087 
L 251.748622 176.167087 
z
" style="fill:#008000;"/>
   </g>
   <g id="patch_22">
    <path clip-path="url(#p46ca863d2d)" d="M 251.748622 174.815579 
L 286.996205 174.815579 
L 286.996205 169.409545 
L 251.748622 169.409545 
z
" style="fill:#008000;"/>
   </g>
   <g id="patch_23">
    <path clip-path="url(#p46ca863d2d)" d="M 251.748622 168.058037 
L 290.507208 168.058037 
L 290.507208 162.652003 
L 251.748622 162.652003 
z
" style="fill:#008000;"/>
   </g>
   <g id="patch_24">
    <path clip-path="url(#p46ca863d2d)" d="M 251.748622 161.300495 
L 292.213328 161.300495 
L 292.213328 155.894462 
L 251.748622 155.894462 
z
" style="fill:#008000;"/>
   </g>
   <g id="patch_25">
    <path clip-path="url(#p46ca863d2d)" d="M 251.748622 154.542953 
L 293.625283 154.542953 
L 293.625283 149.13692 
L 251.748622 149.13692 
z
" style="fill:#008000;"/>
   </g>
   <g id="patch_26">
    <path clip-path="url(#p46ca863d2d)" d="M 251.748622 147.785411 
L 295.539187 147.785411 
L 295.539187 142.379378 
L 251.748622 142.379378 
z
" style="fill:#008000;"/>
   </g>
   <g id="patch_27">
    <path clip-path="url(#p46ca863d2d)" d="M 251.748622 141.027869 
L 297.61786 141.027869 
L 297.61786 135.621836 
L 251.748622 135.621836 
z
" style="fill:#008000;"/>
   </g>
   <g id="patch_28">
    <path clip-path="url(#p46ca863d2d)" d="M 251.748622 134.270328 
L 299.495926 134.270328 
L 299.495926 128.864294 
L 251.748622 128.864294 
z
" style="fill:#008000;"/>
   </g>
   <g id="patch_29">
    <path clip-path="url(#p46ca863d2d)" d="M 251.748622 127.512786 
L 301.242741 127.512786 
L 301.242741 122.106752 
L 251.748622 122.106752 
z
" style="fill:#008000;"/>
   </g>
   <g id="patch_30">
    <path clip-path="url(#p46ca863d2d)" d="M 251.748622 120.755244 
L 304.938708 120.755244 
L 304.938708 115.34921 
L 251.748622 115.34921 
z
" style="fill:#008000;"/>
   </g>
   <g id="patch_31">
    <path clip-path="url(#p46ca863d2d)" d="M 251.748622 113.997702 
L 307.57879 113.997702 
L 307.57879 108.591668 
L 251.748622 108.591668 
z
" style="fill:#008000;"/>
   </g>
   <g id="patch_32">
    <path clip-path="url(#p46ca863d2d)" d="M 251.748622 107.24016 
L 308.008116 107.24016 
L 308.008116 101.834126 
L 251.748622 101.834126 
z
" style="fill:#008000;"/>
   </g>
   <g id="patch_33">
    <path clip-path="url(#p46ca863d2d)" d="M 251.748622 100.482618 
L 308.275794 100.482618 
L 308.275794 95.076584 
L 251.748622 95.076584 
z
" style="fill:#008000;"/>
   </g>
   <g id="patch_34">
    <path clip-path="url(#p46ca863d2d)" d="M 251.748622 93.725076 
L 308.968863 93.725076 
L 308.968863 88.319043 
L 251.748622 88.319043 
z
" style="fill:#008000;"/>
   </g>
   <g id="patch_35">
    <path clip-path="url(#p46ca863d2d)" d="M 251.748622 86.967534 
L 314.182745 86.967534 
L 314.182745 81.561501 
L 251.748622 81.561501 
z
" style="fill:#008000;"/>
   </g>
   <g id="patch_36">
    <path clip-path="url(#p46ca863d2d)" d="M 251.748622 80.209992 
L 314.542753 80.209992 
L 314.542753 74.803959 
L 251.748622 74.803959 
z
" style="fill:#008000;"/>
   </g>
   <g id="patch_37">
    <path clip-path="url(#p46ca863d2d)" d="M 251.748622 73.45245 
L 330.594081 73.45245 
L 330.594081 68.046417 
L 251.748622 68.046417 
z
" style="fill:#008000;"/>
   </g>
   <g id="patch_38">
    <path clip-path="url(#p46ca863d2d)" d="M 251.748622 66.694909 
L 352.12571 66.694909 
L 352.12571 61.288875 
L 251.748622 61.288875 
z
" style="fill:#008000;"/>
   </g>
   <g id="matplotlib.axis_1">
    <g id="xtick_1">
     <g id="line2d_1">
      <defs>
       <path d="M 0 0 
L 0 3.5 
" id="m3b65a024fc" style="stroke:#000000;stroke-width:0.8;"/>
      </defs>
      <g>
       <use style="stroke:#000000;stroke-width:0.8;" x="187.53986" xlink:href="#m3b65a024fc" y="315.304875"/>
      </g>
     </g>
     <g id="text_1">
      <!-- −0.1 -->
      <defs>
       <path d="M 10.59375 35.5 
L 73.1875 35.5 
L 73.1875 27.203125 
L 10.59375 27.203125 
z
" id="DejaVuSans-8722"/>
       <path d="M 31.78125 66.40625 
Q 24.171875 66.40625 20.328125 58.90625 
Q 16.5 51.421875 16.5 36.375 
Q 16.5 21.390625 20.328125 13.890625 
Q 24.171875 6.390625 31.78125 6.390625 
Q 39.453125 6.390625 43.28125 13.890625 
Q 47.125 21.390625 47.125 36.375 
Q 47.125 51.421875 43.28125 58.90625 
Q 39.453125 66.40625 31.78125 66.40625 
z
M 31.78125 74.21875 
Q 44.046875 74.21875 50.515625 64.515625 
Q 56.984375 54.828125 56.984375 36.375 
Q 56.984375 17.96875 50.515625 8.265625 
Q 44.046875 -1.421875 31.78125 -1.421875 
Q 19.53125 -1.421875 13.0625 8.265625 
Q 6.59375 17.96875 6.59375 36.375 
Q 6.59375 54.828125 13.0625 64.515625 
Q 19.53125 74.21875 31.78125 74.21875 
z
" id="DejaVuSans-48"/>
       <path d="M 10.6875 12.40625 
L 21 12.40625 
L 21 0 
L 10.6875 0 
z
" id="DejaVuSans-46"/>
       <path d="M 12.40625 8.296875 
L 28.515625 8.296875 
L 28.515625 63.921875 
L 10.984375 60.40625 
L 10.984375 69.390625 
L 28.421875 72.90625 
L 38.28125 72.90625 
L 38.28125 8.296875 
L 54.390625 8.296875 
L 54.390625 0 
L 12.40625 0 
z
" id="DejaVuSans-49"/>
      </defs>
      <g transform="translate(175.398453 329.903312)scale(0.1 -0.1)">
       <use xlink:href="#DejaVuSans-8722"/>
       <use x="83.789062" xlink:href="#DejaVuSans-48"/>
       <use x="147.412109" xlink:href="#DejaVuSans-46"/>
       <use x="179.199219" xlink:href="#DejaVuSans-49"/>
      </g>
     </g>
    </g>
    <g id="xtick_2">
     <g id="line2d_2">
      <g>
       <use style="stroke:#000000;stroke-width:0.8;" x="251.748622" xlink:href="#m3b65a024fc" y="315.304875"/>
      </g>
     </g>
     <g id="text_2">
      <!-- 0.0 -->
      <g transform="translate(243.79706 329.903312)scale(0.1 -0.1)">
       <use xlink:href="#DejaVuSans-48"/>
       <use x="63.623047" xlink:href="#DejaVuSans-46"/>
       <use x="95.410156" xlink:href="#DejaVuSans-48"/>
      </g>
     </g>
    </g>
    <g id="xtick_3">
     <g id="line2d_3">
      <g>
       <use style="stroke:#000000;stroke-width:0.8;" x="315.957385" xlink:href="#m3b65a024fc" y="315.304875"/>
      </g>
     </g>
     <g id="text_3">
      <!-- 0.1 -->
      <g transform="translate(308.005822 329.903312)scale(0.1 -0.1)">
       <use xlink:href="#DejaVuSans-48"/>
       <use x="63.623047" xlink:href="#DejaVuSans-46"/>
       <use x="95.410156" xlink:href="#DejaVuSans-49"/>
      </g>
     </g>
    </g>
    <g id="text_4">
     <!-- Coeff value -->
     <defs>
      <path d="M 64.40625 67.28125 
L 64.40625 56.890625 
Q 59.421875 61.53125 53.78125 63.8125 
Q 48.140625 66.109375 41.796875 66.109375 
Q 29.296875 66.109375 22.65625 58.46875 
Q 16.015625 50.828125 16.015625 36.375 
Q 16.015625 21.96875 22.65625 14.328125 
Q 29.296875 6.6875 41.796875 6.6875 
Q 48.140625 6.6875 53.78125 8.984375 
Q 59.421875 11.28125 64.40625 15.921875 
L 64.40625 5.609375 
Q 59.234375 2.09375 53.4375 0.328125 
Q 47.65625 -1.421875 41.21875 -1.421875 
Q 24.65625 -1.421875 15.125 8.703125 
Q 5.609375 18.84375 5.609375 36.375 
Q 5.609375 53.953125 15.125 64.078125 
Q 24.65625 74.21875 41.21875 74.21875 
Q 47.75 74.21875 53.53125 72.484375 
Q 59.328125 70.75 64.40625 67.28125 
z
" id="DejaVuSans-67"/>
      <path d="M 30.609375 48.390625 
Q 23.390625 48.390625 19.1875 42.75 
Q 14.984375 37.109375 14.984375 27.296875 
Q 14.984375 17.484375 19.15625 11.84375 
Q 23.34375 6.203125 30.609375 6.203125 
Q 37.796875 6.203125 41.984375 11.859375 
Q 46.1875 17.53125 46.1875 27.296875 
Q 46.1875 37.015625 41.984375 42.703125 
Q 37.796875 48.390625 30.609375 48.390625 
z
M 30.609375 56 
Q 42.328125 56 49.015625 48.375 
Q 55.71875 40.765625 55.71875 27.296875 
Q 55.71875 13.875 49.015625 6.21875 
Q 42.328125 -1.421875 30.609375 -1.421875 
Q 18.84375 -1.421875 12.171875 6.21875 
Q 5.515625 13.875 5.515625 27.296875 
Q 5.515625 40.765625 12.171875 48.375 
Q 18.84375 56 30.609375 56 
z
" id="DejaVuSans-111"/>
      <path d="M 56.203125 29.59375 
L 56.203125 25.203125 
L 14.890625 25.203125 
Q 15.484375 15.921875 20.484375 11.0625 
Q 25.484375 6.203125 34.421875 6.203125 
Q 39.59375 6.203125 44.453125 7.46875 
Q 49.3125 8.734375 54.109375 11.28125 
L 54.109375 2.78125 
Q 49.265625 0.734375 44.1875 -0.34375 
Q 39.109375 -1.421875 33.890625 -1.421875 
Q 20.796875 -1.421875 13.15625 6.1875 
Q 5.515625 13.8125 5.515625 26.8125 
Q 5.515625 40.234375 12.765625 48.109375 
Q 20.015625 56 32.328125 56 
Q 43.359375 56 49.78125 48.890625 
Q 56.203125 41.796875 56.203125 29.59375 
z
M 47.21875 32.234375 
Q 47.125 39.59375 43.09375 43.984375 
Q 39.0625 48.390625 32.421875 48.390625 
Q 24.90625 48.390625 20.390625 44.140625 
Q 15.875 39.890625 15.1875 32.171875 
z
" id="DejaVuSans-101"/>
      <path d="M 37.109375 75.984375 
L 37.109375 68.5 
L 28.515625 68.5 
Q 23.6875 68.5 21.796875 66.546875 
Q 19.921875 64.59375 19.921875 59.515625 
L 19.921875 54.6875 
L 34.71875 54.6875 
L 34.71875 47.703125 
L 19.921875 47.703125 
L 19.921875 0 
L 10.890625 0 
L 10.890625 47.703125 
L 2.296875 47.703125 
L 2.296875 54.6875 
L 10.890625 54.6875 
L 10.890625 58.5 
Q 10.890625 67.625 15.140625 71.796875 
Q 19.390625 75.984375 28.609375 75.984375 
z
" id="DejaVuSans-102"/>
      <path id="DejaVuSans-32"/>
      <path d="M 2.984375 54.6875 
L 12.5 54.6875 
L 29.59375 8.796875 
L 46.6875 54.6875 
L 56.203125 54.6875 
L 35.6875 0 
L 23.484375 0 
z
" id="DejaVuSans-118"/>
      <path d="M 34.28125 27.484375 
Q 23.390625 27.484375 19.1875 25 
Q 14.984375 22.515625 14.984375 16.5 
Q 14.984375 11.71875 18.140625 8.90625 
Q 21.296875 6.109375 26.703125 6.109375 
Q 34.1875 6.109375 38.703125 11.40625 
Q 43.21875 16.703125 43.21875 25.484375 
L 43.21875 27.484375 
z
M 52.203125 31.203125 
L 52.203125 0 
L 43.21875 0 
L 43.21875 8.296875 
Q 40.140625 3.328125 35.546875 0.953125 
Q 30.953125 -1.421875 24.3125 -1.421875 
Q 15.921875 -1.421875 10.953125 3.296875 
Q 6 8.015625 6 15.921875 
Q 6 25.140625 12.171875 29.828125 
Q 18.359375 34.515625 30.609375 34.515625 
L 43.21875 34.515625 
L 43.21875 35.40625 
Q 43.21875 41.609375 39.140625 45 
Q 35.0625 48.390625 27.6875 48.390625 
Q 23 48.390625 18.546875 47.265625 
Q 14.109375 46.140625 10.015625 43.890625 
L 10.015625 52.203125 
Q 14.9375 54.109375 19.578125 55.046875 
Q 24.21875 56 28.609375 56 
Q 40.484375 56 46.34375 49.84375 
Q 52.203125 43.703125 52.203125 31.203125 
z
" id="DejaVuSans-97"/>
      <path d="M 9.421875 75.984375 
L 18.40625 75.984375 
L 18.40625 0 
L 9.421875 0 
z
" id="DejaVuSans-108"/>
      <path d="M 8.5 21.578125 
L 8.5 54.6875 
L 17.484375 54.6875 
L 17.484375 21.921875 
Q 17.484375 14.15625 20.5 10.265625 
Q 23.53125 6.390625 29.59375 6.390625 
Q 36.859375 6.390625 41.078125 11.03125 
Q 45.3125 15.671875 45.3125 23.6875 
L 45.3125 54.6875 
L 54.296875 54.6875 
L 54.296875 0 
L 45.3125 0 
L 45.3125 8.40625 
Q 42.046875 3.421875 37.71875 1 
Q 33.40625 -1.421875 27.6875 -1.421875 
Q 18.265625 -1.421875 13.375 4.4375 
Q 8.5 10.296875 8.5 21.578125 
z
M 31.109375 56 
z
" id="DejaVuSans-117"/>
     </defs>
     <g transform="translate(219.003906 343.581437)scale(0.1 -0.1)">
      <use xlink:href="#DejaVuSans-67"/>
      <use x="69.824219" xlink:href="#DejaVuSans-111"/>
      <use x="131.005859" xlink:href="#DejaVuSans-101"/>
      <use x="192.529297" xlink:href="#DejaVuSans-102"/>
      <use x="227.734375" xlink:href="#DejaVuSans-102"/>
      <use x="262.939453" xlink:href="#DejaVuSans-32"/>
      <use x="294.726562" xlink:href="#DejaVuSans-118"/>
      <use x="353.90625" xlink:href="#DejaVuSans-97"/>
      <use x="415.185547" xlink:href="#DejaVuSans-108"/>
      <use x="442.96875" xlink:href="#DejaVuSans-117"/>
      <use x="506.347656" xlink:href="#DejaVuSans-101"/>
     </g>
    </g>
   </g>
   <g id="matplotlib.axis_2">
    <g id="ytick_1">
     <g id="line2d_4">
      <defs>
       <path d="M 0 0 
L -3.5 0 
" id="mbce33a390f" style="stroke:#000000;stroke-width:0.8;"/>
      </defs>
      <g>
       <use style="stroke:#000000;stroke-width:0.8;" x="132.198437" xlink:href="#mbce33a390f" y="300.505858"/>
      </g>
     </g>
     <g id="text_5">
      <!--  s__torques -->
      <defs>
       <path d="M 44.28125 53.078125 
L 44.28125 44.578125 
Q 40.484375 46.53125 36.375 47.5 
Q 32.28125 48.484375 27.875 48.484375 
Q 21.1875 48.484375 17.84375 46.4375 
Q 14.5 44.390625 14.5 40.28125 
Q 14.5 37.15625 16.890625 35.375 
Q 19.28125 33.59375 26.515625 31.984375 
L 29.59375 31.296875 
Q 39.15625 29.25 43.1875 25.515625 
Q 47.21875 21.78125 47.21875 15.09375 
Q 47.21875 7.46875 41.1875 3.015625 
Q 35.15625 -1.421875 24.609375 -1.421875 
Q 20.21875 -1.421875 15.453125 -0.5625 
Q 10.6875 0.296875 5.421875 2 
L 5.421875 11.28125 
Q 10.40625 8.6875 15.234375 7.390625 
Q 20.0625 6.109375 24.8125 6.109375 
Q 31.15625 6.109375 34.5625 8.28125 
Q 37.984375 10.453125 37.984375 14.40625 
Q 37.984375 18.0625 35.515625 20.015625 
Q 33.0625 21.96875 24.703125 23.78125 
L 21.578125 24.515625 
Q 13.234375 26.265625 9.515625 29.90625 
Q 5.8125 33.546875 5.8125 39.890625 
Q 5.8125 47.609375 11.28125 51.796875 
Q 16.75 56 26.8125 56 
Q 31.78125 56 36.171875 55.265625 
Q 40.578125 54.546875 44.28125 53.078125 
z
" id="DejaVuSans-115"/>
       <path d="M 50.984375 -16.609375 
L 50.984375 -23.578125 
L -0.984375 -23.578125 
L -0.984375 -16.609375 
z
" id="DejaVuSans-95"/>
       <path d="M 18.3125 70.21875 
L 18.3125 54.6875 
L 36.8125 54.6875 
L 36.8125 47.703125 
L 18.3125 47.703125 
L 18.3125 18.015625 
Q 18.3125 11.328125 20.140625 9.421875 
Q 21.96875 7.515625 27.59375 7.515625 
L 36.8125 7.515625 
L 36.8125 0 
L 27.59375 0 
Q 17.1875 0 13.234375 3.875 
Q 9.28125 7.765625 9.28125 18.015625 
L 9.28125 47.703125 
L 2.6875 47.703125 
L 2.6875 54.6875 
L 9.28125 54.6875 
L 9.28125 70.21875 
z
" id="DejaVuSans-116"/>
       <path d="M 41.109375 46.296875 
Q 39.59375 47.171875 37.8125 47.578125 
Q 36.03125 48 33.890625 48 
Q 26.265625 48 22.1875 43.046875 
Q 18.109375 38.09375 18.109375 28.8125 
L 18.109375 0 
L 9.078125 0 
L 9.078125 54.6875 
L 18.109375 54.6875 
L 18.109375 46.1875 
Q 20.953125 51.171875 25.484375 53.578125 
Q 30.03125 56 36.53125 56 
Q 37.453125 56 38.578125 55.875 
Q 39.703125 55.765625 41.0625 55.515625 
z
" id="DejaVuSans-114"/>
       <path d="M 14.796875 27.296875 
Q 14.796875 17.390625 18.875 11.75 
Q 22.953125 6.109375 30.078125 6.109375 
Q 37.203125 6.109375 41.296875 11.75 
Q 45.40625 17.390625 45.40625 27.296875 
Q 45.40625 37.203125 41.296875 42.84375 
Q 37.203125 48.484375 30.078125 48.484375 
Q 22.953125 48.484375 18.875 42.84375 
Q 14.796875 37.203125 14.796875 27.296875 
z
M 45.40625 8.203125 
Q 42.578125 3.328125 38.25 0.953125 
Q 33.9375 -1.421875 27.875 -1.421875 
Q 17.96875 -1.421875 11.734375 6.484375 
Q 5.515625 14.40625 5.515625 27.296875 
Q 5.515625 40.1875 11.734375 48.09375 
Q 17.96875 56 27.875 56 
Q 33.9375 56 38.25 53.625 
Q 42.578125 51.265625 45.40625 46.390625 
L 45.40625 54.6875 
L 54.390625 54.6875 
L 54.390625 -20.796875 
L 45.40625 -20.796875 
z
" id="DejaVuSans-113"/>
      </defs>
      <g transform="translate(68.614062 304.166014)scale(0.1 -0.1)">
       <use xlink:href="#DejaVuSans-32"/>
       <use x="31.787109" xlink:href="#DejaVuSans-115"/>
       <use x="83.886719" xlink:href="#DejaVuSans-95"/>
       <use x="133.886719" xlink:href="#DejaVuSans-95"/>
       <use x="183.886719" xlink:href="#DejaVuSans-116"/>
       <use x="223.095703" xlink:href="#DejaVuSans-111"/>
       <use x="284.277344" xlink:href="#DejaVuSans-114"/>
       <use x="325.375" xlink:href="#DejaVuSans-113"/>
       <use x="388.851562" xlink:href="#DejaVuSans-117"/>
       <use x="452.230469" xlink:href="#DejaVuSans-101"/>
       <use x="513.753906" xlink:href="#DejaVuSans-115"/>
      </g>
     </g>
    </g>
    <g id="ytick_2">
     <g id="line2d_5">
      <g>
       <use style="stroke:#000000;stroke-width:0.8;" x="132.198437" xlink:href="#mbce33a390f" y="293.748316"/>
      </g>
     </g>
     <g id="text_6">
      <!--  s__muciniphila -->
      <defs>
       <path d="M 52 44.1875 
Q 55.375 50.25 60.0625 53.125 
Q 64.75 56 71.09375 56 
Q 79.640625 56 84.28125 50.015625 
Q 88.921875 44.046875 88.921875 33.015625 
L 88.921875 0 
L 79.890625 0 
L 79.890625 32.71875 
Q 79.890625 40.578125 77.09375 44.375 
Q 74.3125 48.1875 68.609375 48.1875 
Q 61.625 48.1875 57.5625 43.546875 
Q 53.515625 38.921875 53.515625 30.90625 
L 53.515625 0 
L 44.484375 0 
L 44.484375 32.71875 
Q 44.484375 40.625 41.703125 44.40625 
Q 38.921875 48.1875 33.109375 48.1875 
Q 26.21875 48.1875 22.15625 43.53125 
Q 18.109375 38.875 18.109375 30.90625 
L 18.109375 0 
L 9.078125 0 
L 9.078125 54.6875 
L 18.109375 54.6875 
L 18.109375 46.1875 
Q 21.1875 51.21875 25.484375 53.609375 
Q 29.78125 56 35.6875 56 
Q 41.65625 56 45.828125 52.96875 
Q 50 49.953125 52 44.1875 
z
" id="DejaVuSans-109"/>
       <path d="M 48.78125 52.59375 
L 48.78125 44.1875 
Q 44.96875 46.296875 41.140625 47.34375 
Q 37.3125 48.390625 33.40625 48.390625 
Q 24.65625 48.390625 19.8125 42.84375 
Q 14.984375 37.3125 14.984375 27.296875 
Q 14.984375 17.28125 19.8125 11.734375 
Q 24.65625 6.203125 33.40625 6.203125 
Q 37.3125 6.203125 41.140625 7.25 
Q 44.96875 8.296875 48.78125 10.40625 
L 48.78125 2.09375 
Q 45.015625 0.34375 40.984375 -0.53125 
Q 36.96875 -1.421875 32.421875 -1.421875 
Q 20.0625 -1.421875 12.78125 6.34375 
Q 5.515625 14.109375 5.515625 27.296875 
Q 5.515625 40.671875 12.859375 48.328125 
Q 20.21875 56 33.015625 56 
Q 37.15625 56 41.109375 55.140625 
Q 45.0625 54.296875 48.78125 52.59375 
z
" id="DejaVuSans-99"/>
       <path d="M 9.421875 54.6875 
L 18.40625 54.6875 
L 18.40625 0 
L 9.421875 0 
z
M 9.421875 75.984375 
L 18.40625 75.984375 
L 18.40625 64.59375 
L 9.421875 64.59375 
z
" id="DejaVuSans-105"/>
       <path d="M 54.890625 33.015625 
L 54.890625 0 
L 45.90625 0 
L 45.90625 32.71875 
Q 45.90625 40.484375 42.875 44.328125 
Q 39.84375 48.1875 33.796875 48.1875 
Q 26.515625 48.1875 22.3125 43.546875 
Q 18.109375 38.921875 18.109375 30.90625 
L 18.109375 0 
L 9.078125 0 
L 9.078125 54.6875 
L 18.109375 54.6875 
L 18.109375 46.1875 
Q 21.34375 51.125 25.703125 53.5625 
Q 30.078125 56 35.796875 56 
Q 45.21875 56 50.046875 50.171875 
Q 54.890625 44.34375 54.890625 33.015625 
z
" id="DejaVuSans-110"/>
       <path d="M 18.109375 8.203125 
L 18.109375 -20.796875 
L 9.078125 -20.796875 
L 9.078125 54.6875 
L 18.109375 54.6875 
L 18.109375 46.390625 
Q 20.953125 51.265625 25.265625 53.625 
Q 29.59375 56 35.59375 56 
Q 45.5625 56 51.78125 48.09375 
Q 58.015625 40.1875 58.015625 27.296875 
Q 58.015625 14.40625 51.78125 6.484375 
Q 45.5625 -1.421875 35.59375 -1.421875 
Q 29.59375 -1.421875 25.265625 0.953125 
Q 20.953125 3.328125 18.109375 8.203125 
z
M 48.6875 27.296875 
Q 48.6875 37.203125 44.609375 42.84375 
Q 40.53125 48.484375 33.40625 48.484375 
Q 26.265625 48.484375 22.1875 42.84375 
Q 18.109375 37.203125 18.109375 27.296875 
Q 18.109375 17.390625 22.1875 11.75 
Q 26.265625 6.109375 33.40625 6.109375 
Q 40.53125 6.109375 44.609375 11.75 
Q 48.6875 17.390625 48.6875 27.296875 
z
" id="DejaVuSans-112"/>
       <path d="M 54.890625 33.015625 
L 54.890625 0 
L 45.90625 0 
L 45.90625 32.71875 
Q 45.90625 40.484375 42.875 44.328125 
Q 39.84375 48.1875 33.796875 48.1875 
Q 26.515625 48.1875 22.3125 43.546875 
Q 18.109375 38.921875 18.109375 30.90625 
L 18.109375 0 
L 9.078125 0 
L 9.078125 75.984375 
L 18.109375 75.984375 
L 18.109375 46.1875 
Q 21.34375 51.125 25.703125 53.5625 
Q 30.078125 56 35.796875 56 
Q 45.21875 56 50.046875 50.171875 
Q 54.890625 44.34375 54.890625 33.015625 
z
" id="DejaVuSans-104"/>
      </defs>
      <g transform="translate(48.970312 297.547535)scale(0.1 -0.1)">
       <use xlink:href="#DejaVuSans-32"/>
       <use x="31.787109" xlink:href="#DejaVuSans-115"/>
       <use x="83.886719" xlink:href="#DejaVuSans-95"/>
       <use x="133.886719" xlink:href="#DejaVuSans-95"/>
       <use x="183.886719" xlink:href="#DejaVuSans-109"/>
       <use x="281.298828" xlink:href="#DejaVuSans-117"/>
       <use x="344.677734" xlink:href="#DejaVuSans-99"/>
       <use x="399.658203" xlink:href="#DejaVuSans-105"/>
       <use x="427.441406" xlink:href="#DejaVuSans-110"/>
       <use x="490.820312" xlink:href="#DejaVuSans-105"/>
       <use x="518.603516" xlink:href="#DejaVuSans-112"/>
       <use x="582.080078" xlink:href="#DejaVuSans-104"/>
       <use x="645.458984" xlink:href="#DejaVuSans-105"/>
       <use x="673.242188" xlink:href="#DejaVuSans-108"/>
       <use x="701.025391" xlink:href="#DejaVuSans-97"/>
      </g>
     </g>
    </g>
    <g id="ytick_3">
     <g id="line2d_6">
      <g>
       <use style="stroke:#000000;stroke-width:0.8;" x="132.198437" xlink:href="#mbce33a390f" y="286.990774"/>
      </g>
     </g>
     <g id="text_7">
      <!--  s__lenta -->
      <g transform="translate(81.49375 290.789993)scale(0.1 -0.1)">
       <use xlink:href="#DejaVuSans-32"/>
       <use x="31.787109" xlink:href="#DejaVuSans-115"/>
       <use x="83.886719" xlink:href="#DejaVuSans-95"/>
       <use x="133.886719" xlink:href="#DejaVuSans-95"/>
       <use x="183.886719" xlink:href="#DejaVuSans-108"/>
       <use x="211.669922" xlink:href="#DejaVuSans-101"/>
       <use x="273.193359" xlink:href="#DejaVuSans-110"/>
       <use x="336.572266" xlink:href="#DejaVuSans-116"/>
       <use x="375.78125" xlink:href="#DejaVuSans-97"/>
      </g>
     </g>
    </g>
    <g id="ytick_4">
     <g id="line2d_7">
      <g>
       <use style="stroke:#000000;stroke-width:0.8;" x="132.198437" xlink:href="#mbce33a390f" y="280.233233"/>
      </g>
     </g>
     <g id="text_8">
      <!--  g__Streptococcus -->
      <defs>
       <path d="M 45.40625 27.984375 
Q 45.40625 37.75 41.375 43.109375 
Q 37.359375 48.484375 30.078125 48.484375 
Q 22.859375 48.484375 18.828125 43.109375 
Q 14.796875 37.75 14.796875 27.984375 
Q 14.796875 18.265625 18.828125 12.890625 
Q 22.859375 7.515625 30.078125 7.515625 
Q 37.359375 7.515625 41.375 12.890625 
Q 45.40625 18.265625 45.40625 27.984375 
z
M 54.390625 6.78125 
Q 54.390625 -7.171875 48.1875 -13.984375 
Q 42 -20.796875 29.203125 -20.796875 
Q 24.46875 -20.796875 20.265625 -20.09375 
Q 16.0625 -19.390625 12.109375 -17.921875 
L 12.109375 -9.1875 
Q 16.0625 -11.328125 19.921875 -12.34375 
Q 23.78125 -13.375 27.78125 -13.375 
Q 36.625 -13.375 41.015625 -8.765625 
Q 45.40625 -4.15625 45.40625 5.171875 
L 45.40625 9.625 
Q 42.625 4.78125 38.28125 2.390625 
Q 33.9375 0 27.875 0 
Q 17.828125 0 11.671875 7.65625 
Q 5.515625 15.328125 5.515625 27.984375 
Q 5.515625 40.671875 11.671875 48.328125 
Q 17.828125 56 27.875 56 
Q 33.9375 56 38.28125 53.609375 
Q 42.625 51.21875 45.40625 46.390625 
L 45.40625 54.6875 
L 54.390625 54.6875 
z
" id="DejaVuSans-103"/>
       <path d="M 53.515625 70.515625 
L 53.515625 60.890625 
Q 47.90625 63.578125 42.921875 64.890625 
Q 37.9375 66.21875 33.296875 66.21875 
Q 25.25 66.21875 20.875 63.09375 
Q 16.5 59.96875 16.5 54.203125 
Q 16.5 49.359375 19.40625 46.890625 
Q 22.3125 44.4375 30.421875 42.921875 
L 36.375 41.703125 
Q 47.40625 39.59375 52.65625 34.296875 
Q 57.90625 29 57.90625 20.125 
Q 57.90625 9.515625 50.796875 4.046875 
Q 43.703125 -1.421875 29.984375 -1.421875 
Q 24.8125 -1.421875 18.96875 -0.25 
Q 13.140625 0.921875 6.890625 3.21875 
L 6.890625 13.375 
Q 12.890625 10.015625 18.65625 8.296875 
Q 24.421875 6.59375 29.984375 6.59375 
Q 38.421875 6.59375 43.015625 9.90625 
Q 47.609375 13.234375 47.609375 19.390625 
Q 47.609375 24.75 44.3125 27.78125 
Q 41.015625 30.8125 33.5 32.328125 
L 27.484375 33.5 
Q 16.453125 35.6875 11.515625 40.375 
Q 6.59375 45.0625 6.59375 53.421875 
Q 6.59375 63.09375 13.40625 68.65625 
Q 20.21875 74.21875 32.171875 74.21875 
Q 37.3125 74.21875 42.625 73.28125 
Q 47.953125 72.359375 53.515625 70.515625 
z
" id="DejaVuSans-83"/>
      </defs>
      <g transform="translate(34.59375 283.94417)scale(0.1 -0.1)">
       <use xlink:href="#DejaVuSans-32"/>
       <use x="31.787109" xlink:href="#DejaVuSans-103"/>
       <use x="95.263672" xlink:href="#DejaVuSans-95"/>
       <use x="145.263672" xlink:href="#DejaVuSans-95"/>
       <use x="195.263672" xlink:href="#DejaVuSans-83"/>
       <use x="258.740234" xlink:href="#DejaVuSans-116"/>
       <use x="297.949219" xlink:href="#DejaVuSans-114"/>
       <use x="339.03125" xlink:href="#DejaVuSans-101"/>
       <use x="400.554688" xlink:href="#DejaVuSans-112"/>
       <use x="464.03125" xlink:href="#DejaVuSans-116"/>
       <use x="503.240234" xlink:href="#DejaVuSans-111"/>
       <use x="564.421875" xlink:href="#DejaVuSans-99"/>
       <use x="619.402344" xlink:href="#DejaVuSans-111"/>
       <use x="680.583984" xlink:href="#DejaVuSans-99"/>
       <use x="735.564453" xlink:href="#DejaVuSans-99"/>
       <use x="790.544922" xlink:href="#DejaVuSans-117"/>
       <use x="853.923828" xlink:href="#DejaVuSans-115"/>
      </g>
     </g>
    </g>
    <g id="ytick_5">
     <g id="line2d_8">
      <g>
       <use style="stroke:#000000;stroke-width:0.8;" x="132.198437" xlink:href="#mbce33a390f" y="273.475691"/>
      </g>
     </g>
     <g id="text_9">
      <!--  g__Paraprevotella -->
      <defs>
       <path d="M 19.671875 64.796875 
L 19.671875 37.40625 
L 32.078125 37.40625 
Q 38.96875 37.40625 42.71875 40.96875 
Q 46.484375 44.53125 46.484375 51.125 
Q 46.484375 57.671875 42.71875 61.234375 
Q 38.96875 64.796875 32.078125 64.796875 
z
M 9.8125 72.90625 
L 32.078125 72.90625 
Q 44.34375 72.90625 50.609375 67.359375 
Q 56.890625 61.8125 56.890625 51.125 
Q 56.890625 40.328125 50.609375 34.8125 
Q 44.34375 29.296875 32.078125 29.296875 
L 19.671875 29.296875 
L 19.671875 0 
L 9.8125 0 
z
" id="DejaVuSans-80"/>
      </defs>
      <g transform="translate(32.876562 277.274909)scale(0.1 -0.1)">
       <use xlink:href="#DejaVuSans-32"/>
       <use x="31.787109" xlink:href="#DejaVuSans-103"/>
       <use x="95.263672" xlink:href="#DejaVuSans-95"/>
       <use x="145.263672" xlink:href="#DejaVuSans-95"/>
       <use x="195.263672" xlink:href="#DejaVuSans-80"/>
       <use x="255.503906" xlink:href="#DejaVuSans-97"/>
       <use x="316.783203" xlink:href="#DejaVuSans-114"/>
       <use x="357.896484" xlink:href="#DejaVuSans-97"/>
       <use x="419.175781" xlink:href="#DejaVuSans-112"/>
       <use x="482.652344" xlink:href="#DejaVuSans-114"/>
       <use x="523.734375" xlink:href="#DejaVuSans-101"/>
       <use x="585.257812" xlink:href="#DejaVuSans-118"/>
       <use x="644.4375" xlink:href="#DejaVuSans-111"/>
       <use x="705.619141" xlink:href="#DejaVuSans-116"/>
       <use x="744.828125" xlink:href="#DejaVuSans-101"/>
       <use x="806.351562" xlink:href="#DejaVuSans-108"/>
       <use x="834.134766" xlink:href="#DejaVuSans-108"/>
       <use x="861.917969" xlink:href="#DejaVuSans-97"/>
      </g>
     </g>
    </g>
    <g id="ytick_6">
     <g id="line2d_9">
      <g>
       <use style="stroke:#000000;stroke-width:0.8;" x="132.198437" xlink:href="#mbce33a390f" y="266.718149"/>
      </g>
     </g>
     <g id="text_10">
      <!--  g__Aggregatibacter -->
      <defs>
       <path d="M 34.1875 63.1875 
L 20.796875 26.90625 
L 47.609375 26.90625 
z
M 28.609375 72.90625 
L 39.796875 72.90625 
L 67.578125 0 
L 57.328125 0 
L 50.6875 18.703125 
L 17.828125 18.703125 
L 11.1875 0 
L 0.78125 0 
z
" id="DejaVuSans-65"/>
       <path d="M 48.6875 27.296875 
Q 48.6875 37.203125 44.609375 42.84375 
Q 40.53125 48.484375 33.40625 48.484375 
Q 26.265625 48.484375 22.1875 42.84375 
Q 18.109375 37.203125 18.109375 27.296875 
Q 18.109375 17.390625 22.1875 11.75 
Q 26.265625 6.109375 33.40625 6.109375 
Q 40.53125 6.109375 44.609375 11.75 
Q 48.6875 17.390625 48.6875 27.296875 
z
M 18.109375 46.390625 
Q 20.953125 51.265625 25.265625 53.625 
Q 29.59375 56 35.59375 56 
Q 45.5625 56 51.78125 48.09375 
Q 58.015625 40.1875 58.015625 27.296875 
Q 58.015625 14.40625 51.78125 6.484375 
Q 45.5625 -1.421875 35.59375 -1.421875 
Q 29.59375 -1.421875 25.265625 0.953125 
Q 20.953125 3.328125 18.109375 8.203125 
L 18.109375 0 
L 9.078125 0 
L 9.078125 75.984375 
L 18.109375 75.984375 
z
" id="DejaVuSans-98"/>
      </defs>
      <g transform="translate(24.539062 270.517367)scale(0.1 -0.1)">
       <use xlink:href="#DejaVuSans-32"/>
       <use x="31.787109" xlink:href="#DejaVuSans-103"/>
       <use x="95.263672" xlink:href="#DejaVuSans-95"/>
       <use x="145.263672" xlink:href="#DejaVuSans-95"/>
       <use x="195.263672" xlink:href="#DejaVuSans-65"/>
       <use x="263.671875" xlink:href="#DejaVuSans-103"/>
       <use x="327.148438" xlink:href="#DejaVuSans-103"/>
       <use x="390.625" xlink:href="#DejaVuSans-114"/>
       <use x="431.707031" xlink:href="#DejaVuSans-101"/>
       <use x="493.230469" xlink:href="#DejaVuSans-103"/>
       <use x="556.707031" xlink:href="#DejaVuSans-97"/>
       <use x="617.986328" xlink:href="#DejaVuSans-116"/>
       <use x="657.195312" xlink:href="#DejaVuSans-105"/>
       <use x="684.978516" xlink:href="#DejaVuSans-98"/>
       <use x="748.455078" xlink:href="#DejaVuSans-97"/>
       <use x="809.734375" xlink:href="#DejaVuSans-99"/>
       <use x="864.714844" xlink:href="#DejaVuSans-116"/>
       <use x="903.923828" xlink:href="#DejaVuSans-101"/>
       <use x="965.447266" xlink:href="#DejaVuSans-114"/>
      </g>
     </g>
    </g>
    <g id="ytick_7">
     <g id="line2d_10">
      <g>
       <use style="stroke:#000000;stroke-width:0.8;" x="132.198437" xlink:href="#mbce33a390f" y="259.960607"/>
      </g>
     </g>
     <g id="text_11">
      <!--  s__parainfluenzae -->
      <defs>
       <path d="M 5.515625 54.6875 
L 48.1875 54.6875 
L 48.1875 46.484375 
L 14.40625 7.171875 
L 48.1875 7.171875 
L 48.1875 0 
L 4.296875 0 
L 4.296875 8.203125 
L 38.09375 47.515625 
L 5.515625 47.515625 
z
" id="DejaVuSans-122"/>
      </defs>
      <g transform="translate(32.323437 263.759826)scale(0.1 -0.1)">
       <use xlink:href="#DejaVuSans-32"/>
       <use x="31.787109" xlink:href="#DejaVuSans-115"/>
       <use x="83.886719" xlink:href="#DejaVuSans-95"/>
       <use x="133.886719" xlink:href="#DejaVuSans-95"/>
       <use x="183.886719" xlink:href="#DejaVuSans-112"/>
       <use x="247.363281" xlink:href="#DejaVuSans-97"/>
       <use x="308.642578" xlink:href="#DejaVuSans-114"/>
       <use x="349.755859" xlink:href="#DejaVuSans-97"/>
       <use x="411.035156" xlink:href="#DejaVuSans-105"/>
       <use x="438.818359" xlink:href="#DejaVuSans-110"/>
       <use x="502.197266" xlink:href="#DejaVuSans-102"/>
       <use x="537.402344" xlink:href="#DejaVuSans-108"/>
       <use x="565.185547" xlink:href="#DejaVuSans-117"/>
       <use x="628.564453" xlink:href="#DejaVuSans-101"/>
       <use x="690.087891" xlink:href="#DejaVuSans-110"/>
       <use x="753.466797" xlink:href="#DejaVuSans-122"/>
       <use x="805.957031" xlink:href="#DejaVuSans-97"/>
       <use x="867.236328" xlink:href="#DejaVuSans-101"/>
      </g>
     </g>
    </g>
    <g id="ytick_8">
     <g id="line2d_11">
      <g>
       <use style="stroke:#000000;stroke-width:0.8;" x="132.198437" xlink:href="#mbce33a390f" y="253.203065"/>
      </g>
     </g>
     <g id="text_12">
      <!--  g__Bifidobacterium -->
      <defs>
       <path d="M 19.671875 34.8125 
L 19.671875 8.109375 
L 35.5 8.109375 
Q 43.453125 8.109375 47.28125 11.40625 
Q 51.125 14.703125 51.125 21.484375 
Q 51.125 28.328125 47.28125 31.5625 
Q 43.453125 34.8125 35.5 34.8125 
z
M 19.671875 64.796875 
L 19.671875 42.828125 
L 34.28125 42.828125 
Q 41.5 42.828125 45.03125 45.53125 
Q 48.578125 48.25 48.578125 53.8125 
Q 48.578125 59.328125 45.03125 62.0625 
Q 41.5 64.796875 34.28125 64.796875 
z
M 9.8125 72.90625 
L 35.015625 72.90625 
Q 46.296875 72.90625 52.390625 68.21875 
Q 58.5 63.53125 58.5 54.890625 
Q 58.5 48.1875 55.375 44.234375 
Q 52.25 40.28125 46.1875 39.3125 
Q 53.46875 37.75 57.5 32.78125 
Q 61.53125 27.828125 61.53125 20.40625 
Q 61.53125 10.640625 54.890625 5.3125 
Q 48.25 0 35.984375 0 
L 9.8125 0 
z
" id="DejaVuSans-66"/>
       <path d="M 45.40625 46.390625 
L 45.40625 75.984375 
L 54.390625 75.984375 
L 54.390625 0 
L 45.40625 0 
L 45.40625 8.203125 
Q 42.578125 3.328125 38.25 0.953125 
Q 33.9375 -1.421875 27.875 -1.421875 
Q 17.96875 -1.421875 11.734375 6.484375 
Q 5.515625 14.40625 5.515625 27.296875 
Q 5.515625 40.1875 11.734375 48.09375 
Q 17.96875 56 27.875 56 
Q 33.9375 56 38.25 53.625 
Q 42.578125 51.265625 45.40625 46.390625 
z
M 14.796875 27.296875 
Q 14.796875 17.390625 18.875 11.75 
Q 22.953125 6.109375 30.078125 6.109375 
Q 37.203125 6.109375 41.296875 11.75 
Q 45.40625 17.390625 45.40625 27.296875 
Q 45.40625 37.203125 41.296875 42.84375 
Q 37.203125 48.484375 30.078125 48.484375 
Q 22.953125 48.484375 18.875 42.84375 
Q 14.796875 37.203125 14.796875 27.296875 
z
" id="DejaVuSans-100"/>
      </defs>
      <g transform="translate(26.251562 257.002284)scale(0.1 -0.1)">
       <use xlink:href="#DejaVuSans-32"/>
       <use x="31.787109" xlink:href="#DejaVuSans-103"/>
       <use x="95.263672" xlink:href="#DejaVuSans-95"/>
       <use x="145.263672" xlink:href="#DejaVuSans-95"/>
       <use x="195.263672" xlink:href="#DejaVuSans-66"/>
       <use x="263.867188" xlink:href="#DejaVuSans-105"/>
       <use x="291.650391" xlink:href="#DejaVuSans-102"/>
       <use x="326.855469" xlink:href="#DejaVuSans-105"/>
       <use x="354.638672" xlink:href="#DejaVuSans-100"/>
       <use x="418.115234" xlink:href="#DejaVuSans-111"/>
       <use x="479.296875" xlink:href="#DejaVuSans-98"/>
       <use x="542.773438" xlink:href="#DejaVuSans-97"/>
       <use x="604.052734" xlink:href="#DejaVuSans-99"/>
       <use x="659.033203" xlink:href="#DejaVuSans-116"/>
       <use x="698.242188" xlink:href="#DejaVuSans-101"/>
       <use x="759.765625" xlink:href="#DejaVuSans-114"/>
       <use x="800.878906" xlink:href="#DejaVuSans-105"/>
       <use x="828.662109" xlink:href="#DejaVuSans-117"/>
       <use x="892.041016" xlink:href="#DejaVuSans-109"/>
      </g>
     </g>
    </g>
    <g id="ytick_9">
     <g id="line2d_12">
      <g>
       <use style="stroke:#000000;stroke-width:0.8;" x="132.198437" xlink:href="#mbce33a390f" y="246.445523"/>
      </g>
     </g>
     <g id="text_13">
      <!--  s__delbrueckii -->
      <defs>
       <path d="M 9.078125 75.984375 
L 18.109375 75.984375 
L 18.109375 31.109375 
L 44.921875 54.6875 
L 56.390625 54.6875 
L 27.390625 29.109375 
L 57.625 0 
L 45.90625 0 
L 18.109375 26.703125 
L 18.109375 0 
L 9.078125 0 
z
" id="DejaVuSans-107"/>
      </defs>
      <g transform="translate(51.735937 250.244742)scale(0.1 -0.1)">
       <use xlink:href="#DejaVuSans-32"/>
       <use x="31.787109" xlink:href="#DejaVuSans-115"/>
       <use x="83.886719" xlink:href="#DejaVuSans-95"/>
       <use x="133.886719" xlink:href="#DejaVuSans-95"/>
       <use x="183.886719" xlink:href="#DejaVuSans-100"/>
       <use x="247.363281" xlink:href="#DejaVuSans-101"/>
       <use x="308.886719" xlink:href="#DejaVuSans-108"/>
       <use x="336.669922" xlink:href="#DejaVuSans-98"/>
       <use x="400.146484" xlink:href="#DejaVuSans-114"/>
       <use x="441.259766" xlink:href="#DejaVuSans-117"/>
       <use x="504.638672" xlink:href="#DejaVuSans-101"/>
       <use x="566.162109" xlink:href="#DejaVuSans-99"/>
       <use x="621.142578" xlink:href="#DejaVuSans-107"/>
       <use x="679.052734" xlink:href="#DejaVuSans-105"/>
       <use x="706.835938" xlink:href="#DejaVuSans-105"/>
      </g>
     </g>
    </g>
    <g id="ytick_10">
     <g id="line2d_13">
      <g>
       <use style="stroke:#000000;stroke-width:0.8;" x="132.198437" xlink:href="#mbce33a390f" y="239.687981"/>
      </g>
     </g>
     <g id="text_14">
      <!--  s__producta -->
      <g transform="translate(62.003125 243.4872)scale(0.1 -0.1)">
       <use xlink:href="#DejaVuSans-32"/>
       <use x="31.787109" xlink:href="#DejaVuSans-115"/>
       <use x="83.886719" xlink:href="#DejaVuSans-95"/>
       <use x="133.886719" xlink:href="#DejaVuSans-95"/>
       <use x="183.886719" xlink:href="#DejaVuSans-112"/>
       <use x="247.363281" xlink:href="#DejaVuSans-114"/>
       <use x="288.445312" xlink:href="#DejaVuSans-111"/>
       <use x="349.626953" xlink:href="#DejaVuSans-100"/>
       <use x="413.103516" xlink:href="#DejaVuSans-117"/>
       <use x="476.482422" xlink:href="#DejaVuSans-99"/>
       <use x="531.462891" xlink:href="#DejaVuSans-116"/>
       <use x="570.671875" xlink:href="#DejaVuSans-97"/>
      </g>
     </g>
    </g>
    <g id="ytick_11">
     <g id="line2d_14">
      <g>
       <use style="stroke:#000000;stroke-width:0.8;" x="132.198437" xlink:href="#mbce33a390f" y="232.930439"/>
      </g>
     </g>
     <g id="text_15">
      <!--  g__Catenibacterium -->
      <g transform="translate(22.35625 236.729658)scale(0.1 -0.1)">
       <use xlink:href="#DejaVuSans-32"/>
       <use x="31.787109" xlink:href="#DejaVuSans-103"/>
       <use x="95.263672" xlink:href="#DejaVuSans-95"/>
       <use x="145.263672" xlink:href="#DejaVuSans-95"/>
       <use x="195.263672" xlink:href="#DejaVuSans-67"/>
       <use x="265.087891" xlink:href="#DejaVuSans-97"/>
       <use x="326.367188" xlink:href="#DejaVuSans-116"/>
       <use x="365.576172" xlink:href="#DejaVuSans-101"/>
       <use x="427.099609" xlink:href="#DejaVuSans-110"/>
       <use x="490.478516" xlink:href="#DejaVuSans-105"/>
       <use x="518.261719" xlink:href="#DejaVuSans-98"/>
       <use x="581.738281" xlink:href="#DejaVuSans-97"/>
       <use x="643.017578" xlink:href="#DejaVuSans-99"/>
       <use x="697.998047" xlink:href="#DejaVuSans-116"/>
       <use x="737.207031" xlink:href="#DejaVuSans-101"/>
       <use x="798.730469" xlink:href="#DejaVuSans-114"/>
       <use x="839.84375" xlink:href="#DejaVuSans-105"/>
       <use x="867.626953" xlink:href="#DejaVuSans-117"/>
       <use x="931.005859" xlink:href="#DejaVuSans-109"/>
      </g>
     </g>
    </g>
    <g id="ytick_12">
     <g id="line2d_15">
      <g>
       <use style="stroke:#000000;stroke-width:0.8;" x="132.198437" xlink:href="#mbce33a390f" y="226.172897"/>
      </g>
     </g>
     <g id="text_16">
      <!--  g__Blautia -->
      <g transform="translate(70.740625 229.972116)scale(0.1 -0.1)">
       <use xlink:href="#DejaVuSans-32"/>
       <use x="31.787109" xlink:href="#DejaVuSans-103"/>
       <use x="95.263672" xlink:href="#DejaVuSans-95"/>
       <use x="145.263672" xlink:href="#DejaVuSans-95"/>
       <use x="195.263672" xlink:href="#DejaVuSans-66"/>
       <use x="263.867188" xlink:href="#DejaVuSans-108"/>
       <use x="291.650391" xlink:href="#DejaVuSans-97"/>
       <use x="352.929688" xlink:href="#DejaVuSans-117"/>
       <use x="416.308594" xlink:href="#DejaVuSans-116"/>
       <use x="455.517578" xlink:href="#DejaVuSans-105"/>
       <use x="483.300781" xlink:href="#DejaVuSans-97"/>
      </g>
     </g>
    </g>
    <g id="ytick_13">
     <g id="line2d_16">
      <g>
       <use style="stroke:#000000;stroke-width:0.8;" x="132.198437" xlink:href="#mbce33a390f" y="219.415355"/>
      </g>
     </g>
     <g id="text_17">
      <!--  s__obeum -->
      <g transform="translate(72.1125 223.214574)scale(0.1 -0.1)">
       <use xlink:href="#DejaVuSans-32"/>
       <use x="31.787109" xlink:href="#DejaVuSans-115"/>
       <use x="83.886719" xlink:href="#DejaVuSans-95"/>
       <use x="133.886719" xlink:href="#DejaVuSans-95"/>
       <use x="183.886719" xlink:href="#DejaVuSans-111"/>
       <use x="245.068359" xlink:href="#DejaVuSans-98"/>
       <use x="308.544922" xlink:href="#DejaVuSans-101"/>
       <use x="370.068359" xlink:href="#DejaVuSans-117"/>
       <use x="433.447266" xlink:href="#DejaVuSans-109"/>
      </g>
     </g>
    </g>
    <g id="ytick_14">
     <g id="line2d_17">
      <g>
       <use style="stroke:#000000;stroke-width:0.8;" x="132.198437" xlink:href="#mbce33a390f" y="212.657814"/>
      </g>
     </g>
     <g id="text_18">
      <!--  f__Erysipelotrichaceae -->
      <defs>
       <path d="M 9.8125 72.90625 
L 55.90625 72.90625 
L 55.90625 64.59375 
L 19.671875 64.59375 
L 19.671875 43.015625 
L 54.390625 43.015625 
L 54.390625 34.71875 
L 19.671875 34.71875 
L 19.671875 8.296875 
L 56.78125 8.296875 
L 56.78125 0 
L 9.8125 0 
z
" id="DejaVuSans-69"/>
       <path d="M 32.171875 -5.078125 
Q 28.375 -14.84375 24.75 -17.8125 
Q 21.140625 -20.796875 15.09375 -20.796875 
L 7.90625 -20.796875 
L 7.90625 -13.28125 
L 13.1875 -13.28125 
Q 16.890625 -13.28125 18.9375 -11.515625 
Q 21 -9.765625 23.484375 -3.21875 
L 25.09375 0.875 
L 2.984375 54.6875 
L 12.5 54.6875 
L 29.59375 11.921875 
L 46.6875 54.6875 
L 56.203125 54.6875 
z
" id="DejaVuSans-121"/>
      </defs>
      <g transform="translate(10.059375 216.457032)scale(0.1 -0.1)">
       <use xlink:href="#DejaVuSans-32"/>
       <use x="31.787109" xlink:href="#DejaVuSans-102"/>
       <use x="66.992188" xlink:href="#DejaVuSans-95"/>
       <use x="116.992188" xlink:href="#DejaVuSans-95"/>
       <use x="166.992188" xlink:href="#DejaVuSans-69"/>
       <use x="230.175781" xlink:href="#DejaVuSans-114"/>
       <use x="271.289062" xlink:href="#DejaVuSans-121"/>
       <use x="330.46875" xlink:href="#DejaVuSans-115"/>
       <use x="382.568359" xlink:href="#DejaVuSans-105"/>
       <use x="410.351562" xlink:href="#DejaVuSans-112"/>
       <use x="473.828125" xlink:href="#DejaVuSans-101"/>
       <use x="535.351562" xlink:href="#DejaVuSans-108"/>
       <use x="563.134766" xlink:href="#DejaVuSans-111"/>
       <use x="624.316406" xlink:href="#DejaVuSans-116"/>
       <use x="663.525391" xlink:href="#DejaVuSans-114"/>
       <use x="704.638672" xlink:href="#DejaVuSans-105"/>
       <use x="732.421875" xlink:href="#DejaVuSans-99"/>
       <use x="787.402344" xlink:href="#DejaVuSans-104"/>
       <use x="850.78125" xlink:href="#DejaVuSans-97"/>
       <use x="912.060547" xlink:href="#DejaVuSans-99"/>
       <use x="967.041016" xlink:href="#DejaVuSans-101"/>
       <use x="1028.564453" xlink:href="#DejaVuSans-97"/>
       <use x="1089.84375" xlink:href="#DejaVuSans-101"/>
      </g>
     </g>
    </g>
    <g id="ytick_15">
     <g id="line2d_18">
      <g>
       <use style="stroke:#000000;stroke-width:0.8;" x="132.198437" xlink:href="#mbce33a390f" y="205.900272"/>
      </g>
     </g>
     <g id="text_19">
      <!--  g__Lachnobacterium -->
      <defs>
       <path d="M 9.8125 72.90625 
L 19.671875 72.90625 
L 19.671875 8.296875 
L 55.171875 8.296875 
L 55.171875 0 
L 9.8125 0 
z
" id="DejaVuSans-76"/>
      </defs>
      <g transform="translate(18.664062 209.69949)scale(0.1 -0.1)">
       <use xlink:href="#DejaVuSans-32"/>
       <use x="31.787109" xlink:href="#DejaVuSans-103"/>
       <use x="95.263672" xlink:href="#DejaVuSans-95"/>
       <use x="145.263672" xlink:href="#DejaVuSans-95"/>
       <use x="195.263672" xlink:href="#DejaVuSans-76"/>
       <use x="250.976562" xlink:href="#DejaVuSans-97"/>
       <use x="312.255859" xlink:href="#DejaVuSans-99"/>
       <use x="367.236328" xlink:href="#DejaVuSans-104"/>
       <use x="430.615234" xlink:href="#DejaVuSans-110"/>
       <use x="493.994141" xlink:href="#DejaVuSans-111"/>
       <use x="555.175781" xlink:href="#DejaVuSans-98"/>
       <use x="618.652344" xlink:href="#DejaVuSans-97"/>
       <use x="679.931641" xlink:href="#DejaVuSans-99"/>
       <use x="734.912109" xlink:href="#DejaVuSans-116"/>
       <use x="774.121094" xlink:href="#DejaVuSans-101"/>
       <use x="835.644531" xlink:href="#DejaVuSans-114"/>
       <use x="876.757812" xlink:href="#DejaVuSans-105"/>
       <use x="904.541016" xlink:href="#DejaVuSans-117"/>
       <use x="967.919922" xlink:href="#DejaVuSans-109"/>
      </g>
     </g>
    </g>
    <g id="ytick_16">
     <g id="line2d_19">
      <g>
       <use style="stroke:#000000;stroke-width:0.8;" x="132.198437" xlink:href="#mbce33a390f" y="199.14273"/>
      </g>
     </g>
     <g id="text_20">
      <!--  g__Lactococcus -->
      <g transform="translate(44.273437 202.802886)scale(0.1 -0.1)">
       <use xlink:href="#DejaVuSans-32"/>
       <use x="31.787109" xlink:href="#DejaVuSans-103"/>
       <use x="95.263672" xlink:href="#DejaVuSans-95"/>
       <use x="145.263672" xlink:href="#DejaVuSans-95"/>
       <use x="195.263672" xlink:href="#DejaVuSans-76"/>
       <use x="250.976562" xlink:href="#DejaVuSans-97"/>
       <use x="312.255859" xlink:href="#DejaVuSans-99"/>
       <use x="367.236328" xlink:href="#DejaVuSans-116"/>
       <use x="406.445312" xlink:href="#DejaVuSans-111"/>
       <use x="467.626953" xlink:href="#DejaVuSans-99"/>
       <use x="522.607422" xlink:href="#DejaVuSans-111"/>
       <use x="583.789062" xlink:href="#DejaVuSans-99"/>
       <use x="638.769531" xlink:href="#DejaVuSans-99"/>
       <use x="693.75" xlink:href="#DejaVuSans-117"/>
       <use x="757.128906" xlink:href="#DejaVuSans-115"/>
      </g>
     </g>
    </g>
    <g id="ytick_17">
     <g id="line2d_20">
      <g>
       <use style="stroke:#000000;stroke-width:0.8;" x="132.198437" xlink:href="#mbce33a390f" y="192.385188"/>
      </g>
     </g>
     <g id="text_21">
      <!--  g__Actinobacillus -->
      <g transform="translate(36.323437 196.184407)scale(0.1 -0.1)">
       <use xlink:href="#DejaVuSans-32"/>
       <use x="31.787109" xlink:href="#DejaVuSans-103"/>
       <use x="95.263672" xlink:href="#DejaVuSans-95"/>
       <use x="145.263672" xlink:href="#DejaVuSans-95"/>
       <use x="195.263672" xlink:href="#DejaVuSans-65"/>
       <use x="263.65625" xlink:href="#DejaVuSans-99"/>
       <use x="318.636719" xlink:href="#DejaVuSans-116"/>
       <use x="357.845703" xlink:href="#DejaVuSans-105"/>
       <use x="385.628906" xlink:href="#DejaVuSans-110"/>
       <use x="449.007812" xlink:href="#DejaVuSans-111"/>
       <use x="510.189453" xlink:href="#DejaVuSans-98"/>
       <use x="573.666016" xlink:href="#DejaVuSans-97"/>
       <use x="634.945312" xlink:href="#DejaVuSans-99"/>
       <use x="689.925781" xlink:href="#DejaVuSans-105"/>
       <use x="717.708984" xlink:href="#DejaVuSans-108"/>
       <use x="745.492188" xlink:href="#DejaVuSans-108"/>
       <use x="773.275391" xlink:href="#DejaVuSans-117"/>
       <use x="836.654297" xlink:href="#DejaVuSans-115"/>
      </g>
     </g>
    </g>
    <g id="ytick_18">
     <g id="line2d_21">
      <g>
       <use style="stroke:#000000;stroke-width:0.8;" x="132.198437" xlink:href="#mbce33a390f" y="185.627646"/>
      </g>
     </g>
     <g id="text_22">
      <!--  s__hathewayi -->
      <defs>
       <path d="M 4.203125 54.6875 
L 13.1875 54.6875 
L 24.421875 12.015625 
L 35.59375 54.6875 
L 46.1875 54.6875 
L 57.421875 12.015625 
L 68.609375 54.6875 
L 77.59375 54.6875 
L 63.28125 0 
L 52.6875 0 
L 40.921875 44.828125 
L 29.109375 0 
L 18.5 0 
z
" id="DejaVuSans-119"/>
      </defs>
      <g transform="translate(54.93125 189.426865)scale(0.1 -0.1)">
       <use xlink:href="#DejaVuSans-32"/>
       <use x="31.787109" xlink:href="#DejaVuSans-115"/>
       <use x="83.886719" xlink:href="#DejaVuSans-95"/>
       <use x="133.886719" xlink:href="#DejaVuSans-95"/>
       <use x="183.886719" xlink:href="#DejaVuSans-104"/>
       <use x="247.265625" xlink:href="#DejaVuSans-97"/>
       <use x="308.544922" xlink:href="#DejaVuSans-116"/>
       <use x="347.753906" xlink:href="#DejaVuSans-104"/>
       <use x="411.132812" xlink:href="#DejaVuSans-101"/>
       <use x="472.65625" xlink:href="#DejaVuSans-119"/>
       <use x="554.443359" xlink:href="#DejaVuSans-97"/>
       <use x="615.722656" xlink:href="#DejaVuSans-121"/>
       <use x="674.902344" xlink:href="#DejaVuSans-105"/>
      </g>
     </g>
    </g>
    <g id="ytick_19">
     <g id="line2d_22">
      <g>
       <use style="stroke:#000000;stroke-width:0.8;" x="132.198437" xlink:href="#mbce33a390f" y="178.870104"/>
      </g>
     </g>
     <g id="text_23">
      <!--  g__Sarcina -->
      <g transform="translate(68.345312 182.669323)scale(0.1 -0.1)">
       <use xlink:href="#DejaVuSans-32"/>
       <use x="31.787109" xlink:href="#DejaVuSans-103"/>
       <use x="95.263672" xlink:href="#DejaVuSans-95"/>
       <use x="145.263672" xlink:href="#DejaVuSans-95"/>
       <use x="195.263672" xlink:href="#DejaVuSans-83"/>
       <use x="258.740234" xlink:href="#DejaVuSans-97"/>
       <use x="320.019531" xlink:href="#DejaVuSans-114"/>
       <use x="361.101562" xlink:href="#DejaVuSans-99"/>
       <use x="416.082031" xlink:href="#DejaVuSans-105"/>
       <use x="443.865234" xlink:href="#DejaVuSans-110"/>
       <use x="507.244141" xlink:href="#DejaVuSans-97"/>
      </g>
     </g>
    </g>
    <g id="ytick_20">
     <g id="line2d_23">
      <g>
       <use style="stroke:#000000;stroke-width:0.8;" x="132.198437" xlink:href="#mbce33a390f" y="172.112562"/>
      </g>
     </g>
     <g id="text_24">
      <!--  p__Firmicutes -->
      <defs>
       <path d="M 9.8125 72.90625 
L 51.703125 72.90625 
L 51.703125 64.59375 
L 19.671875 64.59375 
L 19.671875 43.109375 
L 48.578125 43.109375 
L 48.578125 34.8125 
L 19.671875 34.8125 
L 19.671875 0 
L 9.8125 0 
z
" id="DejaVuSans-70"/>
      </defs>
      <g transform="translate(53.40625 175.911781)scale(0.1 -0.1)">
       <use xlink:href="#DejaVuSans-32"/>
       <use x="31.787109" xlink:href="#DejaVuSans-112"/>
       <use x="95.263672" xlink:href="#DejaVuSans-95"/>
       <use x="145.263672" xlink:href="#DejaVuSans-95"/>
       <use x="195.263672" xlink:href="#DejaVuSans-70"/>
       <use x="252.673828" xlink:href="#DejaVuSans-105"/>
       <use x="280.457031" xlink:href="#DejaVuSans-114"/>
       <use x="321.554688" xlink:href="#DejaVuSans-109"/>
       <use x="418.966797" xlink:href="#DejaVuSans-105"/>
       <use x="446.75" xlink:href="#DejaVuSans-99"/>
       <use x="501.730469" xlink:href="#DejaVuSans-117"/>
       <use x="565.109375" xlink:href="#DejaVuSans-116"/>
       <use x="604.318359" xlink:href="#DejaVuSans-101"/>
       <use x="665.841797" xlink:href="#DejaVuSans-115"/>
      </g>
     </g>
    </g>
    <g id="ytick_21">
     <g id="line2d_24">
      <g>
       <use style="stroke:#000000;stroke-width:0.8;" x="132.198437" xlink:href="#mbce33a390f" y="165.35502"/>
      </g>
     </g>
     <g id="text_25">
      <!--  s__indistinctus -->
      <g transform="translate(49.357812 169.154239)scale(0.1 -0.1)">
       <use xlink:href="#DejaVuSans-32"/>
       <use x="31.787109" xlink:href="#DejaVuSans-115"/>
       <use x="83.886719" xlink:href="#DejaVuSans-95"/>
       <use x="133.886719" xlink:href="#DejaVuSans-95"/>
       <use x="183.886719" xlink:href="#DejaVuSans-105"/>
       <use x="211.669922" xlink:href="#DejaVuSans-110"/>
       <use x="275.048828" xlink:href="#DejaVuSans-100"/>
       <use x="338.525391" xlink:href="#DejaVuSans-105"/>
       <use x="366.308594" xlink:href="#DejaVuSans-115"/>
       <use x="418.408203" xlink:href="#DejaVuSans-116"/>
       <use x="457.617188" xlink:href="#DejaVuSans-105"/>
       <use x="485.400391" xlink:href="#DejaVuSans-110"/>
       <use x="548.779297" xlink:href="#DejaVuSans-99"/>
       <use x="603.759766" xlink:href="#DejaVuSans-116"/>
       <use x="642.96875" xlink:href="#DejaVuSans-117"/>
       <use x="706.347656" xlink:href="#DejaVuSans-115"/>
      </g>
     </g>
    </g>
    <g id="ytick_22">
     <g id="line2d_25">
      <g>
       <use style="stroke:#000000;stroke-width:0.8;" x="132.198437" xlink:href="#mbce33a390f" y="158.597478"/>
      </g>
     </g>
     <g id="text_26">
      <!--  f__Coriobacteriaceae -->
      <g transform="translate(17.392187 162.396697)scale(0.1 -0.1)">
       <use xlink:href="#DejaVuSans-32"/>
       <use x="31.787109" xlink:href="#DejaVuSans-102"/>
       <use x="66.992188" xlink:href="#DejaVuSans-95"/>
       <use x="116.992188" xlink:href="#DejaVuSans-95"/>
       <use x="166.992188" xlink:href="#DejaVuSans-67"/>
       <use x="236.816406" xlink:href="#DejaVuSans-111"/>
       <use x="297.998047" xlink:href="#DejaVuSans-114"/>
       <use x="339.111328" xlink:href="#DejaVuSans-105"/>
       <use x="366.894531" xlink:href="#DejaVuSans-111"/>
       <use x="428.076172" xlink:href="#DejaVuSans-98"/>
       <use x="491.552734" xlink:href="#DejaVuSans-97"/>
       <use x="552.832031" xlink:href="#DejaVuSans-99"/>
       <use x="607.8125" xlink:href="#DejaVuSans-116"/>
       <use x="647.021484" xlink:href="#DejaVuSans-101"/>
       <use x="708.544922" xlink:href="#DejaVuSans-114"/>
       <use x="749.658203" xlink:href="#DejaVuSans-105"/>
       <use x="777.441406" xlink:href="#DejaVuSans-97"/>
       <use x="838.720703" xlink:href="#DejaVuSans-99"/>
       <use x="893.701172" xlink:href="#DejaVuSans-101"/>
       <use x="955.224609" xlink:href="#DejaVuSans-97"/>
       <use x="1016.503906" xlink:href="#DejaVuSans-101"/>
      </g>
     </g>
    </g>
    <g id="ytick_23">
     <g id="line2d_26">
      <g>
       <use style="stroke:#000000;stroke-width:0.8;" x="132.198437" xlink:href="#mbce33a390f" y="151.839936"/>
      </g>
     </g>
     <g id="text_27">
      <!--  o__Clostridiales -->
      <g transform="translate(44.607812 155.639155)scale(0.1 -0.1)">
       <use xlink:href="#DejaVuSans-32"/>
       <use x="31.787109" xlink:href="#DejaVuSans-111"/>
       <use x="92.96875" xlink:href="#DejaVuSans-95"/>
       <use x="142.96875" xlink:href="#DejaVuSans-95"/>
       <use x="192.96875" xlink:href="#DejaVuSans-67"/>
       <use x="262.792969" xlink:href="#DejaVuSans-108"/>
       <use x="290.576172" xlink:href="#DejaVuSans-111"/>
       <use x="351.757812" xlink:href="#DejaVuSans-115"/>
       <use x="403.857422" xlink:href="#DejaVuSans-116"/>
       <use x="443.066406" xlink:href="#DejaVuSans-114"/>
       <use x="484.179688" xlink:href="#DejaVuSans-105"/>
       <use x="511.962891" xlink:href="#DejaVuSans-100"/>
       <use x="575.439453" xlink:href="#DejaVuSans-105"/>
       <use x="603.222656" xlink:href="#DejaVuSans-97"/>
       <use x="664.501953" xlink:href="#DejaVuSans-108"/>
       <use x="692.285156" xlink:href="#DejaVuSans-101"/>
       <use x="753.808594" xlink:href="#DejaVuSans-115"/>
      </g>
     </g>
    </g>
    <g id="ytick_24">
     <g id="line2d_27">
      <g>
       <use style="stroke:#000000;stroke-width:0.8;" x="132.198437" xlink:href="#mbce33a390f" y="145.082395"/>
      </g>
     </g>
     <g id="text_28">
      <!--  s__eutactus -->
      <g transform="translate(63.30625 148.742551)scale(0.1 -0.1)">
       <use xlink:href="#DejaVuSans-32"/>
       <use x="31.787109" xlink:href="#DejaVuSans-115"/>
       <use x="83.886719" xlink:href="#DejaVuSans-95"/>
       <use x="133.886719" xlink:href="#DejaVuSans-95"/>
       <use x="183.886719" xlink:href="#DejaVuSans-101"/>
       <use x="245.410156" xlink:href="#DejaVuSans-117"/>
       <use x="308.789062" xlink:href="#DejaVuSans-116"/>
       <use x="347.998047" xlink:href="#DejaVuSans-97"/>
       <use x="409.277344" xlink:href="#DejaVuSans-99"/>
       <use x="464.257812" xlink:href="#DejaVuSans-116"/>
       <use x="503.466797" xlink:href="#DejaVuSans-117"/>
       <use x="566.845703" xlink:href="#DejaVuSans-115"/>
      </g>
     </g>
    </g>
    <g id="ytick_25">
     <g id="line2d_28">
      <g>
       <use style="stroke:#000000;stroke-width:0.8;" x="132.198437" xlink:href="#mbce33a390f" y="138.324853"/>
      </g>
     </g>
     <g id="text_29">
      <!--  f__Christensenellaceae -->
      <g transform="translate(7.2 142.124071)scale(0.1 -0.1)">
       <use xlink:href="#DejaVuSans-32"/>
       <use x="31.787109" xlink:href="#DejaVuSans-102"/>
       <use x="66.992188" xlink:href="#DejaVuSans-95"/>
       <use x="116.992188" xlink:href="#DejaVuSans-95"/>
       <use x="166.992188" xlink:href="#DejaVuSans-67"/>
       <use x="236.816406" xlink:href="#DejaVuSans-104"/>
       <use x="300.195312" xlink:href="#DejaVuSans-114"/>
       <use x="341.308594" xlink:href="#DejaVuSans-105"/>
       <use x="369.091797" xlink:href="#DejaVuSans-115"/>
       <use x="421.191406" xlink:href="#DejaVuSans-116"/>
       <use x="460.400391" xlink:href="#DejaVuSans-101"/>
       <use x="521.923828" xlink:href="#DejaVuSans-110"/>
       <use x="585.302734" xlink:href="#DejaVuSans-115"/>
       <use x="637.402344" xlink:href="#DejaVuSans-101"/>
       <use x="698.925781" xlink:href="#DejaVuSans-110"/>
       <use x="762.304688" xlink:href="#DejaVuSans-101"/>
       <use x="823.828125" xlink:href="#DejaVuSans-108"/>
       <use x="851.611328" xlink:href="#DejaVuSans-108"/>
       <use x="879.394531" xlink:href="#DejaVuSans-97"/>
       <use x="940.673828" xlink:href="#DejaVuSans-99"/>
       <use x="995.654297" xlink:href="#DejaVuSans-101"/>
       <use x="1057.177734" xlink:href="#DejaVuSans-97"/>
       <use x="1118.457031" xlink:href="#DejaVuSans-101"/>
      </g>
     </g>
    </g>
    <g id="ytick_26">
     <g id="line2d_29">
      <g>
       <use style="stroke:#000000;stroke-width:0.8;" x="132.198437" xlink:href="#mbce33a390f" y="131.567311"/>
      </g>
     </g>
     <g id="text_30">
      <!--  g__Anaerostipes -->
      <g transform="translate(40.367187 135.36653)scale(0.1 -0.1)">
       <use xlink:href="#DejaVuSans-32"/>
       <use x="31.787109" xlink:href="#DejaVuSans-103"/>
       <use x="95.263672" xlink:href="#DejaVuSans-95"/>
       <use x="145.263672" xlink:href="#DejaVuSans-95"/>
       <use x="195.263672" xlink:href="#DejaVuSans-65"/>
       <use x="263.671875" xlink:href="#DejaVuSans-110"/>
       <use x="327.050781" xlink:href="#DejaVuSans-97"/>
       <use x="388.330078" xlink:href="#DejaVuSans-101"/>
       <use x="449.853516" xlink:href="#DejaVuSans-114"/>
       <use x="490.935547" xlink:href="#DejaVuSans-111"/>
       <use x="552.117188" xlink:href="#DejaVuSans-115"/>
       <use x="604.216797" xlink:href="#DejaVuSans-116"/>
       <use x="643.425781" xlink:href="#DejaVuSans-105"/>
       <use x="671.208984" xlink:href="#DejaVuSans-112"/>
       <use x="734.685547" xlink:href="#DejaVuSans-101"/>
       <use x="796.208984" xlink:href="#DejaVuSans-115"/>
      </g>
     </g>
    </g>
    <g id="ytick_27">
     <g id="line2d_30">
      <g>
       <use style="stroke:#000000;stroke-width:0.8;" x="132.198437" xlink:href="#mbce33a390f" y="124.809769"/>
      </g>
     </g>
     <g id="text_31">
      <!--  g__Megamonas -->
      <defs>
       <path d="M 9.8125 72.90625 
L 24.515625 72.90625 
L 43.109375 23.296875 
L 61.8125 72.90625 
L 76.515625 72.90625 
L 76.515625 0 
L 66.890625 0 
L 66.890625 64.015625 
L 48.09375 14.015625 
L 38.1875 14.015625 
L 19.390625 64.015625 
L 19.390625 0 
L 9.8125 0 
z
" id="DejaVuSans-77"/>
      </defs>
      <g transform="translate(44.879687 128.469925)scale(0.1 -0.1)">
       <use xlink:href="#DejaVuSans-32"/>
       <use x="31.787109" xlink:href="#DejaVuSans-103"/>
       <use x="95.263672" xlink:href="#DejaVuSans-95"/>
       <use x="145.263672" xlink:href="#DejaVuSans-95"/>
       <use x="195.263672" xlink:href="#DejaVuSans-77"/>
       <use x="281.542969" xlink:href="#DejaVuSans-101"/>
       <use x="343.066406" xlink:href="#DejaVuSans-103"/>
       <use x="406.542969" xlink:href="#DejaVuSans-97"/>
       <use x="467.822266" xlink:href="#DejaVuSans-109"/>
       <use x="565.234375" xlink:href="#DejaVuSans-111"/>
       <use x="626.416016" xlink:href="#DejaVuSans-110"/>
       <use x="689.794922" xlink:href="#DejaVuSans-97"/>
       <use x="751.074219" xlink:href="#DejaVuSans-115"/>
      </g>
     </g>
    </g>
    <g id="ytick_28">
     <g id="line2d_31">
      <g>
       <use style="stroke:#000000;stroke-width:0.8;" x="132.198437" xlink:href="#mbce33a390f" y="118.052227"/>
      </g>
     </g>
     <g id="text_32">
      <!--  o__RF39 -->
      <defs>
       <path d="M 44.390625 34.1875 
Q 47.5625 33.109375 50.5625 29.59375 
Q 53.5625 26.078125 56.59375 19.921875 
L 66.609375 0 
L 56 0 
L 46.6875 18.703125 
Q 43.0625 26.03125 39.671875 28.421875 
Q 36.28125 30.8125 30.421875 30.8125 
L 19.671875 30.8125 
L 19.671875 0 
L 9.8125 0 
L 9.8125 72.90625 
L 32.078125 72.90625 
Q 44.578125 72.90625 50.734375 67.671875 
Q 56.890625 62.453125 56.890625 51.90625 
Q 56.890625 45.015625 53.6875 40.46875 
Q 50.484375 35.9375 44.390625 34.1875 
z
M 19.671875 64.796875 
L 19.671875 38.921875 
L 32.078125 38.921875 
Q 39.203125 38.921875 42.84375 42.21875 
Q 46.484375 45.515625 46.484375 51.90625 
Q 46.484375 58.296875 42.84375 61.546875 
Q 39.203125 64.796875 32.078125 64.796875 
z
" id="DejaVuSans-82"/>
       <path d="M 40.578125 39.3125 
Q 47.65625 37.796875 51.625 33 
Q 55.609375 28.21875 55.609375 21.1875 
Q 55.609375 10.40625 48.1875 4.484375 
Q 40.765625 -1.421875 27.09375 -1.421875 
Q 22.515625 -1.421875 17.65625 -0.515625 
Q 12.796875 0.390625 7.625 2.203125 
L 7.625 11.71875 
Q 11.71875 9.328125 16.59375 8.109375 
Q 21.484375 6.890625 26.8125 6.890625 
Q 36.078125 6.890625 40.9375 10.546875 
Q 45.796875 14.203125 45.796875 21.1875 
Q 45.796875 27.640625 41.28125 31.265625 
Q 36.765625 34.90625 28.71875 34.90625 
L 20.21875 34.90625 
L 20.21875 43.015625 
L 29.109375 43.015625 
Q 36.375 43.015625 40.234375 45.921875 
Q 44.09375 48.828125 44.09375 54.296875 
Q 44.09375 59.90625 40.109375 62.90625 
Q 36.140625 65.921875 28.71875 65.921875 
Q 24.65625 65.921875 20.015625 65.03125 
Q 15.375 64.15625 9.8125 62.3125 
L 9.8125 71.09375 
Q 15.4375 72.65625 20.34375 73.4375 
Q 25.25 74.21875 29.59375 74.21875 
Q 40.828125 74.21875 47.359375 69.109375 
Q 53.90625 64.015625 53.90625 55.328125 
Q 53.90625 49.265625 50.4375 45.09375 
Q 46.96875 40.921875 40.578125 39.3125 
z
" id="DejaVuSans-51"/>
       <path d="M 10.984375 1.515625 
L 10.984375 10.5 
Q 14.703125 8.734375 18.5 7.8125 
Q 22.3125 6.890625 25.984375 6.890625 
Q 35.75 6.890625 40.890625 13.453125 
Q 46.046875 20.015625 46.78125 33.40625 
Q 43.953125 29.203125 39.59375 26.953125 
Q 35.25 24.703125 29.984375 24.703125 
Q 19.046875 24.703125 12.671875 31.3125 
Q 6.296875 37.9375 6.296875 49.421875 
Q 6.296875 60.640625 12.9375 67.421875 
Q 19.578125 74.21875 30.609375 74.21875 
Q 43.265625 74.21875 49.921875 64.515625 
Q 56.59375 54.828125 56.59375 36.375 
Q 56.59375 19.140625 48.40625 8.859375 
Q 40.234375 -1.421875 26.421875 -1.421875 
Q 22.703125 -1.421875 18.890625 -0.6875 
Q 15.09375 0.046875 10.984375 1.515625 
z
M 30.609375 32.421875 
Q 37.25 32.421875 41.125 36.953125 
Q 45.015625 41.5 45.015625 49.421875 
Q 45.015625 57.28125 41.125 61.84375 
Q 37.25 66.40625 30.609375 66.40625 
Q 23.96875 66.40625 20.09375 61.84375 
Q 16.21875 57.28125 16.21875 49.421875 
Q 16.21875 41.5 20.09375 36.953125 
Q 23.96875 32.421875 30.609375 32.421875 
z
" id="DejaVuSans-57"/>
      </defs>
      <g transform="translate(80.476562 121.763164)scale(0.1 -0.1)">
       <use xlink:href="#DejaVuSans-32"/>
       <use x="31.787109" xlink:href="#DejaVuSans-111"/>
       <use x="92.96875" xlink:href="#DejaVuSans-95"/>
       <use x="142.96875" xlink:href="#DejaVuSans-95"/>
       <use x="192.96875" xlink:href="#DejaVuSans-82"/>
       <use x="262.451172" xlink:href="#DejaVuSans-70"/>
       <use x="319.970703" xlink:href="#DejaVuSans-51"/>
       <use x="383.59375" xlink:href="#DejaVuSans-57"/>
      </g>
     </g>
    </g>
    <g id="ytick_29">
     <g id="line2d_32">
      <g>
       <use style="stroke:#000000;stroke-width:0.8;" x="132.198437" xlink:href="#mbce33a390f" y="111.294685"/>
      </g>
     </g>
     <g id="text_33">
      <!--  s__dispar -->
      <g transform="translate(75.8875 115.093904)scale(0.1 -0.1)">
       <use xlink:href="#DejaVuSans-32"/>
       <use x="31.787109" xlink:href="#DejaVuSans-115"/>
       <use x="83.886719" xlink:href="#DejaVuSans-95"/>
       <use x="133.886719" xlink:href="#DejaVuSans-95"/>
       <use x="183.886719" xlink:href="#DejaVuSans-100"/>
       <use x="247.363281" xlink:href="#DejaVuSans-105"/>
       <use x="275.146484" xlink:href="#DejaVuSans-115"/>
       <use x="327.246094" xlink:href="#DejaVuSans-112"/>
       <use x="390.722656" xlink:href="#DejaVuSans-97"/>
       <use x="452.001953" xlink:href="#DejaVuSans-114"/>
      </g>
     </g>
    </g>
    <g id="ytick_30">
     <g id="line2d_33">
      <g>
       <use style="stroke:#000000;stroke-width:0.8;" x="132.198437" xlink:href="#mbce33a390f" y="104.537143"/>
      </g>
     </g>
     <g id="text_34">
      <!--  g__Slackia -->
      <g transform="translate(70.221875 108.336362)scale(0.1 -0.1)">
       <use xlink:href="#DejaVuSans-32"/>
       <use x="31.787109" xlink:href="#DejaVuSans-103"/>
       <use x="95.263672" xlink:href="#DejaVuSans-95"/>
       <use x="145.263672" xlink:href="#DejaVuSans-95"/>
       <use x="195.263672" xlink:href="#DejaVuSans-83"/>
       <use x="258.740234" xlink:href="#DejaVuSans-108"/>
       <use x="286.523438" xlink:href="#DejaVuSans-97"/>
       <use x="347.802734" xlink:href="#DejaVuSans-99"/>
       <use x="402.783203" xlink:href="#DejaVuSans-107"/>
       <use x="460.693359" xlink:href="#DejaVuSans-105"/>
       <use x="488.476562" xlink:href="#DejaVuSans-97"/>
      </g>
     </g>
    </g>
    <g id="ytick_31">
     <g id="line2d_34">
      <g>
       <use style="stroke:#000000;stroke-width:0.8;" x="132.198437" xlink:href="#mbce33a390f" y="97.779601"/>
      </g>
     </g>
     <g id="text_35">
      <!--  s__callidus -->
      <g transform="translate(68.954687 101.57882)scale(0.1 -0.1)">
       <use xlink:href="#DejaVuSans-32"/>
       <use x="31.787109" xlink:href="#DejaVuSans-115"/>
       <use x="83.886719" xlink:href="#DejaVuSans-95"/>
       <use x="133.886719" xlink:href="#DejaVuSans-95"/>
       <use x="183.886719" xlink:href="#DejaVuSans-99"/>
       <use x="238.867188" xlink:href="#DejaVuSans-97"/>
       <use x="300.146484" xlink:href="#DejaVuSans-108"/>
       <use x="327.929688" xlink:href="#DejaVuSans-108"/>
       <use x="355.712891" xlink:href="#DejaVuSans-105"/>
       <use x="383.496094" xlink:href="#DejaVuSans-100"/>
       <use x="446.972656" xlink:href="#DejaVuSans-117"/>
       <use x="510.351562" xlink:href="#DejaVuSans-115"/>
      </g>
     </g>
    </g>
    <g id="ytick_32">
     <g id="line2d_35">
      <g>
       <use style="stroke:#000000;stroke-width:0.8;" x="132.198437" xlink:href="#mbce33a390f" y="91.022059"/>
      </g>
     </g>
     <g id="text_36">
      <!--  s__copri -->
      <g transform="translate(81.95625 94.821278)scale(0.1 -0.1)">
       <use xlink:href="#DejaVuSans-32"/>
       <use x="31.787109" xlink:href="#DejaVuSans-115"/>
       <use x="83.886719" xlink:href="#DejaVuSans-95"/>
       <use x="133.886719" xlink:href="#DejaVuSans-95"/>
       <use x="183.886719" xlink:href="#DejaVuSans-99"/>
       <use x="238.867188" xlink:href="#DejaVuSans-111"/>
       <use x="300.048828" xlink:href="#DejaVuSans-112"/>
       <use x="363.525391" xlink:href="#DejaVuSans-114"/>
       <use x="404.638672" xlink:href="#DejaVuSans-105"/>
      </g>
     </g>
    </g>
    <g id="ytick_33">
     <g id="line2d_36">
      <g>
       <use style="stroke:#000000;stroke-width:0.8;" x="132.198437" xlink:href="#mbce33a390f" y="84.264517"/>
      </g>
     </g>
     <g id="text_37">
      <!--  s__catus -->
      <g transform="translate(79.717187 87.924674)scale(0.1 -0.1)">
       <use xlink:href="#DejaVuSans-32"/>
       <use x="31.787109" xlink:href="#DejaVuSans-115"/>
       <use x="83.886719" xlink:href="#DejaVuSans-95"/>
       <use x="133.886719" xlink:href="#DejaVuSans-95"/>
       <use x="183.886719" xlink:href="#DejaVuSans-99"/>
       <use x="238.867188" xlink:href="#DejaVuSans-97"/>
       <use x="300.146484" xlink:href="#DejaVuSans-116"/>
       <use x="339.355469" xlink:href="#DejaVuSans-117"/>
       <use x="402.734375" xlink:href="#DejaVuSans-115"/>
      </g>
     </g>
    </g>
    <g id="ytick_34">
     <g id="line2d_37">
      <g>
       <use style="stroke:#000000;stroke-width:0.8;" x="132.198437" xlink:href="#mbce33a390f" y="77.506976"/>
      </g>
     </g>
     <g id="text_38">
      <!--  s__aerofaciens -->
      <g transform="translate(48.678125 81.306194)scale(0.1 -0.1)">
       <use xlink:href="#DejaVuSans-32"/>
       <use x="31.787109" xlink:href="#DejaVuSans-115"/>
       <use x="83.886719" xlink:href="#DejaVuSans-95"/>
       <use x="133.886719" xlink:href="#DejaVuSans-95"/>
       <use x="183.886719" xlink:href="#DejaVuSans-97"/>
       <use x="245.166016" xlink:href="#DejaVuSans-101"/>
       <use x="306.689453" xlink:href="#DejaVuSans-114"/>
       <use x="347.771484" xlink:href="#DejaVuSans-111"/>
       <use x="408.953125" xlink:href="#DejaVuSans-102"/>
       <use x="444.158203" xlink:href="#DejaVuSans-97"/>
       <use x="505.4375" xlink:href="#DejaVuSans-99"/>
       <use x="560.417969" xlink:href="#DejaVuSans-105"/>
       <use x="588.201172" xlink:href="#DejaVuSans-101"/>
       <use x="649.724609" xlink:href="#DejaVuSans-110"/>
       <use x="713.103516" xlink:href="#DejaVuSans-115"/>
      </g>
     </g>
    </g>
    <g id="ytick_35">
     <g id="line2d_38">
      <g>
       <use style="stroke:#000000;stroke-width:0.8;" x="132.198437" xlink:href="#mbce33a390f" y="70.749434"/>
      </g>
     </g>
     <g id="text_39">
      <!--  s__ruminis -->
      <g transform="translate(69.51875 74.548652)scale(0.1 -0.1)">
       <use xlink:href="#DejaVuSans-32"/>
       <use x="31.787109" xlink:href="#DejaVuSans-115"/>
       <use x="83.886719" xlink:href="#DejaVuSans-95"/>
       <use x="133.886719" xlink:href="#DejaVuSans-95"/>
       <use x="183.886719" xlink:href="#DejaVuSans-114"/>
       <use x="225" xlink:href="#DejaVuSans-117"/>
       <use x="288.378906" xlink:href="#DejaVuSans-109"/>
       <use x="385.791016" xlink:href="#DejaVuSans-105"/>
       <use x="413.574219" xlink:href="#DejaVuSans-110"/>
       <use x="476.953125" xlink:href="#DejaVuSans-105"/>
       <use x="504.736328" xlink:href="#DejaVuSans-115"/>
      </g>
     </g>
    </g>
    <g id="ytick_36">
     <g id="line2d_39">
      <g>
       <use style="stroke:#000000;stroke-width:0.8;" x="132.198437" xlink:href="#mbce33a390f" y="63.991892"/>
      </g>
     </g>
     <g id="text_40">
      <!--  g__Dialister -->
      <defs>
       <path d="M 19.671875 64.796875 
L 19.671875 8.109375 
L 31.59375 8.109375 
Q 46.6875 8.109375 53.6875 14.9375 
Q 60.6875 21.78125 60.6875 36.53125 
Q 60.6875 51.171875 53.6875 57.984375 
Q 46.6875 64.796875 31.59375 64.796875 
z
M 9.8125 72.90625 
L 30.078125 72.90625 
Q 51.265625 72.90625 61.171875 64.09375 
Q 71.09375 55.28125 71.09375 36.53125 
Q 71.09375 17.671875 61.125 8.828125 
Q 51.171875 0 30.078125 0 
L 9.8125 0 
z
" id="DejaVuSans-68"/>
      </defs>
      <g transform="translate(64.115625 67.791111)scale(0.1 -0.1)">
       <use xlink:href="#DejaVuSans-32"/>
       <use x="31.787109" xlink:href="#DejaVuSans-103"/>
       <use x="95.263672" xlink:href="#DejaVuSans-95"/>
       <use x="145.263672" xlink:href="#DejaVuSans-95"/>
       <use x="195.263672" xlink:href="#DejaVuSans-68"/>
       <use x="272.265625" xlink:href="#DejaVuSans-105"/>
       <use x="300.048828" xlink:href="#DejaVuSans-97"/>
       <use x="361.328125" xlink:href="#DejaVuSans-108"/>
       <use x="389.111328" xlink:href="#DejaVuSans-105"/>
       <use x="416.894531" xlink:href="#DejaVuSans-115"/>
       <use x="468.994141" xlink:href="#DejaVuSans-116"/>
       <use x="508.203125" xlink:href="#DejaVuSans-101"/>
       <use x="569.726562" xlink:href="#DejaVuSans-114"/>
      </g>
     </g>
    </g>
   </g>
   <g id="patch_39">
    <path d="M 132.198437 315.304875 
L 132.198437 49.192875 
" style="fill:none;stroke:#000000;stroke-linecap:square;stroke-linejoin:miter;stroke-width:0.8;"/>
   </g>
   <g id="patch_40">
    <path d="M 362.598437 315.304875 
L 362.598437 49.192875 
" style="fill:none;stroke:#000000;stroke-linecap:square;stroke-linejoin:miter;stroke-width:0.8;"/>
   </g>
   <g id="patch_41">
    <path d="M 132.198437 315.304875 
L 362.598437 315.304875 
" style="fill:none;stroke:#000000;stroke-linecap:square;stroke-linejoin:miter;stroke-width:0.8;"/>
   </g>
   <g id="patch_42">
    <path d="M 132.198437 49.192875 
L 362.598437 49.192875 
" style="fill:none;stroke:#000000;stroke-linecap:square;stroke-linejoin:miter;stroke-width:0.8;"/>
   </g>
   <g id="text_41">
    <!-- SVM -->
    <defs>
     <path d="M 28.609375 0 
L 0.78125 72.90625 
L 11.078125 72.90625 
L 34.1875 11.53125 
L 57.328125 72.90625 
L 67.578125 72.90625 
L 39.796875 0 
z
" id="DejaVuSans-86"/>
    </defs>
    <g transform="translate(234.308125 16.318125)scale(0.12 -0.12)">
     <use xlink:href="#DejaVuSans-83"/>
     <use x="63.476562" xlink:href="#DejaVuSans-86"/>
     <use x="131.884766" xlink:href="#DejaVuSans-77"/>
    </g>
    <!-- Allergy type before treatment task - tree nut class  -->
    <defs>
     <path d="M 4.890625 31.390625 
L 31.203125 31.390625 
L 31.203125 23.390625 
L 4.890625 23.390625 
z
" id="DejaVuSans-45"/>
    </defs>
    <g transform="translate(94.360937 29.7555)scale(0.12 -0.12)">
     <use xlink:href="#DejaVuSans-65"/>
     <use x="68.408203" xlink:href="#DejaVuSans-108"/>
     <use x="96.191406" xlink:href="#DejaVuSans-108"/>
     <use x="123.974609" xlink:href="#DejaVuSans-101"/>
     <use x="185.498047" xlink:href="#DejaVuSans-114"/>
     <use x="226.595703" xlink:href="#DejaVuSans-103"/>
     <use x="290.072266" xlink:href="#DejaVuSans-121"/>
     <use x="349.251953" xlink:href="#DejaVuSans-32"/>
     <use x="381.039062" xlink:href="#DejaVuSans-116"/>
     <use x="420.248047" xlink:href="#DejaVuSans-121"/>
     <use x="479.427734" xlink:href="#DejaVuSans-112"/>
     <use x="542.904297" xlink:href="#DejaVuSans-101"/>
     <use x="604.427734" xlink:href="#DejaVuSans-32"/>
     <use x="636.214844" xlink:href="#DejaVuSans-98"/>
     <use x="699.691406" xlink:href="#DejaVuSans-101"/>
     <use x="761.214844" xlink:href="#DejaVuSans-102"/>
     <use x="796.419922" xlink:href="#DejaVuSans-111"/>
     <use x="857.601562" xlink:href="#DejaVuSans-114"/>
     <use x="898.683594" xlink:href="#DejaVuSans-101"/>
     <use x="960.207031" xlink:href="#DejaVuSans-32"/>
     <use x="991.994141" xlink:href="#DejaVuSans-116"/>
     <use x="1031.203125" xlink:href="#DejaVuSans-114"/>
     <use x="1072.285156" xlink:href="#DejaVuSans-101"/>
     <use x="1133.808594" xlink:href="#DejaVuSans-97"/>
     <use x="1195.087891" xlink:href="#DejaVuSans-116"/>
     <use x="1234.296875" xlink:href="#DejaVuSans-109"/>
     <use x="1331.708984" xlink:href="#DejaVuSans-101"/>
     <use x="1393.232422" xlink:href="#DejaVuSans-110"/>
     <use x="1456.611328" xlink:href="#DejaVuSans-116"/>
     <use x="1495.820312" xlink:href="#DejaVuSans-32"/>
     <use x="1527.607422" xlink:href="#DejaVuSans-116"/>
     <use x="1566.816406" xlink:href="#DejaVuSans-97"/>
     <use x="1628.095703" xlink:href="#DejaVuSans-115"/>
     <use x="1680.195312" xlink:href="#DejaVuSans-107"/>
     <use x="1738.105469" xlink:href="#DejaVuSans-32"/>
     <use x="1769.892578" xlink:href="#DejaVuSans-45"/>
     <use x="1805.976562" xlink:href="#DejaVuSans-32"/>
     <use x="1837.763672" xlink:href="#DejaVuSans-116"/>
     <use x="1876.972656" xlink:href="#DejaVuSans-114"/>
     <use x="1918.054688" xlink:href="#DejaVuSans-101"/>
     <use x="1979.578125" xlink:href="#DejaVuSans-101"/>
     <use x="2041.101562" xlink:href="#DejaVuSans-32"/>
     <use x="2072.888672" xlink:href="#DejaVuSans-110"/>
     <use x="2136.267578" xlink:href="#DejaVuSans-117"/>
     <use x="2199.646484" xlink:href="#DejaVuSans-116"/>
     <use x="2238.855469" xlink:href="#DejaVuSans-32"/>
     <use x="2270.642578" xlink:href="#DejaVuSans-99"/>
     <use x="2325.623047" xlink:href="#DejaVuSans-108"/>
     <use x="2353.40625" xlink:href="#DejaVuSans-97"/>
     <use x="2414.685547" xlink:href="#DejaVuSans-115"/>
     <use x="2466.785156" xlink:href="#DejaVuSans-115"/>
     <use x="2518.884766" xlink:href="#DejaVuSans-32"/>
    </g>
    <!-- Average coefficients for 5 runs -->
    <defs>
     <path d="M 10.796875 72.90625 
L 49.515625 72.90625 
L 49.515625 64.59375 
L 19.828125 64.59375 
L 19.828125 46.734375 
Q 21.96875 47.46875 24.109375 47.828125 
Q 26.265625 48.1875 28.421875 48.1875 
Q 40.625 48.1875 47.75 41.5 
Q 54.890625 34.8125 54.890625 23.390625 
Q 54.890625 11.625 47.5625 5.09375 
Q 40.234375 -1.421875 26.90625 -1.421875 
Q 22.3125 -1.421875 17.546875 -0.640625 
Q 12.796875 0.140625 7.71875 1.703125 
L 7.71875 11.625 
Q 12.109375 9.234375 16.796875 8.0625 
Q 21.484375 6.890625 26.703125 6.890625 
Q 35.15625 6.890625 40.078125 11.328125 
Q 45.015625 15.765625 45.015625 23.390625 
Q 45.015625 31 40.078125 35.4375 
Q 35.15625 39.890625 26.703125 39.890625 
Q 22.75 39.890625 18.8125 39.015625 
Q 14.890625 38.140625 10.796875 36.28125 
z
" id="DejaVuSans-53"/>
    </defs>
    <g transform="translate(155.0275 43.192875)scale(0.12 -0.12)">
     <use xlink:href="#DejaVuSans-65"/>
     <use x="68.330078" xlink:href="#DejaVuSans-118"/>
     <use x="127.509766" xlink:href="#DejaVuSans-101"/>
     <use x="189.033203" xlink:href="#DejaVuSans-114"/>
     <use x="230.146484" xlink:href="#DejaVuSans-97"/>
     <use x="291.425781" xlink:href="#DejaVuSans-103"/>
     <use x="354.902344" xlink:href="#DejaVuSans-101"/>
     <use x="416.425781" xlink:href="#DejaVuSans-32"/>
     <use x="448.212891" xlink:href="#DejaVuSans-99"/>
     <use x="503.193359" xlink:href="#DejaVuSans-111"/>
     <use x="564.375" xlink:href="#DejaVuSans-101"/>
     <use x="625.898438" xlink:href="#DejaVuSans-102"/>
     <use x="661.103516" xlink:href="#DejaVuSans-102"/>
     <use x="696.308594" xlink:href="#DejaVuSans-105"/>
     <use x="724.091797" xlink:href="#DejaVuSans-99"/>
     <use x="779.072266" xlink:href="#DejaVuSans-105"/>
     <use x="806.855469" xlink:href="#DejaVuSans-101"/>
     <use x="868.378906" xlink:href="#DejaVuSans-110"/>
     <use x="931.757812" xlink:href="#DejaVuSans-116"/>
     <use x="970.966797" xlink:href="#DejaVuSans-115"/>
     <use x="1023.066406" xlink:href="#DejaVuSans-32"/>
     <use x="1054.853516" xlink:href="#DejaVuSans-102"/>
     <use x="1090.058594" xlink:href="#DejaVuSans-111"/>
     <use x="1151.240234" xlink:href="#DejaVuSans-114"/>
     <use x="1192.353516" xlink:href="#DejaVuSans-32"/>
     <use x="1224.140625" xlink:href="#DejaVuSans-53"/>
     <use x="1287.763672" xlink:href="#DejaVuSans-32"/>
     <use x="1319.550781" xlink:href="#DejaVuSans-114"/>
     <use x="1360.664062" xlink:href="#DejaVuSans-117"/>
     <use x="1424.042969" xlink:href="#DejaVuSans-110"/>
     <use x="1487.421875" xlink:href="#DejaVuSans-115"/>
    </g>
   </g>
  </g>
 </g>
 <defs>
  <clipPath id="p46ca863d2d">
   <rect height="266.112" width="230.4" x="132.198437" y="49.192875"/>
  </clipPath>
 </defs>
</svg>
