<?xml version="1.0" encoding="utf-8" standalone="no"?>
<!DOCTYPE svg PUBLIC "-//W3C//DTD SVG 1.1//EN"
  "http://www.w3.org/Graphics/SVG/1.1/DTD/svg11.dtd">
<!-- Created with matplotlib (https://matplotlib.org/) -->
<svg height="325.986375pt" version="1.1" viewBox="0 0 404.923125 325.986375" width="404.923125pt" xmlns="http://www.w3.org/2000/svg" xmlns:xlink="http://www.w3.org/1999/xlink">
 <defs>
  <style type="text/css">
*{stroke-linecap:butt;stroke-linejoin:round;}
  </style>
 </defs>
 <g id="figure_1">
  <g id="patch_1">
   <path d="M 0 325.986375 
L 404.923125 325.986375 
L 404.923125 0 
L 0 0 
z
" style="fill:#ffffff;"/>
  </g>
  <g id="axes_1">
   <g id="patch_2">
    <path d="M 40.603125 288.430125 
L 397.723125 288.430125 
L 397.723125 22.318125 
L 40.603125 22.318125 
z
" style="fill:#ffffff;"/>
   </g>
   <g id="patch_3">
    <path clip-path="url(#pdf16e5a2d6)" d="M 86.247117 288.430125 
L 90.989981 288.430125 
L 90.989981 287.328212 
L 86.247117 287.328212 
z
" style="fill:#d95f0e;opacity:0.5;"/>
   </g>
   <g id="patch_4">
    <path clip-path="url(#pdf16e5a2d6)" d="M 92.175697 288.430125 
L 96.918561 288.430125 
L 96.918561 288.430125 
L 92.175697 288.430125 
z
" style="fill:#d95f0e;opacity:0.5;"/>
   </g>
   <g id="patch_5">
    <path clip-path="url(#pdf16e5a2d6)" d="M 98.104277 288.430125 
L 102.847141 288.430125 
L 102.847141 288.430125 
L 98.104277 288.430125 
z
" style="fill:#d95f0e;opacity:0.5;"/>
   </g>
   <g id="patch_6">
    <path clip-path="url(#pdf16e5a2d6)" d="M 104.032857 288.430125 
L 108.775721 288.430125 
L 108.775721 287.328212 
L 104.032857 287.328212 
z
" style="fill:#d95f0e;opacity:0.5;"/>
   </g>
   <g id="patch_7">
    <path clip-path="url(#pdf16e5a2d6)" d="M 109.961437 288.430125 
L 114.704301 288.430125 
L 114.704301 282.92056 
L 109.961437 282.92056 
z
" style="fill:#d95f0e;opacity:0.5;"/>
   </g>
   <g id="patch_8">
    <path clip-path="url(#pdf16e5a2d6)" d="M 115.890017 288.430125 
L 120.63288 288.430125 
L 120.63288 287.328212 
L 115.890017 287.328212 
z
" style="fill:#d95f0e;opacity:0.5;"/>
   </g>
   <g id="patch_9">
    <path clip-path="url(#pdf16e5a2d6)" d="M 121.818596 288.430125 
L 126.56146 288.430125 
L 126.56146 279.614821 
L 121.818596 279.614821 
z
" style="fill:#d95f0e;opacity:0.5;"/>
   </g>
   <g id="patch_10">
    <path clip-path="url(#pdf16e5a2d6)" d="M 127.747176 288.430125 
L 132.49004 288.430125 
L 132.49004 281.818647 
L 127.747176 281.818647 
z
" style="fill:#d95f0e;opacity:0.5;"/>
   </g>
   <g id="patch_11">
    <path clip-path="url(#pdf16e5a2d6)" d="M 133.675756 288.430125 
L 138.41862 288.430125 
L 138.41862 269.697603 
L 133.675756 269.697603 
z
" style="fill:#d95f0e;opacity:0.5;"/>
   </g>
   <g id="patch_12">
    <path clip-path="url(#pdf16e5a2d6)" d="M 139.604336 288.430125 
L 144.3472 288.430125 
L 144.3472 286.226299 
L 139.604336 286.226299 
z
" style="fill:#d95f0e;opacity:0.5;"/>
   </g>
   <g id="patch_13">
    <path clip-path="url(#pdf16e5a2d6)" d="M 145.532916 288.430125 
L 150.27578 288.430125 
L 150.27578 270.799516 
L 145.532916 270.799516 
z
" style="fill:#d95f0e;opacity:0.5;"/>
   </g>
   <g id="patch_14">
    <path clip-path="url(#pdf16e5a2d6)" d="M 151.461496 288.430125 
L 156.20436 288.430125 
L 156.20436 279.614821 
L 151.461496 279.614821 
z
" style="fill:#d95f0e;opacity:0.5;"/>
   </g>
   <g id="patch_15">
    <path clip-path="url(#pdf16e5a2d6)" d="M 157.390076 288.430125 
L 162.13294 288.430125 
L 162.13294 268.59569 
L 157.390076 268.59569 
z
" style="fill:#d95f0e;opacity:0.5;"/>
   </g>
   <g id="patch_16">
    <path clip-path="url(#pdf16e5a2d6)" d="M 163.318656 288.430125 
L 168.06152 288.430125 
L 168.06152 179.340734 
L 163.318656 179.340734 
z
" style="fill:#d95f0e;opacity:0.5;"/>
   </g>
   <g id="patch_17">
    <path clip-path="url(#pdf16e5a2d6)" d="M 169.247236 288.430125 
L 173.9901 288.430125 
L 173.9901 267.493777 
L 169.247236 267.493777 
z
" style="fill:#d95f0e;opacity:0.5;"/>
   </g>
   <g id="patch_18">
    <path clip-path="url(#pdf16e5a2d6)" d="M 175.175816 288.430125 
L 179.91868 288.430125 
L 179.91868 247.659342 
L 175.175816 247.659342 
z
" style="fill:#d95f0e;opacity:0.5;"/>
   </g>
   <g id="patch_19">
    <path clip-path="url(#pdf16e5a2d6)" d="M 181.104396 288.430125 
L 185.84726 288.430125 
L 185.84726 267.493777 
L 181.104396 267.493777 
z
" style="fill:#d95f0e;opacity:0.5;"/>
   </g>
   <g id="patch_20">
    <path clip-path="url(#pdf16e5a2d6)" d="M 187.032976 288.430125 
L 191.77584 288.430125 
L 191.77584 264.188038 
L 187.032976 264.188038 
z
" style="fill:#d95f0e;opacity:0.5;"/>
   </g>
   <g id="patch_21">
    <path clip-path="url(#pdf16e5a2d6)" d="M 192.961556 288.430125 
L 197.70442 288.430125 
L 197.70442 256.474647 
L 192.961556 256.474647 
z
" style="fill:#d95f0e;opacity:0.5;"/>
   </g>
   <g id="patch_22">
    <path clip-path="url(#pdf16e5a2d6)" d="M 198.890136 288.430125 
L 203.633 288.430125 
L 203.633 248.761255 
L 198.890136 248.761255 
z
" style="fill:#d95f0e;opacity:0.5;"/>
   </g>
   <g id="patch_23">
    <path clip-path="url(#pdf16e5a2d6)" d="M 204.818716 288.430125 
L 209.56158 288.430125 
L 209.56158 253.168908 
L 204.818716 253.168908 
z
" style="fill:#d95f0e;opacity:0.5;"/>
   </g>
   <g id="patch_24">
    <path clip-path="url(#pdf16e5a2d6)" d="M 210.747296 288.430125 
L 215.490159 288.430125 
L 215.490159 194.767516 
L 210.747296 194.767516 
z
" style="fill:#d95f0e;opacity:0.5;"/>
   </g>
   <g id="patch_25">
    <path clip-path="url(#pdf16e5a2d6)" d="M 216.675875 288.430125 
L 221.418739 288.430125 
L 221.418739 246.557429 
L 216.675875 246.557429 
z
" style="fill:#d95f0e;opacity:0.5;"/>
   </g>
   <g id="patch_26">
    <path clip-path="url(#pdf16e5a2d6)" d="M 222.604455 288.430125 
L 227.347319 288.430125 
L 227.347319 216.805777 
L 222.604455 216.805777 
z
" style="fill:#d95f0e;opacity:0.5;"/>
   </g>
   <g id="patch_27">
    <path clip-path="url(#pdf16e5a2d6)" d="M 228.533035 288.430125 
L 233.275899 288.430125 
L 233.275899 245.455516 
L 228.533035 245.455516 
z
" style="fill:#d95f0e;opacity:0.5;"/>
   </g>
   <g id="patch_28">
    <path clip-path="url(#pdf16e5a2d6)" d="M 234.461615 288.430125 
L 239.204479 288.430125 
L 239.204479 256.474647 
L 234.461615 256.474647 
z
" style="fill:#d95f0e;opacity:0.5;"/>
   </g>
   <g id="patch_29">
    <path clip-path="url(#pdf16e5a2d6)" d="M 240.390195 288.430125 
L 245.133059 288.430125 
L 245.133059 226.722995 
L 240.390195 226.722995 
z
" style="fill:#d95f0e;opacity:0.5;"/>
   </g>
   <g id="patch_30">
    <path clip-path="url(#pdf16e5a2d6)" d="M 246.318775 288.430125 
L 251.061639 288.430125 
L 251.061639 259.780386 
L 246.318775 259.780386 
z
" style="fill:#d95f0e;opacity:0.5;"/>
   </g>
   <g id="patch_31">
    <path clip-path="url(#pdf16e5a2d6)" d="M 252.247355 288.430125 
L 256.990219 288.430125 
L 256.990219 241.047864 
L 252.247355 241.047864 
z
" style="fill:#d95f0e;opacity:0.5;"/>
   </g>
   <g id="patch_32">
    <path clip-path="url(#pdf16e5a2d6)" d="M 258.175935 288.430125 
L 262.918799 288.430125 
L 262.918799 231.130647 
L 258.175935 231.130647 
z
" style="fill:#d95f0e;opacity:0.5;"/>
   </g>
   <g id="patch_33">
    <path clip-path="url(#pdf16e5a2d6)" d="M 264.104515 288.430125 
L 268.847379 288.430125 
L 268.847379 261.984212 
L 264.104515 261.984212 
z
" style="fill:#d95f0e;opacity:0.5;"/>
   </g>
   <g id="patch_34">
    <path clip-path="url(#pdf16e5a2d6)" d="M 270.033095 288.430125 
L 274.775959 288.430125 
L 274.775959 75.760908 
L 270.033095 75.760908 
z
" style="fill:#d95f0e;opacity:0.5;"/>
   </g>
   <g id="patch_35">
    <path clip-path="url(#pdf16e5a2d6)" d="M 275.961675 288.430125 
L 280.704539 288.430125 
L 280.704539 260.882299 
L 275.961675 260.882299 
z
" style="fill:#d95f0e;opacity:0.5;"/>
   </g>
   <g id="patch_36">
    <path clip-path="url(#pdf16e5a2d6)" d="M 281.890255 288.430125 
L 286.633119 288.430125 
L 286.633119 264.188038 
L 281.890255 264.188038 
z
" style="fill:#d95f0e;opacity:0.5;"/>
   </g>
   <g id="patch_37">
    <path clip-path="url(#pdf16e5a2d6)" d="M 287.818835 288.430125 
L 292.561699 288.430125 
L 292.561699 213.500038 
L 287.818835 213.500038 
z
" style="fill:#d95f0e;opacity:0.5;"/>
   </g>
   <g id="patch_38">
    <path clip-path="url(#pdf16e5a2d6)" d="M 293.747415 288.430125 
L 298.490279 288.430125 
L 298.490279 266.391864 
L 293.747415 266.391864 
z
" style="fill:#d95f0e;opacity:0.5;"/>
   </g>
   <g id="patch_39">
    <path clip-path="url(#pdf16e5a2d6)" d="M 299.675995 288.430125 
L 304.418859 288.430125 
L 304.418859 249.863168 
L 299.675995 249.863168 
z
" style="fill:#d95f0e;opacity:0.5;"/>
   </g>
   <g id="patch_40">
    <path clip-path="url(#pdf16e5a2d6)" d="M 305.604575 288.430125 
L 310.347438 288.430125 
L 310.347438 278.512908 
L 305.604575 278.512908 
z
" style="fill:#d95f0e;opacity:0.5;"/>
   </g>
   <g id="patch_41">
    <path clip-path="url(#pdf16e5a2d6)" d="M 311.533154 288.430125 
L 316.276018 288.430125 
L 316.276018 277.410995 
L 311.533154 277.410995 
z
" style="fill:#d95f0e;opacity:0.5;"/>
   </g>
   <g id="patch_42">
    <path clip-path="url(#pdf16e5a2d6)" d="M 317.461734 288.430125 
L 322.204598 288.430125 
L 322.204598 274.105255 
L 317.461734 274.105255 
z
" style="fill:#d95f0e;opacity:0.5;"/>
   </g>
   <g id="patch_43">
    <path clip-path="url(#pdf16e5a2d6)" d="M 323.390314 288.430125 
L 328.133178 288.430125 
L 328.133178 274.105255 
L 323.390314 274.105255 
z
" style="fill:#d95f0e;opacity:0.5;"/>
   </g>
   <g id="patch_44">
    <path clip-path="url(#pdf16e5a2d6)" d="M 329.318894 288.430125 
L 334.061758 288.430125 
L 334.061758 279.614821 
L 329.318894 279.614821 
z
" style="fill:#d95f0e;opacity:0.5;"/>
   </g>
   <g id="patch_45">
    <path clip-path="url(#pdf16e5a2d6)" d="M 335.247474 288.430125 
L 339.990338 288.430125 
L 339.990338 282.92056 
L 335.247474 282.92056 
z
" style="fill:#d95f0e;opacity:0.5;"/>
   </g>
   <g id="patch_46">
    <path clip-path="url(#pdf16e5a2d6)" d="M 341.176054 288.430125 
L 345.918918 288.430125 
L 345.918918 284.022473 
L 341.176054 284.022473 
z
" style="fill:#d95f0e;opacity:0.5;"/>
   </g>
   <g id="patch_47">
    <path clip-path="url(#pdf16e5a2d6)" d="M 347.104634 288.430125 
L 351.847498 288.430125 
L 351.847498 285.124386 
L 347.104634 285.124386 
z
" style="fill:#d95f0e;opacity:0.5;"/>
   </g>
   <g id="patch_48">
    <path clip-path="url(#pdf16e5a2d6)" d="M 353.033214 288.430125 
L 357.776078 288.430125 
L 357.776078 286.226299 
L 353.033214 286.226299 
z
" style="fill:#d95f0e;opacity:0.5;"/>
   </g>
   <g id="patch_49">
    <path clip-path="url(#pdf16e5a2d6)" d="M 358.961794 288.430125 
L 363.704658 288.430125 
L 363.704658 287.328212 
L 358.961794 287.328212 
z
" style="fill:#d95f0e;opacity:0.5;"/>
   </g>
   <g id="patch_50">
    <path clip-path="url(#pdf16e5a2d6)" d="M 364.890374 288.430125 
L 369.633238 288.430125 
L 369.633238 285.124386 
L 364.890374 285.124386 
z
" style="fill:#d95f0e;opacity:0.5;"/>
   </g>
   <g id="patch_51">
    <path clip-path="url(#pdf16e5a2d6)" d="M 370.818954 288.430125 
L 375.561818 288.430125 
L 375.561818 286.226299 
L 370.818954 286.226299 
z
" style="fill:#d95f0e;opacity:0.5;"/>
   </g>
   <g id="patch_52">
    <path clip-path="url(#pdf16e5a2d6)" d="M 376.747534 288.430125 
L 381.490398 288.430125 
L 381.490398 287.328212 
L 376.747534 287.328212 
z
" style="fill:#d95f0e;opacity:0.5;"/>
   </g>
   <g id="patch_53">
    <path clip-path="url(#pdf16e5a2d6)" d="M 56.835852 288.430125 
L 61.578716 288.430125 
L 61.578716 277.410995 
L 56.835852 277.410995 
z
" style="fill:#43a2ca;opacity:0.8;"/>
   </g>
   <g id="patch_54">
    <path clip-path="url(#pdf16e5a2d6)" d="M 63.30451 288.430125 
L 68.047374 288.430125 
L 68.047374 266.391864 
L 63.30451 266.391864 
z
" style="fill:#43a2ca;opacity:0.8;"/>
   </g>
   <g id="patch_55">
    <path clip-path="url(#pdf16e5a2d6)" d="M 69.773167 288.430125 
L 74.516031 288.430125 
L 74.516031 288.430125 
L 69.773167 288.430125 
z
" style="fill:#43a2ca;opacity:0.8;"/>
   </g>
   <g id="patch_56">
    <path clip-path="url(#pdf16e5a2d6)" d="M 76.241825 288.430125 
L 80.984689 288.430125 
L 80.984689 288.430125 
L 76.241825 288.430125 
z
" style="fill:#43a2ca;opacity:0.8;"/>
   </g>
   <g id="patch_57">
    <path clip-path="url(#pdf16e5a2d6)" d="M 82.710482 288.430125 
L 87.453346 288.430125 
L 87.453346 288.430125 
L 82.710482 288.430125 
z
" style="fill:#43a2ca;opacity:0.8;"/>
   </g>
   <g id="patch_58">
    <path clip-path="url(#pdf16e5a2d6)" d="M 89.17914 288.430125 
L 93.922004 288.430125 
L 93.922004 277.410995 
L 89.17914 277.410995 
z
" style="fill:#43a2ca;opacity:0.8;"/>
   </g>
   <g id="patch_59">
    <path clip-path="url(#pdf16e5a2d6)" d="M 95.647797 288.430125 
L 100.390661 288.430125 
L 100.390661 266.391864 
L 95.647797 266.391864 
z
" style="fill:#43a2ca;opacity:0.8;"/>
   </g>
   <g id="patch_60">
    <path clip-path="url(#pdf16e5a2d6)" d="M 102.116455 288.430125 
L 106.859319 288.430125 
L 106.859319 277.410995 
L 102.116455 277.410995 
z
" style="fill:#43a2ca;opacity:0.8;"/>
   </g>
   <g id="patch_61">
    <path clip-path="url(#pdf16e5a2d6)" d="M 108.585112 288.430125 
L 113.327976 288.430125 
L 113.327976 266.391864 
L 108.585112 266.391864 
z
" style="fill:#43a2ca;opacity:0.8;"/>
   </g>
   <g id="patch_62">
    <path clip-path="url(#pdf16e5a2d6)" d="M 115.05377 288.430125 
L 119.796633 288.430125 
L 119.796633 288.430125 
L 115.05377 288.430125 
z
" style="fill:#43a2ca;opacity:0.8;"/>
   </g>
   <g id="patch_63">
    <path clip-path="url(#pdf16e5a2d6)" d="M 121.522427 288.430125 
L 126.265291 288.430125 
L 126.265291 277.410995 
L 121.522427 277.410995 
z
" style="fill:#43a2ca;opacity:0.8;"/>
   </g>
   <g id="patch_64">
    <path clip-path="url(#pdf16e5a2d6)" d="M 127.991084 288.430125 
L 132.733948 288.430125 
L 132.733948 277.410995 
L 127.991084 277.410995 
z
" style="fill:#43a2ca;opacity:0.8;"/>
   </g>
   <g id="patch_65">
    <path clip-path="url(#pdf16e5a2d6)" d="M 134.459742 288.430125 
L 139.202606 288.430125 
L 139.202606 288.430125 
L 134.459742 288.430125 
z
" style="fill:#43a2ca;opacity:0.8;"/>
   </g>
   <g id="patch_66">
    <path clip-path="url(#pdf16e5a2d6)" d="M 140.928399 288.430125 
L 145.671263 288.430125 
L 145.671263 277.410995 
L 140.928399 277.410995 
z
" style="fill:#43a2ca;opacity:0.8;"/>
   </g>
   <g id="patch_67">
    <path clip-path="url(#pdf16e5a2d6)" d="M 147.397057 288.430125 
L 152.139921 288.430125 
L 152.139921 277.410995 
L 147.397057 277.410995 
z
" style="fill:#43a2ca;opacity:0.8;"/>
   </g>
   <g id="patch_68">
    <path clip-path="url(#pdf16e5a2d6)" d="M 153.865714 288.430125 
L 158.608578 288.430125 
L 158.608578 266.391864 
L 153.865714 266.391864 
z
" style="fill:#43a2ca;opacity:0.8;"/>
   </g>
   <g id="patch_69">
    <path clip-path="url(#pdf16e5a2d6)" d="M 160.334372 288.430125 
L 165.077236 288.430125 
L 165.077236 233.334473 
L 160.334372 233.334473 
z
" style="fill:#43a2ca;opacity:0.8;"/>
   </g>
   <g id="patch_70">
    <path clip-path="url(#pdf16e5a2d6)" d="M 166.803029 288.430125 
L 171.545893 288.430125 
L 171.545893 277.410995 
L 166.803029 277.410995 
z
" style="fill:#43a2ca;opacity:0.8;"/>
   </g>
   <g id="patch_71">
    <path clip-path="url(#pdf16e5a2d6)" d="M 173.271687 288.430125 
L 178.014551 288.430125 
L 178.014551 233.334473 
L 173.271687 233.334473 
z
" style="fill:#43a2ca;opacity:0.8;"/>
   </g>
   <g id="patch_72">
    <path clip-path="url(#pdf16e5a2d6)" d="M 179.740344 288.430125 
L 184.483208 288.430125 
L 184.483208 211.296212 
L 179.740344 211.296212 
z
" style="fill:#43a2ca;opacity:0.8;"/>
   </g>
   <g id="patch_73">
    <path clip-path="url(#pdf16e5a2d6)" d="M 186.209002 288.430125 
L 190.951866 288.430125 
L 190.951866 277.410995 
L 186.209002 277.410995 
z
" style="fill:#43a2ca;opacity:0.8;"/>
   </g>
   <g id="patch_74">
    <path clip-path="url(#pdf16e5a2d6)" d="M 192.677659 288.430125 
L 197.420523 288.430125 
L 197.420523 277.410995 
L 192.677659 277.410995 
z
" style="fill:#43a2ca;opacity:0.8;"/>
   </g>
   <g id="patch_75">
    <path clip-path="url(#pdf16e5a2d6)" d="M 199.146317 288.430125 
L 203.889181 288.430125 
L 203.889181 255.372734 
L 199.146317 255.372734 
z
" style="fill:#43a2ca;opacity:0.8;"/>
   </g>
   <g id="patch_76">
    <path clip-path="url(#pdf16e5a2d6)" d="M 205.614974 288.430125 
L 210.357838 288.430125 
L 210.357838 255.372734 
L 205.614974 255.372734 
z
" style="fill:#43a2ca;opacity:0.8;"/>
   </g>
   <g id="patch_77">
    <path clip-path="url(#pdf16e5a2d6)" d="M 212.083632 288.430125 
L 216.826496 288.430125 
L 216.826496 222.315342 
L 212.083632 222.315342 
z
" style="fill:#43a2ca;opacity:0.8;"/>
   </g>
   <g id="patch_78">
    <path clip-path="url(#pdf16e5a2d6)" d="M 218.552289 288.430125 
L 223.295153 288.430125 
L 223.295153 200.277082 
L 218.552289 200.277082 
z
" style="fill:#43a2ca;opacity:0.8;"/>
   </g>
   <g id="patch_79">
    <path clip-path="url(#pdf16e5a2d6)" d="M 225.020947 288.430125 
L 229.763811 288.430125 
L 229.763811 277.410995 
L 225.020947 277.410995 
z
" style="fill:#43a2ca;opacity:0.8;"/>
   </g>
   <g id="patch_80">
    <path clip-path="url(#pdf16e5a2d6)" d="M 231.489604 288.430125 
L 236.232468 288.430125 
L 236.232468 255.372734 
L 231.489604 255.372734 
z
" style="fill:#43a2ca;opacity:0.8;"/>
   </g>
   <g id="patch_81">
    <path clip-path="url(#pdf16e5a2d6)" d="M 237.958262 288.430125 
L 242.701125 288.430125 
L 242.701125 211.296212 
L 237.958262 211.296212 
z
" style="fill:#43a2ca;opacity:0.8;"/>
   </g>
   <g id="patch_82">
    <path clip-path="url(#pdf16e5a2d6)" d="M 244.426919 288.430125 
L 249.169783 288.430125 
L 249.169783 233.334473 
L 244.426919 233.334473 
z
" style="fill:#43a2ca;opacity:0.8;"/>
   </g>
   <g id="patch_83">
    <path clip-path="url(#pdf16e5a2d6)" d="M 250.895576 288.430125 
L 255.63844 288.430125 
L 255.63844 288.430125 
L 250.895576 288.430125 
z
" style="fill:#43a2ca;opacity:0.8;"/>
   </g>
   <g id="patch_84">
    <path clip-path="url(#pdf16e5a2d6)" d="M 257.364234 288.430125 
L 262.107098 288.430125 
L 262.107098 244.353603 
L 257.364234 244.353603 
z
" style="fill:#43a2ca;opacity:0.8;"/>
   </g>
   <g id="patch_85">
    <path clip-path="url(#pdf16e5a2d6)" d="M 263.832891 288.430125 
L 268.575755 288.430125 
L 268.575755 277.410995 
L 263.832891 277.410995 
z
" style="fill:#43a2ca;opacity:0.8;"/>
   </g>
   <g id="patch_86">
    <path clip-path="url(#pdf16e5a2d6)" d="M 270.301549 288.430125 
L 275.044413 288.430125 
L 275.044413 34.990125 
L 270.301549 34.990125 
z
" style="fill:#43a2ca;opacity:0.8;"/>
   </g>
   <g id="patch_87">
    <path clip-path="url(#pdf16e5a2d6)" d="M 276.770206 288.430125 
L 281.51307 288.430125 
L 281.51307 266.391864 
L 276.770206 266.391864 
z
" style="fill:#43a2ca;opacity:0.8;"/>
   </g>
   <g id="patch_88">
    <path clip-path="url(#pdf16e5a2d6)" d="M 283.238864 288.430125 
L 287.981728 288.430125 
L 287.981728 255.372734 
L 283.238864 255.372734 
z
" style="fill:#43a2ca;opacity:0.8;"/>
   </g>
   <g id="patch_89">
    <path clip-path="url(#pdf16e5a2d6)" d="M 289.707521 288.430125 
L 294.450385 288.430125 
L 294.450385 189.257951 
L 289.707521 189.257951 
z
" style="fill:#43a2ca;opacity:0.8;"/>
   </g>
   <g id="patch_90">
    <path clip-path="url(#pdf16e5a2d6)" d="M 296.176179 288.430125 
L 300.919043 288.430125 
L 300.919043 255.372734 
L 296.176179 255.372734 
z
" style="fill:#43a2ca;opacity:0.8;"/>
   </g>
   <g id="patch_91">
    <path clip-path="url(#pdf16e5a2d6)" d="M 302.644836 288.430125 
L 307.3877 288.430125 
L 307.3877 233.334473 
L 302.644836 233.334473 
z
" style="fill:#43a2ca;opacity:0.8;"/>
   </g>
   <g id="patch_92">
    <path clip-path="url(#pdf16e5a2d6)" d="M 309.113494 288.430125 
L 313.856358 288.430125 
L 313.856358 288.430125 
L 309.113494 288.430125 
z
" style="fill:#43a2ca;opacity:0.8;"/>
   </g>
   <g id="patch_93">
    <path clip-path="url(#pdf16e5a2d6)" d="M 315.582151 288.430125 
L 320.325015 288.430125 
L 320.325015 255.372734 
L 315.582151 255.372734 
z
" style="fill:#43a2ca;opacity:0.8;"/>
   </g>
   <g id="patch_94">
    <path clip-path="url(#pdf16e5a2d6)" d="M 322.050809 288.430125 
L 326.793673 288.430125 
L 326.793673 288.430125 
L 322.050809 288.430125 
z
" style="fill:#43a2ca;opacity:0.8;"/>
   </g>
   <g id="patch_95">
    <path clip-path="url(#pdf16e5a2d6)" d="M 328.519466 288.430125 
L 333.26233 288.430125 
L 333.26233 288.430125 
L 328.519466 288.430125 
z
" style="fill:#43a2ca;opacity:0.8;"/>
   </g>
   <g id="patch_96">
    <path clip-path="url(#pdf16e5a2d6)" d="M 334.988124 288.430125 
L 339.730988 288.430125 
L 339.730988 277.410995 
L 334.988124 277.410995 
z
" style="fill:#43a2ca;opacity:0.8;"/>
   </g>
   <g id="patch_97">
    <path clip-path="url(#pdf16e5a2d6)" d="M 341.456781 288.430125 
L 346.199645 288.430125 
L 346.199645 288.430125 
L 341.456781 288.430125 
z
" style="fill:#43a2ca;opacity:0.8;"/>
   </g>
   <g id="patch_98">
    <path clip-path="url(#pdf16e5a2d6)" d="M 347.925439 288.430125 
L 352.668303 288.430125 
L 352.668303 288.430125 
L 347.925439 288.430125 
z
" style="fill:#43a2ca;opacity:0.8;"/>
   </g>
   <g id="patch_99">
    <path clip-path="url(#pdf16e5a2d6)" d="M 354.394096 288.430125 
L 359.13696 288.430125 
L 359.13696 288.430125 
L 354.394096 288.430125 
z
" style="fill:#43a2ca;opacity:0.8;"/>
   </g>
   <g id="patch_100">
    <path clip-path="url(#pdf16e5a2d6)" d="M 360.862754 288.430125 
L 365.605617 288.430125 
L 365.605617 288.430125 
L 360.862754 288.430125 
z
" style="fill:#43a2ca;opacity:0.8;"/>
   </g>
   <g id="patch_101">
    <path clip-path="url(#pdf16e5a2d6)" d="M 367.331411 288.430125 
L 372.074275 288.430125 
L 372.074275 288.430125 
L 367.331411 288.430125 
z
" style="fill:#43a2ca;opacity:0.8;"/>
   </g>
   <g id="patch_102">
    <path clip-path="url(#pdf16e5a2d6)" d="M 373.800068 288.430125 
L 378.542932 288.430125 
L 378.542932 266.391864 
L 373.800068 266.391864 
z
" style="fill:#43a2ca;opacity:0.8;"/>
   </g>
   <g id="matplotlib.axis_1">
    <g id="xtick_1">
     <g id="line2d_1">
      <defs>
       <path d="M 0 0 
L 0 3.5 
" id="m861b0abe89" style="stroke:#000000;stroke-width:0.8;"/>
      </defs>
      <g>
       <use style="stroke:#000000;stroke-width:0.8;" x="59.135238" xlink:href="#m861b0abe89" y="288.430125"/>
      </g>
     </g>
     <g id="text_1">
      <!-- −0.3 -->
      <defs>
       <path d="M 10.59375 35.5 
L 73.1875 35.5 
L 73.1875 27.203125 
L 10.59375 27.203125 
z
" id="DejaVuSans-8722"/>
       <path d="M 31.78125 66.40625 
Q 24.171875 66.40625 20.328125 58.90625 
Q 16.5 51.421875 16.5 36.375 
Q 16.5 21.390625 20.328125 13.890625 
Q 24.171875 6.390625 31.78125 6.390625 
Q 39.453125 6.390625 43.28125 13.890625 
Q 47.125 21.390625 47.125 36.375 
Q 47.125 51.421875 43.28125 58.90625 
Q 39.453125 66.40625 31.78125 66.40625 
z
M 31.78125 74.21875 
Q 44.046875 74.21875 50.515625 64.515625 
Q 56.984375 54.828125 56.984375 36.375 
Q 56.984375 17.96875 50.515625 8.265625 
Q 44.046875 -1.421875 31.78125 -1.421875 
Q 19.53125 -1.421875 13.0625 8.265625 
Q 6.59375 17.96875 6.59375 36.375 
Q 6.59375 54.828125 13.0625 64.515625 
Q 19.53125 74.21875 31.78125 74.21875 
z
" id="DejaVuSans-48"/>
       <path d="M 10.6875 12.40625 
L 21 12.40625 
L 21 0 
L 10.6875 0 
z
" id="DejaVuSans-46"/>
       <path d="M 40.578125 39.3125 
Q 47.65625 37.796875 51.625 33 
Q 55.609375 28.21875 55.609375 21.1875 
Q 55.609375 10.40625 48.1875 4.484375 
Q 40.765625 -1.421875 27.09375 -1.421875 
Q 22.515625 -1.421875 17.65625 -0.515625 
Q 12.796875 0.390625 7.625 2.203125 
L 7.625 11.71875 
Q 11.71875 9.328125 16.59375 8.109375 
Q 21.484375 6.890625 26.8125 6.890625 
Q 36.078125 6.890625 40.9375 10.546875 
Q 45.796875 14.203125 45.796875 21.1875 
Q 45.796875 27.640625 41.28125 31.265625 
Q 36.765625 34.90625 28.71875 34.90625 
L 20.21875 34.90625 
L 20.21875 43.015625 
L 29.109375 43.015625 
Q 36.375 43.015625 40.234375 45.921875 
Q 44.09375 48.828125 44.09375 54.296875 
Q 44.09375 59.90625 40.109375 62.90625 
Q 36.140625 65.921875 28.71875 65.921875 
Q 24.65625 65.921875 20.015625 65.03125 
Q 15.375 64.15625 9.8125 62.3125 
L 9.8125 71.09375 
Q 15.4375 72.65625 20.34375 73.4375 
Q 25.25 74.21875 29.59375 74.21875 
Q 40.828125 74.21875 47.359375 69.109375 
Q 53.90625 64.015625 53.90625 55.328125 
Q 53.90625 49.265625 50.4375 45.09375 
Q 46.96875 40.921875 40.578125 39.3125 
z
" id="DejaVuSans-51"/>
      </defs>
      <g transform="translate(46.993832 303.028562)scale(0.1 -0.1)">
       <use xlink:href="#DejaVuSans-8722"/>
       <use x="83.789062" xlink:href="#DejaVuSans-48"/>
       <use x="147.412109" xlink:href="#DejaVuSans-46"/>
       <use x="179.199219" xlink:href="#DejaVuSans-51"/>
      </g>
     </g>
    </g>
    <g id="xtick_2">
     <g id="line2d_2">
      <g>
       <use style="stroke:#000000;stroke-width:0.8;" x="118.97054" xlink:href="#m861b0abe89" y="288.430125"/>
      </g>
     </g>
     <g id="text_2">
      <!-- −0.2 -->
      <defs>
       <path d="M 19.1875 8.296875 
L 53.609375 8.296875 
L 53.609375 0 
L 7.328125 0 
L 7.328125 8.296875 
Q 12.9375 14.109375 22.625 23.890625 
Q 32.328125 33.6875 34.8125 36.53125 
Q 39.546875 41.84375 41.421875 45.53125 
Q 43.3125 49.21875 43.3125 52.78125 
Q 43.3125 58.59375 39.234375 62.25 
Q 35.15625 65.921875 28.609375 65.921875 
Q 23.96875 65.921875 18.8125 64.3125 
Q 13.671875 62.703125 7.8125 59.421875 
L 7.8125 69.390625 
Q 13.765625 71.78125 18.9375 73 
Q 24.125 74.21875 28.421875 74.21875 
Q 39.75 74.21875 46.484375 68.546875 
Q 53.21875 62.890625 53.21875 53.421875 
Q 53.21875 48.921875 51.53125 44.890625 
Q 49.859375 40.875 45.40625 35.40625 
Q 44.1875 33.984375 37.640625 27.21875 
Q 31.109375 20.453125 19.1875 8.296875 
z
" id="DejaVuSans-50"/>
      </defs>
      <g transform="translate(106.829134 303.028562)scale(0.1 -0.1)">
       <use xlink:href="#DejaVuSans-8722"/>
       <use x="83.789062" xlink:href="#DejaVuSans-48"/>
       <use x="147.412109" xlink:href="#DejaVuSans-46"/>
       <use x="179.199219" xlink:href="#DejaVuSans-50"/>
      </g>
     </g>
    </g>
    <g id="xtick_3">
     <g id="line2d_3">
      <g>
       <use style="stroke:#000000;stroke-width:0.8;" x="178.805842" xlink:href="#m861b0abe89" y="288.430125"/>
      </g>
     </g>
     <g id="text_3">
      <!-- −0.1 -->
      <defs>
       <path d="M 12.40625 8.296875 
L 28.515625 8.296875 
L 28.515625 63.921875 
L 10.984375 60.40625 
L 10.984375 69.390625 
L 28.421875 72.90625 
L 38.28125 72.90625 
L 38.28125 8.296875 
L 54.390625 8.296875 
L 54.390625 0 
L 12.40625 0 
z
" id="DejaVuSans-49"/>
      </defs>
      <g transform="translate(166.664436 303.028562)scale(0.1 -0.1)">
       <use xlink:href="#DejaVuSans-8722"/>
       <use x="83.789062" xlink:href="#DejaVuSans-48"/>
       <use x="147.412109" xlink:href="#DejaVuSans-46"/>
       <use x="179.199219" xlink:href="#DejaVuSans-49"/>
      </g>
     </g>
    </g>
    <g id="xtick_4">
     <g id="line2d_4">
      <g>
       <use style="stroke:#000000;stroke-width:0.8;" x="238.641145" xlink:href="#m861b0abe89" y="288.430125"/>
      </g>
     </g>
     <g id="text_4">
      <!-- 0.0 -->
      <g transform="translate(230.689582 303.028562)scale(0.1 -0.1)">
       <use xlink:href="#DejaVuSans-48"/>
       <use x="63.623047" xlink:href="#DejaVuSans-46"/>
       <use x="95.410156" xlink:href="#DejaVuSans-48"/>
      </g>
     </g>
    </g>
    <g id="xtick_5">
     <g id="line2d_5">
      <g>
       <use style="stroke:#000000;stroke-width:0.8;" x="298.476447" xlink:href="#m861b0abe89" y="288.430125"/>
      </g>
     </g>
     <g id="text_5">
      <!-- 0.1 -->
      <g transform="translate(290.524884 303.028562)scale(0.1 -0.1)">
       <use xlink:href="#DejaVuSans-48"/>
       <use x="63.623047" xlink:href="#DejaVuSans-46"/>
       <use x="95.410156" xlink:href="#DejaVuSans-49"/>
      </g>
     </g>
    </g>
    <g id="xtick_6">
     <g id="line2d_6">
      <g>
       <use style="stroke:#000000;stroke-width:0.8;" x="358.311749" xlink:href="#m861b0abe89" y="288.430125"/>
      </g>
     </g>
     <g id="text_6">
      <!-- 0.2 -->
      <g transform="translate(350.360187 303.028562)scale(0.1 -0.1)">
       <use xlink:href="#DejaVuSans-48"/>
       <use x="63.623047" xlink:href="#DejaVuSans-46"/>
       <use x="95.410156" xlink:href="#DejaVuSans-50"/>
      </g>
     </g>
    </g>
    <g id="text_7">
     <!-- Rho value -->
     <defs>
      <path d="M 44.390625 34.1875 
Q 47.5625 33.109375 50.5625 29.59375 
Q 53.5625 26.078125 56.59375 19.921875 
L 66.609375 0 
L 56 0 
L 46.6875 18.703125 
Q 43.0625 26.03125 39.671875 28.421875 
Q 36.28125 30.8125 30.421875 30.8125 
L 19.671875 30.8125 
L 19.671875 0 
L 9.8125 0 
L 9.8125 72.90625 
L 32.078125 72.90625 
Q 44.578125 72.90625 50.734375 67.671875 
Q 56.890625 62.453125 56.890625 51.90625 
Q 56.890625 45.015625 53.6875 40.46875 
Q 50.484375 35.9375 44.390625 34.1875 
z
M 19.671875 64.796875 
L 19.671875 38.921875 
L 32.078125 38.921875 
Q 39.203125 38.921875 42.84375 42.21875 
Q 46.484375 45.515625 46.484375 51.90625 
Q 46.484375 58.296875 42.84375 61.546875 
Q 39.203125 64.796875 32.078125 64.796875 
z
" id="DejaVuSans-82"/>
      <path d="M 54.890625 33.015625 
L 54.890625 0 
L 45.90625 0 
L 45.90625 32.71875 
Q 45.90625 40.484375 42.875 44.328125 
Q 39.84375 48.1875 33.796875 48.1875 
Q 26.515625 48.1875 22.3125 43.546875 
Q 18.109375 38.921875 18.109375 30.90625 
L 18.109375 0 
L 9.078125 0 
L 9.078125 75.984375 
L 18.109375 75.984375 
L 18.109375 46.1875 
Q 21.34375 51.125 25.703125 53.5625 
Q 30.078125 56 35.796875 56 
Q 45.21875 56 50.046875 50.171875 
Q 54.890625 44.34375 54.890625 33.015625 
z
" id="DejaVuSans-104"/>
      <path d="M 30.609375 48.390625 
Q 23.390625 48.390625 19.1875 42.75 
Q 14.984375 37.109375 14.984375 27.296875 
Q 14.984375 17.484375 19.15625 11.84375 
Q 23.34375 6.203125 30.609375 6.203125 
Q 37.796875 6.203125 41.984375 11.859375 
Q 46.1875 17.53125 46.1875 27.296875 
Q 46.1875 37.015625 41.984375 42.703125 
Q 37.796875 48.390625 30.609375 48.390625 
z
M 30.609375 56 
Q 42.328125 56 49.015625 48.375 
Q 55.71875 40.765625 55.71875 27.296875 
Q 55.71875 13.875 49.015625 6.21875 
Q 42.328125 -1.421875 30.609375 -1.421875 
Q 18.84375 -1.421875 12.171875 6.21875 
Q 5.515625 13.875 5.515625 27.296875 
Q 5.515625 40.765625 12.171875 48.375 
Q 18.84375 56 30.609375 56 
z
" id="DejaVuSans-111"/>
      <path id="DejaVuSans-32"/>
      <path d="M 2.984375 54.6875 
L 12.5 54.6875 
L 29.59375 8.796875 
L 46.6875 54.6875 
L 56.203125 54.6875 
L 35.6875 0 
L 23.484375 0 
z
" id="DejaVuSans-118"/>
      <path d="M 34.28125 27.484375 
Q 23.390625 27.484375 19.1875 25 
Q 14.984375 22.515625 14.984375 16.5 
Q 14.984375 11.71875 18.140625 8.90625 
Q 21.296875 6.109375 26.703125 6.109375 
Q 34.1875 6.109375 38.703125 11.40625 
Q 43.21875 16.703125 43.21875 25.484375 
L 43.21875 27.484375 
z
M 52.203125 31.203125 
L 52.203125 0 
L 43.21875 0 
L 43.21875 8.296875 
Q 40.140625 3.328125 35.546875 0.953125 
Q 30.953125 -1.421875 24.3125 -1.421875 
Q 15.921875 -1.421875 10.953125 3.296875 
Q 6 8.015625 6 15.921875 
Q 6 25.140625 12.171875 29.828125 
Q 18.359375 34.515625 30.609375 34.515625 
L 43.21875 34.515625 
L 43.21875 35.40625 
Q 43.21875 41.609375 39.140625 45 
Q 35.0625 48.390625 27.6875 48.390625 
Q 23 48.390625 18.546875 47.265625 
Q 14.109375 46.140625 10.015625 43.890625 
L 10.015625 52.203125 
Q 14.9375 54.109375 19.578125 55.046875 
Q 24.21875 56 28.609375 56 
Q 40.484375 56 46.34375 49.84375 
Q 52.203125 43.703125 52.203125 31.203125 
z
" id="DejaVuSans-97"/>
      <path d="M 9.421875 75.984375 
L 18.40625 75.984375 
L 18.40625 0 
L 9.421875 0 
z
" id="DejaVuSans-108"/>
      <path d="M 8.5 21.578125 
L 8.5 54.6875 
L 17.484375 54.6875 
L 17.484375 21.921875 
Q 17.484375 14.15625 20.5 10.265625 
Q 23.53125 6.390625 29.59375 6.390625 
Q 36.859375 6.390625 41.078125 11.03125 
Q 45.3125 15.671875 45.3125 23.6875 
L 45.3125 54.6875 
L 54.296875 54.6875 
L 54.296875 0 
L 45.3125 0 
L 45.3125 8.40625 
Q 42.046875 3.421875 37.71875 1 
Q 33.40625 -1.421875 27.6875 -1.421875 
Q 18.265625 -1.421875 13.375 4.4375 
Q 8.5 10.296875 8.5 21.578125 
z
M 31.109375 56 
z
" id="DejaVuSans-117"/>
      <path d="M 56.203125 29.59375 
L 56.203125 25.203125 
L 14.890625 25.203125 
Q 15.484375 15.921875 20.484375 11.0625 
Q 25.484375 6.203125 34.421875 6.203125 
Q 39.59375 6.203125 44.453125 7.46875 
Q 49.3125 8.734375 54.109375 11.28125 
L 54.109375 2.78125 
Q 49.265625 0.734375 44.1875 -0.34375 
Q 39.109375 -1.421875 33.890625 -1.421875 
Q 20.796875 -1.421875 13.15625 6.1875 
Q 5.515625 13.8125 5.515625 26.8125 
Q 5.515625 40.234375 12.765625 48.109375 
Q 20.015625 56 32.328125 56 
Q 43.359375 56 49.78125 48.890625 
Q 56.203125 41.796875 56.203125 29.59375 
z
M 47.21875 32.234375 
Q 47.125 39.59375 43.09375 43.984375 
Q 39.0625 48.390625 32.421875 48.390625 
Q 24.90625 48.390625 20.390625 44.140625 
Q 15.875 39.890625 15.1875 32.171875 
z
" id="DejaVuSans-101"/>
     </defs>
     <g transform="translate(194.213906 316.706687)scale(0.1 -0.1)">
      <use xlink:href="#DejaVuSans-82"/>
      <use x="69.482422" xlink:href="#DejaVuSans-104"/>
      <use x="132.861328" xlink:href="#DejaVuSans-111"/>
      <use x="194.042969" xlink:href="#DejaVuSans-32"/>
      <use x="225.830078" xlink:href="#DejaVuSans-118"/>
      <use x="285.009766" xlink:href="#DejaVuSans-97"/>
      <use x="346.289062" xlink:href="#DejaVuSans-108"/>
      <use x="374.072266" xlink:href="#DejaVuSans-117"/>
      <use x="437.451172" xlink:href="#DejaVuSans-101"/>
     </g>
    </g>
   </g>
   <g id="matplotlib.axis_2">
    <g id="ytick_1">
     <g id="line2d_7">
      <defs>
       <path d="M 0 0 
L -3.5 0 
" id="mf784f448f4" style="stroke:#000000;stroke-width:0.8;"/>
      </defs>
      <g>
       <use style="stroke:#000000;stroke-width:0.8;" x="40.603125" xlink:href="#mf784f448f4" y="288.430125"/>
      </g>
     </g>
     <g id="text_8">
      <!-- 0 -->
      <g transform="translate(27.240625 292.229344)scale(0.1 -0.1)">
       <use xlink:href="#DejaVuSans-48"/>
      </g>
     </g>
    </g>
    <g id="ytick_2">
     <g id="line2d_8">
      <g>
       <use style="stroke:#000000;stroke-width:0.8;" x="40.603125" xlink:href="#mf784f448f4" y="233.334473"/>
      </g>
     </g>
     <g id="text_9">
      <!-- 5 -->
      <defs>
       <path d="M 10.796875 72.90625 
L 49.515625 72.90625 
L 49.515625 64.59375 
L 19.828125 64.59375 
L 19.828125 46.734375 
Q 21.96875 47.46875 24.109375 47.828125 
Q 26.265625 48.1875 28.421875 48.1875 
Q 40.625 48.1875 47.75 41.5 
Q 54.890625 34.8125 54.890625 23.390625 
Q 54.890625 11.625 47.5625 5.09375 
Q 40.234375 -1.421875 26.90625 -1.421875 
Q 22.3125 -1.421875 17.546875 -0.640625 
Q 12.796875 0.140625 7.71875 1.703125 
L 7.71875 11.625 
Q 12.109375 9.234375 16.796875 8.0625 
Q 21.484375 6.890625 26.703125 6.890625 
Q 35.15625 6.890625 40.078125 11.328125 
Q 45.015625 15.765625 45.015625 23.390625 
Q 45.015625 31 40.078125 35.4375 
Q 35.15625 39.890625 26.703125 39.890625 
Q 22.75 39.890625 18.8125 39.015625 
Q 14.890625 38.140625 10.796875 36.28125 
z
" id="DejaVuSans-53"/>
      </defs>
      <g transform="translate(27.240625 237.133692)scale(0.1 -0.1)">
       <use xlink:href="#DejaVuSans-53"/>
      </g>
     </g>
    </g>
    <g id="ytick_3">
     <g id="line2d_9">
      <g>
       <use style="stroke:#000000;stroke-width:0.8;" x="40.603125" xlink:href="#mf784f448f4" y="178.238821"/>
      </g>
     </g>
     <g id="text_10">
      <!-- 10 -->
      <g transform="translate(20.878125 182.038039)scale(0.1 -0.1)">
       <use xlink:href="#DejaVuSans-49"/>
       <use x="63.623047" xlink:href="#DejaVuSans-48"/>
      </g>
     </g>
    </g>
    <g id="ytick_4">
     <g id="line2d_10">
      <g>
       <use style="stroke:#000000;stroke-width:0.8;" x="40.603125" xlink:href="#mf784f448f4" y="123.143168"/>
      </g>
     </g>
     <g id="text_11">
      <!-- 15 -->
      <g transform="translate(20.878125 126.942387)scale(0.1 -0.1)">
       <use xlink:href="#DejaVuSans-49"/>
       <use x="63.623047" xlink:href="#DejaVuSans-53"/>
      </g>
     </g>
    </g>
    <g id="ytick_5">
     <g id="line2d_11">
      <g>
       <use style="stroke:#000000;stroke-width:0.8;" x="40.603125" xlink:href="#mf784f448f4" y="68.047516"/>
      </g>
     </g>
     <g id="text_12">
      <!-- 20 -->
      <g transform="translate(20.878125 71.846735)scale(0.1 -0.1)">
       <use xlink:href="#DejaVuSans-50"/>
       <use x="63.623047" xlink:href="#DejaVuSans-48"/>
      </g>
     </g>
    </g>
    <g id="text_13">
     <!-- Number of bacteria -->
     <defs>
      <path d="M 9.8125 72.90625 
L 23.09375 72.90625 
L 55.421875 11.921875 
L 55.421875 72.90625 
L 64.984375 72.90625 
L 64.984375 0 
L 51.703125 0 
L 19.390625 60.984375 
L 19.390625 0 
L 9.8125 0 
z
" id="DejaVuSans-78"/>
      <path d="M 52 44.1875 
Q 55.375 50.25 60.0625 53.125 
Q 64.75 56 71.09375 56 
Q 79.640625 56 84.28125 50.015625 
Q 88.921875 44.046875 88.921875 33.015625 
L 88.921875 0 
L 79.890625 0 
L 79.890625 32.71875 
Q 79.890625 40.578125 77.09375 44.375 
Q 74.3125 48.1875 68.609375 48.1875 
Q 61.625 48.1875 57.5625 43.546875 
Q 53.515625 38.921875 53.515625 30.90625 
L 53.515625 0 
L 44.484375 0 
L 44.484375 32.71875 
Q 44.484375 40.625 41.703125 44.40625 
Q 38.921875 48.1875 33.109375 48.1875 
Q 26.21875 48.1875 22.15625 43.53125 
Q 18.109375 38.875 18.109375 30.90625 
L 18.109375 0 
L 9.078125 0 
L 9.078125 54.6875 
L 18.109375 54.6875 
L 18.109375 46.1875 
Q 21.1875 51.21875 25.484375 53.609375 
Q 29.78125 56 35.6875 56 
Q 41.65625 56 45.828125 52.96875 
Q 50 49.953125 52 44.1875 
z
" id="DejaVuSans-109"/>
      <path d="M 48.6875 27.296875 
Q 48.6875 37.203125 44.609375 42.84375 
Q 40.53125 48.484375 33.40625 48.484375 
Q 26.265625 48.484375 22.1875 42.84375 
Q 18.109375 37.203125 18.109375 27.296875 
Q 18.109375 17.390625 22.1875 11.75 
Q 26.265625 6.109375 33.40625 6.109375 
Q 40.53125 6.109375 44.609375 11.75 
Q 48.6875 17.390625 48.6875 27.296875 
z
M 18.109375 46.390625 
Q 20.953125 51.265625 25.265625 53.625 
Q 29.59375 56 35.59375 56 
Q 45.5625 56 51.78125 48.09375 
Q 58.015625 40.1875 58.015625 27.296875 
Q 58.015625 14.40625 51.78125 6.484375 
Q 45.5625 -1.421875 35.59375 -1.421875 
Q 29.59375 -1.421875 25.265625 0.953125 
Q 20.953125 3.328125 18.109375 8.203125 
L 18.109375 0 
L 9.078125 0 
L 9.078125 75.984375 
L 18.109375 75.984375 
z
" id="DejaVuSans-98"/>
      <path d="M 41.109375 46.296875 
Q 39.59375 47.171875 37.8125 47.578125 
Q 36.03125 48 33.890625 48 
Q 26.265625 48 22.1875 43.046875 
Q 18.109375 38.09375 18.109375 28.8125 
L 18.109375 0 
L 9.078125 0 
L 9.078125 54.6875 
L 18.109375 54.6875 
L 18.109375 46.1875 
Q 20.953125 51.171875 25.484375 53.578125 
Q 30.03125 56 36.53125 56 
Q 37.453125 56 38.578125 55.875 
Q 39.703125 55.765625 41.0625 55.515625 
z
" id="DejaVuSans-114"/>
      <path d="M 37.109375 75.984375 
L 37.109375 68.5 
L 28.515625 68.5 
Q 23.6875 68.5 21.796875 66.546875 
Q 19.921875 64.59375 19.921875 59.515625 
L 19.921875 54.6875 
L 34.71875 54.6875 
L 34.71875 47.703125 
L 19.921875 47.703125 
L 19.921875 0 
L 10.890625 0 
L 10.890625 47.703125 
L 2.296875 47.703125 
L 2.296875 54.6875 
L 10.890625 54.6875 
L 10.890625 58.5 
Q 10.890625 67.625 15.140625 71.796875 
Q 19.390625 75.984375 28.609375 75.984375 
z
" id="DejaVuSans-102"/>
      <path d="M 48.78125 52.59375 
L 48.78125 44.1875 
Q 44.96875 46.296875 41.140625 47.34375 
Q 37.3125 48.390625 33.40625 48.390625 
Q 24.65625 48.390625 19.8125 42.84375 
Q 14.984375 37.3125 14.984375 27.296875 
Q 14.984375 17.28125 19.8125 11.734375 
Q 24.65625 6.203125 33.40625 6.203125 
Q 37.3125 6.203125 41.140625 7.25 
Q 44.96875 8.296875 48.78125 10.40625 
L 48.78125 2.09375 
Q 45.015625 0.34375 40.984375 -0.53125 
Q 36.96875 -1.421875 32.421875 -1.421875 
Q 20.0625 -1.421875 12.78125 6.34375 
Q 5.515625 14.109375 5.515625 27.296875 
Q 5.515625 40.671875 12.859375 48.328125 
Q 20.21875 56 33.015625 56 
Q 37.15625 56 41.109375 55.140625 
Q 45.0625 54.296875 48.78125 52.59375 
z
" id="DejaVuSans-99"/>
      <path d="M 18.3125 70.21875 
L 18.3125 54.6875 
L 36.8125 54.6875 
L 36.8125 47.703125 
L 18.3125 47.703125 
L 18.3125 18.015625 
Q 18.3125 11.328125 20.140625 9.421875 
Q 21.96875 7.515625 27.59375 7.515625 
L 36.8125 7.515625 
L 36.8125 0 
L 27.59375 0 
Q 17.1875 0 13.234375 3.875 
Q 9.28125 7.765625 9.28125 18.015625 
L 9.28125 47.703125 
L 2.6875 47.703125 
L 2.6875 54.6875 
L 9.28125 54.6875 
L 9.28125 70.21875 
z
" id="DejaVuSans-116"/>
      <path d="M 9.421875 54.6875 
L 18.40625 54.6875 
L 18.40625 0 
L 9.421875 0 
z
M 9.421875 75.984375 
L 18.40625 75.984375 
L 18.40625 64.59375 
L 9.421875 64.59375 
z
" id="DejaVuSans-105"/>
     </defs>
     <g transform="translate(14.798438 203.990531)rotate(-90)scale(0.1 -0.1)">
      <use xlink:href="#DejaVuSans-78"/>
      <use x="74.804688" xlink:href="#DejaVuSans-117"/>
      <use x="138.183594" xlink:href="#DejaVuSans-109"/>
      <use x="235.595703" xlink:href="#DejaVuSans-98"/>
      <use x="299.072266" xlink:href="#DejaVuSans-101"/>
      <use x="360.595703" xlink:href="#DejaVuSans-114"/>
      <use x="401.708984" xlink:href="#DejaVuSans-32"/>
      <use x="433.496094" xlink:href="#DejaVuSans-111"/>
      <use x="494.677734" xlink:href="#DejaVuSans-102"/>
      <use x="529.882812" xlink:href="#DejaVuSans-32"/>
      <use x="561.669922" xlink:href="#DejaVuSans-98"/>
      <use x="625.146484" xlink:href="#DejaVuSans-97"/>
      <use x="686.425781" xlink:href="#DejaVuSans-99"/>
      <use x="741.40625" xlink:href="#DejaVuSans-116"/>
      <use x="780.615234" xlink:href="#DejaVuSans-101"/>
      <use x="842.138672" xlink:href="#DejaVuSans-114"/>
      <use x="883.251953" xlink:href="#DejaVuSans-105"/>
      <use x="911.035156" xlink:href="#DejaVuSans-97"/>
     </g>
    </g>
   </g>
   <g id="patch_103">
    <path d="M 40.603125 288.430125 
L 40.603125 22.318125 
" style="fill:none;stroke:#000000;stroke-linecap:square;stroke-linejoin:miter;stroke-width:0.8;"/>
   </g>
   <g id="patch_104">
    <path d="M 397.723125 288.430125 
L 397.723125 22.318125 
" style="fill:none;stroke:#000000;stroke-linecap:square;stroke-linejoin:miter;stroke-width:0.8;"/>
   </g>
   <g id="patch_105">
    <path d="M 40.603125 288.430125 
L 397.723125 288.430125 
" style="fill:none;stroke:#000000;stroke-linecap:square;stroke-linejoin:miter;stroke-width:0.8;"/>
   </g>
   <g id="patch_106">
    <path d="M 40.603125 22.318125 
L 397.723125 22.318125 
" style="fill:none;stroke:#000000;stroke-linecap:square;stroke-linejoin:miter;stroke-width:0.8;"/>
   </g>
   <g id="text_14">
    <!-- Real tags vs. Mixed tags at expose or control -->
    <defs>
     <path d="M 45.40625 27.984375 
Q 45.40625 37.75 41.375 43.109375 
Q 37.359375 48.484375 30.078125 48.484375 
Q 22.859375 48.484375 18.828125 43.109375 
Q 14.796875 37.75 14.796875 27.984375 
Q 14.796875 18.265625 18.828125 12.890625 
Q 22.859375 7.515625 30.078125 7.515625 
Q 37.359375 7.515625 41.375 12.890625 
Q 45.40625 18.265625 45.40625 27.984375 
z
M 54.390625 6.78125 
Q 54.390625 -7.171875 48.1875 -13.984375 
Q 42 -20.796875 29.203125 -20.796875 
Q 24.46875 -20.796875 20.265625 -20.09375 
Q 16.0625 -19.390625 12.109375 -17.921875 
L 12.109375 -9.1875 
Q 16.0625 -11.328125 19.921875 -12.34375 
Q 23.78125 -13.375 27.78125 -13.375 
Q 36.625 -13.375 41.015625 -8.765625 
Q 45.40625 -4.15625 45.40625 5.171875 
L 45.40625 9.625 
Q 42.625 4.78125 38.28125 2.390625 
Q 33.9375 0 27.875 0 
Q 17.828125 0 11.671875 7.65625 
Q 5.515625 15.328125 5.515625 27.984375 
Q 5.515625 40.671875 11.671875 48.328125 
Q 17.828125 56 27.875 56 
Q 33.9375 56 38.28125 53.609375 
Q 42.625 51.21875 45.40625 46.390625 
L 45.40625 54.6875 
L 54.390625 54.6875 
z
" id="DejaVuSans-103"/>
     <path d="M 44.28125 53.078125 
L 44.28125 44.578125 
Q 40.484375 46.53125 36.375 47.5 
Q 32.28125 48.484375 27.875 48.484375 
Q 21.1875 48.484375 17.84375 46.4375 
Q 14.5 44.390625 14.5 40.28125 
Q 14.5 37.15625 16.890625 35.375 
Q 19.28125 33.59375 26.515625 31.984375 
L 29.59375 31.296875 
Q 39.15625 29.25 43.1875 25.515625 
Q 47.21875 21.78125 47.21875 15.09375 
Q 47.21875 7.46875 41.1875 3.015625 
Q 35.15625 -1.421875 24.609375 -1.421875 
Q 20.21875 -1.421875 15.453125 -0.5625 
Q 10.6875 0.296875 5.421875 2 
L 5.421875 11.28125 
Q 10.40625 8.6875 15.234375 7.390625 
Q 20.0625 6.109375 24.8125 6.109375 
Q 31.15625 6.109375 34.5625 8.28125 
Q 37.984375 10.453125 37.984375 14.40625 
Q 37.984375 18.0625 35.515625 20.015625 
Q 33.0625 21.96875 24.703125 23.78125 
L 21.578125 24.515625 
Q 13.234375 26.265625 9.515625 29.90625 
Q 5.8125 33.546875 5.8125 39.890625 
Q 5.8125 47.609375 11.28125 51.796875 
Q 16.75 56 26.8125 56 
Q 31.78125 56 36.171875 55.265625 
Q 40.578125 54.546875 44.28125 53.078125 
z
" id="DejaVuSans-115"/>
     <path d="M 9.8125 72.90625 
L 24.515625 72.90625 
L 43.109375 23.296875 
L 61.8125 72.90625 
L 76.515625 72.90625 
L 76.515625 0 
L 66.890625 0 
L 66.890625 64.015625 
L 48.09375 14.015625 
L 38.1875 14.015625 
L 19.390625 64.015625 
L 19.390625 0 
L 9.8125 0 
z
" id="DejaVuSans-77"/>
     <path d="M 54.890625 54.6875 
L 35.109375 28.078125 
L 55.90625 0 
L 45.3125 0 
L 29.390625 21.484375 
L 13.484375 0 
L 2.875 0 
L 24.125 28.609375 
L 4.6875 54.6875 
L 15.28125 54.6875 
L 29.78125 35.203125 
L 44.28125 54.6875 
z
" id="DejaVuSans-120"/>
     <path d="M 45.40625 46.390625 
L 45.40625 75.984375 
L 54.390625 75.984375 
L 54.390625 0 
L 45.40625 0 
L 45.40625 8.203125 
Q 42.578125 3.328125 38.25 0.953125 
Q 33.9375 -1.421875 27.875 -1.421875 
Q 17.96875 -1.421875 11.734375 6.484375 
Q 5.515625 14.40625 5.515625 27.296875 
Q 5.515625 40.1875 11.734375 48.09375 
Q 17.96875 56 27.875 56 
Q 33.9375 56 38.25 53.625 
Q 42.578125 51.265625 45.40625 46.390625 
z
M 14.796875 27.296875 
Q 14.796875 17.390625 18.875 11.75 
Q 22.953125 6.109375 30.078125 6.109375 
Q 37.203125 6.109375 41.296875 11.75 
Q 45.40625 17.390625 45.40625 27.296875 
Q 45.40625 37.203125 41.296875 42.84375 
Q 37.203125 48.484375 30.078125 48.484375 
Q 22.953125 48.484375 18.875 42.84375 
Q 14.796875 37.203125 14.796875 27.296875 
z
" id="DejaVuSans-100"/>
     <path d="M 18.109375 8.203125 
L 18.109375 -20.796875 
L 9.078125 -20.796875 
L 9.078125 54.6875 
L 18.109375 54.6875 
L 18.109375 46.390625 
Q 20.953125 51.265625 25.265625 53.625 
Q 29.59375 56 35.59375 56 
Q 45.5625 56 51.78125 48.09375 
Q 58.015625 40.1875 58.015625 27.296875 
Q 58.015625 14.40625 51.78125 6.484375 
Q 45.5625 -1.421875 35.59375 -1.421875 
Q 29.59375 -1.421875 25.265625 0.953125 
Q 20.953125 3.328125 18.109375 8.203125 
z
M 48.6875 27.296875 
Q 48.6875 37.203125 44.609375 42.84375 
Q 40.53125 48.484375 33.40625 48.484375 
Q 26.265625 48.484375 22.1875 42.84375 
Q 18.109375 37.203125 18.109375 27.296875 
Q 18.109375 17.390625 22.1875 11.75 
Q 26.265625 6.109375 33.40625 6.109375 
Q 40.53125 6.109375 44.609375 11.75 
Q 48.6875 17.390625 48.6875 27.296875 
z
" id="DejaVuSans-112"/>
     <path d="M 54.890625 33.015625 
L 54.890625 0 
L 45.90625 0 
L 45.90625 32.71875 
Q 45.90625 40.484375 42.875 44.328125 
Q 39.84375 48.1875 33.796875 48.1875 
Q 26.515625 48.1875 22.3125 43.546875 
Q 18.109375 38.921875 18.109375 30.90625 
L 18.109375 0 
L 9.078125 0 
L 9.078125 54.6875 
L 18.109375 54.6875 
L 18.109375 46.1875 
Q 21.34375 51.125 25.703125 53.5625 
Q 30.078125 56 35.796875 56 
Q 45.21875 56 50.046875 50.171875 
Q 54.890625 44.34375 54.890625 33.015625 
z
" id="DejaVuSans-110"/>
    </defs>
    <g transform="translate(83.668125 16.318125)scale(0.12 -0.12)">
     <use xlink:href="#DejaVuSans-82"/>
     <use x="69.419922" xlink:href="#DejaVuSans-101"/>
     <use x="130.943359" xlink:href="#DejaVuSans-97"/>
     <use x="192.222656" xlink:href="#DejaVuSans-108"/>
     <use x="220.005859" xlink:href="#DejaVuSans-32"/>
     <use x="251.792969" xlink:href="#DejaVuSans-116"/>
     <use x="291.001953" xlink:href="#DejaVuSans-97"/>
     <use x="352.28125" xlink:href="#DejaVuSans-103"/>
     <use x="415.757812" xlink:href="#DejaVuSans-115"/>
     <use x="467.857422" xlink:href="#DejaVuSans-32"/>
     <use x="499.644531" xlink:href="#DejaVuSans-118"/>
     <use x="558.824219" xlink:href="#DejaVuSans-115"/>
     <use x="610.923828" xlink:href="#DejaVuSans-46"/>
     <use x="642.710938" xlink:href="#DejaVuSans-32"/>
     <use x="674.498047" xlink:href="#DejaVuSans-77"/>
     <use x="760.777344" xlink:href="#DejaVuSans-105"/>
     <use x="788.560547" xlink:href="#DejaVuSans-120"/>
     <use x="847.693359" xlink:href="#DejaVuSans-101"/>
     <use x="909.216797" xlink:href="#DejaVuSans-100"/>
     <use x="972.693359" xlink:href="#DejaVuSans-32"/>
     <use x="1004.480469" xlink:href="#DejaVuSans-116"/>
     <use x="1043.689453" xlink:href="#DejaVuSans-97"/>
     <use x="1104.96875" xlink:href="#DejaVuSans-103"/>
     <use x="1168.445312" xlink:href="#DejaVuSans-115"/>
     <use x="1220.544922" xlink:href="#DejaVuSans-32"/>
     <use x="1252.332031" xlink:href="#DejaVuSans-97"/>
     <use x="1313.611328" xlink:href="#DejaVuSans-116"/>
     <use x="1352.820312" xlink:href="#DejaVuSans-32"/>
     <use x="1384.607422" xlink:href="#DejaVuSans-101"/>
     <use x="1446.115234" xlink:href="#DejaVuSans-120"/>
     <use x="1505.294922" xlink:href="#DejaVuSans-112"/>
     <use x="1568.771484" xlink:href="#DejaVuSans-111"/>
     <use x="1629.953125" xlink:href="#DejaVuSans-115"/>
     <use x="1682.052734" xlink:href="#DejaVuSans-101"/>
     <use x="1743.576172" xlink:href="#DejaVuSans-32"/>
     <use x="1775.363281" xlink:href="#DejaVuSans-111"/>
     <use x="1836.544922" xlink:href="#DejaVuSans-114"/>
     <use x="1877.658203" xlink:href="#DejaVuSans-32"/>
     <use x="1909.445312" xlink:href="#DejaVuSans-99"/>
     <use x="1964.425781" xlink:href="#DejaVuSans-111"/>
     <use x="2025.607422" xlink:href="#DejaVuSans-110"/>
     <use x="2088.986328" xlink:href="#DejaVuSans-116"/>
     <use x="2128.195312" xlink:href="#DejaVuSans-114"/>
     <use x="2169.277344" xlink:href="#DejaVuSans-111"/>
     <use x="2230.458984" xlink:href="#DejaVuSans-108"/>
    </g>
   </g>
   <g id="legend_1">
    <g id="patch_107">
     <path d="M 303.004375 59.674375 
L 390.723125 59.674375 
Q 392.723125 59.674375 392.723125 57.674375 
L 392.723125 29.318125 
Q 392.723125 27.318125 390.723125 27.318125 
L 303.004375 27.318125 
Q 301.004375 27.318125 301.004375 29.318125 
L 301.004375 57.674375 
Q 301.004375 59.674375 303.004375 59.674375 
z
" style="fill:#ffffff;opacity:0.8;stroke:#cccccc;stroke-linejoin:miter;"/>
    </g>
    <g id="patch_108">
     <path d="M 305.004375 38.916562 
L 325.004375 38.916562 
L 325.004375 31.916562 
L 305.004375 31.916562 
z
" style="fill:#d95f0e;opacity:0.5;"/>
    </g>
    <g id="text_15">
     <!-- mixed tags -->
     <g transform="translate(333.004375 38.916562)scale(0.1 -0.1)">
      <use xlink:href="#DejaVuSans-109"/>
      <use x="97.412109" xlink:href="#DejaVuSans-105"/>
      <use x="125.195312" xlink:href="#DejaVuSans-120"/>
      <use x="184.328125" xlink:href="#DejaVuSans-101"/>
      <use x="245.851562" xlink:href="#DejaVuSans-100"/>
      <use x="309.328125" xlink:href="#DejaVuSans-32"/>
      <use x="341.115234" xlink:href="#DejaVuSans-116"/>
      <use x="380.324219" xlink:href="#DejaVuSans-97"/>
      <use x="441.603516" xlink:href="#DejaVuSans-103"/>
      <use x="505.080078" xlink:href="#DejaVuSans-115"/>
     </g>
    </g>
    <g id="patch_109">
     <path d="M 305.004375 53.594687 
L 325.004375 53.594687 
L 325.004375 46.594687 
L 305.004375 46.594687 
z
" style="fill:#43a2ca;opacity:0.8;"/>
    </g>
    <g id="text_16">
     <!-- real tags -->
     <g transform="translate(333.004375 53.594687)scale(0.1 -0.1)">
      <use xlink:href="#DejaVuSans-114"/>
      <use x="41.082031" xlink:href="#DejaVuSans-101"/>
      <use x="102.605469" xlink:href="#DejaVuSans-97"/>
      <use x="163.884766" xlink:href="#DejaVuSans-108"/>
      <use x="191.667969" xlink:href="#DejaVuSans-32"/>
      <use x="223.455078" xlink:href="#DejaVuSans-116"/>
      <use x="262.664062" xlink:href="#DejaVuSans-97"/>
      <use x="323.943359" xlink:href="#DejaVuSans-103"/>
      <use x="387.419922" xlink:href="#DejaVuSans-115"/>
     </g>
    </g>
   </g>
  </g>
 </g>
 <defs>
  <clipPath id="pdf16e5a2d6">
   <rect height="266.112" width="357.12" x="40.603125" y="22.318125"/>
  </clipPath>
 </defs>
</svg>
