<?xml version="1.0" encoding="utf-8" standalone="no"?>
<!DOCTYPE svg PUBLIC "-//W3C//DTD SVG 1.1//EN"
  "http://www.w3.org/Graphics/SVG/1.1/DTD/svg11.dtd">
<!-- Created with matplotlib (https://matplotlib.org/) -->
<svg height="446.4pt" version="1.1" viewBox="0 0 590.4 446.4" width="590.4pt" xmlns="http://www.w3.org/2000/svg" xmlns:xlink="http://www.w3.org/1999/xlink">
 <defs>
  <style type="text/css">
*{stroke-linecap:butt;stroke-linejoin:round;}
  </style>
 </defs>
 <g id="figure_1">
  <g id="patch_1">
   <path d="M 0 446.4 
L 590.4 446.4 
L 590.4 0 
L 0 0 
z
" style="fill:#ffffff;"/>
  </g>
  <g id="patch_2">
   <path d="M 7.2 439.2 
L 583.2 439.2 
L 583.2 7.2 
L 7.2 7.2 
z
" style="fill:#ffffff;"/>
  </g>
  <g id="pane3d_1">
   <g id="patch_3">
    <path d="M 522.461406 144.519011 
L 396.919257 39.736047 
L 392.405298 242.62887 
L 511.019792 359.164506 
" style="fill:#f2f2f2;opacity:0.5;stroke:#f2f2f2;stroke-linejoin:miter;"/>
   </g>
  </g>
  <g id="pane3d_2">
   <g id="patch_4">
    <path d="M 396.919257 39.736047 
L 95.328816 75.819544 
L 105.599816 282.872578 
L 392.405298 242.62887 
" style="fill:#e6e6e6;opacity:0.5;stroke:#e6e6e6;stroke-linejoin:miter;"/>
   </g>
  </g>
  <g id="pane3d_3">
   <g id="patch_5">
    <path d="M 511.019792 359.164506 
L 202.883681 406.645207 
L 105.599816 282.872578 
L 392.405298 242.62887 
" style="fill:#ececec;opacity:0.5;stroke:#ececec;stroke-linejoin:miter;"/>
   </g>
  </g>
  <g id="axis3d_1">
   <g id="line2d_1">
    <path d="M 511.019792 359.164506 
L 202.883681 406.645207 
" style="fill:none;stroke:#000000;stroke-linecap:square;stroke-width:0.8;"/>
   </g>
   <g id="text_1">
    <!-- 1st eigenvector -->
    <defs>
     <path d="M 12.40625 8.296875 
L 28.515625 8.296875 
L 28.515625 63.921875 
L 10.984375 60.40625 
L 10.984375 69.390625 
L 28.421875 72.90625 
L 38.28125 72.90625 
L 38.28125 8.296875 
L 54.390625 8.296875 
L 54.390625 0 
L 12.40625 0 
z
" id="DejaVuSans-49"/>
     <path d="M 44.28125 53.078125 
L 44.28125 44.578125 
Q 40.484375 46.53125 36.375 47.5 
Q 32.28125 48.484375 27.875 48.484375 
Q 21.1875 48.484375 17.84375 46.4375 
Q 14.5 44.390625 14.5 40.28125 
Q 14.5 37.15625 16.890625 35.375 
Q 19.28125 33.59375 26.515625 31.984375 
L 29.59375 31.296875 
Q 39.15625 29.25 43.1875 25.515625 
Q 47.21875 21.78125 47.21875 15.09375 
Q 47.21875 7.46875 41.1875 3.015625 
Q 35.15625 -1.421875 24.609375 -1.421875 
Q 20.21875 -1.421875 15.453125 -0.5625 
Q 10.6875 0.296875 5.421875 2 
L 5.421875 11.28125 
Q 10.40625 8.6875 15.234375 7.390625 
Q 20.0625 6.109375 24.8125 6.109375 
Q 31.15625 6.109375 34.5625 8.28125 
Q 37.984375 10.453125 37.984375 14.40625 
Q 37.984375 18.0625 35.515625 20.015625 
Q 33.0625 21.96875 24.703125 23.78125 
L 21.578125 24.515625 
Q 13.234375 26.265625 9.515625 29.90625 
Q 5.8125 33.546875 5.8125 39.890625 
Q 5.8125 47.609375 11.28125 51.796875 
Q 16.75 56 26.8125 56 
Q 31.78125 56 36.171875 55.265625 
Q 40.578125 54.546875 44.28125 53.078125 
z
" id="DejaVuSans-115"/>
     <path d="M 18.3125 70.21875 
L 18.3125 54.6875 
L 36.8125 54.6875 
L 36.8125 47.703125 
L 18.3125 47.703125 
L 18.3125 18.015625 
Q 18.3125 11.328125 20.140625 9.421875 
Q 21.96875 7.515625 27.59375 7.515625 
L 36.8125 7.515625 
L 36.8125 0 
L 27.59375 0 
Q 17.1875 0 13.234375 3.875 
Q 9.28125 7.765625 9.28125 18.015625 
L 9.28125 47.703125 
L 2.6875 47.703125 
L 2.6875 54.6875 
L 9.28125 54.6875 
L 9.28125 70.21875 
z
" id="DejaVuSans-116"/>
     <path id="DejaVuSans-32"/>
     <path d="M 56.203125 29.59375 
L 56.203125 25.203125 
L 14.890625 25.203125 
Q 15.484375 15.921875 20.484375 11.0625 
Q 25.484375 6.203125 34.421875 6.203125 
Q 39.59375 6.203125 44.453125 7.46875 
Q 49.3125 8.734375 54.109375 11.28125 
L 54.109375 2.78125 
Q 49.265625 0.734375 44.1875 -0.34375 
Q 39.109375 -1.421875 33.890625 -1.421875 
Q 20.796875 -1.421875 13.15625 6.1875 
Q 5.515625 13.8125 5.515625 26.8125 
Q 5.515625 40.234375 12.765625 48.109375 
Q 20.015625 56 32.328125 56 
Q 43.359375 56 49.78125 48.890625 
Q 56.203125 41.796875 56.203125 29.59375 
z
M 47.21875 32.234375 
Q 47.125 39.59375 43.09375 43.984375 
Q 39.0625 48.390625 32.421875 48.390625 
Q 24.90625 48.390625 20.390625 44.140625 
Q 15.875 39.890625 15.1875 32.171875 
z
" id="DejaVuSans-101"/>
     <path d="M 9.421875 54.6875 
L 18.40625 54.6875 
L 18.40625 0 
L 9.421875 0 
z
M 9.421875 75.984375 
L 18.40625 75.984375 
L 18.40625 64.59375 
L 9.421875 64.59375 
z
" id="DejaVuSans-105"/>
     <path d="M 45.40625 27.984375 
Q 45.40625 37.75 41.375 43.109375 
Q 37.359375 48.484375 30.078125 48.484375 
Q 22.859375 48.484375 18.828125 43.109375 
Q 14.796875 37.75 14.796875 27.984375 
Q 14.796875 18.265625 18.828125 12.890625 
Q 22.859375 7.515625 30.078125 7.515625 
Q 37.359375 7.515625 41.375 12.890625 
Q 45.40625 18.265625 45.40625 27.984375 
z
M 54.390625 6.78125 
Q 54.390625 -7.171875 48.1875 -13.984375 
Q 42 -20.796875 29.203125 -20.796875 
Q 24.46875 -20.796875 20.265625 -20.09375 
Q 16.0625 -19.390625 12.109375 -17.921875 
L 12.109375 -9.1875 
Q 16.0625 -11.328125 19.921875 -12.34375 
Q 23.78125 -13.375 27.78125 -13.375 
Q 36.625 -13.375 41.015625 -8.765625 
Q 45.40625 -4.15625 45.40625 5.171875 
L 45.40625 9.625 
Q 42.625 4.78125 38.28125 2.390625 
Q 33.9375 0 27.875 0 
Q 17.828125 0 11.671875 7.65625 
Q 5.515625 15.328125 5.515625 27.984375 
Q 5.515625 40.671875 11.671875 48.328125 
Q 17.828125 56 27.875 56 
Q 33.9375 56 38.28125 53.609375 
Q 42.625 51.21875 45.40625 46.390625 
L 45.40625 54.6875 
L 54.390625 54.6875 
z
" id="DejaVuSans-103"/>
     <path d="M 54.890625 33.015625 
L 54.890625 0 
L 45.90625 0 
L 45.90625 32.71875 
Q 45.90625 40.484375 42.875 44.328125 
Q 39.84375 48.1875 33.796875 48.1875 
Q 26.515625 48.1875 22.3125 43.546875 
Q 18.109375 38.921875 18.109375 30.90625 
L 18.109375 0 
L 9.078125 0 
L 9.078125 54.6875 
L 18.109375 54.6875 
L 18.109375 46.1875 
Q 21.34375 51.125 25.703125 53.5625 
Q 30.078125 56 35.796875 56 
Q 45.21875 56 50.046875 50.171875 
Q 54.890625 44.34375 54.890625 33.015625 
z
" id="DejaVuSans-110"/>
     <path d="M 2.984375 54.6875 
L 12.5 54.6875 
L 29.59375 8.796875 
L 46.6875 54.6875 
L 56.203125 54.6875 
L 35.6875 0 
L 23.484375 0 
z
" id="DejaVuSans-118"/>
     <path d="M 48.78125 52.59375 
L 48.78125 44.1875 
Q 44.96875 46.296875 41.140625 47.34375 
Q 37.3125 48.390625 33.40625 48.390625 
Q 24.65625 48.390625 19.8125 42.84375 
Q 14.984375 37.3125 14.984375 27.296875 
Q 14.984375 17.28125 19.8125 11.734375 
Q 24.65625 6.203125 33.40625 6.203125 
Q 37.3125 6.203125 41.140625 7.25 
Q 44.96875 8.296875 48.78125 10.40625 
L 48.78125 2.09375 
Q 45.015625 0.34375 40.984375 -0.53125 
Q 36.96875 -1.421875 32.421875 -1.421875 
Q 20.0625 -1.421875 12.78125 6.34375 
Q 5.515625 14.109375 5.515625 27.296875 
Q 5.515625 40.671875 12.859375 48.328125 
Q 20.21875 56 33.015625 56 
Q 37.15625 56 41.109375 55.140625 
Q 45.0625 54.296875 48.78125 52.59375 
z
" id="DejaVuSans-99"/>
     <path d="M 30.609375 48.390625 
Q 23.390625 48.390625 19.1875 42.75 
Q 14.984375 37.109375 14.984375 27.296875 
Q 14.984375 17.484375 19.15625 11.84375 
Q 23.34375 6.203125 30.609375 6.203125 
Q 37.796875 6.203125 41.984375 11.859375 
Q 46.1875 17.53125 46.1875 27.296875 
Q 46.1875 37.015625 41.984375 42.703125 
Q 37.796875 48.390625 30.609375 48.390625 
z
M 30.609375 56 
Q 42.328125 56 49.015625 48.375 
Q 55.71875 40.765625 55.71875 27.296875 
Q 55.71875 13.875 49.015625 6.21875 
Q 42.328125 -1.421875 30.609375 -1.421875 
Q 18.84375 -1.421875 12.171875 6.21875 
Q 5.515625 13.875 5.515625 27.296875 
Q 5.515625 40.765625 12.171875 48.375 
Q 18.84375 56 30.609375 56 
z
" id="DejaVuSans-111"/>
     <path d="M 41.109375 46.296875 
Q 39.59375 47.171875 37.8125 47.578125 
Q 36.03125 48 33.890625 48 
Q 26.265625 48 22.1875 43.046875 
Q 18.109375 38.09375 18.109375 28.8125 
L 18.109375 0 
L 9.078125 0 
L 9.078125 54.6875 
L 18.109375 54.6875 
L 18.109375 46.1875 
Q 20.953125 51.171875 25.484375 53.578125 
Q 30.03125 56 36.53125 56 
Q 37.453125 56 38.578125 55.875 
Q 39.703125 55.765625 41.0625 55.515625 
z
" id="DejaVuSans-114"/>
    </defs>
    <g transform="translate(332.116619 423.296682)rotate(-8.759811)scale(0.1 -0.1)">
     <use xlink:href="#DejaVuSans-49"/>
     <use x="63.623047" xlink:href="#DejaVuSans-115"/>
     <use x="115.722656" xlink:href="#DejaVuSans-116"/>
     <use x="154.931641" xlink:href="#DejaVuSans-32"/>
     <use x="186.71875" xlink:href="#DejaVuSans-101"/>
     <use x="248.242188" xlink:href="#DejaVuSans-105"/>
     <use x="276.025391" xlink:href="#DejaVuSans-103"/>
     <use x="339.501953" xlink:href="#DejaVuSans-101"/>
     <use x="401.025391" xlink:href="#DejaVuSans-110"/>
     <use x="464.404297" xlink:href="#DejaVuSans-118"/>
     <use x="523.583984" xlink:href="#DejaVuSans-101"/>
     <use x="585.107422" xlink:href="#DejaVuSans-99"/>
     <use x="640.087891" xlink:href="#DejaVuSans-116"/>
     <use x="679.296875" xlink:href="#DejaVuSans-111"/>
     <use x="740.478516" xlink:href="#DejaVuSans-114"/>
    </g>
   </g>
   <g id="Line3DCollection_1">
    <path d="M 477.021501 364.403304 
L 360.690381 247.079015 
L 363.613301 43.720906 
" style="fill:none;stroke:#b0b0b0;stroke-width:0.8;"/>
    <path d="M 440.511822 370.029081 
L 326.652155 251.855159 
L 327.855358 47.99913 
" style="fill:none;stroke:#b0b0b0;stroke-width:0.8;"/>
    <path d="M 403.72637 375.697352 
L 292.377139 256.664529 
L 291.83597 52.308635 
" style="fill:none;stroke:#b0b0b0;stroke-width:0.8;"/>
    <path d="M 366.662012 381.4086 
L 257.862855 261.507473 
L 255.552259 56.649765 
" style="fill:none;stroke:#b0b0b0;stroke-width:0.8;"/>
    <path d="M 329.315561 387.163316 
L 223.106788 266.384343 
L 219.001306 61.022868 
" style="fill:none;stroke:#b0b0b0;stroke-width:0.8;"/>
    <path d="M 291.683786 392.961997 
L 188.106388 271.295497 
L 182.180147 65.428301 
" style="fill:none;stroke:#b0b0b0;stroke-width:0.8;"/>
    <path d="M 253.763404 398.805149 
L 152.859069 276.241297 
L 145.085775 69.866421 
" style="fill:none;stroke:#b0b0b0;stroke-width:0.8;"/>
    <path d="M 215.551083 404.693287 
L 117.362211 281.222113 
L 107.715137 74.337595 
" style="fill:none;stroke:#b0b0b0;stroke-width:0.8;"/>
   </g>
   <g id="xtick_1">
    <g id="line2d_2">
     <path d="M 476.012298 363.385484 
L 479.044038 366.443108 
" style="fill:none;stroke:#000000;stroke-linecap:square;stroke-width:0.8;"/>
    </g>
   </g>
   <g id="xtick_2">
    <g id="line2d_3">
     <path d="M 439.52377 369.003591 
L 442.491984 372.084274 
" style="fill:none;stroke:#000000;stroke-linecap:square;stroke-width:0.8;"/>
    </g>
   </g>
   <g id="xtick_3">
    <g id="line2d_4">
     <path d="M 402.759819 374.664104 
L 405.663459 377.768109 
" style="fill:none;stroke:#000000;stroke-linecap:square;stroke-width:0.8;"/>
    </g>
   </g>
   <g id="xtick_4">
    <g id="line2d_5">
     <path d="M 365.717315 380.367506 
L 368.555315 383.495098 
" style="fill:none;stroke:#000000;stroke-linecap:square;stroke-width:0.8;"/>
    </g>
   </g>
   <g id="xtick_5">
    <g id="line2d_6">
     <path d="M 328.393081 386.114286 
L 331.164354 389.265735 
" style="fill:none;stroke:#000000;stroke-linecap:square;stroke-width:0.8;"/>
    </g>
   </g>
   <g id="xtick_6">
    <g id="line2d_7">
     <path d="M 290.78389 391.90494 
L 293.487332 395.08052 
" style="fill:none;stroke:#000000;stroke-linecap:square;stroke-width:0.8;"/>
    </g>
   </g>
   <g id="xtick_7">
    <g id="line2d_8">
     <path d="M 252.886466 397.739973 
L 255.520953 400.939963 
" style="fill:none;stroke:#000000;stroke-linecap:square;stroke-width:0.8;"/>
    </g>
   </g>
   <g id="xtick_8">
    <g id="line2d_9">
     <path d="M 214.697483 403.619897 
L 217.26187 406.844579 
" style="fill:none;stroke:#000000;stroke-linecap:square;stroke-width:0.8;"/>
    </g>
   </g>
  </g>
  <g id="axis3d_2">
   <g id="line2d_10">
    <path d="M 105.599816 282.872578 
L 202.883681 406.645207 
" style="fill:none;stroke:#000000;stroke-linecap:square;stroke-width:0.8;"/>
   </g>
   <g id="text_2">
    <!-- 2nd eigenvector -->
    <defs>
     <path d="M 19.1875 8.296875 
L 53.609375 8.296875 
L 53.609375 0 
L 7.328125 0 
L 7.328125 8.296875 
Q 12.9375 14.109375 22.625 23.890625 
Q 32.328125 33.6875 34.8125 36.53125 
Q 39.546875 41.84375 41.421875 45.53125 
Q 43.3125 49.21875 43.3125 52.78125 
Q 43.3125 58.59375 39.234375 62.25 
Q 35.15625 65.921875 28.609375 65.921875 
Q 23.96875 65.921875 18.8125 64.3125 
Q 13.671875 62.703125 7.8125 59.421875 
L 7.8125 69.390625 
Q 13.765625 71.78125 18.9375 73 
Q 24.125 74.21875 28.421875 74.21875 
Q 39.75 74.21875 46.484375 68.546875 
Q 53.21875 62.890625 53.21875 53.421875 
Q 53.21875 48.921875 51.53125 44.890625 
Q 49.859375 40.875 45.40625 35.40625 
Q 44.1875 33.984375 37.640625 27.21875 
Q 31.109375 20.453125 19.1875 8.296875 
z
" id="DejaVuSans-50"/>
     <path d="M 45.40625 46.390625 
L 45.40625 75.984375 
L 54.390625 75.984375 
L 54.390625 0 
L 45.40625 0 
L 45.40625 8.203125 
Q 42.578125 3.328125 38.25 0.953125 
Q 33.9375 -1.421875 27.875 -1.421875 
Q 17.96875 -1.421875 11.734375 6.484375 
Q 5.515625 14.40625 5.515625 27.296875 
Q 5.515625 40.1875 11.734375 48.09375 
Q 17.96875 56 27.875 56 
Q 33.9375 56 38.25 53.625 
Q 42.578125 51.265625 45.40625 46.390625 
z
M 14.796875 27.296875 
Q 14.796875 17.390625 18.875 11.75 
Q 22.953125 6.109375 30.078125 6.109375 
Q 37.203125 6.109375 41.296875 11.75 
Q 45.40625 17.390625 45.40625 27.296875 
Q 45.40625 37.203125 41.296875 42.84375 
Q 37.203125 48.484375 30.078125 48.484375 
Q 22.953125 48.484375 18.875 42.84375 
Q 14.796875 37.203125 14.796875 27.296875 
z
" id="DejaVuSans-100"/>
    </defs>
    <g transform="translate(96.421476 335.219978)rotate(-308.16694)scale(0.1 -0.1)">
     <use xlink:href="#DejaVuSans-50"/>
     <use x="63.623047" xlink:href="#DejaVuSans-110"/>
     <use x="127.001953" xlink:href="#DejaVuSans-100"/>
     <use x="190.478516" xlink:href="#DejaVuSans-32"/>
     <use x="222.265625" xlink:href="#DejaVuSans-101"/>
     <use x="283.789062" xlink:href="#DejaVuSans-105"/>
     <use x="311.572266" xlink:href="#DejaVuSans-103"/>
     <use x="375.048828" xlink:href="#DejaVuSans-101"/>
     <use x="436.572266" xlink:href="#DejaVuSans-110"/>
     <use x="499.951172" xlink:href="#DejaVuSans-118"/>
     <use x="559.130859" xlink:href="#DejaVuSans-101"/>
     <use x="620.654297" xlink:href="#DejaVuSans-99"/>
     <use x="675.634766" xlink:href="#DejaVuSans-116"/>
     <use x="714.84375" xlink:href="#DejaVuSans-111"/>
     <use x="776.025391" xlink:href="#DejaVuSans-114"/>
    </g>
   </g>
   <g id="Line3DCollection_2">
    <path d="M 508.883823 133.186567 
L 498.240472 346.609159 
L 192.379184 393.280512 
" style="fill:none;stroke:#b0b0b0;stroke-width:0.8;"/>
    <path d="M 492.844472 119.799423 
L 483.128847 331.762383 
L 179.964827 377.485934 
" style="fill:none;stroke:#b0b0b0;stroke-width:0.8;"/>
    <path d="M 477.141304 106.692873 
L 468.317914 317.211029 
L 167.805134 362.015361 
" style="fill:none;stroke:#b0b0b0;stroke-width:0.8;"/>
    <path d="M 461.76386 93.858186 
L 453.798786 302.946366 
L 155.89235 346.858925 
" style="fill:none;stroke:#b0b0b0;stroke-width:0.8;"/>
    <path d="M 446.70211 81.286991 
L 439.562925 288.960005 
L 144.219028 332.007154 
" style="fill:none;stroke:#b0b0b0;stroke-width:0.8;"/>
    <path d="M 431.94643 68.971256 
L 425.602119 275.243879 
L 132.778022 317.450953 
" style="fill:none;stroke:#b0b0b0;stroke-width:0.8;"/>
    <path d="M 417.487585 56.903272 
L 411.908475 261.790231 
L 121.562464 303.181586 
" style="fill:none;stroke:#b0b0b0;stroke-width:0.8;"/>
    <path d="M 403.316708 45.075639 
L 398.474395 248.591599 
L 110.565755 289.190658 
" style="fill:none;stroke:#b0b0b0;stroke-width:0.8;"/>
   </g>
   <g id="xtick_9">
    <g id="line2d_11">
     <path d="M 194.902732 392.895444 
L 187.328259 394.051232 
" style="fill:none;stroke:#000000;stroke-linecap:square;stroke-width:0.8;"/>
    </g>
   </g>
   <g id="xtick_10">
    <g id="line2d_12">
     <path d="M 182.465334 377.108804 
L 174.960059 378.240758 
" style="fill:none;stroke:#000000;stroke-linecap:square;stroke-width:0.8;"/>
    </g>
   </g>
   <g id="xtick_11">
    <g id="line2d_13">
     <path d="M 170.283009 361.645927 
L 162.845702 362.754777 
" style="fill:none;stroke:#000000;stroke-linecap:square;stroke-width:0.8;"/>
    </g>
   </g>
   <g id="xtick_12">
    <g id="line2d_14">
     <path d="M 158.347992 346.496954 
L 150.977453 347.583399 
" style="fill:none;stroke:#000000;stroke-linecap:square;stroke-width:0.8;"/>
    </g>
   </g>
   <g id="xtick_13">
    <g id="line2d_15">
     <path d="M 146.652827 331.652421 
L 139.347889 332.717135 
" style="fill:none;stroke:#000000;stroke-linecap:square;stroke-width:0.8;"/>
    </g>
   </g>
   <g id="xtick_14">
    <g id="line2d_16">
     <path d="M 135.190355 317.103244 
L 127.949879 318.146872 
" style="fill:none;stroke:#000000;stroke-linecap:square;stroke-width:0.8;"/>
    </g>
   </g>
   <g id="xtick_15">
    <g id="line2d_17">
     <path d="M 123.9537 302.840695 
L 116.776577 303.863856 
" style="fill:none;stroke:#000000;stroke-linecap:square;stroke-width:0.8;"/>
    </g>
   </g>
   <g id="xtick_16">
    <g id="line2d_18">
     <path d="M 112.936255 288.856385 
L 105.821403 289.859676 
" style="fill:none;stroke:#000000;stroke-linecap:square;stroke-width:0.8;"/>
    </g>
   </g>
  </g>
  <g id="axis3d_3">
   <g id="line2d_19">
    <path d="M 105.599816 282.872578 
L 95.328816 75.819544 
" style="fill:none;stroke:#000000;stroke-linecap:square;stroke-width:0.8;"/>
   </g>
   <g id="text_3">
    <!-- 3rd eigenvector -->
    <defs>
     <path d="M 40.578125 39.3125 
Q 47.65625 37.796875 51.625 33 
Q 55.609375 28.21875 55.609375 21.1875 
Q 55.609375 10.40625 48.1875 4.484375 
Q 40.765625 -1.421875 27.09375 -1.421875 
Q 22.515625 -1.421875 17.65625 -0.515625 
Q 12.796875 0.390625 7.625 2.203125 
L 7.625 11.71875 
Q 11.71875 9.328125 16.59375 8.109375 
Q 21.484375 6.890625 26.8125 6.890625 
Q 36.078125 6.890625 40.9375 10.546875 
Q 45.796875 14.203125 45.796875 21.1875 
Q 45.796875 27.640625 41.28125 31.265625 
Q 36.765625 34.90625 28.71875 34.90625 
L 20.21875 34.90625 
L 20.21875 43.015625 
L 29.109375 43.015625 
Q 36.375 43.015625 40.234375 45.921875 
Q 44.09375 48.828125 44.09375 54.296875 
Q 44.09375 59.90625 40.109375 62.90625 
Q 36.140625 65.921875 28.71875 65.921875 
Q 24.65625 65.921875 20.015625 65.03125 
Q 15.375 64.15625 9.8125 62.3125 
L 9.8125 71.09375 
Q 15.4375 72.65625 20.34375 73.4375 
Q 25.25 74.21875 29.59375 74.21875 
Q 40.828125 74.21875 47.359375 69.109375 
Q 53.90625 64.015625 53.90625 55.328125 
Q 53.90625 49.265625 50.4375 45.09375 
Q 46.96875 40.921875 40.578125 39.3125 
z
" id="DejaVuSans-51"/>
    </defs>
    <g transform="translate(58.517826 135.880782)rotate(-272.839866)scale(0.1 -0.1)">
     <use xlink:href="#DejaVuSans-51"/>
     <use x="63.623047" xlink:href="#DejaVuSans-114"/>
     <use x="104.720703" xlink:href="#DejaVuSans-100"/>
     <use x="168.197266" xlink:href="#DejaVuSans-32"/>
     <use x="199.984375" xlink:href="#DejaVuSans-101"/>
     <use x="261.507812" xlink:href="#DejaVuSans-105"/>
     <use x="289.291016" xlink:href="#DejaVuSans-103"/>
     <use x="352.767578" xlink:href="#DejaVuSans-101"/>
     <use x="414.291016" xlink:href="#DejaVuSans-110"/>
     <use x="477.669922" xlink:href="#DejaVuSans-118"/>
     <use x="536.849609" xlink:href="#DejaVuSans-101"/>
     <use x="598.373047" xlink:href="#DejaVuSans-99"/>
     <use x="653.353516" xlink:href="#DejaVuSans-116"/>
     <use x="692.5625" xlink:href="#DejaVuSans-111"/>
     <use x="753.744141" xlink:href="#DejaVuSans-114"/>
    </g>
   </g>
   <g id="Line3DCollection_3">
    <path d="M 96.759839 104.667519 
L 396.291144 67.9684 
L 520.863423 174.497271 
" style="fill:none;stroke:#b0b0b0;stroke-width:0.8;"/>
    <path d="M 97.967371 129.010163 
L 395.760925 91.800623 
L 519.515981 199.775392 
" style="fill:none;stroke:#b0b0b0;stroke-width:0.8;"/>
    <path d="M 99.160845 153.069393 
L 395.236697 115.363524 
L 518.185102 224.742778 
" style="fill:none;stroke:#b0b0b0;stroke-width:0.8;"/>
    <path d="M 100.340504 176.850129 
L 394.718361 138.661641 
L 516.870483 249.405122 
" style="fill:none;stroke:#b0b0b0;stroke-width:0.8;"/>
    <path d="M 101.506586 200.35718 
L 394.205816 161.699413 
L 515.571828 273.767982 
" style="fill:none;stroke:#b0b0b0;stroke-width:0.8;"/>
    <path d="M 102.659326 223.595242 
L 393.698968 184.48118 
L 514.288848 297.83678 
" style="fill:none;stroke:#b0b0b0;stroke-width:0.8;"/>
    <path d="M 103.798949 246.568907 
L 393.19772 207.011185 
L 513.021261 321.616808 
" style="fill:none;stroke:#b0b0b0;stroke-width:0.8;"/>
    <path d="M 104.92568 269.282661 
L 392.701981 229.293579 
L 511.768791 345.113231 
" style="fill:none;stroke:#b0b0b0;stroke-width:0.8;"/>
   </g>
   <g id="xtick_17">
    <g id="line2d_20">
     <path d="M 99.228842 104.365012 
L 91.818203 105.272977 
" style="fill:none;stroke:#000000;stroke-linecap:square;stroke-width:0.8;"/>
    </g>
   </g>
   <g id="xtick_18">
    <g id="line2d_21">
     <path d="M 100.421627 128.703502 
L 93.055274 129.623934 
" style="fill:none;stroke:#000000;stroke-linecap:square;stroke-width:0.8;"/>
    </g>
   </g>
   <g id="xtick_19">
    <g id="line2d_22">
     <path d="M 101.600528 152.758694 
L 94.277934 153.691242 
" style="fill:none;stroke:#000000;stroke-linecap:square;stroke-width:0.8;"/>
    </g>
   </g>
   <g id="xtick_20">
    <g id="line2d_23">
     <path d="M 102.765786 176.535507 
L 95.486436 177.479829 
" style="fill:none;stroke:#000000;stroke-linecap:square;stroke-width:0.8;"/>
    </g>
   </g>
   <g id="xtick_21">
    <g id="line2d_24">
     <path d="M 103.917637 200.038744 
L 96.681022 200.994508 
" style="fill:none;stroke:#000000;stroke-linecap:square;stroke-width:0.8;"/>
    </g>
   </g>
   <g id="xtick_22">
    <g id="line2d_25">
     <path d="M 105.056311 223.273101 
L 97.861932 224.239984 
" style="fill:none;stroke:#000000;stroke-linecap:square;stroke-width:0.8;"/>
    </g>
   </g>
   <g id="xtick_23">
    <g id="line2d_26">
     <path d="M 106.182032 246.243165 
L 99.0294 247.220853 
" style="fill:none;stroke:#000000;stroke-linecap:square;stroke-width:0.8;"/>
    </g>
   </g>
   <g id="xtick_24">
    <g id="line2d_27">
     <path d="M 107.29502 268.95342 
L 100.183653 269.941608 
" style="fill:none;stroke:#000000;stroke-linecap:square;stroke-width:0.8;"/>
    </g>
   </g>
  </g>
  <g id="axes_1">
   <g id="Path3DCollection_1">
    <defs>
     <path d="M 0 2.236068 
C 0.593012 2.236068 1.161816 2.000462 1.581139 1.581139 
C 2.000462 1.161816 2.236068 0.593012 2.236068 0 
C 2.236068 -0.593012 2.000462 -1.161816 1.581139 -1.581139 
C 1.161816 -2.000462 0.593012 -2.236068 0 -2.236068 
C -0.593012 -2.236068 -1.161816 -2.000462 -1.581139 -1.581139 
C -2.000462 -1.161816 -2.236068 -0.593012 -2.236068 0 
C -2.236068 0.593012 -2.000462 1.161816 -1.581139 1.581139 
C -1.161816 2.000462 -0.593012 2.236068 0 2.236068 
z
" id="C0_0_280e84a5f6"/>
    </defs>
    <g clip-path="url(#pfb48971a34)">
     <use style="fill:#8dd3c7;fill-opacity:0.528345;stroke:#000000;stroke-opacity:0.528345;" x="416.617991" xlink:href="#C0_0_280e84a5f6" y="209.810352"/>
    </g>
    <g clip-path="url(#pfb48971a34)">
     <use style="fill:#8dd3c7;fill-opacity:0.971519;stroke:#000000;stroke-opacity:0.971519;" x="231.995103" xlink:href="#C0_0_280e84a5f6" y="243.230039"/>
    </g>
    <g clip-path="url(#pfb48971a34)">
     <use style="fill:#8dd3c7;fill-opacity:0.554001;stroke:#000000;stroke-opacity:0.554001;" x="298.450906" xlink:href="#C0_0_280e84a5f6" y="252.348803"/>
    </g>
    <g clip-path="url(#pfb48971a34)">
     <use style="fill:#8dd3c7;fill-opacity:0.715459;stroke:#000000;stroke-opacity:0.715459;" x="249.476897" xlink:href="#C0_0_280e84a5f6" y="271.180228"/>
    </g>
    <g clip-path="url(#pfb48971a34)">
     <use style="fill:#8dd3c7;fill-opacity:0.413294;stroke:#000000;stroke-opacity:0.413294;" x="344.996008" xlink:href="#C0_0_280e84a5f6" y="231.895687"/>
    </g>
    <g clip-path="url(#pfb48971a34)">
     <use style="fill:#8dd3c7;fill-opacity:0.546237;stroke:#000000;stroke-opacity:0.546237;" x="365.961707" xlink:href="#C0_0_280e84a5f6" y="225.765753"/>
    </g>
    <g clip-path="url(#pfb48971a34)">
     <use style="fill:#8dd3c7;fill-opacity:0.69289;stroke:#000000;stroke-opacity:0.69289;" x="383.272497" xlink:href="#C0_0_280e84a5f6" y="208.686192"/>
    </g>
    <g clip-path="url(#pfb48971a34)">
     <use style="fill:#8dd3c7;fill-opacity:0.952616;stroke:#000000;stroke-opacity:0.952616;" x="200.953492" xlink:href="#C0_0_280e84a5f6" y="298.285141"/>
    </g>
    <g clip-path="url(#pfb48971a34)">
     <use style="fill:#8dd3c7;fill-opacity:0.371114;stroke:#000000;stroke-opacity:0.371114;" x="300.61678" xlink:href="#C0_0_280e84a5f6" y="232.878449"/>
    </g>
    <g clip-path="url(#pfb48971a34)">
     <use style="fill:#8dd3c7;fill-opacity:0.849582;stroke:#000000;stroke-opacity:0.849582;" x="277.191716" xlink:href="#C0_0_280e84a5f6" y="169.556684"/>
    </g>
    <g clip-path="url(#pfb48971a34)">
     <use style="fill:#8dd3c7;fill-opacity:0.741315;stroke:#000000;stroke-opacity:0.741315;" x="348.933467" xlink:href="#C0_0_280e84a5f6" y="243.558896"/>
    </g>
    <g clip-path="url(#pfb48971a34)">
     <use style="fill:#8dd3c7;fill-opacity:0.756526;stroke:#000000;stroke-opacity:0.756526;" x="291.130202" xlink:href="#C0_0_280e84a5f6" y="243.988773"/>
    </g>
    <g clip-path="url(#pfb48971a34)">
     <use style="fill:#8dd3c7;fill-opacity:0.730799;stroke:#000000;stroke-opacity:0.730799;" x="340.193979" xlink:href="#C0_0_280e84a5f6" y="194.966742"/>
    </g>
    <g clip-path="url(#pfb48971a34)">
     <use style="fill:#8dd3c7;fill-opacity:0.7268;stroke:#000000;stroke-opacity:0.7268;" x="234.444189" xlink:href="#C0_0_280e84a5f6" y="246.496386"/>
    </g>
    <g clip-path="url(#pfb48971a34)">
     <use style="fill:#8dd3c7;fill-opacity:0.752949;stroke:#000000;stroke-opacity:0.752949;" x="245.238616" xlink:href="#C0_0_280e84a5f6" y="237.740279"/>
    </g>
    <g clip-path="url(#pfb48971a34)">
     <use style="fill:#8dd3c7;fill-opacity:0.362268;stroke:#000000;stroke-opacity:0.362268;" x="172.897891" xlink:href="#C0_0_280e84a5f6" y="182.46437"/>
    </g>
    <g clip-path="url(#pfb48971a34)">
     <use style="fill:#ffed6f;fill-opacity:0.817318;stroke:#000000;stroke-opacity:0.817318;" x="203.843797" xlink:href="#C0_0_280e84a5f6" y="192.128374"/>
    </g>
    <g clip-path="url(#pfb48971a34)">
     <use style="fill:#ffed6f;fill-opacity:0.772604;stroke:#000000;stroke-opacity:0.772604;" x="280.275205" xlink:href="#C0_0_280e84a5f6" y="164.212657"/>
    </g>
    <g clip-path="url(#pfb48971a34)">
     <use style="fill:#ffed6f;fill-opacity:0.721297;stroke:#000000;stroke-opacity:0.721297;" x="341.223456" xlink:href="#C0_0_280e84a5f6" y="181.98708"/>
    </g>
    <g clip-path="url(#pfb48971a34)">
     <use style="fill:#ffed6f;fill-opacity:0.844409;stroke:#000000;stroke-opacity:0.844409;" x="249.637038" xlink:href="#C0_0_280e84a5f6" y="254.933794"/>
    </g>
    <g clip-path="url(#pfb48971a34)">
     <use style="fill:#ffed6f;fill-opacity:0.431931;stroke:#000000;stroke-opacity:0.431931;" x="363.065592" xlink:href="#C0_0_280e84a5f6" y="201.902981"/>
    </g>
    <g clip-path="url(#pfb48971a34)">
     <use style="fill:#ffed6f;fill-opacity:0.53894;stroke:#000000;stroke-opacity:0.53894;" x="337.948271" xlink:href="#C0_0_280e84a5f6" y="202.235137"/>
    </g>
    <g clip-path="url(#pfb48971a34)">
     <use style="fill:#ffed6f;fill-opacity:0.810725;stroke:#000000;stroke-opacity:0.810725;" x="179.757344" xlink:href="#C0_0_280e84a5f6" y="249.737594"/>
    </g>
    <g clip-path="url(#pfb48971a34)">
     <use style="fill:#ffed6f;fill-opacity:0.894814;stroke:#000000;stroke-opacity:0.894814;" x="312.79625" xlink:href="#C0_0_280e84a5f6" y="252.315657"/>
    </g>
    <g clip-path="url(#pfb48971a34)">
     <use style="fill:#ffed6f;fill-opacity:0.711608;stroke:#000000;stroke-opacity:0.711608;" x="178.22188" xlink:href="#C0_0_280e84a5f6" y="211.54095"/>
    </g>
    <g clip-path="url(#pfb48971a34)">
     <use style="fill:#8dd3c7;fill-opacity:0.72322;stroke:#000000;stroke-opacity:0.72322;" x="341.362885" xlink:href="#C0_0_280e84a5f6" y="151.350368"/>
    </g>
    <g clip-path="url(#pfb48971a34)">
     <use style="fill:#8dd3c7;fill-opacity:0.77316;stroke:#000000;stroke-opacity:0.77316;" x="402.266195" xlink:href="#C0_0_280e84a5f6" y="236.203604"/>
    </g>
    <g clip-path="url(#pfb48971a34)">
     <use style="fill:#8dd3c7;fill-opacity:0.589492;stroke:#000000;stroke-opacity:0.589492;" x="300.45906" xlink:href="#C0_0_280e84a5f6" y="178.610628"/>
    </g>
    <g clip-path="url(#pfb48971a34)">
     <use style="fill:#8dd3c7;fill-opacity:0.53771;stroke:#000000;stroke-opacity:0.53771;" x="328.639806" xlink:href="#C0_0_280e84a5f6" y="168.090445"/>
    </g>
    <g clip-path="url(#pfb48971a34)">
     <use style="fill:#8dd3c7;fill-opacity:0.483958;stroke:#000000;stroke-opacity:0.483958;" x="315.064677" xlink:href="#C0_0_280e84a5f6" y="188.566211"/>
    </g>
    <g clip-path="url(#pfb48971a34)">
     <use style="fill:#8dd3c7;fill-opacity:0.705767;stroke:#000000;stroke-opacity:0.705767;" x="361.368719" xlink:href="#C0_0_280e84a5f6" y="170.387329"/>
    </g>
    <g clip-path="url(#pfb48971a34)">
     <use style="fill:#8dd3c7;fill-opacity:0.496864;stroke:#000000;stroke-opacity:0.496864;" x="327.392129" xlink:href="#C0_0_280e84a5f6" y="184.697713"/>
    </g>
    <g clip-path="url(#pfb48971a34)">
     <use style="fill:#8dd3c7;fill-opacity:0.568438;stroke:#000000;stroke-opacity:0.568438;" x="426.996958" xlink:href="#C0_0_280e84a5f6" y="192.012823"/>
    </g>
    <g clip-path="url(#pfb48971a34)">
     <use style="fill:#ffed6f;stroke:#000000;" x="391.883087" xlink:href="#C0_0_280e84a5f6" y="242.427893"/>
    </g>
    <g clip-path="url(#pfb48971a34)">
     <use style="fill:#ffed6f;fill-opacity:0.694667;stroke:#000000;stroke-opacity:0.694667;" x="370.185358" xlink:href="#C0_0_280e84a5f6" y="189.722693"/>
    </g>
    <g clip-path="url(#pfb48971a34)">
     <use style="fill:#ffed6f;fill-opacity:0.559782;stroke:#000000;stroke-opacity:0.559782;" x="341.215954" xlink:href="#C0_0_280e84a5f6" y="193.921101"/>
    </g>
    <g clip-path="url(#pfb48971a34)">
     <use style="fill:#ffed6f;fill-opacity:0.476265;stroke:#000000;stroke-opacity:0.476265;" x="313.539503" xlink:href="#C0_0_280e84a5f6" y="230.362934"/>
    </g>
    <g clip-path="url(#pfb48971a34)">
     <use style="fill:#ffed6f;fill-opacity:0.635715;stroke:#000000;stroke-opacity:0.635715;" x="379.014937" xlink:href="#C0_0_280e84a5f6" y="206.417826"/>
    </g>
    <g clip-path="url(#pfb48971a34)">
     <use style="fill:#ffed6f;fill-opacity:0.654562;stroke:#000000;stroke-opacity:0.654562;" x="255.83448" xlink:href="#C0_0_280e84a5f6" y="173.576147"/>
    </g>
    <g clip-path="url(#pfb48971a34)">
     <use style="fill:#ffed6f;fill-opacity:0.685209;stroke:#000000;stroke-opacity:0.685209;" x="374.637982" xlink:href="#C0_0_280e84a5f6" y="239.061867"/>
    </g>
    <g clip-path="url(#pfb48971a34)">
     <use style="fill:#ffed6f;fill-opacity:0.603486;stroke:#000000;stroke-opacity:0.603486;" x="252.244906" xlink:href="#C0_0_280e84a5f6" y="236.470481"/>
    </g>
    <g clip-path="url(#pfb48971a34)">
     <use style="fill:#ffed6f;fill-opacity:0.694179;stroke:#000000;stroke-opacity:0.694179;" x="316.106455" xlink:href="#C0_0_280e84a5f6" y="211.565514"/>
    </g>
    <g clip-path="url(#pfb48971a34)">
     <use style="fill:#ffed6f;fill-opacity:0.3;stroke:#000000;stroke-opacity:0.3;" x="228.862717" xlink:href="#C0_0_280e84a5f6" y="231.735708"/>
    </g>
    <g clip-path="url(#pfb48971a34)">
     <use style="fill:#ffed6f;fill-opacity:0.692536;stroke:#000000;stroke-opacity:0.692536;" x="321.70728" xlink:href="#C0_0_280e84a5f6" y="246.519609"/>
    </g>
    <g clip-path="url(#pfb48971a34)">
     <use style="fill:#ffed6f;fill-opacity:0.482023;stroke:#000000;stroke-opacity:0.482023;" x="326.773331" xlink:href="#C0_0_280e84a5f6" y="188.106418"/>
    </g>
    <g clip-path="url(#pfb48971a34)">
     <use style="fill:#ffed6f;fill-opacity:0.908472;stroke:#000000;stroke-opacity:0.908472;" x="259.293114" xlink:href="#C0_0_280e84a5f6" y="249.390729"/>
    </g>
    <g clip-path="url(#pfb48971a34)">
     <use style="fill:#ffed6f;fill-opacity:0.391446;stroke:#000000;stroke-opacity:0.391446;" x="324.44823" xlink:href="#C0_0_280e84a5f6" y="250.215464"/>
    </g>
    <g clip-path="url(#pfb48971a34)">
     <use style="fill:#ffed6f;fill-opacity:0.754193;stroke:#000000;stroke-opacity:0.754193;" x="379.242301" xlink:href="#C0_0_280e84a5f6" y="264.1732"/>
    </g>
    <g clip-path="url(#pfb48971a34)">
     <use style="fill:#ffed6f;fill-opacity:0.739347;stroke:#000000;stroke-opacity:0.739347;" x="305.092411" xlink:href="#C0_0_280e84a5f6" y="215.729349"/>
    </g>
    <g clip-path="url(#pfb48971a34)">
     <use style="fill:#ffed6f;fill-opacity:0.735925;stroke:#000000;stroke-opacity:0.735925;" x="282.117429" xlink:href="#C0_0_280e84a5f6" y="266.095981"/>
    </g>
    <g clip-path="url(#pfb48971a34)">
     <use style="fill:#ffed6f;fill-opacity:0.744358;stroke:#000000;stroke-opacity:0.744358;" x="381.919916" xlink:href="#C0_0_280e84a5f6" y="197.422894"/>
    </g>
    <g clip-path="url(#pfb48971a34)">
     <use style="fill:#ffed6f;fill-opacity:0.594519;stroke:#000000;stroke-opacity:0.594519;" x="451.747897" xlink:href="#C0_0_280e84a5f6" y="225.350735"/>
    </g>
    <g clip-path="url(#pfb48971a34)">
     <use style="fill:#ffed6f;fill-opacity:0.715057;stroke:#000000;stroke-opacity:0.715057;" x="354.478183" xlink:href="#C0_0_280e84a5f6" y="182.153797"/>
    </g>
    <g clip-path="url(#pfb48971a34)">
     <use style="fill:#ffed6f;fill-opacity:0.748517;stroke:#000000;stroke-opacity:0.748517;" x="294.518874" xlink:href="#C0_0_280e84a5f6" y="187.296776"/>
    </g>
    <g clip-path="url(#pfb48971a34)">
     <use style="fill:#ffed6f;fill-opacity:0.778729;stroke:#000000;stroke-opacity:0.778729;" x="387.555079" xlink:href="#C0_0_280e84a5f6" y="205.666078"/>
    </g>
    <g clip-path="url(#pfb48971a34)">
     <use style="fill:#ffed6f;fill-opacity:0.849808;stroke:#000000;stroke-opacity:0.849808;" x="271.402484" xlink:href="#C0_0_280e84a5f6" y="124.060813"/>
    </g>
    <g clip-path="url(#pfb48971a34)">
     <use style="fill:#ffed6f;fill-opacity:0.717251;stroke:#000000;stroke-opacity:0.717251;" x="360.514272" xlink:href="#C0_0_280e84a5f6" y="164.690078"/>
    </g>
    <g clip-path="url(#pfb48971a34)">
     <use style="fill:#ffed6f;fill-opacity:0.721711;stroke:#000000;stroke-opacity:0.721711;" x="181.969117" xlink:href="#C0_0_280e84a5f6" y="204.557825"/>
    </g>
    <g clip-path="url(#pfb48971a34)">
     <use style="fill:#ffed6f;fill-opacity:0.391856;stroke:#000000;stroke-opacity:0.391856;" x="345.549684" xlink:href="#C0_0_280e84a5f6" y="220.881725"/>
    </g>
    <g clip-path="url(#pfb48971a34)">
     <use style="fill:#ffed6f;fill-opacity:0.687095;stroke:#000000;stroke-opacity:0.687095;" x="319.695422" xlink:href="#C0_0_280e84a5f6" y="212.005121"/>
    </g>
    <g clip-path="url(#pfb48971a34)">
     <use style="fill:#ffed6f;fill-opacity:0.723737;stroke:#000000;stroke-opacity:0.723737;" x="426.617574" xlink:href="#C0_0_280e84a5f6" y="241.840516"/>
    </g>
    <g clip-path="url(#pfb48971a34)">
     <use style="fill:#ffed6f;fill-opacity:0.637196;stroke:#000000;stroke-opacity:0.637196;" x="255.342301" xlink:href="#C0_0_280e84a5f6" y="173.372724"/>
    </g>
    <g clip-path="url(#pfb48971a34)">
     <use style="fill:#ffed6f;fill-opacity:0.577092;stroke:#000000;stroke-opacity:0.577092;" x="328.749335" xlink:href="#C0_0_280e84a5f6" y="332.281317"/>
    </g>
    <g clip-path="url(#pfb48971a34)">
     <use style="fill:#ffed6f;fill-opacity:0.457302;stroke:#000000;stroke-opacity:0.457302;" x="388.880189" xlink:href="#C0_0_280e84a5f6" y="198.450075"/>
    </g>
    <g clip-path="url(#pfb48971a34)">
     <use style="fill:#ffed6f;fill-opacity:0.711106;stroke:#000000;stroke-opacity:0.711106;" x="304.344962" xlink:href="#C0_0_280e84a5f6" y="232.190737"/>
    </g>
   </g>
   <g id="text_4">
    <!-- Child internalize life -->
    <defs>
     <path d="M 64.40625 67.28125 
L 64.40625 56.890625 
Q 59.421875 61.53125 53.78125 63.8125 
Q 48.140625 66.109375 41.796875 66.109375 
Q 29.296875 66.109375 22.65625 58.46875 
Q 16.015625 50.828125 16.015625 36.375 
Q 16.015625 21.96875 22.65625 14.328125 
Q 29.296875 6.6875 41.796875 6.6875 
Q 48.140625 6.6875 53.78125 8.984375 
Q 59.421875 11.28125 64.40625 15.921875 
L 64.40625 5.609375 
Q 59.234375 2.09375 53.4375 0.328125 
Q 47.65625 -1.421875 41.21875 -1.421875 
Q 24.65625 -1.421875 15.125 8.703125 
Q 5.609375 18.84375 5.609375 36.375 
Q 5.609375 53.953125 15.125 64.078125 
Q 24.65625 74.21875 41.21875 74.21875 
Q 47.75 74.21875 53.53125 72.484375 
Q 59.328125 70.75 64.40625 67.28125 
z
" id="DejaVuSans-67"/>
     <path d="M 54.890625 33.015625 
L 54.890625 0 
L 45.90625 0 
L 45.90625 32.71875 
Q 45.90625 40.484375 42.875 44.328125 
Q 39.84375 48.1875 33.796875 48.1875 
Q 26.515625 48.1875 22.3125 43.546875 
Q 18.109375 38.921875 18.109375 30.90625 
L 18.109375 0 
L 9.078125 0 
L 9.078125 75.984375 
L 18.109375 75.984375 
L 18.109375 46.1875 
Q 21.34375 51.125 25.703125 53.5625 
Q 30.078125 56 35.796875 56 
Q 45.21875 56 50.046875 50.171875 
Q 54.890625 44.34375 54.890625 33.015625 
z
" id="DejaVuSans-104"/>
     <path d="M 9.421875 75.984375 
L 18.40625 75.984375 
L 18.40625 0 
L 9.421875 0 
z
" id="DejaVuSans-108"/>
     <path d="M 34.28125 27.484375 
Q 23.390625 27.484375 19.1875 25 
Q 14.984375 22.515625 14.984375 16.5 
Q 14.984375 11.71875 18.140625 8.90625 
Q 21.296875 6.109375 26.703125 6.109375 
Q 34.1875 6.109375 38.703125 11.40625 
Q 43.21875 16.703125 43.21875 25.484375 
L 43.21875 27.484375 
z
M 52.203125 31.203125 
L 52.203125 0 
L 43.21875 0 
L 43.21875 8.296875 
Q 40.140625 3.328125 35.546875 0.953125 
Q 30.953125 -1.421875 24.3125 -1.421875 
Q 15.921875 -1.421875 10.953125 3.296875 
Q 6 8.015625 6 15.921875 
Q 6 25.140625 12.171875 29.828125 
Q 18.359375 34.515625 30.609375 34.515625 
L 43.21875 34.515625 
L 43.21875 35.40625 
Q 43.21875 41.609375 39.140625 45 
Q 35.0625 48.390625 27.6875 48.390625 
Q 23 48.390625 18.546875 47.265625 
Q 14.109375 46.140625 10.015625 43.890625 
L 10.015625 52.203125 
Q 14.9375 54.109375 19.578125 55.046875 
Q 24.21875 56 28.609375 56 
Q 40.484375 56 46.34375 49.84375 
Q 52.203125 43.703125 52.203125 31.203125 
z
" id="DejaVuSans-97"/>
     <path d="M 5.515625 54.6875 
L 48.1875 54.6875 
L 48.1875 46.484375 
L 14.40625 7.171875 
L 48.1875 7.171875 
L 48.1875 0 
L 4.296875 0 
L 4.296875 8.203125 
L 38.09375 47.515625 
L 5.515625 47.515625 
z
" id="DejaVuSans-122"/>
     <path d="M 37.109375 75.984375 
L 37.109375 68.5 
L 28.515625 68.5 
Q 23.6875 68.5 21.796875 66.546875 
Q 19.921875 64.59375 19.921875 59.515625 
L 19.921875 54.6875 
L 34.71875 54.6875 
L 34.71875 47.703125 
L 19.921875 47.703125 
L 19.921875 0 
L 10.890625 0 
L 10.890625 47.703125 
L 2.296875 47.703125 
L 2.296875 54.6875 
L 10.890625 54.6875 
L 10.890625 58.5 
Q 10.890625 67.625 15.140625 71.796875 
Q 19.390625 75.984375 28.609375 75.984375 
z
" id="DejaVuSans-102"/>
    </defs>
    <g transform="translate(235.480312 22.322625)scale(0.12 -0.12)">
     <use xlink:href="#DejaVuSans-67"/>
     <use x="69.824219" xlink:href="#DejaVuSans-104"/>
     <use x="133.203125" xlink:href="#DejaVuSans-105"/>
     <use x="160.986328" xlink:href="#DejaVuSans-108"/>
     <use x="188.769531" xlink:href="#DejaVuSans-100"/>
     <use x="252.246094" xlink:href="#DejaVuSans-32"/>
     <use x="284.033203" xlink:href="#DejaVuSans-105"/>
     <use x="311.816406" xlink:href="#DejaVuSans-110"/>
     <use x="375.195312" xlink:href="#DejaVuSans-116"/>
     <use x="414.404297" xlink:href="#DejaVuSans-101"/>
     <use x="475.927734" xlink:href="#DejaVuSans-114"/>
     <use x="517.025391" xlink:href="#DejaVuSans-110"/>
     <use x="580.404297" xlink:href="#DejaVuSans-97"/>
     <use x="641.683594" xlink:href="#DejaVuSans-108"/>
     <use x="669.466797" xlink:href="#DejaVuSans-105"/>
     <use x="697.25" xlink:href="#DejaVuSans-122"/>
     <use x="749.740234" xlink:href="#DejaVuSans-101"/>
     <use x="811.263672" xlink:href="#DejaVuSans-32"/>
     <use x="843.050781" xlink:href="#DejaVuSans-108"/>
     <use x="870.833984" xlink:href="#DejaVuSans-105"/>
     <use x="898.617188" xlink:href="#DejaVuSans-102"/>
     <use x="933.822266" xlink:href="#DejaVuSans-101"/>
    </g>
    <!-- First three PCA directions -->
    <defs>
     <path d="M 9.8125 72.90625 
L 51.703125 72.90625 
L 51.703125 64.59375 
L 19.671875 64.59375 
L 19.671875 43.109375 
L 48.578125 43.109375 
L 48.578125 34.8125 
L 19.671875 34.8125 
L 19.671875 0 
L 9.8125 0 
z
" id="DejaVuSans-70"/>
     <path d="M 19.671875 64.796875 
L 19.671875 37.40625 
L 32.078125 37.40625 
Q 38.96875 37.40625 42.71875 40.96875 
Q 46.484375 44.53125 46.484375 51.125 
Q 46.484375 57.671875 42.71875 61.234375 
Q 38.96875 64.796875 32.078125 64.796875 
z
M 9.8125 72.90625 
L 32.078125 72.90625 
Q 44.34375 72.90625 50.609375 67.359375 
Q 56.890625 61.8125 56.890625 51.125 
Q 56.890625 40.328125 50.609375 34.8125 
Q 44.34375 29.296875 32.078125 29.296875 
L 19.671875 29.296875 
L 19.671875 0 
L 9.8125 0 
z
" id="DejaVuSans-80"/>
     <path d="M 34.1875 63.1875 
L 20.796875 26.90625 
L 47.609375 26.90625 
z
M 28.609375 72.90625 
L 39.796875 72.90625 
L 67.578125 0 
L 57.328125 0 
L 50.6875 18.703125 
L 17.828125 18.703125 
L 11.1875 0 
L 0.78125 0 
z
" id="DejaVuSans-65"/>
    </defs>
    <g transform="translate(218.95875 35.76)scale(0.12 -0.12)">
     <use xlink:href="#DejaVuSans-70"/>
     <use x="57.410156" xlink:href="#DejaVuSans-105"/>
     <use x="85.193359" xlink:href="#DejaVuSans-114"/>
     <use x="126.306641" xlink:href="#DejaVuSans-115"/>
     <use x="178.40625" xlink:href="#DejaVuSans-116"/>
     <use x="217.615234" xlink:href="#DejaVuSans-32"/>
     <use x="249.402344" xlink:href="#DejaVuSans-116"/>
     <use x="288.611328" xlink:href="#DejaVuSans-104"/>
     <use x="351.990234" xlink:href="#DejaVuSans-114"/>
     <use x="393.072266" xlink:href="#DejaVuSans-101"/>
     <use x="454.595703" xlink:href="#DejaVuSans-101"/>
     <use x="516.119141" xlink:href="#DejaVuSans-32"/>
     <use x="547.90625" xlink:href="#DejaVuSans-80"/>
     <use x="608.208984" xlink:href="#DejaVuSans-67"/>
     <use x="678.033203" xlink:href="#DejaVuSans-65"/>
     <use x="746.441406" xlink:href="#DejaVuSans-32"/>
     <use x="778.228516" xlink:href="#DejaVuSans-100"/>
     <use x="841.705078" xlink:href="#DejaVuSans-105"/>
     <use x="869.488281" xlink:href="#DejaVuSans-114"/>
     <use x="910.570312" xlink:href="#DejaVuSans-101"/>
     <use x="972.09375" xlink:href="#DejaVuSans-99"/>
     <use x="1027.074219" xlink:href="#DejaVuSans-116"/>
     <use x="1066.283203" xlink:href="#DejaVuSans-105"/>
     <use x="1094.066406" xlink:href="#DejaVuSans-111"/>
     <use x="1155.248047" xlink:href="#DejaVuSans-110"/>
     <use x="1218.626953" xlink:href="#DejaVuSans-115"/>
    </g>
   </g>
  </g>
 </g>
 <defs>
  <clipPath id="pfb48971a34">
   <rect height="432" width="576" x="7.2" y="7.2"/>
  </clipPath>
 </defs>
</svg>
