<?xml version="1.0" encoding="utf-8" standalone="no"?>
<!DOCTYPE svg PUBLIC "-//W3C//DTD SVG 1.1//EN"
  "http://www.w3.org/Graphics/SVG/1.1/DTD/svg11.dtd">
<!-- Created with matplotlib (https://matplotlib.org/) -->
<svg height="325.986375pt" version="1.1" viewBox="0 0 436.75375 325.986375" width="436.75375pt" xmlns="http://www.w3.org/2000/svg" xmlns:xlink="http://www.w3.org/1999/xlink">
 <defs>
  <style type="text/css">
*{stroke-linecap:butt;stroke-linejoin:round;}
  </style>
 </defs>
 <g id="figure_1">
  <g id="patch_1">
   <path d="M 0 325.986375 
L 436.75375 325.986375 
L 436.75375 0 
L 0 0 
z
" style="fill:#ffffff;"/>
  </g>
  <g id="axes_1">
   <g id="patch_2">
    <path d="M 50.14375 288.430125 
L 407.26375 288.430125 
L 407.26375 22.318125 
L 50.14375 22.318125 
z
" style="fill:#ffffff;"/>
   </g>
   <g id="patch_3">
    <path clip-path="url(#p347e529876)" d="M 66.376477 288.430125 
L 71.591811 288.430125 
L 71.591811 285.895725 
L 66.376477 285.895725 
z
" style="fill:#d95f0e;opacity:0.5;"/>
   </g>
   <g id="patch_4">
    <path clip-path="url(#p347e529876)" d="M 72.895645 288.430125 
L 78.110979 288.430125 
L 78.110979 284.628525 
L 72.895645 284.628525 
z
" style="fill:#d95f0e;opacity:0.5;"/>
   </g>
   <g id="patch_5">
    <path clip-path="url(#p347e529876)" d="M 79.414812 288.430125 
L 84.630146 288.430125 
L 84.630146 285.895725 
L 79.414812 285.895725 
z
" style="fill:#d95f0e;opacity:0.5;"/>
   </g>
   <g id="patch_6">
    <path clip-path="url(#p347e529876)" d="M 85.93398 288.430125 
L 91.149314 288.430125 
L 91.149314 273.223725 
L 85.93398 273.223725 
z
" style="fill:#d95f0e;opacity:0.5;"/>
   </g>
   <g id="patch_7">
    <path clip-path="url(#p347e529876)" d="M 92.453148 288.430125 
L 97.668482 288.430125 
L 97.668482 282.094125 
L 92.453148 282.094125 
z
" style="fill:#d95f0e;opacity:0.5;"/>
   </g>
   <g id="patch_8">
    <path clip-path="url(#p347e529876)" d="M 98.972315 288.430125 
L 104.187649 288.430125 
L 104.187649 274.490925 
L 98.972315 274.490925 
z
" style="fill:#d95f0e;opacity:0.5;"/>
   </g>
   <g id="patch_9">
    <path clip-path="url(#p347e529876)" d="M 105.491483 288.430125 
L 110.706817 288.430125 
L 110.706817 273.223725 
L 105.491483 273.223725 
z
" style="fill:#d95f0e;opacity:0.5;"/>
   </g>
   <g id="patch_10">
    <path clip-path="url(#p347e529876)" d="M 112.01065 288.430125 
L 117.225984 288.430125 
L 117.225984 273.223725 
L 112.01065 273.223725 
z
" style="fill:#d95f0e;opacity:0.5;"/>
   </g>
   <g id="patch_11">
    <path clip-path="url(#p347e529876)" d="M 118.529818 288.430125 
L 123.745152 288.430125 
L 123.745152 259.284525 
L 118.529818 259.284525 
z
" style="fill:#d95f0e;opacity:0.5;"/>
   </g>
   <g id="patch_12">
    <path clip-path="url(#p347e529876)" d="M 125.048985 288.430125 
L 130.26432 288.430125 
L 130.26432 255.482925 
L 125.048985 255.482925 
z
" style="fill:#d95f0e;opacity:0.5;"/>
   </g>
   <g id="patch_13">
    <path clip-path="url(#p347e529876)" d="M 131.568153 288.430125 
L 136.783487 288.430125 
L 136.783487 258.017325 
L 131.568153 258.017325 
z
" style="fill:#d95f0e;opacity:0.5;"/>
   </g>
   <g id="patch_14">
    <path clip-path="url(#p347e529876)" d="M 138.087321 288.430125 
L 143.302655 288.430125 
L 143.302655 189.588525 
L 138.087321 189.588525 
z
" style="fill:#d95f0e;opacity:0.5;"/>
   </g>
   <g id="patch_15">
    <path clip-path="url(#p347e529876)" d="M 144.606488 288.430125 
L 149.821822 288.430125 
L 149.821822 222.535725 
L 144.606488 222.535725 
z
" style="fill:#d95f0e;opacity:0.5;"/>
   </g>
   <g id="patch_16">
    <path clip-path="url(#p347e529876)" d="M 151.125656 288.430125 
L 156.34099 288.430125 
L 156.34099 194.657325 
L 151.125656 194.657325 
z
" style="fill:#d95f0e;opacity:0.5;"/>
   </g>
   <g id="patch_17">
    <path clip-path="url(#p347e529876)" d="M 157.644823 288.430125 
L 162.860157 288.430125 
L 162.860157 161.710125 
L 157.644823 161.710125 
z
" style="fill:#d95f0e;opacity:0.5;"/>
   </g>
   <g id="patch_18">
    <path clip-path="url(#p347e529876)" d="M 164.163991 288.430125 
L 169.379325 288.430125 
L 169.379325 48.929325 
L 164.163991 48.929325 
z
" style="fill:#d95f0e;opacity:0.5;"/>
   </g>
   <g id="patch_19">
    <path clip-path="url(#p347e529876)" d="M 170.683159 288.430125 
L 175.898493 288.430125 
L 175.898493 244.078125 
L 170.683159 244.078125 
z
" style="fill:#d95f0e;opacity:0.5;"/>
   </g>
   <g id="patch_20">
    <path clip-path="url(#p347e529876)" d="M 177.202326 288.430125 
L 182.41766 288.430125 
L 182.41766 249.146925 
L 177.202326 249.146925 
z
" style="fill:#d95f0e;opacity:0.5;"/>
   </g>
   <g id="patch_21">
    <path clip-path="url(#p347e529876)" d="M 183.721494 288.430125 
L 188.936828 288.430125 
L 188.936828 260.551725 
L 183.721494 260.551725 
z
" style="fill:#d95f0e;opacity:0.5;"/>
   </g>
   <g id="patch_22">
    <path clip-path="url(#p347e529876)" d="M 190.240661 288.430125 
L 195.455995 288.430125 
L 195.455995 255.482925 
L 190.240661 255.482925 
z
" style="fill:#d95f0e;opacity:0.5;"/>
   </g>
   <g id="patch_23">
    <path clip-path="url(#p347e529876)" d="M 196.759829 288.430125 
L 201.975163 288.430125 
L 201.975163 264.353325 
L 196.759829 264.353325 
z
" style="fill:#d95f0e;opacity:0.5;"/>
   </g>
   <g id="patch_24">
    <path clip-path="url(#p347e529876)" d="M 203.278996 288.430125 
L 208.494331 288.430125 
L 208.494331 256.750125 
L 203.278996 256.750125 
z
" style="fill:#d95f0e;opacity:0.5;"/>
   </g>
   <g id="patch_25">
    <path clip-path="url(#p347e529876)" d="M 209.798164 288.430125 
L 215.013498 288.430125 
L 215.013498 220.001325 
L 209.798164 220.001325 
z
" style="fill:#d95f0e;opacity:0.5;"/>
   </g>
   <g id="patch_26">
    <path clip-path="url(#p347e529876)" d="M 216.317332 288.430125 
L 221.532666 288.430125 
L 221.532666 263.086125 
L 216.317332 263.086125 
z
" style="fill:#d95f0e;opacity:0.5;"/>
   </g>
   <g id="patch_27">
    <path clip-path="url(#p347e529876)" d="M 222.836499 288.430125 
L 228.051833 288.430125 
L 228.051833 256.750125 
L 222.836499 256.750125 
z
" style="fill:#d95f0e;opacity:0.5;"/>
   </g>
   <g id="patch_28">
    <path clip-path="url(#p347e529876)" d="M 229.355667 288.430125 
L 234.571001 288.430125 
L 234.571001 271.956525 
L 229.355667 271.956525 
z
" style="fill:#d95f0e;opacity:0.5;"/>
   </g>
   <g id="patch_29">
    <path clip-path="url(#p347e529876)" d="M 235.874834 288.430125 
L 241.090168 288.430125 
L 241.090168 247.879725 
L 235.874834 247.879725 
z
" style="fill:#d95f0e;opacity:0.5;"/>
   </g>
   <g id="patch_30">
    <path clip-path="url(#p347e529876)" d="M 242.394002 288.430125 
L 247.609336 288.430125 
L 247.609336 270.689325 
L 242.394002 270.689325 
z
" style="fill:#d95f0e;opacity:0.5;"/>
   </g>
   <g id="patch_31">
    <path clip-path="url(#p347e529876)" d="M 248.913169 288.430125 
L 254.128504 288.430125 
L 254.128504 268.154925 
L 248.913169 268.154925 
z
" style="fill:#d95f0e;opacity:0.5;"/>
   </g>
   <g id="patch_32">
    <path clip-path="url(#p347e529876)" d="M 255.432337 288.430125 
L 260.647671 288.430125 
L 260.647671 255.482925 
L 255.432337 255.482925 
z
" style="fill:#d95f0e;opacity:0.5;"/>
   </g>
   <g id="patch_33">
    <path clip-path="url(#p347e529876)" d="M 261.951505 288.430125 
L 267.166839 288.430125 
L 267.166839 279.559725 
L 261.951505 279.559725 
z
" style="fill:#d95f0e;opacity:0.5;"/>
   </g>
   <g id="patch_34">
    <path clip-path="url(#p347e529876)" d="M 268.470672 288.430125 
L 273.686006 288.430125 
L 273.686006 280.826925 
L 268.470672 280.826925 
z
" style="fill:#d95f0e;opacity:0.5;"/>
   </g>
   <g id="patch_35">
    <path clip-path="url(#p347e529876)" d="M 274.98984 288.430125 
L 280.205174 288.430125 
L 280.205174 278.292525 
L 274.98984 278.292525 
z
" style="fill:#d95f0e;opacity:0.5;"/>
   </g>
   <g id="patch_36">
    <path clip-path="url(#p347e529876)" d="M 281.509007 288.430125 
L 286.724341 288.430125 
L 286.724341 246.612525 
L 281.509007 246.612525 
z
" style="fill:#d95f0e;opacity:0.5;"/>
   </g>
   <g id="patch_37">
    <path clip-path="url(#p347e529876)" d="M 288.028175 288.430125 
L 293.243509 288.430125 
L 293.243509 275.758125 
L 288.028175 275.758125 
z
" style="fill:#d95f0e;opacity:0.5;"/>
   </g>
   <g id="patch_38">
    <path clip-path="url(#p347e529876)" d="M 294.547343 288.430125 
L 299.762677 288.430125 
L 299.762677 284.628525 
L 294.547343 284.628525 
z
" style="fill:#d95f0e;opacity:0.5;"/>
   </g>
   <g id="patch_39">
    <path clip-path="url(#p347e529876)" d="M 301.06651 288.430125 
L 306.281844 288.430125 
L 306.281844 280.826925 
L 301.06651 280.826925 
z
" style="fill:#d95f0e;opacity:0.5;"/>
   </g>
   <g id="patch_40">
    <path clip-path="url(#p347e529876)" d="M 307.585678 288.430125 
L 312.801012 288.430125 
L 312.801012 287.162925 
L 307.585678 287.162925 
z
" style="fill:#d95f0e;opacity:0.5;"/>
   </g>
   <g id="patch_41">
    <path clip-path="url(#p347e529876)" d="M 314.104845 288.430125 
L 319.320179 288.430125 
L 319.320179 287.162925 
L 314.104845 287.162925 
z
" style="fill:#d95f0e;opacity:0.5;"/>
   </g>
   <g id="patch_42">
    <path clip-path="url(#p347e529876)" d="M 320.624013 288.430125 
L 325.839347 288.430125 
L 325.839347 284.628525 
L 320.624013 284.628525 
z
" style="fill:#d95f0e;opacity:0.5;"/>
   </g>
   <g id="patch_43">
    <path clip-path="url(#p347e529876)" d="M 327.14318 288.430125 
L 332.358515 288.430125 
L 332.358515 283.361325 
L 327.14318 283.361325 
z
" style="fill:#d95f0e;opacity:0.5;"/>
   </g>
   <g id="patch_44">
    <path clip-path="url(#p347e529876)" d="M 333.662348 288.430125 
L 338.877682 288.430125 
L 338.877682 287.162925 
L 333.662348 287.162925 
z
" style="fill:#d95f0e;opacity:0.5;"/>
   </g>
   <g id="patch_45">
    <path clip-path="url(#p347e529876)" d="M 340.181516 288.430125 
L 345.39685 288.430125 
L 345.39685 264.353325 
L 340.181516 264.353325 
z
" style="fill:#d95f0e;opacity:0.5;"/>
   </g>
   <g id="patch_46">
    <path clip-path="url(#p347e529876)" d="M 346.700683 288.430125 
L 351.916017 288.430125 
L 351.916017 288.430125 
L 346.700683 288.430125 
z
" style="fill:#d95f0e;opacity:0.5;"/>
   </g>
   <g id="patch_47">
    <path clip-path="url(#p347e529876)" d="M 353.219851 288.430125 
L 358.435185 288.430125 
L 358.435185 288.430125 
L 353.219851 288.430125 
z
" style="fill:#d95f0e;opacity:0.5;"/>
   </g>
   <g id="patch_48">
    <path clip-path="url(#p347e529876)" d="M 359.739018 288.430125 
L 364.954352 288.430125 
L 364.954352 284.628525 
L 359.739018 284.628525 
z
" style="fill:#d95f0e;opacity:0.5;"/>
   </g>
   <g id="patch_49">
    <path clip-path="url(#p347e529876)" d="M 366.258186 288.430125 
L 371.47352 288.430125 
L 371.47352 288.430125 
L 366.258186 288.430125 
z
" style="fill:#d95f0e;opacity:0.5;"/>
   </g>
   <g id="patch_50">
    <path clip-path="url(#p347e529876)" d="M 372.777354 288.430125 
L 377.992688 288.430125 
L 377.992688 287.162925 
L 372.777354 287.162925 
z
" style="fill:#d95f0e;opacity:0.5;"/>
   </g>
   <g id="patch_51">
    <path clip-path="url(#p347e529876)" d="M 379.296521 288.430125 
L 384.511855 288.430125 
L 384.511855 288.430125 
L 379.296521 288.430125 
z
" style="fill:#d95f0e;opacity:0.5;"/>
   </g>
   <g id="patch_52">
    <path clip-path="url(#p347e529876)" d="M 385.815689 288.430125 
L 391.031023 288.430125 
L 391.031023 287.162925 
L 385.815689 287.162925 
z
" style="fill:#d95f0e;opacity:0.5;"/>
   </g>
   <g id="patch_53">
    <path clip-path="url(#p347e529876)" d="M 73.852139 288.430125 
L 79.067473 288.430125 
L 79.067473 275.758125 
L 73.852139 275.758125 
z
" style="fill:#43a2ca;opacity:0.8;"/>
   </g>
   <g id="patch_54">
    <path clip-path="url(#p347e529876)" d="M 79.25349 288.430125 
L 84.468824 288.430125 
L 84.468824 275.758125 
L 79.25349 275.758125 
z
" style="fill:#43a2ca;opacity:0.8;"/>
   </g>
   <g id="patch_55">
    <path clip-path="url(#p347e529876)" d="M 84.654841 288.430125 
L 89.870175 288.430125 
L 89.870175 288.430125 
L 84.654841 288.430125 
z
" style="fill:#43a2ca;opacity:0.8;"/>
   </g>
   <g id="patch_56">
    <path clip-path="url(#p347e529876)" d="M 90.056192 288.430125 
L 95.271526 288.430125 
L 95.271526 288.430125 
L 90.056192 288.430125 
z
" style="fill:#43a2ca;opacity:0.8;"/>
   </g>
   <g id="patch_57">
    <path clip-path="url(#p347e529876)" d="M 95.457543 288.430125 
L 100.672877 288.430125 
L 100.672877 263.086125 
L 95.457543 263.086125 
z
" style="fill:#43a2ca;opacity:0.8;"/>
   </g>
   <g id="patch_58">
    <path clip-path="url(#p347e529876)" d="M 100.858895 288.430125 
L 106.074229 288.430125 
L 106.074229 275.758125 
L 100.858895 275.758125 
z
" style="fill:#43a2ca;opacity:0.8;"/>
   </g>
   <g id="patch_59">
    <path clip-path="url(#p347e529876)" d="M 106.260246 288.430125 
L 111.47558 288.430125 
L 111.47558 275.758125 
L 106.260246 275.758125 
z
" style="fill:#43a2ca;opacity:0.8;"/>
   </g>
   <g id="patch_60">
    <path clip-path="url(#p347e529876)" d="M 111.661597 288.430125 
L 116.876931 288.430125 
L 116.876931 237.742125 
L 111.661597 237.742125 
z
" style="fill:#43a2ca;opacity:0.8;"/>
   </g>
   <g id="patch_61">
    <path clip-path="url(#p347e529876)" d="M 117.062948 288.430125 
L 122.278282 288.430125 
L 122.278282 263.086125 
L 117.062948 263.086125 
z
" style="fill:#43a2ca;opacity:0.8;"/>
   </g>
   <g id="patch_62">
    <path clip-path="url(#p347e529876)" d="M 122.464299 288.430125 
L 127.679633 288.430125 
L 127.679633 275.758125 
L 122.464299 275.758125 
z
" style="fill:#43a2ca;opacity:0.8;"/>
   </g>
   <g id="patch_63">
    <path clip-path="url(#p347e529876)" d="M 127.86565 288.430125 
L 133.080984 288.430125 
L 133.080984 275.758125 
L 127.86565 275.758125 
z
" style="fill:#43a2ca;opacity:0.8;"/>
   </g>
   <g id="patch_64">
    <path clip-path="url(#p347e529876)" d="M 133.267002 288.430125 
L 138.482336 288.430125 
L 138.482336 275.758125 
L 133.267002 275.758125 
z
" style="fill:#43a2ca;opacity:0.8;"/>
   </g>
   <g id="patch_65">
    <path clip-path="url(#p347e529876)" d="M 138.668353 288.430125 
L 143.883687 288.430125 
L 143.883687 225.070125 
L 138.668353 225.070125 
z
" style="fill:#43a2ca;opacity:0.8;"/>
   </g>
   <g id="patch_66">
    <path clip-path="url(#p347e529876)" d="M 144.069704 288.430125 
L 149.285038 288.430125 
L 149.285038 225.070125 
L 144.069704 225.070125 
z
" style="fill:#43a2ca;opacity:0.8;"/>
   </g>
   <g id="patch_67">
    <path clip-path="url(#p347e529876)" d="M 149.471055 288.430125 
L 154.686389 288.430125 
L 154.686389 187.054125 
L 149.471055 187.054125 
z
" style="fill:#43a2ca;opacity:0.8;"/>
   </g>
   <g id="patch_68">
    <path clip-path="url(#p347e529876)" d="M 154.872406 288.430125 
L 160.08774 288.430125 
L 160.08774 161.710125 
L 154.872406 161.710125 
z
" style="fill:#43a2ca;opacity:0.8;"/>
   </g>
   <g id="patch_69">
    <path clip-path="url(#p347e529876)" d="M 160.273757 288.430125 
L 165.489092 288.430125 
L 165.489092 34.990125 
L 160.273757 34.990125 
z
" style="fill:#43a2ca;opacity:0.8;"/>
   </g>
   <g id="patch_70">
    <path clip-path="url(#p347e529876)" d="M 165.675109 288.430125 
L 170.890443 288.430125 
L 170.890443 263.086125 
L 165.675109 263.086125 
z
" style="fill:#43a2ca;opacity:0.8;"/>
   </g>
   <g id="patch_71">
    <path clip-path="url(#p347e529876)" d="M 171.07646 288.430125 
L 176.291794 288.430125 
L 176.291794 263.086125 
L 171.07646 263.086125 
z
" style="fill:#43a2ca;opacity:0.8;"/>
   </g>
   <g id="patch_72">
    <path clip-path="url(#p347e529876)" d="M 176.477811 288.430125 
L 181.693145 288.430125 
L 181.693145 225.070125 
L 176.477811 225.070125 
z
" style="fill:#43a2ca;opacity:0.8;"/>
   </g>
   <g id="patch_73">
    <path clip-path="url(#p347e529876)" d="M 181.879162 288.430125 
L 187.094496 288.430125 
L 187.094496 263.086125 
L 181.879162 263.086125 
z
" style="fill:#43a2ca;opacity:0.8;"/>
   </g>
   <g id="patch_74">
    <path clip-path="url(#p347e529876)" d="M 187.280513 288.430125 
L 192.495847 288.430125 
L 192.495847 250.414125 
L 187.280513 250.414125 
z
" style="fill:#43a2ca;opacity:0.8;"/>
   </g>
   <g id="patch_75">
    <path clip-path="url(#p347e529876)" d="M 192.681865 288.430125 
L 197.897199 288.430125 
L 197.897199 263.086125 
L 192.681865 263.086125 
z
" style="fill:#43a2ca;opacity:0.8;"/>
   </g>
   <g id="patch_76">
    <path clip-path="url(#p347e529876)" d="M 198.083216 288.430125 
L 203.29855 288.430125 
L 203.29855 225.070125 
L 198.083216 225.070125 
z
" style="fill:#43a2ca;opacity:0.8;"/>
   </g>
   <g id="patch_77">
    <path clip-path="url(#p347e529876)" d="M 203.484567 288.430125 
L 208.699901 288.430125 
L 208.699901 263.086125 
L 203.484567 263.086125 
z
" style="fill:#43a2ca;opacity:0.8;"/>
   </g>
   <g id="patch_78">
    <path clip-path="url(#p347e529876)" d="M 208.885918 288.430125 
L 214.101252 288.430125 
L 214.101252 237.742125 
L 208.885918 237.742125 
z
" style="fill:#43a2ca;opacity:0.8;"/>
   </g>
   <g id="patch_79">
    <path clip-path="url(#p347e529876)" d="M 214.287269 288.430125 
L 219.502603 288.430125 
L 219.502603 250.414125 
L 214.287269 250.414125 
z
" style="fill:#43a2ca;opacity:0.8;"/>
   </g>
   <g id="patch_80">
    <path clip-path="url(#p347e529876)" d="M 219.68862 288.430125 
L 224.903954 288.430125 
L 224.903954 288.430125 
L 219.68862 288.430125 
z
" style="fill:#43a2ca;opacity:0.8;"/>
   </g>
   <g id="patch_81">
    <path clip-path="url(#p347e529876)" d="M 225.089972 288.430125 
L 230.305306 288.430125 
L 230.305306 263.086125 
L 225.089972 263.086125 
z
" style="fill:#43a2ca;opacity:0.8;"/>
   </g>
   <g id="patch_82">
    <path clip-path="url(#p347e529876)" d="M 230.491323 288.430125 
L 235.706657 288.430125 
L 235.706657 288.430125 
L 230.491323 288.430125 
z
" style="fill:#43a2ca;opacity:0.8;"/>
   </g>
   <g id="patch_83">
    <path clip-path="url(#p347e529876)" d="M 235.892674 288.430125 
L 241.108008 288.430125 
L 241.108008 288.430125 
L 235.892674 288.430125 
z
" style="fill:#43a2ca;opacity:0.8;"/>
   </g>
   <g id="patch_84">
    <path clip-path="url(#p347e529876)" d="M 241.294025 288.430125 
L 246.509359 288.430125 
L 246.509359 275.758125 
L 241.294025 275.758125 
z
" style="fill:#43a2ca;opacity:0.8;"/>
   </g>
   <g id="patch_85">
    <path clip-path="url(#p347e529876)" d="M 246.695376 288.430125 
L 251.91071 288.430125 
L 251.91071 275.758125 
L 246.695376 275.758125 
z
" style="fill:#43a2ca;opacity:0.8;"/>
   </g>
   <g id="patch_86">
    <path clip-path="url(#p347e529876)" d="M 252.096727 288.430125 
L 257.312062 288.430125 
L 257.312062 288.430125 
L 252.096727 288.430125 
z
" style="fill:#43a2ca;opacity:0.8;"/>
   </g>
   <g id="patch_87">
    <path clip-path="url(#p347e529876)" d="M 257.498079 288.430125 
L 262.713413 288.430125 
L 262.713413 275.758125 
L 257.498079 275.758125 
z
" style="fill:#43a2ca;opacity:0.8;"/>
   </g>
   <g id="patch_88">
    <path clip-path="url(#p347e529876)" d="M 262.89943 288.430125 
L 268.114764 288.430125 
L 268.114764 275.758125 
L 262.89943 275.758125 
z
" style="fill:#43a2ca;opacity:0.8;"/>
   </g>
   <g id="patch_89">
    <path clip-path="url(#p347e529876)" d="M 268.300781 288.430125 
L 273.516115 288.430125 
L 273.516115 275.758125 
L 268.300781 275.758125 
z
" style="fill:#43a2ca;opacity:0.8;"/>
   </g>
   <g id="patch_90">
    <path clip-path="url(#p347e529876)" d="M 273.702132 288.430125 
L 278.917466 288.430125 
L 278.917466 275.758125 
L 273.702132 275.758125 
z
" style="fill:#43a2ca;opacity:0.8;"/>
   </g>
   <g id="patch_91">
    <path clip-path="url(#p347e529876)" d="M 279.103483 288.430125 
L 284.318817 288.430125 
L 284.318817 250.414125 
L 279.103483 250.414125 
z
" style="fill:#43a2ca;opacity:0.8;"/>
   </g>
   <g id="patch_92">
    <path clip-path="url(#p347e529876)" d="M 284.504835 288.430125 
L 289.720169 288.430125 
L 289.720169 288.430125 
L 284.504835 288.430125 
z
" style="fill:#43a2ca;opacity:0.8;"/>
   </g>
   <g id="patch_93">
    <path clip-path="url(#p347e529876)" d="M 289.906186 288.430125 
L 295.12152 288.430125 
L 295.12152 288.430125 
L 289.906186 288.430125 
z
" style="fill:#43a2ca;opacity:0.8;"/>
   </g>
   <g id="patch_94">
    <path clip-path="url(#p347e529876)" d="M 295.307537 288.430125 
L 300.522871 288.430125 
L 300.522871 288.430125 
L 295.307537 288.430125 
z
" style="fill:#43a2ca;opacity:0.8;"/>
   </g>
   <g id="patch_95">
    <path clip-path="url(#p347e529876)" d="M 300.708888 288.430125 
L 305.924222 288.430125 
L 305.924222 275.758125 
L 300.708888 275.758125 
z
" style="fill:#43a2ca;opacity:0.8;"/>
   </g>
   <g id="patch_96">
    <path clip-path="url(#p347e529876)" d="M 306.110239 288.430125 
L 311.325573 288.430125 
L 311.325573 263.086125 
L 306.110239 263.086125 
z
" style="fill:#43a2ca;opacity:0.8;"/>
   </g>
   <g id="patch_97">
    <path clip-path="url(#p347e529876)" d="M 311.51159 288.430125 
L 316.726924 288.430125 
L 316.726924 288.430125 
L 311.51159 288.430125 
z
" style="fill:#43a2ca;opacity:0.8;"/>
   </g>
   <g id="patch_98">
    <path clip-path="url(#p347e529876)" d="M 316.912942 288.430125 
L 322.128276 288.430125 
L 322.128276 288.430125 
L 316.912942 288.430125 
z
" style="fill:#43a2ca;opacity:0.8;"/>
   </g>
   <g id="patch_99">
    <path clip-path="url(#p347e529876)" d="M 322.314293 288.430125 
L 327.529627 288.430125 
L 327.529627 288.430125 
L 322.314293 288.430125 
z
" style="fill:#43a2ca;opacity:0.8;"/>
   </g>
   <g id="patch_100">
    <path clip-path="url(#p347e529876)" d="M 327.715644 288.430125 
L 332.930978 288.430125 
L 332.930978 288.430125 
L 327.715644 288.430125 
z
" style="fill:#43a2ca;opacity:0.8;"/>
   </g>
   <g id="patch_101">
    <path clip-path="url(#p347e529876)" d="M 333.116995 288.430125 
L 338.332329 288.430125 
L 338.332329 288.430125 
L 333.116995 288.430125 
z
" style="fill:#43a2ca;opacity:0.8;"/>
   </g>
   <g id="patch_102">
    <path clip-path="url(#p347e529876)" d="M 338.518346 288.430125 
L 343.73368 288.430125 
L 343.73368 263.086125 
L 338.518346 263.086125 
z
" style="fill:#43a2ca;opacity:0.8;"/>
   </g>
   <g id="matplotlib.axis_1">
    <g id="xtick_1">
     <g id="line2d_1">
      <defs>
       <path d="M 0 0 
L 0 3.5 
" id="m3e6e221040" style="stroke:#000000;stroke-width:0.8;"/>
      </defs>
      <g>
       <use style="stroke:#000000;stroke-width:0.8;" x="68.347173" xlink:href="#m3e6e221040" y="288.430125"/>
      </g>
     </g>
     <g id="text_1">
      <!-- −0.2 -->
      <defs>
       <path d="M 10.59375 35.5 
L 73.1875 35.5 
L 73.1875 27.203125 
L 10.59375 27.203125 
z
" id="DejaVuSans-8722"/>
       <path d="M 31.78125 66.40625 
Q 24.171875 66.40625 20.328125 58.90625 
Q 16.5 51.421875 16.5 36.375 
Q 16.5 21.390625 20.328125 13.890625 
Q 24.171875 6.390625 31.78125 6.390625 
Q 39.453125 6.390625 43.28125 13.890625 
Q 47.125 21.390625 47.125 36.375 
Q 47.125 51.421875 43.28125 58.90625 
Q 39.453125 66.40625 31.78125 66.40625 
z
M 31.78125 74.21875 
Q 44.046875 74.21875 50.515625 64.515625 
Q 56.984375 54.828125 56.984375 36.375 
Q 56.984375 17.96875 50.515625 8.265625 
Q 44.046875 -1.421875 31.78125 -1.421875 
Q 19.53125 -1.421875 13.0625 8.265625 
Q 6.59375 17.96875 6.59375 36.375 
Q 6.59375 54.828125 13.0625 64.515625 
Q 19.53125 74.21875 31.78125 74.21875 
z
" id="DejaVuSans-48"/>
       <path d="M 10.6875 12.40625 
L 21 12.40625 
L 21 0 
L 10.6875 0 
z
" id="DejaVuSans-46"/>
       <path d="M 19.1875 8.296875 
L 53.609375 8.296875 
L 53.609375 0 
L 7.328125 0 
L 7.328125 8.296875 
Q 12.9375 14.109375 22.625 23.890625 
Q 32.328125 33.6875 34.8125 36.53125 
Q 39.546875 41.84375 41.421875 45.53125 
Q 43.3125 49.21875 43.3125 52.78125 
Q 43.3125 58.59375 39.234375 62.25 
Q 35.15625 65.921875 28.609375 65.921875 
Q 23.96875 65.921875 18.8125 64.3125 
Q 13.671875 62.703125 7.8125 59.421875 
L 7.8125 69.390625 
Q 13.765625 71.78125 18.9375 73 
Q 24.125 74.21875 28.421875 74.21875 
Q 39.75 74.21875 46.484375 68.546875 
Q 53.21875 62.890625 53.21875 53.421875 
Q 53.21875 48.921875 51.53125 44.890625 
Q 49.859375 40.875 45.40625 35.40625 
Q 44.1875 33.984375 37.640625 27.21875 
Q 31.109375 20.453125 19.1875 8.296875 
z
" id="DejaVuSans-50"/>
      </defs>
      <g transform="translate(56.205767 303.028562)scale(0.1 -0.1)">
       <use xlink:href="#DejaVuSans-8722"/>
       <use x="83.789062" xlink:href="#DejaVuSans-48"/>
       <use x="147.412109" xlink:href="#DejaVuSans-46"/>
       <use x="179.199219" xlink:href="#DejaVuSans-50"/>
      </g>
     </g>
    </g>
    <g id="xtick_2">
     <g id="line2d_2">
      <g>
       <use style="stroke:#000000;stroke-width:0.8;" x="126.881733" xlink:href="#m3e6e221040" y="288.430125"/>
      </g>
     </g>
     <g id="text_2">
      <!-- −0.1 -->
      <defs>
       <path d="M 12.40625 8.296875 
L 28.515625 8.296875 
L 28.515625 63.921875 
L 10.984375 60.40625 
L 10.984375 69.390625 
L 28.421875 72.90625 
L 38.28125 72.90625 
L 38.28125 8.296875 
L 54.390625 8.296875 
L 54.390625 0 
L 12.40625 0 
z
" id="DejaVuSans-49"/>
      </defs>
      <g transform="translate(114.740326 303.028562)scale(0.1 -0.1)">
       <use xlink:href="#DejaVuSans-8722"/>
       <use x="83.789062" xlink:href="#DejaVuSans-48"/>
       <use x="147.412109" xlink:href="#DejaVuSans-46"/>
       <use x="179.199219" xlink:href="#DejaVuSans-49"/>
      </g>
     </g>
    </g>
    <g id="xtick_3">
     <g id="line2d_3">
      <g>
       <use style="stroke:#000000;stroke-width:0.8;" x="185.416292" xlink:href="#m3e6e221040" y="288.430125"/>
      </g>
     </g>
     <g id="text_3">
      <!-- 0.0 -->
      <g transform="translate(177.46473 303.028562)scale(0.1 -0.1)">
       <use xlink:href="#DejaVuSans-48"/>
       <use x="63.623047" xlink:href="#DejaVuSans-46"/>
       <use x="95.410156" xlink:href="#DejaVuSans-48"/>
      </g>
     </g>
    </g>
    <g id="xtick_4">
     <g id="line2d_4">
      <g>
       <use style="stroke:#000000;stroke-width:0.8;" x="243.950852" xlink:href="#m3e6e221040" y="288.430125"/>
      </g>
     </g>
     <g id="text_4">
      <!-- 0.1 -->
      <g transform="translate(235.999289 303.028562)scale(0.1 -0.1)">
       <use xlink:href="#DejaVuSans-48"/>
       <use x="63.623047" xlink:href="#DejaVuSans-46"/>
       <use x="95.410156" xlink:href="#DejaVuSans-49"/>
      </g>
     </g>
    </g>
    <g id="xtick_5">
     <g id="line2d_5">
      <g>
       <use style="stroke:#000000;stroke-width:0.8;" x="302.485411" xlink:href="#m3e6e221040" y="288.430125"/>
      </g>
     </g>
     <g id="text_5">
      <!-- 0.2 -->
      <g transform="translate(294.533848 303.028562)scale(0.1 -0.1)">
       <use xlink:href="#DejaVuSans-48"/>
       <use x="63.623047" xlink:href="#DejaVuSans-46"/>
       <use x="95.410156" xlink:href="#DejaVuSans-50"/>
      </g>
     </g>
    </g>
    <g id="xtick_6">
     <g id="line2d_6">
      <g>
       <use style="stroke:#000000;stroke-width:0.8;" x="361.01997" xlink:href="#m3e6e221040" y="288.430125"/>
      </g>
     </g>
     <g id="text_6">
      <!-- 0.3 -->
      <defs>
       <path d="M 40.578125 39.3125 
Q 47.65625 37.796875 51.625 33 
Q 55.609375 28.21875 55.609375 21.1875 
Q 55.609375 10.40625 48.1875 4.484375 
Q 40.765625 -1.421875 27.09375 -1.421875 
Q 22.515625 -1.421875 17.65625 -0.515625 
Q 12.796875 0.390625 7.625 2.203125 
L 7.625 11.71875 
Q 11.71875 9.328125 16.59375 8.109375 
Q 21.484375 6.890625 26.8125 6.890625 
Q 36.078125 6.890625 40.9375 10.546875 
Q 45.796875 14.203125 45.796875 21.1875 
Q 45.796875 27.640625 41.28125 31.265625 
Q 36.765625 34.90625 28.71875 34.90625 
L 20.21875 34.90625 
L 20.21875 43.015625 
L 29.109375 43.015625 
Q 36.375 43.015625 40.234375 45.921875 
Q 44.09375 48.828125 44.09375 54.296875 
Q 44.09375 59.90625 40.109375 62.90625 
Q 36.140625 65.921875 28.71875 65.921875 
Q 24.65625 65.921875 20.015625 65.03125 
Q 15.375 64.15625 9.8125 62.3125 
L 9.8125 71.09375 
Q 15.4375 72.65625 20.34375 73.4375 
Q 25.25 74.21875 29.59375 74.21875 
Q 40.828125 74.21875 47.359375 69.109375 
Q 53.90625 64.015625 53.90625 55.328125 
Q 53.90625 49.265625 50.4375 45.09375 
Q 46.96875 40.921875 40.578125 39.3125 
z
" id="DejaVuSans-51"/>
      </defs>
      <g transform="translate(353.068408 303.028562)scale(0.1 -0.1)">
       <use xlink:href="#DejaVuSans-48"/>
       <use x="63.623047" xlink:href="#DejaVuSans-46"/>
       <use x="95.410156" xlink:href="#DejaVuSans-51"/>
      </g>
     </g>
    </g>
    <g id="text_7">
     <!-- Rho value -->
     <defs>
      <path d="M 44.390625 34.1875 
Q 47.5625 33.109375 50.5625 29.59375 
Q 53.5625 26.078125 56.59375 19.921875 
L 66.609375 0 
L 56 0 
L 46.6875 18.703125 
Q 43.0625 26.03125 39.671875 28.421875 
Q 36.28125 30.8125 30.421875 30.8125 
L 19.671875 30.8125 
L 19.671875 0 
L 9.8125 0 
L 9.8125 72.90625 
L 32.078125 72.90625 
Q 44.578125 72.90625 50.734375 67.671875 
Q 56.890625 62.453125 56.890625 51.90625 
Q 56.890625 45.015625 53.6875 40.46875 
Q 50.484375 35.9375 44.390625 34.1875 
z
M 19.671875 64.796875 
L 19.671875 38.921875 
L 32.078125 38.921875 
Q 39.203125 38.921875 42.84375 42.21875 
Q 46.484375 45.515625 46.484375 51.90625 
Q 46.484375 58.296875 42.84375 61.546875 
Q 39.203125 64.796875 32.078125 64.796875 
z
" id="DejaVuSans-82"/>
      <path d="M 54.890625 33.015625 
L 54.890625 0 
L 45.90625 0 
L 45.90625 32.71875 
Q 45.90625 40.484375 42.875 44.328125 
Q 39.84375 48.1875 33.796875 48.1875 
Q 26.515625 48.1875 22.3125 43.546875 
Q 18.109375 38.921875 18.109375 30.90625 
L 18.109375 0 
L 9.078125 0 
L 9.078125 75.984375 
L 18.109375 75.984375 
L 18.109375 46.1875 
Q 21.34375 51.125 25.703125 53.5625 
Q 30.078125 56 35.796875 56 
Q 45.21875 56 50.046875 50.171875 
Q 54.890625 44.34375 54.890625 33.015625 
z
" id="DejaVuSans-104"/>
      <path d="M 30.609375 48.390625 
Q 23.390625 48.390625 19.1875 42.75 
Q 14.984375 37.109375 14.984375 27.296875 
Q 14.984375 17.484375 19.15625 11.84375 
Q 23.34375 6.203125 30.609375 6.203125 
Q 37.796875 6.203125 41.984375 11.859375 
Q 46.1875 17.53125 46.1875 27.296875 
Q 46.1875 37.015625 41.984375 42.703125 
Q 37.796875 48.390625 30.609375 48.390625 
z
M 30.609375 56 
Q 42.328125 56 49.015625 48.375 
Q 55.71875 40.765625 55.71875 27.296875 
Q 55.71875 13.875 49.015625 6.21875 
Q 42.328125 -1.421875 30.609375 -1.421875 
Q 18.84375 -1.421875 12.171875 6.21875 
Q 5.515625 13.875 5.515625 27.296875 
Q 5.515625 40.765625 12.171875 48.375 
Q 18.84375 56 30.609375 56 
z
" id="DejaVuSans-111"/>
      <path id="DejaVuSans-32"/>
      <path d="M 2.984375 54.6875 
L 12.5 54.6875 
L 29.59375 8.796875 
L 46.6875 54.6875 
L 56.203125 54.6875 
L 35.6875 0 
L 23.484375 0 
z
" id="DejaVuSans-118"/>
      <path d="M 34.28125 27.484375 
Q 23.390625 27.484375 19.1875 25 
Q 14.984375 22.515625 14.984375 16.5 
Q 14.984375 11.71875 18.140625 8.90625 
Q 21.296875 6.109375 26.703125 6.109375 
Q 34.1875 6.109375 38.703125 11.40625 
Q 43.21875 16.703125 43.21875 25.484375 
L 43.21875 27.484375 
z
M 52.203125 31.203125 
L 52.203125 0 
L 43.21875 0 
L 43.21875 8.296875 
Q 40.140625 3.328125 35.546875 0.953125 
Q 30.953125 -1.421875 24.3125 -1.421875 
Q 15.921875 -1.421875 10.953125 3.296875 
Q 6 8.015625 6 15.921875 
Q 6 25.140625 12.171875 29.828125 
Q 18.359375 34.515625 30.609375 34.515625 
L 43.21875 34.515625 
L 43.21875 35.40625 
Q 43.21875 41.609375 39.140625 45 
Q 35.0625 48.390625 27.6875 48.390625 
Q 23 48.390625 18.546875 47.265625 
Q 14.109375 46.140625 10.015625 43.890625 
L 10.015625 52.203125 
Q 14.9375 54.109375 19.578125 55.046875 
Q 24.21875 56 28.609375 56 
Q 40.484375 56 46.34375 49.84375 
Q 52.203125 43.703125 52.203125 31.203125 
z
" id="DejaVuSans-97"/>
      <path d="M 9.421875 75.984375 
L 18.40625 75.984375 
L 18.40625 0 
L 9.421875 0 
z
" id="DejaVuSans-108"/>
      <path d="M 8.5 21.578125 
L 8.5 54.6875 
L 17.484375 54.6875 
L 17.484375 21.921875 
Q 17.484375 14.15625 20.5 10.265625 
Q 23.53125 6.390625 29.59375 6.390625 
Q 36.859375 6.390625 41.078125 11.03125 
Q 45.3125 15.671875 45.3125 23.6875 
L 45.3125 54.6875 
L 54.296875 54.6875 
L 54.296875 0 
L 45.3125 0 
L 45.3125 8.40625 
Q 42.046875 3.421875 37.71875 1 
Q 33.40625 -1.421875 27.6875 -1.421875 
Q 18.265625 -1.421875 13.375 4.4375 
Q 8.5 10.296875 8.5 21.578125 
z
M 31.109375 56 
z
" id="DejaVuSans-117"/>
      <path d="M 56.203125 29.59375 
L 56.203125 25.203125 
L 14.890625 25.203125 
Q 15.484375 15.921875 20.484375 11.0625 
Q 25.484375 6.203125 34.421875 6.203125 
Q 39.59375 6.203125 44.453125 7.46875 
Q 49.3125 8.734375 54.109375 11.28125 
L 54.109375 2.78125 
Q 49.265625 0.734375 44.1875 -0.34375 
Q 39.109375 -1.421875 33.890625 -1.421875 
Q 20.796875 -1.421875 13.15625 6.1875 
Q 5.515625 13.8125 5.515625 26.8125 
Q 5.515625 40.234375 12.765625 48.109375 
Q 20.015625 56 32.328125 56 
Q 43.359375 56 49.78125 48.890625 
Q 56.203125 41.796875 56.203125 29.59375 
z
M 47.21875 32.234375 
Q 47.125 39.59375 43.09375 43.984375 
Q 39.0625 48.390625 32.421875 48.390625 
Q 24.90625 48.390625 20.390625 44.140625 
Q 15.875 39.890625 15.1875 32.171875 
z
" id="DejaVuSans-101"/>
     </defs>
     <g transform="translate(203.754531 316.706687)scale(0.1 -0.1)">
      <use xlink:href="#DejaVuSans-82"/>
      <use x="69.482422" xlink:href="#DejaVuSans-104"/>
      <use x="132.861328" xlink:href="#DejaVuSans-111"/>
      <use x="194.042969" xlink:href="#DejaVuSans-32"/>
      <use x="225.830078" xlink:href="#DejaVuSans-118"/>
      <use x="285.009766" xlink:href="#DejaVuSans-97"/>
      <use x="346.289062" xlink:href="#DejaVuSans-108"/>
      <use x="374.072266" xlink:href="#DejaVuSans-117"/>
      <use x="437.451172" xlink:href="#DejaVuSans-101"/>
     </g>
    </g>
   </g>
   <g id="matplotlib.axis_2">
    <g id="ytick_1">
     <g id="line2d_7">
      <defs>
       <path d="M 0 0 
L -3.5 0 
" id="m61f78d0e9e" style="stroke:#000000;stroke-width:0.8;"/>
      </defs>
      <g>
       <use style="stroke:#000000;stroke-width:0.8;" x="50.14375" xlink:href="#m61f78d0e9e" y="288.430125"/>
      </g>
     </g>
     <g id="text_8">
      <!-- 0.0 -->
      <g transform="translate(27.240625 292.229344)scale(0.1 -0.1)">
       <use xlink:href="#DejaVuSans-48"/>
       <use x="63.623047" xlink:href="#DejaVuSans-46"/>
       <use x="95.410156" xlink:href="#DejaVuSans-48"/>
      </g>
     </g>
    </g>
    <g id="ytick_2">
     <g id="line2d_8">
      <g>
       <use style="stroke:#000000;stroke-width:0.8;" x="50.14375" xlink:href="#m61f78d0e9e" y="256.750125"/>
      </g>
     </g>
     <g id="text_9">
      <!-- 2.5 -->
      <defs>
       <path d="M 10.796875 72.90625 
L 49.515625 72.90625 
L 49.515625 64.59375 
L 19.828125 64.59375 
L 19.828125 46.734375 
Q 21.96875 47.46875 24.109375 47.828125 
Q 26.265625 48.1875 28.421875 48.1875 
Q 40.625 48.1875 47.75 41.5 
Q 54.890625 34.8125 54.890625 23.390625 
Q 54.890625 11.625 47.5625 5.09375 
Q 40.234375 -1.421875 26.90625 -1.421875 
Q 22.3125 -1.421875 17.546875 -0.640625 
Q 12.796875 0.140625 7.71875 1.703125 
L 7.71875 11.625 
Q 12.109375 9.234375 16.796875 8.0625 
Q 21.484375 6.890625 26.703125 6.890625 
Q 35.15625 6.890625 40.078125 11.328125 
Q 45.015625 15.765625 45.015625 23.390625 
Q 45.015625 31 40.078125 35.4375 
Q 35.15625 39.890625 26.703125 39.890625 
Q 22.75 39.890625 18.8125 39.015625 
Q 14.890625 38.140625 10.796875 36.28125 
z
" id="DejaVuSans-53"/>
      </defs>
      <g transform="translate(27.240625 260.549344)scale(0.1 -0.1)">
       <use xlink:href="#DejaVuSans-50"/>
       <use x="63.623047" xlink:href="#DejaVuSans-46"/>
       <use x="95.410156" xlink:href="#DejaVuSans-53"/>
      </g>
     </g>
    </g>
    <g id="ytick_3">
     <g id="line2d_9">
      <g>
       <use style="stroke:#000000;stroke-width:0.8;" x="50.14375" xlink:href="#m61f78d0e9e" y="225.070125"/>
      </g>
     </g>
     <g id="text_10">
      <!-- 5.0 -->
      <g transform="translate(27.240625 228.869344)scale(0.1 -0.1)">
       <use xlink:href="#DejaVuSans-53"/>
       <use x="63.623047" xlink:href="#DejaVuSans-46"/>
       <use x="95.410156" xlink:href="#DejaVuSans-48"/>
      </g>
     </g>
    </g>
    <g id="ytick_4">
     <g id="line2d_10">
      <g>
       <use style="stroke:#000000;stroke-width:0.8;" x="50.14375" xlink:href="#m61f78d0e9e" y="193.390125"/>
      </g>
     </g>
     <g id="text_11">
      <!-- 7.5 -->
      <defs>
       <path d="M 8.203125 72.90625 
L 55.078125 72.90625 
L 55.078125 68.703125 
L 28.609375 0 
L 18.3125 0 
L 43.21875 64.59375 
L 8.203125 64.59375 
z
" id="DejaVuSans-55"/>
      </defs>
      <g transform="translate(27.240625 197.189344)scale(0.1 -0.1)">
       <use xlink:href="#DejaVuSans-55"/>
       <use x="63.623047" xlink:href="#DejaVuSans-46"/>
       <use x="95.410156" xlink:href="#DejaVuSans-53"/>
      </g>
     </g>
    </g>
    <g id="ytick_5">
     <g id="line2d_11">
      <g>
       <use style="stroke:#000000;stroke-width:0.8;" x="50.14375" xlink:href="#m61f78d0e9e" y="161.710125"/>
      </g>
     </g>
     <g id="text_12">
      <!-- 10.0 -->
      <g transform="translate(20.878125 165.509344)scale(0.1 -0.1)">
       <use xlink:href="#DejaVuSans-49"/>
       <use x="63.623047" xlink:href="#DejaVuSans-48"/>
       <use x="127.246094" xlink:href="#DejaVuSans-46"/>
       <use x="159.033203" xlink:href="#DejaVuSans-48"/>
      </g>
     </g>
    </g>
    <g id="ytick_6">
     <g id="line2d_12">
      <g>
       <use style="stroke:#000000;stroke-width:0.8;" x="50.14375" xlink:href="#m61f78d0e9e" y="130.030125"/>
      </g>
     </g>
     <g id="text_13">
      <!-- 12.5 -->
      <g transform="translate(20.878125 133.829344)scale(0.1 -0.1)">
       <use xlink:href="#DejaVuSans-49"/>
       <use x="63.623047" xlink:href="#DejaVuSans-50"/>
       <use x="127.246094" xlink:href="#DejaVuSans-46"/>
       <use x="159.033203" xlink:href="#DejaVuSans-53"/>
      </g>
     </g>
    </g>
    <g id="ytick_7">
     <g id="line2d_13">
      <g>
       <use style="stroke:#000000;stroke-width:0.8;" x="50.14375" xlink:href="#m61f78d0e9e" y="98.350125"/>
      </g>
     </g>
     <g id="text_14">
      <!-- 15.0 -->
      <g transform="translate(20.878125 102.149344)scale(0.1 -0.1)">
       <use xlink:href="#DejaVuSans-49"/>
       <use x="63.623047" xlink:href="#DejaVuSans-53"/>
       <use x="127.246094" xlink:href="#DejaVuSans-46"/>
       <use x="159.033203" xlink:href="#DejaVuSans-48"/>
      </g>
     </g>
    </g>
    <g id="ytick_8">
     <g id="line2d_14">
      <g>
       <use style="stroke:#000000;stroke-width:0.8;" x="50.14375" xlink:href="#m61f78d0e9e" y="66.670125"/>
      </g>
     </g>
     <g id="text_15">
      <!-- 17.5 -->
      <g transform="translate(20.878125 70.469344)scale(0.1 -0.1)">
       <use xlink:href="#DejaVuSans-49"/>
       <use x="63.623047" xlink:href="#DejaVuSans-55"/>
       <use x="127.246094" xlink:href="#DejaVuSans-46"/>
       <use x="159.033203" xlink:href="#DejaVuSans-53"/>
      </g>
     </g>
    </g>
    <g id="ytick_9">
     <g id="line2d_15">
      <g>
       <use style="stroke:#000000;stroke-width:0.8;" x="50.14375" xlink:href="#m61f78d0e9e" y="34.990125"/>
      </g>
     </g>
     <g id="text_16">
      <!-- 20.0 -->
      <g transform="translate(20.878125 38.789344)scale(0.1 -0.1)">
       <use xlink:href="#DejaVuSans-50"/>
       <use x="63.623047" xlink:href="#DejaVuSans-48"/>
       <use x="127.246094" xlink:href="#DejaVuSans-46"/>
       <use x="159.033203" xlink:href="#DejaVuSans-48"/>
      </g>
     </g>
    </g>
    <g id="text_17">
     <!-- Number of bacteria -->
     <defs>
      <path d="M 9.8125 72.90625 
L 23.09375 72.90625 
L 55.421875 11.921875 
L 55.421875 72.90625 
L 64.984375 72.90625 
L 64.984375 0 
L 51.703125 0 
L 19.390625 60.984375 
L 19.390625 0 
L 9.8125 0 
z
" id="DejaVuSans-78"/>
      <path d="M 52 44.1875 
Q 55.375 50.25 60.0625 53.125 
Q 64.75 56 71.09375 56 
Q 79.640625 56 84.28125 50.015625 
Q 88.921875 44.046875 88.921875 33.015625 
L 88.921875 0 
L 79.890625 0 
L 79.890625 32.71875 
Q 79.890625 40.578125 77.09375 44.375 
Q 74.3125 48.1875 68.609375 48.1875 
Q 61.625 48.1875 57.5625 43.546875 
Q 53.515625 38.921875 53.515625 30.90625 
L 53.515625 0 
L 44.484375 0 
L 44.484375 32.71875 
Q 44.484375 40.625 41.703125 44.40625 
Q 38.921875 48.1875 33.109375 48.1875 
Q 26.21875 48.1875 22.15625 43.53125 
Q 18.109375 38.875 18.109375 30.90625 
L 18.109375 0 
L 9.078125 0 
L 9.078125 54.6875 
L 18.109375 54.6875 
L 18.109375 46.1875 
Q 21.1875 51.21875 25.484375 53.609375 
Q 29.78125 56 35.6875 56 
Q 41.65625 56 45.828125 52.96875 
Q 50 49.953125 52 44.1875 
z
" id="DejaVuSans-109"/>
      <path d="M 48.6875 27.296875 
Q 48.6875 37.203125 44.609375 42.84375 
Q 40.53125 48.484375 33.40625 48.484375 
Q 26.265625 48.484375 22.1875 42.84375 
Q 18.109375 37.203125 18.109375 27.296875 
Q 18.109375 17.390625 22.1875 11.75 
Q 26.265625 6.109375 33.40625 6.109375 
Q 40.53125 6.109375 44.609375 11.75 
Q 48.6875 17.390625 48.6875 27.296875 
z
M 18.109375 46.390625 
Q 20.953125 51.265625 25.265625 53.625 
Q 29.59375 56 35.59375 56 
Q 45.5625 56 51.78125 48.09375 
Q 58.015625 40.1875 58.015625 27.296875 
Q 58.015625 14.40625 51.78125 6.484375 
Q 45.5625 -1.421875 35.59375 -1.421875 
Q 29.59375 -1.421875 25.265625 0.953125 
Q 20.953125 3.328125 18.109375 8.203125 
L 18.109375 0 
L 9.078125 0 
L 9.078125 75.984375 
L 18.109375 75.984375 
z
" id="DejaVuSans-98"/>
      <path d="M 41.109375 46.296875 
Q 39.59375 47.171875 37.8125 47.578125 
Q 36.03125 48 33.890625 48 
Q 26.265625 48 22.1875 43.046875 
Q 18.109375 38.09375 18.109375 28.8125 
L 18.109375 0 
L 9.078125 0 
L 9.078125 54.6875 
L 18.109375 54.6875 
L 18.109375 46.1875 
Q 20.953125 51.171875 25.484375 53.578125 
Q 30.03125 56 36.53125 56 
Q 37.453125 56 38.578125 55.875 
Q 39.703125 55.765625 41.0625 55.515625 
z
" id="DejaVuSans-114"/>
      <path d="M 37.109375 75.984375 
L 37.109375 68.5 
L 28.515625 68.5 
Q 23.6875 68.5 21.796875 66.546875 
Q 19.921875 64.59375 19.921875 59.515625 
L 19.921875 54.6875 
L 34.71875 54.6875 
L 34.71875 47.703125 
L 19.921875 47.703125 
L 19.921875 0 
L 10.890625 0 
L 10.890625 47.703125 
L 2.296875 47.703125 
L 2.296875 54.6875 
L 10.890625 54.6875 
L 10.890625 58.5 
Q 10.890625 67.625 15.140625 71.796875 
Q 19.390625 75.984375 28.609375 75.984375 
z
" id="DejaVuSans-102"/>
      <path d="M 48.78125 52.59375 
L 48.78125 44.1875 
Q 44.96875 46.296875 41.140625 47.34375 
Q 37.3125 48.390625 33.40625 48.390625 
Q 24.65625 48.390625 19.8125 42.84375 
Q 14.984375 37.3125 14.984375 27.296875 
Q 14.984375 17.28125 19.8125 11.734375 
Q 24.65625 6.203125 33.40625 6.203125 
Q 37.3125 6.203125 41.140625 7.25 
Q 44.96875 8.296875 48.78125 10.40625 
L 48.78125 2.09375 
Q 45.015625 0.34375 40.984375 -0.53125 
Q 36.96875 -1.421875 32.421875 -1.421875 
Q 20.0625 -1.421875 12.78125 6.34375 
Q 5.515625 14.109375 5.515625 27.296875 
Q 5.515625 40.671875 12.859375 48.328125 
Q 20.21875 56 33.015625 56 
Q 37.15625 56 41.109375 55.140625 
Q 45.0625 54.296875 48.78125 52.59375 
z
" id="DejaVuSans-99"/>
      <path d="M 18.3125 70.21875 
L 18.3125 54.6875 
L 36.8125 54.6875 
L 36.8125 47.703125 
L 18.3125 47.703125 
L 18.3125 18.015625 
Q 18.3125 11.328125 20.140625 9.421875 
Q 21.96875 7.515625 27.59375 7.515625 
L 36.8125 7.515625 
L 36.8125 0 
L 27.59375 0 
Q 17.1875 0 13.234375 3.875 
Q 9.28125 7.765625 9.28125 18.015625 
L 9.28125 47.703125 
L 2.6875 47.703125 
L 2.6875 54.6875 
L 9.28125 54.6875 
L 9.28125 70.21875 
z
" id="DejaVuSans-116"/>
      <path d="M 9.421875 54.6875 
L 18.40625 54.6875 
L 18.40625 0 
L 9.421875 0 
z
M 9.421875 75.984375 
L 18.40625 75.984375 
L 18.40625 64.59375 
L 9.421875 64.59375 
z
" id="DejaVuSans-105"/>
     </defs>
     <g transform="translate(14.798438 203.990531)rotate(-90)scale(0.1 -0.1)">
      <use xlink:href="#DejaVuSans-78"/>
      <use x="74.804688" xlink:href="#DejaVuSans-117"/>
      <use x="138.183594" xlink:href="#DejaVuSans-109"/>
      <use x="235.595703" xlink:href="#DejaVuSans-98"/>
      <use x="299.072266" xlink:href="#DejaVuSans-101"/>
      <use x="360.595703" xlink:href="#DejaVuSans-114"/>
      <use x="401.708984" xlink:href="#DejaVuSans-32"/>
      <use x="433.496094" xlink:href="#DejaVuSans-111"/>
      <use x="494.677734" xlink:href="#DejaVuSans-102"/>
      <use x="529.882812" xlink:href="#DejaVuSans-32"/>
      <use x="561.669922" xlink:href="#DejaVuSans-98"/>
      <use x="625.146484" xlink:href="#DejaVuSans-97"/>
      <use x="686.425781" xlink:href="#DejaVuSans-99"/>
      <use x="741.40625" xlink:href="#DejaVuSans-116"/>
      <use x="780.615234" xlink:href="#DejaVuSans-101"/>
      <use x="842.138672" xlink:href="#DejaVuSans-114"/>
      <use x="883.251953" xlink:href="#DejaVuSans-105"/>
      <use x="911.035156" xlink:href="#DejaVuSans-97"/>
     </g>
    </g>
   </g>
   <g id="patch_103">
    <path d="M 50.14375 288.430125 
L 50.14375 22.318125 
" style="fill:none;stroke:#000000;stroke-linecap:square;stroke-linejoin:miter;stroke-width:0.8;"/>
   </g>
   <g id="patch_104">
    <path d="M 407.26375 288.430125 
L 407.26375 22.318125 
" style="fill:none;stroke:#000000;stroke-linecap:square;stroke-linejoin:miter;stroke-width:0.8;"/>
   </g>
   <g id="patch_105">
    <path d="M 50.14375 288.430125 
L 407.26375 288.430125 
" style="fill:none;stroke:#000000;stroke-linecap:square;stroke-linejoin:miter;stroke-width:0.8;"/>
   </g>
   <g id="patch_106">
    <path d="M 50.14375 22.318125 
L 407.26375 22.318125 
" style="fill:none;stroke:#000000;stroke-linecap:square;stroke-linejoin:miter;stroke-width:0.8;"/>
   </g>
   <g id="text_18">
    <!-- Real tags vs. Mixed tags at prognostic ADHD task tax level 6 pca 2 -->
    <defs>
     <path d="M 45.40625 27.984375 
Q 45.40625 37.75 41.375 43.109375 
Q 37.359375 48.484375 30.078125 48.484375 
Q 22.859375 48.484375 18.828125 43.109375 
Q 14.796875 37.75 14.796875 27.984375 
Q 14.796875 18.265625 18.828125 12.890625 
Q 22.859375 7.515625 30.078125 7.515625 
Q 37.359375 7.515625 41.375 12.890625 
Q 45.40625 18.265625 45.40625 27.984375 
z
M 54.390625 6.78125 
Q 54.390625 -7.171875 48.1875 -13.984375 
Q 42 -20.796875 29.203125 -20.796875 
Q 24.46875 -20.796875 20.265625 -20.09375 
Q 16.0625 -19.390625 12.109375 -17.921875 
L 12.109375 -9.1875 
Q 16.0625 -11.328125 19.921875 -12.34375 
Q 23.78125 -13.375 27.78125 -13.375 
Q 36.625 -13.375 41.015625 -8.765625 
Q 45.40625 -4.15625 45.40625 5.171875 
L 45.40625 9.625 
Q 42.625 4.78125 38.28125 2.390625 
Q 33.9375 0 27.875 0 
Q 17.828125 0 11.671875 7.65625 
Q 5.515625 15.328125 5.515625 27.984375 
Q 5.515625 40.671875 11.671875 48.328125 
Q 17.828125 56 27.875 56 
Q 33.9375 56 38.28125 53.609375 
Q 42.625 51.21875 45.40625 46.390625 
L 45.40625 54.6875 
L 54.390625 54.6875 
z
" id="DejaVuSans-103"/>
     <path d="M 44.28125 53.078125 
L 44.28125 44.578125 
Q 40.484375 46.53125 36.375 47.5 
Q 32.28125 48.484375 27.875 48.484375 
Q 21.1875 48.484375 17.84375 46.4375 
Q 14.5 44.390625 14.5 40.28125 
Q 14.5 37.15625 16.890625 35.375 
Q 19.28125 33.59375 26.515625 31.984375 
L 29.59375 31.296875 
Q 39.15625 29.25 43.1875 25.515625 
Q 47.21875 21.78125 47.21875 15.09375 
Q 47.21875 7.46875 41.1875 3.015625 
Q 35.15625 -1.421875 24.609375 -1.421875 
Q 20.21875 -1.421875 15.453125 -0.5625 
Q 10.6875 0.296875 5.421875 2 
L 5.421875 11.28125 
Q 10.40625 8.6875 15.234375 7.390625 
Q 20.0625 6.109375 24.8125 6.109375 
Q 31.15625 6.109375 34.5625 8.28125 
Q 37.984375 10.453125 37.984375 14.40625 
Q 37.984375 18.0625 35.515625 20.015625 
Q 33.0625 21.96875 24.703125 23.78125 
L 21.578125 24.515625 
Q 13.234375 26.265625 9.515625 29.90625 
Q 5.8125 33.546875 5.8125 39.890625 
Q 5.8125 47.609375 11.28125 51.796875 
Q 16.75 56 26.8125 56 
Q 31.78125 56 36.171875 55.265625 
Q 40.578125 54.546875 44.28125 53.078125 
z
" id="DejaVuSans-115"/>
     <path d="M 9.8125 72.90625 
L 24.515625 72.90625 
L 43.109375 23.296875 
L 61.8125 72.90625 
L 76.515625 72.90625 
L 76.515625 0 
L 66.890625 0 
L 66.890625 64.015625 
L 48.09375 14.015625 
L 38.1875 14.015625 
L 19.390625 64.015625 
L 19.390625 0 
L 9.8125 0 
z
" id="DejaVuSans-77"/>
     <path d="M 54.890625 54.6875 
L 35.109375 28.078125 
L 55.90625 0 
L 45.3125 0 
L 29.390625 21.484375 
L 13.484375 0 
L 2.875 0 
L 24.125 28.609375 
L 4.6875 54.6875 
L 15.28125 54.6875 
L 29.78125 35.203125 
L 44.28125 54.6875 
z
" id="DejaVuSans-120"/>
     <path d="M 45.40625 46.390625 
L 45.40625 75.984375 
L 54.390625 75.984375 
L 54.390625 0 
L 45.40625 0 
L 45.40625 8.203125 
Q 42.578125 3.328125 38.25 0.953125 
Q 33.9375 -1.421875 27.875 -1.421875 
Q 17.96875 -1.421875 11.734375 6.484375 
Q 5.515625 14.40625 5.515625 27.296875 
Q 5.515625 40.1875 11.734375 48.09375 
Q 17.96875 56 27.875 56 
Q 33.9375 56 38.25 53.625 
Q 42.578125 51.265625 45.40625 46.390625 
z
M 14.796875 27.296875 
Q 14.796875 17.390625 18.875 11.75 
Q 22.953125 6.109375 30.078125 6.109375 
Q 37.203125 6.109375 41.296875 11.75 
Q 45.40625 17.390625 45.40625 27.296875 
Q 45.40625 37.203125 41.296875 42.84375 
Q 37.203125 48.484375 30.078125 48.484375 
Q 22.953125 48.484375 18.875 42.84375 
Q 14.796875 37.203125 14.796875 27.296875 
z
" id="DejaVuSans-100"/>
     <path d="M 18.109375 8.203125 
L 18.109375 -20.796875 
L 9.078125 -20.796875 
L 9.078125 54.6875 
L 18.109375 54.6875 
L 18.109375 46.390625 
Q 20.953125 51.265625 25.265625 53.625 
Q 29.59375 56 35.59375 56 
Q 45.5625 56 51.78125 48.09375 
Q 58.015625 40.1875 58.015625 27.296875 
Q 58.015625 14.40625 51.78125 6.484375 
Q 45.5625 -1.421875 35.59375 -1.421875 
Q 29.59375 -1.421875 25.265625 0.953125 
Q 20.953125 3.328125 18.109375 8.203125 
z
M 48.6875 27.296875 
Q 48.6875 37.203125 44.609375 42.84375 
Q 40.53125 48.484375 33.40625 48.484375 
Q 26.265625 48.484375 22.1875 42.84375 
Q 18.109375 37.203125 18.109375 27.296875 
Q 18.109375 17.390625 22.1875 11.75 
Q 26.265625 6.109375 33.40625 6.109375 
Q 40.53125 6.109375 44.609375 11.75 
Q 48.6875 17.390625 48.6875 27.296875 
z
" id="DejaVuSans-112"/>
     <path d="M 54.890625 33.015625 
L 54.890625 0 
L 45.90625 0 
L 45.90625 32.71875 
Q 45.90625 40.484375 42.875 44.328125 
Q 39.84375 48.1875 33.796875 48.1875 
Q 26.515625 48.1875 22.3125 43.546875 
Q 18.109375 38.921875 18.109375 30.90625 
L 18.109375 0 
L 9.078125 0 
L 9.078125 54.6875 
L 18.109375 54.6875 
L 18.109375 46.1875 
Q 21.34375 51.125 25.703125 53.5625 
Q 30.078125 56 35.796875 56 
Q 45.21875 56 50.046875 50.171875 
Q 54.890625 44.34375 54.890625 33.015625 
z
" id="DejaVuSans-110"/>
     <path d="M 34.1875 63.1875 
L 20.796875 26.90625 
L 47.609375 26.90625 
z
M 28.609375 72.90625 
L 39.796875 72.90625 
L 67.578125 0 
L 57.328125 0 
L 50.6875 18.703125 
L 17.828125 18.703125 
L 11.1875 0 
L 0.78125 0 
z
" id="DejaVuSans-65"/>
     <path d="M 19.671875 64.796875 
L 19.671875 8.109375 
L 31.59375 8.109375 
Q 46.6875 8.109375 53.6875 14.9375 
Q 60.6875 21.78125 60.6875 36.53125 
Q 60.6875 51.171875 53.6875 57.984375 
Q 46.6875 64.796875 31.59375 64.796875 
z
M 9.8125 72.90625 
L 30.078125 72.90625 
Q 51.265625 72.90625 61.171875 64.09375 
Q 71.09375 55.28125 71.09375 36.53125 
Q 71.09375 17.671875 61.125 8.828125 
Q 51.171875 0 30.078125 0 
L 9.8125 0 
z
" id="DejaVuSans-68"/>
     <path d="M 9.8125 72.90625 
L 19.671875 72.90625 
L 19.671875 43.015625 
L 55.515625 43.015625 
L 55.515625 72.90625 
L 65.375 72.90625 
L 65.375 0 
L 55.515625 0 
L 55.515625 34.71875 
L 19.671875 34.71875 
L 19.671875 0 
L 9.8125 0 
z
" id="DejaVuSans-72"/>
     <path d="M 9.078125 75.984375 
L 18.109375 75.984375 
L 18.109375 31.109375 
L 44.921875 54.6875 
L 56.390625 54.6875 
L 27.390625 29.109375 
L 57.625 0 
L 45.90625 0 
L 18.109375 26.703125 
L 18.109375 0 
L 9.078125 0 
z
" id="DejaVuSans-107"/>
     <path d="M 33.015625 40.375 
Q 26.375 40.375 22.484375 35.828125 
Q 18.609375 31.296875 18.609375 23.390625 
Q 18.609375 15.53125 22.484375 10.953125 
Q 26.375 6.390625 33.015625 6.390625 
Q 39.65625 6.390625 43.53125 10.953125 
Q 47.40625 15.53125 47.40625 23.390625 
Q 47.40625 31.296875 43.53125 35.828125 
Q 39.65625 40.375 33.015625 40.375 
z
M 52.59375 71.296875 
L 52.59375 62.3125 
Q 48.875 64.0625 45.09375 64.984375 
Q 41.3125 65.921875 37.59375 65.921875 
Q 27.828125 65.921875 22.671875 59.328125 
Q 17.53125 52.734375 16.796875 39.40625 
Q 19.671875 43.65625 24.015625 45.921875 
Q 28.375 48.1875 33.59375 48.1875 
Q 44.578125 48.1875 50.953125 41.515625 
Q 57.328125 34.859375 57.328125 23.390625 
Q 57.328125 12.15625 50.6875 5.359375 
Q 44.046875 -1.421875 33.015625 -1.421875 
Q 20.359375 -1.421875 13.671875 8.265625 
Q 6.984375 17.96875 6.984375 36.375 
Q 6.984375 53.65625 15.1875 63.9375 
Q 23.390625 74.21875 37.203125 74.21875 
Q 40.921875 74.21875 44.703125 73.484375 
Q 48.484375 72.75 52.59375 71.296875 
z
" id="DejaVuSans-54"/>
    </defs>
    <g transform="translate(27.85375 16.318125)scale(0.12 -0.12)">
     <use xlink:href="#DejaVuSans-82"/>
     <use x="69.419922" xlink:href="#DejaVuSans-101"/>
     <use x="130.943359" xlink:href="#DejaVuSans-97"/>
     <use x="192.222656" xlink:href="#DejaVuSans-108"/>
     <use x="220.005859" xlink:href="#DejaVuSans-32"/>
     <use x="251.792969" xlink:href="#DejaVuSans-116"/>
     <use x="291.001953" xlink:href="#DejaVuSans-97"/>
     <use x="352.28125" xlink:href="#DejaVuSans-103"/>
     <use x="415.757812" xlink:href="#DejaVuSans-115"/>
     <use x="467.857422" xlink:href="#DejaVuSans-32"/>
     <use x="499.644531" xlink:href="#DejaVuSans-118"/>
     <use x="558.824219" xlink:href="#DejaVuSans-115"/>
     <use x="610.923828" xlink:href="#DejaVuSans-46"/>
     <use x="642.710938" xlink:href="#DejaVuSans-32"/>
     <use x="674.498047" xlink:href="#DejaVuSans-77"/>
     <use x="760.777344" xlink:href="#DejaVuSans-105"/>
     <use x="788.560547" xlink:href="#DejaVuSans-120"/>
     <use x="847.693359" xlink:href="#DejaVuSans-101"/>
     <use x="909.216797" xlink:href="#DejaVuSans-100"/>
     <use x="972.693359" xlink:href="#DejaVuSans-32"/>
     <use x="1004.480469" xlink:href="#DejaVuSans-116"/>
     <use x="1043.689453" xlink:href="#DejaVuSans-97"/>
     <use x="1104.96875" xlink:href="#DejaVuSans-103"/>
     <use x="1168.445312" xlink:href="#DejaVuSans-115"/>
     <use x="1220.544922" xlink:href="#DejaVuSans-32"/>
     <use x="1252.332031" xlink:href="#DejaVuSans-97"/>
     <use x="1313.611328" xlink:href="#DejaVuSans-116"/>
     <use x="1352.820312" xlink:href="#DejaVuSans-32"/>
     <use x="1384.607422" xlink:href="#DejaVuSans-112"/>
     <use x="1448.083984" xlink:href="#DejaVuSans-114"/>
     <use x="1489.166016" xlink:href="#DejaVuSans-111"/>
     <use x="1550.347656" xlink:href="#DejaVuSans-103"/>
     <use x="1613.824219" xlink:href="#DejaVuSans-110"/>
     <use x="1677.203125" xlink:href="#DejaVuSans-111"/>
     <use x="1738.384766" xlink:href="#DejaVuSans-115"/>
     <use x="1790.484375" xlink:href="#DejaVuSans-116"/>
     <use x="1829.693359" xlink:href="#DejaVuSans-105"/>
     <use x="1857.476562" xlink:href="#DejaVuSans-99"/>
     <use x="1912.457031" xlink:href="#DejaVuSans-32"/>
     <use x="1944.244141" xlink:href="#DejaVuSans-65"/>
     <use x="2012.652344" xlink:href="#DejaVuSans-68"/>
     <use x="2089.654297" xlink:href="#DejaVuSans-72"/>
     <use x="2164.849609" xlink:href="#DejaVuSans-68"/>
     <use x="2241.851562" xlink:href="#DejaVuSans-32"/>
     <use x="2273.638672" xlink:href="#DejaVuSans-116"/>
     <use x="2312.847656" xlink:href="#DejaVuSans-97"/>
     <use x="2374.126953" xlink:href="#DejaVuSans-115"/>
     <use x="2426.226562" xlink:href="#DejaVuSans-107"/>
     <use x="2484.136719" xlink:href="#DejaVuSans-32"/>
     <use x="2515.923828" xlink:href="#DejaVuSans-116"/>
     <use x="2555.132812" xlink:href="#DejaVuSans-97"/>
     <use x="2616.412109" xlink:href="#DejaVuSans-120"/>
     <use x="2675.591797" xlink:href="#DejaVuSans-32"/>
     <use x="2707.378906" xlink:href="#DejaVuSans-108"/>
     <use x="2735.162109" xlink:href="#DejaVuSans-101"/>
     <use x="2796.685547" xlink:href="#DejaVuSans-118"/>
     <use x="2855.865234" xlink:href="#DejaVuSans-101"/>
     <use x="2917.388672" xlink:href="#DejaVuSans-108"/>
     <use x="2945.171875" xlink:href="#DejaVuSans-32"/>
     <use x="2976.958984" xlink:href="#DejaVuSans-54"/>
     <use x="3040.582031" xlink:href="#DejaVuSans-32"/>
     <use x="3072.369141" xlink:href="#DejaVuSans-112"/>
     <use x="3135.845703" xlink:href="#DejaVuSans-99"/>
     <use x="3190.826172" xlink:href="#DejaVuSans-97"/>
     <use x="3252.105469" xlink:href="#DejaVuSans-32"/>
     <use x="3283.892578" xlink:href="#DejaVuSans-50"/>
    </g>
   </g>
   <g id="legend_1">
    <g id="patch_107">
     <path d="M 312.545 59.674375 
L 400.26375 59.674375 
Q 402.26375 59.674375 402.26375 57.674375 
L 402.26375 29.318125 
Q 402.26375 27.318125 400.26375 27.318125 
L 312.545 27.318125 
Q 310.545 27.318125 310.545 29.318125 
L 310.545 57.674375 
Q 310.545 59.674375 312.545 59.674375 
z
" style="fill:#ffffff;opacity:0.8;stroke:#cccccc;stroke-linejoin:miter;"/>
    </g>
    <g id="patch_108">
     <path d="M 314.545 38.916562 
L 334.545 38.916562 
L 334.545 31.916562 
L 314.545 31.916562 
z
" style="fill:#d95f0e;opacity:0.5;"/>
    </g>
    <g id="text_19">
     <!-- mixed tags -->
     <g transform="translate(342.545 38.916562)scale(0.1 -0.1)">
      <use xlink:href="#DejaVuSans-109"/>
      <use x="97.412109" xlink:href="#DejaVuSans-105"/>
      <use x="125.195312" xlink:href="#DejaVuSans-120"/>
      <use x="184.328125" xlink:href="#DejaVuSans-101"/>
      <use x="245.851562" xlink:href="#DejaVuSans-100"/>
      <use x="309.328125" xlink:href="#DejaVuSans-32"/>
      <use x="341.115234" xlink:href="#DejaVuSans-116"/>
      <use x="380.324219" xlink:href="#DejaVuSans-97"/>
      <use x="441.603516" xlink:href="#DejaVuSans-103"/>
      <use x="505.080078" xlink:href="#DejaVuSans-115"/>
     </g>
    </g>
    <g id="patch_109">
     <path d="M 314.545 53.594687 
L 334.545 53.594687 
L 334.545 46.594687 
L 314.545 46.594687 
z
" style="fill:#43a2ca;opacity:0.8;"/>
    </g>
    <g id="text_20">
     <!-- real tags -->
     <g transform="translate(342.545 53.594687)scale(0.1 -0.1)">
      <use xlink:href="#DejaVuSans-114"/>
      <use x="41.082031" xlink:href="#DejaVuSans-101"/>
      <use x="102.605469" xlink:href="#DejaVuSans-97"/>
      <use x="163.884766" xlink:href="#DejaVuSans-108"/>
      <use x="191.667969" xlink:href="#DejaVuSans-32"/>
      <use x="223.455078" xlink:href="#DejaVuSans-116"/>
      <use x="262.664062" xlink:href="#DejaVuSans-97"/>
      <use x="323.943359" xlink:href="#DejaVuSans-103"/>
      <use x="387.419922" xlink:href="#DejaVuSans-115"/>
     </g>
    </g>
   </g>
  </g>
 </g>
 <defs>
  <clipPath id="p347e529876">
   <rect height="266.112" width="357.12" x="50.14375" y="22.318125"/>
  </clipPath>
 </defs>
</svg>
