<?xml version="1.0" encoding="utf-8" standalone="no"?>
<!DOCTYPE svg PUBLIC "-//W3C//DTD SVG 1.1//EN"
  "http://www.w3.org/Graphics/SVG/1.1/DTD/svg11.dtd">
<!-- Created with matplotlib (https://matplotlib.org/) -->
<svg height="336.634375pt" version="1.1" viewBox="0 0 453.59375 336.634375" width="453.59375pt" xmlns="http://www.w3.org/2000/svg" xmlns:xlink="http://www.w3.org/1999/xlink">
 <metadata>
  <rdf:RDF xmlns:cc="http://creativecommons.org/ns#" xmlns:dc="http://purl.org/dc/elements/1.1/" xmlns:rdf="http://www.w3.org/1999/02/22-rdf-syntax-ns#">
   <cc:Work>
    <dc:type rdf:resource="http://purl.org/dc/dcmitype/StillImage"/>
    <dc:date>2021-01-16T12:35:57.833335</dc:date>
    <dc:format>image/svg+xml</dc:format>
    <dc:creator>
     <cc:Agent>
      <dc:title>Matplotlib v3.3.2, https://matplotlib.org/</dc:title>
     </cc:Agent>
    </dc:creator>
   </cc:Work>
  </rdf:RDF>
 </metadata>
 <defs>
  <style type="text/css">*{stroke-linecap:butt;stroke-linejoin:round;}</style>
 </defs>
 <g id="figure_1">
  <g id="patch_1">
   <path d="M 0 336.634375 
L 453.59375 336.634375 
L 453.59375 0 
L 0 0 
z
" style="fill:#ffffff;"/>
  </g>
  <g id="axes_1">
   <g id="patch_2">
    <path d="M 131.64375 131.678125 
L 446.39375 131.678125 
L 446.39375 22.318125 
L 131.64375 22.318125 
z
" style="fill:#ffffff;"/>
   </g>
   <g id="patch_3">
    <path clip-path="url(#p6cd9d69076)" d="M 131.64375 126.707216 
L 327.000133 126.707216 
L 327.000133 120.49358 
L 131.64375 120.49358 
z
" style="fill:#008000;"/>
   </g>
   <g id="patch_4">
    <path clip-path="url(#p6cd9d69076)" d="M 131.64375 118.94017 
L 328.583034 118.94017 
L 328.583034 112.726534 
L 131.64375 112.726534 
z
" style="fill:#008000;"/>
   </g>
   <g id="patch_5">
    <path clip-path="url(#p6cd9d69076)" d="M 131.64375 111.173125 
L 332.804104 111.173125 
L 332.804104 104.959489 
L 131.64375 104.959489 
z
" style="fill:#008000;"/>
   </g>
   <g id="patch_6">
    <path clip-path="url(#p6cd9d69076)" d="M 131.64375 103.40608 
L 336.95922 103.40608 
L 336.95922 97.192443 
L 131.64375 97.192443 
z
" style="fill:#008000;"/>
   </g>
   <g id="patch_7">
    <path clip-path="url(#p6cd9d69076)" d="M 131.64375 95.639034 
L 342.433419 95.639034 
L 342.433419 89.425398 
L 131.64375 89.425398 
z
" style="fill:#008000;"/>
   </g>
   <g id="patch_8">
    <path clip-path="url(#p6cd9d69076)" d="M 131.64375 87.871989 
L 343.092962 87.871989 
L 343.092962 81.658352 
L 131.64375 81.658352 
z
" style="fill:#008000;"/>
   </g>
   <g id="patch_9">
    <path clip-path="url(#p6cd9d69076)" d="M 131.64375 80.104943 
L 343.356778 80.104943 
L 343.356778 73.891307 
L 131.64375 73.891307 
z
" style="fill:#008000;"/>
   </g>
   <g id="patch_10">
    <path clip-path="url(#p6cd9d69076)" d="M 131.64375 72.337898 
L 359.18579 72.337898 
L 359.18579 66.124261 
L 131.64375 66.124261 
z
" style="fill:#008000;"/>
   </g>
   <g id="patch_11">
    <path clip-path="url(#p6cd9d69076)" d="M 131.64375 64.570852 
L 392.756485 64.570852 
L 392.756485 58.357216 
L 131.64375 58.357216 
z
" style="fill:#008000;"/>
   </g>
   <g id="patch_12">
    <path clip-path="url(#p6cd9d69076)" d="M 131.64375 56.803807 
L 406.936641 56.803807 
L 406.936641 50.59017 
L 131.64375 50.59017 
z
" style="fill:#008000;"/>
   </g>
   <g id="patch_13">
    <path clip-path="url(#p6cd9d69076)" d="M 131.64375 49.036761 
L 415.972369 49.036761 
L 415.972369 42.823125 
L 131.64375 42.823125 
z
" style="fill:#008000;"/>
   </g>
   <g id="patch_14">
    <path clip-path="url(#p6cd9d69076)" d="M 131.64375 41.269716 
L 429.756799 41.269716 
L 429.756799 35.05608 
L 131.64375 35.05608 
z
" style="fill:#008000;"/>
   </g>
   <g id="patch_15">
    <path clip-path="url(#p6cd9d69076)" d="M 131.64375 33.50267 
L 431.405655 33.50267 
L 431.405655 27.289034 
L 131.64375 27.289034 
z
" style="fill:#008000;"/>
   </g>
   <g id="matplotlib.axis_1">
    <g id="xtick_1">
     <g id="line2d_1">
      <defs>
       <path d="M 0 0 
L 0 3.5 
" id="mf47cd61ae7" style="stroke:#000000;stroke-width:0.8;"/>
      </defs>
      <g>
       <use style="stroke:#000000;stroke-width:0.8;" x="131.64375" xlink:href="#mf47cd61ae7" y="131.678125"/>
      </g>
     </g>
     <g id="text_1">
      <!-- 0.0 -->
      <g transform="translate(123.692188 146.276562)scale(0.1 -0.1)">
       <defs>
        <path d="M 31.78125 66.40625 
Q 24.171875 66.40625 20.328125 58.90625 
Q 16.5 51.421875 16.5 36.375 
Q 16.5 21.390625 20.328125 13.890625 
Q 24.171875 6.390625 31.78125 6.390625 
Q 39.453125 6.390625 43.28125 13.890625 
Q 47.125 21.390625 47.125 36.375 
Q 47.125 51.421875 43.28125 58.90625 
Q 39.453125 66.40625 31.78125 66.40625 
z
M 31.78125 74.21875 
Q 44.046875 74.21875 50.515625 64.515625 
Q 56.984375 54.828125 56.984375 36.375 
Q 56.984375 17.96875 50.515625 8.265625 
Q 44.046875 -1.421875 31.78125 -1.421875 
Q 19.53125 -1.421875 13.0625 8.265625 
Q 6.59375 17.96875 6.59375 36.375 
Q 6.59375 54.828125 13.0625 64.515625 
Q 19.53125 74.21875 31.78125 74.21875 
z
" id="DejaVuSans-48"/>
        <path d="M 10.6875 12.40625 
L 21 12.40625 
L 21 0 
L 10.6875 0 
z
" id="DejaVuSans-46"/>
       </defs>
       <use xlink:href="#DejaVuSans-48"/>
       <use x="63.623047" xlink:href="#DejaVuSans-46"/>
       <use x="95.410156" xlink:href="#DejaVuSans-48"/>
      </g>
     </g>
    </g>
    <g id="xtick_2">
     <g id="line2d_2">
      <g>
       <use style="stroke:#000000;stroke-width:0.8;" x="186.089347" xlink:href="#mf47cd61ae7" y="131.678125"/>
      </g>
     </g>
     <g id="text_2">
      <!-- 0.1 -->
      <g transform="translate(178.137784 146.276562)scale(0.1 -0.1)">
       <defs>
        <path d="M 12.40625 8.296875 
L 28.515625 8.296875 
L 28.515625 63.921875 
L 10.984375 60.40625 
L 10.984375 69.390625 
L 28.421875 72.90625 
L 38.28125 72.90625 
L 38.28125 8.296875 
L 54.390625 8.296875 
L 54.390625 0 
L 12.40625 0 
z
" id="DejaVuSans-49"/>
       </defs>
       <use xlink:href="#DejaVuSans-48"/>
       <use x="63.623047" xlink:href="#DejaVuSans-46"/>
       <use x="95.410156" xlink:href="#DejaVuSans-49"/>
      </g>
     </g>
    </g>
    <g id="xtick_3">
     <g id="line2d_3">
      <g>
       <use style="stroke:#000000;stroke-width:0.8;" x="240.534943" xlink:href="#mf47cd61ae7" y="131.678125"/>
      </g>
     </g>
     <g id="text_3">
      <!-- 0.2 -->
      <g transform="translate(232.583381 146.276562)scale(0.1 -0.1)">
       <defs>
        <path d="M 19.1875 8.296875 
L 53.609375 8.296875 
L 53.609375 0 
L 7.328125 0 
L 7.328125 8.296875 
Q 12.9375 14.109375 22.625 23.890625 
Q 32.328125 33.6875 34.8125 36.53125 
Q 39.546875 41.84375 41.421875 45.53125 
Q 43.3125 49.21875 43.3125 52.78125 
Q 43.3125 58.59375 39.234375 62.25 
Q 35.15625 65.921875 28.609375 65.921875 
Q 23.96875 65.921875 18.8125 64.3125 
Q 13.671875 62.703125 7.8125 59.421875 
L 7.8125 69.390625 
Q 13.765625 71.78125 18.9375 73 
Q 24.125 74.21875 28.421875 74.21875 
Q 39.75 74.21875 46.484375 68.546875 
Q 53.21875 62.890625 53.21875 53.421875 
Q 53.21875 48.921875 51.53125 44.890625 
Q 49.859375 40.875 45.40625 35.40625 
Q 44.1875 33.984375 37.640625 27.21875 
Q 31.109375 20.453125 19.1875 8.296875 
z
" id="DejaVuSans-50"/>
       </defs>
       <use xlink:href="#DejaVuSans-48"/>
       <use x="63.623047" xlink:href="#DejaVuSans-46"/>
       <use x="95.410156" xlink:href="#DejaVuSans-50"/>
      </g>
     </g>
    </g>
    <g id="xtick_4">
     <g id="line2d_4">
      <g>
       <use style="stroke:#000000;stroke-width:0.8;" x="294.98054" xlink:href="#mf47cd61ae7" y="131.678125"/>
      </g>
     </g>
     <g id="text_4">
      <!-- 0.3 -->
      <g transform="translate(287.028978 146.276562)scale(0.1 -0.1)">
       <defs>
        <path d="M 40.578125 39.3125 
Q 47.65625 37.796875 51.625 33 
Q 55.609375 28.21875 55.609375 21.1875 
Q 55.609375 10.40625 48.1875 4.484375 
Q 40.765625 -1.421875 27.09375 -1.421875 
Q 22.515625 -1.421875 17.65625 -0.515625 
Q 12.796875 0.390625 7.625 2.203125 
L 7.625 11.71875 
Q 11.71875 9.328125 16.59375 8.109375 
Q 21.484375 6.890625 26.8125 6.890625 
Q 36.078125 6.890625 40.9375 10.546875 
Q 45.796875 14.203125 45.796875 21.1875 
Q 45.796875 27.640625 41.28125 31.265625 
Q 36.765625 34.90625 28.71875 34.90625 
L 20.21875 34.90625 
L 20.21875 43.015625 
L 29.109375 43.015625 
Q 36.375 43.015625 40.234375 45.921875 
Q 44.09375 48.828125 44.09375 54.296875 
Q 44.09375 59.90625 40.109375 62.90625 
Q 36.140625 65.921875 28.71875 65.921875 
Q 24.65625 65.921875 20.015625 65.03125 
Q 15.375 64.15625 9.8125 62.3125 
L 9.8125 71.09375 
Q 15.4375 72.65625 20.34375 73.4375 
Q 25.25 74.21875 29.59375 74.21875 
Q 40.828125 74.21875 47.359375 69.109375 
Q 53.90625 64.015625 53.90625 55.328125 
Q 53.90625 49.265625 50.4375 45.09375 
Q 46.96875 40.921875 40.578125 39.3125 
z
" id="DejaVuSans-51"/>
       </defs>
       <use xlink:href="#DejaVuSans-48"/>
       <use x="63.623047" xlink:href="#DejaVuSans-46"/>
       <use x="95.410156" xlink:href="#DejaVuSans-51"/>
      </g>
     </g>
    </g>
    <g id="xtick_5">
     <g id="line2d_5">
      <g>
       <use style="stroke:#000000;stroke-width:0.8;" x="349.426137" xlink:href="#mf47cd61ae7" y="131.678125"/>
      </g>
     </g>
     <g id="text_5">
      <!-- 0.4 -->
      <g transform="translate(341.474574 146.276562)scale(0.1 -0.1)">
       <defs>
        <path d="M 37.796875 64.3125 
L 12.890625 25.390625 
L 37.796875 25.390625 
z
M 35.203125 72.90625 
L 47.609375 72.90625 
L 47.609375 25.390625 
L 58.015625 25.390625 
L 58.015625 17.1875 
L 47.609375 17.1875 
L 47.609375 0 
L 37.796875 0 
L 37.796875 17.1875 
L 4.890625 17.1875 
L 4.890625 26.703125 
z
" id="DejaVuSans-52"/>
       </defs>
       <use xlink:href="#DejaVuSans-48"/>
       <use x="63.623047" xlink:href="#DejaVuSans-46"/>
       <use x="95.410156" xlink:href="#DejaVuSans-52"/>
      </g>
     </g>
    </g>
    <g id="xtick_6">
     <g id="line2d_6">
      <g>
       <use style="stroke:#000000;stroke-width:0.8;" x="403.871734" xlink:href="#mf47cd61ae7" y="131.678125"/>
      </g>
     </g>
     <g id="text_6">
      <!-- 0.5 -->
      <g transform="translate(395.920171 146.276562)scale(0.1 -0.1)">
       <defs>
        <path d="M 10.796875 72.90625 
L 49.515625 72.90625 
L 49.515625 64.59375 
L 19.828125 64.59375 
L 19.828125 46.734375 
Q 21.96875 47.46875 24.109375 47.828125 
Q 26.265625 48.1875 28.421875 48.1875 
Q 40.625 48.1875 47.75 41.5 
Q 54.890625 34.8125 54.890625 23.390625 
Q 54.890625 11.625 47.5625 5.09375 
Q 40.234375 -1.421875 26.90625 -1.421875 
Q 22.3125 -1.421875 17.546875 -0.640625 
Q 12.796875 0.140625 7.71875 1.703125 
L 7.71875 11.625 
Q 12.109375 9.234375 16.796875 8.0625 
Q 21.484375 6.890625 26.703125 6.890625 
Q 35.15625 6.890625 40.078125 11.328125 
Q 45.015625 15.765625 45.015625 23.390625 
Q 45.015625 31 40.078125 35.4375 
Q 35.15625 39.890625 26.703125 39.890625 
Q 22.75 39.890625 18.8125 39.015625 
Q 14.890625 38.140625 10.796875 36.28125 
z
" id="DejaVuSans-53"/>
       </defs>
       <use xlink:href="#DejaVuSans-48"/>
       <use x="63.623047" xlink:href="#DejaVuSans-46"/>
       <use x="95.410156" xlink:href="#DejaVuSans-53"/>
      </g>
     </g>
    </g>
    <g id="text_7">
     <!-- Coeff value -->
     <g transform="translate(260.624219 159.954687)scale(0.1 -0.1)">
      <defs>
       <path d="M 64.40625 67.28125 
L 64.40625 56.890625 
Q 59.421875 61.53125 53.78125 63.8125 
Q 48.140625 66.109375 41.796875 66.109375 
Q 29.296875 66.109375 22.65625 58.46875 
Q 16.015625 50.828125 16.015625 36.375 
Q 16.015625 21.96875 22.65625 14.328125 
Q 29.296875 6.6875 41.796875 6.6875 
Q 48.140625 6.6875 53.78125 8.984375 
Q 59.421875 11.28125 64.40625 15.921875 
L 64.40625 5.609375 
Q 59.234375 2.09375 53.4375 0.328125 
Q 47.65625 -1.421875 41.21875 -1.421875 
Q 24.65625 -1.421875 15.125 8.703125 
Q 5.609375 18.84375 5.609375 36.375 
Q 5.609375 53.953125 15.125 64.078125 
Q 24.65625 74.21875 41.21875 74.21875 
Q 47.75 74.21875 53.53125 72.484375 
Q 59.328125 70.75 64.40625 67.28125 
z
" id="DejaVuSans-67"/>
       <path d="M 30.609375 48.390625 
Q 23.390625 48.390625 19.1875 42.75 
Q 14.984375 37.109375 14.984375 27.296875 
Q 14.984375 17.484375 19.15625 11.84375 
Q 23.34375 6.203125 30.609375 6.203125 
Q 37.796875 6.203125 41.984375 11.859375 
Q 46.1875 17.53125 46.1875 27.296875 
Q 46.1875 37.015625 41.984375 42.703125 
Q 37.796875 48.390625 30.609375 48.390625 
z
M 30.609375 56 
Q 42.328125 56 49.015625 48.375 
Q 55.71875 40.765625 55.71875 27.296875 
Q 55.71875 13.875 49.015625 6.21875 
Q 42.328125 -1.421875 30.609375 -1.421875 
Q 18.84375 -1.421875 12.171875 6.21875 
Q 5.515625 13.875 5.515625 27.296875 
Q 5.515625 40.765625 12.171875 48.375 
Q 18.84375 56 30.609375 56 
z
" id="DejaVuSans-111"/>
       <path d="M 56.203125 29.59375 
L 56.203125 25.203125 
L 14.890625 25.203125 
Q 15.484375 15.921875 20.484375 11.0625 
Q 25.484375 6.203125 34.421875 6.203125 
Q 39.59375 6.203125 44.453125 7.46875 
Q 49.3125 8.734375 54.109375 11.28125 
L 54.109375 2.78125 
Q 49.265625 0.734375 44.1875 -0.34375 
Q 39.109375 -1.421875 33.890625 -1.421875 
Q 20.796875 -1.421875 13.15625 6.1875 
Q 5.515625 13.8125 5.515625 26.8125 
Q 5.515625 40.234375 12.765625 48.109375 
Q 20.015625 56 32.328125 56 
Q 43.359375 56 49.78125 48.890625 
Q 56.203125 41.796875 56.203125 29.59375 
z
M 47.21875 32.234375 
Q 47.125 39.59375 43.09375 43.984375 
Q 39.0625 48.390625 32.421875 48.390625 
Q 24.90625 48.390625 20.390625 44.140625 
Q 15.875 39.890625 15.1875 32.171875 
z
" id="DejaVuSans-101"/>
       <path d="M 37.109375 75.984375 
L 37.109375 68.5 
L 28.515625 68.5 
Q 23.6875 68.5 21.796875 66.546875 
Q 19.921875 64.59375 19.921875 59.515625 
L 19.921875 54.6875 
L 34.71875 54.6875 
L 34.71875 47.703125 
L 19.921875 47.703125 
L 19.921875 0 
L 10.890625 0 
L 10.890625 47.703125 
L 2.296875 47.703125 
L 2.296875 54.6875 
L 10.890625 54.6875 
L 10.890625 58.5 
Q 10.890625 67.625 15.140625 71.796875 
Q 19.390625 75.984375 28.609375 75.984375 
z
" id="DejaVuSans-102"/>
       <path id="DejaVuSans-32"/>
       <path d="M 2.984375 54.6875 
L 12.5 54.6875 
L 29.59375 8.796875 
L 46.6875 54.6875 
L 56.203125 54.6875 
L 35.6875 0 
L 23.484375 0 
z
" id="DejaVuSans-118"/>
       <path d="M 34.28125 27.484375 
Q 23.390625 27.484375 19.1875 25 
Q 14.984375 22.515625 14.984375 16.5 
Q 14.984375 11.71875 18.140625 8.90625 
Q 21.296875 6.109375 26.703125 6.109375 
Q 34.1875 6.109375 38.703125 11.40625 
Q 43.21875 16.703125 43.21875 25.484375 
L 43.21875 27.484375 
z
M 52.203125 31.203125 
L 52.203125 0 
L 43.21875 0 
L 43.21875 8.296875 
Q 40.140625 3.328125 35.546875 0.953125 
Q 30.953125 -1.421875 24.3125 -1.421875 
Q 15.921875 -1.421875 10.953125 3.296875 
Q 6 8.015625 6 15.921875 
Q 6 25.140625 12.171875 29.828125 
Q 18.359375 34.515625 30.609375 34.515625 
L 43.21875 34.515625 
L 43.21875 35.40625 
Q 43.21875 41.609375 39.140625 45 
Q 35.0625 48.390625 27.6875 48.390625 
Q 23 48.390625 18.546875 47.265625 
Q 14.109375 46.140625 10.015625 43.890625 
L 10.015625 52.203125 
Q 14.9375 54.109375 19.578125 55.046875 
Q 24.21875 56 28.609375 56 
Q 40.484375 56 46.34375 49.84375 
Q 52.203125 43.703125 52.203125 31.203125 
z
" id="DejaVuSans-97"/>
       <path d="M 9.421875 75.984375 
L 18.40625 75.984375 
L 18.40625 0 
L 9.421875 0 
z
" id="DejaVuSans-108"/>
       <path d="M 8.5 21.578125 
L 8.5 54.6875 
L 17.484375 54.6875 
L 17.484375 21.921875 
Q 17.484375 14.15625 20.5 10.265625 
Q 23.53125 6.390625 29.59375 6.390625 
Q 36.859375 6.390625 41.078125 11.03125 
Q 45.3125 15.671875 45.3125 23.6875 
L 45.3125 54.6875 
L 54.296875 54.6875 
L 54.296875 0 
L 45.3125 0 
L 45.3125 8.40625 
Q 42.046875 3.421875 37.71875 1 
Q 33.40625 -1.421875 27.6875 -1.421875 
Q 18.265625 -1.421875 13.375 4.4375 
Q 8.5 10.296875 8.5 21.578125 
z
M 31.109375 56 
z
" id="DejaVuSans-117"/>
      </defs>
      <use xlink:href="#DejaVuSans-67"/>
      <use x="69.824219" xlink:href="#DejaVuSans-111"/>
      <use x="131.005859" xlink:href="#DejaVuSans-101"/>
      <use x="192.529297" xlink:href="#DejaVuSans-102"/>
      <use x="227.734375" xlink:href="#DejaVuSans-102"/>
      <use x="262.939453" xlink:href="#DejaVuSans-32"/>
      <use x="294.726562" xlink:href="#DejaVuSans-118"/>
      <use x="353.90625" xlink:href="#DejaVuSans-97"/>
      <use x="415.185547" xlink:href="#DejaVuSans-108"/>
      <use x="442.96875" xlink:href="#DejaVuSans-117"/>
      <use x="506.347656" xlink:href="#DejaVuSans-101"/>
     </g>
    </g>
   </g>
   <g id="matplotlib.axis_2">
    <g id="ytick_1">
     <g id="line2d_7">
      <defs>
       <path d="M 0 0 
L -3.5 0 
" id="me7f9f44d43" style="stroke:#000000;stroke-width:0.8;"/>
      </defs>
      <g>
       <use style="stroke:#000000;stroke-width:0.8;" x="131.64375" xlink:href="#me7f9f44d43" y="123.600398"/>
      </g>
     </g>
     <g id="text_8">
      <!--  g__Slackia_0 -->
      <g transform="translate(58.304688 127.399616)scale(0.1 -0.1)">
       <defs>
        <path d="M 45.40625 27.984375 
Q 45.40625 37.75 41.375 43.109375 
Q 37.359375 48.484375 30.078125 48.484375 
Q 22.859375 48.484375 18.828125 43.109375 
Q 14.796875 37.75 14.796875 27.984375 
Q 14.796875 18.265625 18.828125 12.890625 
Q 22.859375 7.515625 30.078125 7.515625 
Q 37.359375 7.515625 41.375 12.890625 
Q 45.40625 18.265625 45.40625 27.984375 
z
M 54.390625 6.78125 
Q 54.390625 -7.171875 48.1875 -13.984375 
Q 42 -20.796875 29.203125 -20.796875 
Q 24.46875 -20.796875 20.265625 -20.09375 
Q 16.0625 -19.390625 12.109375 -17.921875 
L 12.109375 -9.1875 
Q 16.0625 -11.328125 19.921875 -12.34375 
Q 23.78125 -13.375 27.78125 -13.375 
Q 36.625 -13.375 41.015625 -8.765625 
Q 45.40625 -4.15625 45.40625 5.171875 
L 45.40625 9.625 
Q 42.625 4.78125 38.28125 2.390625 
Q 33.9375 0 27.875 0 
Q 17.828125 0 11.671875 7.65625 
Q 5.515625 15.328125 5.515625 27.984375 
Q 5.515625 40.671875 11.671875 48.328125 
Q 17.828125 56 27.875 56 
Q 33.9375 56 38.28125 53.609375 
Q 42.625 51.21875 45.40625 46.390625 
L 45.40625 54.6875 
L 54.390625 54.6875 
z
" id="DejaVuSans-103"/>
        <path d="M 50.984375 -16.609375 
L 50.984375 -23.578125 
L -0.984375 -23.578125 
L -0.984375 -16.609375 
z
" id="DejaVuSans-95"/>
        <path d="M 53.515625 70.515625 
L 53.515625 60.890625 
Q 47.90625 63.578125 42.921875 64.890625 
Q 37.9375 66.21875 33.296875 66.21875 
Q 25.25 66.21875 20.875 63.09375 
Q 16.5 59.96875 16.5 54.203125 
Q 16.5 49.359375 19.40625 46.890625 
Q 22.3125 44.4375 30.421875 42.921875 
L 36.375 41.703125 
Q 47.40625 39.59375 52.65625 34.296875 
Q 57.90625 29 57.90625 20.125 
Q 57.90625 9.515625 50.796875 4.046875 
Q 43.703125 -1.421875 29.984375 -1.421875 
Q 24.8125 -1.421875 18.96875 -0.25 
Q 13.140625 0.921875 6.890625 3.21875 
L 6.890625 13.375 
Q 12.890625 10.015625 18.65625 8.296875 
Q 24.421875 6.59375 29.984375 6.59375 
Q 38.421875 6.59375 43.015625 9.90625 
Q 47.609375 13.234375 47.609375 19.390625 
Q 47.609375 24.75 44.3125 27.78125 
Q 41.015625 30.8125 33.5 32.328125 
L 27.484375 33.5 
Q 16.453125 35.6875 11.515625 40.375 
Q 6.59375 45.0625 6.59375 53.421875 
Q 6.59375 63.09375 13.40625 68.65625 
Q 20.21875 74.21875 32.171875 74.21875 
Q 37.3125 74.21875 42.625 73.28125 
Q 47.953125 72.359375 53.515625 70.515625 
z
" id="DejaVuSans-83"/>
        <path d="M 48.78125 52.59375 
L 48.78125 44.1875 
Q 44.96875 46.296875 41.140625 47.34375 
Q 37.3125 48.390625 33.40625 48.390625 
Q 24.65625 48.390625 19.8125 42.84375 
Q 14.984375 37.3125 14.984375 27.296875 
Q 14.984375 17.28125 19.8125 11.734375 
Q 24.65625 6.203125 33.40625 6.203125 
Q 37.3125 6.203125 41.140625 7.25 
Q 44.96875 8.296875 48.78125 10.40625 
L 48.78125 2.09375 
Q 45.015625 0.34375 40.984375 -0.53125 
Q 36.96875 -1.421875 32.421875 -1.421875 
Q 20.0625 -1.421875 12.78125 6.34375 
Q 5.515625 14.109375 5.515625 27.296875 
Q 5.515625 40.671875 12.859375 48.328125 
Q 20.21875 56 33.015625 56 
Q 37.15625 56 41.109375 55.140625 
Q 45.0625 54.296875 48.78125 52.59375 
z
" id="DejaVuSans-99"/>
        <path d="M 9.078125 75.984375 
L 18.109375 75.984375 
L 18.109375 31.109375 
L 44.921875 54.6875 
L 56.390625 54.6875 
L 27.390625 29.109375 
L 57.625 0 
L 45.90625 0 
L 18.109375 26.703125 
L 18.109375 0 
L 9.078125 0 
z
" id="DejaVuSans-107"/>
        <path d="M 9.421875 54.6875 
L 18.40625 54.6875 
L 18.40625 0 
L 9.421875 0 
z
M 9.421875 75.984375 
L 18.40625 75.984375 
L 18.40625 64.59375 
L 9.421875 64.59375 
z
" id="DejaVuSans-105"/>
       </defs>
       <use xlink:href="#DejaVuSans-32"/>
       <use x="31.787109" xlink:href="#DejaVuSans-103"/>
       <use x="95.263672" xlink:href="#DejaVuSans-95"/>
       <use x="145.263672" xlink:href="#DejaVuSans-95"/>
       <use x="195.263672" xlink:href="#DejaVuSans-83"/>
       <use x="258.740234" xlink:href="#DejaVuSans-108"/>
       <use x="286.523438" xlink:href="#DejaVuSans-97"/>
       <use x="347.802734" xlink:href="#DejaVuSans-99"/>
       <use x="402.783203" xlink:href="#DejaVuSans-107"/>
       <use x="460.693359" xlink:href="#DejaVuSans-105"/>
       <use x="488.476562" xlink:href="#DejaVuSans-97"/>
       <use x="549.755859" xlink:href="#DejaVuSans-95"/>
       <use x="599.755859" xlink:href="#DejaVuSans-48"/>
      </g>
     </g>
    </g>
    <g id="ytick_2">
     <g id="line2d_8">
      <g>
       <use style="stroke:#000000;stroke-width:0.8;" x="131.64375" xlink:href="#me7f9f44d43" y="115.833352"/>
      </g>
     </g>
     <g id="text_9">
      <!--  g__Catenibacterium_0 -->
      <g transform="translate(10.439063 119.632571)scale(0.1 -0.1)">
       <defs>
        <path d="M 18.3125 70.21875 
L 18.3125 54.6875 
L 36.8125 54.6875 
L 36.8125 47.703125 
L 18.3125 47.703125 
L 18.3125 18.015625 
Q 18.3125 11.328125 20.140625 9.421875 
Q 21.96875 7.515625 27.59375 7.515625 
L 36.8125 7.515625 
L 36.8125 0 
L 27.59375 0 
Q 17.1875 0 13.234375 3.875 
Q 9.28125 7.765625 9.28125 18.015625 
L 9.28125 47.703125 
L 2.6875 47.703125 
L 2.6875 54.6875 
L 9.28125 54.6875 
L 9.28125 70.21875 
z
" id="DejaVuSans-116"/>
        <path d="M 54.890625 33.015625 
L 54.890625 0 
L 45.90625 0 
L 45.90625 32.71875 
Q 45.90625 40.484375 42.875 44.328125 
Q 39.84375 48.1875 33.796875 48.1875 
Q 26.515625 48.1875 22.3125 43.546875 
Q 18.109375 38.921875 18.109375 30.90625 
L 18.109375 0 
L 9.078125 0 
L 9.078125 54.6875 
L 18.109375 54.6875 
L 18.109375 46.1875 
Q 21.34375 51.125 25.703125 53.5625 
Q 30.078125 56 35.796875 56 
Q 45.21875 56 50.046875 50.171875 
Q 54.890625 44.34375 54.890625 33.015625 
z
" id="DejaVuSans-110"/>
        <path d="M 48.6875 27.296875 
Q 48.6875 37.203125 44.609375 42.84375 
Q 40.53125 48.484375 33.40625 48.484375 
Q 26.265625 48.484375 22.1875 42.84375 
Q 18.109375 37.203125 18.109375 27.296875 
Q 18.109375 17.390625 22.1875 11.75 
Q 26.265625 6.109375 33.40625 6.109375 
Q 40.53125 6.109375 44.609375 11.75 
Q 48.6875 17.390625 48.6875 27.296875 
z
M 18.109375 46.390625 
Q 20.953125 51.265625 25.265625 53.625 
Q 29.59375 56 35.59375 56 
Q 45.5625 56 51.78125 48.09375 
Q 58.015625 40.1875 58.015625 27.296875 
Q 58.015625 14.40625 51.78125 6.484375 
Q 45.5625 -1.421875 35.59375 -1.421875 
Q 29.59375 -1.421875 25.265625 0.953125 
Q 20.953125 3.328125 18.109375 8.203125 
L 18.109375 0 
L 9.078125 0 
L 9.078125 75.984375 
L 18.109375 75.984375 
z
" id="DejaVuSans-98"/>
        <path d="M 41.109375 46.296875 
Q 39.59375 47.171875 37.8125 47.578125 
Q 36.03125 48 33.890625 48 
Q 26.265625 48 22.1875 43.046875 
Q 18.109375 38.09375 18.109375 28.8125 
L 18.109375 0 
L 9.078125 0 
L 9.078125 54.6875 
L 18.109375 54.6875 
L 18.109375 46.1875 
Q 20.953125 51.171875 25.484375 53.578125 
Q 30.03125 56 36.53125 56 
Q 37.453125 56 38.578125 55.875 
Q 39.703125 55.765625 41.0625 55.515625 
z
" id="DejaVuSans-114"/>
        <path d="M 52 44.1875 
Q 55.375 50.25 60.0625 53.125 
Q 64.75 56 71.09375 56 
Q 79.640625 56 84.28125 50.015625 
Q 88.921875 44.046875 88.921875 33.015625 
L 88.921875 0 
L 79.890625 0 
L 79.890625 32.71875 
Q 79.890625 40.578125 77.09375 44.375 
Q 74.3125 48.1875 68.609375 48.1875 
Q 61.625 48.1875 57.5625 43.546875 
Q 53.515625 38.921875 53.515625 30.90625 
L 53.515625 0 
L 44.484375 0 
L 44.484375 32.71875 
Q 44.484375 40.625 41.703125 44.40625 
Q 38.921875 48.1875 33.109375 48.1875 
Q 26.21875 48.1875 22.15625 43.53125 
Q 18.109375 38.875 18.109375 30.90625 
L 18.109375 0 
L 9.078125 0 
L 9.078125 54.6875 
L 18.109375 54.6875 
L 18.109375 46.1875 
Q 21.1875 51.21875 25.484375 53.609375 
Q 29.78125 56 35.6875 56 
Q 41.65625 56 45.828125 52.96875 
Q 50 49.953125 52 44.1875 
z
" id="DejaVuSans-109"/>
       </defs>
       <use xlink:href="#DejaVuSans-32"/>
       <use x="31.787109" xlink:href="#DejaVuSans-103"/>
       <use x="95.263672" xlink:href="#DejaVuSans-95"/>
       <use x="145.263672" xlink:href="#DejaVuSans-95"/>
       <use x="195.263672" xlink:href="#DejaVuSans-67"/>
       <use x="265.087891" xlink:href="#DejaVuSans-97"/>
       <use x="326.367188" xlink:href="#DejaVuSans-116"/>
       <use x="365.576172" xlink:href="#DejaVuSans-101"/>
       <use x="427.099609" xlink:href="#DejaVuSans-110"/>
       <use x="490.478516" xlink:href="#DejaVuSans-105"/>
       <use x="518.261719" xlink:href="#DejaVuSans-98"/>
       <use x="581.738281" xlink:href="#DejaVuSans-97"/>
       <use x="643.017578" xlink:href="#DejaVuSans-99"/>
       <use x="697.998047" xlink:href="#DejaVuSans-116"/>
       <use x="737.207031" xlink:href="#DejaVuSans-101"/>
       <use x="798.730469" xlink:href="#DejaVuSans-114"/>
       <use x="839.84375" xlink:href="#DejaVuSans-105"/>
       <use x="867.626953" xlink:href="#DejaVuSans-117"/>
       <use x="931.005859" xlink:href="#DejaVuSans-109"/>
       <use x="1028.417969" xlink:href="#DejaVuSans-95"/>
       <use x="1078.417969" xlink:href="#DejaVuSans-48"/>
      </g>
     </g>
    </g>
    <g id="ytick_3">
     <g id="line2d_9">
      <g>
       <use style="stroke:#000000;stroke-width:0.8;" x="131.64375" xlink:href="#me7f9f44d43" y="108.066307"/>
      </g>
     </g>
     <g id="text_10">
      <!--  g__Akkermansia_0 -->
      <g transform="translate(29.284375 111.865526)scale(0.1 -0.1)">
       <defs>
        <path d="M 34.1875 63.1875 
L 20.796875 26.90625 
L 47.609375 26.90625 
z
M 28.609375 72.90625 
L 39.796875 72.90625 
L 67.578125 0 
L 57.328125 0 
L 50.6875 18.703125 
L 17.828125 18.703125 
L 11.1875 0 
L 0.78125 0 
z
" id="DejaVuSans-65"/>
        <path d="M 44.28125 53.078125 
L 44.28125 44.578125 
Q 40.484375 46.53125 36.375 47.5 
Q 32.28125 48.484375 27.875 48.484375 
Q 21.1875 48.484375 17.84375 46.4375 
Q 14.5 44.390625 14.5 40.28125 
Q 14.5 37.15625 16.890625 35.375 
Q 19.28125 33.59375 26.515625 31.984375 
L 29.59375 31.296875 
Q 39.15625 29.25 43.1875 25.515625 
Q 47.21875 21.78125 47.21875 15.09375 
Q 47.21875 7.46875 41.1875 3.015625 
Q 35.15625 -1.421875 24.609375 -1.421875 
Q 20.21875 -1.421875 15.453125 -0.5625 
Q 10.6875 0.296875 5.421875 2 
L 5.421875 11.28125 
Q 10.40625 8.6875 15.234375 7.390625 
Q 20.0625 6.109375 24.8125 6.109375 
Q 31.15625 6.109375 34.5625 8.28125 
Q 37.984375 10.453125 37.984375 14.40625 
Q 37.984375 18.0625 35.515625 20.015625 
Q 33.0625 21.96875 24.703125 23.78125 
L 21.578125 24.515625 
Q 13.234375 26.265625 9.515625 29.90625 
Q 5.8125 33.546875 5.8125 39.890625 
Q 5.8125 47.609375 11.28125 51.796875 
Q 16.75 56 26.8125 56 
Q 31.78125 56 36.171875 55.265625 
Q 40.578125 54.546875 44.28125 53.078125 
z
" id="DejaVuSans-115"/>
       </defs>
       <use xlink:href="#DejaVuSans-32"/>
       <use x="31.787109" xlink:href="#DejaVuSans-103"/>
       <use x="95.263672" xlink:href="#DejaVuSans-95"/>
       <use x="145.263672" xlink:href="#DejaVuSans-95"/>
       <use x="195.263672" xlink:href="#DejaVuSans-65"/>
       <use x="263.671875" xlink:href="#DejaVuSans-107"/>
       <use x="321.582031" xlink:href="#DejaVuSans-107"/>
       <use x="375.867188" xlink:href="#DejaVuSans-101"/>
       <use x="437.390625" xlink:href="#DejaVuSans-114"/>
       <use x="476.753906" xlink:href="#DejaVuSans-109"/>
       <use x="574.166016" xlink:href="#DejaVuSans-97"/>
       <use x="635.445312" xlink:href="#DejaVuSans-110"/>
       <use x="698.824219" xlink:href="#DejaVuSans-115"/>
       <use x="750.923828" xlink:href="#DejaVuSans-105"/>
       <use x="778.707031" xlink:href="#DejaVuSans-97"/>
       <use x="839.986328" xlink:href="#DejaVuSans-95"/>
       <use x="889.986328" xlink:href="#DejaVuSans-48"/>
      </g>
     </g>
    </g>
    <g id="ytick_4">
     <g id="line2d_10">
      <g>
       <use style="stroke:#000000;stroke-width:0.8;" x="131.64375" xlink:href="#me7f9f44d43" y="100.299261"/>
      </g>
     </g>
     <g id="text_11">
      <!--  g__Porphyromonas_0 -->
      <g transform="translate(15.714063 104.09848)scale(0.1 -0.1)">
       <defs>
        <path d="M 19.671875 64.796875 
L 19.671875 37.40625 
L 32.078125 37.40625 
Q 38.96875 37.40625 42.71875 40.96875 
Q 46.484375 44.53125 46.484375 51.125 
Q 46.484375 57.671875 42.71875 61.234375 
Q 38.96875 64.796875 32.078125 64.796875 
z
M 9.8125 72.90625 
L 32.078125 72.90625 
Q 44.34375 72.90625 50.609375 67.359375 
Q 56.890625 61.8125 56.890625 51.125 
Q 56.890625 40.328125 50.609375 34.8125 
Q 44.34375 29.296875 32.078125 29.296875 
L 19.671875 29.296875 
L 19.671875 0 
L 9.8125 0 
z
" id="DejaVuSans-80"/>
        <path d="M 18.109375 8.203125 
L 18.109375 -20.796875 
L 9.078125 -20.796875 
L 9.078125 54.6875 
L 18.109375 54.6875 
L 18.109375 46.390625 
Q 20.953125 51.265625 25.265625 53.625 
Q 29.59375 56 35.59375 56 
Q 45.5625 56 51.78125 48.09375 
Q 58.015625 40.1875 58.015625 27.296875 
Q 58.015625 14.40625 51.78125 6.484375 
Q 45.5625 -1.421875 35.59375 -1.421875 
Q 29.59375 -1.421875 25.265625 0.953125 
Q 20.953125 3.328125 18.109375 8.203125 
z
M 48.6875 27.296875 
Q 48.6875 37.203125 44.609375 42.84375 
Q 40.53125 48.484375 33.40625 48.484375 
Q 26.265625 48.484375 22.1875 42.84375 
Q 18.109375 37.203125 18.109375 27.296875 
Q 18.109375 17.390625 22.1875 11.75 
Q 26.265625 6.109375 33.40625 6.109375 
Q 40.53125 6.109375 44.609375 11.75 
Q 48.6875 17.390625 48.6875 27.296875 
z
" id="DejaVuSans-112"/>
        <path d="M 54.890625 33.015625 
L 54.890625 0 
L 45.90625 0 
L 45.90625 32.71875 
Q 45.90625 40.484375 42.875 44.328125 
Q 39.84375 48.1875 33.796875 48.1875 
Q 26.515625 48.1875 22.3125 43.546875 
Q 18.109375 38.921875 18.109375 30.90625 
L 18.109375 0 
L 9.078125 0 
L 9.078125 75.984375 
L 18.109375 75.984375 
L 18.109375 46.1875 
Q 21.34375 51.125 25.703125 53.5625 
Q 30.078125 56 35.796875 56 
Q 45.21875 56 50.046875 50.171875 
Q 54.890625 44.34375 54.890625 33.015625 
z
" id="DejaVuSans-104"/>
        <path d="M 32.171875 -5.078125 
Q 28.375 -14.84375 24.75 -17.8125 
Q 21.140625 -20.796875 15.09375 -20.796875 
L 7.90625 -20.796875 
L 7.90625 -13.28125 
L 13.1875 -13.28125 
Q 16.890625 -13.28125 18.9375 -11.515625 
Q 21 -9.765625 23.484375 -3.21875 
L 25.09375 0.875 
L 2.984375 54.6875 
L 12.5 54.6875 
L 29.59375 11.921875 
L 46.6875 54.6875 
L 56.203125 54.6875 
z
" id="DejaVuSans-121"/>
       </defs>
       <use xlink:href="#DejaVuSans-32"/>
       <use x="31.787109" xlink:href="#DejaVuSans-103"/>
       <use x="95.263672" xlink:href="#DejaVuSans-95"/>
       <use x="145.263672" xlink:href="#DejaVuSans-95"/>
       <use x="195.263672" xlink:href="#DejaVuSans-80"/>
       <use x="251.941406" xlink:href="#DejaVuSans-111"/>
       <use x="313.123047" xlink:href="#DejaVuSans-114"/>
       <use x="354.236328" xlink:href="#DejaVuSans-112"/>
       <use x="417.712891" xlink:href="#DejaVuSans-104"/>
       <use x="481.091797" xlink:href="#DejaVuSans-121"/>
       <use x="540.271484" xlink:href="#DejaVuSans-114"/>
       <use x="579.134766" xlink:href="#DejaVuSans-111"/>
       <use x="640.316406" xlink:href="#DejaVuSans-109"/>
       <use x="737.728516" xlink:href="#DejaVuSans-111"/>
       <use x="798.910156" xlink:href="#DejaVuSans-110"/>
       <use x="862.289062" xlink:href="#DejaVuSans-97"/>
       <use x="923.568359" xlink:href="#DejaVuSans-115"/>
       <use x="975.667969" xlink:href="#DejaVuSans-95"/>
       <use x="1025.667969" xlink:href="#DejaVuSans-48"/>
      </g>
     </g>
    </g>
    <g id="ytick_5">
     <g id="line2d_11">
      <g>
       <use style="stroke:#000000;stroke-width:0.8;" x="131.64375" xlink:href="#me7f9f44d43" y="92.532216"/>
      </g>
     </g>
     <g id="text_12">
      <!--  g__Eggerthella_0 -->
      <g transform="translate(36.379688 96.331435)scale(0.1 -0.1)">
       <defs>
        <path d="M 9.8125 72.90625 
L 55.90625 72.90625 
L 55.90625 64.59375 
L 19.671875 64.59375 
L 19.671875 43.015625 
L 54.390625 43.015625 
L 54.390625 34.71875 
L 19.671875 34.71875 
L 19.671875 8.296875 
L 56.78125 8.296875 
L 56.78125 0 
L 9.8125 0 
z
" id="DejaVuSans-69"/>
       </defs>
       <use xlink:href="#DejaVuSans-32"/>
       <use x="31.787109" xlink:href="#DejaVuSans-103"/>
       <use x="95.263672" xlink:href="#DejaVuSans-95"/>
       <use x="145.263672" xlink:href="#DejaVuSans-95"/>
       <use x="195.263672" xlink:href="#DejaVuSans-69"/>
       <use x="258.447266" xlink:href="#DejaVuSans-103"/>
       <use x="321.923828" xlink:href="#DejaVuSans-103"/>
       <use x="385.400391" xlink:href="#DejaVuSans-101"/>
       <use x="446.923828" xlink:href="#DejaVuSans-114"/>
       <use x="488.037109" xlink:href="#DejaVuSans-116"/>
       <use x="527.246094" xlink:href="#DejaVuSans-104"/>
       <use x="590.625" xlink:href="#DejaVuSans-101"/>
       <use x="652.148438" xlink:href="#DejaVuSans-108"/>
       <use x="679.931641" xlink:href="#DejaVuSans-108"/>
       <use x="707.714844" xlink:href="#DejaVuSans-97"/>
       <use x="768.994141" xlink:href="#DejaVuSans-95"/>
       <use x="818.994141" xlink:href="#DejaVuSans-48"/>
      </g>
     </g>
    </g>
    <g id="ytick_6">
     <g id="line2d_12">
      <g>
       <use style="stroke:#000000;stroke-width:0.8;" x="131.64375" xlink:href="#me7f9f44d43" y="84.76517"/>
      </g>
     </g>
     <g id="text_13">
      <!--  g__Blautia_0 -->
      <g transform="translate(58.823438 88.564389)scale(0.1 -0.1)">
       <defs>
        <path d="M 19.671875 34.8125 
L 19.671875 8.109375 
L 35.5 8.109375 
Q 43.453125 8.109375 47.28125 11.40625 
Q 51.125 14.703125 51.125 21.484375 
Q 51.125 28.328125 47.28125 31.5625 
Q 43.453125 34.8125 35.5 34.8125 
z
M 19.671875 64.796875 
L 19.671875 42.828125 
L 34.28125 42.828125 
Q 41.5 42.828125 45.03125 45.53125 
Q 48.578125 48.25 48.578125 53.8125 
Q 48.578125 59.328125 45.03125 62.0625 
Q 41.5 64.796875 34.28125 64.796875 
z
M 9.8125 72.90625 
L 35.015625 72.90625 
Q 46.296875 72.90625 52.390625 68.21875 
Q 58.5 63.53125 58.5 54.890625 
Q 58.5 48.1875 55.375 44.234375 
Q 52.25 40.28125 46.1875 39.3125 
Q 53.46875 37.75 57.5 32.78125 
Q 61.53125 27.828125 61.53125 20.40625 
Q 61.53125 10.640625 54.890625 5.3125 
Q 48.25 0 35.984375 0 
L 9.8125 0 
z
" id="DejaVuSans-66"/>
       </defs>
       <use xlink:href="#DejaVuSans-32"/>
       <use x="31.787109" xlink:href="#DejaVuSans-103"/>
       <use x="95.263672" xlink:href="#DejaVuSans-95"/>
       <use x="145.263672" xlink:href="#DejaVuSans-95"/>
       <use x="195.263672" xlink:href="#DejaVuSans-66"/>
       <use x="263.867188" xlink:href="#DejaVuSans-108"/>
       <use x="291.650391" xlink:href="#DejaVuSans-97"/>
       <use x="352.929688" xlink:href="#DejaVuSans-117"/>
       <use x="416.308594" xlink:href="#DejaVuSans-116"/>
       <use x="455.517578" xlink:href="#DejaVuSans-105"/>
       <use x="483.300781" xlink:href="#DejaVuSans-97"/>
       <use x="544.580078" xlink:href="#DejaVuSans-95"/>
       <use x="594.580078" xlink:href="#DejaVuSans-48"/>
      </g>
     </g>
    </g>
    <g id="ytick_7">
     <g id="line2d_13">
      <g>
       <use style="stroke:#000000;stroke-width:0.8;" x="131.64375" xlink:href="#me7f9f44d43" y="76.998125"/>
      </g>
     </g>
     <g id="text_14">
      <!--  g__Acidaminococcus_0 -->
      <g transform="translate(7.2 80.797344)scale(0.1 -0.1)">
       <defs>
        <path d="M 45.40625 46.390625 
L 45.40625 75.984375 
L 54.390625 75.984375 
L 54.390625 0 
L 45.40625 0 
L 45.40625 8.203125 
Q 42.578125 3.328125 38.25 0.953125 
Q 33.9375 -1.421875 27.875 -1.421875 
Q 17.96875 -1.421875 11.734375 6.484375 
Q 5.515625 14.40625 5.515625 27.296875 
Q 5.515625 40.1875 11.734375 48.09375 
Q 17.96875 56 27.875 56 
Q 33.9375 56 38.25 53.625 
Q 42.578125 51.265625 45.40625 46.390625 
z
M 14.796875 27.296875 
Q 14.796875 17.390625 18.875 11.75 
Q 22.953125 6.109375 30.078125 6.109375 
Q 37.203125 6.109375 41.296875 11.75 
Q 45.40625 17.390625 45.40625 27.296875 
Q 45.40625 37.203125 41.296875 42.84375 
Q 37.203125 48.484375 30.078125 48.484375 
Q 22.953125 48.484375 18.875 42.84375 
Q 14.796875 37.203125 14.796875 27.296875 
z
" id="DejaVuSans-100"/>
       </defs>
       <use xlink:href="#DejaVuSans-32"/>
       <use x="31.787109" xlink:href="#DejaVuSans-103"/>
       <use x="95.263672" xlink:href="#DejaVuSans-95"/>
       <use x="145.263672" xlink:href="#DejaVuSans-95"/>
       <use x="195.263672" xlink:href="#DejaVuSans-65"/>
       <use x="261.921875" xlink:href="#DejaVuSans-99"/>
       <use x="316.902344" xlink:href="#DejaVuSans-105"/>
       <use x="344.685547" xlink:href="#DejaVuSans-100"/>
       <use x="408.162109" xlink:href="#DejaVuSans-97"/>
       <use x="469.441406" xlink:href="#DejaVuSans-109"/>
       <use x="566.853516" xlink:href="#DejaVuSans-105"/>
       <use x="594.636719" xlink:href="#DejaVuSans-110"/>
       <use x="658.015625" xlink:href="#DejaVuSans-111"/>
       <use x="719.197266" xlink:href="#DejaVuSans-99"/>
       <use x="774.177734" xlink:href="#DejaVuSans-111"/>
       <use x="835.359375" xlink:href="#DejaVuSans-99"/>
       <use x="890.339844" xlink:href="#DejaVuSans-99"/>
       <use x="945.320312" xlink:href="#DejaVuSans-117"/>
       <use x="1008.699219" xlink:href="#DejaVuSans-115"/>
       <use x="1060.798828" xlink:href="#DejaVuSans-95"/>
       <use x="1110.798828" xlink:href="#DejaVuSans-48"/>
      </g>
     </g>
    </g>
    <g id="ytick_8">
     <g id="line2d_14">
      <g>
       <use style="stroke:#000000;stroke-width:0.8;" x="131.64375" xlink:href="#me7f9f44d43" y="69.23108"/>
      </g>
     </g>
     <g id="text_15">
      <!--  g__Parabacteroides_1 -->
      <g transform="translate(13.265625 73.030298)scale(0.1 -0.1)">
       <use xlink:href="#DejaVuSans-32"/>
       <use x="31.787109" xlink:href="#DejaVuSans-103"/>
       <use x="95.263672" xlink:href="#DejaVuSans-95"/>
       <use x="145.263672" xlink:href="#DejaVuSans-95"/>
       <use x="195.263672" xlink:href="#DejaVuSans-80"/>
       <use x="251.066406" xlink:href="#DejaVuSans-97"/>
       <use x="312.345703" xlink:href="#DejaVuSans-114"/>
       <use x="353.458984" xlink:href="#DejaVuSans-97"/>
       <use x="414.738281" xlink:href="#DejaVuSans-98"/>
       <use x="478.214844" xlink:href="#DejaVuSans-97"/>
       <use x="539.494141" xlink:href="#DejaVuSans-99"/>
       <use x="594.474609" xlink:href="#DejaVuSans-116"/>
       <use x="633.683594" xlink:href="#DejaVuSans-101"/>
       <use x="695.207031" xlink:href="#DejaVuSans-114"/>
       <use x="734.070312" xlink:href="#DejaVuSans-111"/>
       <use x="795.251953" xlink:href="#DejaVuSans-105"/>
       <use x="823.035156" xlink:href="#DejaVuSans-100"/>
       <use x="886.511719" xlink:href="#DejaVuSans-101"/>
       <use x="948.035156" xlink:href="#DejaVuSans-115"/>
       <use x="1000.134766" xlink:href="#DejaVuSans-95"/>
       <use x="1050.134766" xlink:href="#DejaVuSans-49"/>
      </g>
     </g>
    </g>
    <g id="ytick_9">
     <g id="line2d_15">
      <g>
       <use style="stroke:#000000;stroke-width:0.8;" x="131.64375" xlink:href="#me7f9f44d43" y="61.464034"/>
      </g>
     </g>
     <g id="text_16">
      <!--  g__Clostridium_0 -->
      <g transform="translate(36.651563 65.263253)scale(0.1 -0.1)">
       <use xlink:href="#DejaVuSans-32"/>
       <use x="31.787109" xlink:href="#DejaVuSans-103"/>
       <use x="95.263672" xlink:href="#DejaVuSans-95"/>
       <use x="145.263672" xlink:href="#DejaVuSans-95"/>
       <use x="195.263672" xlink:href="#DejaVuSans-67"/>
       <use x="265.087891" xlink:href="#DejaVuSans-108"/>
       <use x="292.871094" xlink:href="#DejaVuSans-111"/>
       <use x="354.052734" xlink:href="#DejaVuSans-115"/>
       <use x="406.152344" xlink:href="#DejaVuSans-116"/>
       <use x="445.361328" xlink:href="#DejaVuSans-114"/>
       <use x="486.474609" xlink:href="#DejaVuSans-105"/>
       <use x="514.257812" xlink:href="#DejaVuSans-100"/>
       <use x="577.734375" xlink:href="#DejaVuSans-105"/>
       <use x="605.517578" xlink:href="#DejaVuSans-117"/>
       <use x="668.896484" xlink:href="#DejaVuSans-109"/>
       <use x="766.308594" xlink:href="#DejaVuSans-95"/>
       <use x="816.308594" xlink:href="#DejaVuSans-48"/>
      </g>
     </g>
    </g>
    <g id="ytick_10">
     <g id="line2d_16">
      <g>
       <use style="stroke:#000000;stroke-width:0.8;" x="131.64375" xlink:href="#me7f9f44d43" y="53.696989"/>
      </g>
     </g>
     <g id="text_17">
      <!--  g__Fusobacterium_0 -->
      <g transform="translate(19.871875 57.496207)scale(0.1 -0.1)">
       <defs>
        <path d="M 9.8125 72.90625 
L 51.703125 72.90625 
L 51.703125 64.59375 
L 19.671875 64.59375 
L 19.671875 43.109375 
L 48.578125 43.109375 
L 48.578125 34.8125 
L 19.671875 34.8125 
L 19.671875 0 
L 9.8125 0 
z
" id="DejaVuSans-70"/>
       </defs>
       <use xlink:href="#DejaVuSans-32"/>
       <use x="31.787109" xlink:href="#DejaVuSans-103"/>
       <use x="95.263672" xlink:href="#DejaVuSans-95"/>
       <use x="145.263672" xlink:href="#DejaVuSans-95"/>
       <use x="195.263672" xlink:href="#DejaVuSans-70"/>
       <use x="247.283203" xlink:href="#DejaVuSans-117"/>
       <use x="310.662109" xlink:href="#DejaVuSans-115"/>
       <use x="362.761719" xlink:href="#DejaVuSans-111"/>
       <use x="423.943359" xlink:href="#DejaVuSans-98"/>
       <use x="487.419922" xlink:href="#DejaVuSans-97"/>
       <use x="548.699219" xlink:href="#DejaVuSans-99"/>
       <use x="603.679688" xlink:href="#DejaVuSans-116"/>
       <use x="642.888672" xlink:href="#DejaVuSans-101"/>
       <use x="704.412109" xlink:href="#DejaVuSans-114"/>
       <use x="745.525391" xlink:href="#DejaVuSans-105"/>
       <use x="773.308594" xlink:href="#DejaVuSans-117"/>
       <use x="836.6875" xlink:href="#DejaVuSans-109"/>
       <use x="934.099609" xlink:href="#DejaVuSans-95"/>
       <use x="984.099609" xlink:href="#DejaVuSans-48"/>
      </g>
     </g>
    </g>
    <g id="ytick_11">
     <g id="line2d_17">
      <g>
       <use style="stroke:#000000;stroke-width:0.8;" x="131.64375" xlink:href="#me7f9f44d43" y="45.929943"/>
      </g>
     </g>
     <g id="text_18">
      <!--  g__Lactonifactor_0 -->
      <g transform="translate(28.104688 49.729162)scale(0.1 -0.1)">
       <defs>
        <path d="M 9.8125 72.90625 
L 19.671875 72.90625 
L 19.671875 8.296875 
L 55.171875 8.296875 
L 55.171875 0 
L 9.8125 0 
z
" id="DejaVuSans-76"/>
       </defs>
       <use xlink:href="#DejaVuSans-32"/>
       <use x="31.787109" xlink:href="#DejaVuSans-103"/>
       <use x="95.263672" xlink:href="#DejaVuSans-95"/>
       <use x="145.263672" xlink:href="#DejaVuSans-95"/>
       <use x="195.263672" xlink:href="#DejaVuSans-76"/>
       <use x="250.976562" xlink:href="#DejaVuSans-97"/>
       <use x="312.255859" xlink:href="#DejaVuSans-99"/>
       <use x="367.236328" xlink:href="#DejaVuSans-116"/>
       <use x="406.445312" xlink:href="#DejaVuSans-111"/>
       <use x="467.626953" xlink:href="#DejaVuSans-110"/>
       <use x="531.005859" xlink:href="#DejaVuSans-105"/>
       <use x="558.789062" xlink:href="#DejaVuSans-102"/>
       <use x="593.994141" xlink:href="#DejaVuSans-97"/>
       <use x="655.273438" xlink:href="#DejaVuSans-99"/>
       <use x="710.253906" xlink:href="#DejaVuSans-116"/>
       <use x="749.462891" xlink:href="#DejaVuSans-111"/>
       <use x="810.644531" xlink:href="#DejaVuSans-114"/>
       <use x="851.757812" xlink:href="#DejaVuSans-95"/>
       <use x="901.757812" xlink:href="#DejaVuSans-48"/>
      </g>
     </g>
    </g>
    <g id="ytick_12">
     <g id="line2d_18">
      <g>
       <use style="stroke:#000000;stroke-width:0.8;" x="131.64375" xlink:href="#me7f9f44d43" y="38.162898"/>
      </g>
     </g>
     <g id="text_19">
      <!--  g__Coprococcus_0 -->
      <g transform="translate(30.139063 41.873835)scale(0.1 -0.1)">
       <use xlink:href="#DejaVuSans-32"/>
       <use x="31.787109" xlink:href="#DejaVuSans-103"/>
       <use x="95.263672" xlink:href="#DejaVuSans-95"/>
       <use x="145.263672" xlink:href="#DejaVuSans-95"/>
       <use x="195.263672" xlink:href="#DejaVuSans-67"/>
       <use x="265.087891" xlink:href="#DejaVuSans-111"/>
       <use x="326.269531" xlink:href="#DejaVuSans-112"/>
       <use x="389.746094" xlink:href="#DejaVuSans-114"/>
       <use x="428.609375" xlink:href="#DejaVuSans-111"/>
       <use x="489.791016" xlink:href="#DejaVuSans-99"/>
       <use x="544.771484" xlink:href="#DejaVuSans-111"/>
       <use x="605.953125" xlink:href="#DejaVuSans-99"/>
       <use x="660.933594" xlink:href="#DejaVuSans-99"/>
       <use x="715.914062" xlink:href="#DejaVuSans-117"/>
       <use x="779.292969" xlink:href="#DejaVuSans-115"/>
       <use x="831.392578" xlink:href="#DejaVuSans-95"/>
       <use x="881.392578" xlink:href="#DejaVuSans-48"/>
      </g>
     </g>
    </g>
    <g id="ytick_13">
     <g id="line2d_19">
      <g>
       <use style="stroke:#000000;stroke-width:0.8;" x="131.64375" xlink:href="#me7f9f44d43" y="30.395852"/>
      </g>
     </g>
     <g id="text_20">
      <!--  g__Anaerotruncus_0 -->
      <g transform="translate(20.539062 34.10679)scale(0.1 -0.1)">
       <use xlink:href="#DejaVuSans-32"/>
       <use x="31.787109" xlink:href="#DejaVuSans-103"/>
       <use x="95.263672" xlink:href="#DejaVuSans-95"/>
       <use x="145.263672" xlink:href="#DejaVuSans-95"/>
       <use x="195.263672" xlink:href="#DejaVuSans-65"/>
       <use x="263.671875" xlink:href="#DejaVuSans-110"/>
       <use x="327.050781" xlink:href="#DejaVuSans-97"/>
       <use x="388.330078" xlink:href="#DejaVuSans-101"/>
       <use x="449.853516" xlink:href="#DejaVuSans-114"/>
       <use x="488.716797" xlink:href="#DejaVuSans-111"/>
       <use x="549.898438" xlink:href="#DejaVuSans-116"/>
       <use x="589.107422" xlink:href="#DejaVuSans-114"/>
       <use x="630.220703" xlink:href="#DejaVuSans-117"/>
       <use x="693.599609" xlink:href="#DejaVuSans-110"/>
       <use x="756.978516" xlink:href="#DejaVuSans-99"/>
       <use x="811.958984" xlink:href="#DejaVuSans-117"/>
       <use x="875.337891" xlink:href="#DejaVuSans-115"/>
       <use x="927.4375" xlink:href="#DejaVuSans-95"/>
       <use x="977.4375" xlink:href="#DejaVuSans-48"/>
      </g>
     </g>
    </g>
   </g>
   <g id="patch_16">
    <path d="M 131.64375 131.678125 
L 131.64375 22.318125 
" style="fill:none;stroke:#000000;stroke-linecap:square;stroke-linejoin:miter;stroke-width:0.8;"/>
   </g>
   <g id="patch_17">
    <path d="M 446.39375 131.678125 
L 446.39375 22.318125 
" style="fill:none;stroke:#000000;stroke-linecap:square;stroke-linejoin:miter;stroke-width:0.8;"/>
   </g>
   <g id="patch_18">
    <path d="M 131.64375 131.678125 
L 446.39375 131.678125 
" style="fill:none;stroke:#000000;stroke-linecap:square;stroke-linejoin:miter;stroke-width:0.8;"/>
   </g>
   <g id="patch_19">
    <path d="M 131.64375 22.318125 
L 446.39375 22.318125 
" style="fill:none;stroke:#000000;stroke-linecap:square;stroke-linejoin:miter;stroke-width:0.8;"/>
   </g>
   <g id="text_21">
    <!-- SSS -->
    <g transform="translate(277.591563 16.318125)scale(0.12 -0.12)">
     <use xlink:href="#DejaVuSans-83"/>
     <use x="63.476562" xlink:href="#DejaVuSans-83"/>
     <use x="126.953125" xlink:href="#DejaVuSans-83"/>
    </g>
   </g>
  </g>
  <g id="axes_2">
   <g id="patch_20">
    <path d="M 131.64375 299.078125 
L 446.39375 299.078125 
L 446.39375 189.718125 
L 131.64375 189.718125 
z
" style="fill:#ffffff;"/>
   </g>
   <g id="patch_21">
    <path clip-path="url(#p91ad8dc0f3)" d="M 145.950568 299.078125 
L 150.191094 299.078125 
L 150.191094 297.149377 
L 145.950568 297.149377 
z
" style="fill:#d95f0e;opacity:0.5;"/>
   </g>
   <g id="patch_22">
    <path clip-path="url(#p91ad8dc0f3)" d="M 151.251225 299.078125 
L 155.49175 299.078125 
L 155.49175 297.149377 
L 151.251225 297.149377 
z
" style="fill:#d95f0e;opacity:0.5;"/>
   </g>
   <g id="patch_23">
    <path clip-path="url(#p91ad8dc0f3)" d="M 156.551882 299.078125 
L 160.792407 299.078125 
L 160.792407 299.078125 
L 156.551882 299.078125 
z
" style="fill:#d95f0e;opacity:0.5;"/>
   </g>
   <g id="patch_24">
    <path clip-path="url(#p91ad8dc0f3)" d="M 161.852538 299.078125 
L 166.093064 299.078125 
L 166.093064 299.078125 
L 161.852538 299.078125 
z
" style="fill:#d95f0e;opacity:0.5;"/>
   </g>
   <g id="patch_25">
    <path clip-path="url(#p91ad8dc0f3)" d="M 167.153195 299.078125 
L 171.39372 299.078125 
L 171.39372 297.149377 
L 167.153195 297.149377 
z
" style="fill:#d95f0e;opacity:0.5;"/>
   </g>
   <g id="patch_26">
    <path clip-path="url(#p91ad8dc0f3)" d="M 172.453852 299.078125 
L 176.694377 299.078125 
L 176.694377 295.220629 
L 172.453852 295.220629 
z
" style="fill:#d95f0e;opacity:0.5;"/>
   </g>
   <g id="patch_27">
    <path clip-path="url(#p91ad8dc0f3)" d="M 177.754508 299.078125 
L 181.995034 299.078125 
L 181.995034 291.363134 
L 177.754508 291.363134 
z
" style="fill:#d95f0e;opacity:0.5;"/>
   </g>
   <g id="patch_28">
    <path clip-path="url(#p91ad8dc0f3)" d="M 183.055165 299.078125 
L 187.295691 299.078125 
L 187.295691 297.149377 
L 183.055165 297.149377 
z
" style="fill:#d95f0e;opacity:0.5;"/>
   </g>
   <g id="patch_29">
    <path clip-path="url(#p91ad8dc0f3)" d="M 188.355822 299.078125 
L 192.596347 299.078125 
L 192.596347 293.291882 
L 188.355822 293.291882 
z
" style="fill:#d95f0e;opacity:0.5;"/>
   </g>
   <g id="patch_30">
    <path clip-path="url(#p91ad8dc0f3)" d="M 193.656479 299.078125 
L 197.897004 299.078125 
L 197.897004 287.505638 
L 193.656479 287.505638 
z
" style="fill:#d95f0e;opacity:0.5;"/>
   </g>
   <g id="patch_31">
    <path clip-path="url(#p91ad8dc0f3)" d="M 198.957135 299.078125 
L 203.197661 299.078125 
L 203.197661 281.719395 
L 198.957135 281.719395 
z
" style="fill:#d95f0e;opacity:0.5;"/>
   </g>
   <g id="patch_32">
    <path clip-path="url(#p91ad8dc0f3)" d="M 204.257792 299.078125 
L 208.498317 299.078125 
L 208.498317 277.861899 
L 204.257792 277.861899 
z
" style="fill:#d95f0e;opacity:0.5;"/>
   </g>
   <g id="patch_33">
    <path clip-path="url(#p91ad8dc0f3)" d="M 209.558449 299.078125 
L 213.798974 299.078125 
L 213.798974 274.004404 
L 209.558449 274.004404 
z
" style="fill:#d95f0e;opacity:0.5;"/>
   </g>
   <g id="patch_34">
    <path clip-path="url(#p91ad8dc0f3)" d="M 214.859105 299.078125 
L 219.099631 299.078125 
L 219.099631 274.004404 
L 214.859105 274.004404 
z
" style="fill:#d95f0e;opacity:0.5;"/>
   </g>
   <g id="patch_35">
    <path clip-path="url(#p91ad8dc0f3)" d="M 220.159762 299.078125 
L 224.400287 299.078125 
L 224.400287 272.075656 
L 220.159762 272.075656 
z
" style="fill:#d95f0e;opacity:0.5;"/>
   </g>
   <g id="patch_36">
    <path clip-path="url(#p91ad8dc0f3)" d="M 225.460419 299.078125 
L 229.700944 299.078125 
L 229.700944 260.503169 
L 225.460419 260.503169 
z
" style="fill:#d95f0e;opacity:0.5;"/>
   </g>
   <g id="patch_37">
    <path clip-path="url(#p91ad8dc0f3)" d="M 230.761076 299.078125 
L 235.001601 299.078125 
L 235.001601 260.503169 
L 230.761076 260.503169 
z
" style="fill:#d95f0e;opacity:0.5;"/>
   </g>
   <g id="patch_38">
    <path clip-path="url(#p91ad8dc0f3)" d="M 236.061732 299.078125 
L 240.302258 299.078125 
L 240.302258 247.001935 
L 236.061732 247.001935 
z
" style="fill:#d95f0e;opacity:0.5;"/>
   </g>
   <g id="patch_39">
    <path clip-path="url(#p91ad8dc0f3)" d="M 241.362389 299.078125 
L 245.602914 299.078125 
L 245.602914 237.358196 
L 241.362389 237.358196 
z
" style="fill:#d95f0e;opacity:0.5;"/>
   </g>
   <g id="patch_40">
    <path clip-path="url(#p91ad8dc0f3)" d="M 246.663046 299.078125 
L 250.903571 299.078125 
L 250.903571 233.5007 
L 246.663046 233.5007 
z
" style="fill:#d95f0e;opacity:0.5;"/>
   </g>
   <g id="patch_41">
    <path clip-path="url(#p91ad8dc0f3)" d="M 251.963702 299.078125 
L 256.204228 299.078125 
L 256.204228 254.716926 
L 251.963702 254.716926 
z
" style="fill:#d95f0e;opacity:0.5;"/>
   </g>
   <g id="patch_42">
    <path clip-path="url(#p91ad8dc0f3)" d="M 257.264359 299.078125 
L 261.504884 299.078125 
L 261.504884 219.999465 
L 257.264359 219.999465 
z
" style="fill:#d95f0e;opacity:0.5;"/>
   </g>
   <g id="patch_43">
    <path clip-path="url(#p91ad8dc0f3)" d="M 262.565016 299.078125 
L 266.805541 299.078125 
L 266.805541 216.14197 
L 262.565016 216.14197 
z
" style="fill:#d95f0e;opacity:0.5;"/>
   </g>
   <g id="patch_44">
    <path clip-path="url(#p91ad8dc0f3)" d="M 267.865673 299.078125 
L 272.106198 299.078125 
L 272.106198 235.429448 
L 267.865673 235.429448 
z
" style="fill:#d95f0e;opacity:0.5;"/>
   </g>
   <g id="patch_45">
    <path clip-path="url(#p91ad8dc0f3)" d="M 273.166329 299.078125 
L 277.406855 299.078125 
L 277.406855 194.925744 
L 273.166329 194.925744 
z
" style="fill:#d95f0e;opacity:0.5;"/>
   </g>
   <g id="patch_46">
    <path clip-path="url(#p91ad8dc0f3)" d="M 278.466986 299.078125 
L 282.707511 299.078125 
L 282.707511 225.785709 
L 278.466986 225.785709 
z
" style="fill:#d95f0e;opacity:0.5;"/>
   </g>
   <g id="patch_47">
    <path clip-path="url(#p91ad8dc0f3)" d="M 283.767643 299.078125 
L 288.008168 299.078125 
L 288.008168 223.856961 
L 283.767643 223.856961 
z
" style="fill:#d95f0e;opacity:0.5;"/>
   </g>
   <g id="patch_48">
    <path clip-path="url(#p91ad8dc0f3)" d="M 289.068299 299.078125 
L 293.308825 299.078125 
L 293.308825 231.571952 
L 289.068299 231.571952 
z
" style="fill:#d95f0e;opacity:0.5;"/>
   </g>
   <g id="patch_49">
    <path clip-path="url(#p91ad8dc0f3)" d="M 294.368956 299.078125 
L 298.609481 299.078125 
L 298.609481 202.640735 
L 294.368956 202.640735 
z
" style="fill:#d95f0e;opacity:0.5;"/>
   </g>
   <g id="patch_50">
    <path clip-path="url(#p91ad8dc0f3)" d="M 299.669613 299.078125 
L 303.910138 299.078125 
L 303.910138 235.429448 
L 299.669613 235.429448 
z
" style="fill:#d95f0e;opacity:0.5;"/>
   </g>
   <g id="patch_51">
    <path clip-path="url(#p91ad8dc0f3)" d="M 304.970269 299.078125 
L 309.210795 299.078125 
L 309.210795 241.215691 
L 304.970269 241.215691 
z
" style="fill:#d95f0e;opacity:0.5;"/>
   </g>
   <g id="patch_52">
    <path clip-path="url(#p91ad8dc0f3)" d="M 310.270926 299.078125 
L 314.511452 299.078125 
L 314.511452 229.643204 
L 310.270926 229.643204 
z
" style="fill:#d95f0e;opacity:0.5;"/>
   </g>
   <g id="patch_53">
    <path clip-path="url(#p91ad8dc0f3)" d="M 315.571583 299.078125 
L 319.812108 299.078125 
L 319.812108 241.215691 
L 315.571583 241.215691 
z
" style="fill:#d95f0e;opacity:0.5;"/>
   </g>
   <g id="patch_54">
    <path clip-path="url(#p91ad8dc0f3)" d="M 320.87224 299.078125 
L 325.112765 299.078125 
L 325.112765 229.643204 
L 320.87224 229.643204 
z
" style="fill:#d95f0e;opacity:0.5;"/>
   </g>
   <g id="patch_55">
    <path clip-path="url(#p91ad8dc0f3)" d="M 326.172896 299.078125 
L 330.413422 299.078125 
L 330.413422 256.645674 
L 326.172896 256.645674 
z
" style="fill:#d95f0e;opacity:0.5;"/>
   </g>
   <g id="patch_56">
    <path clip-path="url(#p91ad8dc0f3)" d="M 331.473553 299.078125 
L 335.714078 299.078125 
L 335.714078 266.289412 
L 331.473553 266.289412 
z
" style="fill:#d95f0e;opacity:0.5;"/>
   </g>
   <g id="patch_57">
    <path clip-path="url(#p91ad8dc0f3)" d="M 336.77421 299.078125 
L 341.014735 299.078125 
L 341.014735 274.004404 
L 336.77421 274.004404 
z
" style="fill:#d95f0e;opacity:0.5;"/>
   </g>
   <g id="patch_58">
    <path clip-path="url(#p91ad8dc0f3)" d="M 342.074866 299.078125 
L 346.315392 299.078125 
L 346.315392 268.21816 
L 342.074866 268.21816 
z
" style="fill:#d95f0e;opacity:0.5;"/>
   </g>
   <g id="patch_59">
    <path clip-path="url(#p91ad8dc0f3)" d="M 347.375523 299.078125 
L 351.616049 299.078125 
L 351.616049 277.861899 
L 347.375523 277.861899 
z
" style="fill:#d95f0e;opacity:0.5;"/>
   </g>
   <g id="patch_60">
    <path clip-path="url(#p91ad8dc0f3)" d="M 352.67618 299.078125 
L 356.916705 299.078125 
L 356.916705 283.648143 
L 352.67618 283.648143 
z
" style="fill:#d95f0e;opacity:0.5;"/>
   </g>
   <g id="patch_61">
    <path clip-path="url(#p91ad8dc0f3)" d="M 357.976837 299.078125 
L 362.217362 299.078125 
L 362.217362 279.790647 
L 357.976837 279.790647 
z
" style="fill:#d95f0e;opacity:0.5;"/>
   </g>
   <g id="patch_62">
    <path clip-path="url(#p91ad8dc0f3)" d="M 363.277493 299.078125 
L 367.518019 299.078125 
L 367.518019 289.434386 
L 363.277493 289.434386 
z
" style="fill:#d95f0e;opacity:0.5;"/>
   </g>
   <g id="patch_63">
    <path clip-path="url(#p91ad8dc0f3)" d="M 368.57815 299.078125 
L 372.818675 299.078125 
L 372.818675 287.505638 
L 368.57815 287.505638 
z
" style="fill:#d95f0e;opacity:0.5;"/>
   </g>
   <g id="patch_64">
    <path clip-path="url(#p91ad8dc0f3)" d="M 373.878807 299.078125 
L 378.119332 299.078125 
L 378.119332 287.505638 
L 373.878807 287.505638 
z
" style="fill:#d95f0e;opacity:0.5;"/>
   </g>
   <g id="patch_65">
    <path clip-path="url(#p91ad8dc0f3)" d="M 379.179463 299.078125 
L 383.419989 299.078125 
L 383.419989 289.434386 
L 379.179463 289.434386 
z
" style="fill:#d95f0e;opacity:0.5;"/>
   </g>
   <g id="patch_66">
    <path clip-path="url(#p91ad8dc0f3)" d="M 384.48012 299.078125 
L 388.720645 299.078125 
L 388.720645 291.363134 
L 384.48012 291.363134 
z
" style="fill:#d95f0e;opacity:0.5;"/>
   </g>
   <g id="patch_67">
    <path clip-path="url(#p91ad8dc0f3)" d="M 389.780777 299.078125 
L 394.021302 299.078125 
L 394.021302 299.078125 
L 389.780777 299.078125 
z
" style="fill:#d95f0e;opacity:0.5;"/>
   </g>
   <g id="patch_68">
    <path clip-path="url(#p91ad8dc0f3)" d="M 395.081434 299.078125 
L 399.321959 299.078125 
L 399.321959 299.078125 
L 395.081434 299.078125 
z
" style="fill:#d95f0e;opacity:0.5;"/>
   </g>
   <g id="patch_69">
    <path clip-path="url(#p91ad8dc0f3)" d="M 400.38209 299.078125 
L 404.622616 299.078125 
L 404.622616 299.078125 
L 400.38209 299.078125 
z
" style="fill:#d95f0e;opacity:0.5;"/>
   </g>
   <g id="patch_70">
    <path clip-path="url(#p91ad8dc0f3)" d="M 405.682747 299.078125 
L 409.923272 299.078125 
L 409.923272 291.363134 
L 405.682747 291.363134 
z
" style="fill:#d95f0e;opacity:0.5;"/>
   </g>
   <g id="patch_71">
    <path clip-path="url(#p91ad8dc0f3)" d="M 206.82637 299.078125 
L 211.066896 299.078125 
L 211.066896 260.503169 
L 206.82637 260.503169 
z
" style="fill:#43a2ca;opacity:0.8;"/>
   </g>
   <g id="patch_72">
    <path clip-path="url(#p91ad8dc0f3)" d="M 211.336983 299.078125 
L 215.577509 299.078125 
L 215.577509 299.078125 
L 211.336983 299.078125 
z
" style="fill:#43a2ca;opacity:0.8;"/>
   </g>
   <g id="patch_73">
    <path clip-path="url(#p91ad8dc0f3)" d="M 215.847596 299.078125 
L 220.088122 299.078125 
L 220.088122 279.790647 
L 215.847596 279.790647 
z
" style="fill:#43a2ca;opacity:0.8;"/>
   </g>
   <g id="patch_74">
    <path clip-path="url(#p91ad8dc0f3)" d="M 220.358209 299.078125 
L 224.598734 299.078125 
L 224.598734 279.790647 
L 220.358209 279.790647 
z
" style="fill:#43a2ca;opacity:0.8;"/>
   </g>
   <g id="patch_75">
    <path clip-path="url(#p91ad8dc0f3)" d="M 224.868822 299.078125 
L 229.109347 299.078125 
L 229.109347 279.790647 
L 224.868822 279.790647 
z
" style="fill:#43a2ca;opacity:0.8;"/>
   </g>
   <g id="patch_76">
    <path clip-path="url(#p91ad8dc0f3)" d="M 229.379435 299.078125 
L 233.61996 299.078125 
L 233.61996 279.790647 
L 229.379435 279.790647 
z
" style="fill:#43a2ca;opacity:0.8;"/>
   </g>
   <g id="patch_77">
    <path clip-path="url(#p91ad8dc0f3)" d="M 233.890048 299.078125 
L 238.130573 299.078125 
L 238.130573 299.078125 
L 233.890048 299.078125 
z
" style="fill:#43a2ca;opacity:0.8;"/>
   </g>
   <g id="patch_78">
    <path clip-path="url(#p91ad8dc0f3)" d="M 238.400661 299.078125 
L 242.641186 299.078125 
L 242.641186 260.503169 
L 238.400661 260.503169 
z
" style="fill:#43a2ca;opacity:0.8;"/>
   </g>
   <g id="patch_79">
    <path clip-path="url(#p91ad8dc0f3)" d="M 242.911274 299.078125 
L 247.151799 299.078125 
L 247.151799 299.078125 
L 242.911274 299.078125 
z
" style="fill:#43a2ca;opacity:0.8;"/>
   </g>
   <g id="patch_80">
    <path clip-path="url(#p91ad8dc0f3)" d="M 247.421887 299.078125 
L 251.662412 299.078125 
L 251.662412 299.078125 
L 247.421887 299.078125 
z
" style="fill:#43a2ca;opacity:0.8;"/>
   </g>
   <g id="patch_81">
    <path clip-path="url(#p91ad8dc0f3)" d="M 251.9325 299.078125 
L 256.173025 299.078125 
L 256.173025 260.503169 
L 251.9325 260.503169 
z
" style="fill:#43a2ca;opacity:0.8;"/>
   </g>
   <g id="patch_82">
    <path clip-path="url(#p91ad8dc0f3)" d="M 256.443113 299.078125 
L 260.683638 299.078125 
L 260.683638 260.503169 
L 256.443113 260.503169 
z
" style="fill:#43a2ca;opacity:0.8;"/>
   </g>
   <g id="patch_83">
    <path clip-path="url(#p91ad8dc0f3)" d="M 260.953726 299.078125 
L 265.194251 299.078125 
L 265.194251 299.078125 
L 260.953726 299.078125 
z
" style="fill:#43a2ca;opacity:0.8;"/>
   </g>
   <g id="patch_84">
    <path clip-path="url(#p91ad8dc0f3)" d="M 265.464339 299.078125 
L 269.704864 299.078125 
L 269.704864 279.790647 
L 265.464339 279.790647 
z
" style="fill:#43a2ca;opacity:0.8;"/>
   </g>
   <g id="patch_85">
    <path clip-path="url(#p91ad8dc0f3)" d="M 269.974952 299.078125 
L 274.215477 299.078125 
L 274.215477 260.503169 
L 269.974952 260.503169 
z
" style="fill:#43a2ca;opacity:0.8;"/>
   </g>
   <g id="patch_86">
    <path clip-path="url(#p91ad8dc0f3)" d="M 274.485565 299.078125 
L 278.72609 299.078125 
L 278.72609 221.928213 
L 274.485565 221.928213 
z
" style="fill:#43a2ca;opacity:0.8;"/>
   </g>
   <g id="patch_87">
    <path clip-path="url(#p91ad8dc0f3)" d="M 278.996178 299.078125 
L 283.236703 299.078125 
L 283.236703 241.215691 
L 278.996178 241.215691 
z
" style="fill:#43a2ca;opacity:0.8;"/>
   </g>
   <g id="patch_88">
    <path clip-path="url(#p91ad8dc0f3)" d="M 283.506791 299.078125 
L 287.747316 299.078125 
L 287.747316 241.215691 
L 283.506791 241.215691 
z
" style="fill:#43a2ca;opacity:0.8;"/>
   </g>
   <g id="patch_89">
    <path clip-path="url(#p91ad8dc0f3)" d="M 288.017404 299.078125 
L 292.257929 299.078125 
L 292.257929 299.078125 
L 288.017404 299.078125 
z
" style="fill:#43a2ca;opacity:0.8;"/>
   </g>
   <g id="patch_90">
    <path clip-path="url(#p91ad8dc0f3)" d="M 292.528017 299.078125 
L 296.768542 299.078125 
L 296.768542 241.215691 
L 292.528017 241.215691 
z
" style="fill:#43a2ca;opacity:0.8;"/>
   </g>
   <g id="patch_91">
    <path clip-path="url(#p91ad8dc0f3)" d="M 297.03863 299.078125 
L 301.279155 299.078125 
L 301.279155 241.215691 
L 297.03863 241.215691 
z
" style="fill:#43a2ca;opacity:0.8;"/>
   </g>
   <g id="patch_92">
    <path clip-path="url(#p91ad8dc0f3)" d="M 301.549243 299.078125 
L 305.789768 299.078125 
L 305.789768 299.078125 
L 301.549243 299.078125 
z
" style="fill:#43a2ca;opacity:0.8;"/>
   </g>
   <g id="patch_93">
    <path clip-path="url(#p91ad8dc0f3)" d="M 306.059856 299.078125 
L 310.300381 299.078125 
L 310.300381 279.790647 
L 306.059856 279.790647 
z
" style="fill:#43a2ca;opacity:0.8;"/>
   </g>
   <g id="patch_94">
    <path clip-path="url(#p91ad8dc0f3)" d="M 310.570469 299.078125 
L 314.810994 299.078125 
L 314.810994 202.640735 
L 310.570469 202.640735 
z
" style="fill:#43a2ca;opacity:0.8;"/>
   </g>
   <g id="patch_95">
    <path clip-path="url(#p91ad8dc0f3)" d="M 315.081082 299.078125 
L 319.321607 299.078125 
L 319.321607 221.928213 
L 315.081082 221.928213 
z
" style="fill:#43a2ca;opacity:0.8;"/>
   </g>
   <g id="patch_96">
    <path clip-path="url(#p91ad8dc0f3)" d="M 319.591695 299.078125 
L 323.83222 299.078125 
L 323.83222 299.078125 
L 319.591695 299.078125 
z
" style="fill:#43a2ca;opacity:0.8;"/>
   </g>
   <g id="patch_97">
    <path clip-path="url(#p91ad8dc0f3)" d="M 324.102308 299.078125 
L 328.342833 299.078125 
L 328.342833 202.640735 
L 324.102308 202.640735 
z
" style="fill:#43a2ca;opacity:0.8;"/>
   </g>
   <g id="patch_98">
    <path clip-path="url(#p91ad8dc0f3)" d="M 328.612921 299.078125 
L 332.853446 299.078125 
L 332.853446 279.790647 
L 328.612921 279.790647 
z
" style="fill:#43a2ca;opacity:0.8;"/>
   </g>
   <g id="patch_99">
    <path clip-path="url(#p91ad8dc0f3)" d="M 333.123534 299.078125 
L 337.364059 299.078125 
L 337.364059 260.503169 
L 333.123534 260.503169 
z
" style="fill:#43a2ca;opacity:0.8;"/>
   </g>
   <g id="patch_100">
    <path clip-path="url(#p91ad8dc0f3)" d="M 337.634147 299.078125 
L 341.874672 299.078125 
L 341.874672 241.215691 
L 337.634147 241.215691 
z
" style="fill:#43a2ca;opacity:0.8;"/>
   </g>
   <g id="patch_101">
    <path clip-path="url(#p91ad8dc0f3)" d="M 342.14476 299.078125 
L 346.385285 299.078125 
L 346.385285 279.790647 
L 342.14476 279.790647 
z
" style="fill:#43a2ca;opacity:0.8;"/>
   </g>
   <g id="patch_102">
    <path clip-path="url(#p91ad8dc0f3)" d="M 346.655373 299.078125 
L 350.895898 299.078125 
L 350.895898 241.215691 
L 346.655373 241.215691 
z
" style="fill:#43a2ca;opacity:0.8;"/>
   </g>
   <g id="patch_103">
    <path clip-path="url(#p91ad8dc0f3)" d="M 351.165986 299.078125 
L 355.406511 299.078125 
L 355.406511 279.790647 
L 351.165986 279.790647 
z
" style="fill:#43a2ca;opacity:0.8;"/>
   </g>
   <g id="patch_104">
    <path clip-path="url(#p91ad8dc0f3)" d="M 355.676599 299.078125 
L 359.917124 299.078125 
L 359.917124 260.503169 
L 355.676599 260.503169 
z
" style="fill:#43a2ca;opacity:0.8;"/>
   </g>
   <g id="patch_105">
    <path clip-path="url(#p91ad8dc0f3)" d="M 360.187212 299.078125 
L 364.427737 299.078125 
L 364.427737 260.503169 
L 360.187212 260.503169 
z
" style="fill:#43a2ca;opacity:0.8;"/>
   </g>
   <g id="patch_106">
    <path clip-path="url(#p91ad8dc0f3)" d="M 364.697825 299.078125 
L 368.93835 299.078125 
L 368.93835 221.928213 
L 364.697825 221.928213 
z
" style="fill:#43a2ca;opacity:0.8;"/>
   </g>
   <g id="patch_107">
    <path clip-path="url(#p91ad8dc0f3)" d="M 369.208438 299.078125 
L 373.448963 299.078125 
L 373.448963 260.503169 
L 369.208438 260.503169 
z
" style="fill:#43a2ca;opacity:0.8;"/>
   </g>
   <g id="patch_108">
    <path clip-path="url(#p91ad8dc0f3)" d="M 373.719051 299.078125 
L 377.959576 299.078125 
L 377.959576 241.215691 
L 373.719051 241.215691 
z
" style="fill:#43a2ca;opacity:0.8;"/>
   </g>
   <g id="patch_109">
    <path clip-path="url(#p91ad8dc0f3)" d="M 378.229664 299.078125 
L 382.470189 299.078125 
L 382.470189 241.215691 
L 378.229664 241.215691 
z
" style="fill:#43a2ca;opacity:0.8;"/>
   </g>
   <g id="patch_110">
    <path clip-path="url(#p91ad8dc0f3)" d="M 382.740277 299.078125 
L 386.980802 299.078125 
L 386.980802 241.215691 
L 382.740277 241.215691 
z
" style="fill:#43a2ca;opacity:0.8;"/>
   </g>
   <g id="patch_111">
    <path clip-path="url(#p91ad8dc0f3)" d="M 387.25089 299.078125 
L 391.491415 299.078125 
L 391.491415 221.928213 
L 387.25089 221.928213 
z
" style="fill:#43a2ca;opacity:0.8;"/>
   </g>
   <g id="patch_112">
    <path clip-path="url(#p91ad8dc0f3)" d="M 391.761503 299.078125 
L 396.002028 299.078125 
L 396.002028 299.078125 
L 391.761503 299.078125 
z
" style="fill:#43a2ca;opacity:0.8;"/>
   </g>
   <g id="patch_113">
    <path clip-path="url(#p91ad8dc0f3)" d="M 396.272116 299.078125 
L 400.512641 299.078125 
L 400.512641 279.790647 
L 396.272116 279.790647 
z
" style="fill:#43a2ca;opacity:0.8;"/>
   </g>
   <g id="patch_114">
    <path clip-path="url(#p91ad8dc0f3)" d="M 400.782729 299.078125 
L 405.023254 299.078125 
L 405.023254 299.078125 
L 400.782729 299.078125 
z
" style="fill:#43a2ca;opacity:0.8;"/>
   </g>
   <g id="patch_115">
    <path clip-path="url(#p91ad8dc0f3)" d="M 405.293342 299.078125 
L 409.533867 299.078125 
L 409.533867 299.078125 
L 405.293342 299.078125 
z
" style="fill:#43a2ca;opacity:0.8;"/>
   </g>
   <g id="patch_116">
    <path clip-path="url(#p91ad8dc0f3)" d="M 409.803955 299.078125 
L 414.04448 299.078125 
L 414.04448 279.790647 
L 409.803955 279.790647 
z
" style="fill:#43a2ca;opacity:0.8;"/>
   </g>
   <g id="patch_117">
    <path clip-path="url(#p91ad8dc0f3)" d="M 414.314567 299.078125 
L 418.555093 299.078125 
L 418.555093 299.078125 
L 414.314567 299.078125 
z
" style="fill:#43a2ca;opacity:0.8;"/>
   </g>
   <g id="patch_118">
    <path clip-path="url(#p91ad8dc0f3)" d="M 418.82518 299.078125 
L 423.065706 299.078125 
L 423.065706 279.790647 
L 418.82518 279.790647 
z
" style="fill:#43a2ca;opacity:0.8;"/>
   </g>
   <g id="patch_119">
    <path clip-path="url(#p91ad8dc0f3)" d="M 423.335793 299.078125 
L 427.576319 299.078125 
L 427.576319 279.790647 
L 423.335793 279.790647 
z
" style="fill:#43a2ca;opacity:0.8;"/>
   </g>
   <g id="patch_120">
    <path clip-path="url(#p91ad8dc0f3)" d="M 427.846406 299.078125 
L 432.086932 299.078125 
L 432.086932 260.503169 
L 427.846406 260.503169 
z
" style="fill:#43a2ca;opacity:0.8;"/>
   </g>
   <g id="matplotlib.axis_3">
    <g id="xtick_7">
     <g id="line2d_20">
      <g>
       <use style="stroke:#000000;stroke-width:0.8;" x="138.116164" xlink:href="#mf47cd61ae7" y="299.078125"/>
      </g>
     </g>
     <g id="text_22">
      <!-- 0.6 -->
      <g transform="translate(125.974758 313.676562)scale(0.1 -0.1)">
       <defs>
        <path d="M 10.59375 35.5 
L 73.1875 35.5 
L 73.1875 27.203125 
L 10.59375 27.203125 
z
" id="DejaVuSans-8722"/>
        <path d="M 33.015625 40.375 
Q 26.375 40.375 22.484375 35.828125 
Q 18.609375 31.296875 18.609375 23.390625 
Q 18.609375 15.53125 22.484375 10.953125 
Q 26.375 6.390625 33.015625 6.390625 
Q 39.65625 6.390625 43.53125 10.953125 
Q 47.40625 15.53125 47.40625 23.390625 
Q 47.40625 31.296875 43.53125 35.828125 
Q 39.65625 40.375 33.015625 40.375 
z
M 52.59375 71.296875 
L 52.59375 62.3125 
Q 48.875 64.0625 45.09375 64.984375 
Q 41.3125 65.921875 37.59375 65.921875 
Q 27.828125 65.921875 22.671875 59.328125 
Q 17.53125 52.734375 16.796875 39.40625 
Q 19.671875 43.65625 24.015625 45.921875 
Q 28.375 48.1875 33.59375 48.1875 
Q 44.578125 48.1875 50.953125 41.515625 
Q 57.328125 34.859375 57.328125 23.390625 
Q 57.328125 12.15625 50.6875 5.359375 
Q 44.046875 -1.421875 33.015625 -1.421875 
Q 20.359375 -1.421875 13.671875 8.265625 
Q 6.984375 17.96875 6.984375 36.375 
Q 6.984375 53.65625 15.1875 63.9375 
Q 23.390625 74.21875 37.203125 74.21875 
Q 40.921875 74.21875 44.703125 73.484375 
Q 48.484375 72.75 52.59375 71.296875 
z
" id="DejaVuSans-54"/>
       </defs>
       <use xlink:href="#DejaVuSans-8722"/>
       <use x="83.789062" xlink:href="#DejaVuSans-48"/>
       <use x="147.412109" xlink:href="#DejaVuSans-46"/>
       <use x="179.199219" xlink:href="#DejaVuSans-54"/>
      </g>
     </g>
    </g>
    <g id="xtick_8">
     <g id="line2d_21">
      <g>
       <use style="stroke:#000000;stroke-width:0.8;" x="189.63163" xlink:href="#mf47cd61ae7" y="299.078125"/>
      </g>
     </g>
     <g id="text_23">
      <!-- 0.4 -->
      <g transform="translate(177.490223 313.676562)scale(0.1 -0.1)">
       <use xlink:href="#DejaVuSans-8722"/>
       <use x="83.789062" xlink:href="#DejaVuSans-48"/>
       <use x="147.412109" xlink:href="#DejaVuSans-46"/>
       <use x="179.199219" xlink:href="#DejaVuSans-52"/>
      </g>
     </g>
    </g>
    <g id="xtick_9">
     <g id="line2d_22">
      <g>
       <use style="stroke:#000000;stroke-width:0.8;" x="241.147096" xlink:href="#mf47cd61ae7" y="299.078125"/>
      </g>
     </g>
     <g id="text_24">
      <!-- 0.2 -->
      <g transform="translate(229.005689 313.676562)scale(0.1 -0.1)">
       <use xlink:href="#DejaVuSans-8722"/>
       <use x="83.789062" xlink:href="#DejaVuSans-48"/>
       <use x="147.412109" xlink:href="#DejaVuSans-46"/>
       <use x="179.199219" xlink:href="#DejaVuSans-50"/>
      </g>
     </g>
    </g>
    <g id="xtick_10">
     <g id="line2d_23">
      <g>
       <use style="stroke:#000000;stroke-width:0.8;" x="292.662561" xlink:href="#mf47cd61ae7" y="299.078125"/>
      </g>
     </g>
     <g id="text_25">
      <!-- 0.0 -->
      <g transform="translate(284.710999 313.676562)scale(0.1 -0.1)">
       <use xlink:href="#DejaVuSans-48"/>
       <use x="63.623047" xlink:href="#DejaVuSans-46"/>
       <use x="95.410156" xlink:href="#DejaVuSans-48"/>
      </g>
     </g>
    </g>
    <g id="xtick_11">
     <g id="line2d_24">
      <g>
       <use style="stroke:#000000;stroke-width:0.8;" x="344.178027" xlink:href="#mf47cd61ae7" y="299.078125"/>
      </g>
     </g>
     <g id="text_26">
      <!-- 0.2 -->
      <g transform="translate(336.226465 313.676562)scale(0.1 -0.1)">
       <use xlink:href="#DejaVuSans-48"/>
       <use x="63.623047" xlink:href="#DejaVuSans-46"/>
       <use x="95.410156" xlink:href="#DejaVuSans-50"/>
      </g>
     </g>
    </g>
    <g id="xtick_12">
     <g id="line2d_25">
      <g>
       <use style="stroke:#000000;stroke-width:0.8;" x="395.693493" xlink:href="#mf47cd61ae7" y="299.078125"/>
      </g>
     </g>
     <g id="text_27">
      <!-- 0.4 -->
      <g transform="translate(387.741931 313.676562)scale(0.1 -0.1)">
       <use xlink:href="#DejaVuSans-48"/>
       <use x="63.623047" xlink:href="#DejaVuSans-46"/>
       <use x="95.410156" xlink:href="#DejaVuSans-52"/>
      </g>
     </g>
    </g>
    <g id="text_28">
     <!-- Rho value -->
     <g transform="translate(264.069531 327.354687)scale(0.1 -0.1)">
      <defs>
       <path d="M 44.390625 34.1875 
Q 47.5625 33.109375 50.5625 29.59375 
Q 53.5625 26.078125 56.59375 19.921875 
L 66.609375 0 
L 56 0 
L 46.6875 18.703125 
Q 43.0625 26.03125 39.671875 28.421875 
Q 36.28125 30.8125 30.421875 30.8125 
L 19.671875 30.8125 
L 19.671875 0 
L 9.8125 0 
L 9.8125 72.90625 
L 32.078125 72.90625 
Q 44.578125 72.90625 50.734375 67.671875 
Q 56.890625 62.453125 56.890625 51.90625 
Q 56.890625 45.015625 53.6875 40.46875 
Q 50.484375 35.9375 44.390625 34.1875 
z
M 19.671875 64.796875 
L 19.671875 38.921875 
L 32.078125 38.921875 
Q 39.203125 38.921875 42.84375 42.21875 
Q 46.484375 45.515625 46.484375 51.90625 
Q 46.484375 58.296875 42.84375 61.546875 
Q 39.203125 64.796875 32.078125 64.796875 
z
" id="DejaVuSans-82"/>
      </defs>
      <use xlink:href="#DejaVuSans-82"/>
      <use x="69.482422" xlink:href="#DejaVuSans-104"/>
      <use x="132.861328" xlink:href="#DejaVuSans-111"/>
      <use x="194.042969" xlink:href="#DejaVuSans-32"/>
      <use x="225.830078" xlink:href="#DejaVuSans-118"/>
      <use x="285.009766" xlink:href="#DejaVuSans-97"/>
      <use x="346.289062" xlink:href="#DejaVuSans-108"/>
      <use x="374.072266" xlink:href="#DejaVuSans-117"/>
      <use x="437.451172" xlink:href="#DejaVuSans-101"/>
     </g>
    </g>
   </g>
   <g id="matplotlib.axis_4">
    <g id="ytick_14">
     <g id="line2d_26">
      <g>
       <use style="stroke:#000000;stroke-width:0.8;" x="131.64375" xlink:href="#me7f9f44d43" y="299.078125"/>
      </g>
     </g>
     <g id="text_29">
      <!-- 0 -->
      <g transform="translate(118.28125 302.877344)scale(0.1 -0.1)">
       <use xlink:href="#DejaVuSans-48"/>
      </g>
     </g>
    </g>
    <g id="ytick_15">
     <g id="line2d_27">
      <g>
       <use style="stroke:#000000;stroke-width:0.8;" x="131.64375" xlink:href="#me7f9f44d43" y="260.503169"/>
      </g>
     </g>
     <g id="text_30">
      <!-- 2 -->
      <g transform="translate(118.28125 264.302388)scale(0.1 -0.1)">
       <use xlink:href="#DejaVuSans-50"/>
      </g>
     </g>
    </g>
    <g id="ytick_16">
     <g id="line2d_28">
      <g>
       <use style="stroke:#000000;stroke-width:0.8;" x="131.64375" xlink:href="#me7f9f44d43" y="221.928213"/>
      </g>
     </g>
     <g id="text_31">
      <!-- 4 -->
      <g transform="translate(118.28125 225.727432)scale(0.1 -0.1)">
       <use xlink:href="#DejaVuSans-52"/>
      </g>
     </g>
    </g>
    <g id="text_32">
     <!-- Number of bacteria -->
     <g transform="translate(112.201563 293.014531)rotate(-90)scale(0.1 -0.1)">
      <defs>
       <path d="M 9.8125 72.90625 
L 23.09375 72.90625 
L 55.421875 11.921875 
L 55.421875 72.90625 
L 64.984375 72.90625 
L 64.984375 0 
L 51.703125 0 
L 19.390625 60.984375 
L 19.390625 0 
L 9.8125 0 
z
" id="DejaVuSans-78"/>
      </defs>
      <use xlink:href="#DejaVuSans-78"/>
      <use x="74.804688" xlink:href="#DejaVuSans-117"/>
      <use x="138.183594" xlink:href="#DejaVuSans-109"/>
      <use x="235.595703" xlink:href="#DejaVuSans-98"/>
      <use x="299.072266" xlink:href="#DejaVuSans-101"/>
      <use x="360.595703" xlink:href="#DejaVuSans-114"/>
      <use x="401.708984" xlink:href="#DejaVuSans-32"/>
      <use x="433.496094" xlink:href="#DejaVuSans-111"/>
      <use x="494.677734" xlink:href="#DejaVuSans-102"/>
      <use x="529.882812" xlink:href="#DejaVuSans-32"/>
      <use x="561.669922" xlink:href="#DejaVuSans-98"/>
      <use x="625.146484" xlink:href="#DejaVuSans-97"/>
      <use x="686.425781" xlink:href="#DejaVuSans-99"/>
      <use x="741.40625" xlink:href="#DejaVuSans-116"/>
      <use x="780.615234" xlink:href="#DejaVuSans-101"/>
      <use x="842.138672" xlink:href="#DejaVuSans-114"/>
      <use x="883.251953" xlink:href="#DejaVuSans-105"/>
      <use x="911.035156" xlink:href="#DejaVuSans-97"/>
     </g>
    </g>
   </g>
   <g id="patch_121">
    <path d="M 131.64375 299.078125 
L 131.64375 189.718125 
" style="fill:none;stroke:#000000;stroke-linecap:square;stroke-linejoin:miter;stroke-width:0.8;"/>
   </g>
   <g id="patch_122">
    <path d="M 446.39375 299.078125 
L 446.39375 189.718125 
" style="fill:none;stroke:#000000;stroke-linecap:square;stroke-linejoin:miter;stroke-width:0.8;"/>
   </g>
   <g id="patch_123">
    <path d="M 131.64375 299.078125 
L 446.39375 299.078125 
" style="fill:none;stroke:#000000;stroke-linecap:square;stroke-linejoin:miter;stroke-width:0.8;"/>
   </g>
   <g id="patch_124">
    <path d="M 131.64375 189.718125 
L 446.39375 189.718125 
" style="fill:none;stroke:#000000;stroke-linecap:square;stroke-linejoin:miter;stroke-width:0.8;"/>
   </g>
   <g id="text_33">
    <!-- Real tags vs. Mixed tags at SSS -->
    <g transform="translate(194.966875 183.718125)scale(0.12 -0.12)">
     <defs>
      <path d="M 9.8125 72.90625 
L 24.515625 72.90625 
L 43.109375 23.296875 
L 61.8125 72.90625 
L 76.515625 72.90625 
L 76.515625 0 
L 66.890625 0 
L 66.890625 64.015625 
L 48.09375 14.015625 
L 38.1875 14.015625 
L 19.390625 64.015625 
L 19.390625 0 
L 9.8125 0 
z
" id="DejaVuSans-77"/>
      <path d="M 54.890625 54.6875 
L 35.109375 28.078125 
L 55.90625 0 
L 45.3125 0 
L 29.390625 21.484375 
L 13.484375 0 
L 2.875 0 
L 24.125 28.609375 
L 4.6875 54.6875 
L 15.28125 54.6875 
L 29.78125 35.203125 
L 44.28125 54.6875 
z
" id="DejaVuSans-120"/>
     </defs>
     <use xlink:href="#DejaVuSans-82"/>
     <use x="64.982422" xlink:href="#DejaVuSans-101"/>
     <use x="126.505859" xlink:href="#DejaVuSans-97"/>
     <use x="187.785156" xlink:href="#DejaVuSans-108"/>
     <use x="215.568359" xlink:href="#DejaVuSans-32"/>
     <use x="247.355469" xlink:href="#DejaVuSans-116"/>
     <use x="286.564453" xlink:href="#DejaVuSans-97"/>
     <use x="347.84375" xlink:href="#DejaVuSans-103"/>
     <use x="411.320312" xlink:href="#DejaVuSans-115"/>
     <use x="463.419922" xlink:href="#DejaVuSans-32"/>
     <use x="495.207031" xlink:href="#DejaVuSans-118"/>
     <use x="554.386719" xlink:href="#DejaVuSans-115"/>
     <use x="606.486328" xlink:href="#DejaVuSans-46"/>
     <use x="638.273438" xlink:href="#DejaVuSans-32"/>
     <use x="670.060547" xlink:href="#DejaVuSans-77"/>
     <use x="756.339844" xlink:href="#DejaVuSans-105"/>
     <use x="784.123047" xlink:href="#DejaVuSans-120"/>
     <use x="840.177734" xlink:href="#DejaVuSans-101"/>
     <use x="901.701172" xlink:href="#DejaVuSans-100"/>
     <use x="965.177734" xlink:href="#DejaVuSans-32"/>
     <use x="996.964844" xlink:href="#DejaVuSans-116"/>
     <use x="1036.173828" xlink:href="#DejaVuSans-97"/>
     <use x="1097.453125" xlink:href="#DejaVuSans-103"/>
     <use x="1160.929688" xlink:href="#DejaVuSans-115"/>
     <use x="1213.029297" xlink:href="#DejaVuSans-32"/>
     <use x="1244.816406" xlink:href="#DejaVuSans-97"/>
     <use x="1306.095703" xlink:href="#DejaVuSans-116"/>
     <use x="1345.304688" xlink:href="#DejaVuSans-32"/>
     <use x="1377.091797" xlink:href="#DejaVuSans-83"/>
     <use x="1440.568359" xlink:href="#DejaVuSans-83"/>
     <use x="1504.044922" xlink:href="#DejaVuSans-83"/>
    </g>
   </g>
   <g id="legend_1">
    <g id="patch_125">
     <path d="M 138.64375 227.074375 
L 224.942188 227.074375 
Q 226.942188 227.074375 226.942188 225.074375 
L 226.942188 196.718125 
Q 226.942188 194.718125 224.942188 194.718125 
L 138.64375 194.718125 
Q 136.64375 194.718125 136.64375 196.718125 
L 136.64375 225.074375 
Q 136.64375 227.074375 138.64375 227.074375 
z
" style="fill:#ffffff;opacity:0.8;stroke:#cccccc;stroke-linejoin:miter;"/>
    </g>
    <g id="patch_126">
     <path d="M 140.64375 206.316562 
L 160.64375 206.316562 
L 160.64375 199.316562 
L 140.64375 199.316562 
z
" style="fill:#d95f0e;opacity:0.5;"/>
    </g>
    <g id="text_34">
     <!-- Mixed tags -->
     <g transform="translate(168.64375 206.316562)scale(0.1 -0.1)">
      <use xlink:href="#DejaVuSans-77"/>
      <use x="86.279297" xlink:href="#DejaVuSans-105"/>
      <use x="114.0625" xlink:href="#DejaVuSans-120"/>
      <use x="170.117188" xlink:href="#DejaVuSans-101"/>
      <use x="231.640625" xlink:href="#DejaVuSans-100"/>
      <use x="295.117188" xlink:href="#DejaVuSans-32"/>
      <use x="326.904297" xlink:href="#DejaVuSans-116"/>
      <use x="366.113281" xlink:href="#DejaVuSans-97"/>
      <use x="427.392578" xlink:href="#DejaVuSans-103"/>
      <use x="490.869141" xlink:href="#DejaVuSans-115"/>
     </g>
    </g>
    <g id="patch_127">
     <path d="M 140.64375 220.994687 
L 160.64375 220.994687 
L 160.64375 213.994687 
L 140.64375 213.994687 
z
" style="fill:#43a2ca;opacity:0.8;"/>
    </g>
    <g id="text_35">
     <!-- Real tags -->
     <g transform="translate(168.64375 220.994687)scale(0.1 -0.1)">
      <use xlink:href="#DejaVuSans-82"/>
      <use x="64.982422" xlink:href="#DejaVuSans-101"/>
      <use x="126.505859" xlink:href="#DejaVuSans-97"/>
      <use x="187.785156" xlink:href="#DejaVuSans-108"/>
      <use x="215.568359" xlink:href="#DejaVuSans-32"/>
      <use x="247.355469" xlink:href="#DejaVuSans-116"/>
      <use x="286.564453" xlink:href="#DejaVuSans-97"/>
      <use x="347.84375" xlink:href="#DejaVuSans-103"/>
      <use x="411.320312" xlink:href="#DejaVuSans-115"/>
     </g>
    </g>
   </g>
  </g>
 </g>
 <defs>
  <clipPath id="p6cd9d69076">
   <rect height="109.36" width="314.75" x="131.64375" y="22.318125"/>
  </clipPath>
  <clipPath id="p91ad8dc0f3">
   <rect height="109.36" width="314.75" x="131.64375" y="189.718125"/>
  </clipPath>
 </defs>
</svg>
