<?xml version="1.0" encoding="utf-8" standalone="no"?>
<!DOCTYPE svg PUBLIC "-//W3C//DTD SVG 1.1//EN"
  "http://www.w3.org/Graphics/SVG/1.1/DTD/svg11.dtd">
<!-- Created with matplotlib (https://matplotlib.org/) -->
<svg height="336.634375pt" version="1.1" viewBox="0 0 495.759687 336.634375" width="495.759687pt" xmlns="http://www.w3.org/2000/svg" xmlns:xlink="http://www.w3.org/1999/xlink">
 <metadata>
  <rdf:RDF xmlns:cc="http://creativecommons.org/ns#" xmlns:dc="http://purl.org/dc/elements/1.1/" xmlns:rdf="http://www.w3.org/1999/02/22-rdf-syntax-ns#">
   <cc:Work>
    <dc:type rdf:resource="http://purl.org/dc/dcmitype/StillImage"/>
    <dc:date>2021-01-17T12:41:46.211673</dc:date>
    <dc:format>image/svg+xml</dc:format>
    <dc:creator>
     <cc:Agent>
      <dc:title>Matplotlib v3.3.2, https://matplotlib.org/</dc:title>
     </cc:Agent>
    </dc:creator>
   </cc:Work>
  </rdf:RDF>
 </metadata>
 <defs>
  <style type="text/css">*{stroke-linecap:butt;stroke-linejoin:round;}</style>
 </defs>
 <g id="figure_1">
  <g id="patch_1">
   <path d="M 0 336.634375 
L 495.759687 336.634375 
L 495.759687 0 
L 0 0 
z
" style="fill:#ffffff;"/>
  </g>
  <g id="axes_1">
   <g id="patch_2">
    <path d="M 204.7 131.678125 
L 446.1 131.678125 
L 446.1 22.318125 
L 204.7 22.318125 
z
" style="fill:#ffffff;"/>
   </g>
   <g id="patch_3">
    <path clip-path="url(#p276c3d36f1)" d="M 319.116059 126.707216 
L 215.672727 126.707216 
L 215.672727 118.591446 
L 319.116059 118.591446 
z
" style="fill:#ff0000;"/>
   </g>
   <g id="patch_4">
    <path clip-path="url(#p276c3d36f1)" d="M 319.116059 116.562503 
L 222.440048 116.562503 
L 222.440048 108.446734 
L 319.116059 108.446734 
z
" style="fill:#ff0000;"/>
   </g>
   <g id="patch_5">
    <path clip-path="url(#p276c3d36f1)" d="M 319.116059 106.417791 
L 419.659111 106.417791 
L 419.659111 98.302021 
L 319.116059 98.302021 
z
" style="fill:#008000;"/>
   </g>
   <g id="patch_6">
    <path clip-path="url(#p276c3d36f1)" d="M 319.116059 96.273079 
L 420.142491 96.273079 
L 420.142491 88.157309 
L 319.116059 88.157309 
z
" style="fill:#008000;"/>
   </g>
   <g id="patch_7">
    <path clip-path="url(#p276c3d36f1)" d="M 319.116059 86.128366 
L 422.559391 86.128366 
L 422.559391 78.012596 
L 319.116059 78.012596 
z
" style="fill:#008000;"/>
   </g>
   <g id="patch_8">
    <path clip-path="url(#p276c3d36f1)" d="M 319.116059 75.983654 
L 423.042771 75.983654 
L 423.042771 67.867884 
L 319.116059 67.867884 
z
" style="fill:#008000;"/>
   </g>
   <g id="patch_9">
    <path clip-path="url(#p276c3d36f1)" d="M 319.116059 65.838941 
L 424.976292 65.838941 
L 424.976292 57.723171 
L 319.116059 57.723171 
z
" style="fill:#008000;"/>
   </g>
   <g id="patch_10">
    <path clip-path="url(#p276c3d36f1)" d="M 319.116059 55.694229 
L 429.810092 55.694229 
L 429.810092 47.578459 
L 319.116059 47.578459 
z
" style="fill:#008000;"/>
   </g>
   <g id="patch_11">
    <path clip-path="url(#p276c3d36f1)" d="M 319.116059 45.549516 
L 431.260232 45.549516 
L 431.260232 37.433747 
L 319.116059 37.433747 
z
" style="fill:#008000;"/>
   </g>
   <g id="patch_12">
    <path clip-path="url(#p276c3d36f1)" d="M 319.116059 35.404804 
L 435.127273 35.404804 
L 435.127273 27.289034 
L 319.116059 27.289034 
z
" style="fill:#008000;"/>
   </g>
   <g id="matplotlib.axis_1">
    <g id="xtick_1">
     <g id="line2d_1">
      <defs>
       <path d="M 0 0 
L 0 3.5 
" id="md89de4ba3e" style="stroke:#000000;stroke-width:0.8;"/>
      </defs>
      <g>
       <use style="stroke:#000000;stroke-width:0.8;" x="220.748515" xlink:href="#md89de4ba3e" y="131.678125"/>
      </g>
     </g>
     <g id="text_1">
      <!-- −0.3 -->
      <g transform="translate(208.607109 146.276562)scale(0.1 -0.1)">
       <defs>
        <path d="M 10.59375 35.5 
L 73.1875 35.5 
L 73.1875 27.203125 
L 10.59375 27.203125 
z
" id="DejaVuSans-8722"/>
        <path d="M 31.78125 66.40625 
Q 24.171875 66.40625 20.328125 58.90625 
Q 16.5 51.421875 16.5 36.375 
Q 16.5 21.390625 20.328125 13.890625 
Q 24.171875 6.390625 31.78125 6.390625 
Q 39.453125 6.390625 43.28125 13.890625 
Q 47.125 21.390625 47.125 36.375 
Q 47.125 51.421875 43.28125 58.90625 
Q 39.453125 66.40625 31.78125 66.40625 
z
M 31.78125 74.21875 
Q 44.046875 74.21875 50.515625 64.515625 
Q 56.984375 54.828125 56.984375 36.375 
Q 56.984375 17.96875 50.515625 8.265625 
Q 44.046875 -1.421875 31.78125 -1.421875 
Q 19.53125 -1.421875 13.0625 8.265625 
Q 6.59375 17.96875 6.59375 36.375 
Q 6.59375 54.828125 13.0625 64.515625 
Q 19.53125 74.21875 31.78125 74.21875 
z
" id="DejaVuSans-48"/>
        <path d="M 10.6875 12.40625 
L 21 12.40625 
L 21 0 
L 10.6875 0 
z
" id="DejaVuSans-46"/>
        <path d="M 40.578125 39.3125 
Q 47.65625 37.796875 51.625 33 
Q 55.609375 28.21875 55.609375 21.1875 
Q 55.609375 10.40625 48.1875 4.484375 
Q 40.765625 -1.421875 27.09375 -1.421875 
Q 22.515625 -1.421875 17.65625 -0.515625 
Q 12.796875 0.390625 7.625 2.203125 
L 7.625 11.71875 
Q 11.71875 9.328125 16.59375 8.109375 
Q 21.484375 6.890625 26.8125 6.890625 
Q 36.078125 6.890625 40.9375 10.546875 
Q 45.796875 14.203125 45.796875 21.1875 
Q 45.796875 27.640625 41.28125 31.265625 
Q 36.765625 34.90625 28.71875 34.90625 
L 20.21875 34.90625 
L 20.21875 43.015625 
L 29.109375 43.015625 
Q 36.375 43.015625 40.234375 45.921875 
Q 44.09375 48.828125 44.09375 54.296875 
Q 44.09375 59.90625 40.109375 62.90625 
Q 36.140625 65.921875 28.71875 65.921875 
Q 24.65625 65.921875 20.015625 65.03125 
Q 15.375 64.15625 9.8125 62.3125 
L 9.8125 71.09375 
Q 15.4375 72.65625 20.34375 73.4375 
Q 25.25 74.21875 29.59375 74.21875 
Q 40.828125 74.21875 47.359375 69.109375 
Q 53.90625 64.015625 53.90625 55.328125 
Q 53.90625 49.265625 50.4375 45.09375 
Q 46.96875 40.921875 40.578125 39.3125 
z
" id="DejaVuSans-51"/>
       </defs>
       <use xlink:href="#DejaVuSans-8722"/>
       <use x="83.789062" xlink:href="#DejaVuSans-48"/>
       <use x="147.412109" xlink:href="#DejaVuSans-46"/>
       <use x="179.199219" xlink:href="#DejaVuSans-51"/>
      </g>
     </g>
    </g>
    <g id="xtick_2">
     <g id="line2d_2">
      <g>
       <use style="stroke:#000000;stroke-width:0.8;" x="253.537696" xlink:href="#md89de4ba3e" y="131.678125"/>
      </g>
     </g>
     <g id="text_2">
      <!-- −0.2 -->
      <g transform="translate(241.39629 146.276562)scale(0.1 -0.1)">
       <defs>
        <path d="M 19.1875 8.296875 
L 53.609375 8.296875 
L 53.609375 0 
L 7.328125 0 
L 7.328125 8.296875 
Q 12.9375 14.109375 22.625 23.890625 
Q 32.328125 33.6875 34.8125 36.53125 
Q 39.546875 41.84375 41.421875 45.53125 
Q 43.3125 49.21875 43.3125 52.78125 
Q 43.3125 58.59375 39.234375 62.25 
Q 35.15625 65.921875 28.609375 65.921875 
Q 23.96875 65.921875 18.8125 64.3125 
Q 13.671875 62.703125 7.8125 59.421875 
L 7.8125 69.390625 
Q 13.765625 71.78125 18.9375 73 
Q 24.125 74.21875 28.421875 74.21875 
Q 39.75 74.21875 46.484375 68.546875 
Q 53.21875 62.890625 53.21875 53.421875 
Q 53.21875 48.921875 51.53125 44.890625 
Q 49.859375 40.875 45.40625 35.40625 
Q 44.1875 33.984375 37.640625 27.21875 
Q 31.109375 20.453125 19.1875 8.296875 
z
" id="DejaVuSans-50"/>
       </defs>
       <use xlink:href="#DejaVuSans-8722"/>
       <use x="83.789062" xlink:href="#DejaVuSans-48"/>
       <use x="147.412109" xlink:href="#DejaVuSans-46"/>
       <use x="179.199219" xlink:href="#DejaVuSans-50"/>
      </g>
     </g>
    </g>
    <g id="xtick_3">
     <g id="line2d_3">
      <g>
       <use style="stroke:#000000;stroke-width:0.8;" x="286.326878" xlink:href="#md89de4ba3e" y="131.678125"/>
      </g>
     </g>
     <g id="text_3">
      <!-- −0.1 -->
      <g transform="translate(274.185472 146.276562)scale(0.1 -0.1)">
       <defs>
        <path d="M 12.40625 8.296875 
L 28.515625 8.296875 
L 28.515625 63.921875 
L 10.984375 60.40625 
L 10.984375 69.390625 
L 28.421875 72.90625 
L 38.28125 72.90625 
L 38.28125 8.296875 
L 54.390625 8.296875 
L 54.390625 0 
L 12.40625 0 
z
" id="DejaVuSans-49"/>
       </defs>
       <use xlink:href="#DejaVuSans-8722"/>
       <use x="83.789062" xlink:href="#DejaVuSans-48"/>
       <use x="147.412109" xlink:href="#DejaVuSans-46"/>
       <use x="179.199219" xlink:href="#DejaVuSans-49"/>
      </g>
     </g>
    </g>
    <g id="xtick_4">
     <g id="line2d_4">
      <g>
       <use style="stroke:#000000;stroke-width:0.8;" x="319.116059" xlink:href="#md89de4ba3e" y="131.678125"/>
      </g>
     </g>
     <g id="text_4">
      <!-- 0.0 -->
      <g transform="translate(311.164497 146.276562)scale(0.1 -0.1)">
       <use xlink:href="#DejaVuSans-48"/>
       <use x="63.623047" xlink:href="#DejaVuSans-46"/>
       <use x="95.410156" xlink:href="#DejaVuSans-48"/>
      </g>
     </g>
    </g>
    <g id="xtick_5">
     <g id="line2d_5">
      <g>
       <use style="stroke:#000000;stroke-width:0.8;" x="351.905241" xlink:href="#md89de4ba3e" y="131.678125"/>
      </g>
     </g>
     <g id="text_5">
      <!-- 0.1 -->
      <g transform="translate(343.953678 146.276562)scale(0.1 -0.1)">
       <use xlink:href="#DejaVuSans-48"/>
       <use x="63.623047" xlink:href="#DejaVuSans-46"/>
       <use x="95.410156" xlink:href="#DejaVuSans-49"/>
      </g>
     </g>
    </g>
    <g id="xtick_6">
     <g id="line2d_6">
      <g>
       <use style="stroke:#000000;stroke-width:0.8;" x="384.694422" xlink:href="#md89de4ba3e" y="131.678125"/>
      </g>
     </g>
     <g id="text_6">
      <!-- 0.2 -->
      <g transform="translate(376.74286 146.276562)scale(0.1 -0.1)">
       <use xlink:href="#DejaVuSans-48"/>
       <use x="63.623047" xlink:href="#DejaVuSans-46"/>
       <use x="95.410156" xlink:href="#DejaVuSans-50"/>
      </g>
     </g>
    </g>
    <g id="xtick_7">
     <g id="line2d_7">
      <g>
       <use style="stroke:#000000;stroke-width:0.8;" x="417.483604" xlink:href="#md89de4ba3e" y="131.678125"/>
      </g>
     </g>
     <g id="text_7">
      <!-- 0.3 -->
      <g transform="translate(409.532041 146.276562)scale(0.1 -0.1)">
       <use xlink:href="#DejaVuSans-48"/>
       <use x="63.623047" xlink:href="#DejaVuSans-46"/>
       <use x="95.410156" xlink:href="#DejaVuSans-51"/>
      </g>
     </g>
    </g>
    <g id="text_8">
     <!-- Coeff value -->
     <g transform="translate(297.005469 159.954687)scale(0.1 -0.1)">
      <defs>
       <path d="M 64.40625 67.28125 
L 64.40625 56.890625 
Q 59.421875 61.53125 53.78125 63.8125 
Q 48.140625 66.109375 41.796875 66.109375 
Q 29.296875 66.109375 22.65625 58.46875 
Q 16.015625 50.828125 16.015625 36.375 
Q 16.015625 21.96875 22.65625 14.328125 
Q 29.296875 6.6875 41.796875 6.6875 
Q 48.140625 6.6875 53.78125 8.984375 
Q 59.421875 11.28125 64.40625 15.921875 
L 64.40625 5.609375 
Q 59.234375 2.09375 53.4375 0.328125 
Q 47.65625 -1.421875 41.21875 -1.421875 
Q 24.65625 -1.421875 15.125 8.703125 
Q 5.609375 18.84375 5.609375 36.375 
Q 5.609375 53.953125 15.125 64.078125 
Q 24.65625 74.21875 41.21875 74.21875 
Q 47.75 74.21875 53.53125 72.484375 
Q 59.328125 70.75 64.40625 67.28125 
z
" id="DejaVuSans-67"/>
       <path d="M 30.609375 48.390625 
Q 23.390625 48.390625 19.1875 42.75 
Q 14.984375 37.109375 14.984375 27.296875 
Q 14.984375 17.484375 19.15625 11.84375 
Q 23.34375 6.203125 30.609375 6.203125 
Q 37.796875 6.203125 41.984375 11.859375 
Q 46.1875 17.53125 46.1875 27.296875 
Q 46.1875 37.015625 41.984375 42.703125 
Q 37.796875 48.390625 30.609375 48.390625 
z
M 30.609375 56 
Q 42.328125 56 49.015625 48.375 
Q 55.71875 40.765625 55.71875 27.296875 
Q 55.71875 13.875 49.015625 6.21875 
Q 42.328125 -1.421875 30.609375 -1.421875 
Q 18.84375 -1.421875 12.171875 6.21875 
Q 5.515625 13.875 5.515625 27.296875 
Q 5.515625 40.765625 12.171875 48.375 
Q 18.84375 56 30.609375 56 
z
" id="DejaVuSans-111"/>
       <path d="M 56.203125 29.59375 
L 56.203125 25.203125 
L 14.890625 25.203125 
Q 15.484375 15.921875 20.484375 11.0625 
Q 25.484375 6.203125 34.421875 6.203125 
Q 39.59375 6.203125 44.453125 7.46875 
Q 49.3125 8.734375 54.109375 11.28125 
L 54.109375 2.78125 
Q 49.265625 0.734375 44.1875 -0.34375 
Q 39.109375 -1.421875 33.890625 -1.421875 
Q 20.796875 -1.421875 13.15625 6.1875 
Q 5.515625 13.8125 5.515625 26.8125 
Q 5.515625 40.234375 12.765625 48.109375 
Q 20.015625 56 32.328125 56 
Q 43.359375 56 49.78125 48.890625 
Q 56.203125 41.796875 56.203125 29.59375 
z
M 47.21875 32.234375 
Q 47.125 39.59375 43.09375 43.984375 
Q 39.0625 48.390625 32.421875 48.390625 
Q 24.90625 48.390625 20.390625 44.140625 
Q 15.875 39.890625 15.1875 32.171875 
z
" id="DejaVuSans-101"/>
       <path d="M 37.109375 75.984375 
L 37.109375 68.5 
L 28.515625 68.5 
Q 23.6875 68.5 21.796875 66.546875 
Q 19.921875 64.59375 19.921875 59.515625 
L 19.921875 54.6875 
L 34.71875 54.6875 
L 34.71875 47.703125 
L 19.921875 47.703125 
L 19.921875 0 
L 10.890625 0 
L 10.890625 47.703125 
L 2.296875 47.703125 
L 2.296875 54.6875 
L 10.890625 54.6875 
L 10.890625 58.5 
Q 10.890625 67.625 15.140625 71.796875 
Q 19.390625 75.984375 28.609375 75.984375 
z
" id="DejaVuSans-102"/>
       <path id="DejaVuSans-32"/>
       <path d="M 2.984375 54.6875 
L 12.5 54.6875 
L 29.59375 8.796875 
L 46.6875 54.6875 
L 56.203125 54.6875 
L 35.6875 0 
L 23.484375 0 
z
" id="DejaVuSans-118"/>
       <path d="M 34.28125 27.484375 
Q 23.390625 27.484375 19.1875 25 
Q 14.984375 22.515625 14.984375 16.5 
Q 14.984375 11.71875 18.140625 8.90625 
Q 21.296875 6.109375 26.703125 6.109375 
Q 34.1875 6.109375 38.703125 11.40625 
Q 43.21875 16.703125 43.21875 25.484375 
L 43.21875 27.484375 
z
M 52.203125 31.203125 
L 52.203125 0 
L 43.21875 0 
L 43.21875 8.296875 
Q 40.140625 3.328125 35.546875 0.953125 
Q 30.953125 -1.421875 24.3125 -1.421875 
Q 15.921875 -1.421875 10.953125 3.296875 
Q 6 8.015625 6 15.921875 
Q 6 25.140625 12.171875 29.828125 
Q 18.359375 34.515625 30.609375 34.515625 
L 43.21875 34.515625 
L 43.21875 35.40625 
Q 43.21875 41.609375 39.140625 45 
Q 35.0625 48.390625 27.6875 48.390625 
Q 23 48.390625 18.546875 47.265625 
Q 14.109375 46.140625 10.015625 43.890625 
L 10.015625 52.203125 
Q 14.9375 54.109375 19.578125 55.046875 
Q 24.21875 56 28.609375 56 
Q 40.484375 56 46.34375 49.84375 
Q 52.203125 43.703125 52.203125 31.203125 
z
" id="DejaVuSans-97"/>
       <path d="M 9.421875 75.984375 
L 18.40625 75.984375 
L 18.40625 0 
L 9.421875 0 
z
" id="DejaVuSans-108"/>
       <path d="M 8.5 21.578125 
L 8.5 54.6875 
L 17.484375 54.6875 
L 17.484375 21.921875 
Q 17.484375 14.15625 20.5 10.265625 
Q 23.53125 6.390625 29.59375 6.390625 
Q 36.859375 6.390625 41.078125 11.03125 
Q 45.3125 15.671875 45.3125 23.6875 
L 45.3125 54.6875 
L 54.296875 54.6875 
L 54.296875 0 
L 45.3125 0 
L 45.3125 8.40625 
Q 42.046875 3.421875 37.71875 1 
Q 33.40625 -1.421875 27.6875 -1.421875 
Q 18.265625 -1.421875 13.375 4.4375 
Q 8.5 10.296875 8.5 21.578125 
z
M 31.109375 56 
z
" id="DejaVuSans-117"/>
      </defs>
      <use xlink:href="#DejaVuSans-67"/>
      <use x="69.824219" xlink:href="#DejaVuSans-111"/>
      <use x="131.005859" xlink:href="#DejaVuSans-101"/>
      <use x="192.529297" xlink:href="#DejaVuSans-102"/>
      <use x="227.734375" xlink:href="#DejaVuSans-102"/>
      <use x="262.939453" xlink:href="#DejaVuSans-32"/>
      <use x="294.726562" xlink:href="#DejaVuSans-118"/>
      <use x="353.90625" xlink:href="#DejaVuSans-97"/>
      <use x="415.185547" xlink:href="#DejaVuSans-108"/>
      <use x="442.96875" xlink:href="#DejaVuSans-117"/>
      <use x="506.347656" xlink:href="#DejaVuSans-101"/>
     </g>
    </g>
   </g>
   <g id="matplotlib.axis_2">
    <g id="ytick_1">
     <g id="line2d_8">
      <defs>
       <path d="M 0 0 
L -3.5 0 
" id="ma4b05b383c" style="stroke:#000000;stroke-width:0.8;"/>
      </defs>
      <g>
       <use style="stroke:#000000;stroke-width:0.8;" x="204.7" xlink:href="#ma4b05b383c" y="122.649331"/>
      </g>
     </g>
     <g id="text_9">
      <!--  g__Collinsella_0 -->
      <g transform="translate(115.990625 126.44855)scale(0.1 -0.1)">
       <defs>
        <path d="M 45.40625 27.984375 
Q 45.40625 37.75 41.375 43.109375 
Q 37.359375 48.484375 30.078125 48.484375 
Q 22.859375 48.484375 18.828125 43.109375 
Q 14.796875 37.75 14.796875 27.984375 
Q 14.796875 18.265625 18.828125 12.890625 
Q 22.859375 7.515625 30.078125 7.515625 
Q 37.359375 7.515625 41.375 12.890625 
Q 45.40625 18.265625 45.40625 27.984375 
z
M 54.390625 6.78125 
Q 54.390625 -7.171875 48.1875 -13.984375 
Q 42 -20.796875 29.203125 -20.796875 
Q 24.46875 -20.796875 20.265625 -20.09375 
Q 16.0625 -19.390625 12.109375 -17.921875 
L 12.109375 -9.1875 
Q 16.0625 -11.328125 19.921875 -12.34375 
Q 23.78125 -13.375 27.78125 -13.375 
Q 36.625 -13.375 41.015625 -8.765625 
Q 45.40625 -4.15625 45.40625 5.171875 
L 45.40625 9.625 
Q 42.625 4.78125 38.28125 2.390625 
Q 33.9375 0 27.875 0 
Q 17.828125 0 11.671875 7.65625 
Q 5.515625 15.328125 5.515625 27.984375 
Q 5.515625 40.671875 11.671875 48.328125 
Q 17.828125 56 27.875 56 
Q 33.9375 56 38.28125 53.609375 
Q 42.625 51.21875 45.40625 46.390625 
L 45.40625 54.6875 
L 54.390625 54.6875 
z
" id="DejaVuSans-103"/>
        <path d="M 50.984375 -16.609375 
L 50.984375 -23.578125 
L -0.984375 -23.578125 
L -0.984375 -16.609375 
z
" id="DejaVuSans-95"/>
        <path d="M 9.421875 54.6875 
L 18.40625 54.6875 
L 18.40625 0 
L 9.421875 0 
z
M 9.421875 75.984375 
L 18.40625 75.984375 
L 18.40625 64.59375 
L 9.421875 64.59375 
z
" id="DejaVuSans-105"/>
        <path d="M 54.890625 33.015625 
L 54.890625 0 
L 45.90625 0 
L 45.90625 32.71875 
Q 45.90625 40.484375 42.875 44.328125 
Q 39.84375 48.1875 33.796875 48.1875 
Q 26.515625 48.1875 22.3125 43.546875 
Q 18.109375 38.921875 18.109375 30.90625 
L 18.109375 0 
L 9.078125 0 
L 9.078125 54.6875 
L 18.109375 54.6875 
L 18.109375 46.1875 
Q 21.34375 51.125 25.703125 53.5625 
Q 30.078125 56 35.796875 56 
Q 45.21875 56 50.046875 50.171875 
Q 54.890625 44.34375 54.890625 33.015625 
z
" id="DejaVuSans-110"/>
        <path d="M 44.28125 53.078125 
L 44.28125 44.578125 
Q 40.484375 46.53125 36.375 47.5 
Q 32.28125 48.484375 27.875 48.484375 
Q 21.1875 48.484375 17.84375 46.4375 
Q 14.5 44.390625 14.5 40.28125 
Q 14.5 37.15625 16.890625 35.375 
Q 19.28125 33.59375 26.515625 31.984375 
L 29.59375 31.296875 
Q 39.15625 29.25 43.1875 25.515625 
Q 47.21875 21.78125 47.21875 15.09375 
Q 47.21875 7.46875 41.1875 3.015625 
Q 35.15625 -1.421875 24.609375 -1.421875 
Q 20.21875 -1.421875 15.453125 -0.5625 
Q 10.6875 0.296875 5.421875 2 
L 5.421875 11.28125 
Q 10.40625 8.6875 15.234375 7.390625 
Q 20.0625 6.109375 24.8125 6.109375 
Q 31.15625 6.109375 34.5625 8.28125 
Q 37.984375 10.453125 37.984375 14.40625 
Q 37.984375 18.0625 35.515625 20.015625 
Q 33.0625 21.96875 24.703125 23.78125 
L 21.578125 24.515625 
Q 13.234375 26.265625 9.515625 29.90625 
Q 5.8125 33.546875 5.8125 39.890625 
Q 5.8125 47.609375 11.28125 51.796875 
Q 16.75 56 26.8125 56 
Q 31.78125 56 36.171875 55.265625 
Q 40.578125 54.546875 44.28125 53.078125 
z
" id="DejaVuSans-115"/>
       </defs>
       <use xlink:href="#DejaVuSans-32"/>
       <use x="31.787109" xlink:href="#DejaVuSans-103"/>
       <use x="95.263672" xlink:href="#DejaVuSans-95"/>
       <use x="145.263672" xlink:href="#DejaVuSans-95"/>
       <use x="195.263672" xlink:href="#DejaVuSans-67"/>
       <use x="265.087891" xlink:href="#DejaVuSans-111"/>
       <use x="326.269531" xlink:href="#DejaVuSans-108"/>
       <use x="354.052734" xlink:href="#DejaVuSans-108"/>
       <use x="381.835938" xlink:href="#DejaVuSans-105"/>
       <use x="409.619141" xlink:href="#DejaVuSans-110"/>
       <use x="472.998047" xlink:href="#DejaVuSans-115"/>
       <use x="525.097656" xlink:href="#DejaVuSans-101"/>
       <use x="586.621094" xlink:href="#DejaVuSans-108"/>
       <use x="614.404297" xlink:href="#DejaVuSans-108"/>
       <use x="642.1875" xlink:href="#DejaVuSans-97"/>
       <use x="703.466797" xlink:href="#DejaVuSans-95"/>
       <use x="753.466797" xlink:href="#DejaVuSans-48"/>
      </g>
     </g>
    </g>
    <g id="ytick_2">
     <g id="line2d_9">
      <g>
       <use style="stroke:#000000;stroke-width:0.8;" x="204.7" xlink:href="#ma4b05b383c" y="112.504619"/>
      </g>
     </g>
     <g id="text_10">
      <!--  g__Adlercreutzia_0 -->
      <g transform="translate(101.029687 116.303837)scale(0.1 -0.1)">
       <defs>
        <path d="M 34.1875 63.1875 
L 20.796875 26.90625 
L 47.609375 26.90625 
z
M 28.609375 72.90625 
L 39.796875 72.90625 
L 67.578125 0 
L 57.328125 0 
L 50.6875 18.703125 
L 17.828125 18.703125 
L 11.1875 0 
L 0.78125 0 
z
" id="DejaVuSans-65"/>
        <path d="M 45.40625 46.390625 
L 45.40625 75.984375 
L 54.390625 75.984375 
L 54.390625 0 
L 45.40625 0 
L 45.40625 8.203125 
Q 42.578125 3.328125 38.25 0.953125 
Q 33.9375 -1.421875 27.875 -1.421875 
Q 17.96875 -1.421875 11.734375 6.484375 
Q 5.515625 14.40625 5.515625 27.296875 
Q 5.515625 40.1875 11.734375 48.09375 
Q 17.96875 56 27.875 56 
Q 33.9375 56 38.25 53.625 
Q 42.578125 51.265625 45.40625 46.390625 
z
M 14.796875 27.296875 
Q 14.796875 17.390625 18.875 11.75 
Q 22.953125 6.109375 30.078125 6.109375 
Q 37.203125 6.109375 41.296875 11.75 
Q 45.40625 17.390625 45.40625 27.296875 
Q 45.40625 37.203125 41.296875 42.84375 
Q 37.203125 48.484375 30.078125 48.484375 
Q 22.953125 48.484375 18.875 42.84375 
Q 14.796875 37.203125 14.796875 27.296875 
z
" id="DejaVuSans-100"/>
        <path d="M 41.109375 46.296875 
Q 39.59375 47.171875 37.8125 47.578125 
Q 36.03125 48 33.890625 48 
Q 26.265625 48 22.1875 43.046875 
Q 18.109375 38.09375 18.109375 28.8125 
L 18.109375 0 
L 9.078125 0 
L 9.078125 54.6875 
L 18.109375 54.6875 
L 18.109375 46.1875 
Q 20.953125 51.171875 25.484375 53.578125 
Q 30.03125 56 36.53125 56 
Q 37.453125 56 38.578125 55.875 
Q 39.703125 55.765625 41.0625 55.515625 
z
" id="DejaVuSans-114"/>
        <path d="M 48.78125 52.59375 
L 48.78125 44.1875 
Q 44.96875 46.296875 41.140625 47.34375 
Q 37.3125 48.390625 33.40625 48.390625 
Q 24.65625 48.390625 19.8125 42.84375 
Q 14.984375 37.3125 14.984375 27.296875 
Q 14.984375 17.28125 19.8125 11.734375 
Q 24.65625 6.203125 33.40625 6.203125 
Q 37.3125 6.203125 41.140625 7.25 
Q 44.96875 8.296875 48.78125 10.40625 
L 48.78125 2.09375 
Q 45.015625 0.34375 40.984375 -0.53125 
Q 36.96875 -1.421875 32.421875 -1.421875 
Q 20.0625 -1.421875 12.78125 6.34375 
Q 5.515625 14.109375 5.515625 27.296875 
Q 5.515625 40.671875 12.859375 48.328125 
Q 20.21875 56 33.015625 56 
Q 37.15625 56 41.109375 55.140625 
Q 45.0625 54.296875 48.78125 52.59375 
z
" id="DejaVuSans-99"/>
        <path d="M 18.3125 70.21875 
L 18.3125 54.6875 
L 36.8125 54.6875 
L 36.8125 47.703125 
L 18.3125 47.703125 
L 18.3125 18.015625 
Q 18.3125 11.328125 20.140625 9.421875 
Q 21.96875 7.515625 27.59375 7.515625 
L 36.8125 7.515625 
L 36.8125 0 
L 27.59375 0 
Q 17.1875 0 13.234375 3.875 
Q 9.28125 7.765625 9.28125 18.015625 
L 9.28125 47.703125 
L 2.6875 47.703125 
L 2.6875 54.6875 
L 9.28125 54.6875 
L 9.28125 70.21875 
z
" id="DejaVuSans-116"/>
        <path d="M 5.515625 54.6875 
L 48.1875 54.6875 
L 48.1875 46.484375 
L 14.40625 7.171875 
L 48.1875 7.171875 
L 48.1875 0 
L 4.296875 0 
L 4.296875 8.203125 
L 38.09375 47.515625 
L 5.515625 47.515625 
z
" id="DejaVuSans-122"/>
       </defs>
       <use xlink:href="#DejaVuSans-32"/>
       <use x="31.787109" xlink:href="#DejaVuSans-103"/>
       <use x="95.263672" xlink:href="#DejaVuSans-95"/>
       <use x="145.263672" xlink:href="#DejaVuSans-95"/>
       <use x="195.263672" xlink:href="#DejaVuSans-65"/>
       <use x="261.921875" xlink:href="#DejaVuSans-100"/>
       <use x="325.398438" xlink:href="#DejaVuSans-108"/>
       <use x="353.181641" xlink:href="#DejaVuSans-101"/>
       <use x="414.705078" xlink:href="#DejaVuSans-114"/>
       <use x="453.568359" xlink:href="#DejaVuSans-99"/>
       <use x="508.548828" xlink:href="#DejaVuSans-114"/>
       <use x="547.412109" xlink:href="#DejaVuSans-101"/>
       <use x="608.935547" xlink:href="#DejaVuSans-117"/>
       <use x="672.314453" xlink:href="#DejaVuSans-116"/>
       <use x="711.523438" xlink:href="#DejaVuSans-122"/>
       <use x="764.013672" xlink:href="#DejaVuSans-105"/>
       <use x="791.796875" xlink:href="#DejaVuSans-97"/>
       <use x="853.076172" xlink:href="#DejaVuSans-95"/>
       <use x="903.076172" xlink:href="#DejaVuSans-48"/>
      </g>
     </g>
    </g>
    <g id="ytick_3">
     <g id="line2d_10">
      <g>
       <use style="stroke:#000000;stroke-width:0.8;" x="204.7" xlink:href="#ma4b05b383c" y="102.359906"/>
      </g>
     </g>
     <g id="text_11">
      <!--  g__Blautia_0 -->
      <g transform="translate(131.879687 106.159125)scale(0.1 -0.1)">
       <defs>
        <path d="M 19.671875 34.8125 
L 19.671875 8.109375 
L 35.5 8.109375 
Q 43.453125 8.109375 47.28125 11.40625 
Q 51.125 14.703125 51.125 21.484375 
Q 51.125 28.328125 47.28125 31.5625 
Q 43.453125 34.8125 35.5 34.8125 
z
M 19.671875 64.796875 
L 19.671875 42.828125 
L 34.28125 42.828125 
Q 41.5 42.828125 45.03125 45.53125 
Q 48.578125 48.25 48.578125 53.8125 
Q 48.578125 59.328125 45.03125 62.0625 
Q 41.5 64.796875 34.28125 64.796875 
z
M 9.8125 72.90625 
L 35.015625 72.90625 
Q 46.296875 72.90625 52.390625 68.21875 
Q 58.5 63.53125 58.5 54.890625 
Q 58.5 48.1875 55.375 44.234375 
Q 52.25 40.28125 46.1875 39.3125 
Q 53.46875 37.75 57.5 32.78125 
Q 61.53125 27.828125 61.53125 20.40625 
Q 61.53125 10.640625 54.890625 5.3125 
Q 48.25 0 35.984375 0 
L 9.8125 0 
z
" id="DejaVuSans-66"/>
       </defs>
       <use xlink:href="#DejaVuSans-32"/>
       <use x="31.787109" xlink:href="#DejaVuSans-103"/>
       <use x="95.263672" xlink:href="#DejaVuSans-95"/>
       <use x="145.263672" xlink:href="#DejaVuSans-95"/>
       <use x="195.263672" xlink:href="#DejaVuSans-66"/>
       <use x="263.867188" xlink:href="#DejaVuSans-108"/>
       <use x="291.650391" xlink:href="#DejaVuSans-97"/>
       <use x="352.929688" xlink:href="#DejaVuSans-117"/>
       <use x="416.308594" xlink:href="#DejaVuSans-116"/>
       <use x="455.517578" xlink:href="#DejaVuSans-105"/>
       <use x="483.300781" xlink:href="#DejaVuSans-97"/>
       <use x="544.580078" xlink:href="#DejaVuSans-95"/>
       <use x="594.580078" xlink:href="#DejaVuSans-48"/>
      </g>
     </g>
    </g>
    <g id="ytick_4">
     <g id="line2d_11">
      <g>
       <use style="stroke:#000000;stroke-width:0.8;" x="204.7" xlink:href="#ma4b05b383c" y="92.215194"/>
      </g>
     </g>
     <g id="text_12">
      <!--  g__Pseudoramibacter_Eubacterium_0 -->
      <g transform="translate(7.2 96.014412)scale(0.1 -0.1)">
       <defs>
        <path d="M 19.671875 64.796875 
L 19.671875 37.40625 
L 32.078125 37.40625 
Q 38.96875 37.40625 42.71875 40.96875 
Q 46.484375 44.53125 46.484375 51.125 
Q 46.484375 57.671875 42.71875 61.234375 
Q 38.96875 64.796875 32.078125 64.796875 
z
M 9.8125 72.90625 
L 32.078125 72.90625 
Q 44.34375 72.90625 50.609375 67.359375 
Q 56.890625 61.8125 56.890625 51.125 
Q 56.890625 40.328125 50.609375 34.8125 
Q 44.34375 29.296875 32.078125 29.296875 
L 19.671875 29.296875 
L 19.671875 0 
L 9.8125 0 
z
" id="DejaVuSans-80"/>
        <path d="M 52 44.1875 
Q 55.375 50.25 60.0625 53.125 
Q 64.75 56 71.09375 56 
Q 79.640625 56 84.28125 50.015625 
Q 88.921875 44.046875 88.921875 33.015625 
L 88.921875 0 
L 79.890625 0 
L 79.890625 32.71875 
Q 79.890625 40.578125 77.09375 44.375 
Q 74.3125 48.1875 68.609375 48.1875 
Q 61.625 48.1875 57.5625 43.546875 
Q 53.515625 38.921875 53.515625 30.90625 
L 53.515625 0 
L 44.484375 0 
L 44.484375 32.71875 
Q 44.484375 40.625 41.703125 44.40625 
Q 38.921875 48.1875 33.109375 48.1875 
Q 26.21875 48.1875 22.15625 43.53125 
Q 18.109375 38.875 18.109375 30.90625 
L 18.109375 0 
L 9.078125 0 
L 9.078125 54.6875 
L 18.109375 54.6875 
L 18.109375 46.1875 
Q 21.1875 51.21875 25.484375 53.609375 
Q 29.78125 56 35.6875 56 
Q 41.65625 56 45.828125 52.96875 
Q 50 49.953125 52 44.1875 
z
" id="DejaVuSans-109"/>
        <path d="M 48.6875 27.296875 
Q 48.6875 37.203125 44.609375 42.84375 
Q 40.53125 48.484375 33.40625 48.484375 
Q 26.265625 48.484375 22.1875 42.84375 
Q 18.109375 37.203125 18.109375 27.296875 
Q 18.109375 17.390625 22.1875 11.75 
Q 26.265625 6.109375 33.40625 6.109375 
Q 40.53125 6.109375 44.609375 11.75 
Q 48.6875 17.390625 48.6875 27.296875 
z
M 18.109375 46.390625 
Q 20.953125 51.265625 25.265625 53.625 
Q 29.59375 56 35.59375 56 
Q 45.5625 56 51.78125 48.09375 
Q 58.015625 40.1875 58.015625 27.296875 
Q 58.015625 14.40625 51.78125 6.484375 
Q 45.5625 -1.421875 35.59375 -1.421875 
Q 29.59375 -1.421875 25.265625 0.953125 
Q 20.953125 3.328125 18.109375 8.203125 
L 18.109375 0 
L 9.078125 0 
L 9.078125 75.984375 
L 18.109375 75.984375 
z
" id="DejaVuSans-98"/>
        <path d="M 9.8125 72.90625 
L 55.90625 72.90625 
L 55.90625 64.59375 
L 19.671875 64.59375 
L 19.671875 43.015625 
L 54.390625 43.015625 
L 54.390625 34.71875 
L 19.671875 34.71875 
L 19.671875 8.296875 
L 56.78125 8.296875 
L 56.78125 0 
L 9.8125 0 
z
" id="DejaVuSans-69"/>
       </defs>
       <use xlink:href="#DejaVuSans-32"/>
       <use x="31.787109" xlink:href="#DejaVuSans-103"/>
       <use x="95.263672" xlink:href="#DejaVuSans-95"/>
       <use x="145.263672" xlink:href="#DejaVuSans-95"/>
       <use x="195.263672" xlink:href="#DejaVuSans-80"/>
       <use x="253.816406" xlink:href="#DejaVuSans-115"/>
       <use x="305.916016" xlink:href="#DejaVuSans-101"/>
       <use x="367.439453" xlink:href="#DejaVuSans-117"/>
       <use x="430.818359" xlink:href="#DejaVuSans-100"/>
       <use x="494.294922" xlink:href="#DejaVuSans-111"/>
       <use x="555.476562" xlink:href="#DejaVuSans-114"/>
       <use x="596.589844" xlink:href="#DejaVuSans-97"/>
       <use x="657.869141" xlink:href="#DejaVuSans-109"/>
       <use x="755.28125" xlink:href="#DejaVuSans-105"/>
       <use x="783.064453" xlink:href="#DejaVuSans-98"/>
       <use x="846.541016" xlink:href="#DejaVuSans-97"/>
       <use x="907.820312" xlink:href="#DejaVuSans-99"/>
       <use x="962.800781" xlink:href="#DejaVuSans-116"/>
       <use x="1002.009766" xlink:href="#DejaVuSans-101"/>
       <use x="1063.533203" xlink:href="#DejaVuSans-114"/>
       <use x="1104.646484" xlink:href="#DejaVuSans-95"/>
       <use x="1154.646484" xlink:href="#DejaVuSans-69"/>
       <use x="1217.830078" xlink:href="#DejaVuSans-117"/>
       <use x="1281.208984" xlink:href="#DejaVuSans-98"/>
       <use x="1344.685547" xlink:href="#DejaVuSans-97"/>
       <use x="1405.964844" xlink:href="#DejaVuSans-99"/>
       <use x="1460.945312" xlink:href="#DejaVuSans-116"/>
       <use x="1500.154297" xlink:href="#DejaVuSans-101"/>
       <use x="1561.677734" xlink:href="#DejaVuSans-114"/>
       <use x="1602.791016" xlink:href="#DejaVuSans-105"/>
       <use x="1630.574219" xlink:href="#DejaVuSans-117"/>
       <use x="1693.953125" xlink:href="#DejaVuSans-109"/>
       <use x="1791.365234" xlink:href="#DejaVuSans-95"/>
       <use x="1841.365234" xlink:href="#DejaVuSans-48"/>
      </g>
     </g>
    </g>
    <g id="ytick_5">
     <g id="line2d_12">
      <g>
       <use style="stroke:#000000;stroke-width:0.8;" x="204.7" xlink:href="#ma4b05b383c" y="82.070481"/>
      </g>
     </g>
     <g id="text_13">
      <!--  g__Anaerofilum_0 -->
      <g transform="translate(106.192187 85.8697)scale(0.1 -0.1)">
       <use xlink:href="#DejaVuSans-32"/>
       <use x="31.787109" xlink:href="#DejaVuSans-103"/>
       <use x="95.263672" xlink:href="#DejaVuSans-95"/>
       <use x="145.263672" xlink:href="#DejaVuSans-95"/>
       <use x="195.263672" xlink:href="#DejaVuSans-65"/>
       <use x="263.671875" xlink:href="#DejaVuSans-110"/>
       <use x="327.050781" xlink:href="#DejaVuSans-97"/>
       <use x="388.330078" xlink:href="#DejaVuSans-101"/>
       <use x="449.853516" xlink:href="#DejaVuSans-114"/>
       <use x="488.716797" xlink:href="#DejaVuSans-111"/>
       <use x="549.898438" xlink:href="#DejaVuSans-102"/>
       <use x="585.103516" xlink:href="#DejaVuSans-105"/>
       <use x="612.886719" xlink:href="#DejaVuSans-108"/>
       <use x="640.669922" xlink:href="#DejaVuSans-117"/>
       <use x="704.048828" xlink:href="#DejaVuSans-109"/>
       <use x="801.460938" xlink:href="#DejaVuSans-95"/>
       <use x="851.460938" xlink:href="#DejaVuSans-48"/>
      </g>
     </g>
    </g>
    <g id="ytick_6">
     <g id="line2d_13">
      <g>
       <use style="stroke:#000000;stroke-width:0.8;" x="204.7" xlink:href="#ma4b05b383c" y="71.925769"/>
      </g>
     </g>
     <g id="text_14">
      <!--  g__Clostridium_0 -->
      <g transform="translate(109.707812 75.724988)scale(0.1 -0.1)">
       <use xlink:href="#DejaVuSans-32"/>
       <use x="31.787109" xlink:href="#DejaVuSans-103"/>
       <use x="95.263672" xlink:href="#DejaVuSans-95"/>
       <use x="145.263672" xlink:href="#DejaVuSans-95"/>
       <use x="195.263672" xlink:href="#DejaVuSans-67"/>
       <use x="265.087891" xlink:href="#DejaVuSans-108"/>
       <use x="292.871094" xlink:href="#DejaVuSans-111"/>
       <use x="354.052734" xlink:href="#DejaVuSans-115"/>
       <use x="406.152344" xlink:href="#DejaVuSans-116"/>
       <use x="445.361328" xlink:href="#DejaVuSans-114"/>
       <use x="486.474609" xlink:href="#DejaVuSans-105"/>
       <use x="514.257812" xlink:href="#DejaVuSans-100"/>
       <use x="577.734375" xlink:href="#DejaVuSans-105"/>
       <use x="605.517578" xlink:href="#DejaVuSans-117"/>
       <use x="668.896484" xlink:href="#DejaVuSans-109"/>
       <use x="766.308594" xlink:href="#DejaVuSans-95"/>
       <use x="816.308594" xlink:href="#DejaVuSans-48"/>
      </g>
     </g>
    </g>
    <g id="ytick_7">
     <g id="line2d_14">
      <g>
       <use style="stroke:#000000;stroke-width:0.8;" x="204.7" xlink:href="#ma4b05b383c" y="61.781056"/>
      </g>
     </g>
     <g id="text_15">
      <!--  g__Weissella_0 -->
      <g transform="translate(120.323437 65.580275)scale(0.1 -0.1)">
       <defs>
        <path d="M 3.328125 72.90625 
L 13.28125 72.90625 
L 28.609375 11.28125 
L 43.890625 72.90625 
L 54.984375 72.90625 
L 70.3125 11.28125 
L 85.59375 72.90625 
L 95.609375 72.90625 
L 77.296875 0 
L 64.890625 0 
L 49.515625 63.28125 
L 33.984375 0 
L 21.578125 0 
z
" id="DejaVuSans-87"/>
       </defs>
       <use xlink:href="#DejaVuSans-32"/>
       <use x="31.787109" xlink:href="#DejaVuSans-103"/>
       <use x="95.263672" xlink:href="#DejaVuSans-95"/>
       <use x="145.263672" xlink:href="#DejaVuSans-95"/>
       <use x="195.263672" xlink:href="#DejaVuSans-87"/>
       <use x="288.265625" xlink:href="#DejaVuSans-101"/>
       <use x="349.789062" xlink:href="#DejaVuSans-105"/>
       <use x="377.572266" xlink:href="#DejaVuSans-115"/>
       <use x="429.671875" xlink:href="#DejaVuSans-115"/>
       <use x="481.771484" xlink:href="#DejaVuSans-101"/>
       <use x="543.294922" xlink:href="#DejaVuSans-108"/>
       <use x="571.078125" xlink:href="#DejaVuSans-108"/>
       <use x="598.861328" xlink:href="#DejaVuSans-97"/>
       <use x="660.140625" xlink:href="#DejaVuSans-95"/>
       <use x="710.140625" xlink:href="#DejaVuSans-48"/>
      </g>
     </g>
    </g>
    <g id="ytick_8">
     <g id="line2d_15">
      <g>
       <use style="stroke:#000000;stroke-width:0.8;" x="204.7" xlink:href="#ma4b05b383c" y="51.636344"/>
      </g>
     </g>
     <g id="text_16">
      <!--  g__Anaerotruncus_0 -->
      <g transform="translate(93.595312 55.347281)scale(0.1 -0.1)">
       <use xlink:href="#DejaVuSans-32"/>
       <use x="31.787109" xlink:href="#DejaVuSans-103"/>
       <use x="95.263672" xlink:href="#DejaVuSans-95"/>
       <use x="145.263672" xlink:href="#DejaVuSans-95"/>
       <use x="195.263672" xlink:href="#DejaVuSans-65"/>
       <use x="263.671875" xlink:href="#DejaVuSans-110"/>
       <use x="327.050781" xlink:href="#DejaVuSans-97"/>
       <use x="388.330078" xlink:href="#DejaVuSans-101"/>
       <use x="449.853516" xlink:href="#DejaVuSans-114"/>
       <use x="488.716797" xlink:href="#DejaVuSans-111"/>
       <use x="549.898438" xlink:href="#DejaVuSans-116"/>
       <use x="589.107422" xlink:href="#DejaVuSans-114"/>
       <use x="630.220703" xlink:href="#DejaVuSans-117"/>
       <use x="693.599609" xlink:href="#DejaVuSans-110"/>
       <use x="756.978516" xlink:href="#DejaVuSans-99"/>
       <use x="811.958984" xlink:href="#DejaVuSans-117"/>
       <use x="875.337891" xlink:href="#DejaVuSans-115"/>
       <use x="927.4375" xlink:href="#DejaVuSans-95"/>
       <use x="977.4375" xlink:href="#DejaVuSans-48"/>
      </g>
     </g>
    </g>
    <g id="ytick_9">
     <g id="line2d_16">
      <g>
       <use style="stroke:#000000;stroke-width:0.8;" x="204.7" xlink:href="#ma4b05b383c" y="41.491631"/>
      </g>
     </g>
     <g id="text_17">
      <!--  g__Eggerthella_0 -->
      <g transform="translate(109.435937 45.29085)scale(0.1 -0.1)">
       <defs>
        <path d="M 54.890625 33.015625 
L 54.890625 0 
L 45.90625 0 
L 45.90625 32.71875 
Q 45.90625 40.484375 42.875 44.328125 
Q 39.84375 48.1875 33.796875 48.1875 
Q 26.515625 48.1875 22.3125 43.546875 
Q 18.109375 38.921875 18.109375 30.90625 
L 18.109375 0 
L 9.078125 0 
L 9.078125 75.984375 
L 18.109375 75.984375 
L 18.109375 46.1875 
Q 21.34375 51.125 25.703125 53.5625 
Q 30.078125 56 35.796875 56 
Q 45.21875 56 50.046875 50.171875 
Q 54.890625 44.34375 54.890625 33.015625 
z
" id="DejaVuSans-104"/>
       </defs>
       <use xlink:href="#DejaVuSans-32"/>
       <use x="31.787109" xlink:href="#DejaVuSans-103"/>
       <use x="95.263672" xlink:href="#DejaVuSans-95"/>
       <use x="145.263672" xlink:href="#DejaVuSans-95"/>
       <use x="195.263672" xlink:href="#DejaVuSans-69"/>
       <use x="258.447266" xlink:href="#DejaVuSans-103"/>
       <use x="321.923828" xlink:href="#DejaVuSans-103"/>
       <use x="385.400391" xlink:href="#DejaVuSans-101"/>
       <use x="446.923828" xlink:href="#DejaVuSans-114"/>
       <use x="488.037109" xlink:href="#DejaVuSans-116"/>
       <use x="527.246094" xlink:href="#DejaVuSans-104"/>
       <use x="590.625" xlink:href="#DejaVuSans-101"/>
       <use x="652.148438" xlink:href="#DejaVuSans-108"/>
       <use x="679.931641" xlink:href="#DejaVuSans-108"/>
       <use x="707.714844" xlink:href="#DejaVuSans-97"/>
       <use x="768.994141" xlink:href="#DejaVuSans-95"/>
       <use x="818.994141" xlink:href="#DejaVuSans-48"/>
      </g>
     </g>
    </g>
    <g id="ytick_10">
     <g id="line2d_17">
      <g>
       <use style="stroke:#000000;stroke-width:0.8;" x="204.7" xlink:href="#ma4b05b383c" y="31.346919"/>
      </g>
     </g>
     <g id="text_18">
      <!--  g__Alistipes_0 -->
      <g transform="translate(124.795312 35.146138)scale(0.1 -0.1)">
       <defs>
        <path d="M 18.109375 8.203125 
L 18.109375 -20.796875 
L 9.078125 -20.796875 
L 9.078125 54.6875 
L 18.109375 54.6875 
L 18.109375 46.390625 
Q 20.953125 51.265625 25.265625 53.625 
Q 29.59375 56 35.59375 56 
Q 45.5625 56 51.78125 48.09375 
Q 58.015625 40.1875 58.015625 27.296875 
Q 58.015625 14.40625 51.78125 6.484375 
Q 45.5625 -1.421875 35.59375 -1.421875 
Q 29.59375 -1.421875 25.265625 0.953125 
Q 20.953125 3.328125 18.109375 8.203125 
z
M 48.6875 27.296875 
Q 48.6875 37.203125 44.609375 42.84375 
Q 40.53125 48.484375 33.40625 48.484375 
Q 26.265625 48.484375 22.1875 42.84375 
Q 18.109375 37.203125 18.109375 27.296875 
Q 18.109375 17.390625 22.1875 11.75 
Q 26.265625 6.109375 33.40625 6.109375 
Q 40.53125 6.109375 44.609375 11.75 
Q 48.6875 17.390625 48.6875 27.296875 
z
" id="DejaVuSans-112"/>
       </defs>
       <use xlink:href="#DejaVuSans-32"/>
       <use x="31.787109" xlink:href="#DejaVuSans-103"/>
       <use x="95.263672" xlink:href="#DejaVuSans-95"/>
       <use x="145.263672" xlink:href="#DejaVuSans-95"/>
       <use x="195.263672" xlink:href="#DejaVuSans-65"/>
       <use x="263.671875" xlink:href="#DejaVuSans-108"/>
       <use x="291.455078" xlink:href="#DejaVuSans-105"/>
       <use x="319.238281" xlink:href="#DejaVuSans-115"/>
       <use x="371.337891" xlink:href="#DejaVuSans-116"/>
       <use x="410.546875" xlink:href="#DejaVuSans-105"/>
       <use x="438.330078" xlink:href="#DejaVuSans-112"/>
       <use x="501.806641" xlink:href="#DejaVuSans-101"/>
       <use x="563.330078" xlink:href="#DejaVuSans-115"/>
       <use x="615.429688" xlink:href="#DejaVuSans-95"/>
       <use x="665.429688" xlink:href="#DejaVuSans-48"/>
      </g>
     </g>
    </g>
   </g>
   <g id="patch_13">
    <path d="M 204.7 131.678125 
L 204.7 22.318125 
" style="fill:none;stroke:#000000;stroke-linecap:square;stroke-linejoin:miter;stroke-width:0.8;"/>
   </g>
   <g id="patch_14">
    <path d="M 446.1 131.678125 
L 446.1 22.318125 
" style="fill:none;stroke:#000000;stroke-linecap:square;stroke-linejoin:miter;stroke-width:0.8;"/>
   </g>
   <g id="patch_15">
    <path d="M 204.7 131.678125 
L 446.1 131.678125 
" style="fill:none;stroke:#000000;stroke-linecap:square;stroke-linejoin:miter;stroke-width:0.8;"/>
   </g>
   <g id="patch_16">
    <path d="M 204.7 22.318125 
L 446.1 22.318125 
" style="fill:none;stroke:#000000;stroke-linecap:square;stroke-linejoin:miter;stroke-width:0.8;"/>
   </g>
   <g id="text_19">
    <!-- fibromyalgia sample group -->
    <g transform="translate(244.865 16.318125)scale(0.12 -0.12)">
     <defs>
      <path d="M 32.171875 -5.078125 
Q 28.375 -14.84375 24.75 -17.8125 
Q 21.140625 -20.796875 15.09375 -20.796875 
L 7.90625 -20.796875 
L 7.90625 -13.28125 
L 13.1875 -13.28125 
Q 16.890625 -13.28125 18.9375 -11.515625 
Q 21 -9.765625 23.484375 -3.21875 
L 25.09375 0.875 
L 2.984375 54.6875 
L 12.5 54.6875 
L 29.59375 11.921875 
L 46.6875 54.6875 
L 56.203125 54.6875 
z
" id="DejaVuSans-121"/>
     </defs>
     <use xlink:href="#DejaVuSans-102"/>
     <use x="35.205078" xlink:href="#DejaVuSans-105"/>
     <use x="62.988281" xlink:href="#DejaVuSans-98"/>
     <use x="126.464844" xlink:href="#DejaVuSans-114"/>
     <use x="165.328125" xlink:href="#DejaVuSans-111"/>
     <use x="226.509766" xlink:href="#DejaVuSans-109"/>
     <use x="323.921875" xlink:href="#DejaVuSans-121"/>
     <use x="383.101562" xlink:href="#DejaVuSans-97"/>
     <use x="444.380859" xlink:href="#DejaVuSans-108"/>
     <use x="472.164062" xlink:href="#DejaVuSans-103"/>
     <use x="535.640625" xlink:href="#DejaVuSans-105"/>
     <use x="563.423828" xlink:href="#DejaVuSans-97"/>
     <use x="624.703125" xlink:href="#DejaVuSans-32"/>
     <use x="656.490234" xlink:href="#DejaVuSans-115"/>
     <use x="708.589844" xlink:href="#DejaVuSans-97"/>
     <use x="769.869141" xlink:href="#DejaVuSans-109"/>
     <use x="867.28125" xlink:href="#DejaVuSans-112"/>
     <use x="930.757812" xlink:href="#DejaVuSans-108"/>
     <use x="958.541016" xlink:href="#DejaVuSans-101"/>
     <use x="1020.064453" xlink:href="#DejaVuSans-32"/>
     <use x="1051.851562" xlink:href="#DejaVuSans-103"/>
     <use x="1115.328125" xlink:href="#DejaVuSans-114"/>
     <use x="1154.191406" xlink:href="#DejaVuSans-111"/>
     <use x="1215.373047" xlink:href="#DejaVuSans-117"/>
     <use x="1278.751953" xlink:href="#DejaVuSans-112"/>
    </g>
   </g>
  </g>
  <g id="axes_2">
   <g id="patch_17">
    <path d="M 204.7 299.078125 
L 446.1 299.078125 
L 446.1 189.718125 
L 204.7 189.718125 
z
" style="fill:#ffffff;"/>
   </g>
   <g id="patch_18">
    <path clip-path="url(#pbd464544c5)" d="M 215.672727 299.078125 
L 219.149088 299.078125 
L 219.149088 296.995077 
L 215.672727 296.995077 
z
" style="fill:#d95f0e;opacity:0.5;"/>
   </g>
   <g id="patch_19">
    <path clip-path="url(#pbd464544c5)" d="M 220.018179 299.078125 
L 223.49454 299.078125 
L 223.49454 299.078125 
L 220.018179 299.078125 
z
" style="fill:#d95f0e;opacity:0.5;"/>
   </g>
   <g id="patch_20">
    <path clip-path="url(#pbd464544c5)" d="M 224.36363 299.078125 
L 227.839991 299.078125 
L 227.839991 299.078125 
L 224.36363 299.078125 
z
" style="fill:#d95f0e;opacity:0.5;"/>
   </g>
   <g id="patch_21">
    <path clip-path="url(#pbd464544c5)" d="M 228.709082 299.078125 
L 232.185443 299.078125 
L 232.185443 296.995077 
L 228.709082 296.995077 
z
" style="fill:#d95f0e;opacity:0.5;"/>
   </g>
   <g id="patch_22">
    <path clip-path="url(#pbd464544c5)" d="M 233.054533 299.078125 
L 236.530894 299.078125 
L 236.530894 299.078125 
L 233.054533 299.078125 
z
" style="fill:#d95f0e;opacity:0.5;"/>
   </g>
   <g id="patch_23">
    <path clip-path="url(#pbd464544c5)" d="M 237.399985 299.078125 
L 240.876346 299.078125 
L 240.876346 299.078125 
L 237.399985 299.078125 
z
" style="fill:#d95f0e;opacity:0.5;"/>
   </g>
   <g id="patch_24">
    <path clip-path="url(#pbd464544c5)" d="M 241.745436 299.078125 
L 245.221797 299.078125 
L 245.221797 296.995077 
L 241.745436 296.995077 
z
" style="fill:#d95f0e;opacity:0.5;"/>
   </g>
   <g id="patch_25">
    <path clip-path="url(#pbd464544c5)" d="M 246.090888 299.078125 
L 249.567249 299.078125 
L 249.567249 296.995077 
L 246.090888 296.995077 
z
" style="fill:#d95f0e;opacity:0.5;"/>
   </g>
   <g id="patch_26">
    <path clip-path="url(#pbd464544c5)" d="M 250.436339 299.078125 
L 253.9127 299.078125 
L 253.9127 292.828982 
L 250.436339 292.828982 
z
" style="fill:#d95f0e;opacity:0.5;"/>
   </g>
   <g id="patch_27">
    <path clip-path="url(#pbd464544c5)" d="M 254.781791 299.078125 
L 258.258152 299.078125 
L 258.258152 290.745935 
L 254.781791 290.745935 
z
" style="fill:#d95f0e;opacity:0.5;"/>
   </g>
   <g id="patch_28">
    <path clip-path="url(#pbd464544c5)" d="M 259.127242 299.078125 
L 262.603603 299.078125 
L 262.603603 286.579839 
L 259.127242 286.579839 
z
" style="fill:#d95f0e;opacity:0.5;"/>
   </g>
   <g id="patch_29">
    <path clip-path="url(#pbd464544c5)" d="M 263.472694 299.078125 
L 266.949055 299.078125 
L 266.949055 288.662887 
L 263.472694 288.662887 
z
" style="fill:#d95f0e;opacity:0.5;"/>
   </g>
   <g id="patch_30">
    <path clip-path="url(#pbd464544c5)" d="M 267.818145 299.078125 
L 271.294506 299.078125 
L 271.294506 282.413744 
L 267.818145 282.413744 
z
" style="fill:#d95f0e;opacity:0.5;"/>
   </g>
   <g id="patch_31">
    <path clip-path="url(#pbd464544c5)" d="M 272.163597 299.078125 
L 275.639958 299.078125 
L 275.639958 290.745935 
L 272.163597 290.745935 
z
" style="fill:#d95f0e;opacity:0.5;"/>
   </g>
   <g id="patch_32">
    <path clip-path="url(#pbd464544c5)" d="M 276.509048 299.078125 
L 279.985409 299.078125 
L 279.985409 271.998506 
L 276.509048 271.998506 
z
" style="fill:#d95f0e;opacity:0.5;"/>
   </g>
   <g id="patch_33">
    <path clip-path="url(#pbd464544c5)" d="M 280.854499 299.078125 
L 284.330861 299.078125 
L 284.330861 263.666315 
L 280.854499 263.666315 
z
" style="fill:#d95f0e;opacity:0.5;"/>
   </g>
   <g id="patch_34">
    <path clip-path="url(#pbd464544c5)" d="M 285.199951 299.078125 
L 288.676312 299.078125 
L 288.676312 271.998506 
L 285.199951 271.998506 
z
" style="fill:#d95f0e;opacity:0.5;"/>
   </g>
   <g id="patch_35">
    <path clip-path="url(#pbd464544c5)" d="M 289.545402 299.078125 
L 293.021764 299.078125 
L 293.021764 261.583268 
L 289.545402 261.583268 
z
" style="fill:#d95f0e;opacity:0.5;"/>
   </g>
   <g id="patch_36">
    <path clip-path="url(#pbd464544c5)" d="M 293.890854 299.078125 
L 297.367215 299.078125 
L 297.367215 230.337554 
L 293.890854 230.337554 
z
" style="fill:#d95f0e;opacity:0.5;"/>
   </g>
   <g id="patch_37">
    <path clip-path="url(#pbd464544c5)" d="M 298.236305 299.078125 
L 301.712667 299.078125 
L 301.712667 263.666315 
L 298.236305 263.666315 
z
" style="fill:#d95f0e;opacity:0.5;"/>
   </g>
   <g id="patch_38">
    <path clip-path="url(#pbd464544c5)" d="M 302.581757 299.078125 
L 306.058118 299.078125 
L 306.058118 228.254506 
L 302.581757 228.254506 
z
" style="fill:#d95f0e;opacity:0.5;"/>
   </g>
   <g id="patch_39">
    <path clip-path="url(#pbd464544c5)" d="M 306.927208 299.078125 
L 310.40357 299.078125 
L 310.40357 240.752792 
L 306.927208 240.752792 
z
" style="fill:#d95f0e;opacity:0.5;"/>
   </g>
   <g id="patch_40">
    <path clip-path="url(#pbd464544c5)" d="M 311.27266 299.078125 
L 314.749021 299.078125 
L 314.749021 224.088411 
L 311.27266 224.088411 
z
" style="fill:#d95f0e;opacity:0.5;"/>
   </g>
   <g id="patch_41">
    <path clip-path="url(#pbd464544c5)" d="M 315.618111 299.078125 
L 319.094473 299.078125 
L 319.094473 224.088411 
L 315.618111 224.088411 
z
" style="fill:#d95f0e;opacity:0.5;"/>
   </g>
   <g id="patch_42">
    <path clip-path="url(#pbd464544c5)" d="M 319.963563 299.078125 
L 323.439924 299.078125 
L 323.439924 228.254506 
L 319.963563 228.254506 
z
" style="fill:#d95f0e;opacity:0.5;"/>
   </g>
   <g id="patch_43">
    <path clip-path="url(#pbd464544c5)" d="M 324.309014 299.078125 
L 327.785375 299.078125 
L 327.785375 222.005363 
L 324.309014 222.005363 
z
" style="fill:#d95f0e;opacity:0.5;"/>
   </g>
   <g id="patch_44">
    <path clip-path="url(#pbd464544c5)" d="M 328.654466 299.078125 
L 332.130827 299.078125 
L 332.130827 197.008792 
L 328.654466 197.008792 
z
" style="fill:#d95f0e;opacity:0.5;"/>
   </g>
   <g id="patch_45">
    <path clip-path="url(#pbd464544c5)" d="M 332.999917 299.078125 
L 336.476278 299.078125 
L 336.476278 199.091839 
L 332.999917 199.091839 
z
" style="fill:#d95f0e;opacity:0.5;"/>
   </g>
   <g id="patch_46">
    <path clip-path="url(#pbd464544c5)" d="M 337.345369 299.078125 
L 340.82173 299.078125 
L 340.82173 201.174887 
L 337.345369 201.174887 
z
" style="fill:#d95f0e;opacity:0.5;"/>
   </g>
   <g id="patch_47">
    <path clip-path="url(#pbd464544c5)" d="M 341.69082 299.078125 
L 345.167181 299.078125 
L 345.167181 213.673173 
L 341.69082 213.673173 
z
" style="fill:#d95f0e;opacity:0.5;"/>
   </g>
   <g id="patch_48">
    <path clip-path="url(#pbd464544c5)" d="M 346.036272 299.078125 
L 349.512633 299.078125 
L 349.512633 224.088411 
L 346.036272 224.088411 
z
" style="fill:#d95f0e;opacity:0.5;"/>
   </g>
   <g id="patch_49">
    <path clip-path="url(#pbd464544c5)" d="M 350.381723 299.078125 
L 353.858084 299.078125 
L 353.858084 219.922315 
L 350.381723 219.922315 
z
" style="fill:#d95f0e;opacity:0.5;"/>
   </g>
   <g id="patch_50">
    <path clip-path="url(#pbd464544c5)" d="M 354.727175 299.078125 
L 358.203536 299.078125 
L 358.203536 222.005363 
L 354.727175 222.005363 
z
" style="fill:#d95f0e;opacity:0.5;"/>
   </g>
   <g id="patch_51">
    <path clip-path="url(#pbd464544c5)" d="M 359.072626 299.078125 
L 362.548987 299.078125 
L 362.548987 219.922315 
L 359.072626 219.922315 
z
" style="fill:#d95f0e;opacity:0.5;"/>
   </g>
   <g id="patch_52">
    <path clip-path="url(#pbd464544c5)" d="M 363.418078 299.078125 
L 366.894439 299.078125 
L 366.894439 236.586696 
L 363.418078 236.586696 
z
" style="fill:#d95f0e;opacity:0.5;"/>
   </g>
   <g id="patch_53">
    <path clip-path="url(#pbd464544c5)" d="M 367.763529 299.078125 
L 371.23989 299.078125 
L 371.23989 253.251077 
L 367.763529 253.251077 
z
" style="fill:#d95f0e;opacity:0.5;"/>
   </g>
   <g id="patch_54">
    <path clip-path="url(#pbd464544c5)" d="M 372.108981 299.078125 
L 375.585342 299.078125 
L 375.585342 257.417173 
L 372.108981 257.417173 
z
" style="fill:#d95f0e;opacity:0.5;"/>
   </g>
   <g id="patch_55">
    <path clip-path="url(#pbd464544c5)" d="M 376.454432 299.078125 
L 379.930793 299.078125 
L 379.930793 244.918887 
L 376.454432 244.918887 
z
" style="fill:#d95f0e;opacity:0.5;"/>
   </g>
   <g id="patch_56">
    <path clip-path="url(#pbd464544c5)" d="M 380.799884 299.078125 
L 384.276245 299.078125 
L 384.276245 263.666315 
L 380.799884 263.666315 
z
" style="fill:#d95f0e;opacity:0.5;"/>
   </g>
   <g id="patch_57">
    <path clip-path="url(#pbd464544c5)" d="M 385.145335 299.078125 
L 388.621696 299.078125 
L 388.621696 271.998506 
L 385.145335 271.998506 
z
" style="fill:#d95f0e;opacity:0.5;"/>
   </g>
   <g id="patch_58">
    <path clip-path="url(#pbd464544c5)" d="M 389.490787 299.078125 
L 392.967148 299.078125 
L 392.967148 288.662887 
L 389.490787 288.662887 
z
" style="fill:#d95f0e;opacity:0.5;"/>
   </g>
   <g id="patch_59">
    <path clip-path="url(#pbd464544c5)" d="M 393.836238 299.078125 
L 397.312599 299.078125 
L 397.312599 274.081554 
L 393.836238 274.081554 
z
" style="fill:#d95f0e;opacity:0.5;"/>
   </g>
   <g id="patch_60">
    <path clip-path="url(#pbd464544c5)" d="M 398.181689 299.078125 
L 401.658051 299.078125 
L 401.658051 288.662887 
L 398.181689 288.662887 
z
" style="fill:#d95f0e;opacity:0.5;"/>
   </g>
   <g id="patch_61">
    <path clip-path="url(#pbd464544c5)" d="M 402.527141 299.078125 
L 406.003502 299.078125 
L 406.003502 292.828982 
L 402.527141 292.828982 
z
" style="fill:#d95f0e;opacity:0.5;"/>
   </g>
   <g id="patch_62">
    <path clip-path="url(#pbd464544c5)" d="M 406.872592 299.078125 
L 410.348954 299.078125 
L 410.348954 284.496792 
L 406.872592 284.496792 
z
" style="fill:#d95f0e;opacity:0.5;"/>
   </g>
   <g id="patch_63">
    <path clip-path="url(#pbd464544c5)" d="M 411.218044 299.078125 
L 414.694405 299.078125 
L 414.694405 290.745935 
L 411.218044 290.745935 
z
" style="fill:#d95f0e;opacity:0.5;"/>
   </g>
   <g id="patch_64">
    <path clip-path="url(#pbd464544c5)" d="M 415.563495 299.078125 
L 419.039857 299.078125 
L 419.039857 284.496792 
L 415.563495 284.496792 
z
" style="fill:#d95f0e;opacity:0.5;"/>
   </g>
   <g id="patch_65">
    <path clip-path="url(#pbd464544c5)" d="M 419.908947 299.078125 
L 423.385308 299.078125 
L 423.385308 294.91203 
L 419.908947 294.91203 
z
" style="fill:#d95f0e;opacity:0.5;"/>
   </g>
   <g id="patch_66">
    <path clip-path="url(#pbd464544c5)" d="M 424.254398 299.078125 
L 427.73076 299.078125 
L 427.73076 294.91203 
L 424.254398 294.91203 
z
" style="fill:#d95f0e;opacity:0.5;"/>
   </g>
   <g id="patch_67">
    <path clip-path="url(#pbd464544c5)" d="M 428.59985 299.078125 
L 432.076211 299.078125 
L 432.076211 296.995077 
L 428.59985 296.995077 
z
" style="fill:#d95f0e;opacity:0.5;"/>
   </g>
   <g id="patch_68">
    <path clip-path="url(#pbd464544c5)" d="M 244.670421 299.078125 
L 248.146782 299.078125 
L 248.146782 278.247649 
L 244.670421 278.247649 
z
" style="fill:#43a2ca;opacity:0.8;"/>
   </g>
   <g id="patch_69">
    <path clip-path="url(#pbd464544c5)" d="M 248.486349 299.078125 
L 251.96271 299.078125 
L 251.96271 278.247649 
L 248.486349 278.247649 
z
" style="fill:#43a2ca;opacity:0.8;"/>
   </g>
   <g id="patch_70">
    <path clip-path="url(#pbd464544c5)" d="M 252.302278 299.078125 
L 255.778639 299.078125 
L 255.778639 299.078125 
L 252.302278 299.078125 
z
" style="fill:#43a2ca;opacity:0.8;"/>
   </g>
   <g id="patch_71">
    <path clip-path="url(#pbd464544c5)" d="M 256.118206 299.078125 
L 259.594567 299.078125 
L 259.594567 299.078125 
L 256.118206 299.078125 
z
" style="fill:#43a2ca;opacity:0.8;"/>
   </g>
   <g id="patch_72">
    <path clip-path="url(#pbd464544c5)" d="M 259.934134 299.078125 
L 263.410496 299.078125 
L 263.410496 278.247649 
L 259.934134 278.247649 
z
" style="fill:#43a2ca;opacity:0.8;"/>
   </g>
   <g id="patch_73">
    <path clip-path="url(#pbd464544c5)" d="M 263.750063 299.078125 
L 267.226424 299.078125 
L 267.226424 299.078125 
L 263.750063 299.078125 
z
" style="fill:#43a2ca;opacity:0.8;"/>
   </g>
   <g id="patch_74">
    <path clip-path="url(#pbd464544c5)" d="M 267.565991 299.078125 
L 271.042352 299.078125 
L 271.042352 257.417173 
L 267.565991 257.417173 
z
" style="fill:#43a2ca;opacity:0.8;"/>
   </g>
   <g id="patch_75">
    <path clip-path="url(#pbd464544c5)" d="M 271.38192 299.078125 
L 274.858281 299.078125 
L 274.858281 278.247649 
L 271.38192 278.247649 
z
" style="fill:#43a2ca;opacity:0.8;"/>
   </g>
   <g id="patch_76">
    <path clip-path="url(#pbd464544c5)" d="M 275.197848 299.078125 
L 278.674209 299.078125 
L 278.674209 278.247649 
L 275.197848 278.247649 
z
" style="fill:#43a2ca;opacity:0.8;"/>
   </g>
   <g id="patch_77">
    <path clip-path="url(#pbd464544c5)" d="M 279.013776 299.078125 
L 282.490138 299.078125 
L 282.490138 278.247649 
L 279.013776 278.247649 
z
" style="fill:#43a2ca;opacity:0.8;"/>
   </g>
   <g id="patch_78">
    <path clip-path="url(#pbd464544c5)" d="M 282.829705 299.078125 
L 286.306066 299.078125 
L 286.306066 299.078125 
L 282.829705 299.078125 
z
" style="fill:#43a2ca;opacity:0.8;"/>
   </g>
   <g id="patch_79">
    <path clip-path="url(#pbd464544c5)" d="M 286.645633 299.078125 
L 290.121994 299.078125 
L 290.121994 278.247649 
L 286.645633 278.247649 
z
" style="fill:#43a2ca;opacity:0.8;"/>
   </g>
   <g id="patch_80">
    <path clip-path="url(#pbd464544c5)" d="M 290.461561 299.078125 
L 293.937923 299.078125 
L 293.937923 278.247649 
L 290.461561 278.247649 
z
" style="fill:#43a2ca;opacity:0.8;"/>
   </g>
   <g id="patch_81">
    <path clip-path="url(#pbd464544c5)" d="M 294.27749 299.078125 
L 297.753851 299.078125 
L 297.753851 299.078125 
L 294.27749 299.078125 
z
" style="fill:#43a2ca;opacity:0.8;"/>
   </g>
   <g id="patch_82">
    <path clip-path="url(#pbd464544c5)" d="M 298.093418 299.078125 
L 301.569779 299.078125 
L 301.569779 278.247649 
L 298.093418 278.247649 
z
" style="fill:#43a2ca;opacity:0.8;"/>
   </g>
   <g id="patch_83">
    <path clip-path="url(#pbd464544c5)" d="M 301.909347 299.078125 
L 305.385708 299.078125 
L 305.385708 278.247649 
L 301.909347 278.247649 
z
" style="fill:#43a2ca;opacity:0.8;"/>
   </g>
   <g id="patch_84">
    <path clip-path="url(#pbd464544c5)" d="M 305.725275 299.078125 
L 309.201636 299.078125 
L 309.201636 299.078125 
L 305.725275 299.078125 
z
" style="fill:#43a2ca;opacity:0.8;"/>
   </g>
   <g id="patch_85">
    <path clip-path="url(#pbd464544c5)" d="M 309.541203 299.078125 
L 313.017565 299.078125 
L 313.017565 257.417173 
L 309.541203 257.417173 
z
" style="fill:#43a2ca;opacity:0.8;"/>
   </g>
   <g id="patch_86">
    <path clip-path="url(#pbd464544c5)" d="M 313.357132 299.078125 
L 316.833493 299.078125 
L 316.833493 236.586696 
L 313.357132 236.586696 
z
" style="fill:#43a2ca;opacity:0.8;"/>
   </g>
   <g id="patch_87">
    <path clip-path="url(#pbd464544c5)" d="M 317.17306 299.078125 
L 320.649421 299.078125 
L 320.649421 257.417173 
L 317.17306 257.417173 
z
" style="fill:#43a2ca;opacity:0.8;"/>
   </g>
   <g id="patch_88">
    <path clip-path="url(#pbd464544c5)" d="M 320.988989 299.078125 
L 324.46535 299.078125 
L 324.46535 236.586696 
L 320.988989 236.586696 
z
" style="fill:#43a2ca;opacity:0.8;"/>
   </g>
   <g id="patch_89">
    <path clip-path="url(#pbd464544c5)" d="M 324.804917 299.078125 
L 328.281278 299.078125 
L 328.281278 278.247649 
L 324.804917 278.247649 
z
" style="fill:#43a2ca;opacity:0.8;"/>
   </g>
   <g id="patch_90">
    <path clip-path="url(#pbd464544c5)" d="M 328.620845 299.078125 
L 332.097206 299.078125 
L 332.097206 278.247649 
L 328.620845 278.247649 
z
" style="fill:#43a2ca;opacity:0.8;"/>
   </g>
   <g id="patch_91">
    <path clip-path="url(#pbd464544c5)" d="M 332.436774 299.078125 
L 335.913135 299.078125 
L 335.913135 257.417173 
L 332.436774 257.417173 
z
" style="fill:#43a2ca;opacity:0.8;"/>
   </g>
   <g id="patch_92">
    <path clip-path="url(#pbd464544c5)" d="M 336.252702 299.078125 
L 339.729063 299.078125 
L 339.729063 236.586696 
L 336.252702 236.586696 
z
" style="fill:#43a2ca;opacity:0.8;"/>
   </g>
   <g id="patch_93">
    <path clip-path="url(#pbd464544c5)" d="M 340.06863 299.078125 
L 343.544992 299.078125 
L 343.544992 257.417173 
L 340.06863 257.417173 
z
" style="fill:#43a2ca;opacity:0.8;"/>
   </g>
   <g id="patch_94">
    <path clip-path="url(#pbd464544c5)" d="M 343.884559 299.078125 
L 347.36092 299.078125 
L 347.36092 257.417173 
L 343.884559 257.417173 
z
" style="fill:#43a2ca;opacity:0.8;"/>
   </g>
   <g id="patch_95">
    <path clip-path="url(#pbd464544c5)" d="M 347.700487 299.078125 
L 351.176848 299.078125 
L 351.176848 215.75622 
L 347.700487 215.75622 
z
" style="fill:#43a2ca;opacity:0.8;"/>
   </g>
   <g id="patch_96">
    <path clip-path="url(#pbd464544c5)" d="M 351.516416 299.078125 
L 354.992777 299.078125 
L 354.992777 278.247649 
L 351.516416 278.247649 
z
" style="fill:#43a2ca;opacity:0.8;"/>
   </g>
   <g id="patch_97">
    <path clip-path="url(#pbd464544c5)" d="M 355.332344 299.078125 
L 358.808705 299.078125 
L 358.808705 236.586696 
L 355.332344 236.586696 
z
" style="fill:#43a2ca;opacity:0.8;"/>
   </g>
   <g id="patch_98">
    <path clip-path="url(#pbd464544c5)" d="M 359.148272 299.078125 
L 362.624634 299.078125 
L 362.624634 278.247649 
L 359.148272 278.247649 
z
" style="fill:#43a2ca;opacity:0.8;"/>
   </g>
   <g id="patch_99">
    <path clip-path="url(#pbd464544c5)" d="M 362.964201 299.078125 
L 366.440562 299.078125 
L 366.440562 278.247649 
L 362.964201 278.247649 
z
" style="fill:#43a2ca;opacity:0.8;"/>
   </g>
   <g id="patch_100">
    <path clip-path="url(#pbd464544c5)" d="M 366.780129 299.078125 
L 370.25649 299.078125 
L 370.25649 194.925744 
L 366.780129 194.925744 
z
" style="fill:#43a2ca;opacity:0.8;"/>
   </g>
   <g id="patch_101">
    <path clip-path="url(#pbd464544c5)" d="M 370.596057 299.078125 
L 374.072419 299.078125 
L 374.072419 236.586696 
L 370.596057 236.586696 
z
" style="fill:#43a2ca;opacity:0.8;"/>
   </g>
   <g id="patch_102">
    <path clip-path="url(#pbd464544c5)" d="M 374.411986 299.078125 
L 377.888347 299.078125 
L 377.888347 257.417173 
L 374.411986 257.417173 
z
" style="fill:#43a2ca;opacity:0.8;"/>
   </g>
   <g id="patch_103">
    <path clip-path="url(#pbd464544c5)" d="M 378.227914 299.078125 
L 381.704275 299.078125 
L 381.704275 278.247649 
L 378.227914 278.247649 
z
" style="fill:#43a2ca;opacity:0.8;"/>
   </g>
   <g id="patch_104">
    <path clip-path="url(#pbd464544c5)" d="M 382.043843 299.078125 
L 385.520204 299.078125 
L 385.520204 194.925744 
L 382.043843 194.925744 
z
" style="fill:#43a2ca;opacity:0.8;"/>
   </g>
   <g id="patch_105">
    <path clip-path="url(#pbd464544c5)" d="M 385.859771 299.078125 
L 389.336132 299.078125 
L 389.336132 257.417173 
L 385.859771 257.417173 
z
" style="fill:#43a2ca;opacity:0.8;"/>
   </g>
   <g id="patch_106">
    <path clip-path="url(#pbd464544c5)" d="M 389.675699 299.078125 
L 393.152061 299.078125 
L 393.152061 257.417173 
L 389.675699 257.417173 
z
" style="fill:#43a2ca;opacity:0.8;"/>
   </g>
   <g id="patch_107">
    <path clip-path="url(#pbd464544c5)" d="M 393.491628 299.078125 
L 396.967989 299.078125 
L 396.967989 257.417173 
L 393.491628 257.417173 
z
" style="fill:#43a2ca;opacity:0.8;"/>
   </g>
   <g id="patch_108">
    <path clip-path="url(#pbd464544c5)" d="M 397.307556 299.078125 
L 400.783917 299.078125 
L 400.783917 215.75622 
L 397.307556 215.75622 
z
" style="fill:#43a2ca;opacity:0.8;"/>
   </g>
   <g id="patch_109">
    <path clip-path="url(#pbd464544c5)" d="M 401.123485 299.078125 
L 404.599846 299.078125 
L 404.599846 299.078125 
L 401.123485 299.078125 
z
" style="fill:#43a2ca;opacity:0.8;"/>
   </g>
   <g id="patch_110">
    <path clip-path="url(#pbd464544c5)" d="M 404.939413 299.078125 
L 408.415774 299.078125 
L 408.415774 257.417173 
L 404.939413 257.417173 
z
" style="fill:#43a2ca;opacity:0.8;"/>
   </g>
   <g id="patch_111">
    <path clip-path="url(#pbd464544c5)" d="M 408.755341 299.078125 
L 412.231702 299.078125 
L 412.231702 257.417173 
L 408.755341 257.417173 
z
" style="fill:#43a2ca;opacity:0.8;"/>
   </g>
   <g id="patch_112">
    <path clip-path="url(#pbd464544c5)" d="M 412.57127 299.078125 
L 416.047631 299.078125 
L 416.047631 215.75622 
L 412.57127 215.75622 
z
" style="fill:#43a2ca;opacity:0.8;"/>
   </g>
   <g id="patch_113">
    <path clip-path="url(#pbd464544c5)" d="M 416.387198 299.078125 
L 419.863559 299.078125 
L 419.863559 278.247649 
L 416.387198 278.247649 
z
" style="fill:#43a2ca;opacity:0.8;"/>
   </g>
   <g id="patch_114">
    <path clip-path="url(#pbd464544c5)" d="M 420.203126 299.078125 
L 423.679488 299.078125 
L 423.679488 257.417173 
L 420.203126 257.417173 
z
" style="fill:#43a2ca;opacity:0.8;"/>
   </g>
   <g id="patch_115">
    <path clip-path="url(#pbd464544c5)" d="M 424.019055 299.078125 
L 427.495416 299.078125 
L 427.495416 236.586696 
L 424.019055 236.586696 
z
" style="fill:#43a2ca;opacity:0.8;"/>
   </g>
   <g id="patch_116">
    <path clip-path="url(#pbd464544c5)" d="M 427.834983 299.078125 
L 431.311344 299.078125 
L 431.311344 278.247649 
L 427.834983 278.247649 
z
" style="fill:#43a2ca;opacity:0.8;"/>
   </g>
   <g id="patch_117">
    <path clip-path="url(#pbd464544c5)" d="M 431.650912 299.078125 
L 435.127273 299.078125 
L 435.127273 257.417173 
L 431.650912 257.417173 
z
" style="fill:#43a2ca;opacity:0.8;"/>
   </g>
   <g id="matplotlib.axis_3">
    <g id="xtick_8">
     <g id="line2d_18">
      <g>
       <use style="stroke:#000000;stroke-width:0.8;" x="222.314244" xlink:href="#md89de4ba3e" y="299.078125"/>
      </g>
     </g>
     <g id="text_20">
      <!-- −0.4 -->
      <g transform="translate(210.172837 313.676562)scale(0.1 -0.1)">
       <defs>
        <path d="M 37.796875 64.3125 
L 12.890625 25.390625 
L 37.796875 25.390625 
z
M 35.203125 72.90625 
L 47.609375 72.90625 
L 47.609375 25.390625 
L 58.015625 25.390625 
L 58.015625 17.1875 
L 47.609375 17.1875 
L 47.609375 0 
L 37.796875 0 
L 37.796875 17.1875 
L 4.890625 17.1875 
L 4.890625 26.703125 
z
" id="DejaVuSans-52"/>
       </defs>
       <use xlink:href="#DejaVuSans-8722"/>
       <use x="83.789062" xlink:href="#DejaVuSans-48"/>
       <use x="147.412109" xlink:href="#DejaVuSans-46"/>
       <use x="179.199219" xlink:href="#DejaVuSans-52"/>
      </g>
     </g>
    </g>
    <g id="xtick_9">
     <g id="line2d_19">
      <g>
       <use style="stroke:#000000;stroke-width:0.8;" x="279.328861" xlink:href="#md89de4ba3e" y="299.078125"/>
      </g>
     </g>
     <g id="text_21">
      <!-- −0.2 -->
      <g transform="translate(267.187454 313.676562)scale(0.1 -0.1)">
       <use xlink:href="#DejaVuSans-8722"/>
       <use x="83.789062" xlink:href="#DejaVuSans-48"/>
       <use x="147.412109" xlink:href="#DejaVuSans-46"/>
       <use x="179.199219" xlink:href="#DejaVuSans-50"/>
      </g>
     </g>
    </g>
    <g id="xtick_10">
     <g id="line2d_20">
      <g>
       <use style="stroke:#000000;stroke-width:0.8;" x="336.343477" xlink:href="#md89de4ba3e" y="299.078125"/>
      </g>
     </g>
     <g id="text_22">
      <!-- 0.0 -->
      <g transform="translate(328.391915 313.676562)scale(0.1 -0.1)">
       <use xlink:href="#DejaVuSans-48"/>
       <use x="63.623047" xlink:href="#DejaVuSans-46"/>
       <use x="95.410156" xlink:href="#DejaVuSans-48"/>
      </g>
     </g>
    </g>
    <g id="xtick_11">
     <g id="line2d_21">
      <g>
       <use style="stroke:#000000;stroke-width:0.8;" x="393.358094" xlink:href="#md89de4ba3e" y="299.078125"/>
      </g>
     </g>
     <g id="text_23">
      <!-- 0.2 -->
      <g transform="translate(385.406532 313.676562)scale(0.1 -0.1)">
       <use xlink:href="#DejaVuSans-48"/>
       <use x="63.623047" xlink:href="#DejaVuSans-46"/>
       <use x="95.410156" xlink:href="#DejaVuSans-50"/>
      </g>
     </g>
    </g>
    <g id="text_24">
     <!-- Rho value -->
     <g transform="translate(300.450781 327.354687)scale(0.1 -0.1)">
      <defs>
       <path d="M 44.390625 34.1875 
Q 47.5625 33.109375 50.5625 29.59375 
Q 53.5625 26.078125 56.59375 19.921875 
L 66.609375 0 
L 56 0 
L 46.6875 18.703125 
Q 43.0625 26.03125 39.671875 28.421875 
Q 36.28125 30.8125 30.421875 30.8125 
L 19.671875 30.8125 
L 19.671875 0 
L 9.8125 0 
L 9.8125 72.90625 
L 32.078125 72.90625 
Q 44.578125 72.90625 50.734375 67.671875 
Q 56.890625 62.453125 56.890625 51.90625 
Q 56.890625 45.015625 53.6875 40.46875 
Q 50.484375 35.9375 44.390625 34.1875 
z
M 19.671875 64.796875 
L 19.671875 38.921875 
L 32.078125 38.921875 
Q 39.203125 38.921875 42.84375 42.21875 
Q 46.484375 45.515625 46.484375 51.90625 
Q 46.484375 58.296875 42.84375 61.546875 
Q 39.203125 64.796875 32.078125 64.796875 
z
" id="DejaVuSans-82"/>
      </defs>
      <use xlink:href="#DejaVuSans-82"/>
      <use x="69.482422" xlink:href="#DejaVuSans-104"/>
      <use x="132.861328" xlink:href="#DejaVuSans-111"/>
      <use x="194.042969" xlink:href="#DejaVuSans-32"/>
      <use x="225.830078" xlink:href="#DejaVuSans-118"/>
      <use x="285.009766" xlink:href="#DejaVuSans-97"/>
      <use x="346.289062" xlink:href="#DejaVuSans-108"/>
      <use x="374.072266" xlink:href="#DejaVuSans-117"/>
      <use x="437.451172" xlink:href="#DejaVuSans-101"/>
     </g>
    </g>
   </g>
   <g id="matplotlib.axis_4">
    <g id="ytick_11">
     <g id="line2d_22">
      <g>
       <use style="stroke:#000000;stroke-width:0.8;" x="204.7" xlink:href="#ma4b05b383c" y="299.078125"/>
      </g>
     </g>
     <g id="text_25">
      <!-- 0 -->
      <g transform="translate(191.3375 302.877344)scale(0.1 -0.1)">
       <use xlink:href="#DejaVuSans-48"/>
      </g>
     </g>
    </g>
    <g id="ytick_12">
     <g id="line2d_23">
      <g>
       <use style="stroke:#000000;stroke-width:0.8;" x="204.7" xlink:href="#ma4b05b383c" y="257.417173"/>
      </g>
     </g>
     <g id="text_26">
      <!-- 2 -->
      <g transform="translate(191.3375 261.216391)scale(0.1 -0.1)">
       <use xlink:href="#DejaVuSans-50"/>
      </g>
     </g>
    </g>
    <g id="ytick_13">
     <g id="line2d_24">
      <g>
       <use style="stroke:#000000;stroke-width:0.8;" x="204.7" xlink:href="#ma4b05b383c" y="215.75622"/>
      </g>
     </g>
     <g id="text_27">
      <!-- 4 -->
      <g transform="translate(191.3375 219.555439)scale(0.1 -0.1)">
       <use xlink:href="#DejaVuSans-52"/>
      </g>
     </g>
    </g>
    <g id="text_28">
     <!-- Number of bacteria -->
     <g transform="translate(185.257812 293.014531)rotate(-90)scale(0.1 -0.1)">
      <defs>
       <path d="M 9.8125 72.90625 
L 23.09375 72.90625 
L 55.421875 11.921875 
L 55.421875 72.90625 
L 64.984375 72.90625 
L 64.984375 0 
L 51.703125 0 
L 19.390625 60.984375 
L 19.390625 0 
L 9.8125 0 
z
" id="DejaVuSans-78"/>
      </defs>
      <use xlink:href="#DejaVuSans-78"/>
      <use x="74.804688" xlink:href="#DejaVuSans-117"/>
      <use x="138.183594" xlink:href="#DejaVuSans-109"/>
      <use x="235.595703" xlink:href="#DejaVuSans-98"/>
      <use x="299.072266" xlink:href="#DejaVuSans-101"/>
      <use x="360.595703" xlink:href="#DejaVuSans-114"/>
      <use x="401.708984" xlink:href="#DejaVuSans-32"/>
      <use x="433.496094" xlink:href="#DejaVuSans-111"/>
      <use x="494.677734" xlink:href="#DejaVuSans-102"/>
      <use x="529.882812" xlink:href="#DejaVuSans-32"/>
      <use x="561.669922" xlink:href="#DejaVuSans-98"/>
      <use x="625.146484" xlink:href="#DejaVuSans-97"/>
      <use x="686.425781" xlink:href="#DejaVuSans-99"/>
      <use x="741.40625" xlink:href="#DejaVuSans-116"/>
      <use x="780.615234" xlink:href="#DejaVuSans-101"/>
      <use x="842.138672" xlink:href="#DejaVuSans-114"/>
      <use x="883.251953" xlink:href="#DejaVuSans-105"/>
      <use x="911.035156" xlink:href="#DejaVuSans-97"/>
     </g>
    </g>
   </g>
   <g id="patch_118">
    <path d="M 204.7 299.078125 
L 204.7 189.718125 
" style="fill:none;stroke:#000000;stroke-linecap:square;stroke-linejoin:miter;stroke-width:0.8;"/>
   </g>
   <g id="patch_119">
    <path d="M 446.1 299.078125 
L 446.1 189.718125 
" style="fill:none;stroke:#000000;stroke-linecap:square;stroke-linejoin:miter;stroke-width:0.8;"/>
   </g>
   <g id="patch_120">
    <path d="M 204.7 299.078125 
L 446.1 299.078125 
" style="fill:none;stroke:#000000;stroke-linecap:square;stroke-linejoin:miter;stroke-width:0.8;"/>
   </g>
   <g id="patch_121">
    <path d="M 204.7 189.718125 
L 446.1 189.718125 
" style="fill:none;stroke:#000000;stroke-linecap:square;stroke-linejoin:miter;stroke-width:0.8;"/>
   </g>
   <g id="text_29">
    <!-- Real tags vs. Mixed tags at fibromyalgia sample group -->
    <g transform="translate(162.240312 183.718125)scale(0.12 -0.12)">
     <defs>
      <path d="M 9.8125 72.90625 
L 24.515625 72.90625 
L 43.109375 23.296875 
L 61.8125 72.90625 
L 76.515625 72.90625 
L 76.515625 0 
L 66.890625 0 
L 66.890625 64.015625 
L 48.09375 14.015625 
L 38.1875 14.015625 
L 19.390625 64.015625 
L 19.390625 0 
L 9.8125 0 
z
" id="DejaVuSans-77"/>
      <path d="M 54.890625 54.6875 
L 35.109375 28.078125 
L 55.90625 0 
L 45.3125 0 
L 29.390625 21.484375 
L 13.484375 0 
L 2.875 0 
L 24.125 28.609375 
L 4.6875 54.6875 
L 15.28125 54.6875 
L 29.78125 35.203125 
L 44.28125 54.6875 
z
" id="DejaVuSans-120"/>
     </defs>
     <use xlink:href="#DejaVuSans-82"/>
     <use x="64.982422" xlink:href="#DejaVuSans-101"/>
     <use x="126.505859" xlink:href="#DejaVuSans-97"/>
     <use x="187.785156" xlink:href="#DejaVuSans-108"/>
     <use x="215.568359" xlink:href="#DejaVuSans-32"/>
     <use x="247.355469" xlink:href="#DejaVuSans-116"/>
     <use x="286.564453" xlink:href="#DejaVuSans-97"/>
     <use x="347.84375" xlink:href="#DejaVuSans-103"/>
     <use x="411.320312" xlink:href="#DejaVuSans-115"/>
     <use x="463.419922" xlink:href="#DejaVuSans-32"/>
     <use x="495.207031" xlink:href="#DejaVuSans-118"/>
     <use x="554.386719" xlink:href="#DejaVuSans-115"/>
     <use x="606.486328" xlink:href="#DejaVuSans-46"/>
     <use x="638.273438" xlink:href="#DejaVuSans-32"/>
     <use x="670.060547" xlink:href="#DejaVuSans-77"/>
     <use x="756.339844" xlink:href="#DejaVuSans-105"/>
     <use x="784.123047" xlink:href="#DejaVuSans-120"/>
     <use x="840.177734" xlink:href="#DejaVuSans-101"/>
     <use x="901.701172" xlink:href="#DejaVuSans-100"/>
     <use x="965.177734" xlink:href="#DejaVuSans-32"/>
     <use x="996.964844" xlink:href="#DejaVuSans-116"/>
     <use x="1036.173828" xlink:href="#DejaVuSans-97"/>
     <use x="1097.453125" xlink:href="#DejaVuSans-103"/>
     <use x="1160.929688" xlink:href="#DejaVuSans-115"/>
     <use x="1213.029297" xlink:href="#DejaVuSans-32"/>
     <use x="1244.816406" xlink:href="#DejaVuSans-97"/>
     <use x="1306.095703" xlink:href="#DejaVuSans-116"/>
     <use x="1345.304688" xlink:href="#DejaVuSans-32"/>
     <use x="1377.091797" xlink:href="#DejaVuSans-102"/>
     <use x="1412.296875" xlink:href="#DejaVuSans-105"/>
     <use x="1440.080078" xlink:href="#DejaVuSans-98"/>
     <use x="1503.556641" xlink:href="#DejaVuSans-114"/>
     <use x="1542.419922" xlink:href="#DejaVuSans-111"/>
     <use x="1603.601562" xlink:href="#DejaVuSans-109"/>
     <use x="1701.013672" xlink:href="#DejaVuSans-121"/>
     <use x="1760.193359" xlink:href="#DejaVuSans-97"/>
     <use x="1821.472656" xlink:href="#DejaVuSans-108"/>
     <use x="1849.255859" xlink:href="#DejaVuSans-103"/>
     <use x="1912.732422" xlink:href="#DejaVuSans-105"/>
     <use x="1940.515625" xlink:href="#DejaVuSans-97"/>
     <use x="2001.794922" xlink:href="#DejaVuSans-32"/>
     <use x="2033.582031" xlink:href="#DejaVuSans-115"/>
     <use x="2085.681641" xlink:href="#DejaVuSans-97"/>
     <use x="2146.960938" xlink:href="#DejaVuSans-109"/>
     <use x="2244.373047" xlink:href="#DejaVuSans-112"/>
     <use x="2307.849609" xlink:href="#DejaVuSans-108"/>
     <use x="2335.632812" xlink:href="#DejaVuSans-101"/>
     <use x="2397.15625" xlink:href="#DejaVuSans-32"/>
     <use x="2428.943359" xlink:href="#DejaVuSans-103"/>
     <use x="2492.419922" xlink:href="#DejaVuSans-114"/>
     <use x="2531.283203" xlink:href="#DejaVuSans-111"/>
     <use x="2592.464844" xlink:href="#DejaVuSans-117"/>
     <use x="2655.84375" xlink:href="#DejaVuSans-112"/>
    </g>
   </g>
   <g id="legend_1">
    <g id="patch_122">
     <path d="M 211.7 227.074375 
L 297.998438 227.074375 
Q 299.998438 227.074375 299.998438 225.074375 
L 299.998438 196.718125 
Q 299.998438 194.718125 297.998438 194.718125 
L 211.7 194.718125 
Q 209.7 194.718125 209.7 196.718125 
L 209.7 225.074375 
Q 209.7 227.074375 211.7 227.074375 
z
" style="fill:#ffffff;opacity:0.8;stroke:#cccccc;stroke-linejoin:miter;"/>
    </g>
    <g id="patch_123">
     <path d="M 213.7 206.316562 
L 233.7 206.316562 
L 233.7 199.316562 
L 213.7 199.316562 
z
" style="fill:#d95f0e;opacity:0.5;"/>
    </g>
    <g id="text_30">
     <!-- Mixed tags -->
     <g transform="translate(241.7 206.316562)scale(0.1 -0.1)">
      <use xlink:href="#DejaVuSans-77"/>
      <use x="86.279297" xlink:href="#DejaVuSans-105"/>
      <use x="114.0625" xlink:href="#DejaVuSans-120"/>
      <use x="170.117188" xlink:href="#DejaVuSans-101"/>
      <use x="231.640625" xlink:href="#DejaVuSans-100"/>
      <use x="295.117188" xlink:href="#DejaVuSans-32"/>
      <use x="326.904297" xlink:href="#DejaVuSans-116"/>
      <use x="366.113281" xlink:href="#DejaVuSans-97"/>
      <use x="427.392578" xlink:href="#DejaVuSans-103"/>
      <use x="490.869141" xlink:href="#DejaVuSans-115"/>
     </g>
    </g>
    <g id="patch_124">
     <path d="M 213.7 220.994687 
L 233.7 220.994687 
L 233.7 213.994687 
L 213.7 213.994687 
z
" style="fill:#43a2ca;opacity:0.8;"/>
    </g>
    <g id="text_31">
     <!-- Real tags -->
     <g transform="translate(241.7 220.994687)scale(0.1 -0.1)">
      <use xlink:href="#DejaVuSans-82"/>
      <use x="64.982422" xlink:href="#DejaVuSans-101"/>
      <use x="126.505859" xlink:href="#DejaVuSans-97"/>
      <use x="187.785156" xlink:href="#DejaVuSans-108"/>
      <use x="215.568359" xlink:href="#DejaVuSans-32"/>
      <use x="247.355469" xlink:href="#DejaVuSans-116"/>
      <use x="286.564453" xlink:href="#DejaVuSans-97"/>
      <use x="347.84375" xlink:href="#DejaVuSans-103"/>
      <use x="411.320312" xlink:href="#DejaVuSans-115"/>
     </g>
    </g>
   </g>
  </g>
 </g>
 <defs>
  <clipPath id="p276c3d36f1">
   <rect height="109.36" width="241.4" x="204.7" y="22.318125"/>
  </clipPath>
  <clipPath id="pbd464544c5">
   <rect height="109.36" width="241.4" x="204.7" y="189.718125"/>
  </clipPath>
 </defs>
</svg>
