<?xml version="1.0" encoding="utf-8" standalone="no"?>
<!DOCTYPE svg PUBLIC "-//W3C//DTD SVG 1.1//EN"
  "http://www.w3.org/Graphics/SVG/1.1/DTD/svg11.dtd">
<!-- Created with matplotlib (https://matplotlib.org/) -->
<svg height="345.6pt" version="1.1" viewBox="0 0 460.8 345.6" width="460.8pt" xmlns="http://www.w3.org/2000/svg" xmlns:xlink="http://www.w3.org/1999/xlink">
 <defs>
  <style type="text/css">
*{stroke-linecap:butt;stroke-linejoin:round;}
  </style>
 </defs>
 <g id="figure_1">
  <g id="patch_1">
   <path d="M 0 345.6 
L 460.8 345.6 
L 460.8 0 
L 0 0 
z
" style="fill:#ffffff;"/>
  </g>
  <g id="axes_1">
   <g id="patch_2">
    <path d="M 57.6 307.584 
L 414.72 307.584 
L 414.72 41.472 
L 57.6 41.472 
z
" style="fill:#ffffff;"/>
   </g>
   <g id="PathCollection_1">
    <defs>
     <path d="M 0 3 
C 0.795609 3 1.55874 2.683901 2.12132 2.12132 
C 2.683901 1.55874 3 0.795609 3 0 
C 3 -0.795609 2.683901 -1.55874 2.12132 -2.12132 
C 1.55874 -2.683901 0.795609 -3 0 -3 
C -0.795609 -3 -1.55874 -2.683901 -2.12132 -2.12132 
C -2.683901 -1.55874 -3 -0.795609 -3 0 
C -3 0.795609 -2.683901 1.55874 -2.12132 2.12132 
C -1.55874 2.683901 -0.795609 3 0 3 
z
" id="me82e4b0f2c" style="stroke:#1f77b4;stroke-opacity:0.8;"/>
    </defs>
    <g clip-path="url(#p79b8553728)">
     <use style="fill:#1f77b4;fill-opacity:0.8;stroke:#1f77b4;stroke-opacity:0.8;" x="326.424037" xlink:href="#me82e4b0f2c" y="179.546422"/>
     <use style="fill:#1f77b4;fill-opacity:0.8;stroke:#1f77b4;stroke-opacity:0.8;" x="332.503165" xlink:href="#me82e4b0f2c" y="145.231266"/>
     <use style="fill:#1f77b4;fill-opacity:0.8;stroke:#1f77b4;stroke-opacity:0.8;" x="277.791009" xlink:href="#me82e4b0f2c" y="64.665248"/>
     <use style="fill:#1f77b4;fill-opacity:0.8;stroke:#1f77b4;stroke-opacity:0.8;" x="223.078853" xlink:href="#me82e4b0f2c" y="197.992514"/>
     <use style="fill:#1f77b4;fill-opacity:0.8;stroke:#1f77b4;stroke-opacity:0.8;" x="265.632752" xlink:href="#me82e4b0f2c" y="161.371596"/>
     <use style="fill:#1f77b4;fill-opacity:0.8;stroke:#1f77b4;stroke-opacity:0.8;" x="204.841468" xlink:href="#me82e4b0f2c" y="266.622826"/>
     <use style="fill:#1f77b4;fill-opacity:0.8;stroke:#1f77b4;stroke-opacity:0.8;" x="247.395367" xlink:href="#me82e4b0f2c" y="69.141138"/>
     <use style="fill:#1f77b4;fill-opacity:0.8;stroke:#1f77b4;stroke-opacity:0.8;" x="320.344908" xlink:href="#me82e4b0f2c" y="64.393982"/>
     <use style="fill:#1f77b4;fill-opacity:0.8;stroke:#1f77b4;stroke-opacity:0.8;" x="271.711881" xlink:href="#me82e4b0f2c" y="162.999193"/>
     <use style="fill:#1f77b4;fill-opacity:0.8;stroke:#1f77b4;stroke-opacity:0.8;" x="356.819679" xlink:href="#me82e4b0f2c" y="132.346128"/>
     <use style="fill:#1f77b4;fill-opacity:0.8;stroke:#1f77b4;stroke-opacity:0.8;" x="210.920596" xlink:href="#me82e4b0f2c" y="207.622459"/>
     <use style="fill:#1f77b4;fill-opacity:0.8;stroke:#1f77b4;stroke-opacity:0.8;" x="162.287569" xlink:href="#me82e4b0f2c" y="269.606752"/>
     <use style="fill:#1f77b4;fill-opacity:0.8;stroke:#1f77b4;stroke-opacity:0.8;" x="283.870138" xlink:href="#me82e4b0f2c" y="184.293578"/>
     <use style="fill:#1f77b4;fill-opacity:0.8;stroke:#1f77b4;stroke-opacity:0.8;" x="186.604083" xlink:href="#me82e4b0f2c" y="83.382606"/>
     <use style="fill:#1f77b4;fill-opacity:0.8;stroke:#1f77b4;stroke-opacity:0.8;" x="198.762339" xlink:href="#me82e4b0f2c" y="223.35589"/>
     <use style="fill:#1f77b4;fill-opacity:0.8;stroke:#1f77b4;stroke-opacity:0.8;" x="186.604083" xlink:href="#me82e4b0f2c" y="223.35589"/>
     <use style="fill:#1f77b4;fill-opacity:0.8;stroke:#1f77b4;stroke-opacity:0.8;" x="314.26578" xlink:href="#me82e4b0f2c" y="70.361835"/>
     <use style="fill:#1f77b4;fill-opacity:0.8;stroke:#1f77b4;stroke-opacity:0.8;" x="216.999725" xlink:href="#me82e4b0f2c" y="186.870606"/>
     <use style="fill:#1f77b4;fill-opacity:0.8;stroke:#1f77b4;stroke-opacity:0.8;" x="229.157982" xlink:href="#me82e4b0f2c" y="141.704807"/>
     <use style="fill:#1f77b4;fill-opacity:0.8;stroke:#1f77b4;stroke-opacity:0.8;" x="289.949266" xlink:href="#me82e4b0f2c" y="184.293578"/>
     <use style="fill:#1f77b4;fill-opacity:0.8;stroke:#1f77b4;stroke-opacity:0.8;" x="174.445826" xlink:href="#me82e4b0f2c" y="172.493505"/>
     <use style="fill:#1f77b4;fill-opacity:0.8;stroke:#1f77b4;stroke-opacity:0.8;" x="204.841468" xlink:href="#me82e4b0f2c" y="207.622459"/>
     <use style="fill:#1f77b4;fill-opacity:0.8;stroke:#1f77b4;stroke-opacity:0.8;" x="216.999725" xlink:href="#me82e4b0f2c" y="174.663633"/>
     <use style="fill:#1f77b4;fill-opacity:0.8;stroke:#1f77b4;stroke-opacity:0.8;" x="253.474495" xlink:href="#me82e4b0f2c" y="159.065835"/>
     <use style="fill:#1f77b4;fill-opacity:0.8;stroke:#1f77b4;stroke-opacity:0.8;" x="198.762339" xlink:href="#me82e4b0f2c" y="223.35589"/>
     <use style="fill:#1f77b4;fill-opacity:0.8;stroke:#1f77b4;stroke-opacity:0.8;" x="375.057064" xlink:href="#me82e4b0f2c" y="138.178349"/>
     <use style="fill:#1f77b4;fill-opacity:0.8;stroke:#1f77b4;stroke-opacity:0.8;" x="253.474495" xlink:href="#me82e4b0f2c" y="197.585615"/>
     <use style="fill:#1f77b4;fill-opacity:0.8;stroke:#1f77b4;stroke-opacity:0.8;" x="192.683211" xlink:href="#me82e4b0f2c" y="219.151266"/>
     <use style="fill:#1f77b4;fill-opacity:0.8;stroke:#1f77b4;stroke-opacity:0.8;" x="283.870138" xlink:href="#me82e4b0f2c" y="115.527633"/>
     <use style="fill:#1f77b4;fill-opacity:0.8;stroke:#1f77b4;stroke-opacity:0.8;" x="289.949266" xlink:href="#me82e4b0f2c" y="48.524917"/>
     <use style="fill:#1f77b4;fill-opacity:0.8;stroke:#1f77b4;stroke-opacity:0.8;" x="271.711881" xlink:href="#me82e4b0f2c" y="250.753761"/>
     <use style="fill:#1f77b4;fill-opacity:0.8;stroke:#1f77b4;stroke-opacity:0.8;" x="168.366697" xlink:href="#me82e4b0f2c" y="207.351193"/>
     <use style="fill:#1f77b4;fill-opacity:0.8;stroke:#1f77b4;stroke-opacity:0.8;" x="198.762339" xlink:href="#me82e4b0f2c" y="206.944294"/>
    </g>
   </g>
   <g id="PolyCollection_1">
    <path clip-path="url(#p79b8553728)" d="M 57.6 220.407486 
L 57.6 337.304916 
L 61.207273 333.939484 
L 64.814545 330.743675 
L 68.421818 327.252472 
L 72.029091 324.189615 
L 75.636364 320.760096 
L 79.243636 317.326986 
L 82.850909 313.972725 
L 86.458182 310.863155 
L 90.065455 307.73845 
L 93.672727 304.283029 
L 97.28 300.862802 
L 100.887273 297.895164 
L 104.494545 294.927527 
L 108.101818 291.959889 
L 111.709091 288.992251 
L 115.316364 285.971485 
L 118.923636 282.866587 
L 122.530909 279.756306 
L 126.138182 276.250306 
L 129.745455 272.621233 
L 133.352727 268.99216 
L 136.96 265.363086 
L 140.567273 261.94612 
L 144.174545 259.672664 
L 147.781818 257.389223 
L 151.389091 254.037646 
L 154.996364 250.473348 
L 158.603636 247.302479 
L 162.210909 243.780497 
L 165.818182 240.786765 
L 169.425455 237.861992 
L 173.032727 234.897083 
L 176.64 232.048213 
L 180.247273 229.205966 
L 183.854545 226.342302 
L 187.461818 223.745627 
L 191.069091 220.693302 
L 194.676364 217.787529 
L 198.283636 214.983436 
L 201.890909 212.286533 
L 205.498182 210.171482 
L 209.105455 207.872438 
L 212.712727 205.233081 
L 216.32 202.845583 
L 219.927273 200.525509 
L 223.534545 198.295033 
L 227.141818 196.307172 
L 230.749091 193.958144 
L 234.356364 191.895427 
L 237.963636 189.424129 
L 241.570909 187.475135 
L 245.178182 185.238284 
L 248.785455 183.380838 
L 252.392727 181.771173 
L 256 180.000637 
L 259.607273 178.172671 
L 263.214545 176.73475 
L 266.821818 175.213925 
L 270.429091 173.392671 
L 274.036364 172.132073 
L 277.643636 170.550788 
L 281.250909 169.006495 
L 284.858182 167.510229 
L 288.465455 165.89825 
L 292.072727 164.626975 
L 295.68 163.148986 
L 299.287273 161.422192 
L 302.894545 159.869208 
L 306.501818 158.427303 
L 310.109091 156.986456 
L 313.716364 155.861394 
L 317.323636 154.400678 
L 320.930909 152.792843 
L 324.538182 151.24784 
L 328.145455 149.810946 
L 331.752727 148.439768 
L 335.36 146.937157 
L 338.967273 145.639897 
L 342.574545 144.115101 
L 346.181818 142.9402 
L 349.789091 142.001193 
L 353.396364 140.841055 
L 357.003636 139.417672 
L 360.610909 138.070957 
L 364.218182 136.997621 
L 367.825455 136.026412 
L 371.432727 135.086968 
L 375.04 134.147249 
L 378.647273 132.919186 
L 382.254545 131.63094 
L 385.861818 130.557604 
L 389.469091 129.484268 
L 393.076364 128.410932 
L 396.683636 127.273129 
L 400.290909 126.277526 
L 403.898182 125.212762 
L 407.505455 124.140349 
L 411.112727 123.067936 
L 414.72 121.995522 
L 414.72 6.985911 
L 414.72 6.985911 
L 411.112727 10.111616 
L 407.505455 13.237721 
L 403.898182 16.364548 
L 400.290909 19.493762 
L 396.683636 22.622977 
L 393.076364 25.754332 
L 389.469091 28.887192 
L 385.861818 32.471289 
L 382.254545 35.628284 
L 378.647273 39.101219 
L 375.04 42.771158 
L 371.432727 46.072604 
L 367.825455 49.763966 
L 364.218182 53.460241 
L 360.610909 57.156516 
L 357.003636 60.566169 
L 353.396364 63.820784 
L 349.789091 67.075399 
L 346.181818 70.452161 
L 342.574545 73.660526 
L 338.967273 76.835692 
L 335.36 80.071053 
L 331.752727 83.20197 
L 328.145455 86.313067 
L 324.538182 89.525582 
L 320.930909 92.696846 
L 317.323636 95.868111 
L 313.716364 99.040059 
L 310.109091 102.059604 
L 306.501818 105.317934 
L 302.894545 108.336737 
L 299.287273 111.355539 
L 295.68 114.374341 
L 292.072727 117.050793 
L 288.465455 119.977405 
L 284.858182 123.377006 
L 281.250909 126.42927 
L 277.643636 129.251744 
L 274.036364 132.016265 
L 270.429091 134.957254 
L 266.821818 138.085305 
L 263.214545 139.866307 
L 259.607273 142.261924 
L 256 144.871937 
L 252.392727 147.116782 
L 248.785455 149.297592 
L 245.178182 151.389877 
L 241.570909 153.46822 
L 237.963636 154.898307 
L 234.356364 156.668119 
L 230.749091 158.966605 
L 227.141818 161.245009 
L 223.534545 163.08429 
L 219.927273 164.854497 
L 216.32 166.630004 
L 212.712727 168.270602 
L 209.105455 169.585255 
L 205.498182 171.161569 
L 201.890909 172.794973 
L 198.283636 174.175898 
L 194.676364 175.55884 
L 191.069091 176.951007 
L 187.461818 178.396071 
L 183.854545 179.687495 
L 180.247273 180.854989 
L 176.64 182.215424 
L 173.032727 183.325171 
L 169.425455 184.091034 
L 165.818182 185.586852 
L 162.210909 187.114782 
L 158.603636 188.64456 
L 154.996364 189.893855 
L 151.389091 191.026419 
L 147.781818 192.212218 
L 144.174545 193.344208 
L 140.567273 194.800561 
L 136.96 195.738795 
L 133.352727 196.732589 
L 129.745455 198.138171 
L 126.138182 199.199488 
L 122.530909 200.712865 
L 118.923636 201.94704 
L 115.316364 202.88879 
L 111.709091 203.830649 
L 108.101818 204.772508 
L 104.494545 205.771641 
L 100.887273 206.896706 
L 97.28 208.024879 
L 93.672727 209.160943 
L 90.065455 210.620985 
L 86.458182 211.906764 
L 82.850909 212.550591 
L 79.243636 213.672258 
L 75.636364 214.801734 
L 72.029091 215.93121 
L 68.421818 217.060685 
L 64.814545 218.190161 
L 61.207273 219.319637 
L 57.6 220.407486 
z
" style="fill:#1f77b4;fill-opacity:0.15;"/>
   </g>
   <g id="matplotlib.axis_1">
    <g id="xtick_1">
     <g id="line2d_1">
      <defs>
       <path d="M 0 0 
L 0 3.5 
" id="m6b61cf88a6" style="stroke:#000000;stroke-width:0.8;"/>
      </defs>
      <g>
       <use style="stroke:#000000;stroke-width:0.8;" x="117.302018" xlink:href="#m6b61cf88a6" y="307.584"/>
      </g>
     </g>
     <g id="text_1">
      <!-- 0.60 -->
      <defs>
       <path d="M 31.78125 66.40625 
Q 24.171875 66.40625 20.328125 58.90625 
Q 16.5 51.421875 16.5 36.375 
Q 16.5 21.390625 20.328125 13.890625 
Q 24.171875 6.390625 31.78125 6.390625 
Q 39.453125 6.390625 43.28125 13.890625 
Q 47.125 21.390625 47.125 36.375 
Q 47.125 51.421875 43.28125 58.90625 
Q 39.453125 66.40625 31.78125 66.40625 
z
M 31.78125 74.21875 
Q 44.046875 74.21875 50.515625 64.515625 
Q 56.984375 54.828125 56.984375 36.375 
Q 56.984375 17.96875 50.515625 8.265625 
Q 44.046875 -1.421875 31.78125 -1.421875 
Q 19.53125 -1.421875 13.0625 8.265625 
Q 6.59375 17.96875 6.59375 36.375 
Q 6.59375 54.828125 13.0625 64.515625 
Q 19.53125 74.21875 31.78125 74.21875 
z
" id="DejaVuSans-48"/>
       <path d="M 10.6875 12.40625 
L 21 12.40625 
L 21 0 
L 10.6875 0 
z
" id="DejaVuSans-46"/>
       <path d="M 33.015625 40.375 
Q 26.375 40.375 22.484375 35.828125 
Q 18.609375 31.296875 18.609375 23.390625 
Q 18.609375 15.53125 22.484375 10.953125 
Q 26.375 6.390625 33.015625 6.390625 
Q 39.65625 6.390625 43.53125 10.953125 
Q 47.40625 15.53125 47.40625 23.390625 
Q 47.40625 31.296875 43.53125 35.828125 
Q 39.65625 40.375 33.015625 40.375 
z
M 52.59375 71.296875 
L 52.59375 62.3125 
Q 48.875 64.0625 45.09375 64.984375 
Q 41.3125 65.921875 37.59375 65.921875 
Q 27.828125 65.921875 22.671875 59.328125 
Q 17.53125 52.734375 16.796875 39.40625 
Q 19.671875 43.65625 24.015625 45.921875 
Q 28.375 48.1875 33.59375 48.1875 
Q 44.578125 48.1875 50.953125 41.515625 
Q 57.328125 34.859375 57.328125 23.390625 
Q 57.328125 12.15625 50.6875 5.359375 
Q 44.046875 -1.421875 33.015625 -1.421875 
Q 20.359375 -1.421875 13.671875 8.265625 
Q 6.984375 17.96875 6.984375 36.375 
Q 6.984375 53.65625 15.1875 63.9375 
Q 23.390625 74.21875 37.203125 74.21875 
Q 40.921875 74.21875 44.703125 73.484375 
Q 48.484375 72.75 52.59375 71.296875 
z
" id="DejaVuSans-54"/>
      </defs>
      <g transform="translate(106.169206 322.182437)scale(0.1 -0.1)">
       <use xlink:href="#DejaVuSans-48"/>
       <use x="63.623047" xlink:href="#DejaVuSans-46"/>
       <use x="95.410156" xlink:href="#DejaVuSans-54"/>
       <use x="159.033203" xlink:href="#DejaVuSans-48"/>
      </g>
     </g>
    </g>
    <g id="xtick_2">
     <g id="line2d_2">
      <g>
       <use style="stroke:#000000;stroke-width:0.8;" x="195.114862" xlink:href="#m6b61cf88a6" y="307.584"/>
      </g>
     </g>
     <g id="text_2">
      <!-- 0.65 -->
      <defs>
       <path d="M 10.796875 72.90625 
L 49.515625 72.90625 
L 49.515625 64.59375 
L 19.828125 64.59375 
L 19.828125 46.734375 
Q 21.96875 47.46875 24.109375 47.828125 
Q 26.265625 48.1875 28.421875 48.1875 
Q 40.625 48.1875 47.75 41.5 
Q 54.890625 34.8125 54.890625 23.390625 
Q 54.890625 11.625 47.5625 5.09375 
Q 40.234375 -1.421875 26.90625 -1.421875 
Q 22.3125 -1.421875 17.546875 -0.640625 
Q 12.796875 0.140625 7.71875 1.703125 
L 7.71875 11.625 
Q 12.109375 9.234375 16.796875 8.0625 
Q 21.484375 6.890625 26.703125 6.890625 
Q 35.15625 6.890625 40.078125 11.328125 
Q 45.015625 15.765625 45.015625 23.390625 
Q 45.015625 31 40.078125 35.4375 
Q 35.15625 39.890625 26.703125 39.890625 
Q 22.75 39.890625 18.8125 39.015625 
Q 14.890625 38.140625 10.796875 36.28125 
z
" id="DejaVuSans-53"/>
      </defs>
      <g transform="translate(183.98205 322.182437)scale(0.1 -0.1)">
       <use xlink:href="#DejaVuSans-48"/>
       <use x="63.623047" xlink:href="#DejaVuSans-46"/>
       <use x="95.410156" xlink:href="#DejaVuSans-54"/>
       <use x="159.033203" xlink:href="#DejaVuSans-53"/>
      </g>
     </g>
    </g>
    <g id="xtick_3">
     <g id="line2d_3">
      <g>
       <use style="stroke:#000000;stroke-width:0.8;" x="272.927706" xlink:href="#m6b61cf88a6" y="307.584"/>
      </g>
     </g>
     <g id="text_3">
      <!-- 0.70 -->
      <defs>
       <path d="M 8.203125 72.90625 
L 55.078125 72.90625 
L 55.078125 68.703125 
L 28.609375 0 
L 18.3125 0 
L 43.21875 64.59375 
L 8.203125 64.59375 
z
" id="DejaVuSans-55"/>
      </defs>
      <g transform="translate(261.794894 322.182437)scale(0.1 -0.1)">
       <use xlink:href="#DejaVuSans-48"/>
       <use x="63.623047" xlink:href="#DejaVuSans-46"/>
       <use x="95.410156" xlink:href="#DejaVuSans-55"/>
       <use x="159.033203" xlink:href="#DejaVuSans-48"/>
      </g>
     </g>
    </g>
    <g id="xtick_4">
     <g id="line2d_4">
      <g>
       <use style="stroke:#000000;stroke-width:0.8;" x="350.74055" xlink:href="#m6b61cf88a6" y="307.584"/>
      </g>
     </g>
     <g id="text_4">
      <!-- 0.75 -->
      <g transform="translate(339.607738 322.182437)scale(0.1 -0.1)">
       <use xlink:href="#DejaVuSans-48"/>
       <use x="63.623047" xlink:href="#DejaVuSans-46"/>
       <use x="95.410156" xlink:href="#DejaVuSans-55"/>
       <use x="159.033203" xlink:href="#DejaVuSans-53"/>
      </g>
     </g>
    </g>
    <g id="text_5">
     <!-- Real values -->
     <defs>
      <path d="M 44.390625 34.1875 
Q 47.5625 33.109375 50.5625 29.59375 
Q 53.5625 26.078125 56.59375 19.921875 
L 66.609375 0 
L 56 0 
L 46.6875 18.703125 
Q 43.0625 26.03125 39.671875 28.421875 
Q 36.28125 30.8125 30.421875 30.8125 
L 19.671875 30.8125 
L 19.671875 0 
L 9.8125 0 
L 9.8125 72.90625 
L 32.078125 72.90625 
Q 44.578125 72.90625 50.734375 67.671875 
Q 56.890625 62.453125 56.890625 51.90625 
Q 56.890625 45.015625 53.6875 40.46875 
Q 50.484375 35.9375 44.390625 34.1875 
z
M 19.671875 64.796875 
L 19.671875 38.921875 
L 32.078125 38.921875 
Q 39.203125 38.921875 42.84375 42.21875 
Q 46.484375 45.515625 46.484375 51.90625 
Q 46.484375 58.296875 42.84375 61.546875 
Q 39.203125 64.796875 32.078125 64.796875 
z
" id="DejaVuSans-82"/>
      <path d="M 56.203125 29.59375 
L 56.203125 25.203125 
L 14.890625 25.203125 
Q 15.484375 15.921875 20.484375 11.0625 
Q 25.484375 6.203125 34.421875 6.203125 
Q 39.59375 6.203125 44.453125 7.46875 
Q 49.3125 8.734375 54.109375 11.28125 
L 54.109375 2.78125 
Q 49.265625 0.734375 44.1875 -0.34375 
Q 39.109375 -1.421875 33.890625 -1.421875 
Q 20.796875 -1.421875 13.15625 6.1875 
Q 5.515625 13.8125 5.515625 26.8125 
Q 5.515625 40.234375 12.765625 48.109375 
Q 20.015625 56 32.328125 56 
Q 43.359375 56 49.78125 48.890625 
Q 56.203125 41.796875 56.203125 29.59375 
z
M 47.21875 32.234375 
Q 47.125 39.59375 43.09375 43.984375 
Q 39.0625 48.390625 32.421875 48.390625 
Q 24.90625 48.390625 20.390625 44.140625 
Q 15.875 39.890625 15.1875 32.171875 
z
" id="DejaVuSans-101"/>
      <path d="M 34.28125 27.484375 
Q 23.390625 27.484375 19.1875 25 
Q 14.984375 22.515625 14.984375 16.5 
Q 14.984375 11.71875 18.140625 8.90625 
Q 21.296875 6.109375 26.703125 6.109375 
Q 34.1875 6.109375 38.703125 11.40625 
Q 43.21875 16.703125 43.21875 25.484375 
L 43.21875 27.484375 
z
M 52.203125 31.203125 
L 52.203125 0 
L 43.21875 0 
L 43.21875 8.296875 
Q 40.140625 3.328125 35.546875 0.953125 
Q 30.953125 -1.421875 24.3125 -1.421875 
Q 15.921875 -1.421875 10.953125 3.296875 
Q 6 8.015625 6 15.921875 
Q 6 25.140625 12.171875 29.828125 
Q 18.359375 34.515625 30.609375 34.515625 
L 43.21875 34.515625 
L 43.21875 35.40625 
Q 43.21875 41.609375 39.140625 45 
Q 35.0625 48.390625 27.6875 48.390625 
Q 23 48.390625 18.546875 47.265625 
Q 14.109375 46.140625 10.015625 43.890625 
L 10.015625 52.203125 
Q 14.9375 54.109375 19.578125 55.046875 
Q 24.21875 56 28.609375 56 
Q 40.484375 56 46.34375 49.84375 
Q 52.203125 43.703125 52.203125 31.203125 
z
" id="DejaVuSans-97"/>
      <path d="M 9.421875 75.984375 
L 18.40625 75.984375 
L 18.40625 0 
L 9.421875 0 
z
" id="DejaVuSans-108"/>
      <path id="DejaVuSans-32"/>
      <path d="M 2.984375 54.6875 
L 12.5 54.6875 
L 29.59375 8.796875 
L 46.6875 54.6875 
L 56.203125 54.6875 
L 35.6875 0 
L 23.484375 0 
z
" id="DejaVuSans-118"/>
      <path d="M 8.5 21.578125 
L 8.5 54.6875 
L 17.484375 54.6875 
L 17.484375 21.921875 
Q 17.484375 14.15625 20.5 10.265625 
Q 23.53125 6.390625 29.59375 6.390625 
Q 36.859375 6.390625 41.078125 11.03125 
Q 45.3125 15.671875 45.3125 23.6875 
L 45.3125 54.6875 
L 54.296875 54.6875 
L 54.296875 0 
L 45.3125 0 
L 45.3125 8.40625 
Q 42.046875 3.421875 37.71875 1 
Q 33.40625 -1.421875 27.6875 -1.421875 
Q 18.265625 -1.421875 13.375 4.4375 
Q 8.5 10.296875 8.5 21.578125 
z
M 31.109375 56 
z
" id="DejaVuSans-117"/>
      <path d="M 44.28125 53.078125 
L 44.28125 44.578125 
Q 40.484375 46.53125 36.375 47.5 
Q 32.28125 48.484375 27.875 48.484375 
Q 21.1875 48.484375 17.84375 46.4375 
Q 14.5 44.390625 14.5 40.28125 
Q 14.5 37.15625 16.890625 35.375 
Q 19.28125 33.59375 26.515625 31.984375 
L 29.59375 31.296875 
Q 39.15625 29.25 43.1875 25.515625 
Q 47.21875 21.78125 47.21875 15.09375 
Q 47.21875 7.46875 41.1875 3.015625 
Q 35.15625 -1.421875 24.609375 -1.421875 
Q 20.21875 -1.421875 15.453125 -0.5625 
Q 10.6875 0.296875 5.421875 2 
L 5.421875 11.28125 
Q 10.40625 8.6875 15.234375 7.390625 
Q 20.0625 6.109375 24.8125 6.109375 
Q 31.15625 6.109375 34.5625 8.28125 
Q 37.984375 10.453125 37.984375 14.40625 
Q 37.984375 18.0625 35.515625 20.015625 
Q 33.0625 21.96875 24.703125 23.78125 
L 21.578125 24.515625 
Q 13.234375 26.265625 9.515625 29.90625 
Q 5.8125 33.546875 5.8125 39.890625 
Q 5.8125 47.609375 11.28125 51.796875 
Q 16.75 56 26.8125 56 
Q 31.78125 56 36.171875 55.265625 
Q 40.578125 54.546875 44.28125 53.078125 
z
" id="DejaVuSans-115"/>
     </defs>
     <g transform="translate(207.307656 335.860562)scale(0.1 -0.1)">
      <use xlink:href="#DejaVuSans-82"/>
      <use x="69.419922" xlink:href="#DejaVuSans-101"/>
      <use x="130.943359" xlink:href="#DejaVuSans-97"/>
      <use x="192.222656" xlink:href="#DejaVuSans-108"/>
      <use x="220.005859" xlink:href="#DejaVuSans-32"/>
      <use x="251.792969" xlink:href="#DejaVuSans-118"/>
      <use x="310.972656" xlink:href="#DejaVuSans-97"/>
      <use x="372.251953" xlink:href="#DejaVuSans-108"/>
      <use x="400.035156" xlink:href="#DejaVuSans-117"/>
      <use x="463.414062" xlink:href="#DejaVuSans-101"/>
      <use x="524.9375" xlink:href="#DejaVuSans-115"/>
     </g>
    </g>
   </g>
   <g id="matplotlib.axis_2">
    <g id="ytick_1">
     <g id="line2d_5">
      <defs>
       <path d="M 0 0 
L -3.5 0 
" id="md87aa0f1fb" style="stroke:#000000;stroke-width:0.8;"/>
      </defs>
      <g>
       <use style="stroke:#000000;stroke-width:0.8;" x="57.6" xlink:href="#md87aa0f1fb" y="263.096367"/>
      </g>
     </g>
     <g id="text_6">
      <!-- 0.60 -->
      <g transform="translate(28.334375 266.895586)scale(0.1 -0.1)">
       <use xlink:href="#DejaVuSans-48"/>
       <use x="63.623047" xlink:href="#DejaVuSans-46"/>
       <use x="95.410156" xlink:href="#DejaVuSans-54"/>
       <use x="159.033203" xlink:href="#DejaVuSans-48"/>
      </g>
     </g>
    </g>
    <g id="ytick_2">
     <g id="line2d_6">
      <g>
       <use style="stroke:#000000;stroke-width:0.8;" x="57.6" xlink:href="#md87aa0f1fb" y="205.113248"/>
      </g>
     </g>
     <g id="text_7">
      <!-- 0.65 -->
      <g transform="translate(28.334375 208.912466)scale(0.1 -0.1)">
       <use xlink:href="#DejaVuSans-48"/>
       <use x="63.623047" xlink:href="#DejaVuSans-46"/>
       <use x="95.410156" xlink:href="#DejaVuSans-54"/>
       <use x="159.033203" xlink:href="#DejaVuSans-53"/>
      </g>
     </g>
    </g>
    <g id="ytick_3">
     <g id="line2d_7">
      <g>
       <use style="stroke:#000000;stroke-width:0.8;" x="57.6" xlink:href="#md87aa0f1fb" y="147.130128"/>
      </g>
     </g>
     <g id="text_8">
      <!-- 0.70 -->
      <g transform="translate(28.334375 150.929347)scale(0.1 -0.1)">
       <use xlink:href="#DejaVuSans-48"/>
       <use x="63.623047" xlink:href="#DejaVuSans-46"/>
       <use x="95.410156" xlink:href="#DejaVuSans-55"/>
       <use x="159.033203" xlink:href="#DejaVuSans-48"/>
      </g>
     </g>
    </g>
    <g id="ytick_4">
     <g id="line2d_8">
      <g>
       <use style="stroke:#000000;stroke-width:0.8;" x="57.6" xlink:href="#md87aa0f1fb" y="89.147009"/>
      </g>
     </g>
     <g id="text_9">
      <!-- 0.75 -->
      <g transform="translate(28.334375 92.946228)scale(0.1 -0.1)">
       <use xlink:href="#DejaVuSans-48"/>
       <use x="63.623047" xlink:href="#DejaVuSans-46"/>
       <use x="95.410156" xlink:href="#DejaVuSans-55"/>
       <use x="159.033203" xlink:href="#DejaVuSans-53"/>
      </g>
     </g>
    </g>
    <g id="text_10">
     <!-- Predicted Values -->
     <defs>
      <path d="M 19.671875 64.796875 
L 19.671875 37.40625 
L 32.078125 37.40625 
Q 38.96875 37.40625 42.71875 40.96875 
Q 46.484375 44.53125 46.484375 51.125 
Q 46.484375 57.671875 42.71875 61.234375 
Q 38.96875 64.796875 32.078125 64.796875 
z
M 9.8125 72.90625 
L 32.078125 72.90625 
Q 44.34375 72.90625 50.609375 67.359375 
Q 56.890625 61.8125 56.890625 51.125 
Q 56.890625 40.328125 50.609375 34.8125 
Q 44.34375 29.296875 32.078125 29.296875 
L 19.671875 29.296875 
L 19.671875 0 
L 9.8125 0 
z
" id="DejaVuSans-80"/>
      <path d="M 41.109375 46.296875 
Q 39.59375 47.171875 37.8125 47.578125 
Q 36.03125 48 33.890625 48 
Q 26.265625 48 22.1875 43.046875 
Q 18.109375 38.09375 18.109375 28.8125 
L 18.109375 0 
L 9.078125 0 
L 9.078125 54.6875 
L 18.109375 54.6875 
L 18.109375 46.1875 
Q 20.953125 51.171875 25.484375 53.578125 
Q 30.03125 56 36.53125 56 
Q 37.453125 56 38.578125 55.875 
Q 39.703125 55.765625 41.0625 55.515625 
z
" id="DejaVuSans-114"/>
      <path d="M 45.40625 46.390625 
L 45.40625 75.984375 
L 54.390625 75.984375 
L 54.390625 0 
L 45.40625 0 
L 45.40625 8.203125 
Q 42.578125 3.328125 38.25 0.953125 
Q 33.9375 -1.421875 27.875 -1.421875 
Q 17.96875 -1.421875 11.734375 6.484375 
Q 5.515625 14.40625 5.515625 27.296875 
Q 5.515625 40.1875 11.734375 48.09375 
Q 17.96875 56 27.875 56 
Q 33.9375 56 38.25 53.625 
Q 42.578125 51.265625 45.40625 46.390625 
z
M 14.796875 27.296875 
Q 14.796875 17.390625 18.875 11.75 
Q 22.953125 6.109375 30.078125 6.109375 
Q 37.203125 6.109375 41.296875 11.75 
Q 45.40625 17.390625 45.40625 27.296875 
Q 45.40625 37.203125 41.296875 42.84375 
Q 37.203125 48.484375 30.078125 48.484375 
Q 22.953125 48.484375 18.875 42.84375 
Q 14.796875 37.203125 14.796875 27.296875 
z
" id="DejaVuSans-100"/>
      <path d="M 9.421875 54.6875 
L 18.40625 54.6875 
L 18.40625 0 
L 9.421875 0 
z
M 9.421875 75.984375 
L 18.40625 75.984375 
L 18.40625 64.59375 
L 9.421875 64.59375 
z
" id="DejaVuSans-105"/>
      <path d="M 48.78125 52.59375 
L 48.78125 44.1875 
Q 44.96875 46.296875 41.140625 47.34375 
Q 37.3125 48.390625 33.40625 48.390625 
Q 24.65625 48.390625 19.8125 42.84375 
Q 14.984375 37.3125 14.984375 27.296875 
Q 14.984375 17.28125 19.8125 11.734375 
Q 24.65625 6.203125 33.40625 6.203125 
Q 37.3125 6.203125 41.140625 7.25 
Q 44.96875 8.296875 48.78125 10.40625 
L 48.78125 2.09375 
Q 45.015625 0.34375 40.984375 -0.53125 
Q 36.96875 -1.421875 32.421875 -1.421875 
Q 20.0625 -1.421875 12.78125 6.34375 
Q 5.515625 14.109375 5.515625 27.296875 
Q 5.515625 40.671875 12.859375 48.328125 
Q 20.21875 56 33.015625 56 
Q 37.15625 56 41.109375 55.140625 
Q 45.0625 54.296875 48.78125 52.59375 
z
" id="DejaVuSans-99"/>
      <path d="M 18.3125 70.21875 
L 18.3125 54.6875 
L 36.8125 54.6875 
L 36.8125 47.703125 
L 18.3125 47.703125 
L 18.3125 18.015625 
Q 18.3125 11.328125 20.140625 9.421875 
Q 21.96875 7.515625 27.59375 7.515625 
L 36.8125 7.515625 
L 36.8125 0 
L 27.59375 0 
Q 17.1875 0 13.234375 3.875 
Q 9.28125 7.765625 9.28125 18.015625 
L 9.28125 47.703125 
L 2.6875 47.703125 
L 2.6875 54.6875 
L 9.28125 54.6875 
L 9.28125 70.21875 
z
" id="DejaVuSans-116"/>
      <path d="M 28.609375 0 
L 0.78125 72.90625 
L 11.078125 72.90625 
L 34.1875 11.53125 
L 57.328125 72.90625 
L 67.578125 72.90625 
L 39.796875 0 
z
" id="DejaVuSans-86"/>
     </defs>
     <g transform="translate(22.254687 216.503)rotate(-90)scale(0.1 -0.1)">
      <use xlink:href="#DejaVuSans-80"/>
      <use x="60.287109" xlink:href="#DejaVuSans-114"/>
      <use x="101.369141" xlink:href="#DejaVuSans-101"/>
      <use x="162.892578" xlink:href="#DejaVuSans-100"/>
      <use x="226.369141" xlink:href="#DejaVuSans-105"/>
      <use x="254.152344" xlink:href="#DejaVuSans-99"/>
      <use x="309.132812" xlink:href="#DejaVuSans-116"/>
      <use x="348.341797" xlink:href="#DejaVuSans-101"/>
      <use x="409.865234" xlink:href="#DejaVuSans-100"/>
      <use x="473.341797" xlink:href="#DejaVuSans-32"/>
      <use x="505.128906" xlink:href="#DejaVuSans-86"/>
      <use x="573.427734" xlink:href="#DejaVuSans-97"/>
      <use x="634.707031" xlink:href="#DejaVuSans-108"/>
      <use x="662.490234" xlink:href="#DejaVuSans-117"/>
      <use x="725.869141" xlink:href="#DejaVuSans-101"/>
      <use x="787.392578" xlink:href="#DejaVuSans-115"/>
     </g>
    </g>
   </g>
   <g id="line2d_9">
    <path clip-path="url(#p79b8553728)" d="M 57.6 274.730703 
L 61.207273 272.707934 
L 64.814545 270.685164 
L 68.421818 268.662394 
L 72.029091 266.639624 
L 75.636364 264.616855 
L 79.243636 262.594085 
L 82.850909 260.571315 
L 86.458182 258.548546 
L 90.065455 256.525776 
L 93.672727 254.503006 
L 97.28 252.480236 
L 100.887273 250.457467 
L 104.494545 248.434697 
L 108.101818 246.411927 
L 111.709091 244.389158 
L 115.316364 242.366388 
L 118.923636 240.343618 
L 122.530909 238.320848 
L 126.138182 236.298079 
L 129.745455 234.275309 
L 133.352727 232.252539 
L 136.96 230.22977 
L 140.567273 228.207 
L 144.174545 226.18423 
L 147.781818 224.16146 
L 151.389091 222.138691 
L 154.996364 220.115921 
L 158.603636 218.093151 
L 162.210909 216.070381 
L 165.818182 214.047612 
L 169.425455 212.024842 
L 173.032727 210.002072 
L 176.64 207.979303 
L 180.247273 205.956533 
L 183.854545 203.933763 
L 187.461818 201.910993 
L 191.069091 199.888224 
L 194.676364 197.865454 
L 198.283636 195.842684 
L 201.890909 193.819915 
L 205.498182 191.797145 
L 209.105455 189.774375 
L 212.712727 187.751605 
L 216.32 185.728836 
L 219.927273 183.706066 
L 223.534545 181.683296 
L 227.141818 179.660527 
L 230.749091 177.637757 
L 234.356364 175.614987 
L 237.963636 173.592217 
L 241.570909 171.569448 
L 245.178182 169.546678 
L 248.785455 167.523908 
L 252.392727 165.501139 
L 256 163.478369 
L 259.607273 161.455599 
L 263.214545 159.432829 
L 266.821818 157.41006 
L 270.429091 155.38729 
L 274.036364 153.36452 
L 277.643636 151.341751 
L 281.250909 149.318981 
L 284.858182 147.296211 
L 288.465455 145.273441 
L 292.072727 143.250672 
L 295.68 141.227902 
L 299.287273 139.205132 
L 302.894545 137.182363 
L 306.501818 135.159593 
L 310.109091 133.136823 
L 313.716364 131.114053 
L 317.323636 129.091284 
L 320.930909 127.068514 
L 324.538182 125.045744 
L 328.145455 123.022974 
L 331.752727 121.000205 
L 335.36 118.977435 
L 338.967273 116.954665 
L 342.574545 114.931896 
L 346.181818 112.909126 
L 349.789091 110.886356 
L 353.396364 108.863586 
L 357.003636 106.840817 
L 360.610909 104.818047 
L 364.218182 102.795277 
L 367.825455 100.772508 
L 371.432727 98.749738 
L 375.04 96.726968 
L 378.647273 94.704198 
L 382.254545 92.681429 
L 385.861818 90.658659 
L 389.469091 88.635889 
L 393.076364 86.61312 
L 396.683636 84.59035 
L 400.290909 82.56758 
L 403.898182 80.54481 
L 407.505455 78.522041 
L 411.112727 76.499271 
L 414.72 74.476501 
" style="fill:none;stroke:#1f77b4;stroke-linecap:square;stroke-width:2.25;"/>
   </g>
   <g id="patch_3">
    <path d="M 57.6 307.584 
L 57.6 41.472 
" style="fill:none;stroke:#000000;stroke-linecap:square;stroke-linejoin:miter;stroke-width:0.8;"/>
   </g>
   <g id="patch_4">
    <path d="M 414.72 307.584 
L 414.72 41.472 
" style="fill:none;stroke:#000000;stroke-linecap:square;stroke-linejoin:miter;stroke-width:0.8;"/>
   </g>
   <g id="patch_5">
    <path d="M 57.6 307.584 
L 414.72 307.584 
" style="fill:none;stroke:#000000;stroke-linecap:square;stroke-linejoin:miter;stroke-width:0.8;"/>
   </g>
   <g id="patch_6">
    <path d="M 57.6 41.472 
L 414.72 41.472 
" style="fill:none;stroke:#000000;stroke-linecap:square;stroke-linejoin:miter;stroke-width:0.8;"/>
   </g>
   <g id="text_11">
    <!-- Regression task crc1 svm -->
    <defs>
     <path d="M 45.40625 27.984375 
Q 45.40625 37.75 41.375 43.109375 
Q 37.359375 48.484375 30.078125 48.484375 
Q 22.859375 48.484375 18.828125 43.109375 
Q 14.796875 37.75 14.796875 27.984375 
Q 14.796875 18.265625 18.828125 12.890625 
Q 22.859375 7.515625 30.078125 7.515625 
Q 37.359375 7.515625 41.375 12.890625 
Q 45.40625 18.265625 45.40625 27.984375 
z
M 54.390625 6.78125 
Q 54.390625 -7.171875 48.1875 -13.984375 
Q 42 -20.796875 29.203125 -20.796875 
Q 24.46875 -20.796875 20.265625 -20.09375 
Q 16.0625 -19.390625 12.109375 -17.921875 
L 12.109375 -9.1875 
Q 16.0625 -11.328125 19.921875 -12.34375 
Q 23.78125 -13.375 27.78125 -13.375 
Q 36.625 -13.375 41.015625 -8.765625 
Q 45.40625 -4.15625 45.40625 5.171875 
L 45.40625 9.625 
Q 42.625 4.78125 38.28125 2.390625 
Q 33.9375 0 27.875 0 
Q 17.828125 0 11.671875 7.65625 
Q 5.515625 15.328125 5.515625 27.984375 
Q 5.515625 40.671875 11.671875 48.328125 
Q 17.828125 56 27.875 56 
Q 33.9375 56 38.28125 53.609375 
Q 42.625 51.21875 45.40625 46.390625 
L 45.40625 54.6875 
L 54.390625 54.6875 
z
" id="DejaVuSans-103"/>
     <path d="M 30.609375 48.390625 
Q 23.390625 48.390625 19.1875 42.75 
Q 14.984375 37.109375 14.984375 27.296875 
Q 14.984375 17.484375 19.15625 11.84375 
Q 23.34375 6.203125 30.609375 6.203125 
Q 37.796875 6.203125 41.984375 11.859375 
Q 46.1875 17.53125 46.1875 27.296875 
Q 46.1875 37.015625 41.984375 42.703125 
Q 37.796875 48.390625 30.609375 48.390625 
z
M 30.609375 56 
Q 42.328125 56 49.015625 48.375 
Q 55.71875 40.765625 55.71875 27.296875 
Q 55.71875 13.875 49.015625 6.21875 
Q 42.328125 -1.421875 30.609375 -1.421875 
Q 18.84375 -1.421875 12.171875 6.21875 
Q 5.515625 13.875 5.515625 27.296875 
Q 5.515625 40.765625 12.171875 48.375 
Q 18.84375 56 30.609375 56 
z
" id="DejaVuSans-111"/>
     <path d="M 54.890625 33.015625 
L 54.890625 0 
L 45.90625 0 
L 45.90625 32.71875 
Q 45.90625 40.484375 42.875 44.328125 
Q 39.84375 48.1875 33.796875 48.1875 
Q 26.515625 48.1875 22.3125 43.546875 
Q 18.109375 38.921875 18.109375 30.90625 
L 18.109375 0 
L 9.078125 0 
L 9.078125 54.6875 
L 18.109375 54.6875 
L 18.109375 46.1875 
Q 21.34375 51.125 25.703125 53.5625 
Q 30.078125 56 35.796875 56 
Q 45.21875 56 50.046875 50.171875 
Q 54.890625 44.34375 54.890625 33.015625 
z
" id="DejaVuSans-110"/>
     <path d="M 9.078125 75.984375 
L 18.109375 75.984375 
L 18.109375 31.109375 
L 44.921875 54.6875 
L 56.390625 54.6875 
L 27.390625 29.109375 
L 57.625 0 
L 45.90625 0 
L 18.109375 26.703125 
L 18.109375 0 
L 9.078125 0 
z
" id="DejaVuSans-107"/>
     <path d="M 12.40625 8.296875 
L 28.515625 8.296875 
L 28.515625 63.921875 
L 10.984375 60.40625 
L 10.984375 69.390625 
L 28.421875 72.90625 
L 38.28125 72.90625 
L 38.28125 8.296875 
L 54.390625 8.296875 
L 54.390625 0 
L 12.40625 0 
z
" id="DejaVuSans-49"/>
     <path d="M 52 44.1875 
Q 55.375 50.25 60.0625 53.125 
Q 64.75 56 71.09375 56 
Q 79.640625 56 84.28125 50.015625 
Q 88.921875 44.046875 88.921875 33.015625 
L 88.921875 0 
L 79.890625 0 
L 79.890625 32.71875 
Q 79.890625 40.578125 77.09375 44.375 
Q 74.3125 48.1875 68.609375 48.1875 
Q 61.625 48.1875 57.5625 43.546875 
Q 53.515625 38.921875 53.515625 30.90625 
L 53.515625 0 
L 44.484375 0 
L 44.484375 32.71875 
Q 44.484375 40.625 41.703125 44.40625 
Q 38.921875 48.1875 33.109375 48.1875 
Q 26.21875 48.1875 22.15625 43.53125 
Q 18.109375 38.875 18.109375 30.90625 
L 18.109375 0 
L 9.078125 0 
L 9.078125 54.6875 
L 18.109375 54.6875 
L 18.109375 46.1875 
Q 21.1875 51.21875 25.484375 53.609375 
Q 29.78125 56 35.6875 56 
Q 41.65625 56 45.828125 52.96875 
Q 50 49.953125 52 44.1875 
z
" id="DejaVuSans-109"/>
    </defs>
    <g transform="translate(172.021719 35.472)scale(0.1 -0.1)">
     <use xlink:href="#DejaVuSans-82"/>
     <use x="69.419922" xlink:href="#DejaVuSans-101"/>
     <use x="130.943359" xlink:href="#DejaVuSans-103"/>
     <use x="194.419922" xlink:href="#DejaVuSans-114"/>
     <use x="235.501953" xlink:href="#DejaVuSans-101"/>
     <use x="297.025391" xlink:href="#DejaVuSans-115"/>
     <use x="349.125" xlink:href="#DejaVuSans-115"/>
     <use x="401.224609" xlink:href="#DejaVuSans-105"/>
     <use x="429.007812" xlink:href="#DejaVuSans-111"/>
     <use x="490.189453" xlink:href="#DejaVuSans-110"/>
     <use x="553.568359" xlink:href="#DejaVuSans-32"/>
     <use x="585.355469" xlink:href="#DejaVuSans-116"/>
     <use x="624.564453" xlink:href="#DejaVuSans-97"/>
     <use x="685.84375" xlink:href="#DejaVuSans-115"/>
     <use x="737.943359" xlink:href="#DejaVuSans-107"/>
     <use x="795.853516" xlink:href="#DejaVuSans-32"/>
     <use x="827.640625" xlink:href="#DejaVuSans-99"/>
     <use x="882.621094" xlink:href="#DejaVuSans-114"/>
     <use x="923.703125" xlink:href="#DejaVuSans-99"/>
     <use x="978.683594" xlink:href="#DejaVuSans-49"/>
     <use x="1042.306641" xlink:href="#DejaVuSans-32"/>
     <use x="1074.09375" xlink:href="#DejaVuSans-115"/>
     <use x="1126.193359" xlink:href="#DejaVuSans-118"/>
     <use x="1185.373047" xlink:href="#DejaVuSans-109"/>
    </g>
   </g>
   <g id="legend_1">
    <g id="patch_7">
     <path d="M 64.6 54.472 
L 68.6 54.472 
Q 70.6 54.472 70.6 52.472 
L 70.6 48.472 
Q 70.6 46.472 68.6 46.472 
L 64.6 46.472 
Q 62.6 46.472 62.6 48.472 
L 62.6 52.472 
Q 62.6 54.472 64.6 54.472 
z
" style="fill:#ffffff;opacity:0.8;stroke:#cccccc;stroke-linejoin:miter;"/>
    </g>
   </g>
  </g>
 </g>
 <defs>
  <clipPath id="p79b8553728">
   <rect height="266.112" width="357.12" x="57.6" y="41.472"/>
  </clipPath>
 </defs>
</svg>
