<?xml version="1.0" encoding="utf-8" standalone="no"?>
<!DOCTYPE svg PUBLIC "-//W3C//DTD SVG 1.1//EN"
  "http://www.w3.org/Graphics/SVG/1.1/DTD/svg11.dtd">
<!-- Created with matplotlib (https://matplotlib.org/) -->
<svg height="864pt" version="1.1" viewBox="0 0 1008 864" width="1008pt" xmlns="http://www.w3.org/2000/svg" xmlns:xlink="http://www.w3.org/1999/xlink">
 <defs>
  <style type="text/css">
*{stroke-linecap:butt;stroke-linejoin:round;}
  </style>
 </defs>
 <g id="figure_1">
  <g id="patch_1">
   <path d="M 0 864 
L 1008 864 
L 1008 0 
L 0 0 
z
" style="fill:#ffffff;"/>
  </g>
  <g id="axes_1">
   <g id="patch_2">
    <path d="M 126 768.96 
L 907.2 768.96 
L 907.2 103.68 
L 126 103.68 
z
" style="fill:#808080;"/>
   </g>
   <g id="matplotlib.axis_1">
    <g id="xtick_1">
     <g id="line2d_1">
      <defs>
       <path d="M 0 0 
L 0 3.5 
" id="m453da931d5" style="stroke:#000000;stroke-width:0.8;"/>
      </defs>
      <g>
       <use style="stroke:#000000;stroke-width:0.8;" x="152.04" xlink:href="#m453da931d5" y="768.96"/>
      </g>
     </g>
     <g id="text_1">
      <!-- Taxonomy level_five -->
      <defs>
       <path d="M -0.296875 72.90625 
L 61.375 72.90625 
L 61.375 64.59375 
L 35.5 64.59375 
L 35.5 0 
L 25.59375 0 
L 25.59375 64.59375 
L -0.296875 64.59375 
z
" id="DejaVuSans-84"/>
       <path d="M 34.28125 27.484375 
Q 23.390625 27.484375 19.1875 25 
Q 14.984375 22.515625 14.984375 16.5 
Q 14.984375 11.71875 18.140625 8.90625 
Q 21.296875 6.109375 26.703125 6.109375 
Q 34.1875 6.109375 38.703125 11.40625 
Q 43.21875 16.703125 43.21875 25.484375 
L 43.21875 27.484375 
z
M 52.203125 31.203125 
L 52.203125 0 
L 43.21875 0 
L 43.21875 8.296875 
Q 40.140625 3.328125 35.546875 0.953125 
Q 30.953125 -1.421875 24.3125 -1.421875 
Q 15.921875 -1.421875 10.953125 3.296875 
Q 6 8.015625 6 15.921875 
Q 6 25.140625 12.171875 29.828125 
Q 18.359375 34.515625 30.609375 34.515625 
L 43.21875 34.515625 
L 43.21875 35.40625 
Q 43.21875 41.609375 39.140625 45 
Q 35.0625 48.390625 27.6875 48.390625 
Q 23 48.390625 18.546875 47.265625 
Q 14.109375 46.140625 10.015625 43.890625 
L 10.015625 52.203125 
Q 14.9375 54.109375 19.578125 55.046875 
Q 24.21875 56 28.609375 56 
Q 40.484375 56 46.34375 49.84375 
Q 52.203125 43.703125 52.203125 31.203125 
z
" id="DejaVuSans-97"/>
       <path d="M 54.890625 54.6875 
L 35.109375 28.078125 
L 55.90625 0 
L 45.3125 0 
L 29.390625 21.484375 
L 13.484375 0 
L 2.875 0 
L 24.125 28.609375 
L 4.6875 54.6875 
L 15.28125 54.6875 
L 29.78125 35.203125 
L 44.28125 54.6875 
z
" id="DejaVuSans-120"/>
       <path d="M 30.609375 48.390625 
Q 23.390625 48.390625 19.1875 42.75 
Q 14.984375 37.109375 14.984375 27.296875 
Q 14.984375 17.484375 19.15625 11.84375 
Q 23.34375 6.203125 30.609375 6.203125 
Q 37.796875 6.203125 41.984375 11.859375 
Q 46.1875 17.53125 46.1875 27.296875 
Q 46.1875 37.015625 41.984375 42.703125 
Q 37.796875 48.390625 30.609375 48.390625 
z
M 30.609375 56 
Q 42.328125 56 49.015625 48.375 
Q 55.71875 40.765625 55.71875 27.296875 
Q 55.71875 13.875 49.015625 6.21875 
Q 42.328125 -1.421875 30.609375 -1.421875 
Q 18.84375 -1.421875 12.171875 6.21875 
Q 5.515625 13.875 5.515625 27.296875 
Q 5.515625 40.765625 12.171875 48.375 
Q 18.84375 56 30.609375 56 
z
" id="DejaVuSans-111"/>
       <path d="M 54.890625 33.015625 
L 54.890625 0 
L 45.90625 0 
L 45.90625 32.71875 
Q 45.90625 40.484375 42.875 44.328125 
Q 39.84375 48.1875 33.796875 48.1875 
Q 26.515625 48.1875 22.3125 43.546875 
Q 18.109375 38.921875 18.109375 30.90625 
L 18.109375 0 
L 9.078125 0 
L 9.078125 54.6875 
L 18.109375 54.6875 
L 18.109375 46.1875 
Q 21.34375 51.125 25.703125 53.5625 
Q 30.078125 56 35.796875 56 
Q 45.21875 56 50.046875 50.171875 
Q 54.890625 44.34375 54.890625 33.015625 
z
" id="DejaVuSans-110"/>
       <path d="M 52 44.1875 
Q 55.375 50.25 60.0625 53.125 
Q 64.75 56 71.09375 56 
Q 79.640625 56 84.28125 50.015625 
Q 88.921875 44.046875 88.921875 33.015625 
L 88.921875 0 
L 79.890625 0 
L 79.890625 32.71875 
Q 79.890625 40.578125 77.09375 44.375 
Q 74.3125 48.1875 68.609375 48.1875 
Q 61.625 48.1875 57.5625 43.546875 
Q 53.515625 38.921875 53.515625 30.90625 
L 53.515625 0 
L 44.484375 0 
L 44.484375 32.71875 
Q 44.484375 40.625 41.703125 44.40625 
Q 38.921875 48.1875 33.109375 48.1875 
Q 26.21875 48.1875 22.15625 43.53125 
Q 18.109375 38.875 18.109375 30.90625 
L 18.109375 0 
L 9.078125 0 
L 9.078125 54.6875 
L 18.109375 54.6875 
L 18.109375 46.1875 
Q 21.1875 51.21875 25.484375 53.609375 
Q 29.78125 56 35.6875 56 
Q 41.65625 56 45.828125 52.96875 
Q 50 49.953125 52 44.1875 
z
" id="DejaVuSans-109"/>
       <path d="M 32.171875 -5.078125 
Q 28.375 -14.84375 24.75 -17.8125 
Q 21.140625 -20.796875 15.09375 -20.796875 
L 7.90625 -20.796875 
L 7.90625 -13.28125 
L 13.1875 -13.28125 
Q 16.890625 -13.28125 18.9375 -11.515625 
Q 21 -9.765625 23.484375 -3.21875 
L 25.09375 0.875 
L 2.984375 54.6875 
L 12.5 54.6875 
L 29.59375 11.921875 
L 46.6875 54.6875 
L 56.203125 54.6875 
z
" id="DejaVuSans-121"/>
       <path id="DejaVuSans-32"/>
       <path d="M 9.421875 75.984375 
L 18.40625 75.984375 
L 18.40625 0 
L 9.421875 0 
z
" id="DejaVuSans-108"/>
       <path d="M 56.203125 29.59375 
L 56.203125 25.203125 
L 14.890625 25.203125 
Q 15.484375 15.921875 20.484375 11.0625 
Q 25.484375 6.203125 34.421875 6.203125 
Q 39.59375 6.203125 44.453125 7.46875 
Q 49.3125 8.734375 54.109375 11.28125 
L 54.109375 2.78125 
Q 49.265625 0.734375 44.1875 -0.34375 
Q 39.109375 -1.421875 33.890625 -1.421875 
Q 20.796875 -1.421875 13.15625 6.1875 
Q 5.515625 13.8125 5.515625 26.8125 
Q 5.515625 40.234375 12.765625 48.109375 
Q 20.015625 56 32.328125 56 
Q 43.359375 56 49.78125 48.890625 
Q 56.203125 41.796875 56.203125 29.59375 
z
M 47.21875 32.234375 
Q 47.125 39.59375 43.09375 43.984375 
Q 39.0625 48.390625 32.421875 48.390625 
Q 24.90625 48.390625 20.390625 44.140625 
Q 15.875 39.890625 15.1875 32.171875 
z
" id="DejaVuSans-101"/>
       <path d="M 2.984375 54.6875 
L 12.5 54.6875 
L 29.59375 8.796875 
L 46.6875 54.6875 
L 56.203125 54.6875 
L 35.6875 0 
L 23.484375 0 
z
" id="DejaVuSans-118"/>
       <path d="M 50.984375 -16.609375 
L 50.984375 -23.578125 
L -0.984375 -23.578125 
L -0.984375 -16.609375 
z
" id="DejaVuSans-95"/>
       <path d="M 37.109375 75.984375 
L 37.109375 68.5 
L 28.515625 68.5 
Q 23.6875 68.5 21.796875 66.546875 
Q 19.921875 64.59375 19.921875 59.515625 
L 19.921875 54.6875 
L 34.71875 54.6875 
L 34.71875 47.703125 
L 19.921875 47.703125 
L 19.921875 0 
L 10.890625 0 
L 10.890625 47.703125 
L 2.296875 47.703125 
L 2.296875 54.6875 
L 10.890625 54.6875 
L 10.890625 58.5 
Q 10.890625 67.625 15.140625 71.796875 
Q 19.390625 75.984375 28.609375 75.984375 
z
" id="DejaVuSans-102"/>
       <path d="M 9.421875 54.6875 
L 18.40625 54.6875 
L 18.40625 0 
L 9.421875 0 
z
M 9.421875 75.984375 
L 18.40625 75.984375 
L 18.40625 64.59375 
L 9.421875 64.59375 
z
" id="DejaVuSans-105"/>
      </defs>
      <g transform="translate(79.951806 822.299977)rotate(-30)scale(0.08 -0.08)">
       <use xlink:href="#DejaVuSans-84"/>
       <use x="60.833984" xlink:href="#DejaVuSans-97"/>
       <use x="122.113281" xlink:href="#DejaVuSans-120"/>
       <use x="181.246094" xlink:href="#DejaVuSans-111"/>
       <use x="242.427734" xlink:href="#DejaVuSans-110"/>
       <use x="305.806641" xlink:href="#DejaVuSans-111"/>
       <use x="366.988281" xlink:href="#DejaVuSans-109"/>
       <use x="464.400391" xlink:href="#DejaVuSans-121"/>
       <use x="523.580078" xlink:href="#DejaVuSans-32"/>
       <use x="555.367188" xlink:href="#DejaVuSans-108"/>
       <use x="583.150391" xlink:href="#DejaVuSans-101"/>
       <use x="644.673828" xlink:href="#DejaVuSans-118"/>
       <use x="703.853516" xlink:href="#DejaVuSans-101"/>
       <use x="765.376953" xlink:href="#DejaVuSans-108"/>
       <use x="793.160156" xlink:href="#DejaVuSans-95"/>
       <use x="843.160156" xlink:href="#DejaVuSans-102"/>
       <use x="878.365234" xlink:href="#DejaVuSans-105"/>
       <use x="906.148438" xlink:href="#DejaVuSans-118"/>
       <use x="965.328125" xlink:href="#DejaVuSans-101"/>
      </g>
     </g>
    </g>
    <g id="xtick_2">
     <g id="line2d_2">
      <g>
       <use style="stroke:#000000;stroke-width:0.8;" x="204.12" xlink:href="#m453da931d5" y="768.96"/>
      </g>
     </g>
     <g id="text_2">
      <!-- Taxonomy level_four -->
      <defs>
       <path d="M 8.5 21.578125 
L 8.5 54.6875 
L 17.484375 54.6875 
L 17.484375 21.921875 
Q 17.484375 14.15625 20.5 10.265625 
Q 23.53125 6.390625 29.59375 6.390625 
Q 36.859375 6.390625 41.078125 11.03125 
Q 45.3125 15.671875 45.3125 23.6875 
L 45.3125 54.6875 
L 54.296875 54.6875 
L 54.296875 0 
L 45.3125 0 
L 45.3125 8.40625 
Q 42.046875 3.421875 37.71875 1 
Q 33.40625 -1.421875 27.6875 -1.421875 
Q 18.265625 -1.421875 13.375 4.4375 
Q 8.5 10.296875 8.5 21.578125 
z
M 31.109375 56 
z
" id="DejaVuSans-117"/>
       <path d="M 41.109375 46.296875 
Q 39.59375 47.171875 37.8125 47.578125 
Q 36.03125 48 33.890625 48 
Q 26.265625 48 22.1875 43.046875 
Q 18.109375 38.09375 18.109375 28.8125 
L 18.109375 0 
L 9.078125 0 
L 9.078125 54.6875 
L 18.109375 54.6875 
L 18.109375 46.1875 
Q 20.953125 51.171875 25.484375 53.578125 
Q 30.03125 56 36.53125 56 
Q 37.453125 56 38.578125 55.875 
Q 39.703125 55.765625 41.0625 55.515625 
z
" id="DejaVuSans-114"/>
      </defs>
      <g transform="translate(130.842103 822.986852)rotate(-30)scale(0.08 -0.08)">
       <use xlink:href="#DejaVuSans-84"/>
       <use x="60.833984" xlink:href="#DejaVuSans-97"/>
       <use x="122.113281" xlink:href="#DejaVuSans-120"/>
       <use x="181.246094" xlink:href="#DejaVuSans-111"/>
       <use x="242.427734" xlink:href="#DejaVuSans-110"/>
       <use x="305.806641" xlink:href="#DejaVuSans-111"/>
       <use x="366.988281" xlink:href="#DejaVuSans-109"/>
       <use x="464.400391" xlink:href="#DejaVuSans-121"/>
       <use x="523.580078" xlink:href="#DejaVuSans-32"/>
       <use x="555.367188" xlink:href="#DejaVuSans-108"/>
       <use x="583.150391" xlink:href="#DejaVuSans-101"/>
       <use x="644.673828" xlink:href="#DejaVuSans-118"/>
       <use x="703.853516" xlink:href="#DejaVuSans-101"/>
       <use x="765.376953" xlink:href="#DejaVuSans-108"/>
       <use x="793.160156" xlink:href="#DejaVuSans-95"/>
       <use x="843.160156" xlink:href="#DejaVuSans-102"/>
       <use x="878.365234" xlink:href="#DejaVuSans-111"/>
       <use x="939.546875" xlink:href="#DejaVuSans-117"/>
       <use x="1002.925781" xlink:href="#DejaVuSans-114"/>
      </g>
     </g>
    </g>
    <g id="xtick_3">
     <g id="line2d_3">
      <g>
       <use style="stroke:#000000;stroke-width:0.8;" x="256.2" xlink:href="#m453da931d5" y="768.96"/>
      </g>
     </g>
     <g id="text_3">
      <!-- Taxonomy level_six -->
      <defs>
       <path d="M 44.28125 53.078125 
L 44.28125 44.578125 
Q 40.484375 46.53125 36.375 47.5 
Q 32.28125 48.484375 27.875 48.484375 
Q 21.1875 48.484375 17.84375 46.4375 
Q 14.5 44.390625 14.5 40.28125 
Q 14.5 37.15625 16.890625 35.375 
Q 19.28125 33.59375 26.515625 31.984375 
L 29.59375 31.296875 
Q 39.15625 29.25 43.1875 25.515625 
Q 47.21875 21.78125 47.21875 15.09375 
Q 47.21875 7.46875 41.1875 3.015625 
Q 35.15625 -1.421875 24.609375 -1.421875 
Q 20.21875 -1.421875 15.453125 -0.5625 
Q 10.6875 0.296875 5.421875 2 
L 5.421875 11.28125 
Q 10.40625 8.6875 15.234375 7.390625 
Q 20.0625 6.109375 24.8125 6.109375 
Q 31.15625 6.109375 34.5625 8.28125 
Q 37.984375 10.453125 37.984375 14.40625 
Q 37.984375 18.0625 35.515625 20.015625 
Q 33.0625 21.96875 24.703125 23.78125 
L 21.578125 24.515625 
Q 13.234375 26.265625 9.515625 29.90625 
Q 5.8125 33.546875 5.8125 39.890625 
Q 5.8125 47.609375 11.28125 51.796875 
Q 16.75 56 26.8125 56 
Q 31.78125 56 36.171875 55.265625 
Q 40.578125 54.546875 44.28125 53.078125 
z
" id="DejaVuSans-115"/>
      </defs>
      <g transform="translate(187.204599 820.514352)rotate(-30)scale(0.08 -0.08)">
       <use xlink:href="#DejaVuSans-84"/>
       <use x="60.833984" xlink:href="#DejaVuSans-97"/>
       <use x="122.113281" xlink:href="#DejaVuSans-120"/>
       <use x="181.246094" xlink:href="#DejaVuSans-111"/>
       <use x="242.427734" xlink:href="#DejaVuSans-110"/>
       <use x="305.806641" xlink:href="#DejaVuSans-111"/>
       <use x="366.988281" xlink:href="#DejaVuSans-109"/>
       <use x="464.400391" xlink:href="#DejaVuSans-121"/>
       <use x="523.580078" xlink:href="#DejaVuSans-32"/>
       <use x="555.367188" xlink:href="#DejaVuSans-108"/>
       <use x="583.150391" xlink:href="#DejaVuSans-101"/>
       <use x="644.673828" xlink:href="#DejaVuSans-118"/>
       <use x="703.853516" xlink:href="#DejaVuSans-101"/>
       <use x="765.376953" xlink:href="#DejaVuSans-108"/>
       <use x="793.160156" xlink:href="#DejaVuSans-95"/>
       <use x="843.160156" xlink:href="#DejaVuSans-115"/>
       <use x="895.259766" xlink:href="#DejaVuSans-105"/>
       <use x="923.042969" xlink:href="#DejaVuSans-120"/>
      </g>
     </g>
    </g>
    <g id="xtick_4">
     <g id="line2d_4">
      <g>
       <use style="stroke:#000000;stroke-width:0.8;" x="308.28" xlink:href="#m453da931d5" y="768.96"/>
      </g>
     </g>
     <g id="text_4">
      <!-- taxonomy group_mean -->
      <defs>
       <path d="M 18.3125 70.21875 
L 18.3125 54.6875 
L 36.8125 54.6875 
L 36.8125 47.703125 
L 18.3125 47.703125 
L 18.3125 18.015625 
Q 18.3125 11.328125 20.140625 9.421875 
Q 21.96875 7.515625 27.59375 7.515625 
L 36.8125 7.515625 
L 36.8125 0 
L 27.59375 0 
Q 17.1875 0 13.234375 3.875 
Q 9.28125 7.765625 9.28125 18.015625 
L 9.28125 47.703125 
L 2.6875 47.703125 
L 2.6875 54.6875 
L 9.28125 54.6875 
L 9.28125 70.21875 
z
" id="DejaVuSans-116"/>
       <path d="M 45.40625 27.984375 
Q 45.40625 37.75 41.375 43.109375 
Q 37.359375 48.484375 30.078125 48.484375 
Q 22.859375 48.484375 18.828125 43.109375 
Q 14.796875 37.75 14.796875 27.984375 
Q 14.796875 18.265625 18.828125 12.890625 
Q 22.859375 7.515625 30.078125 7.515625 
Q 37.359375 7.515625 41.375 12.890625 
Q 45.40625 18.265625 45.40625 27.984375 
z
M 54.390625 6.78125 
Q 54.390625 -7.171875 48.1875 -13.984375 
Q 42 -20.796875 29.203125 -20.796875 
Q 24.46875 -20.796875 20.265625 -20.09375 
Q 16.0625 -19.390625 12.109375 -17.921875 
L 12.109375 -9.1875 
Q 16.0625 -11.328125 19.921875 -12.34375 
Q 23.78125 -13.375 27.78125 -13.375 
Q 36.625 -13.375 41.015625 -8.765625 
Q 45.40625 -4.15625 45.40625 5.171875 
L 45.40625 9.625 
Q 42.625 4.78125 38.28125 2.390625 
Q 33.9375 0 27.875 0 
Q 17.828125 0 11.671875 7.65625 
Q 5.515625 15.328125 5.515625 27.984375 
Q 5.515625 40.671875 11.671875 48.328125 
Q 17.828125 56 27.875 56 
Q 33.9375 56 38.28125 53.609375 
Q 42.625 51.21875 45.40625 46.390625 
L 45.40625 54.6875 
L 54.390625 54.6875 
z
" id="DejaVuSans-103"/>
       <path d="M 18.109375 8.203125 
L 18.109375 -20.796875 
L 9.078125 -20.796875 
L 9.078125 54.6875 
L 18.109375 54.6875 
L 18.109375 46.390625 
Q 20.953125 51.265625 25.265625 53.625 
Q 29.59375 56 35.59375 56 
Q 45.5625 56 51.78125 48.09375 
Q 58.015625 40.1875 58.015625 27.296875 
Q 58.015625 14.40625 51.78125 6.484375 
Q 45.5625 -1.421875 35.59375 -1.421875 
Q 29.59375 -1.421875 25.265625 0.953125 
Q 20.953125 3.328125 18.109375 8.203125 
z
M 48.6875 27.296875 
Q 48.6875 37.203125 44.609375 42.84375 
Q 40.53125 48.484375 33.40625 48.484375 
Q 26.265625 48.484375 22.1875 42.84375 
Q 18.109375 37.203125 18.109375 27.296875 
Q 18.109375 17.390625 22.1875 11.75 
Q 26.265625 6.109375 33.40625 6.109375 
Q 40.53125 6.109375 44.609375 11.75 
Q 48.6875 17.390625 48.6875 27.296875 
z
" id="DejaVuSans-112"/>
      </defs>
      <g transform="translate(226.972965 827.429786)rotate(-30)scale(0.08 -0.08)">
       <use xlink:href="#DejaVuSans-116"/>
       <use x="39.208984" xlink:href="#DejaVuSans-97"/>
       <use x="100.488281" xlink:href="#DejaVuSans-120"/>
       <use x="159.621094" xlink:href="#DejaVuSans-111"/>
       <use x="220.802734" xlink:href="#DejaVuSans-110"/>
       <use x="284.181641" xlink:href="#DejaVuSans-111"/>
       <use x="345.363281" xlink:href="#DejaVuSans-109"/>
       <use x="442.775391" xlink:href="#DejaVuSans-121"/>
       <use x="501.955078" xlink:href="#DejaVuSans-32"/>
       <use x="533.742188" xlink:href="#DejaVuSans-103"/>
       <use x="597.21875" xlink:href="#DejaVuSans-114"/>
       <use x="638.300781" xlink:href="#DejaVuSans-111"/>
       <use x="699.482422" xlink:href="#DejaVuSans-117"/>
       <use x="762.861328" xlink:href="#DejaVuSans-112"/>
       <use x="826.337891" xlink:href="#DejaVuSans-95"/>
       <use x="876.337891" xlink:href="#DejaVuSans-109"/>
       <use x="973.75" xlink:href="#DejaVuSans-101"/>
       <use x="1035.273438" xlink:href="#DejaVuSans-97"/>
       <use x="1096.552734" xlink:href="#DejaVuSans-110"/>
      </g>
     </g>
    </g>
    <g id="xtick_5">
     <g id="line2d_5">
      <g>
       <use style="stroke:#000000;stroke-width:0.8;" x="360.36" xlink:href="#m453da931d5" y="768.96"/>
      </g>
     </g>
     <g id="text_5">
      <!-- taxonomy group_sub PCA -->
      <defs>
       <path d="M 48.6875 27.296875 
Q 48.6875 37.203125 44.609375 42.84375 
Q 40.53125 48.484375 33.40625 48.484375 
Q 26.265625 48.484375 22.1875 42.84375 
Q 18.109375 37.203125 18.109375 27.296875 
Q 18.109375 17.390625 22.1875 11.75 
Q 26.265625 6.109375 33.40625 6.109375 
Q 40.53125 6.109375 44.609375 11.75 
Q 48.6875 17.390625 48.6875 27.296875 
z
M 18.109375 46.390625 
Q 20.953125 51.265625 25.265625 53.625 
Q 29.59375 56 35.59375 56 
Q 45.5625 56 51.78125 48.09375 
Q 58.015625 40.1875 58.015625 27.296875 
Q 58.015625 14.40625 51.78125 6.484375 
Q 45.5625 -1.421875 35.59375 -1.421875 
Q 29.59375 -1.421875 25.265625 0.953125 
Q 20.953125 3.328125 18.109375 8.203125 
L 18.109375 0 
L 9.078125 0 
L 9.078125 75.984375 
L 18.109375 75.984375 
z
" id="DejaVuSans-98"/>
       <path d="M 19.671875 64.796875 
L 19.671875 37.40625 
L 32.078125 37.40625 
Q 38.96875 37.40625 42.71875 40.96875 
Q 46.484375 44.53125 46.484375 51.125 
Q 46.484375 57.671875 42.71875 61.234375 
Q 38.96875 64.796875 32.078125 64.796875 
z
M 9.8125 72.90625 
L 32.078125 72.90625 
Q 44.34375 72.90625 50.609375 67.359375 
Q 56.890625 61.8125 56.890625 51.125 
Q 56.890625 40.328125 50.609375 34.8125 
Q 44.34375 29.296875 32.078125 29.296875 
L 19.671875 29.296875 
L 19.671875 0 
L 9.8125 0 
z
" id="DejaVuSans-80"/>
       <path d="M 64.40625 67.28125 
L 64.40625 56.890625 
Q 59.421875 61.53125 53.78125 63.8125 
Q 48.140625 66.109375 41.796875 66.109375 
Q 29.296875 66.109375 22.65625 58.46875 
Q 16.015625 50.828125 16.015625 36.375 
Q 16.015625 21.96875 22.65625 14.328125 
Q 29.296875 6.6875 41.796875 6.6875 
Q 48.140625 6.6875 53.78125 8.984375 
Q 59.421875 11.28125 64.40625 15.921875 
L 64.40625 5.609375 
Q 59.234375 2.09375 53.4375 0.328125 
Q 47.65625 -1.421875 41.21875 -1.421875 
Q 24.65625 -1.421875 15.125 8.703125 
Q 5.609375 18.84375 5.609375 36.375 
Q 5.609375 53.953125 15.125 64.078125 
Q 24.65625 74.21875 41.21875 74.21875 
Q 47.75 74.21875 53.53125 72.484375 
Q 59.328125 70.75 64.40625 67.28125 
z
" id="DejaVuSans-67"/>
       <path d="M 34.1875 63.1875 
L 20.796875 26.90625 
L 47.609375 26.90625 
z
M 28.609375 72.90625 
L 39.796875 72.90625 
L 67.578125 0 
L 57.328125 0 
L 50.6875 18.703125 
L 17.828125 18.703125 
L 11.1875 0 
L 0.78125 0 
z
" id="DejaVuSans-65"/>
      </defs>
      <g transform="translate(270.346162 832.649352)rotate(-30)scale(0.08 -0.08)">
       <use xlink:href="#DejaVuSans-116"/>
       <use x="39.208984" xlink:href="#DejaVuSans-97"/>
       <use x="100.488281" xlink:href="#DejaVuSans-120"/>
       <use x="159.621094" xlink:href="#DejaVuSans-111"/>
       <use x="220.802734" xlink:href="#DejaVuSans-110"/>
       <use x="284.181641" xlink:href="#DejaVuSans-111"/>
       <use x="345.363281" xlink:href="#DejaVuSans-109"/>
       <use x="442.775391" xlink:href="#DejaVuSans-121"/>
       <use x="501.955078" xlink:href="#DejaVuSans-32"/>
       <use x="533.742188" xlink:href="#DejaVuSans-103"/>
       <use x="597.21875" xlink:href="#DejaVuSans-114"/>
       <use x="638.300781" xlink:href="#DejaVuSans-111"/>
       <use x="699.482422" xlink:href="#DejaVuSans-117"/>
       <use x="762.861328" xlink:href="#DejaVuSans-112"/>
       <use x="826.337891" xlink:href="#DejaVuSans-95"/>
       <use x="876.337891" xlink:href="#DejaVuSans-115"/>
       <use x="928.4375" xlink:href="#DejaVuSans-117"/>
       <use x="991.816406" xlink:href="#DejaVuSans-98"/>
       <use x="1055.292969" xlink:href="#DejaVuSans-32"/>
       <use x="1087.080078" xlink:href="#DejaVuSans-80"/>
       <use x="1147.382812" xlink:href="#DejaVuSans-67"/>
       <use x="1217.207031" xlink:href="#DejaVuSans-65"/>
      </g>
     </g>
    </g>
    <g id="xtick_6">
     <g id="line2d_6">
      <g>
       <use style="stroke:#000000;stroke-width:0.8;" x="412.44" xlink:href="#m453da931d5" y="768.96"/>
      </g>
     </g>
     <g id="text_6">
      <!-- taxonomy group_sum -->
      <g transform="translate(336.032504 824.601036)rotate(-30)scale(0.08 -0.08)">
       <use xlink:href="#DejaVuSans-116"/>
       <use x="39.208984" xlink:href="#DejaVuSans-97"/>
       <use x="100.488281" xlink:href="#DejaVuSans-120"/>
       <use x="159.621094" xlink:href="#DejaVuSans-111"/>
       <use x="220.802734" xlink:href="#DejaVuSans-110"/>
       <use x="284.181641" xlink:href="#DejaVuSans-111"/>
       <use x="345.363281" xlink:href="#DejaVuSans-109"/>
       <use x="442.775391" xlink:href="#DejaVuSans-121"/>
       <use x="501.955078" xlink:href="#DejaVuSans-32"/>
       <use x="533.742188" xlink:href="#DejaVuSans-103"/>
       <use x="597.21875" xlink:href="#DejaVuSans-114"/>
       <use x="638.300781" xlink:href="#DejaVuSans-111"/>
       <use x="699.482422" xlink:href="#DejaVuSans-117"/>
       <use x="762.861328" xlink:href="#DejaVuSans-112"/>
       <use x="826.337891" xlink:href="#DejaVuSans-95"/>
       <use x="876.337891" xlink:href="#DejaVuSans-115"/>
       <use x="928.4375" xlink:href="#DejaVuSans-117"/>
       <use x="991.816406" xlink:href="#DejaVuSans-109"/>
      </g>
     </g>
    </g>
    <g id="xtick_7">
     <g id="line2d_7">
      <g>
       <use style="stroke:#000000;stroke-width:0.8;" x="464.52" xlink:href="#m453da931d5" y="768.96"/>
      </g>
     </g>
     <g id="text_7">
      <!-- Dim Red_ICA -->
      <defs>
       <path d="M 19.671875 64.796875 
L 19.671875 8.109375 
L 31.59375 8.109375 
Q 46.6875 8.109375 53.6875 14.9375 
Q 60.6875 21.78125 60.6875 36.53125 
Q 60.6875 51.171875 53.6875 57.984375 
Q 46.6875 64.796875 31.59375 64.796875 
z
M 9.8125 72.90625 
L 30.078125 72.90625 
Q 51.265625 72.90625 61.171875 64.09375 
Q 71.09375 55.28125 71.09375 36.53125 
Q 71.09375 17.671875 61.125 8.828125 
Q 51.171875 0 30.078125 0 
L 9.8125 0 
z
" id="DejaVuSans-68"/>
       <path d="M 44.390625 34.1875 
Q 47.5625 33.109375 50.5625 29.59375 
Q 53.5625 26.078125 56.59375 19.921875 
L 66.609375 0 
L 56 0 
L 46.6875 18.703125 
Q 43.0625 26.03125 39.671875 28.421875 
Q 36.28125 30.8125 30.421875 30.8125 
L 19.671875 30.8125 
L 19.671875 0 
L 9.8125 0 
L 9.8125 72.90625 
L 32.078125 72.90625 
Q 44.578125 72.90625 50.734375 67.671875 
Q 56.890625 62.453125 56.890625 51.90625 
Q 56.890625 45.015625 53.6875 40.46875 
Q 50.484375 35.9375 44.390625 34.1875 
z
M 19.671875 64.796875 
L 19.671875 38.921875 
L 32.078125 38.921875 
Q 39.203125 38.921875 42.84375 42.21875 
Q 46.484375 45.515625 46.484375 51.90625 
Q 46.484375 58.296875 42.84375 61.546875 
Q 39.203125 64.796875 32.078125 64.796875 
z
" id="DejaVuSans-82"/>
       <path d="M 45.40625 46.390625 
L 45.40625 75.984375 
L 54.390625 75.984375 
L 54.390625 0 
L 45.40625 0 
L 45.40625 8.203125 
Q 42.578125 3.328125 38.25 0.953125 
Q 33.9375 -1.421875 27.875 -1.421875 
Q 17.96875 -1.421875 11.734375 6.484375 
Q 5.515625 14.40625 5.515625 27.296875 
Q 5.515625 40.1875 11.734375 48.09375 
Q 17.96875 56 27.875 56 
Q 33.9375 56 38.25 53.625 
Q 42.578125 51.265625 45.40625 46.390625 
z
M 14.796875 27.296875 
Q 14.796875 17.390625 18.875 11.75 
Q 22.953125 6.109375 30.078125 6.109375 
Q 37.203125 6.109375 41.296875 11.75 
Q 45.40625 17.390625 45.40625 27.296875 
Q 45.40625 37.203125 41.296875 42.84375 
Q 37.203125 48.484375 30.078125 48.484375 
Q 22.953125 48.484375 18.875 42.84375 
Q 14.796875 37.203125 14.796875 27.296875 
z
" id="DejaVuSans-100"/>
       <path d="M 9.8125 72.90625 
L 19.671875 72.90625 
L 19.671875 0 
L 9.8125 0 
z
" id="DejaVuSans-73"/>
      </defs>
      <g transform="translate(418.810939 807.069977)rotate(-30)scale(0.08 -0.08)">
       <use xlink:href="#DejaVuSans-68"/>
       <use x="77.001953" xlink:href="#DejaVuSans-105"/>
       <use x="104.785156" xlink:href="#DejaVuSans-109"/>
       <use x="202.197266" xlink:href="#DejaVuSans-32"/>
       <use x="233.984375" xlink:href="#DejaVuSans-82"/>
       <use x="303.404297" xlink:href="#DejaVuSans-101"/>
       <use x="364.927734" xlink:href="#DejaVuSans-100"/>
       <use x="428.404297" xlink:href="#DejaVuSans-95"/>
       <use x="478.404297" xlink:href="#DejaVuSans-73"/>
       <use x="507.896484" xlink:href="#DejaVuSans-67"/>
       <use x="577.720703" xlink:href="#DejaVuSans-65"/>
      </g>
     </g>
    </g>
    <g id="xtick_8">
     <g id="line2d_8">
      <g>
       <use style="stroke:#000000;stroke-width:0.8;" x="516.6" xlink:href="#m453da931d5" y="768.96"/>
      </g>
     </g>
     <g id="text_8">
      <!-- Dim Red_None -->
      <defs>
       <path d="M 9.8125 72.90625 
L 23.09375 72.90625 
L 55.421875 11.921875 
L 55.421875 72.90625 
L 64.984375 72.90625 
L 64.984375 0 
L 51.703125 0 
L 19.390625 60.984375 
L 19.390625 0 
L 9.8125 0 
z
" id="DejaVuSans-78"/>
      </defs>
      <g transform="translate(464.435802 810.796852)rotate(-30)scale(0.08 -0.08)">
       <use xlink:href="#DejaVuSans-68"/>
       <use x="77.001953" xlink:href="#DejaVuSans-105"/>
       <use x="104.785156" xlink:href="#DejaVuSans-109"/>
       <use x="202.197266" xlink:href="#DejaVuSans-32"/>
       <use x="233.984375" xlink:href="#DejaVuSans-82"/>
       <use x="303.404297" xlink:href="#DejaVuSans-101"/>
       <use x="364.927734" xlink:href="#DejaVuSans-100"/>
       <use x="428.404297" xlink:href="#DejaVuSans-95"/>
       <use x="478.404297" xlink:href="#DejaVuSans-78"/>
       <use x="553.208984" xlink:href="#DejaVuSans-111"/>
       <use x="614.390625" xlink:href="#DejaVuSans-110"/>
       <use x="677.769531" xlink:href="#DejaVuSans-101"/>
      </g>
     </g>
    </g>
    <g id="xtick_9">
     <g id="line2d_9">
      <g>
       <use style="stroke:#000000;stroke-width:0.8;" x="568.68" xlink:href="#m453da931d5" y="768.96"/>
      </g>
     </g>
     <g id="text_9">
      <!-- Dim Red_PCA -->
      <g transform="translate(520.837269 808.301852)rotate(-30)scale(0.08 -0.08)">
       <use xlink:href="#DejaVuSans-68"/>
       <use x="77.001953" xlink:href="#DejaVuSans-105"/>
       <use x="104.785156" xlink:href="#DejaVuSans-109"/>
       <use x="202.197266" xlink:href="#DejaVuSans-32"/>
       <use x="233.984375" xlink:href="#DejaVuSans-82"/>
       <use x="303.404297" xlink:href="#DejaVuSans-101"/>
       <use x="364.927734" xlink:href="#DejaVuSans-100"/>
       <use x="428.404297" xlink:href="#DejaVuSans-95"/>
       <use x="478.404297" xlink:href="#DejaVuSans-80"/>
       <use x="538.707031" xlink:href="#DejaVuSans-67"/>
       <use x="608.53125" xlink:href="#DejaVuSans-65"/>
      </g>
     </g>
    </g>
    <g id="xtick_10">
     <g id="line2d_10">
      <g>
       <use style="stroke:#000000;stroke-width:0.8;" x="620.76" xlink:href="#m453da931d5" y="768.96"/>
      </g>
     </g>
     <g id="text_10">
      <!-- normalization_logNo -->
      <defs>
       <path d="M 5.515625 54.6875 
L 48.1875 54.6875 
L 48.1875 46.484375 
L 14.40625 7.171875 
L 48.1875 7.171875 
L 48.1875 0 
L 4.296875 0 
L 4.296875 8.203125 
L 38.09375 47.515625 
L 5.515625 47.515625 
z
" id="DejaVuSans-122"/>
      </defs>
      <g transform="translate(548.894807 822.171227)rotate(-30)scale(0.08 -0.08)">
       <use xlink:href="#DejaVuSans-110"/>
       <use x="63.378906" xlink:href="#DejaVuSans-111"/>
       <use x="124.560547" xlink:href="#DejaVuSans-114"/>
       <use x="165.658203" xlink:href="#DejaVuSans-109"/>
       <use x="263.070312" xlink:href="#DejaVuSans-97"/>
       <use x="324.349609" xlink:href="#DejaVuSans-108"/>
       <use x="352.132812" xlink:href="#DejaVuSans-105"/>
       <use x="379.916016" xlink:href="#DejaVuSans-122"/>
       <use x="432.40625" xlink:href="#DejaVuSans-97"/>
       <use x="493.685547" xlink:href="#DejaVuSans-116"/>
       <use x="532.894531" xlink:href="#DejaVuSans-105"/>
       <use x="560.677734" xlink:href="#DejaVuSans-111"/>
       <use x="621.859375" xlink:href="#DejaVuSans-110"/>
       <use x="685.238281" xlink:href="#DejaVuSans-95"/>
       <use x="735.238281" xlink:href="#DejaVuSans-108"/>
       <use x="763.021484" xlink:href="#DejaVuSans-111"/>
       <use x="824.203125" xlink:href="#DejaVuSans-103"/>
       <use x="887.679688" xlink:href="#DejaVuSans-78"/>
       <use x="962.484375" xlink:href="#DejaVuSans-111"/>
      </g>
     </g>
    </g>
    <g id="xtick_11">
     <g id="line2d_11">
      <g>
       <use style="stroke:#000000;stroke-width:0.8;" x="672.84" xlink:href="#m453da931d5" y="768.96"/>
      </g>
     </g>
     <g id="text_11">
      <!-- normalization_logboth -->
      <defs>
       <path d="M 54.890625 33.015625 
L 54.890625 0 
L 45.90625 0 
L 45.90625 32.71875 
Q 45.90625 40.484375 42.875 44.328125 
Q 39.84375 48.1875 33.796875 48.1875 
Q 26.515625 48.1875 22.3125 43.546875 
Q 18.109375 38.921875 18.109375 30.90625 
L 18.109375 0 
L 9.078125 0 
L 9.078125 75.984375 
L 18.109375 75.984375 
L 18.109375 46.1875 
Q 21.34375 51.125 25.703125 53.5625 
Q 30.078125 56 35.796875 56 
Q 45.21875 56 50.046875 50.171875 
Q 54.890625 44.34375 54.890625 33.015625 
z
" id="DejaVuSans-104"/>
      </defs>
      <g transform="translate(594.652822 825.821227)rotate(-30)scale(0.08 -0.08)">
       <use xlink:href="#DejaVuSans-110"/>
       <use x="63.378906" xlink:href="#DejaVuSans-111"/>
       <use x="124.560547" xlink:href="#DejaVuSans-114"/>
       <use x="165.658203" xlink:href="#DejaVuSans-109"/>
       <use x="263.070312" xlink:href="#DejaVuSans-97"/>
       <use x="324.349609" xlink:href="#DejaVuSans-108"/>
       <use x="352.132812" xlink:href="#DejaVuSans-105"/>
       <use x="379.916016" xlink:href="#DejaVuSans-122"/>
       <use x="432.40625" xlink:href="#DejaVuSans-97"/>
       <use x="493.685547" xlink:href="#DejaVuSans-116"/>
       <use x="532.894531" xlink:href="#DejaVuSans-105"/>
       <use x="560.677734" xlink:href="#DejaVuSans-111"/>
       <use x="621.859375" xlink:href="#DejaVuSans-110"/>
       <use x="685.238281" xlink:href="#DejaVuSans-95"/>
       <use x="735.238281" xlink:href="#DejaVuSans-108"/>
       <use x="763.021484" xlink:href="#DejaVuSans-111"/>
       <use x="824.203125" xlink:href="#DejaVuSans-103"/>
       <use x="887.679688" xlink:href="#DejaVuSans-98"/>
       <use x="951.15625" xlink:href="#DejaVuSans-111"/>
       <use x="1012.337891" xlink:href="#DejaVuSans-116"/>
       <use x="1051.546875" xlink:href="#DejaVuSans-104"/>
      </g>
     </g>
    </g>
    <g id="xtick_12">
     <g id="line2d_12">
      <g>
       <use style="stroke:#000000;stroke-width:0.8;" x="724.92" xlink:href="#m453da931d5" y="768.96"/>
      </g>
     </g>
     <g id="text_12">
      <!-- normalization_logcol -->
      <defs>
       <path d="M 48.78125 52.59375 
L 48.78125 44.1875 
Q 44.96875 46.296875 41.140625 47.34375 
Q 37.3125 48.390625 33.40625 48.390625 
Q 24.65625 48.390625 19.8125 42.84375 
Q 14.984375 37.3125 14.984375 27.296875 
Q 14.984375 17.28125 19.8125 11.734375 
Q 24.65625 6.203125 33.40625 6.203125 
Q 37.3125 6.203125 41.140625 7.25 
Q 44.96875 8.296875 48.78125 10.40625 
L 48.78125 2.09375 
Q 45.015625 0.34375 40.984375 -0.53125 
Q 36.96875 -1.421875 32.421875 -1.421875 
Q 20.0625 -1.421875 12.78125 6.34375 
Q 5.515625 14.109375 5.515625 27.296875 
Q 5.515625 40.671875 12.859375 48.328125 
Q 20.21875 56 33.015625 56 
Q 37.15625 56 41.109375 55.140625 
Q 45.0625 54.296875 48.78125 52.59375 
z
" id="DejaVuSans-99"/>
      </defs>
      <g transform="translate(652.503798 822.489352)rotate(-30)scale(0.08 -0.08)">
       <use xlink:href="#DejaVuSans-110"/>
       <use x="63.378906" xlink:href="#DejaVuSans-111"/>
       <use x="124.560547" xlink:href="#DejaVuSans-114"/>
       <use x="165.658203" xlink:href="#DejaVuSans-109"/>
       <use x="263.070312" xlink:href="#DejaVuSans-97"/>
       <use x="324.349609" xlink:href="#DejaVuSans-108"/>
       <use x="352.132812" xlink:href="#DejaVuSans-105"/>
       <use x="379.916016" xlink:href="#DejaVuSans-122"/>
       <use x="432.40625" xlink:href="#DejaVuSans-97"/>
       <use x="493.685547" xlink:href="#DejaVuSans-116"/>
       <use x="532.894531" xlink:href="#DejaVuSans-105"/>
       <use x="560.677734" xlink:href="#DejaVuSans-111"/>
       <use x="621.859375" xlink:href="#DejaVuSans-110"/>
       <use x="685.238281" xlink:href="#DejaVuSans-95"/>
       <use x="735.238281" xlink:href="#DejaVuSans-108"/>
       <use x="763.021484" xlink:href="#DejaVuSans-111"/>
       <use x="824.203125" xlink:href="#DejaVuSans-103"/>
       <use x="887.679688" xlink:href="#DejaVuSans-99"/>
       <use x="942.660156" xlink:href="#DejaVuSans-111"/>
       <use x="1003.841797" xlink:href="#DejaVuSans-108"/>
      </g>
     </g>
    </g>
    <g id="xtick_13">
     <g id="line2d_13">
      <g>
       <use style="stroke:#000000;stroke-width:0.8;" x="777" xlink:href="#m453da931d5" y="768.96"/>
      </g>
     </g>
     <g id="text_13">
      <!-- normalization_logrow -->
      <defs>
       <path d="M 4.203125 54.6875 
L 13.1875 54.6875 
L 24.421875 12.015625 
L 35.59375 54.6875 
L 46.1875 54.6875 
L 57.421875 12.015625 
L 68.609375 54.6875 
L 77.59375 54.6875 
L 63.28125 0 
L 52.6875 0 
L 40.921875 44.828125 
L 29.109375 0 
L 18.5 0 
z
" id="DejaVuSans-119"/>
      </defs>
      <g transform="translate(701.806022 824.093102)rotate(-30)scale(0.08 -0.08)">
       <use xlink:href="#DejaVuSans-110"/>
       <use x="63.378906" xlink:href="#DejaVuSans-111"/>
       <use x="124.560547" xlink:href="#DejaVuSans-114"/>
       <use x="165.658203" xlink:href="#DejaVuSans-109"/>
       <use x="263.070312" xlink:href="#DejaVuSans-97"/>
       <use x="324.349609" xlink:href="#DejaVuSans-108"/>
       <use x="352.132812" xlink:href="#DejaVuSans-105"/>
       <use x="379.916016" xlink:href="#DejaVuSans-122"/>
       <use x="432.40625" xlink:href="#DejaVuSans-97"/>
       <use x="493.685547" xlink:href="#DejaVuSans-116"/>
       <use x="532.894531" xlink:href="#DejaVuSans-105"/>
       <use x="560.677734" xlink:href="#DejaVuSans-111"/>
       <use x="621.859375" xlink:href="#DejaVuSans-110"/>
       <use x="685.238281" xlink:href="#DejaVuSans-95"/>
       <use x="735.238281" xlink:href="#DejaVuSans-108"/>
       <use x="763.021484" xlink:href="#DejaVuSans-111"/>
       <use x="824.203125" xlink:href="#DejaVuSans-103"/>
       <use x="887.679688" xlink:href="#DejaVuSans-114"/>
       <use x="928.761719" xlink:href="#DejaVuSans-111"/>
       <use x="989.943359" xlink:href="#DejaVuSans-119"/>
      </g>
     </g>
    </g>
    <g id="xtick_14">
     <g id="line2d_14">
      <g>
       <use style="stroke:#000000;stroke-width:0.8;" x="829.08" xlink:href="#m453da931d5" y="768.96"/>
      </g>
     </g>
     <g id="text_14">
      <!-- normalization_relativeNo -->
      <g transform="translate(741.493198 831.248102)rotate(-30)scale(0.08 -0.08)">
       <use xlink:href="#DejaVuSans-110"/>
       <use x="63.378906" xlink:href="#DejaVuSans-111"/>
       <use x="124.560547" xlink:href="#DejaVuSans-114"/>
       <use x="165.658203" xlink:href="#DejaVuSans-109"/>
       <use x="263.070312" xlink:href="#DejaVuSans-97"/>
       <use x="324.349609" xlink:href="#DejaVuSans-108"/>
       <use x="352.132812" xlink:href="#DejaVuSans-105"/>
       <use x="379.916016" xlink:href="#DejaVuSans-122"/>
       <use x="432.40625" xlink:href="#DejaVuSans-97"/>
       <use x="493.685547" xlink:href="#DejaVuSans-116"/>
       <use x="532.894531" xlink:href="#DejaVuSans-105"/>
       <use x="560.677734" xlink:href="#DejaVuSans-111"/>
       <use x="621.859375" xlink:href="#DejaVuSans-110"/>
       <use x="685.238281" xlink:href="#DejaVuSans-95"/>
       <use x="735.238281" xlink:href="#DejaVuSans-114"/>
       <use x="776.320312" xlink:href="#DejaVuSans-101"/>
       <use x="837.84375" xlink:href="#DejaVuSans-108"/>
       <use x="865.626953" xlink:href="#DejaVuSans-97"/>
       <use x="926.90625" xlink:href="#DejaVuSans-116"/>
       <use x="966.115234" xlink:href="#DejaVuSans-105"/>
       <use x="993.898438" xlink:href="#DejaVuSans-118"/>
       <use x="1053.078125" xlink:href="#DejaVuSans-101"/>
       <use x="1114.601562" xlink:href="#DejaVuSans-78"/>
       <use x="1189.40625" xlink:href="#DejaVuSans-111"/>
      </g>
     </g>
    </g>
    <g id="xtick_15">
     <g id="line2d_15">
      <g>
       <use style="stroke:#000000;stroke-width:0.8;" x="881.16" xlink:href="#m453da931d5" y="768.96"/>
      </g>
     </g>
     <g id="text_15">
      <!-- normalization_relativez_after_relative -->
      <g transform="translate(749.636482 856.614977)rotate(-30)scale(0.08 -0.08)">
       <use xlink:href="#DejaVuSans-110"/>
       <use x="63.378906" xlink:href="#DejaVuSans-111"/>
       <use x="124.560547" xlink:href="#DejaVuSans-114"/>
       <use x="165.658203" xlink:href="#DejaVuSans-109"/>
       <use x="263.070312" xlink:href="#DejaVuSans-97"/>
       <use x="324.349609" xlink:href="#DejaVuSans-108"/>
       <use x="352.132812" xlink:href="#DejaVuSans-105"/>
       <use x="379.916016" xlink:href="#DejaVuSans-122"/>
       <use x="432.40625" xlink:href="#DejaVuSans-97"/>
       <use x="493.685547" xlink:href="#DejaVuSans-116"/>
       <use x="532.894531" xlink:href="#DejaVuSans-105"/>
       <use x="560.677734" xlink:href="#DejaVuSans-111"/>
       <use x="621.859375" xlink:href="#DejaVuSans-110"/>
       <use x="685.238281" xlink:href="#DejaVuSans-95"/>
       <use x="735.238281" xlink:href="#DejaVuSans-114"/>
       <use x="776.320312" xlink:href="#DejaVuSans-101"/>
       <use x="837.84375" xlink:href="#DejaVuSans-108"/>
       <use x="865.626953" xlink:href="#DejaVuSans-97"/>
       <use x="926.90625" xlink:href="#DejaVuSans-116"/>
       <use x="966.115234" xlink:href="#DejaVuSans-105"/>
       <use x="993.898438" xlink:href="#DejaVuSans-118"/>
       <use x="1053.078125" xlink:href="#DejaVuSans-101"/>
       <use x="1114.601562" xlink:href="#DejaVuSans-122"/>
       <use x="1167.091797" xlink:href="#DejaVuSans-95"/>
       <use x="1217.091797" xlink:href="#DejaVuSans-97"/>
       <use x="1278.371094" xlink:href="#DejaVuSans-102"/>
       <use x="1313.560547" xlink:href="#DejaVuSans-116"/>
       <use x="1352.769531" xlink:href="#DejaVuSans-101"/>
       <use x="1414.292969" xlink:href="#DejaVuSans-114"/>
       <use x="1455.40625" xlink:href="#DejaVuSans-95"/>
       <use x="1505.40625" xlink:href="#DejaVuSans-114"/>
       <use x="1546.488281" xlink:href="#DejaVuSans-101"/>
       <use x="1608.011719" xlink:href="#DejaVuSans-108"/>
       <use x="1635.794922" xlink:href="#DejaVuSans-97"/>
       <use x="1697.074219" xlink:href="#DejaVuSans-116"/>
       <use x="1736.283203" xlink:href="#DejaVuSans-105"/>
       <use x="1764.066406" xlink:href="#DejaVuSans-118"/>
       <use x="1823.246094" xlink:href="#DejaVuSans-101"/>
      </g>
     </g>
    </g>
   </g>
   <g id="matplotlib.axis_2">
    <g id="ytick_1">
     <g id="line2d_16">
      <defs>
       <path d="M 0 0 
L -3.5 0 
" id="m90abd2e332" style="stroke:#000000;stroke-width:0.8;"/>
      </defs>
      <g>
       <use style="stroke:#000000;stroke-width:0.8;" x="126" xlink:href="#m90abd2e332" y="736.374542"/>
      </g>
     </g>
     <g id="text_16">
      <!-- −0.125 -->
      <defs>
       <path d="M 10.59375 35.5 
L 73.1875 35.5 
L 73.1875 27.203125 
L 10.59375 27.203125 
z
" id="DejaVuSans-8722"/>
       <path d="M 31.78125 66.40625 
Q 24.171875 66.40625 20.328125 58.90625 
Q 16.5 51.421875 16.5 36.375 
Q 16.5 21.390625 20.328125 13.890625 
Q 24.171875 6.390625 31.78125 6.390625 
Q 39.453125 6.390625 43.28125 13.890625 
Q 47.125 21.390625 47.125 36.375 
Q 47.125 51.421875 43.28125 58.90625 
Q 39.453125 66.40625 31.78125 66.40625 
z
M 31.78125 74.21875 
Q 44.046875 74.21875 50.515625 64.515625 
Q 56.984375 54.828125 56.984375 36.375 
Q 56.984375 17.96875 50.515625 8.265625 
Q 44.046875 -1.421875 31.78125 -1.421875 
Q 19.53125 -1.421875 13.0625 8.265625 
Q 6.59375 17.96875 6.59375 36.375 
Q 6.59375 54.828125 13.0625 64.515625 
Q 19.53125 74.21875 31.78125 74.21875 
z
" id="DejaVuSans-48"/>
       <path d="M 10.6875 12.40625 
L 21 12.40625 
L 21 0 
L 10.6875 0 
z
" id="DejaVuSans-46"/>
       <path d="M 12.40625 8.296875 
L 28.515625 8.296875 
L 28.515625 63.921875 
L 10.984375 60.40625 
L 10.984375 69.390625 
L 28.421875 72.90625 
L 38.28125 72.90625 
L 38.28125 8.296875 
L 54.390625 8.296875 
L 54.390625 0 
L 12.40625 0 
z
" id="DejaVuSans-49"/>
       <path d="M 19.1875 8.296875 
L 53.609375 8.296875 
L 53.609375 0 
L 7.328125 0 
L 7.328125 8.296875 
Q 12.9375 14.109375 22.625 23.890625 
Q 32.328125 33.6875 34.8125 36.53125 
Q 39.546875 41.84375 41.421875 45.53125 
Q 43.3125 49.21875 43.3125 52.78125 
Q 43.3125 58.59375 39.234375 62.25 
Q 35.15625 65.921875 28.609375 65.921875 
Q 23.96875 65.921875 18.8125 64.3125 
Q 13.671875 62.703125 7.8125 59.421875 
L 7.8125 69.390625 
Q 13.765625 71.78125 18.9375 73 
Q 24.125 74.21875 28.421875 74.21875 
Q 39.75 74.21875 46.484375 68.546875 
Q 53.21875 62.890625 53.21875 53.421875 
Q 53.21875 48.921875 51.53125 44.890625 
Q 49.859375 40.875 45.40625 35.40625 
Q 44.1875 33.984375 37.640625 27.21875 
Q 31.109375 20.453125 19.1875 8.296875 
z
" id="DejaVuSans-50"/>
       <path d="M 10.796875 72.90625 
L 49.515625 72.90625 
L 49.515625 64.59375 
L 19.828125 64.59375 
L 19.828125 46.734375 
Q 21.96875 47.46875 24.109375 47.828125 
Q 26.265625 48.1875 28.421875 48.1875 
Q 40.625 48.1875 47.75 41.5 
Q 54.890625 34.8125 54.890625 23.390625 
Q 54.890625 11.625 47.5625 5.09375 
Q 40.234375 -1.421875 26.90625 -1.421875 
Q 22.3125 -1.421875 17.546875 -0.640625 
Q 12.796875 0.140625 7.71875 1.703125 
L 7.71875 11.625 
Q 12.109375 9.234375 16.796875 8.0625 
Q 21.484375 6.890625 26.703125 6.890625 
Q 35.15625 6.890625 40.078125 11.328125 
Q 45.015625 15.765625 45.015625 23.390625 
Q 45.015625 31 40.078125 35.4375 
Q 35.15625 39.890625 26.703125 39.890625 
Q 22.75 39.890625 18.8125 39.015625 
Q 14.890625 38.140625 10.796875 36.28125 
z
" id="DejaVuSans-53"/>
      </defs>
      <g transform="translate(81.992188 740.173761)scale(0.1 -0.1)">
       <use xlink:href="#DejaVuSans-8722"/>
       <use x="83.789062" xlink:href="#DejaVuSans-48"/>
       <use x="147.412109" xlink:href="#DejaVuSans-46"/>
       <use x="179.199219" xlink:href="#DejaVuSans-49"/>
       <use x="242.822266" xlink:href="#DejaVuSans-50"/>
       <use x="306.445312" xlink:href="#DejaVuSans-53"/>
      </g>
     </g>
    </g>
    <g id="ytick_2">
     <g id="line2d_17">
      <g>
       <use style="stroke:#000000;stroke-width:0.8;" x="126" xlink:href="#m90abd2e332" y="649.383041"/>
      </g>
     </g>
     <g id="text_17">
      <!-- −0.100 -->
      <g transform="translate(81.992188 653.18226)scale(0.1 -0.1)">
       <use xlink:href="#DejaVuSans-8722"/>
       <use x="83.789062" xlink:href="#DejaVuSans-48"/>
       <use x="147.412109" xlink:href="#DejaVuSans-46"/>
       <use x="179.199219" xlink:href="#DejaVuSans-49"/>
       <use x="242.822266" xlink:href="#DejaVuSans-48"/>
       <use x="306.445312" xlink:href="#DejaVuSans-48"/>
      </g>
     </g>
    </g>
    <g id="ytick_3">
     <g id="line2d_18">
      <g>
       <use style="stroke:#000000;stroke-width:0.8;" x="126" xlink:href="#m90abd2e332" y="562.391541"/>
      </g>
     </g>
     <g id="text_18">
      <!-- −0.075 -->
      <defs>
       <path d="M 8.203125 72.90625 
L 55.078125 72.90625 
L 55.078125 68.703125 
L 28.609375 0 
L 18.3125 0 
L 43.21875 64.59375 
L 8.203125 64.59375 
z
" id="DejaVuSans-55"/>
      </defs>
      <g transform="translate(81.992188 566.19076)scale(0.1 -0.1)">
       <use xlink:href="#DejaVuSans-8722"/>
       <use x="83.789062" xlink:href="#DejaVuSans-48"/>
       <use x="147.412109" xlink:href="#DejaVuSans-46"/>
       <use x="179.199219" xlink:href="#DejaVuSans-48"/>
       <use x="242.822266" xlink:href="#DejaVuSans-55"/>
       <use x="306.445312" xlink:href="#DejaVuSans-53"/>
      </g>
     </g>
    </g>
    <g id="ytick_4">
     <g id="line2d_19">
      <g>
       <use style="stroke:#000000;stroke-width:0.8;" x="126" xlink:href="#m90abd2e332" y="475.40004"/>
      </g>
     </g>
     <g id="text_19">
      <!-- −0.050 -->
      <g transform="translate(81.992188 479.199259)scale(0.1 -0.1)">
       <use xlink:href="#DejaVuSans-8722"/>
       <use x="83.789062" xlink:href="#DejaVuSans-48"/>
       <use x="147.412109" xlink:href="#DejaVuSans-46"/>
       <use x="179.199219" xlink:href="#DejaVuSans-48"/>
       <use x="242.822266" xlink:href="#DejaVuSans-53"/>
       <use x="306.445312" xlink:href="#DejaVuSans-48"/>
      </g>
     </g>
    </g>
    <g id="ytick_5">
     <g id="line2d_20">
      <g>
       <use style="stroke:#000000;stroke-width:0.8;" x="126" xlink:href="#m90abd2e332" y="388.40854"/>
      </g>
     </g>
     <g id="text_20">
      <!-- −0.025 -->
      <g transform="translate(81.992188 392.207759)scale(0.1 -0.1)">
       <use xlink:href="#DejaVuSans-8722"/>
       <use x="83.789062" xlink:href="#DejaVuSans-48"/>
       <use x="147.412109" xlink:href="#DejaVuSans-46"/>
       <use x="179.199219" xlink:href="#DejaVuSans-48"/>
       <use x="242.822266" xlink:href="#DejaVuSans-50"/>
       <use x="306.445312" xlink:href="#DejaVuSans-53"/>
      </g>
     </g>
    </g>
    <g id="ytick_6">
     <g id="line2d_21">
      <g>
       <use style="stroke:#000000;stroke-width:0.8;" x="126" xlink:href="#m90abd2e332" y="301.417039"/>
      </g>
     </g>
     <g id="text_21">
      <!-- 0.000 -->
      <g transform="translate(90.371875 305.216258)scale(0.1 -0.1)">
       <use xlink:href="#DejaVuSans-48"/>
       <use x="63.623047" xlink:href="#DejaVuSans-46"/>
       <use x="95.410156" xlink:href="#DejaVuSans-48"/>
       <use x="159.033203" xlink:href="#DejaVuSans-48"/>
       <use x="222.65625" xlink:href="#DejaVuSans-48"/>
      </g>
     </g>
    </g>
    <g id="ytick_7">
     <g id="line2d_22">
      <g>
       <use style="stroke:#000000;stroke-width:0.8;" x="126" xlink:href="#m90abd2e332" y="214.425539"/>
      </g>
     </g>
     <g id="text_22">
      <!-- 0.025 -->
      <g transform="translate(90.371875 218.224758)scale(0.1 -0.1)">
       <use xlink:href="#DejaVuSans-48"/>
       <use x="63.623047" xlink:href="#DejaVuSans-46"/>
       <use x="95.410156" xlink:href="#DejaVuSans-48"/>
       <use x="159.033203" xlink:href="#DejaVuSans-50"/>
       <use x="222.65625" xlink:href="#DejaVuSans-53"/>
      </g>
     </g>
    </g>
    <g id="ytick_8">
     <g id="line2d_23">
      <g>
       <use style="stroke:#000000;stroke-width:0.8;" x="126" xlink:href="#m90abd2e332" y="127.434039"/>
      </g>
     </g>
     <g id="text_23">
      <!-- 0.050 -->
      <g transform="translate(90.371875 131.233257)scale(0.1 -0.1)">
       <use xlink:href="#DejaVuSans-48"/>
       <use x="63.623047" xlink:href="#DejaVuSans-46"/>
       <use x="95.410156" xlink:href="#DejaVuSans-48"/>
       <use x="159.033203" xlink:href="#DejaVuSans-53"/>
       <use x="222.65625" xlink:href="#DejaVuSans-48"/>
      </g>
     </g>
    </g>
   </g>
   <g id="patch_3">
    <path d="M 126 768.96 
L 126 103.68 
" style="fill:none;stroke:#000000;stroke-linecap:square;stroke-linejoin:miter;stroke-width:0.8;"/>
   </g>
   <g id="patch_4">
    <path d="M 907.2 768.96 
L 907.2 103.68 
" style="fill:none;stroke:#000000;stroke-linecap:square;stroke-linejoin:miter;stroke-width:0.8;"/>
   </g>
   <g id="patch_5">
    <path d="M 126 768.96 
L 907.2 768.96 
" style="fill:none;stroke:#000000;stroke-linecap:square;stroke-linejoin:miter;stroke-width:0.8;"/>
   </g>
   <g id="patch_6">
    <path d="M 126 103.68 
L 907.2 103.68 
" style="fill:none;stroke:#000000;stroke-linecap:square;stroke-linejoin:miter;stroke-width:0.8;"/>
   </g>
   <g id="PathCollection_1">
    <defs>
     <path d="M 0 2.5 
C 0.663008 2.5 1.29895 2.236584 1.767767 1.767767 
C 2.236584 1.29895 2.5 0.663008 2.5 0 
C 2.5 -0.663008 2.236584 -1.29895 1.767767 -1.767767 
C 1.29895 -2.236584 0.663008 -2.5 0 -2.5 
C -0.663008 -2.5 -1.29895 -2.236584 -1.767767 -1.767767 
C -2.236584 -1.29895 -2.5 -0.663008 -2.5 0 
C -2.5 0.663008 -2.236584 1.29895 -1.767767 1.767767 
C -1.29895 2.236584 -0.663008 2.5 0 2.5 
z
" id="C0_0_b158d47746"/>
    </defs>
    <g clip-path="url(#pa16935bd4f)">
     <use style="fill:#f8889a;" x="148.327645" xlink:href="#C0_0_b158d47746" y="303.116092"/>
    </g>
    <g clip-path="url(#pa16935bd4f)">
     <use style="fill:#f8889a;" x="153.544205" xlink:href="#C0_0_b158d47746" y="315.009461"/>
    </g>
    <g clip-path="url(#pa16935bd4f)">
     <use style="fill:#f8889a;" x="155.713718" xlink:href="#C0_0_b158d47746" y="328.601883"/>
    </g>
    <g clip-path="url(#pa16935bd4f)">
     <use style="fill:#f8889a;" x="152.484987" xlink:href="#C0_0_b158d47746" y="294.620828"/>
    </g>
    <g clip-path="url(#pa16935bd4f)">
     <use style="fill:#f8889a;" x="152.456664" xlink:href="#C0_0_b158d47746" y="337.946673"/>
    </g>
    <g clip-path="url(#pa16935bd4f)">
     <use style="fill:#f8889a;" x="147.414553" xlink:href="#C0_0_b158d47746" y="214.76535"/>
    </g>
   </g>
   <g id="PathCollection_2">
    <defs>
     <path d="M 0 2.5 
C 0.663008 2.5 1.29895 2.236584 1.767767 1.767767 
C 2.236584 1.29895 2.5 0.663008 2.5 0 
C 2.5 -0.663008 2.236584 -1.29895 1.767767 -1.767767 
C 1.29895 -2.236584 0.663008 -2.5 0 -2.5 
C -0.663008 -2.5 -1.29895 -2.236584 -1.767767 -1.767767 
C -2.236584 -1.29895 -2.5 -0.663008 -2.5 0 
C -2.5 0.663008 -2.236584 1.29895 -1.767767 1.767767 
C -1.29895 2.236584 -0.663008 2.5 0 2.5 
z
" id="C1_0_c56b6b8f5b"/>
    </defs>
    <g clip-path="url(#pa16935bd4f)">
     <use style="fill:#f88d5d;" x="202.009094" xlink:href="#C1_0_c56b6b8f5b" y="299.717987"/>
    </g>
    <g clip-path="url(#pa16935bd4f)">
     <use style="fill:#f88d5d;" x="200.88159" xlink:href="#C1_0_c56b6b8f5b" y="410.156415"/>
    </g>
    <g clip-path="url(#pa16935bd4f)">
     <use style="fill:#f88d5d;" x="208.602932" xlink:href="#C1_0_c56b6b8f5b" y="420.350732"/>
    </g>
    <g clip-path="url(#pa16935bd4f)">
     <use style="fill:#f88d5d;" x="207.547072" xlink:href="#C1_0_c56b6b8f5b" y="291.222723"/>
    </g>
    <g clip-path="url(#pa16935bd4f)">
     <use style="fill:#f88d5d;" x="207.200675" xlink:href="#C1_0_c56b6b8f5b" y="337.946673"/>
    </g>
    <g clip-path="url(#pa16935bd4f)">
     <use style="fill:#f88d5d;" x="199.604956" xlink:href="#C1_0_c56b6b8f5b" y="493.409999"/>
    </g>
   </g>
   <g id="PathCollection_3">
    <defs>
     <path d="M 0 2.5 
C 0.663008 2.5 1.29895 2.236584 1.767767 1.767767 
C 2.236584 1.29895 2.5 0.663008 2.5 0 
C 2.5 -0.663008 2.236584 -1.29895 1.767767 -1.767767 
C 1.29895 -2.236584 0.663008 -2.5 0 -2.5 
C -0.663008 -2.5 -1.29895 -2.236584 -1.767767 -1.767767 
C -2.236584 -1.29895 -2.5 -0.663008 -2.5 0 
C -2.5 0.663008 -2.236584 1.29895 -1.767767 1.767767 
C -1.29895 2.236584 -0.663008 2.5 0 2.5 
z
" id="C2_0_7eabff0ba0"/>
    </defs>
    <g clip-path="url(#pa16935bd4f)">
     <use style="fill:#db9e37;" x="258.869346" xlink:href="#C2_0_7eabff0ba0" y="299.717987"/>
    </g>
    <g clip-path="url(#pa16935bd4f)">
     <use style="fill:#db9e37;" x="260.059135" xlink:href="#C2_0_7eabff0ba0" y="185.881453"/>
    </g>
    <g clip-path="url(#pa16935bd4f)">
     <use style="fill:#db9e37;" x="253.326695" xlink:href="#C2_0_7eabff0ba0" y="162.094714"/>
    </g>
    <g clip-path="url(#pa16935bd4f)">
     <use style="fill:#db9e37;" x="252.796204" xlink:href="#C2_0_7eabff0ba0" y="320.10662"/>
    </g>
    <g clip-path="url(#pa16935bd4f)">
     <use style="fill:#db9e37;" x="259.695936" xlink:href="#C2_0_7eabff0ba0" y="227.933008"/>
    </g>
    <g clip-path="url(#pa16935bd4f)">
     <use style="fill:#db9e37;" x="258.83972" xlink:href="#C2_0_7eabff0ba0" y="194.376717"/>
    </g>
   </g>
   <g id="PathCollection_4">
    <defs>
     <path d="M 0 2.5 
C 0.663008 2.5 1.29895 2.236584 1.767767 1.767767 
C 2.236584 1.29895 2.5 0.663008 2.5 0 
C 2.5 -0.663008 2.236584 -1.29895 1.767767 -1.767767 
C 1.29895 -2.236584 0.663008 -2.5 0 -2.5 
C -0.663008 -2.5 -1.29895 -2.236584 -1.767767 -1.767767 
C -2.236584 -1.29895 -2.5 -0.663008 -2.5 0 
C -2.5 0.663008 -2.236584 1.29895 -1.767767 1.767767 
C -1.29895 2.236584 -0.663008 2.5 0 2.5 
z
" id="C3_0_6b667b0a84"/>
    </defs>
    <g clip-path="url(#pa16935bd4f)">
     <use style="fill:#bcaa36;" x="303.687548" xlink:href="#C3_0_6b667b0a84" y="290.373197"/>
    </g>
    <g clip-path="url(#pa16935bd4f)">
     <use style="fill:#bcaa36;" x="306.960475" xlink:href="#C3_0_6b667b0a84" y="328.601883"/>
    </g>
    <g clip-path="url(#pa16935bd4f)">
     <use style="fill:#bcaa36;" x="307.255844" xlink:href="#C3_0_6b667b0a84" y="325.203778"/>
    </g>
    <g clip-path="url(#pa16935bd4f)">
     <use style="fill:#bcaa36;" x="308.803903" xlink:href="#C3_0_6b667b0a84" y="281.028407"/>
    </g>
    <g clip-path="url(#pa16935bd4f)">
     <use style="fill:#bcaa36;" x="312.771513" xlink:href="#C3_0_6b667b0a84" y="297.594171"/>
    </g>
    <g clip-path="url(#pa16935bd4f)">
     <use style="fill:#bcaa36;" x="304.747708" xlink:href="#C3_0_6b667b0a84" y="286.975091"/>
    </g>
   </g>
   <g id="PathCollection_5">
    <defs>
     <path d="M 0 2.5 
C 0.663008 2.5 1.29895 2.236584 1.767767 1.767767 
C 2.236584 1.29895 2.5 0.663008 2.5 0 
C 2.5 -0.663008 2.236584 -1.29895 1.767767 -1.767767 
C 1.29895 -2.236584 0.663008 -2.5 0 -2.5 
C -0.663008 -2.5 -1.29895 -2.236584 -1.767767 -1.767767 
C -2.236584 -1.29895 -2.5 -0.663008 -2.5 0 
C -2.5 0.663008 -2.236584 1.29895 -1.767767 1.767767 
C -1.29895 2.236584 -0.663008 2.5 0 2.5 
z
" id="C4_0_6407933494"/>
    </defs>
    <g clip-path="url(#pa16935bd4f)">
     <use style="fill:#9ab436;" x="359.538226" xlink:href="#C4_0_6407933494" y="257.241668"/>
    </g>
    <g clip-path="url(#pa16935bd4f)">
     <use style="fill:#9ab436;" x="359.933681" xlink:href="#C4_0_6407933494" y="270.83409"/>
    </g>
    <g clip-path="url(#pa16935bd4f)">
     <use style="fill:#9ab436;" x="364.942001" xlink:href="#C4_0_6407933494" y="217.313929"/>
    </g>
    <g clip-path="url(#pa16935bd4f)">
     <use style="fill:#9ab436;" x="360.979523" xlink:href="#C4_0_6407933494" y="235.153982"/>
    </g>
    <g clip-path="url(#pa16935bd4f)">
     <use style="fill:#9ab436;" x="357.555352" xlink:href="#C4_0_6407933494" y="353.769102"/>
    </g>
    <g clip-path="url(#pa16935bd4f)">
     <use style="fill:#9ab436;" x="363.757113" xlink:href="#C4_0_6407933494" y="219.012981"/>
    </g>
   </g>
   <g id="PathCollection_6">
    <defs>
     <path d="M 0 2.5 
C 0.663008 2.5 1.29895 2.236584 1.767767 1.767767 
C 2.236584 1.29895 2.5 0.663008 2.5 0 
C 2.5 -0.663008 2.236584 -1.29895 1.767767 -1.767767 
C 1.29895 -2.236584 0.663008 -2.5 0 -2.5 
C -0.663008 -2.5 -1.29895 -2.236584 -1.767767 -1.767767 
C -2.236584 -1.29895 -2.5 -0.663008 -2.5 0 
C -2.5 0.663008 -2.236584 1.29895 -1.767767 1.767767 
C -1.29895 2.236584 -0.663008 2.5 0 2.5 
z
" id="C5_0_1faf68b819"/>
    </defs>
    <g clip-path="url(#pa16935bd4f)">
     <use style="fill:#57bf36;" x="408.857094" xlink:href="#C5_0_1faf68b819" y="358.335306"/>
    </g>
    <g clip-path="url(#pa16935bd4f)">
     <use style="fill:#57bf36;" x="408.886837" xlink:href="#C5_0_1faf68b819" y="301.417039"/>
    </g>
    <g clip-path="url(#pa16935bd4f)">
     <use style="fill:#57bf36;" x="412.845645" xlink:href="#C5_0_1faf68b819" y="364.281991"/>
    </g>
    <g clip-path="url(#pa16935bd4f)">
     <use style="fill:#57bf36;" x="412.3461" xlink:href="#C5_0_1faf68b819" y="388.918256"/>
    </g>
    <g clip-path="url(#pa16935bd4f)">
     <use style="fill:#57bf36;" x="408.359116" xlink:href="#C5_0_1faf68b819" y="252.940941"/>
    </g>
    <g clip-path="url(#pa16935bd4f)">
     <use style="fill:#57bf36;" x="415.397883" xlink:href="#C5_0_1faf68b819" y="399.962099"/>
    </g>
   </g>
   <g id="PathCollection_7">
    <defs>
     <path d="M 0 2.5 
C 0.663008 2.5 1.29895 2.236584 1.767767 1.767767 
C 2.236584 1.29895 2.5 0.663008 2.5 0 
C 2.5 -0.663008 2.236584 -1.29895 1.767767 -1.767767 
C 1.29895 -2.236584 0.663008 -2.5 0 -2.5 
C -0.663008 -2.5 -1.29895 -2.236584 -1.767767 -1.767767 
C -2.236584 -1.29895 -2.5 -0.663008 -2.5 0 
C -2.5 0.663008 -2.236584 1.29895 -1.767767 1.767767 
C -1.29895 2.236584 -0.663008 2.5 0 2.5 
z
" id="C6_0_1d27cba92e"/>
    </defs>
    <g clip-path="url(#pa16935bd4f)">
     <use style="fill:#38bf85;" x="467.052248" xlink:href="#C6_0_1d27cba92e" y="355.361964"/>
    </g>
    <g clip-path="url(#pa16935bd4f)">
     <use style="fill:#38bf85;" x="465.397225" xlink:href="#C6_0_1d27cba92e" y="281.028407"/>
    </g>
    <g clip-path="url(#pa16935bd4f)">
     <use style="fill:#38bf85;" x="462.744032" xlink:href="#C6_0_1d27cba92e" y="411.430705"/>
    </g>
    <g clip-path="url(#pa16935bd4f)">
     <use style="fill:#38bf85;" x="462.578116" xlink:href="#C6_0_1d27cba92e" y="269.135037"/>
    </g>
    <g clip-path="url(#pa16935bd4f)">
     <use style="fill:#38bf85;" x="465.713728" xlink:href="#C6_0_1d27cba92e" y="388.307659"/>
    </g>
    <g clip-path="url(#pa16935bd4f)">
     <use style="fill:#38bf85;" x="465.289848" xlink:href="#C6_0_1d27cba92e" y="456.880366"/>
    </g>
   </g>
   <g id="PathCollection_8">
    <defs>
     <path d="M 0 2.5 
C 0.663008 2.5 1.29895 2.236584 1.767767 1.767767 
C 2.236584 1.29895 2.5 0.663008 2.5 0 
C 2.5 -0.663008 2.236584 -1.29895 1.767767 -1.767767 
C 1.29895 -2.236584 0.663008 -2.5 0 -2.5 
C -0.663008 -2.5 -1.29895 -2.236584 -1.767767 -1.767767 
C -2.236584 -1.29895 -2.5 -0.663008 -2.5 0 
C -2.5 0.663008 -2.236584 1.29895 -1.767767 1.767767 
C -1.29895 2.236584 -0.663008 2.5 0 2.5 
z
" id="C7_0_e8504a2e89"/>
    </defs>
    <g clip-path="url(#pa16935bd4f)">
     <use style="fill:#3abca6;" x="514.247909" xlink:href="#C7_0_e8504a2e89" y="189.704322"/>
    </g>
    <g clip-path="url(#pa16935bd4f)">
     <use style="fill:#3abca6;" x="513.141943" xlink:href="#C7_0_e8504a2e89" y="272.533143"/>
    </g>
    <g clip-path="url(#pa16935bd4f)">
     <use style="fill:#3abca6;" x="518.451835" xlink:href="#C7_0_e8504a2e89" y="191.403374"/>
    </g>
    <g clip-path="url(#pa16935bd4f)">
     <use style="fill:#3abca6;" x="515.105183" xlink:href="#C7_0_e8504a2e89" y="329.026647"/>
    </g>
    <g clip-path="url(#pa16935bd4f)">
     <use style="fill:#3abca6;" x="512.482143" xlink:href="#C7_0_e8504a2e89" y="173.722607"/>
    </g>
    <g clip-path="url(#pa16935bd4f)">
     <use style="fill:#3abca6;" x="519.711319" xlink:href="#C7_0_e8504a2e89" y="189.704322"/>
    </g>
   </g>
   <g id="PathCollection_9">
    <defs>
     <path d="M 0 2.5 
C 0.663008 2.5 1.29895 2.236584 1.767767 1.767767 
C 2.236584 1.29895 2.5 0.663008 2.5 0 
C 2.5 -0.663008 2.236584 -1.29895 1.767767 -1.767767 
C 1.29895 -2.236584 0.663008 -2.5 0 -2.5 
C -0.663008 -2.5 -1.29895 -2.236584 -1.767767 -1.767767 
C -2.236584 -1.29895 -2.5 -0.663008 -2.5 0 
C -2.5 0.663008 -2.236584 1.29895 -1.767767 1.767767 
C -1.29895 2.236584 -0.663008 2.5 0 2.5 
z
" id="C8_0_44458938b9"/>
    </defs>
    <g clip-path="url(#pa16935bd4f)">
     <use style="fill:#3cbabd;" x="573.144006" xlink:href="#C8_0_44458938b9" y="359.609596"/>
    </g>
    <g clip-path="url(#pa16935bd4f)">
     <use style="fill:#3cbabd;" x="573.626005" xlink:href="#C8_0_44458938b9" y="349.840043"/>
    </g>
    <g clip-path="url(#pa16935bd4f)">
     <use style="fill:#3cbabd;" x="565.129246" xlink:href="#C8_0_44458938b9" y="300.992276"/>
    </g>
    <g clip-path="url(#pa16935bd4f)">
     <use style="fill:#3cbabd;" x="565.642745" xlink:href="#C8_0_44458938b9" y="306.514198"/>
    </g>
    <g clip-path="url(#pa16935bd4f)">
     <use style="fill:#3cbabd;" x="566.530097" xlink:href="#C8_0_44458938b9" y="342.194305"/>
    </g>
    <g clip-path="url(#pa16935bd4f)">
     <use style="fill:#3cbabd;" x="572.849482" xlink:href="#C8_0_44458938b9" y="258.515958"/>
    </g>
   </g>
   <g id="PathCollection_10">
    <defs>
     <path d="M 0 2.5 
C 0.663008 2.5 1.29895 2.236584 1.767767 1.767767 
C 2.236584 1.29895 2.5 0.663008 2.5 0 
C 2.5 -0.663008 2.236584 -1.29895 1.767767 -1.767767 
C 1.29895 -2.236584 0.663008 -2.5 0 -2.5 
C -0.663008 -2.5 -1.29895 -2.236584 -1.767767 -1.767767 
C -2.236584 -1.29895 -2.5 -0.663008 -2.5 0 
C -2.5 0.663008 -2.236584 1.29895 -1.767767 1.767767 
C -1.29895 2.236584 -0.663008 2.5 0 2.5 
z
" id="C9_0_5e8dce6206"/>
    </defs>
    <g clip-path="url(#pa16935bd4f)">
     <use style="fill:#3db7d6;" x="625.827916" xlink:href="#C9_0_5e8dce6206" y="281.028407"/>
    </g>
    <g clip-path="url(#pa16935bd4f)">
     <use style="fill:#3db7d6;" x="624.475819" xlink:href="#C9_0_5e8dce6206" y="134.909871"/>
    </g>
    <g clip-path="url(#pa16935bd4f)">
     <use style="fill:#3db7d6;" x="616.367078" xlink:href="#C9_0_5e8dce6206" y="216.889165"/>
    </g>
    <g clip-path="url(#pa16935bd4f)">
     <use style="fill:#3db7d6;" x="617.132039" xlink:href="#C9_0_5e8dce6206" y="235.153982"/>
    </g>
    <g clip-path="url(#pa16935bd4f)">
     <use style="fill:#3db7d6;" x="619.144273" xlink:href="#C9_0_5e8dce6206" y="274.656959"/>
    </g>
    <g clip-path="url(#pa16935bd4f)">
     <use style="fill:#3db7d6;" x="624.641106" xlink:href="#C9_0_5e8dce6206" y="199.898638"/>
    </g>
   </g>
   <g id="PathCollection_11">
    <defs>
     <path d="M 0 2.5 
C 0.663008 2.5 1.29895 2.236584 1.767767 1.767767 
C 2.236584 1.29895 2.5 0.663008 2.5 0 
C 2.5 -0.663008 2.236584 -1.29895 1.767767 -1.767767 
C 1.29895 -2.236584 0.663008 -2.5 0 -2.5 
C -0.663008 -2.5 -1.29895 -2.236584 -1.767767 -1.767767 
C -2.236584 -1.29895 -2.5 -0.663008 -2.5 0 
C -2.5 0.663008 -2.236584 1.29895 -1.767767 1.767767 
C -1.29895 2.236584 -0.663008 2.5 0 2.5 
z
" id="Ca_0_8f6695b710"/>
    </defs>
    <g clip-path="url(#pa16935bd4f)">
     <use style="fill:#59b0f6;" x="670.049007" xlink:href="#Ca_0_8f6695b710" y="295.045592"/>
    </g>
    <g clip-path="url(#pa16935bd4f)">
     <use style="fill:#59b0f6;" x="674.749971" xlink:href="#Ca_0_8f6695b710" y="190.129085"/>
    </g>
    <g clip-path="url(#pa16935bd4f)">
     <use style="fill:#59b0f6;" x="669.470073" xlink:href="#Ca_0_8f6695b710" y="139.157502"/>
    </g>
    <g clip-path="url(#pa16935bd4f)">
     <use style="fill:#59b0f6;" x="667.640988" xlink:href="#Ca_0_8f6695b710" y="368.529623"/>
    </g>
    <g clip-path="url(#pa16935bd4f)">
     <use style="fill:#59b0f6;" x="671.55283" xlink:href="#Ca_0_8f6695b710" y="198.173038"/>
    </g>
    <g clip-path="url(#pa16935bd4f)">
     <use style="fill:#59b0f6;" x="676.35622" xlink:href="#Ca_0_8f6695b710" y="222.83585"/>
    </g>
   </g>
   <g id="PathCollection_12">
    <defs>
     <path d="M 0 2.5 
C 0.663008 2.5 1.29895 2.236584 1.767767 1.767767 
C 2.236584 1.29895 2.5 0.663008 2.5 0 
C 2.5 -0.663008 2.236584 -1.29895 1.767767 -1.767767 
C 1.29895 -2.236584 0.663008 -2.5 0 -2.5 
C -0.663008 -2.5 -1.29895 -2.236584 -1.767767 -1.767767 
C -2.236584 -1.29895 -2.5 -0.663008 -2.5 0 
C -2.5 0.663008 -2.236584 1.29895 -1.767767 1.767767 
C -1.29895 2.236584 -0.663008 2.5 0 2.5 
z
" id="Cb_0_a36f3e042e"/>
    </defs>
    <g clip-path="url(#pa16935bd4f)">
     <use style="fill:#a3a0f6;" x="729.585512" xlink:href="#Cb_0_a36f3e042e" y="363.432465"/>
    </g>
    <g clip-path="url(#pa16935bd4f)">
     <use style="fill:#a3a0f6;" x="720.906614" xlink:href="#Cb_0_a36f3e042e" y="172.289031"/>
    </g>
    <g clip-path="url(#pa16935bd4f)">
     <use style="fill:#a3a0f6;" x="728.380029" xlink:href="#Cb_0_a36f3e042e" y="238.976851"/>
    </g>
    <g clip-path="url(#pa16935bd4f)">
     <use style="fill:#a3a0f6;" x="726.815201" xlink:href="#Cb_0_a36f3e042e" y="349.415279"/>
    </g>
    <g clip-path="url(#pa16935bd4f)">
     <use style="fill:#a3a0f6;" x="727.327332" xlink:href="#Cb_0_a36f3e042e" y="196.686366"/>
    </g>
    <g clip-path="url(#pa16935bd4f)">
     <use style="fill:#a3a0f6;" x="725.348636" xlink:href="#Cb_0_a36f3e042e" y="219.862508"/>
    </g>
   </g>
   <g id="PathCollection_13">
    <defs>
     <path d="M 0 2.5 
C 0.663008 2.5 1.29895 2.236584 1.767767 1.767767 
C 2.236584 1.29895 2.5 0.663008 2.5 0 
C 2.5 -0.663008 2.236584 -1.29895 1.767767 -1.767767 
C 1.29895 -2.236584 0.663008 -2.5 0 -2.5 
C -0.663008 -2.5 -1.29895 -2.236584 -1.767767 -1.767767 
C -2.236584 -1.29895 -2.5 -0.663008 -2.5 0 
C -2.5 0.663008 -2.236584 1.29895 -1.767767 1.767767 
C -1.29895 2.236584 -0.663008 2.5 0 2.5 
z
" id="Cc_0_79595c3fd1"/>
    </defs>
    <g clip-path="url(#pa16935bd4f)">
     <use style="fill:#d28ef6;" x="781.752551" xlink:href="#Cc_0_79595c3fd1" y="148.927056"/>
    </g>
    <g clip-path="url(#pa16935bd4f)">
     <use style="fill:#d28ef6;" x="781.858815" xlink:href="#Cc_0_79595c3fd1" y="272.533143"/>
    </g>
    <g clip-path="url(#pa16935bd4f)">
     <use style="fill:#d28ef6;" x="778.187053" xlink:href="#Cc_0_79595c3fd1" y="202.022454"/>
    </g>
    <g clip-path="url(#pa16935bd4f)">
     <use style="fill:#d28ef6;" x="776.245003" xlink:href="#Cc_0_79595c3fd1" y="201.172928"/>
    </g>
    <g clip-path="url(#pa16935bd4f)">
     <use style="fill:#d28ef6;" x="772.328044" xlink:href="#Cc_0_79595c3fd1" y="230.269206"/>
    </g>
    <g clip-path="url(#pa16935bd4f)">
     <use style="fill:#d28ef6;" x="772.870996" xlink:href="#Cc_0_79595c3fd1" y="200.323401"/>
    </g>
   </g>
   <g id="PathCollection_14">
    <defs>
     <path d="M 0 2.5 
C 0.663008 2.5 1.29895 2.236584 1.767767 1.767767 
C 2.236584 1.29895 2.5 0.663008 2.5 0 
C 2.5 -0.663008 2.236584 -1.29895 1.767767 -1.767767 
C 1.29895 -2.236584 0.663008 -2.5 0 -2.5 
C -0.663008 -2.5 -1.29895 -2.236584 -1.767767 -1.767767 
C -2.236584 -1.29895 -2.5 -0.663008 -2.5 0 
C -2.5 0.663008 -2.236584 1.29895 -1.767767 1.767767 
C -1.29895 2.236584 -0.663008 2.5 0 2.5 
z
" id="Cd_0_e8b8f656c0"/>
    </defs>
    <g clip-path="url(#pa16935bd4f)">
     <use style="fill:#f67ce7;" x="827.684882" xlink:href="#Cd_0_e8b8f656c0" y="468.348972"/>
    </g>
    <g clip-path="url(#pa16935bd4f)">
     <use style="fill:#f67ce7;" x="829.399619" xlink:href="#Cd_0_e8b8f656c0" y="423.748837"/>
    </g>
    <g clip-path="url(#pa16935bd4f)">
     <use style="fill:#f67ce7;" x="829.592949" xlink:href="#Cd_0_e8b8f656c0" y="671.810538"/>
    </g>
    <g clip-path="url(#pa16935bd4f)">
     <use style="fill:#f67ce7;" x="826.820665" xlink:href="#Cd_0_e8b8f656c0" y="397.838283"/>
    </g>
    <g clip-path="url(#pa16935bd4f)">
     <use style="fill:#f67ce7;" x="829.142035" xlink:href="#Cd_0_e8b8f656c0" y="737.648831"/>
    </g>
    <g clip-path="url(#pa16935bd4f)">
     <use style="fill:#f67ce7;" x="829.82999" xlink:href="#Cd_0_e8b8f656c0" y="655.244773"/>
    </g>
   </g>
   <g id="PathCollection_15">
    <defs>
     <path d="M 0 2.5 
C 0.663008 2.5 1.29895 2.236584 1.767767 1.767767 
C 2.236584 1.29895 2.5 0.663008 2.5 0 
C 2.5 -0.663008 2.236584 -1.29895 1.767767 -1.767767 
C 1.29895 -2.236584 0.663008 -2.5 0 -2.5 
C -0.663008 -2.5 -1.29895 -2.236584 -1.767767 -1.767767 
C -2.236584 -1.29895 -2.5 -0.663008 -2.5 0 
C -2.5 0.663008 -2.236584 1.29895 -1.767767 1.767767 
C -1.29895 2.236584 -0.663008 2.5 0 2.5 
z
" id="Ce_0_a3a2891e2c"/>
    </defs>
    <g clip-path="url(#pa16935bd4f)">
     <use style="fill:#f783c0;" x="882.528227" xlink:href="#Ce_0_a3a2891e2c" y="253.418799"/>
    </g>
    <g clip-path="url(#pa16935bd4f)">
     <use style="fill:#f783c0;" x="886.13456" xlink:href="#Ce_0_a3a2891e2c" y="613.193218"/>
    </g>
    <g clip-path="url(#pa16935bd4f)">
     <use style="fill:#f783c0;" x="885.445909" xlink:href="#Ce_0_a3a2891e2c" y="342.619068"/>
    </g>
    <g clip-path="url(#pa16935bd4f)">
     <use style="fill:#f783c0;" x="885.463375" xlink:href="#Ce_0_a3a2891e2c" y="255.967379"/>
    </g>
    <g clip-path="url(#pa16935bd4f)">
     <use style="fill:#f783c0;" x="884.157547" xlink:href="#Ce_0_a3a2891e2c" y="171.120932"/>
    </g>
    <g clip-path="url(#pa16935bd4f)">
     <use style="fill:#f783c0;" x="879.95126" xlink:href="#Ce_0_a3a2891e2c" y="309.48754"/>
    </g>
   </g>
   <g id="text_24">
    <!-- NN coefficient plot -->
    <g transform="translate(460.943438 97.68)scale(0.12 -0.12)">
     <use xlink:href="#DejaVuSans-78"/>
     <use x="74.804688" xlink:href="#DejaVuSans-78"/>
     <use x="149.609375" xlink:href="#DejaVuSans-32"/>
     <use x="181.396484" xlink:href="#DejaVuSans-99"/>
     <use x="236.376953" xlink:href="#DejaVuSans-111"/>
     <use x="297.558594" xlink:href="#DejaVuSans-101"/>
     <use x="359.082031" xlink:href="#DejaVuSans-102"/>
     <use x="394.287109" xlink:href="#DejaVuSans-102"/>
     <use x="429.492188" xlink:href="#DejaVuSans-105"/>
     <use x="457.275391" xlink:href="#DejaVuSans-99"/>
     <use x="512.255859" xlink:href="#DejaVuSans-105"/>
     <use x="540.039062" xlink:href="#DejaVuSans-101"/>
     <use x="601.5625" xlink:href="#DejaVuSans-110"/>
     <use x="664.941406" xlink:href="#DejaVuSans-116"/>
     <use x="704.150391" xlink:href="#DejaVuSans-32"/>
     <use x="735.9375" xlink:href="#DejaVuSans-112"/>
     <use x="799.414062" xlink:href="#DejaVuSans-108"/>
     <use x="827.197266" xlink:href="#DejaVuSans-111"/>
     <use x="888.378906" xlink:href="#DejaVuSans-116"/>
    </g>
   </g>
  </g>
 </g>
 <defs>
  <clipPath id="pa16935bd4f">
   <rect height="665.28" width="781.2" x="126" y="103.68"/>
  </clipPath>
 </defs>
</svg>
