<?xml version="1.0" encoding="utf-8" standalone="no"?>
<!DOCTYPE svg PUBLIC "-//W3C//DTD SVG 1.1//EN"
  "http://www.w3.org/Graphics/SVG/1.1/DTD/svg11.dtd">
<!-- Created with matplotlib (https://matplotlib.org/) -->
<svg height="720pt" version="1.1" viewBox="0 0 720 720" width="720pt" xmlns="http://www.w3.org/2000/svg" xmlns:xlink="http://www.w3.org/1999/xlink">
 <defs>
  <style type="text/css">
*{stroke-linecap:butt;stroke-linejoin:round;}
  </style>
 </defs>
 <g id="figure_1">
  <g id="patch_1">
   <path d="M 0 720 
L 720 720 
L 720 0 
L 0 0 
z
" style="fill:#ffffff;"/>
  </g>
  <g id="axes_1">
   <g id="patch_2">
    <path d="M 90 640.8 
L 648 640.8 
L 648 86.4 
L 90 86.4 
z
" style="fill:#ffffff;"/>
   </g>
   <g id="matplotlib.axis_1">
    <g id="xtick_1">
     <g id="line2d_1">
      <defs>
       <path d="M 0 0 
L 0 3.5 
" id="m3228870585" style="stroke:#000000;stroke-width:0.8;"/>
      </defs>
      <g>
       <use style="stroke:#000000;stroke-width:0.8;" x="111.461538" xlink:href="#m3228870585" y="640.8"/>
      </g>
     </g>
     <g id="text_1">
      <!-- PCA -->
      <defs>
       <path d="M 19.671875 64.796875 
L 19.671875 37.40625 
L 32.078125 37.40625 
Q 38.96875 37.40625 42.71875 40.96875 
Q 46.484375 44.53125 46.484375 51.125 
Q 46.484375 57.671875 42.71875 61.234375 
Q 38.96875 64.796875 32.078125 64.796875 
z
M 9.8125 72.90625 
L 32.078125 72.90625 
Q 44.34375 72.90625 50.609375 67.359375 
Q 56.890625 61.8125 56.890625 51.125 
Q 56.890625 40.328125 50.609375 34.8125 
Q 44.34375 29.296875 32.078125 29.296875 
L 19.671875 29.296875 
L 19.671875 0 
L 9.8125 0 
z
" id="DejaVuSans-80"/>
       <path d="M 64.40625 67.28125 
L 64.40625 56.890625 
Q 59.421875 61.53125 53.78125 63.8125 
Q 48.140625 66.109375 41.796875 66.109375 
Q 29.296875 66.109375 22.65625 58.46875 
Q 16.015625 50.828125 16.015625 36.375 
Q 16.015625 21.96875 22.65625 14.328125 
Q 29.296875 6.6875 41.796875 6.6875 
Q 48.140625 6.6875 53.78125 8.984375 
Q 59.421875 11.28125 64.40625 15.921875 
L 64.40625 5.609375 
Q 59.234375 2.09375 53.4375 0.328125 
Q 47.65625 -1.421875 41.21875 -1.421875 
Q 24.65625 -1.421875 15.125 8.703125 
Q 5.609375 18.84375 5.609375 36.375 
Q 5.609375 53.953125 15.125 64.078125 
Q 24.65625 74.21875 41.21875 74.21875 
Q 47.75 74.21875 53.53125 72.484375 
Q 59.328125 70.75 64.40625 67.28125 
z
" id="DejaVuSans-67"/>
       <path d="M 34.1875 63.1875 
L 20.796875 26.90625 
L 47.609375 26.90625 
z
M 28.609375 72.90625 
L 39.796875 72.90625 
L 67.578125 0 
L 57.328125 0 
L 50.6875 18.703125 
L 17.828125 18.703125 
L 11.1875 0 
L 0.78125 0 
z
" id="DejaVuSans-65"/>
      </defs>
      <g transform="translate(114.220913 667.653125)rotate(-90)scale(0.1 -0.1)">
       <use xlink:href="#DejaVuSans-80"/>
       <use x="60.302734" xlink:href="#DejaVuSans-67"/>
       <use x="130.126953" xlink:href="#DejaVuSans-65"/>
      </g>
     </g>
    </g>
    <g id="xtick_2">
     <g id="line2d_2">
      <g>
       <use style="stroke:#000000;stroke-width:0.8;" x="154.384615" xlink:href="#m3228870585" y="640.8"/>
      </g>
     </g>
     <g id="text_2">
      <!-- Taxonomy level_five -->
      <defs>
       <path d="M -0.296875 72.90625 
L 61.375 72.90625 
L 61.375 64.59375 
L 35.5 64.59375 
L 35.5 0 
L 25.59375 0 
L 25.59375 64.59375 
L -0.296875 64.59375 
z
" id="DejaVuSans-84"/>
       <path d="M 34.28125 27.484375 
Q 23.390625 27.484375 19.1875 25 
Q 14.984375 22.515625 14.984375 16.5 
Q 14.984375 11.71875 18.140625 8.90625 
Q 21.296875 6.109375 26.703125 6.109375 
Q 34.1875 6.109375 38.703125 11.40625 
Q 43.21875 16.703125 43.21875 25.484375 
L 43.21875 27.484375 
z
M 52.203125 31.203125 
L 52.203125 0 
L 43.21875 0 
L 43.21875 8.296875 
Q 40.140625 3.328125 35.546875 0.953125 
Q 30.953125 -1.421875 24.3125 -1.421875 
Q 15.921875 -1.421875 10.953125 3.296875 
Q 6 8.015625 6 15.921875 
Q 6 25.140625 12.171875 29.828125 
Q 18.359375 34.515625 30.609375 34.515625 
L 43.21875 34.515625 
L 43.21875 35.40625 
Q 43.21875 41.609375 39.140625 45 
Q 35.0625 48.390625 27.6875 48.390625 
Q 23 48.390625 18.546875 47.265625 
Q 14.109375 46.140625 10.015625 43.890625 
L 10.015625 52.203125 
Q 14.9375 54.109375 19.578125 55.046875 
Q 24.21875 56 28.609375 56 
Q 40.484375 56 46.34375 49.84375 
Q 52.203125 43.703125 52.203125 31.203125 
z
" id="DejaVuSans-97"/>
       <path d="M 54.890625 54.6875 
L 35.109375 28.078125 
L 55.90625 0 
L 45.3125 0 
L 29.390625 21.484375 
L 13.484375 0 
L 2.875 0 
L 24.125 28.609375 
L 4.6875 54.6875 
L 15.28125 54.6875 
L 29.78125 35.203125 
L 44.28125 54.6875 
z
" id="DejaVuSans-120"/>
       <path d="M 30.609375 48.390625 
Q 23.390625 48.390625 19.1875 42.75 
Q 14.984375 37.109375 14.984375 27.296875 
Q 14.984375 17.484375 19.15625 11.84375 
Q 23.34375 6.203125 30.609375 6.203125 
Q 37.796875 6.203125 41.984375 11.859375 
Q 46.1875 17.53125 46.1875 27.296875 
Q 46.1875 37.015625 41.984375 42.703125 
Q 37.796875 48.390625 30.609375 48.390625 
z
M 30.609375 56 
Q 42.328125 56 49.015625 48.375 
Q 55.71875 40.765625 55.71875 27.296875 
Q 55.71875 13.875 49.015625 6.21875 
Q 42.328125 -1.421875 30.609375 -1.421875 
Q 18.84375 -1.421875 12.171875 6.21875 
Q 5.515625 13.875 5.515625 27.296875 
Q 5.515625 40.765625 12.171875 48.375 
Q 18.84375 56 30.609375 56 
z
" id="DejaVuSans-111"/>
       <path d="M 54.890625 33.015625 
L 54.890625 0 
L 45.90625 0 
L 45.90625 32.71875 
Q 45.90625 40.484375 42.875 44.328125 
Q 39.84375 48.1875 33.796875 48.1875 
Q 26.515625 48.1875 22.3125 43.546875 
Q 18.109375 38.921875 18.109375 30.90625 
L 18.109375 0 
L 9.078125 0 
L 9.078125 54.6875 
L 18.109375 54.6875 
L 18.109375 46.1875 
Q 21.34375 51.125 25.703125 53.5625 
Q 30.078125 56 35.796875 56 
Q 45.21875 56 50.046875 50.171875 
Q 54.890625 44.34375 54.890625 33.015625 
z
" id="DejaVuSans-110"/>
       <path d="M 52 44.1875 
Q 55.375 50.25 60.0625 53.125 
Q 64.75 56 71.09375 56 
Q 79.640625 56 84.28125 50.015625 
Q 88.921875 44.046875 88.921875 33.015625 
L 88.921875 0 
L 79.890625 0 
L 79.890625 32.71875 
Q 79.890625 40.578125 77.09375 44.375 
Q 74.3125 48.1875 68.609375 48.1875 
Q 61.625 48.1875 57.5625 43.546875 
Q 53.515625 38.921875 53.515625 30.90625 
L 53.515625 0 
L 44.484375 0 
L 44.484375 32.71875 
Q 44.484375 40.625 41.703125 44.40625 
Q 38.921875 48.1875 33.109375 48.1875 
Q 26.21875 48.1875 22.15625 43.53125 
Q 18.109375 38.875 18.109375 30.90625 
L 18.109375 0 
L 9.078125 0 
L 9.078125 54.6875 
L 18.109375 54.6875 
L 18.109375 46.1875 
Q 21.1875 51.21875 25.484375 53.609375 
Q 29.78125 56 35.6875 56 
Q 41.65625 56 45.828125 52.96875 
Q 50 49.953125 52 44.1875 
z
" id="DejaVuSans-109"/>
       <path d="M 32.171875 -5.078125 
Q 28.375 -14.84375 24.75 -17.8125 
Q 21.140625 -20.796875 15.09375 -20.796875 
L 7.90625 -20.796875 
L 7.90625 -13.28125 
L 13.1875 -13.28125 
Q 16.890625 -13.28125 18.9375 -11.515625 
Q 21 -9.765625 23.484375 -3.21875 
L 25.09375 0.875 
L 2.984375 54.6875 
L 12.5 54.6875 
L 29.59375 11.921875 
L 46.6875 54.6875 
L 56.203125 54.6875 
z
" id="DejaVuSans-121"/>
       <path id="DejaVuSans-32"/>
       <path d="M 9.421875 75.984375 
L 18.40625 75.984375 
L 18.40625 0 
L 9.421875 0 
z
" id="DejaVuSans-108"/>
       <path d="M 56.203125 29.59375 
L 56.203125 25.203125 
L 14.890625 25.203125 
Q 15.484375 15.921875 20.484375 11.0625 
Q 25.484375 6.203125 34.421875 6.203125 
Q 39.59375 6.203125 44.453125 7.46875 
Q 49.3125 8.734375 54.109375 11.28125 
L 54.109375 2.78125 
Q 49.265625 0.734375 44.1875 -0.34375 
Q 39.109375 -1.421875 33.890625 -1.421875 
Q 20.796875 -1.421875 13.15625 6.1875 
Q 5.515625 13.8125 5.515625 26.8125 
Q 5.515625 40.234375 12.765625 48.109375 
Q 20.015625 56 32.328125 56 
Q 43.359375 56 49.78125 48.890625 
Q 56.203125 41.796875 56.203125 29.59375 
z
M 47.21875 32.234375 
Q 47.125 39.59375 43.09375 43.984375 
Q 39.0625 48.390625 32.421875 48.390625 
Q 24.90625 48.390625 20.390625 44.140625 
Q 15.875 39.890625 15.1875 32.171875 
z
" id="DejaVuSans-101"/>
       <path d="M 2.984375 54.6875 
L 12.5 54.6875 
L 29.59375 8.796875 
L 46.6875 54.6875 
L 56.203125 54.6875 
L 35.6875 0 
L 23.484375 0 
z
" id="DejaVuSans-118"/>
       <path d="M 50.984375 -16.609375 
L 50.984375 -23.578125 
L -0.984375 -23.578125 
L -0.984375 -16.609375 
z
" id="DejaVuSans-95"/>
       <path d="M 37.109375 75.984375 
L 37.109375 68.5 
L 28.515625 68.5 
Q 23.6875 68.5 21.796875 66.546875 
Q 19.921875 64.59375 19.921875 59.515625 
L 19.921875 54.6875 
L 34.71875 54.6875 
L 34.71875 47.703125 
L 19.921875 47.703125 
L 19.921875 0 
L 10.890625 0 
L 10.890625 47.703125 
L 2.296875 47.703125 
L 2.296875 54.6875 
L 10.890625 54.6875 
L 10.890625 58.5 
Q 10.890625 67.625 15.140625 71.796875 
Q 19.390625 75.984375 28.609375 75.984375 
z
" id="DejaVuSans-102"/>
       <path d="M 9.421875 54.6875 
L 18.40625 54.6875 
L 18.40625 0 
L 9.421875 0 
z
M 9.421875 75.984375 
L 18.40625 75.984375 
L 18.40625 64.59375 
L 9.421875 64.59375 
z
" id="DejaVuSans-105"/>
      </defs>
      <g transform="translate(157.004928 750.489063)rotate(-90)scale(0.1 -0.1)">
       <use xlink:href="#DejaVuSans-84"/>
       <use x="60.833984" xlink:href="#DejaVuSans-97"/>
       <use x="122.113281" xlink:href="#DejaVuSans-120"/>
       <use x="181.246094" xlink:href="#DejaVuSans-111"/>
       <use x="242.427734" xlink:href="#DejaVuSans-110"/>
       <use x="305.806641" xlink:href="#DejaVuSans-111"/>
       <use x="366.988281" xlink:href="#DejaVuSans-109"/>
       <use x="464.400391" xlink:href="#DejaVuSans-121"/>
       <use x="523.580078" xlink:href="#DejaVuSans-32"/>
       <use x="555.367188" xlink:href="#DejaVuSans-108"/>
       <use x="583.150391" xlink:href="#DejaVuSans-101"/>
       <use x="644.673828" xlink:href="#DejaVuSans-118"/>
       <use x="703.853516" xlink:href="#DejaVuSans-101"/>
       <use x="765.376953" xlink:href="#DejaVuSans-108"/>
       <use x="793.160156" xlink:href="#DejaVuSans-95"/>
       <use x="843.160156" xlink:href="#DejaVuSans-102"/>
       <use x="878.365234" xlink:href="#DejaVuSans-105"/>
       <use x="906.148438" xlink:href="#DejaVuSans-118"/>
       <use x="965.328125" xlink:href="#DejaVuSans-101"/>
      </g>
     </g>
    </g>
    <g id="xtick_3">
     <g id="line2d_3">
      <g>
       <use style="stroke:#000000;stroke-width:0.8;" x="197.307692" xlink:href="#m3228870585" y="640.8"/>
      </g>
     </g>
     <g id="text_3">
      <!-- Taxonomy level_four -->
      <defs>
       <path d="M 8.5 21.578125 
L 8.5 54.6875 
L 17.484375 54.6875 
L 17.484375 21.921875 
Q 17.484375 14.15625 20.5 10.265625 
Q 23.53125 6.390625 29.59375 6.390625 
Q 36.859375 6.390625 41.078125 11.03125 
Q 45.3125 15.671875 45.3125 23.6875 
L 45.3125 54.6875 
L 54.296875 54.6875 
L 54.296875 0 
L 45.3125 0 
L 45.3125 8.40625 
Q 42.046875 3.421875 37.71875 1 
Q 33.40625 -1.421875 27.6875 -1.421875 
Q 18.265625 -1.421875 13.375 4.4375 
Q 8.5 10.296875 8.5 21.578125 
z
M 31.109375 56 
z
" id="DejaVuSans-117"/>
       <path d="M 41.109375 46.296875 
Q 39.59375 47.171875 37.8125 47.578125 
Q 36.03125 48 33.890625 48 
Q 26.265625 48 22.1875 43.046875 
Q 18.109375 38.09375 18.109375 28.8125 
L 18.109375 0 
L 9.078125 0 
L 9.078125 54.6875 
L 18.109375 54.6875 
L 18.109375 46.1875 
Q 20.953125 51.171875 25.484375 53.578125 
Q 30.03125 56 36.53125 56 
Q 37.453125 56 38.578125 55.875 
Q 39.703125 55.765625 41.0625 55.515625 
z
" id="DejaVuSans-114"/>
      </defs>
      <g transform="translate(199.928005 752.20625)rotate(-90)scale(0.1 -0.1)">
       <use xlink:href="#DejaVuSans-84"/>
       <use x="60.833984" xlink:href="#DejaVuSans-97"/>
       <use x="122.113281" xlink:href="#DejaVuSans-120"/>
       <use x="181.246094" xlink:href="#DejaVuSans-111"/>
       <use x="242.427734" xlink:href="#DejaVuSans-110"/>
       <use x="305.806641" xlink:href="#DejaVuSans-111"/>
       <use x="366.988281" xlink:href="#DejaVuSans-109"/>
       <use x="464.400391" xlink:href="#DejaVuSans-121"/>
       <use x="523.580078" xlink:href="#DejaVuSans-32"/>
       <use x="555.367188" xlink:href="#DejaVuSans-108"/>
       <use x="583.150391" xlink:href="#DejaVuSans-101"/>
       <use x="644.673828" xlink:href="#DejaVuSans-118"/>
       <use x="703.853516" xlink:href="#DejaVuSans-101"/>
       <use x="765.376953" xlink:href="#DejaVuSans-108"/>
       <use x="793.160156" xlink:href="#DejaVuSans-95"/>
       <use x="843.160156" xlink:href="#DejaVuSans-102"/>
       <use x="878.365234" xlink:href="#DejaVuSans-111"/>
       <use x="939.546875" xlink:href="#DejaVuSans-117"/>
       <use x="1002.925781" xlink:href="#DejaVuSans-114"/>
      </g>
     </g>
    </g>
    <g id="xtick_4">
     <g id="line2d_4">
      <g>
       <use style="stroke:#000000;stroke-width:0.8;" x="240.230769" xlink:href="#m3228870585" y="640.8"/>
      </g>
     </g>
     <g id="text_4">
      <!-- Taxonomy level_six -->
      <defs>
       <path d="M 44.28125 53.078125 
L 44.28125 44.578125 
Q 40.484375 46.53125 36.375 47.5 
Q 32.28125 48.484375 27.875 48.484375 
Q 21.1875 48.484375 17.84375 46.4375 
Q 14.5 44.390625 14.5 40.28125 
Q 14.5 37.15625 16.890625 35.375 
Q 19.28125 33.59375 26.515625 31.984375 
L 29.59375 31.296875 
Q 39.15625 29.25 43.1875 25.515625 
Q 47.21875 21.78125 47.21875 15.09375 
Q 47.21875 7.46875 41.1875 3.015625 
Q 35.15625 -1.421875 24.609375 -1.421875 
Q 20.21875 -1.421875 15.453125 -0.5625 
Q 10.6875 0.296875 5.421875 2 
L 5.421875 11.28125 
Q 10.40625 8.6875 15.234375 7.390625 
Q 20.0625 6.109375 24.8125 6.109375 
Q 31.15625 6.109375 34.5625 8.28125 
Q 37.984375 10.453125 37.984375 14.40625 
Q 37.984375 18.0625 35.515625 20.015625 
Q 33.0625 21.96875 24.703125 23.78125 
L 21.578125 24.515625 
Q 13.234375 26.265625 9.515625 29.90625 
Q 5.8125 33.546875 5.8125 39.890625 
Q 5.8125 47.609375 11.28125 51.796875 
Q 16.75 56 26.8125 56 
Q 31.78125 56 36.171875 55.265625 
Q 40.578125 54.546875 44.28125 53.078125 
z
" id="DejaVuSans-115"/>
      </defs>
      <g transform="translate(242.851082 746.025)rotate(-90)scale(0.1 -0.1)">
       <use xlink:href="#DejaVuSans-84"/>
       <use x="60.833984" xlink:href="#DejaVuSans-97"/>
       <use x="122.113281" xlink:href="#DejaVuSans-120"/>
       <use x="181.246094" xlink:href="#DejaVuSans-111"/>
       <use x="242.427734" xlink:href="#DejaVuSans-110"/>
       <use x="305.806641" xlink:href="#DejaVuSans-111"/>
       <use x="366.988281" xlink:href="#DejaVuSans-109"/>
       <use x="464.400391" xlink:href="#DejaVuSans-121"/>
       <use x="523.580078" xlink:href="#DejaVuSans-32"/>
       <use x="555.367188" xlink:href="#DejaVuSans-108"/>
       <use x="583.150391" xlink:href="#DejaVuSans-101"/>
       <use x="644.673828" xlink:href="#DejaVuSans-118"/>
       <use x="703.853516" xlink:href="#DejaVuSans-101"/>
       <use x="765.376953" xlink:href="#DejaVuSans-108"/>
       <use x="793.160156" xlink:href="#DejaVuSans-95"/>
       <use x="843.160156" xlink:href="#DejaVuSans-115"/>
       <use x="895.259766" xlink:href="#DejaVuSans-105"/>
       <use x="923.042969" xlink:href="#DejaVuSans-120"/>
      </g>
     </g>
    </g>
    <g id="xtick_5">
     <g id="line2d_5">
      <g>
       <use style="stroke:#000000;stroke-width:0.8;" x="283.153846" xlink:href="#m3228870585" y="640.8"/>
      </g>
     </g>
     <g id="text_5">
      <!-- taxonomy group_mean -->
      <defs>
       <path d="M 18.3125 70.21875 
L 18.3125 54.6875 
L 36.8125 54.6875 
L 36.8125 47.703125 
L 18.3125 47.703125 
L 18.3125 18.015625 
Q 18.3125 11.328125 20.140625 9.421875 
Q 21.96875 7.515625 27.59375 7.515625 
L 36.8125 7.515625 
L 36.8125 0 
L 27.59375 0 
Q 17.1875 0 13.234375 3.875 
Q 9.28125 7.765625 9.28125 18.015625 
L 9.28125 47.703125 
L 2.6875 47.703125 
L 2.6875 54.6875 
L 9.28125 54.6875 
L 9.28125 70.21875 
z
" id="DejaVuSans-116"/>
       <path d="M 45.40625 27.984375 
Q 45.40625 37.75 41.375 43.109375 
Q 37.359375 48.484375 30.078125 48.484375 
Q 22.859375 48.484375 18.828125 43.109375 
Q 14.796875 37.75 14.796875 27.984375 
Q 14.796875 18.265625 18.828125 12.890625 
Q 22.859375 7.515625 30.078125 7.515625 
Q 37.359375 7.515625 41.375 12.890625 
Q 45.40625 18.265625 45.40625 27.984375 
z
M 54.390625 6.78125 
Q 54.390625 -7.171875 48.1875 -13.984375 
Q 42 -20.796875 29.203125 -20.796875 
Q 24.46875 -20.796875 20.265625 -20.09375 
Q 16.0625 -19.390625 12.109375 -17.921875 
L 12.109375 -9.1875 
Q 16.0625 -11.328125 19.921875 -12.34375 
Q 23.78125 -13.375 27.78125 -13.375 
Q 36.625 -13.375 41.015625 -8.765625 
Q 45.40625 -4.15625 45.40625 5.171875 
L 45.40625 9.625 
Q 42.625 4.78125 38.28125 2.390625 
Q 33.9375 0 27.875 0 
Q 17.828125 0 11.671875 7.65625 
Q 5.515625 15.328125 5.515625 27.984375 
Q 5.515625 40.671875 11.671875 48.328125 
Q 17.828125 56 27.875 56 
Q 33.9375 56 38.28125 53.609375 
Q 42.625 51.21875 45.40625 46.390625 
L 45.40625 54.6875 
L 54.390625 54.6875 
z
" id="DejaVuSans-103"/>
       <path d="M 18.109375 8.203125 
L 18.109375 -20.796875 
L 9.078125 -20.796875 
L 9.078125 54.6875 
L 18.109375 54.6875 
L 18.109375 46.390625 
Q 20.953125 51.265625 25.265625 53.625 
Q 29.59375 56 35.59375 56 
Q 45.5625 56 51.78125 48.09375 
Q 58.015625 40.1875 58.015625 27.296875 
Q 58.015625 14.40625 51.78125 6.484375 
Q 45.5625 -1.421875 35.59375 -1.421875 
Q 29.59375 -1.421875 25.265625 0.953125 
Q 20.953125 3.328125 18.109375 8.203125 
z
M 48.6875 27.296875 
Q 48.6875 37.203125 44.609375 42.84375 
Q 40.53125 48.484375 33.40625 48.484375 
Q 26.265625 48.484375 22.1875 42.84375 
Q 18.109375 37.203125 18.109375 27.296875 
Q 18.109375 17.390625 22.1875 11.75 
Q 26.265625 6.109375 33.40625 6.109375 
Q 40.53125 6.109375 44.609375 11.75 
Q 48.6875 17.390625 48.6875 27.296875 
z
" id="DejaVuSans-112"/>
      </defs>
      <g transform="translate(285.635096 763.795313)rotate(-90)scale(0.1 -0.1)">
       <use xlink:href="#DejaVuSans-116"/>
       <use x="39.208984" xlink:href="#DejaVuSans-97"/>
       <use x="100.488281" xlink:href="#DejaVuSans-120"/>
       <use x="159.621094" xlink:href="#DejaVuSans-111"/>
       <use x="220.802734" xlink:href="#DejaVuSans-110"/>
       <use x="284.181641" xlink:href="#DejaVuSans-111"/>
       <use x="345.363281" xlink:href="#DejaVuSans-109"/>
       <use x="442.775391" xlink:href="#DejaVuSans-121"/>
       <use x="501.955078" xlink:href="#DejaVuSans-32"/>
       <use x="533.742188" xlink:href="#DejaVuSans-103"/>
       <use x="597.21875" xlink:href="#DejaVuSans-114"/>
       <use x="638.300781" xlink:href="#DejaVuSans-111"/>
       <use x="699.482422" xlink:href="#DejaVuSans-117"/>
       <use x="762.861328" xlink:href="#DejaVuSans-112"/>
       <use x="826.337891" xlink:href="#DejaVuSans-95"/>
       <use x="876.337891" xlink:href="#DejaVuSans-109"/>
       <use x="973.75" xlink:href="#DejaVuSans-101"/>
       <use x="1035.273438" xlink:href="#DejaVuSans-97"/>
       <use x="1096.552734" xlink:href="#DejaVuSans-110"/>
      </g>
     </g>
    </g>
    <g id="xtick_6">
     <g id="line2d_6">
      <g>
       <use style="stroke:#000000;stroke-width:0.8;" x="326.076923" xlink:href="#m3228870585" y="640.8"/>
      </g>
     </g>
     <g id="text_6">
      <!-- taxonomy group_pca_anna -->
      <defs>
       <path d="M 48.78125 52.59375 
L 48.78125 44.1875 
Q 44.96875 46.296875 41.140625 47.34375 
Q 37.3125 48.390625 33.40625 48.390625 
Q 24.65625 48.390625 19.8125 42.84375 
Q 14.984375 37.3125 14.984375 27.296875 
Q 14.984375 17.28125 19.8125 11.734375 
Q 24.65625 6.203125 33.40625 6.203125 
Q 37.3125 6.203125 41.140625 7.25 
Q 44.96875 8.296875 48.78125 10.40625 
L 48.78125 2.09375 
Q 45.015625 0.34375 40.984375 -0.53125 
Q 36.96875 -1.421875 32.421875 -1.421875 
Q 20.0625 -1.421875 12.78125 6.34375 
Q 5.515625 14.109375 5.515625 27.296875 
Q 5.515625 40.671875 12.859375 48.328125 
Q 20.21875 56 33.015625 56 
Q 37.15625 56 41.109375 55.140625 
Q 45.0625 54.296875 48.78125 52.59375 
z
" id="DejaVuSans-99"/>
      </defs>
      <g transform="translate(328.558173 783.342188)rotate(-90)scale(0.1 -0.1)">
       <use xlink:href="#DejaVuSans-116"/>
       <use x="39.208984" xlink:href="#DejaVuSans-97"/>
       <use x="100.488281" xlink:href="#DejaVuSans-120"/>
       <use x="159.621094" xlink:href="#DejaVuSans-111"/>
       <use x="220.802734" xlink:href="#DejaVuSans-110"/>
       <use x="284.181641" xlink:href="#DejaVuSans-111"/>
       <use x="345.363281" xlink:href="#DejaVuSans-109"/>
       <use x="442.775391" xlink:href="#DejaVuSans-121"/>
       <use x="501.955078" xlink:href="#DejaVuSans-32"/>
       <use x="533.742188" xlink:href="#DejaVuSans-103"/>
       <use x="597.21875" xlink:href="#DejaVuSans-114"/>
       <use x="638.300781" xlink:href="#DejaVuSans-111"/>
       <use x="699.482422" xlink:href="#DejaVuSans-117"/>
       <use x="762.861328" xlink:href="#DejaVuSans-112"/>
       <use x="826.337891" xlink:href="#DejaVuSans-95"/>
       <use x="876.337891" xlink:href="#DejaVuSans-112"/>
       <use x="939.814453" xlink:href="#DejaVuSans-99"/>
       <use x="994.794922" xlink:href="#DejaVuSans-97"/>
       <use x="1056.074219" xlink:href="#DejaVuSans-95"/>
       <use x="1106.074219" xlink:href="#DejaVuSans-97"/>
       <use x="1167.353516" xlink:href="#DejaVuSans-110"/>
       <use x="1230.732422" xlink:href="#DejaVuSans-110"/>
       <use x="1294.111328" xlink:href="#DejaVuSans-97"/>
      </g>
     </g>
    </g>
    <g id="xtick_7">
     <g id="line2d_7">
      <g>
       <use style="stroke:#000000;stroke-width:0.8;" x="369" xlink:href="#m3228870585" y="640.8"/>
      </g>
     </g>
     <g id="text_7">
      <!-- taxonomy group_sum -->
      <g transform="translate(371.48125 756.723438)rotate(-90)scale(0.1 -0.1)">
       <use xlink:href="#DejaVuSans-116"/>
       <use x="39.208984" xlink:href="#DejaVuSans-97"/>
       <use x="100.488281" xlink:href="#DejaVuSans-120"/>
       <use x="159.621094" xlink:href="#DejaVuSans-111"/>
       <use x="220.802734" xlink:href="#DejaVuSans-110"/>
       <use x="284.181641" xlink:href="#DejaVuSans-111"/>
       <use x="345.363281" xlink:href="#DejaVuSans-109"/>
       <use x="442.775391" xlink:href="#DejaVuSans-121"/>
       <use x="501.955078" xlink:href="#DejaVuSans-32"/>
       <use x="533.742188" xlink:href="#DejaVuSans-103"/>
       <use x="597.21875" xlink:href="#DejaVuSans-114"/>
       <use x="638.300781" xlink:href="#DejaVuSans-111"/>
       <use x="699.482422" xlink:href="#DejaVuSans-117"/>
       <use x="762.861328" xlink:href="#DejaVuSans-112"/>
       <use x="826.337891" xlink:href="#DejaVuSans-95"/>
       <use x="876.337891" xlink:href="#DejaVuSans-115"/>
       <use x="928.4375" xlink:href="#DejaVuSans-117"/>
       <use x="991.816406" xlink:href="#DejaVuSans-109"/>
      </g>
     </g>
    </g>
    <g id="xtick_8">
     <g id="line2d_8">
      <g>
       <use style="stroke:#000000;stroke-width:0.8;" x="411.923077" xlink:href="#m3228870585" y="640.8"/>
      </g>
     </g>
     <g id="text_8">
      <!-- normalization_logNo -->
      <defs>
       <path d="M 5.515625 54.6875 
L 48.1875 54.6875 
L 48.1875 46.484375 
L 14.40625 7.171875 
L 48.1875 7.171875 
L 48.1875 0 
L 4.296875 0 
L 4.296875 8.203125 
L 38.09375 47.515625 
L 5.515625 47.515625 
z
" id="DejaVuSans-122"/>
       <path d="M 9.8125 72.90625 
L 23.09375 72.90625 
L 55.421875 11.921875 
L 55.421875 72.90625 
L 64.984375 72.90625 
L 64.984375 0 
L 51.703125 0 
L 19.390625 60.984375 
L 19.390625 0 
L 9.8125 0 
z
" id="DejaVuSans-78"/>
      </defs>
      <g transform="translate(414.543389 750.167187)rotate(-90)scale(0.1 -0.1)">
       <use xlink:href="#DejaVuSans-110"/>
       <use x="63.378906" xlink:href="#DejaVuSans-111"/>
       <use x="124.560547" xlink:href="#DejaVuSans-114"/>
       <use x="165.658203" xlink:href="#DejaVuSans-109"/>
       <use x="263.070312" xlink:href="#DejaVuSans-97"/>
       <use x="324.349609" xlink:href="#DejaVuSans-108"/>
       <use x="352.132812" xlink:href="#DejaVuSans-105"/>
       <use x="379.916016" xlink:href="#DejaVuSans-122"/>
       <use x="432.40625" xlink:href="#DejaVuSans-97"/>
       <use x="493.685547" xlink:href="#DejaVuSans-116"/>
       <use x="532.894531" xlink:href="#DejaVuSans-105"/>
       <use x="560.677734" xlink:href="#DejaVuSans-111"/>
       <use x="621.859375" xlink:href="#DejaVuSans-110"/>
       <use x="685.238281" xlink:href="#DejaVuSans-95"/>
       <use x="735.238281" xlink:href="#DejaVuSans-108"/>
       <use x="763.021484" xlink:href="#DejaVuSans-111"/>
       <use x="824.203125" xlink:href="#DejaVuSans-103"/>
       <use x="887.679688" xlink:href="#DejaVuSans-78"/>
       <use x="962.484375" xlink:href="#DejaVuSans-111"/>
      </g>
     </g>
    </g>
    <g id="xtick_9">
     <g id="line2d_9">
      <g>
       <use style="stroke:#000000;stroke-width:0.8;" x="454.846154" xlink:href="#m3228870585" y="640.8"/>
      </g>
     </g>
     <g id="text_9">
      <!-- normalization_logboth -->
      <defs>
       <path d="M 48.6875 27.296875 
Q 48.6875 37.203125 44.609375 42.84375 
Q 40.53125 48.484375 33.40625 48.484375 
Q 26.265625 48.484375 22.1875 42.84375 
Q 18.109375 37.203125 18.109375 27.296875 
Q 18.109375 17.390625 22.1875 11.75 
Q 26.265625 6.109375 33.40625 6.109375 
Q 40.53125 6.109375 44.609375 11.75 
Q 48.6875 17.390625 48.6875 27.296875 
z
M 18.109375 46.390625 
Q 20.953125 51.265625 25.265625 53.625 
Q 29.59375 56 35.59375 56 
Q 45.5625 56 51.78125 48.09375 
Q 58.015625 40.1875 58.015625 27.296875 
Q 58.015625 14.40625 51.78125 6.484375 
Q 45.5625 -1.421875 35.59375 -1.421875 
Q 29.59375 -1.421875 25.265625 0.953125 
Q 20.953125 3.328125 18.109375 8.203125 
L 18.109375 0 
L 9.078125 0 
L 9.078125 75.984375 
L 18.109375 75.984375 
z
" id="DejaVuSans-98"/>
       <path d="M 54.890625 33.015625 
L 54.890625 0 
L 45.90625 0 
L 45.90625 32.71875 
Q 45.90625 40.484375 42.875 44.328125 
Q 39.84375 48.1875 33.796875 48.1875 
Q 26.515625 48.1875 22.3125 43.546875 
Q 18.109375 38.921875 18.109375 30.90625 
L 18.109375 0 
L 9.078125 0 
L 9.078125 75.984375 
L 18.109375 75.984375 
L 18.109375 46.1875 
Q 21.34375 51.125 25.703125 53.5625 
Q 30.078125 56 35.796875 56 
Q 45.21875 56 50.046875 50.171875 
Q 54.890625 44.34375 54.890625 33.015625 
z
" id="DejaVuSans-104"/>
      </defs>
      <g transform="translate(457.466466 759.292187)rotate(-90)scale(0.1 -0.1)">
       <use xlink:href="#DejaVuSans-110"/>
       <use x="63.378906" xlink:href="#DejaVuSans-111"/>
       <use x="124.560547" xlink:href="#DejaVuSans-114"/>
       <use x="165.658203" xlink:href="#DejaVuSans-109"/>
       <use x="263.070312" xlink:href="#DejaVuSans-97"/>
       <use x="324.349609" xlink:href="#DejaVuSans-108"/>
       <use x="352.132812" xlink:href="#DejaVuSans-105"/>
       <use x="379.916016" xlink:href="#DejaVuSans-122"/>
       <use x="432.40625" xlink:href="#DejaVuSans-97"/>
       <use x="493.685547" xlink:href="#DejaVuSans-116"/>
       <use x="532.894531" xlink:href="#DejaVuSans-105"/>
       <use x="560.677734" xlink:href="#DejaVuSans-111"/>
       <use x="621.859375" xlink:href="#DejaVuSans-110"/>
       <use x="685.238281" xlink:href="#DejaVuSans-95"/>
       <use x="735.238281" xlink:href="#DejaVuSans-108"/>
       <use x="763.021484" xlink:href="#DejaVuSans-111"/>
       <use x="824.203125" xlink:href="#DejaVuSans-103"/>
       <use x="887.679688" xlink:href="#DejaVuSans-98"/>
       <use x="951.15625" xlink:href="#DejaVuSans-111"/>
       <use x="1012.337891" xlink:href="#DejaVuSans-116"/>
       <use x="1051.546875" xlink:href="#DejaVuSans-104"/>
      </g>
     </g>
    </g>
    <g id="xtick_10">
     <g id="line2d_10">
      <g>
       <use style="stroke:#000000;stroke-width:0.8;" x="497.769231" xlink:href="#m3228870585" y="640.8"/>
      </g>
     </g>
     <g id="text_10">
      <!-- normalization_logcol -->
      <g transform="translate(500.389543 750.9625)rotate(-90)scale(0.1 -0.1)">
       <use xlink:href="#DejaVuSans-110"/>
       <use x="63.378906" xlink:href="#DejaVuSans-111"/>
       <use x="124.560547" xlink:href="#DejaVuSans-114"/>
       <use x="165.658203" xlink:href="#DejaVuSans-109"/>
       <use x="263.070312" xlink:href="#DejaVuSans-97"/>
       <use x="324.349609" xlink:href="#DejaVuSans-108"/>
       <use x="352.132812" xlink:href="#DejaVuSans-105"/>
       <use x="379.916016" xlink:href="#DejaVuSans-122"/>
       <use x="432.40625" xlink:href="#DejaVuSans-97"/>
       <use x="493.685547" xlink:href="#DejaVuSans-116"/>
       <use x="532.894531" xlink:href="#DejaVuSans-105"/>
       <use x="560.677734" xlink:href="#DejaVuSans-111"/>
       <use x="621.859375" xlink:href="#DejaVuSans-110"/>
       <use x="685.238281" xlink:href="#DejaVuSans-95"/>
       <use x="735.238281" xlink:href="#DejaVuSans-108"/>
       <use x="763.021484" xlink:href="#DejaVuSans-111"/>
       <use x="824.203125" xlink:href="#DejaVuSans-103"/>
       <use x="887.679688" xlink:href="#DejaVuSans-99"/>
       <use x="942.660156" xlink:href="#DejaVuSans-111"/>
       <use x="1003.841797" xlink:href="#DejaVuSans-108"/>
      </g>
     </g>
    </g>
    <g id="xtick_11">
     <g id="line2d_11">
      <g>
       <use style="stroke:#000000;stroke-width:0.8;" x="540.692308" xlink:href="#m3228870585" y="640.8"/>
      </g>
     </g>
     <g id="text_11">
      <!-- normalization_logrow -->
      <defs>
       <path d="M 4.203125 54.6875 
L 13.1875 54.6875 
L 24.421875 12.015625 
L 35.59375 54.6875 
L 46.1875 54.6875 
L 57.421875 12.015625 
L 68.609375 54.6875 
L 77.59375 54.6875 
L 63.28125 0 
L 52.6875 0 
L 40.921875 44.828125 
L 29.109375 0 
L 18.5 0 
z
" id="DejaVuSans-119"/>
      </defs>
      <g transform="translate(543.31262 754.971875)rotate(-90)scale(0.1 -0.1)">
       <use xlink:href="#DejaVuSans-110"/>
       <use x="63.378906" xlink:href="#DejaVuSans-111"/>
       <use x="124.560547" xlink:href="#DejaVuSans-114"/>
       <use x="165.658203" xlink:href="#DejaVuSans-109"/>
       <use x="263.070312" xlink:href="#DejaVuSans-97"/>
       <use x="324.349609" xlink:href="#DejaVuSans-108"/>
       <use x="352.132812" xlink:href="#DejaVuSans-105"/>
       <use x="379.916016" xlink:href="#DejaVuSans-122"/>
       <use x="432.40625" xlink:href="#DejaVuSans-97"/>
       <use x="493.685547" xlink:href="#DejaVuSans-116"/>
       <use x="532.894531" xlink:href="#DejaVuSans-105"/>
       <use x="560.677734" xlink:href="#DejaVuSans-111"/>
       <use x="621.859375" xlink:href="#DejaVuSans-110"/>
       <use x="685.238281" xlink:href="#DejaVuSans-95"/>
       <use x="735.238281" xlink:href="#DejaVuSans-108"/>
       <use x="763.021484" xlink:href="#DejaVuSans-111"/>
       <use x="824.203125" xlink:href="#DejaVuSans-103"/>
       <use x="887.679688" xlink:href="#DejaVuSans-114"/>
       <use x="928.761719" xlink:href="#DejaVuSans-111"/>
       <use x="989.943359" xlink:href="#DejaVuSans-119"/>
      </g>
     </g>
    </g>
    <g id="xtick_12">
     <g id="line2d_12">
      <g>
       <use style="stroke:#000000;stroke-width:0.8;" x="583.615385" xlink:href="#m3228870585" y="640.8"/>
      </g>
     </g>
     <g id="text_12">
      <!-- normalization_relativeNo -->
      <g transform="translate(586.235697 772.859375)rotate(-90)scale(0.1 -0.1)">
       <use xlink:href="#DejaVuSans-110"/>
       <use x="63.378906" xlink:href="#DejaVuSans-111"/>
       <use x="124.560547" xlink:href="#DejaVuSans-114"/>
       <use x="165.658203" xlink:href="#DejaVuSans-109"/>
       <use x="263.070312" xlink:href="#DejaVuSans-97"/>
       <use x="324.349609" xlink:href="#DejaVuSans-108"/>
       <use x="352.132812" xlink:href="#DejaVuSans-105"/>
       <use x="379.916016" xlink:href="#DejaVuSans-122"/>
       <use x="432.40625" xlink:href="#DejaVuSans-97"/>
       <use x="493.685547" xlink:href="#DejaVuSans-116"/>
       <use x="532.894531" xlink:href="#DejaVuSans-105"/>
       <use x="560.677734" xlink:href="#DejaVuSans-111"/>
       <use x="621.859375" xlink:href="#DejaVuSans-110"/>
       <use x="685.238281" xlink:href="#DejaVuSans-95"/>
       <use x="735.238281" xlink:href="#DejaVuSans-114"/>
       <use x="776.320312" xlink:href="#DejaVuSans-101"/>
       <use x="837.84375" xlink:href="#DejaVuSans-108"/>
       <use x="865.626953" xlink:href="#DejaVuSans-97"/>
       <use x="926.90625" xlink:href="#DejaVuSans-116"/>
       <use x="966.115234" xlink:href="#DejaVuSans-105"/>
       <use x="993.898438" xlink:href="#DejaVuSans-118"/>
       <use x="1053.078125" xlink:href="#DejaVuSans-101"/>
       <use x="1114.601562" xlink:href="#DejaVuSans-78"/>
       <use x="1189.40625" xlink:href="#DejaVuSans-111"/>
      </g>
     </g>
    </g>
    <g id="xtick_13">
     <g id="line2d_13">
      <g>
       <use style="stroke:#000000;stroke-width:0.8;" x="626.538462" xlink:href="#m3228870585" y="640.8"/>
      </g>
     </g>
     <g id="text_13">
      <!-- normalization_relativez_after_relative -->
      <g transform="translate(629.158774 836.276562)rotate(-90)scale(0.1 -0.1)">
       <use xlink:href="#DejaVuSans-110"/>
       <use x="63.378906" xlink:href="#DejaVuSans-111"/>
       <use x="124.560547" xlink:href="#DejaVuSans-114"/>
       <use x="165.658203" xlink:href="#DejaVuSans-109"/>
       <use x="263.070312" xlink:href="#DejaVuSans-97"/>
       <use x="324.349609" xlink:href="#DejaVuSans-108"/>
       <use x="352.132812" xlink:href="#DejaVuSans-105"/>
       <use x="379.916016" xlink:href="#DejaVuSans-122"/>
       <use x="432.40625" xlink:href="#DejaVuSans-97"/>
       <use x="493.685547" xlink:href="#DejaVuSans-116"/>
       <use x="532.894531" xlink:href="#DejaVuSans-105"/>
       <use x="560.677734" xlink:href="#DejaVuSans-111"/>
       <use x="621.859375" xlink:href="#DejaVuSans-110"/>
       <use x="685.238281" xlink:href="#DejaVuSans-95"/>
       <use x="735.238281" xlink:href="#DejaVuSans-114"/>
       <use x="776.320312" xlink:href="#DejaVuSans-101"/>
       <use x="837.84375" xlink:href="#DejaVuSans-108"/>
       <use x="865.626953" xlink:href="#DejaVuSans-97"/>
       <use x="926.90625" xlink:href="#DejaVuSans-116"/>
       <use x="966.115234" xlink:href="#DejaVuSans-105"/>
       <use x="993.898438" xlink:href="#DejaVuSans-118"/>
       <use x="1053.078125" xlink:href="#DejaVuSans-101"/>
       <use x="1114.601562" xlink:href="#DejaVuSans-122"/>
       <use x="1167.091797" xlink:href="#DejaVuSans-95"/>
       <use x="1217.091797" xlink:href="#DejaVuSans-97"/>
       <use x="1278.371094" xlink:href="#DejaVuSans-102"/>
       <use x="1313.560547" xlink:href="#DejaVuSans-116"/>
       <use x="1352.769531" xlink:href="#DejaVuSans-101"/>
       <use x="1414.292969" xlink:href="#DejaVuSans-114"/>
       <use x="1455.40625" xlink:href="#DejaVuSans-95"/>
       <use x="1505.40625" xlink:href="#DejaVuSans-114"/>
       <use x="1546.488281" xlink:href="#DejaVuSans-101"/>
       <use x="1608.011719" xlink:href="#DejaVuSans-108"/>
       <use x="1635.794922" xlink:href="#DejaVuSans-97"/>
       <use x="1697.074219" xlink:href="#DejaVuSans-116"/>
       <use x="1736.283203" xlink:href="#DejaVuSans-105"/>
       <use x="1764.066406" xlink:href="#DejaVuSans-118"/>
       <use x="1823.246094" xlink:href="#DejaVuSans-101"/>
      </g>
     </g>
    </g>
   </g>
   <g id="matplotlib.axis_2">
    <g id="ytick_1">
     <g id="line2d_14">
      <defs>
       <path d="M 0 0 
L -3.5 0 
" id="m1a62c3753e" style="stroke:#000000;stroke-width:0.8;"/>
      </defs>
      <g>
       <use style="stroke:#000000;stroke-width:0.8;" x="90" xlink:href="#m1a62c3753e" y="607.048573"/>
      </g>
     </g>
     <g id="text_14">
      <!-- −0.15 -->
      <defs>
       <path d="M 10.59375 35.5 
L 73.1875 35.5 
L 73.1875 27.203125 
L 10.59375 27.203125 
z
" id="DejaVuSans-8722"/>
       <path d="M 31.78125 66.40625 
Q 24.171875 66.40625 20.328125 58.90625 
Q 16.5 51.421875 16.5 36.375 
Q 16.5 21.390625 20.328125 13.890625 
Q 24.171875 6.390625 31.78125 6.390625 
Q 39.453125 6.390625 43.28125 13.890625 
Q 47.125 21.390625 47.125 36.375 
Q 47.125 51.421875 43.28125 58.90625 
Q 39.453125 66.40625 31.78125 66.40625 
z
M 31.78125 74.21875 
Q 44.046875 74.21875 50.515625 64.515625 
Q 56.984375 54.828125 56.984375 36.375 
Q 56.984375 17.96875 50.515625 8.265625 
Q 44.046875 -1.421875 31.78125 -1.421875 
Q 19.53125 -1.421875 13.0625 8.265625 
Q 6.59375 17.96875 6.59375 36.375 
Q 6.59375 54.828125 13.0625 64.515625 
Q 19.53125 74.21875 31.78125 74.21875 
z
" id="DejaVuSans-48"/>
       <path d="M 10.6875 12.40625 
L 21 12.40625 
L 21 0 
L 10.6875 0 
z
" id="DejaVuSans-46"/>
       <path d="M 12.40625 8.296875 
L 28.515625 8.296875 
L 28.515625 63.921875 
L 10.984375 60.40625 
L 10.984375 69.390625 
L 28.421875 72.90625 
L 38.28125 72.90625 
L 38.28125 8.296875 
L 54.390625 8.296875 
L 54.390625 0 
L 12.40625 0 
z
" id="DejaVuSans-49"/>
       <path d="M 10.796875 72.90625 
L 49.515625 72.90625 
L 49.515625 64.59375 
L 19.828125 64.59375 
L 19.828125 46.734375 
Q 21.96875 47.46875 24.109375 47.828125 
Q 26.265625 48.1875 28.421875 48.1875 
Q 40.625 48.1875 47.75 41.5 
Q 54.890625 34.8125 54.890625 23.390625 
Q 54.890625 11.625 47.5625 5.09375 
Q 40.234375 -1.421875 26.90625 -1.421875 
Q 22.3125 -1.421875 17.546875 -0.640625 
Q 12.796875 0.140625 7.71875 1.703125 
L 7.71875 11.625 
Q 12.109375 9.234375 16.796875 8.0625 
Q 21.484375 6.890625 26.703125 6.890625 
Q 35.15625 6.890625 40.078125 11.328125 
Q 45.015625 15.765625 45.015625 23.390625 
Q 45.015625 31 40.078125 35.4375 
Q 35.15625 39.890625 26.703125 39.890625 
Q 22.75 39.890625 18.8125 39.015625 
Q 14.890625 38.140625 10.796875 36.28125 
z
" id="DejaVuSans-53"/>
      </defs>
      <g transform="translate(52.354687 610.847792)scale(0.1 -0.1)">
       <use xlink:href="#DejaVuSans-8722"/>
       <use x="83.789062" xlink:href="#DejaVuSans-48"/>
       <use x="147.412109" xlink:href="#DejaVuSans-46"/>
       <use x="179.199219" xlink:href="#DejaVuSans-49"/>
       <use x="242.822266" xlink:href="#DejaVuSans-53"/>
      </g>
     </g>
    </g>
    <g id="ytick_2">
     <g id="line2d_15">
      <g>
       <use style="stroke:#000000;stroke-width:0.8;" x="90" xlink:href="#m1a62c3753e" y="494.336053"/>
      </g>
     </g>
     <g id="text_15">
      <!-- −0.10 -->
      <g transform="translate(52.354687 498.135272)scale(0.1 -0.1)">
       <use xlink:href="#DejaVuSans-8722"/>
       <use x="83.789062" xlink:href="#DejaVuSans-48"/>
       <use x="147.412109" xlink:href="#DejaVuSans-46"/>
       <use x="179.199219" xlink:href="#DejaVuSans-49"/>
       <use x="242.822266" xlink:href="#DejaVuSans-48"/>
      </g>
     </g>
    </g>
    <g id="ytick_3">
     <g id="line2d_16">
      <g>
       <use style="stroke:#000000;stroke-width:0.8;" x="90" xlink:href="#m1a62c3753e" y="381.623533"/>
      </g>
     </g>
     <g id="text_16">
      <!-- −0.05 -->
      <g transform="translate(52.354687 385.422752)scale(0.1 -0.1)">
       <use xlink:href="#DejaVuSans-8722"/>
       <use x="83.789062" xlink:href="#DejaVuSans-48"/>
       <use x="147.412109" xlink:href="#DejaVuSans-46"/>
       <use x="179.199219" xlink:href="#DejaVuSans-48"/>
       <use x="242.822266" xlink:href="#DejaVuSans-53"/>
      </g>
     </g>
    </g>
    <g id="ytick_4">
     <g id="line2d_17">
      <g>
       <use style="stroke:#000000;stroke-width:0.8;" x="90" xlink:href="#m1a62c3753e" y="268.911013"/>
      </g>
     </g>
     <g id="text_17">
      <!-- 0.00 -->
      <g transform="translate(60.734375 272.710232)scale(0.1 -0.1)">
       <use xlink:href="#DejaVuSans-48"/>
       <use x="63.623047" xlink:href="#DejaVuSans-46"/>
       <use x="95.410156" xlink:href="#DejaVuSans-48"/>
       <use x="159.033203" xlink:href="#DejaVuSans-48"/>
      </g>
     </g>
    </g>
    <g id="ytick_5">
     <g id="line2d_18">
      <g>
       <use style="stroke:#000000;stroke-width:0.8;" x="90" xlink:href="#m1a62c3753e" y="156.198493"/>
      </g>
     </g>
     <g id="text_18">
      <!-- 0.05 -->
      <g transform="translate(60.734375 159.997712)scale(0.1 -0.1)">
       <use xlink:href="#DejaVuSans-48"/>
       <use x="63.623047" xlink:href="#DejaVuSans-46"/>
       <use x="95.410156" xlink:href="#DejaVuSans-48"/>
       <use x="159.033203" xlink:href="#DejaVuSans-53"/>
      </g>
     </g>
    </g>
   </g>
   <g id="patch_3">
    <path d="M 90 640.8 
L 90 86.4 
" style="fill:none;stroke:#000000;stroke-linecap:square;stroke-linejoin:miter;stroke-width:0.8;"/>
   </g>
   <g id="patch_4">
    <path d="M 648 640.8 
L 648 86.4 
" style="fill:none;stroke:#000000;stroke-linecap:square;stroke-linejoin:miter;stroke-width:0.8;"/>
   </g>
   <g id="patch_5">
    <path d="M 90 640.8 
L 648 640.8 
" style="fill:none;stroke:#000000;stroke-linecap:square;stroke-linejoin:miter;stroke-width:0.8;"/>
   </g>
   <g id="patch_6">
    <path d="M 90 86.4 
L 648 86.4 
" style="fill:none;stroke:#000000;stroke-linecap:square;stroke-linejoin:miter;stroke-width:0.8;"/>
   </g>
   <g id="PathCollection_1">
    <defs>
     <path d="M 0 2.5 
C 0.663008 2.5 1.29895 2.236584 1.767767 1.767767 
C 2.236584 1.29895 2.5 0.663008 2.5 0 
C 2.5 -0.663008 2.236584 -1.29895 1.767767 -1.767767 
C 1.29895 -2.236584 0.663008 -2.5 0 -2.5 
C -0.663008 -2.5 -1.29895 -2.236584 -1.767767 -1.767767 
C -2.236584 -1.29895 -2.5 -0.663008 -2.5 0 
C -2.5 0.663008 -2.236584 1.29895 -1.767767 1.767767 
C -1.29895 2.236584 -0.663008 2.5 0 2.5 
z
" id="C0_0_1645862286"/>
    </defs>
    <g clip-path="url(#p6e5ec44c3e)">
     <use style="fill:#f8889a;" x="112.830106" xlink:href="#C0_0_1645862286" y="247.82812"/>
    </g>
    <g clip-path="url(#p6e5ec44c3e)">
     <use style="fill:#f8889a;" x="115.367053" xlink:href="#C0_0_1645862286" y="239.008226"/>
    </g>
    <g clip-path="url(#p6e5ec44c3e)">
     <use style="fill:#f8889a;" x="115.732173" xlink:href="#C0_0_1645862286" y="329.786881"/>
    </g>
    <g clip-path="url(#p6e5ec44c3e)">
     <use style="fill:#f8889a;" x="112.077478" xlink:href="#C0_0_1645862286" y="334.18936"/>
    </g>
    <g clip-path="url(#p6e5ec44c3e)">
     <use style="fill:#f8889a;" x="115.140337" xlink:href="#C0_0_1645862286" y="285.677235"/>
    </g>
    <g clip-path="url(#p6e5ec44c3e)">
     <use style="fill:#f8889a;" x="115.38372" xlink:href="#C0_0_1645862286" y="322.492201"/>
    </g>
   </g>
   <g id="PathCollection_2">
    <defs>
     <path d="M 0 2.5 
C 0.663008 2.5 1.29895 2.236584 1.767767 1.767767 
C 2.236584 1.29895 2.5 0.663008 2.5 0 
C 2.5 -0.663008 2.236584 -1.29895 1.767767 -1.767767 
C 1.29895 -2.236584 0.663008 -2.5 0 -2.5 
C -0.663008 -2.5 -1.29895 -2.236584 -1.767767 -1.767767 
C -2.236584 -1.29895 -2.5 -0.663008 -2.5 0 
C -2.5 0.663008 -2.236584 1.29895 -1.767767 1.767767 
C -1.29895 2.236584 -0.663008 2.5 0 2.5 
z
" id="C1_0_b97d4957a2"/>
    </defs>
    <g clip-path="url(#p6e5ec44c3e)">
     <use style="fill:#f88e4b;" x="154.493387" xlink:href="#C1_0_b97d4957a2" y="251.299682"/>
    </g>
    <g clip-path="url(#p6e5ec44c3e)">
     <use style="fill:#f88e4b;" x="151.98305" xlink:href="#C1_0_b97d4957a2" y="216.07702"/>
    </g>
    <g clip-path="url(#p6e5ec44c3e)">
     <use style="fill:#f88e4b;" x="153.27592" xlink:href="#C1_0_b97d4957a2" y="295.32801"/>
    </g>
    <g clip-path="url(#p6e5ec44c3e)">
     <use style="fill:#f88e4b;" x="153.151066" xlink:href="#C1_0_b97d4957a2" y="268.911013"/>
    </g>
    <g clip-path="url(#p6e5ec44c3e)">
     <use style="fill:#f88e4b;" x="154.14826" xlink:href="#C1_0_b97d4957a2" y="268.911013"/>
    </g>
    <g clip-path="url(#p6e5ec44c3e)">
     <use style="fill:#f88e4b;" x="151.402658" xlink:href="#C1_0_b97d4957a2" y="287.623053"/>
    </g>
   </g>
   <g id="PathCollection_3">
    <defs>
     <path d="M 0 2.5 
C 0.663008 2.5 1.29895 2.236584 1.767767 1.767767 
C 2.236584 1.29895 2.5 0.663008 2.5 0 
C 2.5 -0.663008 2.236584 -1.29895 1.767767 -1.767767 
C 1.29895 -2.236584 0.663008 -2.5 0 -2.5 
C -0.663008 -2.5 -1.29895 -2.236584 -1.767767 -1.767767 
C -2.236584 -1.29895 -2.5 -0.663008 -2.5 0 
C -2.5 0.663008 -2.236584 1.29895 -1.767767 1.767767 
C -1.29895 2.236584 -0.663008 2.5 0 2.5 
z
" id="C2_0_91e89cd249"/>
    </defs>
    <g clip-path="url(#p6e5ec44c3e)">
     <use style="fill:#d1a237;" x="196.383711" xlink:href="#C2_0_91e89cd249" y="312.939341"/>
    </g>
    <g clip-path="url(#p6e5ec44c3e)">
     <use style="fill:#d1a237;" x="197.405763" xlink:href="#C2_0_91e89cd249" y="409.801663"/>
    </g>
    <g clip-path="url(#p6e5ec44c3e)">
     <use style="fill:#d1a237;" x="198.444939" xlink:href="#C2_0_91e89cd249" y="286.522345"/>
    </g>
    <g clip-path="url(#p6e5ec44c3e)">
     <use style="fill:#d1a237;" x="195.66656" xlink:href="#C2_0_91e89cd249" y="312.939341"/>
    </g>
    <g clip-path="url(#p6e5ec44c3e)">
     <use style="fill:#d1a237;" x="197.0523" xlink:href="#C2_0_91e89cd249" y="339.356338"/>
    </g>
    <g clip-path="url(#p6e5ec44c3e)">
     <use style="fill:#d1a237;" x="193.638378" xlink:href="#C2_0_91e89cd249" y="220.479852"/>
    </g>
   </g>
   <g id="PathCollection_4">
    <defs>
     <path d="M 0 2.5 
C 0.663008 2.5 1.29895 2.236584 1.767767 1.767767 
C 2.236584 1.29895 2.5 0.663008 2.5 0 
C 2.5 -0.663008 2.236584 -1.29895 1.767767 -1.767767 
C 1.29895 -2.236584 0.663008 -2.5 0 -2.5 
C -0.663008 -2.5 -1.29895 -2.236584 -1.767767 -1.767767 
C -2.236584 -1.29895 -2.5 -0.663008 -2.5 0 
C -2.5 0.663008 -2.236584 1.29895 -1.767767 1.767767 
C -1.29895 2.236584 -0.663008 2.5 0 2.5 
z
" id="C3_0_7a4081e293"/>
    </defs>
    <g clip-path="url(#p6e5ec44c3e)">
     <use style="fill:#aeaf36;" x="237.0759" xlink:href="#C3_0_7a4081e293" y="251.299682"/>
    </g>
    <g clip-path="url(#p6e5ec44c3e)">
     <use style="fill:#aeaf36;" x="243.66552" xlink:href="#C3_0_7a4081e293" y="128.020363"/>
    </g>
    <g clip-path="url(#p6e5ec44c3e)">
     <use style="fill:#aeaf36;" x="243.273478" xlink:href="#C3_0_7a4081e293" y="224.882685"/>
    </g>
    <g clip-path="url(#p6e5ec44c3e)">
     <use style="fill:#aeaf36;" x="237.816585" xlink:href="#C3_0_7a4081e293" y="216.07702"/>
    </g>
    <g clip-path="url(#p6e5ec44c3e)">
     <use style="fill:#aeaf36;" x="236.422768" xlink:href="#C3_0_7a4081e293" y="198.465688"/>
    </g>
    <g clip-path="url(#p6e5ec44c3e)">
     <use style="fill:#aeaf36;" x="237.998022" xlink:href="#C3_0_7a4081e293" y="298.630135"/>
    </g>
   </g>
   <g id="PathCollection_5">
    <defs>
     <path d="M 0 2.5 
C 0.663008 2.5 1.29895 2.236584 1.767767 1.767767 
C 2.236584 1.29895 2.5 0.663008 2.5 0 
C 2.5 -0.663008 2.236584 -1.29895 1.767767 -1.767767 
C 1.29895 -2.236584 0.663008 -2.5 0 -2.5 
C -0.663008 -2.5 -1.29895 -2.236584 -1.767767 -1.767767 
C -2.236584 -1.29895 -2.5 -0.663008 -2.5 0 
C -2.5 0.663008 -2.236584 1.29895 -1.767767 1.767767 
C -1.29895 2.236584 -0.663008 2.5 0 2.5 
z
" id="C4_0_31ed22928f"/>
    </defs>
    <g clip-path="url(#p6e5ec44c3e)">
     <use style="fill:#7abb36;" x="284.21567" xlink:href="#C4_0_31ed22928f" y="260.105348"/>
    </g>
    <g clip-path="url(#p6e5ec44c3e)">
     <use style="fill:#7abb36;" x="279.326599" xlink:href="#C4_0_31ed22928f" y="260.105348"/>
    </g>
    <g clip-path="url(#p6e5ec44c3e)">
     <use style="fill:#7abb36;" x="285.597829" xlink:href="#C4_0_31ed22928f" y="268.911013"/>
    </g>
    <g clip-path="url(#p6e5ec44c3e)">
     <use style="fill:#7abb36;" x="284.288162" xlink:href="#C4_0_31ed22928f" y="290.925177"/>
    </g>
    <g clip-path="url(#p6e5ec44c3e)">
     <use style="fill:#7abb36;" x="284.85306" xlink:href="#C4_0_31ed22928f" y="299.730843"/>
    </g>
    <g clip-path="url(#p6e5ec44c3e)">
     <use style="fill:#7abb36;" x="279.673739" xlink:href="#C4_0_31ed22928f" y="270.011721"/>
    </g>
   </g>
   <g id="PathCollection_6">
    <defs>
     <path d="M 0 2.5 
C 0.663008 2.5 1.29895 2.236584 1.767767 1.767767 
C 2.236584 1.29895 2.5 0.663008 2.5 0 
C 2.5 -0.663008 2.236584 -1.29895 1.767767 -1.767767 
C 1.29895 -2.236584 0.663008 -2.5 0 -2.5 
C -0.663008 -2.5 -1.29895 -2.236584 -1.767767 -1.767767 
C -2.236584 -1.29895 -2.5 -0.663008 -2.5 0 
C -2.5 0.663008 -2.236584 1.29895 -1.767767 1.767767 
C -1.29895 2.236584 -0.663008 2.5 0 2.5 
z
" id="C5_0_c3e9b94e40"/>
    </defs>
    <g clip-path="url(#p6e5ec44c3e)">
     <use style="fill:#38c079;" x="324.836618" xlink:href="#C5_0_c3e9b94e40" y="282.119512"/>
    </g>
    <g clip-path="url(#p6e5ec44c3e)">
     <use style="fill:#38c079;" x="329.802063" xlink:href="#C5_0_c3e9b94e40" y="216.07702"/>
    </g>
    <g clip-path="url(#p6e5ec44c3e)">
     <use style="fill:#38c079;" x="327.368105" xlink:href="#C5_0_c3e9b94e40" y="255.702515"/>
    </g>
    <g clip-path="url(#p6e5ec44c3e)">
     <use style="fill:#38c079;" x="330.141959" xlink:href="#C5_0_c3e9b94e40" y="242.494016"/>
    </g>
    <g clip-path="url(#p6e5ec44c3e)">
     <use style="fill:#38c079;" x="324.948966" xlink:href="#C5_0_c3e9b94e40" y="132.423196"/>
    </g>
    <g clip-path="url(#p6e5ec44c3e)">
     <use style="fill:#38c079;" x="329.932648" xlink:href="#C5_0_c3e9b94e40" y="285.421636"/>
    </g>
   </g>
   <g id="PathCollection_7">
    <defs>
     <path d="M 0 2.5 
C 0.663008 2.5 1.29895 2.236584 1.767767 1.767767 
C 2.236584 1.29895 2.5 0.663008 2.5 0 
C 2.5 -0.663008 2.236584 -1.29895 1.767767 -1.767767 
C 1.29895 -2.236584 0.663008 -2.5 0 -2.5 
C -0.663008 -2.5 -1.29895 -2.236584 -1.767767 -1.767767 
C -2.236584 -1.29895 -2.5 -0.663008 -2.5 0 
C -2.5 0.663008 -2.236584 1.29895 -1.767767 1.767767 
C -1.29895 2.236584 -0.663008 2.5 0 2.5 
z
" id="C6_0_552686b137"/>
    </defs>
    <g clip-path="url(#p6e5ec44c3e)">
     <use style="fill:#3abca4;" x="370.06117" xlink:href="#C6_0_552686b137" y="255.702515"/>
    </g>
    <g clip-path="url(#p6e5ec44c3e)">
     <use style="fill:#3abca4;" x="365.354274" xlink:href="#C6_0_552686b137" y="339.356338"/>
    </g>
    <g clip-path="url(#p6e5ec44c3e)">
     <use style="fill:#3abca4;" x="369.680994" xlink:href="#C6_0_552686b137" y="286.522345"/>
    </g>
    <g clip-path="url(#p6e5ec44c3e)">
     <use style="fill:#3abca4;" x="369.910889" xlink:href="#C6_0_552686b137" y="277.716679"/>
    </g>
    <g clip-path="url(#p6e5ec44c3e)">
     <use style="fill:#3abca4;" x="365.594028" xlink:href="#C6_0_552686b137" y="378.981834"/>
    </g>
    <g clip-path="url(#p6e5ec44c3e)">
     <use style="fill:#3abca4;" x="371.954506" xlink:href="#C6_0_552686b137" y="253.501098"/>
    </g>
   </g>
   <g id="PathCollection_8">
    <defs>
     <path d="M 0 2.5 
C 0.663008 2.5 1.29895 2.236584 1.767767 1.767767 
C 2.236584 1.29895 2.5 0.663008 2.5 0 
C 2.5 -0.663008 2.236584 -1.29895 1.767767 -1.767767 
C 1.29895 -2.236584 0.663008 -2.5 0 -2.5 
C -0.663008 -2.5 -1.29895 -2.236584 -1.767767 -1.767767 
C -2.236584 -1.29895 -2.5 -0.663008 -2.5 0 
C -2.5 0.663008 -2.236584 1.29895 -1.767767 1.767767 
C -1.29895 2.236584 -0.663008 2.5 0 2.5 
z
" id="C7_0_3e44c541bc"/>
    </defs>
    <g clip-path="url(#p6e5ec44c3e)">
     <use style="fill:#3cbabf;" x="412.836422" xlink:href="#C7_0_3e44c541bc" y="176.451524"/>
    </g>
    <g clip-path="url(#p6e5ec44c3e)">
     <use style="fill:#3cbabf;" x="413.860235" xlink:href="#C7_0_3e44c541bc" y="152.235944"/>
    </g>
    <g clip-path="url(#p6e5ec44c3e)">
     <use style="fill:#3cbabf;" x="408.53044" xlink:href="#C7_0_3e44c541bc" y="192.962147"/>
    </g>
    <g clip-path="url(#p6e5ec44c3e)">
     <use style="fill:#3cbabf;" x="411.2911" xlink:href="#C7_0_3e44c541bc" y="282.119512"/>
    </g>
    <g clip-path="url(#p6e5ec44c3e)">
     <use style="fill:#3cbabf;" x="409.818066" xlink:href="#C7_0_3e44c541bc" y="155.538068"/>
    </g>
    <g clip-path="url(#p6e5ec44c3e)">
     <use style="fill:#3cbabf;" x="414.882014" xlink:href="#C7_0_3e44c541bc" y="156.913954"/>
    </g>
   </g>
   <g id="PathCollection_9">
    <defs>
     <path d="M 0 2.5 
C 0.663008 2.5 1.29895 2.236584 1.767767 1.767767 
C 2.236584 1.29895 2.5 0.663008 2.5 0 
C 2.5 -0.663008 2.236584 -1.29895 1.767767 -1.767767 
C 1.29895 -2.236584 0.663008 -2.5 0 -2.5 
C -0.663008 -2.5 -1.29895 -2.236584 -1.767767 -1.767767 
C -2.236584 -1.29895 -2.5 -0.663008 -2.5 0 
C -2.5 0.663008 -2.236584 1.29895 -1.767767 1.767767 
C -1.29895 2.236584 -0.663008 2.5 0 2.5 
z
" id="C8_0_51e1658d21"/>
    </defs>
    <g clip-path="url(#p6e5ec44c3e)">
     <use style="fill:#3eb6dd;" x="451.123586" xlink:href="#C8_0_51e1658d21" y="236.990475"/>
    </g>
    <g clip-path="url(#p6e5ec44c3e)">
     <use style="fill:#3eb6dd;" x="457.842208" xlink:href="#C8_0_51e1658d21" y="275.515263"/>
    </g>
    <g clip-path="url(#p6e5ec44c3e)">
     <use style="fill:#3eb6dd;" x="453.895328" xlink:href="#C8_0_51e1658d21" y="150.034527"/>
    </g>
    <g clip-path="url(#p6e5ec44c3e)">
     <use style="fill:#3eb6dd;" x="456.137607" xlink:href="#C8_0_51e1658d21" y="141.228862"/>
    </g>
    <g clip-path="url(#p6e5ec44c3e)">
     <use style="fill:#3eb6dd;" x="457.182433" xlink:href="#C8_0_51e1658d21" y="175.350816"/>
    </g>
    <g clip-path="url(#p6e5ec44c3e)">
     <use style="fill:#3eb6dd;" x="456.183666" xlink:href="#C8_0_51e1658d21" y="234.513882"/>
    </g>
   </g>
   <g id="PathCollection_10">
    <defs>
     <path d="M 0 2.5 
C 0.663008 2.5 1.29895 2.236584 1.767767 1.767767 
C 2.236584 1.29895 2.5 0.663008 2.5 0 
C 2.5 -0.663008 2.236584 -1.29895 1.767767 -1.767767 
C 1.29895 -2.236584 0.663008 -2.5 0 -2.5 
C -0.663008 -2.5 -1.29895 -2.236584 -1.767767 -1.767767 
C -2.236584 -1.29895 -2.5 -0.663008 -2.5 0 
C -2.5 0.663008 -2.236584 1.29895 -1.767767 1.767767 
C -1.29895 2.236584 -0.663008 2.5 0 2.5 
z
" id="C9_0_b1a6c7f00d"/>
    </defs>
    <g clip-path="url(#p6e5ec44c3e)">
     <use style="fill:#7eaaf6;" x="494.496935" xlink:href="#C9_0_b1a6c7f00d" y="229.285518"/>
    </g>
    <g clip-path="url(#p6e5ec44c3e)">
     <use style="fill:#7eaaf6;" x="498.727475" xlink:href="#C9_0_b1a6c7f00d" y="257.903931"/>
    </g>
    <g clip-path="url(#p6e5ec44c3e)">
     <use style="fill:#7eaaf6;" x="494.475197" xlink:href="#C9_0_b1a6c7f00d" y="188.559314"/>
    </g>
    <g clip-path="url(#p6e5ec44c3e)">
     <use style="fill:#7eaaf6;" x="501.869566" xlink:href="#C9_0_b1a6c7f00d" y="202.868521"/>
    </g>
    <g clip-path="url(#p6e5ec44c3e)">
     <use style="fill:#7eaaf6;" x="499.161059" xlink:href="#C9_0_b1a6c7f00d" y="146.732403"/>
    </g>
    <g clip-path="url(#p6e5ec44c3e)">
     <use style="fill:#7eaaf6;" x="500.841768" xlink:href="#C9_0_b1a6c7f00d" y="259.830171"/>
    </g>
   </g>
   <g id="PathCollection_11">
    <defs>
     <path d="M 0 2.5 
C 0.663008 2.5 1.29895 2.236584 1.767767 1.767767 
C 2.236584 1.29895 2.5 0.663008 2.5 0 
C 2.5 -0.663008 2.236584 -1.29895 1.767767 -1.767767 
C 1.29895 -2.236584 0.663008 -2.5 0 -2.5 
C -0.663008 -2.5 -1.29895 -2.236584 -1.767767 -1.767767 
C -2.236584 -1.29895 -2.5 -0.663008 -2.5 0 
C -2.5 0.663008 -2.236584 1.29895 -1.767767 1.767767 
C -1.29895 2.236584 -0.663008 2.5 0 2.5 
z
" id="Ca_0_6e31a17d5a"/>
    </defs>
    <g clip-path="url(#p6e5ec44c3e)">
     <use style="fill:#bd97f6;" x="543.034456" xlink:href="#Ca_0_6e31a17d5a" y="208.372062"/>
    </g>
    <g clip-path="url(#p6e5ec44c3e)">
     <use style="fill:#bd97f6;" x="541.48734" xlink:href="#Ca_0_6e31a17d5a" y="112.610448"/>
    </g>
    <g clip-path="url(#p6e5ec44c3e)">
     <use style="fill:#bd97f6;" x="541.033743" xlink:href="#Ca_0_6e31a17d5a" y="175.350816"/>
    </g>
    <g clip-path="url(#p6e5ec44c3e)">
     <use style="fill:#bd97f6;" x="544.565713" xlink:href="#Ca_0_6e31a17d5a" y="262.306764"/>
    </g>
    <g clip-path="url(#p6e5ec44c3e)">
     <use style="fill:#bd97f6;" x="537.610654" xlink:href="#Ca_0_6e31a17d5a" y="213.875603"/>
    </g>
    <g clip-path="url(#p6e5ec44c3e)">
     <use style="fill:#bd97f6;" x="542.769692" xlink:href="#Ca_0_6e31a17d5a" y="120.86576"/>
    </g>
   </g>
   <g id="PathCollection_12">
    <defs>
     <path d="M 0 2.5 
C 0.663008 2.5 1.29895 2.236584 1.767767 1.767767 
C 2.236584 1.29895 2.5 0.663008 2.5 0 
C 2.5 -0.663008 2.236584 -1.29895 1.767767 -1.767767 
C 1.29895 -2.236584 0.663008 -2.5 0 -2.5 
C -0.663008 -2.5 -1.29895 -2.236584 -1.767767 -1.767767 
C -2.236584 -1.29895 -2.5 -0.663008 -2.5 0 
C -2.5 0.663008 -2.236584 1.29895 -1.767767 1.767767 
C -1.29895 2.236584 -0.663008 2.5 0 2.5 
z
" id="Cb_0_9ca503224c"/>
    </defs>
    <g clip-path="url(#p6e5ec44c3e)">
     <use style="fill:#f579f6;" x="585.73581" xlink:href="#Cb_0_9ca503224c" y="325.047132"/>
    </g>
    <g clip-path="url(#p6e5ec44c3e)">
     <use style="fill:#f579f6;" x="580.833796" xlink:href="#Cb_0_9ca503224c" y="559.497979"/>
    </g>
    <g clip-path="url(#p6e5ec44c3e)">
     <use style="fill:#f579f6;" x="579.745276" xlink:href="#Cb_0_9ca503224c" y="582.612851"/>
    </g>
    <g clip-path="url(#p6e5ec44c3e)">
     <use style="fill:#f579f6;" x="585.058733" xlink:href="#Cb_0_9ca503224c" y="534.18169"/>
    </g>
    <g clip-path="url(#p6e5ec44c3e)">
     <use style="fill:#f579f6;" x="585.542606" xlink:href="#Cb_0_9ca503224c" y="614.533389"/>
    </g>
    <g clip-path="url(#p6e5ec44c3e)">
     <use style="fill:#f579f6;" x="584.265145" xlink:href="#Cb_0_9ca503224c" y="467.313667"/>
    </g>
   </g>
   <g id="PathCollection_13">
    <defs>
     <path d="M 0 2.5 
C 0.663008 2.5 1.29895 2.236584 1.767767 1.767767 
C 2.236584 1.29895 2.5 0.663008 2.5 0 
C 2.5 -0.663008 2.236584 -1.29895 1.767767 -1.767767 
C 1.29895 -2.236584 0.663008 -2.5 0 -2.5 
C -0.663008 -2.5 -1.29895 -2.236584 -1.767767 -1.767767 
C -2.236584 -1.29895 -2.5 -0.663008 -2.5 0 
C -2.5 0.663008 -2.236584 1.29895 -1.767767 1.767767 
C -1.29895 2.236584 -0.663008 2.5 0 2.5 
z
" id="Cc_0_23fddbc068"/>
    </defs>
    <g clip-path="url(#p6e5ec44c3e)">
     <use style="fill:#f782c5;" x="630.581367" xlink:href="#Cc_0_23fddbc068" y="438.420077"/>
    </g>
    <g clip-path="url(#p6e5ec44c3e)">
     <use style="fill:#f782c5;" x="626.364711" xlink:href="#Cc_0_23fddbc068" y="249.098266"/>
    </g>
    <g clip-path="url(#p6e5ec44c3e)">
     <use style="fill:#f782c5;" x="627.937626" xlink:href="#Cc_0_23fddbc068" y="320.644299"/>
    </g>
    <g clip-path="url(#p6e5ec44c3e)">
     <use style="fill:#f782c5;" x="627.098616" xlink:href="#Cc_0_23fddbc068" y="187.458606"/>
    </g>
    <g clip-path="url(#p6e5ec44c3e)">
     <use style="fill:#f782c5;" x="625.389374" xlink:href="#Cc_0_23fddbc068" y="303.032968"/>
    </g>
    <g clip-path="url(#p6e5ec44c3e)">
     <use style="fill:#f782c5;" x="626.027211" xlink:href="#Cc_0_23fddbc068" y="374.028647"/>
    </g>
   </g>
   <g id="text_19">
    <!-- SVM coefficient plot -->
    <defs>
     <path d="M 53.515625 70.515625 
L 53.515625 60.890625 
Q 47.90625 63.578125 42.921875 64.890625 
Q 37.9375 66.21875 33.296875 66.21875 
Q 25.25 66.21875 20.875 63.09375 
Q 16.5 59.96875 16.5 54.203125 
Q 16.5 49.359375 19.40625 46.890625 
Q 22.3125 44.4375 30.421875 42.921875 
L 36.375 41.703125 
Q 47.40625 39.59375 52.65625 34.296875 
Q 57.90625 29 57.90625 20.125 
Q 57.90625 9.515625 50.796875 4.046875 
Q 43.703125 -1.421875 29.984375 -1.421875 
Q 24.8125 -1.421875 18.96875 -0.25 
Q 13.140625 0.921875 6.890625 3.21875 
L 6.890625 13.375 
Q 12.890625 10.015625 18.65625 8.296875 
Q 24.421875 6.59375 29.984375 6.59375 
Q 38.421875 6.59375 43.015625 9.90625 
Q 47.609375 13.234375 47.609375 19.390625 
Q 47.609375 24.75 44.3125 27.78125 
Q 41.015625 30.8125 33.5 32.328125 
L 27.484375 33.5 
Q 16.453125 35.6875 11.515625 40.375 
Q 6.59375 45.0625 6.59375 53.421875 
Q 6.59375 63.09375 13.40625 68.65625 
Q 20.21875 74.21875 32.171875 74.21875 
Q 37.3125 74.21875 42.625 73.28125 
Q 47.953125 72.359375 53.515625 70.515625 
z
" id="DejaVuSans-83"/>
     <path d="M 28.609375 0 
L 0.78125 72.90625 
L 11.078125 72.90625 
L 34.1875 11.53125 
L 57.328125 72.90625 
L 67.578125 72.90625 
L 39.796875 0 
z
" id="DejaVuSans-86"/>
     <path d="M 9.8125 72.90625 
L 24.515625 72.90625 
L 43.109375 23.296875 
L 61.8125 72.90625 
L 76.515625 72.90625 
L 76.515625 0 
L 66.890625 0 
L 66.890625 64.015625 
L 48.09375 14.015625 
L 38.1875 14.015625 
L 19.390625 64.015625 
L 19.390625 0 
L 9.8125 0 
z
" id="DejaVuSans-77"/>
    </defs>
    <g transform="translate(309.230625 80.4)scale(0.12 -0.12)">
     <use xlink:href="#DejaVuSans-83"/>
     <use x="63.476562" xlink:href="#DejaVuSans-86"/>
     <use x="131.884766" xlink:href="#DejaVuSans-77"/>
     <use x="218.164062" xlink:href="#DejaVuSans-32"/>
     <use x="249.951172" xlink:href="#DejaVuSans-99"/>
     <use x="304.931641" xlink:href="#DejaVuSans-111"/>
     <use x="366.113281" xlink:href="#DejaVuSans-101"/>
     <use x="427.636719" xlink:href="#DejaVuSans-102"/>
     <use x="462.841797" xlink:href="#DejaVuSans-102"/>
     <use x="498.046875" xlink:href="#DejaVuSans-105"/>
     <use x="525.830078" xlink:href="#DejaVuSans-99"/>
     <use x="580.810547" xlink:href="#DejaVuSans-105"/>
     <use x="608.59375" xlink:href="#DejaVuSans-101"/>
     <use x="670.117188" xlink:href="#DejaVuSans-110"/>
     <use x="733.496094" xlink:href="#DejaVuSans-116"/>
     <use x="772.705078" xlink:href="#DejaVuSans-32"/>
     <use x="804.492188" xlink:href="#DejaVuSans-112"/>
     <use x="867.96875" xlink:href="#DejaVuSans-108"/>
     <use x="895.751953" xlink:href="#DejaVuSans-111"/>
     <use x="956.933594" xlink:href="#DejaVuSans-116"/>
    </g>
   </g>
  </g>
 </g>
 <defs>
  <clipPath id="p6e5ec44c3e">
   <rect height="554.4" width="558" x="90" y="86.4"/>
  </clipPath>
 </defs>
</svg>
