<?xml version="1.0" encoding="utf-8" standalone="no"?>
<!DOCTYPE svg PUBLIC "-//W3C//DTD SVG 1.1//EN"
  "http://www.w3.org/Graphics/SVG/1.1/DTD/svg11.dtd">
<!-- Created with matplotlib (https://matplotlib.org/) -->
<svg height="336.634375pt" version="1.1" viewBox="0 0 458.630443 336.634375" width="458.630443pt" xmlns="http://www.w3.org/2000/svg" xmlns:xlink="http://www.w3.org/1999/xlink">
 <metadata>
  <rdf:RDF xmlns:cc="http://creativecommons.org/ns#" xmlns:dc="http://purl.org/dc/elements/1.1/" xmlns:rdf="http://www.w3.org/1999/02/22-rdf-syntax-ns#">
   <cc:Work>
    <dc:type rdf:resource="http://purl.org/dc/dcmitype/StillImage"/>
    <dc:date>2021-01-16T12:35:55.521714</dc:date>
    <dc:format>image/svg+xml</dc:format>
    <dc:creator>
     <cc:Agent>
      <dc:title>Matplotlib v3.3.2, https://matplotlib.org/</dc:title>
     </cc:Agent>
    </dc:creator>
   </cc:Work>
  </rdf:RDF>
 </metadata>
 <defs>
  <style type="text/css">*{stroke-linecap:butt;stroke-linejoin:round;}</style>
 </defs>
 <g id="figure_1">
  <g id="patch_1">
   <path d="M 0 336.634375 
L 458.630443 336.634375 
L 458.630443 0 
L 0 0 
z
" style="fill:#ffffff;"/>
  </g>
  <g id="axes_1">
   <g id="patch_2">
    <path d="M 130.407813 131.678125 
L 442.584323 131.678125 
L 442.584323 22.318125 
L 130.407813 22.318125 
z
" style="fill:#ffffff;"/>
   </g>
   <g id="patch_3">
    <path clip-path="url(#p3242e60b6f)" d="M 275.366781 126.707216 
L 144.597654 126.707216 
L 144.597654 105.777072 
L 275.366781 105.777072 
z
" style="fill:#ff0000;"/>
   </g>
   <g id="patch_4">
    <path clip-path="url(#p3242e60b6f)" d="M 275.366781 100.544536 
L 397.788942 100.544536 
L 397.788942 79.614393 
L 275.366781 79.614393 
z
" style="fill:#008000;"/>
   </g>
   <g id="patch_5">
    <path clip-path="url(#p3242e60b6f)" d="M 275.366781 74.381857 
L 406.135907 74.381857 
L 406.135907 53.451714 
L 275.366781 53.451714 
z
" style="fill:#008000;"/>
   </g>
   <g id="patch_6">
    <path clip-path="url(#p3242e60b6f)" d="M 275.366781 48.219178 
L 428.394482 48.219178 
L 428.394482 27.289034 
L 275.366781 27.289034 
z
" style="fill:#008000;"/>
   </g>
   <g id="matplotlib.axis_1">
    <g id="xtick_1">
     <g id="line2d_1">
      <defs>
       <path d="M 0 0 
L 0 3.5 
" id="m2ac9ee74b9" style="stroke:#000000;stroke-width:0.8;"/>
      </defs>
      <g>
       <use style="stroke:#000000;stroke-width:0.8;" x="160.366538" xlink:href="#m2ac9ee74b9" y="131.678125"/>
      </g>
     </g>
     <g id="text_1">
      <!-- −0.4 -->
      <g transform="translate(148.225132 146.276562)scale(0.1 -0.1)">
       <defs>
        <path d="M 10.59375 35.5 
L 73.1875 35.5 
L 73.1875 27.203125 
L 10.59375 27.203125 
z
" id="DejaVuSans-8722"/>
        <path d="M 31.78125 66.40625 
Q 24.171875 66.40625 20.328125 58.90625 
Q 16.5 51.421875 16.5 36.375 
Q 16.5 21.390625 20.328125 13.890625 
Q 24.171875 6.390625 31.78125 6.390625 
Q 39.453125 6.390625 43.28125 13.890625 
Q 47.125 21.390625 47.125 36.375 
Q 47.125 51.421875 43.28125 58.90625 
Q 39.453125 66.40625 31.78125 66.40625 
z
M 31.78125 74.21875 
Q 44.046875 74.21875 50.515625 64.515625 
Q 56.984375 54.828125 56.984375 36.375 
Q 56.984375 17.96875 50.515625 8.265625 
Q 44.046875 -1.421875 31.78125 -1.421875 
Q 19.53125 -1.421875 13.0625 8.265625 
Q 6.59375 17.96875 6.59375 36.375 
Q 6.59375 54.828125 13.0625 64.515625 
Q 19.53125 74.21875 31.78125 74.21875 
z
" id="DejaVuSans-48"/>
        <path d="M 10.6875 12.40625 
L 21 12.40625 
L 21 0 
L 10.6875 0 
z
" id="DejaVuSans-46"/>
        <path d="M 37.796875 64.3125 
L 12.890625 25.390625 
L 37.796875 25.390625 
z
M 35.203125 72.90625 
L 47.609375 72.90625 
L 47.609375 25.390625 
L 58.015625 25.390625 
L 58.015625 17.1875 
L 47.609375 17.1875 
L 47.609375 0 
L 37.796875 0 
L 37.796875 17.1875 
L 4.890625 17.1875 
L 4.890625 26.703125 
z
" id="DejaVuSans-52"/>
       </defs>
       <use xlink:href="#DejaVuSans-8722"/>
       <use x="83.789062" xlink:href="#DejaVuSans-48"/>
       <use x="147.412109" xlink:href="#DejaVuSans-46"/>
       <use x="179.199219" xlink:href="#DejaVuSans-52"/>
      </g>
     </g>
    </g>
    <g id="xtick_2">
     <g id="line2d_2">
      <g>
       <use style="stroke:#000000;stroke-width:0.8;" x="217.866659" xlink:href="#m2ac9ee74b9" y="131.678125"/>
      </g>
     </g>
     <g id="text_2">
      <!-- −0.2 -->
      <g transform="translate(205.725253 146.276562)scale(0.1 -0.1)">
       <defs>
        <path d="M 19.1875 8.296875 
L 53.609375 8.296875 
L 53.609375 0 
L 7.328125 0 
L 7.328125 8.296875 
Q 12.9375 14.109375 22.625 23.890625 
Q 32.328125 33.6875 34.8125 36.53125 
Q 39.546875 41.84375 41.421875 45.53125 
Q 43.3125 49.21875 43.3125 52.78125 
Q 43.3125 58.59375 39.234375 62.25 
Q 35.15625 65.921875 28.609375 65.921875 
Q 23.96875 65.921875 18.8125 64.3125 
Q 13.671875 62.703125 7.8125 59.421875 
L 7.8125 69.390625 
Q 13.765625 71.78125 18.9375 73 
Q 24.125 74.21875 28.421875 74.21875 
Q 39.75 74.21875 46.484375 68.546875 
Q 53.21875 62.890625 53.21875 53.421875 
Q 53.21875 48.921875 51.53125 44.890625 
Q 49.859375 40.875 45.40625 35.40625 
Q 44.1875 33.984375 37.640625 27.21875 
Q 31.109375 20.453125 19.1875 8.296875 
z
" id="DejaVuSans-50"/>
       </defs>
       <use xlink:href="#DejaVuSans-8722"/>
       <use x="83.789062" xlink:href="#DejaVuSans-48"/>
       <use x="147.412109" xlink:href="#DejaVuSans-46"/>
       <use x="179.199219" xlink:href="#DejaVuSans-50"/>
      </g>
     </g>
    </g>
    <g id="xtick_3">
     <g id="line2d_3">
      <g>
       <use style="stroke:#000000;stroke-width:0.8;" x="275.366781" xlink:href="#m2ac9ee74b9" y="131.678125"/>
      </g>
     </g>
     <g id="text_3">
      <!-- 0.0 -->
      <g transform="translate(267.415218 146.276562)scale(0.1 -0.1)">
       <use xlink:href="#DejaVuSans-48"/>
       <use x="63.623047" xlink:href="#DejaVuSans-46"/>
       <use x="95.410156" xlink:href="#DejaVuSans-48"/>
      </g>
     </g>
    </g>
    <g id="xtick_4">
     <g id="line2d_4">
      <g>
       <use style="stroke:#000000;stroke-width:0.8;" x="332.866902" xlink:href="#m2ac9ee74b9" y="131.678125"/>
      </g>
     </g>
     <g id="text_4">
      <!-- 0.2 -->
      <g transform="translate(324.91534 146.276562)scale(0.1 -0.1)">
       <use xlink:href="#DejaVuSans-48"/>
       <use x="63.623047" xlink:href="#DejaVuSans-46"/>
       <use x="95.410156" xlink:href="#DejaVuSans-50"/>
      </g>
     </g>
    </g>
    <g id="xtick_5">
     <g id="line2d_5">
      <g>
       <use style="stroke:#000000;stroke-width:0.8;" x="390.367023" xlink:href="#m2ac9ee74b9" y="131.678125"/>
      </g>
     </g>
     <g id="text_5">
      <!-- 0.4 -->
      <g transform="translate(382.415461 146.276562)scale(0.1 -0.1)">
       <use xlink:href="#DejaVuSans-48"/>
       <use x="63.623047" xlink:href="#DejaVuSans-46"/>
       <use x="95.410156" xlink:href="#DejaVuSans-52"/>
      </g>
     </g>
    </g>
    <g id="text_6">
     <!-- Coeff value -->
     <g transform="translate(258.101537 159.954687)scale(0.1 -0.1)">
      <defs>
       <path d="M 64.40625 67.28125 
L 64.40625 56.890625 
Q 59.421875 61.53125 53.78125 63.8125 
Q 48.140625 66.109375 41.796875 66.109375 
Q 29.296875 66.109375 22.65625 58.46875 
Q 16.015625 50.828125 16.015625 36.375 
Q 16.015625 21.96875 22.65625 14.328125 
Q 29.296875 6.6875 41.796875 6.6875 
Q 48.140625 6.6875 53.78125 8.984375 
Q 59.421875 11.28125 64.40625 15.921875 
L 64.40625 5.609375 
Q 59.234375 2.09375 53.4375 0.328125 
Q 47.65625 -1.421875 41.21875 -1.421875 
Q 24.65625 -1.421875 15.125 8.703125 
Q 5.609375 18.84375 5.609375 36.375 
Q 5.609375 53.953125 15.125 64.078125 
Q 24.65625 74.21875 41.21875 74.21875 
Q 47.75 74.21875 53.53125 72.484375 
Q 59.328125 70.75 64.40625 67.28125 
z
" id="DejaVuSans-67"/>
       <path d="M 30.609375 48.390625 
Q 23.390625 48.390625 19.1875 42.75 
Q 14.984375 37.109375 14.984375 27.296875 
Q 14.984375 17.484375 19.15625 11.84375 
Q 23.34375 6.203125 30.609375 6.203125 
Q 37.796875 6.203125 41.984375 11.859375 
Q 46.1875 17.53125 46.1875 27.296875 
Q 46.1875 37.015625 41.984375 42.703125 
Q 37.796875 48.390625 30.609375 48.390625 
z
M 30.609375 56 
Q 42.328125 56 49.015625 48.375 
Q 55.71875 40.765625 55.71875 27.296875 
Q 55.71875 13.875 49.015625 6.21875 
Q 42.328125 -1.421875 30.609375 -1.421875 
Q 18.84375 -1.421875 12.171875 6.21875 
Q 5.515625 13.875 5.515625 27.296875 
Q 5.515625 40.765625 12.171875 48.375 
Q 18.84375 56 30.609375 56 
z
" id="DejaVuSans-111"/>
       <path d="M 56.203125 29.59375 
L 56.203125 25.203125 
L 14.890625 25.203125 
Q 15.484375 15.921875 20.484375 11.0625 
Q 25.484375 6.203125 34.421875 6.203125 
Q 39.59375 6.203125 44.453125 7.46875 
Q 49.3125 8.734375 54.109375 11.28125 
L 54.109375 2.78125 
Q 49.265625 0.734375 44.1875 -0.34375 
Q 39.109375 -1.421875 33.890625 -1.421875 
Q 20.796875 -1.421875 13.15625 6.1875 
Q 5.515625 13.8125 5.515625 26.8125 
Q 5.515625 40.234375 12.765625 48.109375 
Q 20.015625 56 32.328125 56 
Q 43.359375 56 49.78125 48.890625 
Q 56.203125 41.796875 56.203125 29.59375 
z
M 47.21875 32.234375 
Q 47.125 39.59375 43.09375 43.984375 
Q 39.0625 48.390625 32.421875 48.390625 
Q 24.90625 48.390625 20.390625 44.140625 
Q 15.875 39.890625 15.1875 32.171875 
z
" id="DejaVuSans-101"/>
       <path d="M 37.109375 75.984375 
L 37.109375 68.5 
L 28.515625 68.5 
Q 23.6875 68.5 21.796875 66.546875 
Q 19.921875 64.59375 19.921875 59.515625 
L 19.921875 54.6875 
L 34.71875 54.6875 
L 34.71875 47.703125 
L 19.921875 47.703125 
L 19.921875 0 
L 10.890625 0 
L 10.890625 47.703125 
L 2.296875 47.703125 
L 2.296875 54.6875 
L 10.890625 54.6875 
L 10.890625 58.5 
Q 10.890625 67.625 15.140625 71.796875 
Q 19.390625 75.984375 28.609375 75.984375 
z
" id="DejaVuSans-102"/>
       <path id="DejaVuSans-32"/>
       <path d="M 2.984375 54.6875 
L 12.5 54.6875 
L 29.59375 8.796875 
L 46.6875 54.6875 
L 56.203125 54.6875 
L 35.6875 0 
L 23.484375 0 
z
" id="DejaVuSans-118"/>
       <path d="M 34.28125 27.484375 
Q 23.390625 27.484375 19.1875 25 
Q 14.984375 22.515625 14.984375 16.5 
Q 14.984375 11.71875 18.140625 8.90625 
Q 21.296875 6.109375 26.703125 6.109375 
Q 34.1875 6.109375 38.703125 11.40625 
Q 43.21875 16.703125 43.21875 25.484375 
L 43.21875 27.484375 
z
M 52.203125 31.203125 
L 52.203125 0 
L 43.21875 0 
L 43.21875 8.296875 
Q 40.140625 3.328125 35.546875 0.953125 
Q 30.953125 -1.421875 24.3125 -1.421875 
Q 15.921875 -1.421875 10.953125 3.296875 
Q 6 8.015625 6 15.921875 
Q 6 25.140625 12.171875 29.828125 
Q 18.359375 34.515625 30.609375 34.515625 
L 43.21875 34.515625 
L 43.21875 35.40625 
Q 43.21875 41.609375 39.140625 45 
Q 35.0625 48.390625 27.6875 48.390625 
Q 23 48.390625 18.546875 47.265625 
Q 14.109375 46.140625 10.015625 43.890625 
L 10.015625 52.203125 
Q 14.9375 54.109375 19.578125 55.046875 
Q 24.21875 56 28.609375 56 
Q 40.484375 56 46.34375 49.84375 
Q 52.203125 43.703125 52.203125 31.203125 
z
" id="DejaVuSans-97"/>
       <path d="M 9.421875 75.984375 
L 18.40625 75.984375 
L 18.40625 0 
L 9.421875 0 
z
" id="DejaVuSans-108"/>
       <path d="M 8.5 21.578125 
L 8.5 54.6875 
L 17.484375 54.6875 
L 17.484375 21.921875 
Q 17.484375 14.15625 20.5 10.265625 
Q 23.53125 6.390625 29.59375 6.390625 
Q 36.859375 6.390625 41.078125 11.03125 
Q 45.3125 15.671875 45.3125 23.6875 
L 45.3125 54.6875 
L 54.296875 54.6875 
L 54.296875 0 
L 45.3125 0 
L 45.3125 8.40625 
Q 42.046875 3.421875 37.71875 1 
Q 33.40625 -1.421875 27.6875 -1.421875 
Q 18.265625 -1.421875 13.375 4.4375 
Q 8.5 10.296875 8.5 21.578125 
z
M 31.109375 56 
z
" id="DejaVuSans-117"/>
      </defs>
      <use xlink:href="#DejaVuSans-67"/>
      <use x="69.824219" xlink:href="#DejaVuSans-111"/>
      <use x="131.005859" xlink:href="#DejaVuSans-101"/>
      <use x="192.529297" xlink:href="#DejaVuSans-102"/>
      <use x="227.734375" xlink:href="#DejaVuSans-102"/>
      <use x="262.939453" xlink:href="#DejaVuSans-32"/>
      <use x="294.726562" xlink:href="#DejaVuSans-118"/>
      <use x="353.90625" xlink:href="#DejaVuSans-97"/>
      <use x="415.185547" xlink:href="#DejaVuSans-108"/>
      <use x="442.96875" xlink:href="#DejaVuSans-117"/>
      <use x="506.347656" xlink:href="#DejaVuSans-101"/>
     </g>
    </g>
   </g>
   <g id="matplotlib.axis_2">
    <g id="ytick_1">
     <g id="line2d_6">
      <defs>
       <path d="M 0 0 
L -3.5 0 
" id="m9eb1e27f7b" style="stroke:#000000;stroke-width:0.8;"/>
      </defs>
      <g>
       <use style="stroke:#000000;stroke-width:0.8;" x="130.407813" xlink:href="#m9eb1e27f7b" y="116.242144"/>
      </g>
     </g>
     <g id="text_7">
      <!--  g__Megamonas_0 -->
      <g transform="translate(31.726562 119.953082)scale(0.1 -0.1)">
       <defs>
        <path d="M 45.40625 27.984375 
Q 45.40625 37.75 41.375 43.109375 
Q 37.359375 48.484375 30.078125 48.484375 
Q 22.859375 48.484375 18.828125 43.109375 
Q 14.796875 37.75 14.796875 27.984375 
Q 14.796875 18.265625 18.828125 12.890625 
Q 22.859375 7.515625 30.078125 7.515625 
Q 37.359375 7.515625 41.375 12.890625 
Q 45.40625 18.265625 45.40625 27.984375 
z
M 54.390625 6.78125 
Q 54.390625 -7.171875 48.1875 -13.984375 
Q 42 -20.796875 29.203125 -20.796875 
Q 24.46875 -20.796875 20.265625 -20.09375 
Q 16.0625 -19.390625 12.109375 -17.921875 
L 12.109375 -9.1875 
Q 16.0625 -11.328125 19.921875 -12.34375 
Q 23.78125 -13.375 27.78125 -13.375 
Q 36.625 -13.375 41.015625 -8.765625 
Q 45.40625 -4.15625 45.40625 5.171875 
L 45.40625 9.625 
Q 42.625 4.78125 38.28125 2.390625 
Q 33.9375 0 27.875 0 
Q 17.828125 0 11.671875 7.65625 
Q 5.515625 15.328125 5.515625 27.984375 
Q 5.515625 40.671875 11.671875 48.328125 
Q 17.828125 56 27.875 56 
Q 33.9375 56 38.28125 53.609375 
Q 42.625 51.21875 45.40625 46.390625 
L 45.40625 54.6875 
L 54.390625 54.6875 
z
" id="DejaVuSans-103"/>
        <path d="M 50.984375 -16.609375 
L 50.984375 -23.578125 
L -0.984375 -23.578125 
L -0.984375 -16.609375 
z
" id="DejaVuSans-95"/>
        <path d="M 9.8125 72.90625 
L 24.515625 72.90625 
L 43.109375 23.296875 
L 61.8125 72.90625 
L 76.515625 72.90625 
L 76.515625 0 
L 66.890625 0 
L 66.890625 64.015625 
L 48.09375 14.015625 
L 38.1875 14.015625 
L 19.390625 64.015625 
L 19.390625 0 
L 9.8125 0 
z
" id="DejaVuSans-77"/>
        <path d="M 52 44.1875 
Q 55.375 50.25 60.0625 53.125 
Q 64.75 56 71.09375 56 
Q 79.640625 56 84.28125 50.015625 
Q 88.921875 44.046875 88.921875 33.015625 
L 88.921875 0 
L 79.890625 0 
L 79.890625 32.71875 
Q 79.890625 40.578125 77.09375 44.375 
Q 74.3125 48.1875 68.609375 48.1875 
Q 61.625 48.1875 57.5625 43.546875 
Q 53.515625 38.921875 53.515625 30.90625 
L 53.515625 0 
L 44.484375 0 
L 44.484375 32.71875 
Q 44.484375 40.625 41.703125 44.40625 
Q 38.921875 48.1875 33.109375 48.1875 
Q 26.21875 48.1875 22.15625 43.53125 
Q 18.109375 38.875 18.109375 30.90625 
L 18.109375 0 
L 9.078125 0 
L 9.078125 54.6875 
L 18.109375 54.6875 
L 18.109375 46.1875 
Q 21.1875 51.21875 25.484375 53.609375 
Q 29.78125 56 35.6875 56 
Q 41.65625 56 45.828125 52.96875 
Q 50 49.953125 52 44.1875 
z
" id="DejaVuSans-109"/>
        <path d="M 54.890625 33.015625 
L 54.890625 0 
L 45.90625 0 
L 45.90625 32.71875 
Q 45.90625 40.484375 42.875 44.328125 
Q 39.84375 48.1875 33.796875 48.1875 
Q 26.515625 48.1875 22.3125 43.546875 
Q 18.109375 38.921875 18.109375 30.90625 
L 18.109375 0 
L 9.078125 0 
L 9.078125 54.6875 
L 18.109375 54.6875 
L 18.109375 46.1875 
Q 21.34375 51.125 25.703125 53.5625 
Q 30.078125 56 35.796875 56 
Q 45.21875 56 50.046875 50.171875 
Q 54.890625 44.34375 54.890625 33.015625 
z
" id="DejaVuSans-110"/>
        <path d="M 44.28125 53.078125 
L 44.28125 44.578125 
Q 40.484375 46.53125 36.375 47.5 
Q 32.28125 48.484375 27.875 48.484375 
Q 21.1875 48.484375 17.84375 46.4375 
Q 14.5 44.390625 14.5 40.28125 
Q 14.5 37.15625 16.890625 35.375 
Q 19.28125 33.59375 26.515625 31.984375 
L 29.59375 31.296875 
Q 39.15625 29.25 43.1875 25.515625 
Q 47.21875 21.78125 47.21875 15.09375 
Q 47.21875 7.46875 41.1875 3.015625 
Q 35.15625 -1.421875 24.609375 -1.421875 
Q 20.21875 -1.421875 15.453125 -0.5625 
Q 10.6875 0.296875 5.421875 2 
L 5.421875 11.28125 
Q 10.40625 8.6875 15.234375 7.390625 
Q 20.0625 6.109375 24.8125 6.109375 
Q 31.15625 6.109375 34.5625 8.28125 
Q 37.984375 10.453125 37.984375 14.40625 
Q 37.984375 18.0625 35.515625 20.015625 
Q 33.0625 21.96875 24.703125 23.78125 
L 21.578125 24.515625 
Q 13.234375 26.265625 9.515625 29.90625 
Q 5.8125 33.546875 5.8125 39.890625 
Q 5.8125 47.609375 11.28125 51.796875 
Q 16.75 56 26.8125 56 
Q 31.78125 56 36.171875 55.265625 
Q 40.578125 54.546875 44.28125 53.078125 
z
" id="DejaVuSans-115"/>
       </defs>
       <use xlink:href="#DejaVuSans-32"/>
       <use x="31.787109" xlink:href="#DejaVuSans-103"/>
       <use x="95.263672" xlink:href="#DejaVuSans-95"/>
       <use x="145.263672" xlink:href="#DejaVuSans-95"/>
       <use x="195.263672" xlink:href="#DejaVuSans-77"/>
       <use x="281.542969" xlink:href="#DejaVuSans-101"/>
       <use x="343.066406" xlink:href="#DejaVuSans-103"/>
       <use x="406.542969" xlink:href="#DejaVuSans-97"/>
       <use x="467.822266" xlink:href="#DejaVuSans-109"/>
       <use x="565.234375" xlink:href="#DejaVuSans-111"/>
       <use x="626.416016" xlink:href="#DejaVuSans-110"/>
       <use x="689.794922" xlink:href="#DejaVuSans-97"/>
       <use x="751.074219" xlink:href="#DejaVuSans-115"/>
       <use x="803.173828" xlink:href="#DejaVuSans-95"/>
       <use x="853.173828" xlink:href="#DejaVuSans-48"/>
      </g>
     </g>
    </g>
    <g id="ytick_2">
     <g id="line2d_7">
      <g>
       <use style="stroke:#000000;stroke-width:0.8;" x="130.407813" xlink:href="#m9eb1e27f7b" y="90.079465"/>
      </g>
     </g>
     <g id="text_8">
      <!--  g__Faecalibacterium_0 -->
      <g transform="translate(7.2 93.878683)scale(0.1 -0.1)">
       <defs>
        <path d="M 9.8125 72.90625 
L 51.703125 72.90625 
L 51.703125 64.59375 
L 19.671875 64.59375 
L 19.671875 43.109375 
L 48.578125 43.109375 
L 48.578125 34.8125 
L 19.671875 34.8125 
L 19.671875 0 
L 9.8125 0 
z
" id="DejaVuSans-70"/>
        <path d="M 48.78125 52.59375 
L 48.78125 44.1875 
Q 44.96875 46.296875 41.140625 47.34375 
Q 37.3125 48.390625 33.40625 48.390625 
Q 24.65625 48.390625 19.8125 42.84375 
Q 14.984375 37.3125 14.984375 27.296875 
Q 14.984375 17.28125 19.8125 11.734375 
Q 24.65625 6.203125 33.40625 6.203125 
Q 37.3125 6.203125 41.140625 7.25 
Q 44.96875 8.296875 48.78125 10.40625 
L 48.78125 2.09375 
Q 45.015625 0.34375 40.984375 -0.53125 
Q 36.96875 -1.421875 32.421875 -1.421875 
Q 20.0625 -1.421875 12.78125 6.34375 
Q 5.515625 14.109375 5.515625 27.296875 
Q 5.515625 40.671875 12.859375 48.328125 
Q 20.21875 56 33.015625 56 
Q 37.15625 56 41.109375 55.140625 
Q 45.0625 54.296875 48.78125 52.59375 
z
" id="DejaVuSans-99"/>
        <path d="M 9.421875 54.6875 
L 18.40625 54.6875 
L 18.40625 0 
L 9.421875 0 
z
M 9.421875 75.984375 
L 18.40625 75.984375 
L 18.40625 64.59375 
L 9.421875 64.59375 
z
" id="DejaVuSans-105"/>
        <path d="M 48.6875 27.296875 
Q 48.6875 37.203125 44.609375 42.84375 
Q 40.53125 48.484375 33.40625 48.484375 
Q 26.265625 48.484375 22.1875 42.84375 
Q 18.109375 37.203125 18.109375 27.296875 
Q 18.109375 17.390625 22.1875 11.75 
Q 26.265625 6.109375 33.40625 6.109375 
Q 40.53125 6.109375 44.609375 11.75 
Q 48.6875 17.390625 48.6875 27.296875 
z
M 18.109375 46.390625 
Q 20.953125 51.265625 25.265625 53.625 
Q 29.59375 56 35.59375 56 
Q 45.5625 56 51.78125 48.09375 
Q 58.015625 40.1875 58.015625 27.296875 
Q 58.015625 14.40625 51.78125 6.484375 
Q 45.5625 -1.421875 35.59375 -1.421875 
Q 29.59375 -1.421875 25.265625 0.953125 
Q 20.953125 3.328125 18.109375 8.203125 
L 18.109375 0 
L 9.078125 0 
L 9.078125 75.984375 
L 18.109375 75.984375 
z
" id="DejaVuSans-98"/>
        <path d="M 18.3125 70.21875 
L 18.3125 54.6875 
L 36.8125 54.6875 
L 36.8125 47.703125 
L 18.3125 47.703125 
L 18.3125 18.015625 
Q 18.3125 11.328125 20.140625 9.421875 
Q 21.96875 7.515625 27.59375 7.515625 
L 36.8125 7.515625 
L 36.8125 0 
L 27.59375 0 
Q 17.1875 0 13.234375 3.875 
Q 9.28125 7.765625 9.28125 18.015625 
L 9.28125 47.703125 
L 2.6875 47.703125 
L 2.6875 54.6875 
L 9.28125 54.6875 
L 9.28125 70.21875 
z
" id="DejaVuSans-116"/>
        <path d="M 41.109375 46.296875 
Q 39.59375 47.171875 37.8125 47.578125 
Q 36.03125 48 33.890625 48 
Q 26.265625 48 22.1875 43.046875 
Q 18.109375 38.09375 18.109375 28.8125 
L 18.109375 0 
L 9.078125 0 
L 9.078125 54.6875 
L 18.109375 54.6875 
L 18.109375 46.1875 
Q 20.953125 51.171875 25.484375 53.578125 
Q 30.03125 56 36.53125 56 
Q 37.453125 56 38.578125 55.875 
Q 39.703125 55.765625 41.0625 55.515625 
z
" id="DejaVuSans-114"/>
       </defs>
       <use xlink:href="#DejaVuSans-32"/>
       <use x="31.787109" xlink:href="#DejaVuSans-103"/>
       <use x="95.263672" xlink:href="#DejaVuSans-95"/>
       <use x="145.263672" xlink:href="#DejaVuSans-95"/>
       <use x="195.263672" xlink:href="#DejaVuSans-70"/>
       <use x="243.658203" xlink:href="#DejaVuSans-97"/>
       <use x="304.9375" xlink:href="#DejaVuSans-101"/>
       <use x="366.460938" xlink:href="#DejaVuSans-99"/>
       <use x="421.441406" xlink:href="#DejaVuSans-97"/>
       <use x="482.720703" xlink:href="#DejaVuSans-108"/>
       <use x="510.503906" xlink:href="#DejaVuSans-105"/>
       <use x="538.287109" xlink:href="#DejaVuSans-98"/>
       <use x="601.763672" xlink:href="#DejaVuSans-97"/>
       <use x="663.042969" xlink:href="#DejaVuSans-99"/>
       <use x="718.023438" xlink:href="#DejaVuSans-116"/>
       <use x="757.232422" xlink:href="#DejaVuSans-101"/>
       <use x="818.755859" xlink:href="#DejaVuSans-114"/>
       <use x="859.869141" xlink:href="#DejaVuSans-105"/>
       <use x="887.652344" xlink:href="#DejaVuSans-117"/>
       <use x="951.03125" xlink:href="#DejaVuSans-109"/>
       <use x="1048.443359" xlink:href="#DejaVuSans-95"/>
       <use x="1098.443359" xlink:href="#DejaVuSans-48"/>
      </g>
     </g>
    </g>
    <g id="ytick_3">
     <g id="line2d_8">
      <g>
       <use style="stroke:#000000;stroke-width:0.8;" x="130.407813" xlink:href="#m9eb1e27f7b" y="63.916785"/>
      </g>
     </g>
     <g id="text_9">
      <!--  g__Sutterella_0 -->
      <g transform="translate(44.115625 67.716004)scale(0.1 -0.1)">
       <defs>
        <path d="M 53.515625 70.515625 
L 53.515625 60.890625 
Q 47.90625 63.578125 42.921875 64.890625 
Q 37.9375 66.21875 33.296875 66.21875 
Q 25.25 66.21875 20.875 63.09375 
Q 16.5 59.96875 16.5 54.203125 
Q 16.5 49.359375 19.40625 46.890625 
Q 22.3125 44.4375 30.421875 42.921875 
L 36.375 41.703125 
Q 47.40625 39.59375 52.65625 34.296875 
Q 57.90625 29 57.90625 20.125 
Q 57.90625 9.515625 50.796875 4.046875 
Q 43.703125 -1.421875 29.984375 -1.421875 
Q 24.8125 -1.421875 18.96875 -0.25 
Q 13.140625 0.921875 6.890625 3.21875 
L 6.890625 13.375 
Q 12.890625 10.015625 18.65625 8.296875 
Q 24.421875 6.59375 29.984375 6.59375 
Q 38.421875 6.59375 43.015625 9.90625 
Q 47.609375 13.234375 47.609375 19.390625 
Q 47.609375 24.75 44.3125 27.78125 
Q 41.015625 30.8125 33.5 32.328125 
L 27.484375 33.5 
Q 16.453125 35.6875 11.515625 40.375 
Q 6.59375 45.0625 6.59375 53.421875 
Q 6.59375 63.09375 13.40625 68.65625 
Q 20.21875 74.21875 32.171875 74.21875 
Q 37.3125 74.21875 42.625 73.28125 
Q 47.953125 72.359375 53.515625 70.515625 
z
" id="DejaVuSans-83"/>
       </defs>
       <use xlink:href="#DejaVuSans-32"/>
       <use x="31.787109" xlink:href="#DejaVuSans-103"/>
       <use x="95.263672" xlink:href="#DejaVuSans-95"/>
       <use x="145.263672" xlink:href="#DejaVuSans-95"/>
       <use x="195.263672" xlink:href="#DejaVuSans-83"/>
       <use x="258.740234" xlink:href="#DejaVuSans-117"/>
       <use x="322.119141" xlink:href="#DejaVuSans-116"/>
       <use x="361.328125" xlink:href="#DejaVuSans-116"/>
       <use x="400.537109" xlink:href="#DejaVuSans-101"/>
       <use x="462.060547" xlink:href="#DejaVuSans-114"/>
       <use x="500.923828" xlink:href="#DejaVuSans-101"/>
       <use x="562.447266" xlink:href="#DejaVuSans-108"/>
       <use x="590.230469" xlink:href="#DejaVuSans-108"/>
       <use x="618.013672" xlink:href="#DejaVuSans-97"/>
       <use x="679.292969" xlink:href="#DejaVuSans-95"/>
       <use x="729.292969" xlink:href="#DejaVuSans-48"/>
      </g>
     </g>
    </g>
    <g id="ytick_4">
     <g id="line2d_9">
      <g>
       <use style="stroke:#000000;stroke-width:0.8;" x="130.407813" xlink:href="#m9eb1e27f7b" y="37.754106"/>
      </g>
     </g>
     <g id="text_10">
      <!--  g__Lachnospira_0 -->
      <g transform="translate(31.951562 41.553325)scale(0.1 -0.1)">
       <defs>
        <path d="M 9.8125 72.90625 
L 19.671875 72.90625 
L 19.671875 8.296875 
L 55.171875 8.296875 
L 55.171875 0 
L 9.8125 0 
z
" id="DejaVuSans-76"/>
        <path d="M 54.890625 33.015625 
L 54.890625 0 
L 45.90625 0 
L 45.90625 32.71875 
Q 45.90625 40.484375 42.875 44.328125 
Q 39.84375 48.1875 33.796875 48.1875 
Q 26.515625 48.1875 22.3125 43.546875 
Q 18.109375 38.921875 18.109375 30.90625 
L 18.109375 0 
L 9.078125 0 
L 9.078125 75.984375 
L 18.109375 75.984375 
L 18.109375 46.1875 
Q 21.34375 51.125 25.703125 53.5625 
Q 30.078125 56 35.796875 56 
Q 45.21875 56 50.046875 50.171875 
Q 54.890625 44.34375 54.890625 33.015625 
z
" id="DejaVuSans-104"/>
        <path d="M 18.109375 8.203125 
L 18.109375 -20.796875 
L 9.078125 -20.796875 
L 9.078125 54.6875 
L 18.109375 54.6875 
L 18.109375 46.390625 
Q 20.953125 51.265625 25.265625 53.625 
Q 29.59375 56 35.59375 56 
Q 45.5625 56 51.78125 48.09375 
Q 58.015625 40.1875 58.015625 27.296875 
Q 58.015625 14.40625 51.78125 6.484375 
Q 45.5625 -1.421875 35.59375 -1.421875 
Q 29.59375 -1.421875 25.265625 0.953125 
Q 20.953125 3.328125 18.109375 8.203125 
z
M 48.6875 27.296875 
Q 48.6875 37.203125 44.609375 42.84375 
Q 40.53125 48.484375 33.40625 48.484375 
Q 26.265625 48.484375 22.1875 42.84375 
Q 18.109375 37.203125 18.109375 27.296875 
Q 18.109375 17.390625 22.1875 11.75 
Q 26.265625 6.109375 33.40625 6.109375 
Q 40.53125 6.109375 44.609375 11.75 
Q 48.6875 17.390625 48.6875 27.296875 
z
" id="DejaVuSans-112"/>
       </defs>
       <use xlink:href="#DejaVuSans-32"/>
       <use x="31.787109" xlink:href="#DejaVuSans-103"/>
       <use x="95.263672" xlink:href="#DejaVuSans-95"/>
       <use x="145.263672" xlink:href="#DejaVuSans-95"/>
       <use x="195.263672" xlink:href="#DejaVuSans-76"/>
       <use x="250.976562" xlink:href="#DejaVuSans-97"/>
       <use x="312.255859" xlink:href="#DejaVuSans-99"/>
       <use x="367.236328" xlink:href="#DejaVuSans-104"/>
       <use x="430.615234" xlink:href="#DejaVuSans-110"/>
       <use x="493.994141" xlink:href="#DejaVuSans-111"/>
       <use x="555.175781" xlink:href="#DejaVuSans-115"/>
       <use x="607.275391" xlink:href="#DejaVuSans-112"/>
       <use x="670.751953" xlink:href="#DejaVuSans-105"/>
       <use x="698.535156" xlink:href="#DejaVuSans-114"/>
       <use x="739.648438" xlink:href="#DejaVuSans-97"/>
       <use x="800.927734" xlink:href="#DejaVuSans-95"/>
       <use x="850.927734" xlink:href="#DejaVuSans-48"/>
      </g>
     </g>
    </g>
   </g>
   <g id="patch_7">
    <path d="M 130.407813 131.678125 
L 130.407813 22.318125 
" style="fill:none;stroke:#000000;stroke-linecap:square;stroke-linejoin:miter;stroke-width:0.8;"/>
   </g>
   <g id="patch_8">
    <path d="M 442.584323 131.678125 
L 442.584323 22.318125 
" style="fill:none;stroke:#000000;stroke-linecap:square;stroke-linejoin:miter;stroke-width:0.8;"/>
   </g>
   <g id="patch_9">
    <path d="M 130.407813 131.678125 
L 442.584323 131.678125 
" style="fill:none;stroke:#000000;stroke-linecap:square;stroke-linejoin:miter;stroke-width:0.8;"/>
   </g>
   <g id="patch_10">
    <path d="M 130.407813 22.318125 
L 442.584323 22.318125 
" style="fill:none;stroke:#000000;stroke-linecap:square;stroke-linejoin:miter;stroke-width:0.8;"/>
   </g>
   <g id="text_11">
    <!-- yes antiacids 3 last months -->
    <g transform="translate(204.18638 16.318125)scale(0.12 -0.12)">
     <defs>
      <path d="M 32.171875 -5.078125 
Q 28.375 -14.84375 24.75 -17.8125 
Q 21.140625 -20.796875 15.09375 -20.796875 
L 7.90625 -20.796875 
L 7.90625 -13.28125 
L 13.1875 -13.28125 
Q 16.890625 -13.28125 18.9375 -11.515625 
Q 21 -9.765625 23.484375 -3.21875 
L 25.09375 0.875 
L 2.984375 54.6875 
L 12.5 54.6875 
L 29.59375 11.921875 
L 46.6875 54.6875 
L 56.203125 54.6875 
z
" id="DejaVuSans-121"/>
      <path d="M 45.40625 46.390625 
L 45.40625 75.984375 
L 54.390625 75.984375 
L 54.390625 0 
L 45.40625 0 
L 45.40625 8.203125 
Q 42.578125 3.328125 38.25 0.953125 
Q 33.9375 -1.421875 27.875 -1.421875 
Q 17.96875 -1.421875 11.734375 6.484375 
Q 5.515625 14.40625 5.515625 27.296875 
Q 5.515625 40.1875 11.734375 48.09375 
Q 17.96875 56 27.875 56 
Q 33.9375 56 38.25 53.625 
Q 42.578125 51.265625 45.40625 46.390625 
z
M 14.796875 27.296875 
Q 14.796875 17.390625 18.875 11.75 
Q 22.953125 6.109375 30.078125 6.109375 
Q 37.203125 6.109375 41.296875 11.75 
Q 45.40625 17.390625 45.40625 27.296875 
Q 45.40625 37.203125 41.296875 42.84375 
Q 37.203125 48.484375 30.078125 48.484375 
Q 22.953125 48.484375 18.875 42.84375 
Q 14.796875 37.203125 14.796875 27.296875 
z
" id="DejaVuSans-100"/>
      <path d="M 40.578125 39.3125 
Q 47.65625 37.796875 51.625 33 
Q 55.609375 28.21875 55.609375 21.1875 
Q 55.609375 10.40625 48.1875 4.484375 
Q 40.765625 -1.421875 27.09375 -1.421875 
Q 22.515625 -1.421875 17.65625 -0.515625 
Q 12.796875 0.390625 7.625 2.203125 
L 7.625 11.71875 
Q 11.71875 9.328125 16.59375 8.109375 
Q 21.484375 6.890625 26.8125 6.890625 
Q 36.078125 6.890625 40.9375 10.546875 
Q 45.796875 14.203125 45.796875 21.1875 
Q 45.796875 27.640625 41.28125 31.265625 
Q 36.765625 34.90625 28.71875 34.90625 
L 20.21875 34.90625 
L 20.21875 43.015625 
L 29.109375 43.015625 
Q 36.375 43.015625 40.234375 45.921875 
Q 44.09375 48.828125 44.09375 54.296875 
Q 44.09375 59.90625 40.109375 62.90625 
Q 36.140625 65.921875 28.71875 65.921875 
Q 24.65625 65.921875 20.015625 65.03125 
Q 15.375 64.15625 9.8125 62.3125 
L 9.8125 71.09375 
Q 15.4375 72.65625 20.34375 73.4375 
Q 25.25 74.21875 29.59375 74.21875 
Q 40.828125 74.21875 47.359375 69.109375 
Q 53.90625 64.015625 53.90625 55.328125 
Q 53.90625 49.265625 50.4375 45.09375 
Q 46.96875 40.921875 40.578125 39.3125 
z
" id="DejaVuSans-51"/>
     </defs>
     <use xlink:href="#DejaVuSans-121"/>
     <use x="59.179688" xlink:href="#DejaVuSans-101"/>
     <use x="120.703125" xlink:href="#DejaVuSans-115"/>
     <use x="172.802734" xlink:href="#DejaVuSans-32"/>
     <use x="204.589844" xlink:href="#DejaVuSans-97"/>
     <use x="265.869141" xlink:href="#DejaVuSans-110"/>
     <use x="329.248047" xlink:href="#DejaVuSans-116"/>
     <use x="368.457031" xlink:href="#DejaVuSans-105"/>
     <use x="396.240234" xlink:href="#DejaVuSans-97"/>
     <use x="457.519531" xlink:href="#DejaVuSans-99"/>
     <use x="512.5" xlink:href="#DejaVuSans-105"/>
     <use x="540.283203" xlink:href="#DejaVuSans-100"/>
     <use x="603.759766" xlink:href="#DejaVuSans-115"/>
     <use x="655.859375" xlink:href="#DejaVuSans-32"/>
     <use x="687.646484" xlink:href="#DejaVuSans-51"/>
     <use x="751.269531" xlink:href="#DejaVuSans-32"/>
     <use x="783.056641" xlink:href="#DejaVuSans-108"/>
     <use x="810.839844" xlink:href="#DejaVuSans-97"/>
     <use x="872.119141" xlink:href="#DejaVuSans-115"/>
     <use x="924.21875" xlink:href="#DejaVuSans-116"/>
     <use x="963.427734" xlink:href="#DejaVuSans-32"/>
     <use x="995.214844" xlink:href="#DejaVuSans-109"/>
     <use x="1092.626953" xlink:href="#DejaVuSans-111"/>
     <use x="1153.808594" xlink:href="#DejaVuSans-110"/>
     <use x="1217.1875" xlink:href="#DejaVuSans-116"/>
     <use x="1256.396484" xlink:href="#DejaVuSans-104"/>
     <use x="1319.775391" xlink:href="#DejaVuSans-115"/>
    </g>
   </g>
  </g>
  <g id="axes_2">
   <g id="patch_11">
    <path d="M 130.407813 299.078125 
L 442.584323 299.078125 
L 442.584323 189.718125 
L 130.407813 189.718125 
z
" style="fill:#ffffff;"/>
   </g>
   <g id="patch_12">
    <path clip-path="url(#p3343aa4d41)" d="M 144.597654 299.078125 
L 149.156639 299.078125 
L 149.156639 297.184445 
L 144.597654 297.184445 
z
" style="fill:#d95f0e;opacity:0.5;"/>
   </g>
   <g id="patch_13">
    <path clip-path="url(#p3343aa4d41)" d="M 150.296385 299.078125 
L 154.855371 299.078125 
L 154.855371 297.184445 
L 150.296385 297.184445 
z
" style="fill:#d95f0e;opacity:0.5;"/>
   </g>
   <g id="patch_14">
    <path clip-path="url(#p3343aa4d41)" d="M 155.995117 299.078125 
L 160.554102 299.078125 
L 160.554102 291.503406 
L 155.995117 291.503406 
z
" style="fill:#d95f0e;opacity:0.5;"/>
   </g>
   <g id="patch_15">
    <path clip-path="url(#p3343aa4d41)" d="M 161.693848 299.078125 
L 166.252834 299.078125 
L 166.252834 297.184445 
L 161.693848 297.184445 
z
" style="fill:#d95f0e;opacity:0.5;"/>
   </g>
   <g id="patch_16">
    <path clip-path="url(#p3343aa4d41)" d="M 167.39258 299.078125 
L 171.951565 299.078125 
L 171.951565 299.078125 
L 167.39258 299.078125 
z
" style="fill:#d95f0e;opacity:0.5;"/>
   </g>
   <g id="patch_17">
    <path clip-path="url(#p3343aa4d41)" d="M 173.091311 299.078125 
L 177.650297 299.078125 
L 177.650297 295.290766 
L 173.091311 295.290766 
z
" style="fill:#d95f0e;opacity:0.5;"/>
   </g>
   <g id="patch_18">
    <path clip-path="url(#p3343aa4d41)" d="M 178.790043 299.078125 
L 183.349028 299.078125 
L 183.349028 291.503406 
L 178.790043 291.503406 
z
" style="fill:#d95f0e;opacity:0.5;"/>
   </g>
   <g id="patch_19">
    <path clip-path="url(#p3343aa4d41)" d="M 184.488774 299.078125 
L 189.04776 299.078125 
L 189.04776 289.609727 
L 184.488774 289.609727 
z
" style="fill:#d95f0e;opacity:0.5;"/>
   </g>
   <g id="patch_20">
    <path clip-path="url(#p3343aa4d41)" d="M 190.187506 299.078125 
L 194.746491 299.078125 
L 194.746491 293.397086 
L 190.187506 293.397086 
z
" style="fill:#d95f0e;opacity:0.5;"/>
   </g>
   <g id="patch_21">
    <path clip-path="url(#p3343aa4d41)" d="M 195.886237 299.078125 
L 200.445223 299.078125 
L 200.445223 274.46029 
L 195.886237 274.46029 
z
" style="fill:#d95f0e;opacity:0.5;"/>
   </g>
   <g id="patch_22">
    <path clip-path="url(#p3343aa4d41)" d="M 201.584969 299.078125 
L 206.143954 299.078125 
L 206.143954 291.503406 
L 201.584969 291.503406 
z
" style="fill:#d95f0e;opacity:0.5;"/>
   </g>
   <g id="patch_23">
    <path clip-path="url(#p3343aa4d41)" d="M 207.2837 299.078125 
L 211.842685 299.078125 
L 211.842685 285.822367 
L 207.2837 285.822367 
z
" style="fill:#d95f0e;opacity:0.5;"/>
   </g>
   <g id="patch_24">
    <path clip-path="url(#p3343aa4d41)" d="M 212.982432 299.078125 
L 217.541417 299.078125 
L 217.541417 268.779251 
L 212.982432 268.779251 
z
" style="fill:#d95f0e;opacity:0.5;"/>
   </g>
   <g id="patch_25">
    <path clip-path="url(#p3343aa4d41)" d="M 218.681163 299.078125 
L 223.240148 299.078125 
L 223.240148 276.353969 
L 218.681163 276.353969 
z
" style="fill:#d95f0e;opacity:0.5;"/>
   </g>
   <g id="patch_26">
    <path clip-path="url(#p3343aa4d41)" d="M 224.379895 299.078125 
L 228.93888 299.078125 
L 228.93888 264.991891 
L 224.379895 264.991891 
z
" style="fill:#d95f0e;opacity:0.5;"/>
   </g>
   <g id="patch_27">
    <path clip-path="url(#p3343aa4d41)" d="M 230.078626 299.078125 
L 234.637611 299.078125 
L 234.637611 242.267735 
L 230.078626 242.267735 
z
" style="fill:#d95f0e;opacity:0.5;"/>
   </g>
   <g id="patch_28">
    <path clip-path="url(#p3343aa4d41)" d="M 235.777358 299.078125 
L 240.336343 299.078125 
L 240.336343 247.948774 
L 235.777358 247.948774 
z
" style="fill:#d95f0e;opacity:0.5;"/>
   </g>
   <g id="patch_29">
    <path clip-path="url(#p3343aa4d41)" d="M 241.476089 299.078125 
L 246.035074 299.078125 
L 246.035074 240.374056 
L 241.476089 240.374056 
z
" style="fill:#d95f0e;opacity:0.5;"/>
   </g>
   <g id="patch_30">
    <path clip-path="url(#p3343aa4d41)" d="M 247.174821 299.078125 
L 251.733806 299.078125 
L 251.733806 251.736134 
L 247.174821 251.736134 
z
" style="fill:#d95f0e;opacity:0.5;"/>
   </g>
   <g id="patch_31">
    <path clip-path="url(#p3343aa4d41)" d="M 252.873552 299.078125 
L 257.432537 299.078125 
L 257.432537 255.523493 
L 252.873552 255.523493 
z
" style="fill:#d95f0e;opacity:0.5;"/>
   </g>
   <g id="patch_32">
    <path clip-path="url(#p3343aa4d41)" d="M 258.572284 299.078125 
L 263.131269 299.078125 
L 263.131269 194.925744 
L 258.572284 194.925744 
z
" style="fill:#d95f0e;opacity:0.5;"/>
   </g>
   <g id="patch_33">
    <path clip-path="url(#p3343aa4d41)" d="M 264.271015 299.078125 
L 268.83 299.078125 
L 268.83 230.905657 
L 264.271015 230.905657 
z
" style="fill:#d95f0e;opacity:0.5;"/>
   </g>
   <g id="patch_34">
    <path clip-path="url(#p3343aa4d41)" d="M 269.969747 299.078125 
L 274.528732 299.078125 
L 274.528732 210.075181 
L 269.969747 210.075181 
z
" style="fill:#d95f0e;opacity:0.5;"/>
   </g>
   <g id="patch_35">
    <path clip-path="url(#p3343aa4d41)" d="M 275.668478 299.078125 
L 280.227463 299.078125 
L 280.227463 232.799337 
L 275.668478 232.799337 
z
" style="fill:#d95f0e;opacity:0.5;"/>
   </g>
   <g id="patch_36">
    <path clip-path="url(#p3343aa4d41)" d="M 281.36721 299.078125 
L 285.926195 299.078125 
L 285.926195 232.799337 
L 281.36721 232.799337 
z
" style="fill:#d95f0e;opacity:0.5;"/>
   </g>
   <g id="patch_37">
    <path clip-path="url(#p3343aa4d41)" d="M 287.065941 299.078125 
L 291.624926 299.078125 
L 291.624926 206.287822 
L 287.065941 206.287822 
z
" style="fill:#d95f0e;opacity:0.5;"/>
   </g>
   <g id="patch_38">
    <path clip-path="url(#p3343aa4d41)" d="M 292.764673 299.078125 
L 297.323658 299.078125 
L 297.323658 225.224619 
L 292.764673 225.224619 
z
" style="fill:#d95f0e;opacity:0.5;"/>
   </g>
   <g id="patch_39">
    <path clip-path="url(#p3343aa4d41)" d="M 298.463404 299.078125 
L 303.022389 299.078125 
L 303.022389 202.500463 
L 298.463404 202.500463 
z
" style="fill:#d95f0e;opacity:0.5;"/>
   </g>
   <g id="patch_40">
    <path clip-path="url(#p3343aa4d41)" d="M 304.162136 299.078125 
L 308.721121 299.078125 
L 308.721121 249.842454 
L 304.162136 249.842454 
z
" style="fill:#d95f0e;opacity:0.5;"/>
   </g>
   <g id="patch_41">
    <path clip-path="url(#p3343aa4d41)" d="M 309.860867 299.078125 
L 314.419852 299.078125 
L 314.419852 238.480376 
L 309.860867 238.480376 
z
" style="fill:#d95f0e;opacity:0.5;"/>
   </g>
   <g id="patch_42">
    <path clip-path="url(#p3343aa4d41)" d="M 315.559599 299.078125 
L 320.118584 299.078125 
L 320.118584 194.925744 
L 315.559599 194.925744 
z
" style="fill:#d95f0e;opacity:0.5;"/>
   </g>
   <g id="patch_43">
    <path clip-path="url(#p3343aa4d41)" d="M 321.25833 299.078125 
L 325.817315 299.078125 
L 325.817315 253.629813 
L 321.25833 253.629813 
z
" style="fill:#d95f0e;opacity:0.5;"/>
   </g>
   <g id="patch_44">
    <path clip-path="url(#p3343aa4d41)" d="M 326.957062 299.078125 
L 331.516047 299.078125 
L 331.516047 264.991891 
L 326.957062 264.991891 
z
" style="fill:#d95f0e;opacity:0.5;"/>
   </g>
   <g id="patch_45">
    <path clip-path="url(#p3343aa4d41)" d="M 332.655793 299.078125 
L 337.214778 299.078125 
L 337.214778 266.885571 
L 332.655793 266.885571 
z
" style="fill:#d95f0e;opacity:0.5;"/>
   </g>
   <g id="patch_46">
    <path clip-path="url(#p3343aa4d41)" d="M 338.354525 299.078125 
L 342.91351 299.078125 
L 342.91351 253.629813 
L 338.354525 253.629813 
z
" style="fill:#d95f0e;opacity:0.5;"/>
   </g>
   <g id="patch_47">
    <path clip-path="url(#p3343aa4d41)" d="M 344.053256 299.078125 
L 348.612241 299.078125 
L 348.612241 263.098212 
L 344.053256 263.098212 
z
" style="fill:#d95f0e;opacity:0.5;"/>
   </g>
   <g id="patch_48">
    <path clip-path="url(#p3343aa4d41)" d="M 349.751988 299.078125 
L 354.310973 299.078125 
L 354.310973 280.141328 
L 349.751988 280.141328 
z
" style="fill:#d95f0e;opacity:0.5;"/>
   </g>
   <g id="patch_49">
    <path clip-path="url(#p3343aa4d41)" d="M 355.450719 299.078125 
L 360.009704 299.078125 
L 360.009704 259.310852 
L 355.450719 259.310852 
z
" style="fill:#d95f0e;opacity:0.5;"/>
   </g>
   <g id="patch_50">
    <path clip-path="url(#p3343aa4d41)" d="M 361.149451 299.078125 
L 365.708436 299.078125 
L 365.708436 287.716047 
L 361.149451 287.716047 
z
" style="fill:#d95f0e;opacity:0.5;"/>
   </g>
   <g id="patch_51">
    <path clip-path="url(#p3343aa4d41)" d="M 366.848182 299.078125 
L 371.407167 299.078125 
L 371.407167 282.035008 
L 366.848182 282.035008 
z
" style="fill:#d95f0e;opacity:0.5;"/>
   </g>
   <g id="patch_52">
    <path clip-path="url(#p3343aa4d41)" d="M 372.546913 299.078125 
L 377.105899 299.078125 
L 377.105899 276.353969 
L 372.546913 276.353969 
z
" style="fill:#d95f0e;opacity:0.5;"/>
   </g>
   <g id="patch_53">
    <path clip-path="url(#p3343aa4d41)" d="M 378.245645 299.078125 
L 382.80463 299.078125 
L 382.80463 291.503406 
L 378.245645 291.503406 
z
" style="fill:#d95f0e;opacity:0.5;"/>
   </g>
   <g id="patch_54">
    <path clip-path="url(#p3343aa4d41)" d="M 383.944376 299.078125 
L 388.503362 299.078125 
L 388.503362 293.397086 
L 383.944376 293.397086 
z
" style="fill:#d95f0e;opacity:0.5;"/>
   </g>
   <g id="patch_55">
    <path clip-path="url(#p3343aa4d41)" d="M 389.643108 299.078125 
L 394.202093 299.078125 
L 394.202093 297.184445 
L 389.643108 297.184445 
z
" style="fill:#d95f0e;opacity:0.5;"/>
   </g>
   <g id="patch_56">
    <path clip-path="url(#p3343aa4d41)" d="M 395.341839 299.078125 
L 399.900825 299.078125 
L 399.900825 293.397086 
L 395.341839 293.397086 
z
" style="fill:#d95f0e;opacity:0.5;"/>
   </g>
   <g id="patch_57">
    <path clip-path="url(#p3343aa4d41)" d="M 401.040571 299.078125 
L 405.599556 299.078125 
L 405.599556 299.078125 
L 401.040571 299.078125 
z
" style="fill:#d95f0e;opacity:0.5;"/>
   </g>
   <g id="patch_58">
    <path clip-path="url(#p3343aa4d41)" d="M 406.739302 299.078125 
L 411.298288 299.078125 
L 411.298288 299.078125 
L 406.739302 299.078125 
z
" style="fill:#d95f0e;opacity:0.5;"/>
   </g>
   <g id="patch_59">
    <path clip-path="url(#p3343aa4d41)" d="M 412.438034 299.078125 
L 416.997019 299.078125 
L 416.997019 297.184445 
L 412.438034 297.184445 
z
" style="fill:#d95f0e;opacity:0.5;"/>
   </g>
   <g id="patch_60">
    <path clip-path="url(#p3343aa4d41)" d="M 418.136765 299.078125 
L 422.695751 299.078125 
L 422.695751 299.078125 
L 418.136765 299.078125 
z
" style="fill:#d95f0e;opacity:0.5;"/>
   </g>
   <g id="patch_61">
    <path clip-path="url(#p3343aa4d41)" d="M 423.835497 299.078125 
L 428.394482 299.078125 
L 428.394482 297.184445 
L 423.835497 297.184445 
z
" style="fill:#d95f0e;opacity:0.5;"/>
   </g>
   <g id="patch_62">
    <path clip-path="url(#p3343aa4d41)" d="M 175.465783 299.078125 
L 180.024768 299.078125 
L 180.024768 280.141328 
L 175.465783 280.141328 
z
" style="fill:#43a2ca;opacity:0.8;"/>
   </g>
   <g id="patch_63">
    <path clip-path="url(#p3343aa4d41)" d="M 180.309705 299.078125 
L 184.86869 299.078125 
L 184.86869 299.078125 
L 180.309705 299.078125 
z
" style="fill:#43a2ca;opacity:0.8;"/>
   </g>
   <g id="patch_64">
    <path clip-path="url(#p3343aa4d41)" d="M 185.153626 299.078125 
L 189.712612 299.078125 
L 189.712612 299.078125 
L 185.153626 299.078125 
z
" style="fill:#43a2ca;opacity:0.8;"/>
   </g>
   <g id="patch_65">
    <path clip-path="url(#p3343aa4d41)" d="M 189.997548 299.078125 
L 194.556533 299.078125 
L 194.556533 280.141328 
L 189.997548 280.141328 
z
" style="fill:#43a2ca;opacity:0.8;"/>
   </g>
   <g id="patch_66">
    <path clip-path="url(#p3343aa4d41)" d="M 194.84147 299.078125 
L 199.400455 299.078125 
L 199.400455 204.394142 
L 194.84147 204.394142 
z
" style="fill:#43a2ca;opacity:0.8;"/>
   </g>
   <g id="patch_67">
    <path clip-path="url(#p3343aa4d41)" d="M 199.685392 299.078125 
L 204.244377 299.078125 
L 204.244377 280.141328 
L 199.685392 280.141328 
z
" style="fill:#43a2ca;opacity:0.8;"/>
   </g>
   <g id="patch_68">
    <path clip-path="url(#p3343aa4d41)" d="M 204.529313 299.078125 
L 209.088299 299.078125 
L 209.088299 299.078125 
L 204.529313 299.078125 
z
" style="fill:#43a2ca;opacity:0.8;"/>
   </g>
   <g id="patch_69">
    <path clip-path="url(#p3343aa4d41)" d="M 209.373235 299.078125 
L 213.93222 299.078125 
L 213.93222 299.078125 
L 209.373235 299.078125 
z
" style="fill:#43a2ca;opacity:0.8;"/>
   </g>
   <g id="patch_70">
    <path clip-path="url(#p3343aa4d41)" d="M 214.217157 299.078125 
L 218.776142 299.078125 
L 218.776142 223.330939 
L 214.217157 223.330939 
z
" style="fill:#43a2ca;opacity:0.8;"/>
   </g>
   <g id="patch_71">
    <path clip-path="url(#p3343aa4d41)" d="M 219.061079 299.078125 
L 223.620064 299.078125 
L 223.620064 223.330939 
L 219.061079 223.330939 
z
" style="fill:#43a2ca;opacity:0.8;"/>
   </g>
   <g id="patch_72">
    <path clip-path="url(#p3343aa4d41)" d="M 223.905 299.078125 
L 228.463986 299.078125 
L 228.463986 299.078125 
L 223.905 299.078125 
z
" style="fill:#43a2ca;opacity:0.8;"/>
   </g>
   <g id="patch_73">
    <path clip-path="url(#p3343aa4d41)" d="M 228.748922 299.078125 
L 233.307907 299.078125 
L 233.307907 242.267735 
L 228.748922 242.267735 
z
" style="fill:#43a2ca;opacity:0.8;"/>
   </g>
   <g id="patch_74">
    <path clip-path="url(#p3343aa4d41)" d="M 233.592844 299.078125 
L 238.151829 299.078125 
L 238.151829 223.330939 
L 233.592844 223.330939 
z
" style="fill:#43a2ca;opacity:0.8;"/>
   </g>
   <g id="patch_75">
    <path clip-path="url(#p3343aa4d41)" d="M 238.436766 299.078125 
L 242.995751 299.078125 
L 242.995751 223.330939 
L 238.436766 223.330939 
z
" style="fill:#43a2ca;opacity:0.8;"/>
   </g>
   <g id="patch_76">
    <path clip-path="url(#p3343aa4d41)" d="M 243.280688 299.078125 
L 247.839673 299.078125 
L 247.839673 223.330939 
L 243.280688 223.330939 
z
" style="fill:#43a2ca;opacity:0.8;"/>
   </g>
   <g id="patch_77">
    <path clip-path="url(#p3343aa4d41)" d="M 248.124609 299.078125 
L 252.683594 299.078125 
L 252.683594 223.330939 
L 248.124609 223.330939 
z
" style="fill:#43a2ca;opacity:0.8;"/>
   </g>
   <g id="patch_78">
    <path clip-path="url(#p3343aa4d41)" d="M 252.968531 299.078125 
L 257.527516 299.078125 
L 257.527516 261.204532 
L 252.968531 261.204532 
z
" style="fill:#43a2ca;opacity:0.8;"/>
   </g>
   <g id="patch_79">
    <path clip-path="url(#p3343aa4d41)" d="M 257.812453 299.078125 
L 262.371438 299.078125 
L 262.371438 299.078125 
L 257.812453 299.078125 
z
" style="fill:#43a2ca;opacity:0.8;"/>
   </g>
   <g id="patch_80">
    <path clip-path="url(#p3343aa4d41)" d="M 262.656375 299.078125 
L 267.21536 299.078125 
L 267.21536 242.267735 
L 262.656375 242.267735 
z
" style="fill:#43a2ca;opacity:0.8;"/>
   </g>
   <g id="patch_81">
    <path clip-path="url(#p3343aa4d41)" d="M 267.500296 299.078125 
L 272.059282 299.078125 
L 272.059282 242.267735 
L 267.500296 242.267735 
z
" style="fill:#43a2ca;opacity:0.8;"/>
   </g>
   <g id="patch_82">
    <path clip-path="url(#p3343aa4d41)" d="M 272.344218 299.078125 
L 276.903203 299.078125 
L 276.903203 261.204532 
L 272.344218 261.204532 
z
" style="fill:#43a2ca;opacity:0.8;"/>
   </g>
   <g id="patch_83">
    <path clip-path="url(#p3343aa4d41)" d="M 277.18814 299.078125 
L 281.747125 299.078125 
L 281.747125 242.267735 
L 277.18814 242.267735 
z
" style="fill:#43a2ca;opacity:0.8;"/>
   </g>
   <g id="patch_84">
    <path clip-path="url(#p3343aa4d41)" d="M 282.032062 299.078125 
L 286.591047 299.078125 
L 286.591047 261.204532 
L 282.032062 261.204532 
z
" style="fill:#43a2ca;opacity:0.8;"/>
   </g>
   <g id="patch_85">
    <path clip-path="url(#p3343aa4d41)" d="M 286.875983 299.078125 
L 291.434969 299.078125 
L 291.434969 261.204532 
L 286.875983 261.204532 
z
" style="fill:#43a2ca;opacity:0.8;"/>
   </g>
   <g id="patch_86">
    <path clip-path="url(#p3343aa4d41)" d="M 291.719905 299.078125 
L 296.27889 299.078125 
L 296.27889 299.078125 
L 291.719905 299.078125 
z
" style="fill:#43a2ca;opacity:0.8;"/>
   </g>
   <g id="patch_87">
    <path clip-path="url(#p3343aa4d41)" d="M 296.563827 299.078125 
L 301.122812 299.078125 
L 301.122812 223.330939 
L 296.563827 223.330939 
z
" style="fill:#43a2ca;opacity:0.8;"/>
   </g>
   <g id="patch_88">
    <path clip-path="url(#p3343aa4d41)" d="M 301.407749 299.078125 
L 305.966734 299.078125 
L 305.966734 280.141328 
L 301.407749 280.141328 
z
" style="fill:#43a2ca;opacity:0.8;"/>
   </g>
   <g id="patch_89">
    <path clip-path="url(#p3343aa4d41)" d="M 306.25167 299.078125 
L 310.810656 299.078125 
L 310.810656 242.267735 
L 306.25167 242.267735 
z
" style="fill:#43a2ca;opacity:0.8;"/>
   </g>
   <g id="patch_90">
    <path clip-path="url(#p3343aa4d41)" d="M 311.095592 299.078125 
L 315.654577 299.078125 
L 315.654577 223.330939 
L 311.095592 223.330939 
z
" style="fill:#43a2ca;opacity:0.8;"/>
   </g>
   <g id="patch_91">
    <path clip-path="url(#p3343aa4d41)" d="M 315.939514 299.078125 
L 320.498499 299.078125 
L 320.498499 280.141328 
L 315.939514 280.141328 
z
" style="fill:#43a2ca;opacity:0.8;"/>
   </g>
   <g id="patch_92">
    <path clip-path="url(#p3343aa4d41)" d="M 320.783436 299.078125 
L 325.342421 299.078125 
L 325.342421 261.204532 
L 320.783436 261.204532 
z
" style="fill:#43a2ca;opacity:0.8;"/>
   </g>
   <g id="patch_93">
    <path clip-path="url(#p3343aa4d41)" d="M 325.627358 299.078125 
L 330.186343 299.078125 
L 330.186343 280.141328 
L 325.627358 280.141328 
z
" style="fill:#43a2ca;opacity:0.8;"/>
   </g>
   <g id="patch_94">
    <path clip-path="url(#p3343aa4d41)" d="M 330.471279 299.078125 
L 335.030265 299.078125 
L 335.030265 280.141328 
L 330.471279 280.141328 
z
" style="fill:#43a2ca;opacity:0.8;"/>
   </g>
   <g id="patch_95">
    <path clip-path="url(#p3343aa4d41)" d="M 335.315201 299.078125 
L 339.874186 299.078125 
L 339.874186 261.204532 
L 335.315201 261.204532 
z
" style="fill:#43a2ca;opacity:0.8;"/>
   </g>
   <g id="patch_96">
    <path clip-path="url(#p3343aa4d41)" d="M 340.159123 299.078125 
L 344.718108 299.078125 
L 344.718108 223.330939 
L 340.159123 223.330939 
z
" style="fill:#43a2ca;opacity:0.8;"/>
   </g>
   <g id="patch_97">
    <path clip-path="url(#p3343aa4d41)" d="M 345.003045 299.078125 
L 349.56203 299.078125 
L 349.56203 280.141328 
L 345.003045 280.141328 
z
" style="fill:#43a2ca;opacity:0.8;"/>
   </g>
   <g id="patch_98">
    <path clip-path="url(#p3343aa4d41)" d="M 349.846966 299.078125 
L 354.405952 299.078125 
L 354.405952 261.204532 
L 349.846966 261.204532 
z
" style="fill:#43a2ca;opacity:0.8;"/>
   </g>
   <g id="patch_99">
    <path clip-path="url(#p3343aa4d41)" d="M 354.690888 299.078125 
L 359.249873 299.078125 
L 359.249873 299.078125 
L 354.690888 299.078125 
z
" style="fill:#43a2ca;opacity:0.8;"/>
   </g>
   <g id="patch_100">
    <path clip-path="url(#p3343aa4d41)" d="M 359.53481 299.078125 
L 364.093795 299.078125 
L 364.093795 299.078125 
L 359.53481 299.078125 
z
" style="fill:#43a2ca;opacity:0.8;"/>
   </g>
   <g id="patch_101">
    <path clip-path="url(#p3343aa4d41)" d="M 364.378732 299.078125 
L 368.937717 299.078125 
L 368.937717 280.141328 
L 364.378732 280.141328 
z
" style="fill:#43a2ca;opacity:0.8;"/>
   </g>
   <g id="patch_102">
    <path clip-path="url(#p3343aa4d41)" d="M 369.222653 299.078125 
L 373.781639 299.078125 
L 373.781639 261.204532 
L 369.222653 261.204532 
z
" style="fill:#43a2ca;opacity:0.8;"/>
   </g>
   <g id="patch_103">
    <path clip-path="url(#p3343aa4d41)" d="M 374.066575 299.078125 
L 378.62556 299.078125 
L 378.62556 280.141328 
L 374.066575 280.141328 
z
" style="fill:#43a2ca;opacity:0.8;"/>
   </g>
   <g id="patch_104">
    <path clip-path="url(#p3343aa4d41)" d="M 378.910497 299.078125 
L 383.469482 299.078125 
L 383.469482 280.141328 
L 378.910497 280.141328 
z
" style="fill:#43a2ca;opacity:0.8;"/>
   </g>
   <g id="patch_105">
    <path clip-path="url(#p3343aa4d41)" d="M 383.754419 299.078125 
L 388.313404 299.078125 
L 388.313404 299.078125 
L 383.754419 299.078125 
z
" style="fill:#43a2ca;opacity:0.8;"/>
   </g>
   <g id="patch_106">
    <path clip-path="url(#p3343aa4d41)" d="M 388.598341 299.078125 
L 393.157326 299.078125 
L 393.157326 280.141328 
L 388.598341 280.141328 
z
" style="fill:#43a2ca;opacity:0.8;"/>
   </g>
   <g id="patch_107">
    <path clip-path="url(#p3343aa4d41)" d="M 393.442262 299.078125 
L 398.001247 299.078125 
L 398.001247 299.078125 
L 393.442262 299.078125 
z
" style="fill:#43a2ca;opacity:0.8;"/>
   </g>
   <g id="patch_108">
    <path clip-path="url(#p3343aa4d41)" d="M 398.286184 299.078125 
L 402.845169 299.078125 
L 402.845169 280.141328 
L 398.286184 280.141328 
z
" style="fill:#43a2ca;opacity:0.8;"/>
   </g>
   <g id="patch_109">
    <path clip-path="url(#p3343aa4d41)" d="M 403.130106 299.078125 
L 407.689091 299.078125 
L 407.689091 299.078125 
L 403.130106 299.078125 
z
" style="fill:#43a2ca;opacity:0.8;"/>
   </g>
   <g id="patch_110">
    <path clip-path="url(#p3343aa4d41)" d="M 407.974028 299.078125 
L 412.533013 299.078125 
L 412.533013 299.078125 
L 407.974028 299.078125 
z
" style="fill:#43a2ca;opacity:0.8;"/>
   </g>
   <g id="patch_111">
    <path clip-path="url(#p3343aa4d41)" d="M 412.817949 299.078125 
L 417.376935 299.078125 
L 417.376935 280.141328 
L 412.817949 280.141328 
z
" style="fill:#43a2ca;opacity:0.8;"/>
   </g>
   <g id="matplotlib.axis_3">
    <g id="xtick_6">
     <g id="line2d_10">
      <g>
       <use style="stroke:#000000;stroke-width:0.8;" x="142.131267" xlink:href="#m2ac9ee74b9" y="299.078125"/>
      </g>
     </g>
     <g id="text_12">
      <!-- −0.6 -->
      <g transform="translate(129.989861 313.676562)scale(0.1 -0.1)">
       <defs>
        <path d="M 33.015625 40.375 
Q 26.375 40.375 22.484375 35.828125 
Q 18.609375 31.296875 18.609375 23.390625 
Q 18.609375 15.53125 22.484375 10.953125 
Q 26.375 6.390625 33.015625 6.390625 
Q 39.65625 6.390625 43.53125 10.953125 
Q 47.40625 15.53125 47.40625 23.390625 
Q 47.40625 31.296875 43.53125 35.828125 
Q 39.65625 40.375 33.015625 40.375 
z
M 52.59375 71.296875 
L 52.59375 62.3125 
Q 48.875 64.0625 45.09375 64.984375 
Q 41.3125 65.921875 37.59375 65.921875 
Q 27.828125 65.921875 22.671875 59.328125 
Q 17.53125 52.734375 16.796875 39.40625 
Q 19.671875 43.65625 24.015625 45.921875 
Q 28.375 48.1875 33.59375 48.1875 
Q 44.578125 48.1875 50.953125 41.515625 
Q 57.328125 34.859375 57.328125 23.390625 
Q 57.328125 12.15625 50.6875 5.359375 
Q 44.046875 -1.421875 33.015625 -1.421875 
Q 20.359375 -1.421875 13.671875 8.265625 
Q 6.984375 17.96875 6.984375 36.375 
Q 6.984375 53.65625 15.1875 63.9375 
Q 23.390625 74.21875 37.203125 74.21875 
Q 40.921875 74.21875 44.703125 73.484375 
Q 48.484375 72.75 52.59375 71.296875 
z
" id="DejaVuSans-54"/>
       </defs>
       <use xlink:href="#DejaVuSans-8722"/>
       <use x="83.789062" xlink:href="#DejaVuSans-48"/>
       <use x="147.412109" xlink:href="#DejaVuSans-46"/>
       <use x="179.199219" xlink:href="#DejaVuSans-54"/>
      </g>
     </g>
    </g>
    <g id="xtick_7">
     <g id="line2d_11">
      <g>
       <use style="stroke:#000000;stroke-width:0.8;" x="191.202656" xlink:href="#m2ac9ee74b9" y="299.078125"/>
      </g>
     </g>
     <g id="text_13">
      <!-- −0.4 -->
      <g transform="translate(179.06125 313.676562)scale(0.1 -0.1)">
       <use xlink:href="#DejaVuSans-8722"/>
       <use x="83.789062" xlink:href="#DejaVuSans-48"/>
       <use x="147.412109" xlink:href="#DejaVuSans-46"/>
       <use x="179.199219" xlink:href="#DejaVuSans-52"/>
      </g>
     </g>
    </g>
    <g id="xtick_8">
     <g id="line2d_12">
      <g>
       <use style="stroke:#000000;stroke-width:0.8;" x="240.274045" xlink:href="#m2ac9ee74b9" y="299.078125"/>
      </g>
     </g>
     <g id="text_14">
      <!-- −0.2 -->
      <g transform="translate(228.132639 313.676562)scale(0.1 -0.1)">
       <use xlink:href="#DejaVuSans-8722"/>
       <use x="83.789062" xlink:href="#DejaVuSans-48"/>
       <use x="147.412109" xlink:href="#DejaVuSans-46"/>
       <use x="179.199219" xlink:href="#DejaVuSans-50"/>
      </g>
     </g>
    </g>
    <g id="xtick_9">
     <g id="line2d_13">
      <g>
       <use style="stroke:#000000;stroke-width:0.8;" x="289.345434" xlink:href="#m2ac9ee74b9" y="299.078125"/>
      </g>
     </g>
     <g id="text_15">
      <!-- 0.0 -->
      <g transform="translate(281.393871 313.676562)scale(0.1 -0.1)">
       <use xlink:href="#DejaVuSans-48"/>
       <use x="63.623047" xlink:href="#DejaVuSans-46"/>
       <use x="95.410156" xlink:href="#DejaVuSans-48"/>
      </g>
     </g>
    </g>
    <g id="xtick_10">
     <g id="line2d_14">
      <g>
       <use style="stroke:#000000;stroke-width:0.8;" x="338.416823" xlink:href="#m2ac9ee74b9" y="299.078125"/>
      </g>
     </g>
     <g id="text_16">
      <!-- 0.2 -->
      <g transform="translate(330.46526 313.676562)scale(0.1 -0.1)">
       <use xlink:href="#DejaVuSans-48"/>
       <use x="63.623047" xlink:href="#DejaVuSans-46"/>
       <use x="95.410156" xlink:href="#DejaVuSans-50"/>
      </g>
     </g>
    </g>
    <g id="xtick_11">
     <g id="line2d_15">
      <g>
       <use style="stroke:#000000;stroke-width:0.8;" x="387.488211" xlink:href="#m2ac9ee74b9" y="299.078125"/>
      </g>
     </g>
     <g id="text_17">
      <!-- 0.4 -->
      <g transform="translate(379.536649 313.676562)scale(0.1 -0.1)">
       <use xlink:href="#DejaVuSans-48"/>
       <use x="63.623047" xlink:href="#DejaVuSans-46"/>
       <use x="95.410156" xlink:href="#DejaVuSans-52"/>
      </g>
     </g>
    </g>
    <g id="xtick_12">
     <g id="line2d_16">
      <g>
       <use style="stroke:#000000;stroke-width:0.8;" x="436.5596" xlink:href="#m2ac9ee74b9" y="299.078125"/>
      </g>
     </g>
     <g id="text_18">
      <!-- 0.6 -->
      <g transform="translate(428.608038 313.676562)scale(0.1 -0.1)">
       <use xlink:href="#DejaVuSans-48"/>
       <use x="63.623047" xlink:href="#DejaVuSans-46"/>
       <use x="95.410156" xlink:href="#DejaVuSans-54"/>
      </g>
     </g>
    </g>
    <g id="text_19">
     <!-- Rho value -->
     <g transform="translate(261.546849 327.354687)scale(0.1 -0.1)">
      <defs>
       <path d="M 44.390625 34.1875 
Q 47.5625 33.109375 50.5625 29.59375 
Q 53.5625 26.078125 56.59375 19.921875 
L 66.609375 0 
L 56 0 
L 46.6875 18.703125 
Q 43.0625 26.03125 39.671875 28.421875 
Q 36.28125 30.8125 30.421875 30.8125 
L 19.671875 30.8125 
L 19.671875 0 
L 9.8125 0 
L 9.8125 72.90625 
L 32.078125 72.90625 
Q 44.578125 72.90625 50.734375 67.671875 
Q 56.890625 62.453125 56.890625 51.90625 
Q 56.890625 45.015625 53.6875 40.46875 
Q 50.484375 35.9375 44.390625 34.1875 
z
M 19.671875 64.796875 
L 19.671875 38.921875 
L 32.078125 38.921875 
Q 39.203125 38.921875 42.84375 42.21875 
Q 46.484375 45.515625 46.484375 51.90625 
Q 46.484375 58.296875 42.84375 61.546875 
Q 39.203125 64.796875 32.078125 64.796875 
z
" id="DejaVuSans-82"/>
      </defs>
      <use xlink:href="#DejaVuSans-82"/>
      <use x="69.482422" xlink:href="#DejaVuSans-104"/>
      <use x="132.861328" xlink:href="#DejaVuSans-111"/>
      <use x="194.042969" xlink:href="#DejaVuSans-32"/>
      <use x="225.830078" xlink:href="#DejaVuSans-118"/>
      <use x="285.009766" xlink:href="#DejaVuSans-97"/>
      <use x="346.289062" xlink:href="#DejaVuSans-108"/>
      <use x="374.072266" xlink:href="#DejaVuSans-117"/>
      <use x="437.451172" xlink:href="#DejaVuSans-101"/>
     </g>
    </g>
   </g>
   <g id="matplotlib.axis_4">
    <g id="ytick_5">
     <g id="line2d_17">
      <g>
       <use style="stroke:#000000;stroke-width:0.8;" x="130.407813" xlink:href="#m9eb1e27f7b" y="299.078125"/>
      </g>
     </g>
     <g id="text_20">
      <!-- 0 -->
      <g transform="translate(117.045313 302.877344)scale(0.1 -0.1)">
       <use xlink:href="#DejaVuSans-48"/>
      </g>
     </g>
    </g>
    <g id="ytick_6">
     <g id="line2d_18">
      <g>
       <use style="stroke:#000000;stroke-width:0.8;" x="130.407813" xlink:href="#m9eb1e27f7b" y="261.204532"/>
      </g>
     </g>
     <g id="text_21">
      <!-- 2 -->
      <g transform="translate(117.045313 265.003751)scale(0.1 -0.1)">
       <use xlink:href="#DejaVuSans-50"/>
      </g>
     </g>
    </g>
    <g id="ytick_7">
     <g id="line2d_19">
      <g>
       <use style="stroke:#000000;stroke-width:0.8;" x="130.407813" xlink:href="#m9eb1e27f7b" y="223.330939"/>
      </g>
     </g>
     <g id="text_22">
      <!-- 4 -->
      <g transform="translate(117.045313 227.130158)scale(0.1 -0.1)">
       <use xlink:href="#DejaVuSans-52"/>
      </g>
     </g>
    </g>
    <g id="text_23">
     <!-- Number of bacteria -->
     <g transform="translate(110.965625 293.014531)rotate(-90)scale(0.1 -0.1)">
      <defs>
       <path d="M 9.8125 72.90625 
L 23.09375 72.90625 
L 55.421875 11.921875 
L 55.421875 72.90625 
L 64.984375 72.90625 
L 64.984375 0 
L 51.703125 0 
L 19.390625 60.984375 
L 19.390625 0 
L 9.8125 0 
z
" id="DejaVuSans-78"/>
      </defs>
      <use xlink:href="#DejaVuSans-78"/>
      <use x="74.804688" xlink:href="#DejaVuSans-117"/>
      <use x="138.183594" xlink:href="#DejaVuSans-109"/>
      <use x="235.595703" xlink:href="#DejaVuSans-98"/>
      <use x="299.072266" xlink:href="#DejaVuSans-101"/>
      <use x="360.595703" xlink:href="#DejaVuSans-114"/>
      <use x="401.708984" xlink:href="#DejaVuSans-32"/>
      <use x="433.496094" xlink:href="#DejaVuSans-111"/>
      <use x="494.677734" xlink:href="#DejaVuSans-102"/>
      <use x="529.882812" xlink:href="#DejaVuSans-32"/>
      <use x="561.669922" xlink:href="#DejaVuSans-98"/>
      <use x="625.146484" xlink:href="#DejaVuSans-97"/>
      <use x="686.425781" xlink:href="#DejaVuSans-99"/>
      <use x="741.40625" xlink:href="#DejaVuSans-116"/>
      <use x="780.615234" xlink:href="#DejaVuSans-101"/>
      <use x="842.138672" xlink:href="#DejaVuSans-114"/>
      <use x="883.251953" xlink:href="#DejaVuSans-105"/>
      <use x="911.035156" xlink:href="#DejaVuSans-97"/>
     </g>
    </g>
   </g>
   <g id="patch_112">
    <path d="M 130.407813 299.078125 
L 130.407813 189.718125 
" style="fill:none;stroke:#000000;stroke-linecap:square;stroke-linejoin:miter;stroke-width:0.8;"/>
   </g>
   <g id="patch_113">
    <path d="M 442.584323 299.078125 
L 442.584323 189.718125 
" style="fill:none;stroke:#000000;stroke-linecap:square;stroke-linejoin:miter;stroke-width:0.8;"/>
   </g>
   <g id="patch_114">
    <path d="M 130.407813 299.078125 
L 442.584323 299.078125 
" style="fill:none;stroke:#000000;stroke-linecap:square;stroke-linejoin:miter;stroke-width:0.8;"/>
   </g>
   <g id="patch_115">
    <path d="M 130.407813 189.718125 
L 442.584323 189.718125 
" style="fill:none;stroke:#000000;stroke-linecap:square;stroke-linejoin:miter;stroke-width:0.8;"/>
   </g>
   <g id="text_24">
    <!-- Real tags vs. Mixed tags at yes antiacids 3 last months -->
    <g transform="translate(121.561693 183.718125)scale(0.12 -0.12)">
     <defs>
      <path d="M 54.890625 54.6875 
L 35.109375 28.078125 
L 55.90625 0 
L 45.3125 0 
L 29.390625 21.484375 
L 13.484375 0 
L 2.875 0 
L 24.125 28.609375 
L 4.6875 54.6875 
L 15.28125 54.6875 
L 29.78125 35.203125 
L 44.28125 54.6875 
z
" id="DejaVuSans-120"/>
     </defs>
     <use xlink:href="#DejaVuSans-82"/>
     <use x="64.982422" xlink:href="#DejaVuSans-101"/>
     <use x="126.505859" xlink:href="#DejaVuSans-97"/>
     <use x="187.785156" xlink:href="#DejaVuSans-108"/>
     <use x="215.568359" xlink:href="#DejaVuSans-32"/>
     <use x="247.355469" xlink:href="#DejaVuSans-116"/>
     <use x="286.564453" xlink:href="#DejaVuSans-97"/>
     <use x="347.84375" xlink:href="#DejaVuSans-103"/>
     <use x="411.320312" xlink:href="#DejaVuSans-115"/>
     <use x="463.419922" xlink:href="#DejaVuSans-32"/>
     <use x="495.207031" xlink:href="#DejaVuSans-118"/>
     <use x="554.386719" xlink:href="#DejaVuSans-115"/>
     <use x="606.486328" xlink:href="#DejaVuSans-46"/>
     <use x="638.273438" xlink:href="#DejaVuSans-32"/>
     <use x="670.060547" xlink:href="#DejaVuSans-77"/>
     <use x="756.339844" xlink:href="#DejaVuSans-105"/>
     <use x="784.123047" xlink:href="#DejaVuSans-120"/>
     <use x="840.177734" xlink:href="#DejaVuSans-101"/>
     <use x="901.701172" xlink:href="#DejaVuSans-100"/>
     <use x="965.177734" xlink:href="#DejaVuSans-32"/>
     <use x="996.964844" xlink:href="#DejaVuSans-116"/>
     <use x="1036.173828" xlink:href="#DejaVuSans-97"/>
     <use x="1097.453125" xlink:href="#DejaVuSans-103"/>
     <use x="1160.929688" xlink:href="#DejaVuSans-115"/>
     <use x="1213.029297" xlink:href="#DejaVuSans-32"/>
     <use x="1244.816406" xlink:href="#DejaVuSans-97"/>
     <use x="1306.095703" xlink:href="#DejaVuSans-116"/>
     <use x="1345.304688" xlink:href="#DejaVuSans-32"/>
     <use x="1377.091797" xlink:href="#DejaVuSans-121"/>
     <use x="1436.271484" xlink:href="#DejaVuSans-101"/>
     <use x="1497.794922" xlink:href="#DejaVuSans-115"/>
     <use x="1549.894531" xlink:href="#DejaVuSans-32"/>
     <use x="1581.681641" xlink:href="#DejaVuSans-97"/>
     <use x="1642.960938" xlink:href="#DejaVuSans-110"/>
     <use x="1706.339844" xlink:href="#DejaVuSans-116"/>
     <use x="1745.548828" xlink:href="#DejaVuSans-105"/>
     <use x="1773.332031" xlink:href="#DejaVuSans-97"/>
     <use x="1834.611328" xlink:href="#DejaVuSans-99"/>
     <use x="1889.591797" xlink:href="#DejaVuSans-105"/>
     <use x="1917.375" xlink:href="#DejaVuSans-100"/>
     <use x="1980.851562" xlink:href="#DejaVuSans-115"/>
     <use x="2032.951172" xlink:href="#DejaVuSans-32"/>
     <use x="2064.738281" xlink:href="#DejaVuSans-51"/>
     <use x="2128.361328" xlink:href="#DejaVuSans-32"/>
     <use x="2160.148438" xlink:href="#DejaVuSans-108"/>
     <use x="2187.931641" xlink:href="#DejaVuSans-97"/>
     <use x="2249.210938" xlink:href="#DejaVuSans-115"/>
     <use x="2301.310547" xlink:href="#DejaVuSans-116"/>
     <use x="2340.519531" xlink:href="#DejaVuSans-32"/>
     <use x="2372.306641" xlink:href="#DejaVuSans-109"/>
     <use x="2469.71875" xlink:href="#DejaVuSans-111"/>
     <use x="2530.900391" xlink:href="#DejaVuSans-110"/>
     <use x="2594.279297" xlink:href="#DejaVuSans-116"/>
     <use x="2633.488281" xlink:href="#DejaVuSans-104"/>
     <use x="2696.867188" xlink:href="#DejaVuSans-115"/>
    </g>
   </g>
   <g id="legend_1">
    <g id="patch_116">
     <path d="M 349.285886 227.074375 
L 435.584323 227.074375 
Q 437.584323 227.074375 437.584323 225.074375 
L 437.584323 196.718125 
Q 437.584323 194.718125 435.584323 194.718125 
L 349.285886 194.718125 
Q 347.285886 194.718125 347.285886 196.718125 
L 347.285886 225.074375 
Q 347.285886 227.074375 349.285886 227.074375 
z
" style="fill:#ffffff;opacity:0.8;stroke:#cccccc;stroke-linejoin:miter;"/>
    </g>
    <g id="patch_117">
     <path d="M 351.285886 206.316562 
L 371.285886 206.316562 
L 371.285886 199.316562 
L 351.285886 199.316562 
z
" style="fill:#d95f0e;opacity:0.5;"/>
    </g>
    <g id="text_25">
     <!-- Mixed tags -->
     <g transform="translate(379.285886 206.316562)scale(0.1 -0.1)">
      <use xlink:href="#DejaVuSans-77"/>
      <use x="86.279297" xlink:href="#DejaVuSans-105"/>
      <use x="114.0625" xlink:href="#DejaVuSans-120"/>
      <use x="170.117188" xlink:href="#DejaVuSans-101"/>
      <use x="231.640625" xlink:href="#DejaVuSans-100"/>
      <use x="295.117188" xlink:href="#DejaVuSans-32"/>
      <use x="326.904297" xlink:href="#DejaVuSans-116"/>
      <use x="366.113281" xlink:href="#DejaVuSans-97"/>
      <use x="427.392578" xlink:href="#DejaVuSans-103"/>
      <use x="490.869141" xlink:href="#DejaVuSans-115"/>
     </g>
    </g>
    <g id="patch_118">
     <path d="M 351.285886 220.994687 
L 371.285886 220.994687 
L 371.285886 213.994687 
L 351.285886 213.994687 
z
" style="fill:#43a2ca;opacity:0.8;"/>
    </g>
    <g id="text_26">
     <!-- Real tags -->
     <g transform="translate(379.285886 220.994687)scale(0.1 -0.1)">
      <use xlink:href="#DejaVuSans-82"/>
      <use x="64.982422" xlink:href="#DejaVuSans-101"/>
      <use x="126.505859" xlink:href="#DejaVuSans-97"/>
      <use x="187.785156" xlink:href="#DejaVuSans-108"/>
      <use x="215.568359" xlink:href="#DejaVuSans-32"/>
      <use x="247.355469" xlink:href="#DejaVuSans-116"/>
      <use x="286.564453" xlink:href="#DejaVuSans-97"/>
      <use x="347.84375" xlink:href="#DejaVuSans-103"/>
      <use x="411.320312" xlink:href="#DejaVuSans-115"/>
     </g>
    </g>
   </g>
  </g>
 </g>
 <defs>
  <clipPath id="p3242e60b6f">
   <rect height="109.36" width="312.176511" x="130.407813" y="22.318125"/>
  </clipPath>
  <clipPath id="p3343aa4d41">
   <rect height="109.36" width="312.176511" x="130.407813" y="189.718125"/>
  </clipPath>
 </defs>
</svg>
