<?xml version="1.0" encoding="utf-8" standalone="no"?>
<!DOCTYPE svg PUBLIC "-//W3C//DTD SVG 1.1//EN"
  "http://www.w3.org/Graphics/SVG/1.1/DTD/svg11.dtd">
<!-- Created with matplotlib (https://matplotlib.org/) -->
<svg height="350.7575pt" version="1.1" viewBox="0 0 424.874297 350.7575" width="424.874297pt" xmlns="http://www.w3.org/2000/svg" xmlns:xlink="http://www.w3.org/1999/xlink">
 <defs>
  <style type="text/css">
*{stroke-linecap:butt;stroke-linejoin:round;}
  </style>
 </defs>
 <g id="figure_1">
  <g id="patch_1">
   <path d="M 0 350.7575 
L 424.874297 350.7575 
L 424.874297 0 
L 0 0 
z
" style="fill:#ffffff;"/>
  </g>
  <g id="axes_1">
   <g id="patch_2">
    <path d="M 141.740625 311.265625 
L 372.140625 311.265625 
L 372.140625 45.153625 
L 141.740625 45.153625 
z
" style="fill:#ffffff;"/>
   </g>
   <g id="patch_3">
    <path clip-path="url(#p17fe622e08)" d="M 141.740625 299.169625 
L 372.140625 299.169625 
L 372.140625 279.421054 
L 141.740625 279.421054 
z
" style="fill:#0000ff;"/>
   </g>
   <g id="patch_4">
    <path clip-path="url(#p17fe622e08)" d="M 141.740625 274.483911 
L 372.140625 274.483911 
L 372.140625 254.735339 
L 141.740625 254.735339 
z
" style="fill:#0000ff;"/>
   </g>
   <g id="patch_5">
    <path clip-path="url(#p17fe622e08)" d="M 141.740625 249.798196 
L 372.140625 249.798196 
L 372.140625 230.049625 
L 141.740625 230.049625 
z
" style="fill:#0000ff;"/>
   </g>
   <g id="patch_6">
    <path clip-path="url(#p17fe622e08)" d="M 141.740625 225.112482 
L 372.140625 225.112482 
L 372.140625 205.363911 
L 141.740625 205.363911 
z
" style="fill:#0000ff;"/>
   </g>
   <g id="patch_7">
    <path clip-path="url(#p17fe622e08)" d="M 141.740625 200.426768 
L 372.140625 200.426768 
L 372.140625 180.678196 
L 141.740625 180.678196 
z
" style="fill:#0000ff;"/>
   </g>
   <g id="patch_8">
    <path clip-path="url(#p17fe622e08)" d="M 141.740625 175.741054 
L 372.140625 175.741054 
L 372.140625 155.992482 
L 141.740625 155.992482 
z
" style="fill:#0000ff;"/>
   </g>
   <g id="patch_9">
    <path clip-path="url(#p17fe622e08)" d="M 141.740625 151.055339 
L 372.140625 151.055339 
L 372.140625 131.306768 
L 141.740625 131.306768 
z
" style="fill:#0000ff;"/>
   </g>
   <g id="patch_10">
    <path clip-path="url(#p17fe622e08)" d="M 141.740625 126.369625 
L 372.140625 126.369625 
L 372.140625 106.621054 
L 141.740625 106.621054 
z
" style="fill:#0000ff;"/>
   </g>
   <g id="patch_11">
    <path clip-path="url(#p17fe622e08)" d="M 141.740625 101.683911 
L 372.140625 101.683911 
L 372.140625 81.935339 
L 141.740625 81.935339 
z
" style="fill:#0000ff;"/>
   </g>
   <g id="patch_12">
    <path clip-path="url(#p17fe622e08)" d="M 141.740625 76.998196 
L 372.140625 76.998196 
L 372.140625 57.249625 
L 141.740625 57.249625 
z
" style="fill:#0000ff;"/>
   </g>
   <g id="matplotlib.axis_1">
    <g id="xtick_1">
     <g id="line2d_1">
      <defs>
       <path d="M 0 0 
L 0 3.5 
" id="m815967be9f" style="stroke:#000000;stroke-width:0.8;"/>
      </defs>
      <g>
       <use style="stroke:#000000;stroke-width:0.8;" x="141.740625" xlink:href="#m815967be9f" y="311.265625"/>
      </g>
     </g>
     <g id="text_1">
      <!-- 0 -->
      <defs>
       <path d="M 31.78125 66.40625 
Q 24.171875 66.40625 20.328125 58.90625 
Q 16.5 51.421875 16.5 36.375 
Q 16.5 21.390625 20.328125 13.890625 
Q 24.171875 6.390625 31.78125 6.390625 
Q 39.453125 6.390625 43.28125 13.890625 
Q 47.125 21.390625 47.125 36.375 
Q 47.125 51.421875 43.28125 58.90625 
Q 39.453125 66.40625 31.78125 66.40625 
z
M 31.78125 74.21875 
Q 44.046875 74.21875 50.515625 64.515625 
Q 56.984375 54.828125 56.984375 36.375 
Q 56.984375 17.96875 50.515625 8.265625 
Q 44.046875 -1.421875 31.78125 -1.421875 
Q 19.53125 -1.421875 13.0625 8.265625 
Q 6.59375 17.96875 6.59375 36.375 
Q 6.59375 54.828125 13.0625 64.515625 
Q 19.53125 74.21875 31.78125 74.21875 
z
" id="DejaVuSans-48"/>
      </defs>
      <g transform="translate(138.559375 325.864062)scale(0.1 -0.1)">
       <use xlink:href="#DejaVuSans-48"/>
      </g>
     </g>
    </g>
    <g id="xtick_2">
     <g id="line2d_2">
      <g>
       <use style="stroke:#000000;stroke-width:0.8;" x="195.799624" xlink:href="#m815967be9f" y="311.265625"/>
      </g>
     </g>
     <g id="text_2">
      <!-- 1 -->
      <defs>
       <path d="M 12.40625 8.296875 
L 28.515625 8.296875 
L 28.515625 63.921875 
L 10.984375 60.40625 
L 10.984375 69.390625 
L 28.421875 72.90625 
L 38.28125 72.90625 
L 38.28125 8.296875 
L 54.390625 8.296875 
L 54.390625 0 
L 12.40625 0 
z
" id="DejaVuSans-49"/>
      </defs>
      <g transform="translate(192.618374 325.864062)scale(0.1 -0.1)">
       <use xlink:href="#DejaVuSans-49"/>
      </g>
     </g>
    </g>
    <g id="xtick_3">
     <g id="line2d_3">
      <g>
       <use style="stroke:#000000;stroke-width:0.8;" x="249.858623" xlink:href="#m815967be9f" y="311.265625"/>
      </g>
     </g>
     <g id="text_3">
      <!-- 2 -->
      <defs>
       <path d="M 19.1875 8.296875 
L 53.609375 8.296875 
L 53.609375 0 
L 7.328125 0 
L 7.328125 8.296875 
Q 12.9375 14.109375 22.625 23.890625 
Q 32.328125 33.6875 34.8125 36.53125 
Q 39.546875 41.84375 41.421875 45.53125 
Q 43.3125 49.21875 43.3125 52.78125 
Q 43.3125 58.59375 39.234375 62.25 
Q 35.15625 65.921875 28.609375 65.921875 
Q 23.96875 65.921875 18.8125 64.3125 
Q 13.671875 62.703125 7.8125 59.421875 
L 7.8125 69.390625 
Q 13.765625 71.78125 18.9375 73 
Q 24.125 74.21875 28.421875 74.21875 
Q 39.75 74.21875 46.484375 68.546875 
Q 53.21875 62.890625 53.21875 53.421875 
Q 53.21875 48.921875 51.53125 44.890625 
Q 49.859375 40.875 45.40625 35.40625 
Q 44.1875 33.984375 37.640625 27.21875 
Q 31.109375 20.453125 19.1875 8.296875 
z
" id="DejaVuSans-50"/>
      </defs>
      <g transform="translate(246.677373 325.864062)scale(0.1 -0.1)">
       <use xlink:href="#DejaVuSans-50"/>
      </g>
     </g>
    </g>
    <g id="xtick_4">
     <g id="line2d_4">
      <g>
       <use style="stroke:#000000;stroke-width:0.8;" x="303.917621" xlink:href="#m815967be9f" y="311.265625"/>
      </g>
     </g>
     <g id="text_4">
      <!-- 3 -->
      <defs>
       <path d="M 40.578125 39.3125 
Q 47.65625 37.796875 51.625 33 
Q 55.609375 28.21875 55.609375 21.1875 
Q 55.609375 10.40625 48.1875 4.484375 
Q 40.765625 -1.421875 27.09375 -1.421875 
Q 22.515625 -1.421875 17.65625 -0.515625 
Q 12.796875 0.390625 7.625 2.203125 
L 7.625 11.71875 
Q 11.71875 9.328125 16.59375 8.109375 
Q 21.484375 6.890625 26.8125 6.890625 
Q 36.078125 6.890625 40.9375 10.546875 
Q 45.796875 14.203125 45.796875 21.1875 
Q 45.796875 27.640625 41.28125 31.265625 
Q 36.765625 34.90625 28.71875 34.90625 
L 20.21875 34.90625 
L 20.21875 43.015625 
L 29.109375 43.015625 
Q 36.375 43.015625 40.234375 45.921875 
Q 44.09375 48.828125 44.09375 54.296875 
Q 44.09375 59.90625 40.109375 62.90625 
Q 36.140625 65.921875 28.71875 65.921875 
Q 24.65625 65.921875 20.015625 65.03125 
Q 15.375 64.15625 9.8125 62.3125 
L 9.8125 71.09375 
Q 15.4375 72.65625 20.34375 73.4375 
Q 25.25 74.21875 29.59375 74.21875 
Q 40.828125 74.21875 47.359375 69.109375 
Q 53.90625 64.015625 53.90625 55.328125 
Q 53.90625 49.265625 50.4375 45.09375 
Q 46.96875 40.921875 40.578125 39.3125 
z
" id="DejaVuSans-51"/>
      </defs>
      <g transform="translate(300.736371 325.864062)scale(0.1 -0.1)">
       <use xlink:href="#DejaVuSans-51"/>
      </g>
     </g>
    </g>
    <g id="xtick_5">
     <g id="line2d_5">
      <g>
       <use style="stroke:#000000;stroke-width:0.8;" x="357.97662" xlink:href="#m815967be9f" y="311.265625"/>
      </g>
     </g>
     <g id="text_5">
      <!-- 4 -->
      <defs>
       <path d="M 37.796875 64.3125 
L 12.890625 25.390625 
L 37.796875 25.390625 
z
M 35.203125 72.90625 
L 47.609375 72.90625 
L 47.609375 25.390625 
L 58.015625 25.390625 
L 58.015625 17.1875 
L 47.609375 17.1875 
L 47.609375 0 
L 37.796875 0 
L 37.796875 17.1875 
L 4.890625 17.1875 
L 4.890625 26.703125 
z
" id="DejaVuSans-52"/>
      </defs>
      <g transform="translate(354.79537 325.864062)scale(0.1 -0.1)">
       <use xlink:href="#DejaVuSans-52"/>
      </g>
     </g>
    </g>
    <g id="text_6">
     <!-- p value -->
     <defs>
      <path d="M 18.109375 8.203125 
L 18.109375 -20.796875 
L 9.078125 -20.796875 
L 9.078125 54.6875 
L 18.109375 54.6875 
L 18.109375 46.390625 
Q 20.953125 51.265625 25.265625 53.625 
Q 29.59375 56 35.59375 56 
Q 45.5625 56 51.78125 48.09375 
Q 58.015625 40.1875 58.015625 27.296875 
Q 58.015625 14.40625 51.78125 6.484375 
Q 45.5625 -1.421875 35.59375 -1.421875 
Q 29.59375 -1.421875 25.265625 0.953125 
Q 20.953125 3.328125 18.109375 8.203125 
z
M 48.6875 27.296875 
Q 48.6875 37.203125 44.609375 42.84375 
Q 40.53125 48.484375 33.40625 48.484375 
Q 26.265625 48.484375 22.1875 42.84375 
Q 18.109375 37.203125 18.109375 27.296875 
Q 18.109375 17.390625 22.1875 11.75 
Q 26.265625 6.109375 33.40625 6.109375 
Q 40.53125 6.109375 44.609375 11.75 
Q 48.6875 17.390625 48.6875 27.296875 
z
" id="DejaVuSans-112"/>
      <path id="DejaVuSans-32"/>
      <path d="M 2.984375 54.6875 
L 12.5 54.6875 
L 29.59375 8.796875 
L 46.6875 54.6875 
L 56.203125 54.6875 
L 35.6875 0 
L 23.484375 0 
z
" id="DejaVuSans-118"/>
      <path d="M 34.28125 27.484375 
Q 23.390625 27.484375 19.1875 25 
Q 14.984375 22.515625 14.984375 16.5 
Q 14.984375 11.71875 18.140625 8.90625 
Q 21.296875 6.109375 26.703125 6.109375 
Q 34.1875 6.109375 38.703125 11.40625 
Q 43.21875 16.703125 43.21875 25.484375 
L 43.21875 27.484375 
z
M 52.203125 31.203125 
L 52.203125 0 
L 43.21875 0 
L 43.21875 8.296875 
Q 40.140625 3.328125 35.546875 0.953125 
Q 30.953125 -1.421875 24.3125 -1.421875 
Q 15.921875 -1.421875 10.953125 3.296875 
Q 6 8.015625 6 15.921875 
Q 6 25.140625 12.171875 29.828125 
Q 18.359375 34.515625 30.609375 34.515625 
L 43.21875 34.515625 
L 43.21875 35.40625 
Q 43.21875 41.609375 39.140625 45 
Q 35.0625 48.390625 27.6875 48.390625 
Q 23 48.390625 18.546875 47.265625 
Q 14.109375 46.140625 10.015625 43.890625 
L 10.015625 52.203125 
Q 14.9375 54.109375 19.578125 55.046875 
Q 24.21875 56 28.609375 56 
Q 40.484375 56 46.34375 49.84375 
Q 52.203125 43.703125 52.203125 31.203125 
z
" id="DejaVuSans-97"/>
      <path d="M 9.421875 75.984375 
L 18.40625 75.984375 
L 18.40625 0 
L 9.421875 0 
z
" id="DejaVuSans-108"/>
      <path d="M 8.5 21.578125 
L 8.5 54.6875 
L 17.484375 54.6875 
L 17.484375 21.921875 
Q 17.484375 14.15625 20.5 10.265625 
Q 23.53125 6.390625 29.59375 6.390625 
Q 36.859375 6.390625 41.078125 11.03125 
Q 45.3125 15.671875 45.3125 23.6875 
L 45.3125 54.6875 
L 54.296875 54.6875 
L 54.296875 0 
L 45.3125 0 
L 45.3125 8.40625 
Q 42.046875 3.421875 37.71875 1 
Q 33.40625 -1.421875 27.6875 -1.421875 
Q 18.265625 -1.421875 13.375 4.4375 
Q 8.5 10.296875 8.5 21.578125 
z
M 31.109375 56 
z
" id="DejaVuSans-117"/>
      <path d="M 56.203125 29.59375 
L 56.203125 25.203125 
L 14.890625 25.203125 
Q 15.484375 15.921875 20.484375 11.0625 
Q 25.484375 6.203125 34.421875 6.203125 
Q 39.59375 6.203125 44.453125 7.46875 
Q 49.3125 8.734375 54.109375 11.28125 
L 54.109375 2.78125 
Q 49.265625 0.734375 44.1875 -0.34375 
Q 39.109375 -1.421875 33.890625 -1.421875 
Q 20.796875 -1.421875 13.15625 6.1875 
Q 5.515625 13.8125 5.515625 26.8125 
Q 5.515625 40.234375 12.765625 48.109375 
Q 20.015625 56 32.328125 56 
Q 43.359375 56 49.78125 48.890625 
Q 56.203125 41.796875 56.203125 29.59375 
z
M 47.21875 32.234375 
Q 47.125 39.59375 43.09375 43.984375 
Q 39.0625 48.390625 32.421875 48.390625 
Q 24.90625 48.390625 20.390625 44.140625 
Q 15.875 39.890625 15.1875 32.171875 
z
" id="DejaVuSans-101"/>
     </defs>
     <g transform="translate(234.835313 341.061875)scale(0.12 -0.12)">
      <use xlink:href="#DejaVuSans-112"/>
      <use x="63.476562" xlink:href="#DejaVuSans-32"/>
      <use x="95.263672" xlink:href="#DejaVuSans-118"/>
      <use x="154.443359" xlink:href="#DejaVuSans-97"/>
      <use x="215.722656" xlink:href="#DejaVuSans-108"/>
      <use x="243.505859" xlink:href="#DejaVuSans-117"/>
      <use x="306.884766" xlink:href="#DejaVuSans-101"/>
     </g>
    </g>
    <g id="text_7">
     <!-- 1e−12 -->
     <defs>
      <path d="M 10.59375 35.5 
L 73.1875 35.5 
L 73.1875 27.203125 
L 10.59375 27.203125 
z
" id="DejaVuSans-8722"/>
     </defs>
     <g transform="translate(338.520312 338.542187)scale(0.1 -0.1)">
      <use xlink:href="#DejaVuSans-49"/>
      <use x="63.623047" xlink:href="#DejaVuSans-101"/>
      <use x="125.146484" xlink:href="#DejaVuSans-8722"/>
      <use x="208.935547" xlink:href="#DejaVuSans-49"/>
      <use x="272.558594" xlink:href="#DejaVuSans-50"/>
     </g>
    </g>
   </g>
   <g id="matplotlib.axis_2">
    <g id="ytick_1">
     <g id="line2d_6">
      <defs>
       <path d="M 0 0 
L -3.5 0 
" id="m99ee40e2d8" style="stroke:#000000;stroke-width:0.8;"/>
      </defs>
      <g>
       <use style="stroke:#000000;stroke-width:0.8;" x="141.740625" xlink:href="#m99ee40e2d8" y="289.295339"/>
      </g>
     </g>
     <g id="text_8">
      <!--  f__Geodermatophilaceae -->
      <defs>
       <path d="M 37.109375 75.984375 
L 37.109375 68.5 
L 28.515625 68.5 
Q 23.6875 68.5 21.796875 66.546875 
Q 19.921875 64.59375 19.921875 59.515625 
L 19.921875 54.6875 
L 34.71875 54.6875 
L 34.71875 47.703125 
L 19.921875 47.703125 
L 19.921875 0 
L 10.890625 0 
L 10.890625 47.703125 
L 2.296875 47.703125 
L 2.296875 54.6875 
L 10.890625 54.6875 
L 10.890625 58.5 
Q 10.890625 67.625 15.140625 71.796875 
Q 19.390625 75.984375 28.609375 75.984375 
z
" id="DejaVuSans-102"/>
       <path d="M 50.984375 -16.609375 
L 50.984375 -23.578125 
L -0.984375 -23.578125 
L -0.984375 -16.609375 
z
" id="DejaVuSans-95"/>
       <path d="M 59.515625 10.40625 
L 59.515625 29.984375 
L 43.40625 29.984375 
L 43.40625 38.09375 
L 69.28125 38.09375 
L 69.28125 6.78125 
Q 63.578125 2.734375 56.6875 0.65625 
Q 49.8125 -1.421875 42 -1.421875 
Q 24.90625 -1.421875 15.25 8.5625 
Q 5.609375 18.5625 5.609375 36.375 
Q 5.609375 54.25 15.25 64.234375 
Q 24.90625 74.21875 42 74.21875 
Q 49.125 74.21875 55.546875 72.453125 
Q 61.96875 70.703125 67.390625 67.28125 
L 67.390625 56.78125 
Q 61.921875 61.421875 55.765625 63.765625 
Q 49.609375 66.109375 42.828125 66.109375 
Q 29.4375 66.109375 22.71875 58.640625 
Q 16.015625 51.171875 16.015625 36.375 
Q 16.015625 21.625 22.71875 14.15625 
Q 29.4375 6.6875 42.828125 6.6875 
Q 48.046875 6.6875 52.140625 7.59375 
Q 56.25 8.5 59.515625 10.40625 
z
" id="DejaVuSans-71"/>
       <path d="M 30.609375 48.390625 
Q 23.390625 48.390625 19.1875 42.75 
Q 14.984375 37.109375 14.984375 27.296875 
Q 14.984375 17.484375 19.15625 11.84375 
Q 23.34375 6.203125 30.609375 6.203125 
Q 37.796875 6.203125 41.984375 11.859375 
Q 46.1875 17.53125 46.1875 27.296875 
Q 46.1875 37.015625 41.984375 42.703125 
Q 37.796875 48.390625 30.609375 48.390625 
z
M 30.609375 56 
Q 42.328125 56 49.015625 48.375 
Q 55.71875 40.765625 55.71875 27.296875 
Q 55.71875 13.875 49.015625 6.21875 
Q 42.328125 -1.421875 30.609375 -1.421875 
Q 18.84375 -1.421875 12.171875 6.21875 
Q 5.515625 13.875 5.515625 27.296875 
Q 5.515625 40.765625 12.171875 48.375 
Q 18.84375 56 30.609375 56 
z
" id="DejaVuSans-111"/>
       <path d="M 45.40625 46.390625 
L 45.40625 75.984375 
L 54.390625 75.984375 
L 54.390625 0 
L 45.40625 0 
L 45.40625 8.203125 
Q 42.578125 3.328125 38.25 0.953125 
Q 33.9375 -1.421875 27.875 -1.421875 
Q 17.96875 -1.421875 11.734375 6.484375 
Q 5.515625 14.40625 5.515625 27.296875 
Q 5.515625 40.1875 11.734375 48.09375 
Q 17.96875 56 27.875 56 
Q 33.9375 56 38.25 53.625 
Q 42.578125 51.265625 45.40625 46.390625 
z
M 14.796875 27.296875 
Q 14.796875 17.390625 18.875 11.75 
Q 22.953125 6.109375 30.078125 6.109375 
Q 37.203125 6.109375 41.296875 11.75 
Q 45.40625 17.390625 45.40625 27.296875 
Q 45.40625 37.203125 41.296875 42.84375 
Q 37.203125 48.484375 30.078125 48.484375 
Q 22.953125 48.484375 18.875 42.84375 
Q 14.796875 37.203125 14.796875 27.296875 
z
" id="DejaVuSans-100"/>
       <path d="M 41.109375 46.296875 
Q 39.59375 47.171875 37.8125 47.578125 
Q 36.03125 48 33.890625 48 
Q 26.265625 48 22.1875 43.046875 
Q 18.109375 38.09375 18.109375 28.8125 
L 18.109375 0 
L 9.078125 0 
L 9.078125 54.6875 
L 18.109375 54.6875 
L 18.109375 46.1875 
Q 20.953125 51.171875 25.484375 53.578125 
Q 30.03125 56 36.53125 56 
Q 37.453125 56 38.578125 55.875 
Q 39.703125 55.765625 41.0625 55.515625 
z
" id="DejaVuSans-114"/>
       <path d="M 52 44.1875 
Q 55.375 50.25 60.0625 53.125 
Q 64.75 56 71.09375 56 
Q 79.640625 56 84.28125 50.015625 
Q 88.921875 44.046875 88.921875 33.015625 
L 88.921875 0 
L 79.890625 0 
L 79.890625 32.71875 
Q 79.890625 40.578125 77.09375 44.375 
Q 74.3125 48.1875 68.609375 48.1875 
Q 61.625 48.1875 57.5625 43.546875 
Q 53.515625 38.921875 53.515625 30.90625 
L 53.515625 0 
L 44.484375 0 
L 44.484375 32.71875 
Q 44.484375 40.625 41.703125 44.40625 
Q 38.921875 48.1875 33.109375 48.1875 
Q 26.21875 48.1875 22.15625 43.53125 
Q 18.109375 38.875 18.109375 30.90625 
L 18.109375 0 
L 9.078125 0 
L 9.078125 54.6875 
L 18.109375 54.6875 
L 18.109375 46.1875 
Q 21.1875 51.21875 25.484375 53.609375 
Q 29.78125 56 35.6875 56 
Q 41.65625 56 45.828125 52.96875 
Q 50 49.953125 52 44.1875 
z
" id="DejaVuSans-109"/>
       <path d="M 18.3125 70.21875 
L 18.3125 54.6875 
L 36.8125 54.6875 
L 36.8125 47.703125 
L 18.3125 47.703125 
L 18.3125 18.015625 
Q 18.3125 11.328125 20.140625 9.421875 
Q 21.96875 7.515625 27.59375 7.515625 
L 36.8125 7.515625 
L 36.8125 0 
L 27.59375 0 
Q 17.1875 0 13.234375 3.875 
Q 9.28125 7.765625 9.28125 18.015625 
L 9.28125 47.703125 
L 2.6875 47.703125 
L 2.6875 54.6875 
L 9.28125 54.6875 
L 9.28125 70.21875 
z
" id="DejaVuSans-116"/>
       <path d="M 54.890625 33.015625 
L 54.890625 0 
L 45.90625 0 
L 45.90625 32.71875 
Q 45.90625 40.484375 42.875 44.328125 
Q 39.84375 48.1875 33.796875 48.1875 
Q 26.515625 48.1875 22.3125 43.546875 
Q 18.109375 38.921875 18.109375 30.90625 
L 18.109375 0 
L 9.078125 0 
L 9.078125 75.984375 
L 18.109375 75.984375 
L 18.109375 46.1875 
Q 21.34375 51.125 25.703125 53.5625 
Q 30.078125 56 35.796875 56 
Q 45.21875 56 50.046875 50.171875 
Q 54.890625 44.34375 54.890625 33.015625 
z
" id="DejaVuSans-104"/>
       <path d="M 9.421875 54.6875 
L 18.40625 54.6875 
L 18.40625 0 
L 9.421875 0 
z
M 9.421875 75.984375 
L 18.40625 75.984375 
L 18.40625 64.59375 
L 9.421875 64.59375 
z
" id="DejaVuSans-105"/>
       <path d="M 48.78125 52.59375 
L 48.78125 44.1875 
Q 44.96875 46.296875 41.140625 47.34375 
Q 37.3125 48.390625 33.40625 48.390625 
Q 24.65625 48.390625 19.8125 42.84375 
Q 14.984375 37.3125 14.984375 27.296875 
Q 14.984375 17.28125 19.8125 11.734375 
Q 24.65625 6.203125 33.40625 6.203125 
Q 37.3125 6.203125 41.140625 7.25 
Q 44.96875 8.296875 48.78125 10.40625 
L 48.78125 2.09375 
Q 45.015625 0.34375 40.984375 -0.53125 
Q 36.96875 -1.421875 32.421875 -1.421875 
Q 20.0625 -1.421875 12.78125 6.34375 
Q 5.515625 14.109375 5.515625 27.296875 
Q 5.515625 40.671875 12.859375 48.328125 
Q 20.21875 56 33.015625 56 
Q 37.15625 56 41.109375 55.140625 
Q 45.0625 54.296875 48.78125 52.59375 
z
" id="DejaVuSans-99"/>
      </defs>
      <g transform="translate(7.2 293.094558)scale(0.1 -0.1)">
       <use xlink:href="#DejaVuSans-32"/>
       <use x="31.787109" xlink:href="#DejaVuSans-102"/>
       <use x="66.992188" xlink:href="#DejaVuSans-95"/>
       <use x="116.992188" xlink:href="#DejaVuSans-95"/>
       <use x="166.992188" xlink:href="#DejaVuSans-71"/>
       <use x="244.482422" xlink:href="#DejaVuSans-101"/>
       <use x="306.005859" xlink:href="#DejaVuSans-111"/>
       <use x="367.1875" xlink:href="#DejaVuSans-100"/>
       <use x="430.664062" xlink:href="#DejaVuSans-101"/>
       <use x="492.1875" xlink:href="#DejaVuSans-114"/>
       <use x="533.285156" xlink:href="#DejaVuSans-109"/>
       <use x="630.697266" xlink:href="#DejaVuSans-97"/>
       <use x="691.976562" xlink:href="#DejaVuSans-116"/>
       <use x="731.185547" xlink:href="#DejaVuSans-111"/>
       <use x="792.367188" xlink:href="#DejaVuSans-112"/>
       <use x="855.84375" xlink:href="#DejaVuSans-104"/>
       <use x="919.222656" xlink:href="#DejaVuSans-105"/>
       <use x="947.005859" xlink:href="#DejaVuSans-108"/>
       <use x="974.789062" xlink:href="#DejaVuSans-97"/>
       <use x="1036.068359" xlink:href="#DejaVuSans-99"/>
       <use x="1091.048828" xlink:href="#DejaVuSans-101"/>
       <use x="1152.572266" xlink:href="#DejaVuSans-97"/>
       <use x="1213.851562" xlink:href="#DejaVuSans-101"/>
      </g>
     </g>
    </g>
    <g id="ytick_2">
     <g id="line2d_7">
      <g>
       <use style="stroke:#000000;stroke-width:0.8;" x="141.740625" xlink:href="#m99ee40e2d8" y="264.609625"/>
      </g>
     </g>
     <g id="text_9">
      <!--  f__Glycomycetaceae -->
      <defs>
       <path d="M 32.171875 -5.078125 
Q 28.375 -14.84375 24.75 -17.8125 
Q 21.140625 -20.796875 15.09375 -20.796875 
L 7.90625 -20.796875 
L 7.90625 -13.28125 
L 13.1875 -13.28125 
Q 16.890625 -13.28125 18.9375 -11.515625 
Q 21 -9.765625 23.484375 -3.21875 
L 25.09375 0.875 
L 2.984375 54.6875 
L 12.5 54.6875 
L 29.59375 11.921875 
L 46.6875 54.6875 
L 56.203125 54.6875 
z
" id="DejaVuSans-121"/>
      </defs>
      <g transform="translate(28.6875 268.408844)scale(0.1 -0.1)">
       <use xlink:href="#DejaVuSans-32"/>
       <use x="31.787109" xlink:href="#DejaVuSans-102"/>
       <use x="66.992188" xlink:href="#DejaVuSans-95"/>
       <use x="116.992188" xlink:href="#DejaVuSans-95"/>
       <use x="166.992188" xlink:href="#DejaVuSans-71"/>
       <use x="244.482422" xlink:href="#DejaVuSans-108"/>
       <use x="272.265625" xlink:href="#DejaVuSans-121"/>
       <use x="331.445312" xlink:href="#DejaVuSans-99"/>
       <use x="386.425781" xlink:href="#DejaVuSans-111"/>
       <use x="447.607422" xlink:href="#DejaVuSans-109"/>
       <use x="545.019531" xlink:href="#DejaVuSans-121"/>
       <use x="604.199219" xlink:href="#DejaVuSans-99"/>
       <use x="659.179688" xlink:href="#DejaVuSans-101"/>
       <use x="720.703125" xlink:href="#DejaVuSans-116"/>
       <use x="759.912109" xlink:href="#DejaVuSans-97"/>
       <use x="821.191406" xlink:href="#DejaVuSans-99"/>
       <use x="876.171875" xlink:href="#DejaVuSans-101"/>
       <use x="937.695312" xlink:href="#DejaVuSans-97"/>
       <use x="998.974609" xlink:href="#DejaVuSans-101"/>
      </g>
     </g>
    </g>
    <g id="ytick_3">
     <g id="line2d_8">
      <g>
       <use style="stroke:#000000;stroke-width:0.8;" x="141.740625" xlink:href="#m99ee40e2d8" y="239.923911"/>
      </g>
     </g>
     <g id="text_10">
      <!--  f__Microbacteriaceae -->
      <defs>
       <path d="M 9.8125 72.90625 
L 24.515625 72.90625 
L 43.109375 23.296875 
L 61.8125 72.90625 
L 76.515625 72.90625 
L 76.515625 0 
L 66.890625 0 
L 66.890625 64.015625 
L 48.09375 14.015625 
L 38.1875 14.015625 
L 19.390625 64.015625 
L 19.390625 0 
L 9.8125 0 
z
" id="DejaVuSans-77"/>
       <path d="M 48.6875 27.296875 
Q 48.6875 37.203125 44.609375 42.84375 
Q 40.53125 48.484375 33.40625 48.484375 
Q 26.265625 48.484375 22.1875 42.84375 
Q 18.109375 37.203125 18.109375 27.296875 
Q 18.109375 17.390625 22.1875 11.75 
Q 26.265625 6.109375 33.40625 6.109375 
Q 40.53125 6.109375 44.609375 11.75 
Q 48.6875 17.390625 48.6875 27.296875 
z
M 18.109375 46.390625 
Q 20.953125 51.265625 25.265625 53.625 
Q 29.59375 56 35.59375 56 
Q 45.5625 56 51.78125 48.09375 
Q 58.015625 40.1875 58.015625 27.296875 
Q 58.015625 14.40625 51.78125 6.484375 
Q 45.5625 -1.421875 35.59375 -1.421875 
Q 29.59375 -1.421875 25.265625 0.953125 
Q 20.953125 3.328125 18.109375 8.203125 
L 18.109375 0 
L 9.078125 0 
L 9.078125 75.984375 
L 18.109375 75.984375 
z
" id="DejaVuSans-98"/>
      </defs>
      <g transform="translate(25.9125 243.723129)scale(0.1 -0.1)">
       <use xlink:href="#DejaVuSans-32"/>
       <use x="31.787109" xlink:href="#DejaVuSans-102"/>
       <use x="66.992188" xlink:href="#DejaVuSans-95"/>
       <use x="116.992188" xlink:href="#DejaVuSans-95"/>
       <use x="166.992188" xlink:href="#DejaVuSans-77"/>
       <use x="253.271484" xlink:href="#DejaVuSans-105"/>
       <use x="281.054688" xlink:href="#DejaVuSans-99"/>
       <use x="336.035156" xlink:href="#DejaVuSans-114"/>
       <use x="377.117188" xlink:href="#DejaVuSans-111"/>
       <use x="438.298828" xlink:href="#DejaVuSans-98"/>
       <use x="501.775391" xlink:href="#DejaVuSans-97"/>
       <use x="563.054688" xlink:href="#DejaVuSans-99"/>
       <use x="618.035156" xlink:href="#DejaVuSans-116"/>
       <use x="657.244141" xlink:href="#DejaVuSans-101"/>
       <use x="718.767578" xlink:href="#DejaVuSans-114"/>
       <use x="759.880859" xlink:href="#DejaVuSans-105"/>
       <use x="787.664062" xlink:href="#DejaVuSans-97"/>
       <use x="848.943359" xlink:href="#DejaVuSans-99"/>
       <use x="903.923828" xlink:href="#DejaVuSans-101"/>
       <use x="965.447266" xlink:href="#DejaVuSans-97"/>
       <use x="1026.726562" xlink:href="#DejaVuSans-101"/>
      </g>
     </g>
    </g>
    <g id="ytick_4">
     <g id="line2d_9">
      <g>
       <use style="stroke:#000000;stroke-width:0.8;" x="141.740625" xlink:href="#m99ee40e2d8" y="215.238196"/>
      </g>
     </g>
     <g id="text_11">
      <!--  f__Mycobacteriaceae -->
      <g transform="translate(26.879688 219.037415)scale(0.1 -0.1)">
       <use xlink:href="#DejaVuSans-32"/>
       <use x="31.787109" xlink:href="#DejaVuSans-102"/>
       <use x="66.992188" xlink:href="#DejaVuSans-95"/>
       <use x="116.992188" xlink:href="#DejaVuSans-95"/>
       <use x="166.992188" xlink:href="#DejaVuSans-77"/>
       <use x="253.271484" xlink:href="#DejaVuSans-121"/>
       <use x="312.451172" xlink:href="#DejaVuSans-99"/>
       <use x="367.431641" xlink:href="#DejaVuSans-111"/>
       <use x="428.613281" xlink:href="#DejaVuSans-98"/>
       <use x="492.089844" xlink:href="#DejaVuSans-97"/>
       <use x="553.369141" xlink:href="#DejaVuSans-99"/>
       <use x="608.349609" xlink:href="#DejaVuSans-116"/>
       <use x="647.558594" xlink:href="#DejaVuSans-101"/>
       <use x="709.082031" xlink:href="#DejaVuSans-114"/>
       <use x="750.195312" xlink:href="#DejaVuSans-105"/>
       <use x="777.978516" xlink:href="#DejaVuSans-97"/>
       <use x="839.257812" xlink:href="#DejaVuSans-99"/>
       <use x="894.238281" xlink:href="#DejaVuSans-101"/>
       <use x="955.761719" xlink:href="#DejaVuSans-97"/>
       <use x="1017.041016" xlink:href="#DejaVuSans-101"/>
      </g>
     </g>
    </g>
    <g id="ytick_5">
     <g id="line2d_10">
      <g>
       <use style="stroke:#000000;stroke-width:0.8;" x="141.740625" xlink:href="#m99ee40e2d8" y="190.552482"/>
      </g>
     </g>
     <g id="text_12">
      <!--  f__Nocardiaceae -->
      <defs>
       <path d="M 9.8125 72.90625 
L 23.09375 72.90625 
L 55.421875 11.921875 
L 55.421875 72.90625 
L 64.984375 72.90625 
L 64.984375 0 
L 51.703125 0 
L 19.390625 60.984375 
L 19.390625 0 
L 9.8125 0 
z
" id="DejaVuSans-78"/>
      </defs>
      <g transform="translate(49.51875 194.351701)scale(0.1 -0.1)">
       <use xlink:href="#DejaVuSans-32"/>
       <use x="31.787109" xlink:href="#DejaVuSans-102"/>
       <use x="66.992188" xlink:href="#DejaVuSans-95"/>
       <use x="116.992188" xlink:href="#DejaVuSans-95"/>
       <use x="166.992188" xlink:href="#DejaVuSans-78"/>
       <use x="241.796875" xlink:href="#DejaVuSans-111"/>
       <use x="302.978516" xlink:href="#DejaVuSans-99"/>
       <use x="357.958984" xlink:href="#DejaVuSans-97"/>
       <use x="419.238281" xlink:href="#DejaVuSans-114"/>
       <use x="460.335938" xlink:href="#DejaVuSans-100"/>
       <use x="523.8125" xlink:href="#DejaVuSans-105"/>
       <use x="551.595703" xlink:href="#DejaVuSans-97"/>
       <use x="612.875" xlink:href="#DejaVuSans-99"/>
       <use x="667.855469" xlink:href="#DejaVuSans-101"/>
       <use x="729.378906" xlink:href="#DejaVuSans-97"/>
       <use x="790.658203" xlink:href="#DejaVuSans-101"/>
      </g>
     </g>
    </g>
    <g id="ytick_6">
     <g id="line2d_11">
      <g>
       <use style="stroke:#000000;stroke-width:0.8;" x="141.740625" xlink:href="#m99ee40e2d8" y="165.866768"/>
      </g>
     </g>
     <g id="text_13">
      <!--  f__Streptomycetaceae -->
      <defs>
       <path d="M 53.515625 70.515625 
L 53.515625 60.890625 
Q 47.90625 63.578125 42.921875 64.890625 
Q 37.9375 66.21875 33.296875 66.21875 
Q 25.25 66.21875 20.875 63.09375 
Q 16.5 59.96875 16.5 54.203125 
Q 16.5 49.359375 19.40625 46.890625 
Q 22.3125 44.4375 30.421875 42.921875 
L 36.375 41.703125 
Q 47.40625 39.59375 52.65625 34.296875 
Q 57.90625 29 57.90625 20.125 
Q 57.90625 9.515625 50.796875 4.046875 
Q 43.703125 -1.421875 29.984375 -1.421875 
Q 24.8125 -1.421875 18.96875 -0.25 
Q 13.140625 0.921875 6.890625 3.21875 
L 6.890625 13.375 
Q 12.890625 10.015625 18.65625 8.296875 
Q 24.421875 6.59375 29.984375 6.59375 
Q 38.421875 6.59375 43.015625 9.90625 
Q 47.609375 13.234375 47.609375 19.390625 
Q 47.609375 24.75 44.3125 27.78125 
Q 41.015625 30.8125 33.5 32.328125 
L 27.484375 33.5 
Q 16.453125 35.6875 11.515625 40.375 
Q 6.59375 45.0625 6.59375 53.421875 
Q 6.59375 63.09375 13.40625 68.65625 
Q 20.21875 74.21875 32.171875 74.21875 
Q 37.3125 74.21875 42.625 73.28125 
Q 47.953125 72.359375 53.515625 70.515625 
z
" id="DejaVuSans-83"/>
      </defs>
      <g transform="translate(19.832813 169.665987)scale(0.1 -0.1)">
       <use xlink:href="#DejaVuSans-32"/>
       <use x="31.787109" xlink:href="#DejaVuSans-102"/>
       <use x="66.992188" xlink:href="#DejaVuSans-95"/>
       <use x="116.992188" xlink:href="#DejaVuSans-95"/>
       <use x="166.992188" xlink:href="#DejaVuSans-83"/>
       <use x="230.46875" xlink:href="#DejaVuSans-116"/>
       <use x="269.677734" xlink:href="#DejaVuSans-114"/>
       <use x="310.759766" xlink:href="#DejaVuSans-101"/>
       <use x="372.283203" xlink:href="#DejaVuSans-112"/>
       <use x="435.759766" xlink:href="#DejaVuSans-116"/>
       <use x="474.96875" xlink:href="#DejaVuSans-111"/>
       <use x="536.150391" xlink:href="#DejaVuSans-109"/>
       <use x="633.5625" xlink:href="#DejaVuSans-121"/>
       <use x="692.742188" xlink:href="#DejaVuSans-99"/>
       <use x="747.722656" xlink:href="#DejaVuSans-101"/>
       <use x="809.246094" xlink:href="#DejaVuSans-116"/>
       <use x="848.455078" xlink:href="#DejaVuSans-97"/>
       <use x="909.734375" xlink:href="#DejaVuSans-99"/>
       <use x="964.714844" xlink:href="#DejaVuSans-101"/>
       <use x="1026.238281" xlink:href="#DejaVuSans-97"/>
       <use x="1087.517578" xlink:href="#DejaVuSans-101"/>
      </g>
     </g>
    </g>
    <g id="ytick_7">
     <g id="line2d_12">
      <g>
       <use style="stroke:#000000;stroke-width:0.8;" x="141.740625" xlink:href="#m99ee40e2d8" y="141.181054"/>
      </g>
     </g>
     <g id="text_14">
      <!--  f__Cryomorphaceae -->
      <defs>
       <path d="M 64.40625 67.28125 
L 64.40625 56.890625 
Q 59.421875 61.53125 53.78125 63.8125 
Q 48.140625 66.109375 41.796875 66.109375 
Q 29.296875 66.109375 22.65625 58.46875 
Q 16.015625 50.828125 16.015625 36.375 
Q 16.015625 21.96875 22.65625 14.328125 
Q 29.296875 6.6875 41.796875 6.6875 
Q 48.140625 6.6875 53.78125 8.984375 
Q 59.421875 11.28125 64.40625 15.921875 
L 64.40625 5.609375 
Q 59.234375 2.09375 53.4375 0.328125 
Q 47.65625 -1.421875 41.21875 -1.421875 
Q 24.65625 -1.421875 15.125 8.703125 
Q 5.609375 18.84375 5.609375 36.375 
Q 5.609375 53.953125 15.125 64.078125 
Q 24.65625 74.21875 41.21875 74.21875 
Q 47.75 74.21875 53.53125 72.484375 
Q 59.328125 70.75 64.40625 67.28125 
z
" id="DejaVuSans-67"/>
      </defs>
      <g transform="translate(32.19375 144.980272)scale(0.1 -0.1)">
       <use xlink:href="#DejaVuSans-32"/>
       <use x="31.787109" xlink:href="#DejaVuSans-102"/>
       <use x="66.992188" xlink:href="#DejaVuSans-95"/>
       <use x="116.992188" xlink:href="#DejaVuSans-95"/>
       <use x="166.992188" xlink:href="#DejaVuSans-67"/>
       <use x="236.816406" xlink:href="#DejaVuSans-114"/>
       <use x="277.929688" xlink:href="#DejaVuSans-121"/>
       <use x="337.109375" xlink:href="#DejaVuSans-111"/>
       <use x="398.291016" xlink:href="#DejaVuSans-109"/>
       <use x="495.703125" xlink:href="#DejaVuSans-111"/>
       <use x="556.884766" xlink:href="#DejaVuSans-114"/>
       <use x="597.998047" xlink:href="#DejaVuSans-112"/>
       <use x="661.474609" xlink:href="#DejaVuSans-104"/>
       <use x="724.853516" xlink:href="#DejaVuSans-97"/>
       <use x="786.132812" xlink:href="#DejaVuSans-99"/>
       <use x="841.113281" xlink:href="#DejaVuSans-101"/>
       <use x="902.636719" xlink:href="#DejaVuSans-97"/>
       <use x="963.916016" xlink:href="#DejaVuSans-101"/>
      </g>
     </g>
    </g>
    <g id="ytick_8">
     <g id="line2d_13">
      <g>
       <use style="stroke:#000000;stroke-width:0.8;" x="141.740625" xlink:href="#m99ee40e2d8" y="116.495339"/>
      </g>
     </g>
     <g id="text_15">
      <!--  f__Alicyclobacillaceae -->
      <defs>
       <path d="M 34.1875 63.1875 
L 20.796875 26.90625 
L 47.609375 26.90625 
z
M 28.609375 72.90625 
L 39.796875 72.90625 
L 67.578125 0 
L 57.328125 0 
L 50.6875 18.703125 
L 17.828125 18.703125 
L 11.1875 0 
L 0.78125 0 
z
" id="DejaVuSans-65"/>
      </defs>
      <g transform="translate(23.4625 120.294558)scale(0.1 -0.1)">
       <use xlink:href="#DejaVuSans-32"/>
       <use x="31.787109" xlink:href="#DejaVuSans-102"/>
       <use x="66.992188" xlink:href="#DejaVuSans-95"/>
       <use x="116.992188" xlink:href="#DejaVuSans-95"/>
       <use x="166.992188" xlink:href="#DejaVuSans-65"/>
       <use x="235.400391" xlink:href="#DejaVuSans-108"/>
       <use x="263.183594" xlink:href="#DejaVuSans-105"/>
       <use x="290.966797" xlink:href="#DejaVuSans-99"/>
       <use x="345.947266" xlink:href="#DejaVuSans-121"/>
       <use x="405.126953" xlink:href="#DejaVuSans-99"/>
       <use x="460.107422" xlink:href="#DejaVuSans-108"/>
       <use x="487.890625" xlink:href="#DejaVuSans-111"/>
       <use x="549.072266" xlink:href="#DejaVuSans-98"/>
       <use x="612.548828" xlink:href="#DejaVuSans-97"/>
       <use x="673.828125" xlink:href="#DejaVuSans-99"/>
       <use x="728.808594" xlink:href="#DejaVuSans-105"/>
       <use x="756.591797" xlink:href="#DejaVuSans-108"/>
       <use x="784.375" xlink:href="#DejaVuSans-108"/>
       <use x="812.158203" xlink:href="#DejaVuSans-97"/>
       <use x="873.4375" xlink:href="#DejaVuSans-99"/>
       <use x="928.417969" xlink:href="#DejaVuSans-101"/>
       <use x="989.941406" xlink:href="#DejaVuSans-97"/>
       <use x="1051.220703" xlink:href="#DejaVuSans-101"/>
      </g>
     </g>
    </g>
    <g id="ytick_9">
     <g id="line2d_14">
      <g>
       <use style="stroke:#000000;stroke-width:0.8;" x="141.740625" xlink:href="#m99ee40e2d8" y="91.809625"/>
      </g>
     </g>
     <g id="text_16">
      <!--  f__Listeriaceae -->
      <defs>
       <path d="M 9.8125 72.90625 
L 19.671875 72.90625 
L 19.671875 8.296875 
L 55.171875 8.296875 
L 55.171875 0 
L 9.8125 0 
z
" id="DejaVuSans-76"/>
       <path d="M 44.28125 53.078125 
L 44.28125 44.578125 
Q 40.484375 46.53125 36.375 47.5 
Q 32.28125 48.484375 27.875 48.484375 
Q 21.1875 48.484375 17.84375 46.4375 
Q 14.5 44.390625 14.5 40.28125 
Q 14.5 37.15625 16.890625 35.375 
Q 19.28125 33.59375 26.515625 31.984375 
L 29.59375 31.296875 
Q 39.15625 29.25 43.1875 25.515625 
Q 47.21875 21.78125 47.21875 15.09375 
Q 47.21875 7.46875 41.1875 3.015625 
Q 35.15625 -1.421875 24.609375 -1.421875 
Q 20.21875 -1.421875 15.453125 -0.5625 
Q 10.6875 0.296875 5.421875 2 
L 5.421875 11.28125 
Q 10.40625 8.6875 15.234375 7.390625 
Q 20.0625 6.109375 24.8125 6.109375 
Q 31.15625 6.109375 34.5625 8.28125 
Q 37.984375 10.453125 37.984375 14.40625 
Q 37.984375 18.0625 35.515625 20.015625 
Q 33.0625 21.96875 24.703125 23.78125 
L 21.578125 24.515625 
Q 13.234375 26.265625 9.515625 29.90625 
Q 5.8125 33.546875 5.8125 39.890625 
Q 5.8125 47.609375 11.28125 51.796875 
Q 16.75 56 26.8125 56 
Q 31.78125 56 36.171875 55.265625 
Q 40.578125 54.546875 44.28125 53.078125 
z
" id="DejaVuSans-115"/>
      </defs>
      <g transform="translate(57.459375 95.608844)scale(0.1 -0.1)">
       <use xlink:href="#DejaVuSans-32"/>
       <use x="31.787109" xlink:href="#DejaVuSans-102"/>
       <use x="66.992188" xlink:href="#DejaVuSans-95"/>
       <use x="116.992188" xlink:href="#DejaVuSans-95"/>
       <use x="166.992188" xlink:href="#DejaVuSans-76"/>
       <use x="222.705078" xlink:href="#DejaVuSans-105"/>
       <use x="250.488281" xlink:href="#DejaVuSans-115"/>
       <use x="302.587891" xlink:href="#DejaVuSans-116"/>
       <use x="341.796875" xlink:href="#DejaVuSans-101"/>
       <use x="403.320312" xlink:href="#DejaVuSans-114"/>
       <use x="444.433594" xlink:href="#DejaVuSans-105"/>
       <use x="472.216797" xlink:href="#DejaVuSans-97"/>
       <use x="533.496094" xlink:href="#DejaVuSans-99"/>
       <use x="588.476562" xlink:href="#DejaVuSans-101"/>
       <use x="650" xlink:href="#DejaVuSans-97"/>
       <use x="711.279297" xlink:href="#DejaVuSans-101"/>
      </g>
     </g>
    </g>
    <g id="ytick_10">
     <g id="line2d_15">
      <g>
       <use style="stroke:#000000;stroke-width:0.8;" x="141.740625" xlink:href="#m99ee40e2d8" y="67.123911"/>
      </g>
     </g>
     <g id="text_17">
      <!--  f__[Exiguobacteraceae] -->
      <defs>
       <path d="M 8.59375 75.984375 
L 29.296875 75.984375 
L 29.296875 69 
L 17.578125 69 
L 17.578125 -6.203125 
L 29.296875 -6.203125 
L 29.296875 -13.1875 
L 8.59375 -13.1875 
z
" id="DejaVuSans-91"/>
       <path d="M 9.8125 72.90625 
L 55.90625 72.90625 
L 55.90625 64.59375 
L 19.671875 64.59375 
L 19.671875 43.015625 
L 54.390625 43.015625 
L 54.390625 34.71875 
L 19.671875 34.71875 
L 19.671875 8.296875 
L 56.78125 8.296875 
L 56.78125 0 
L 9.8125 0 
z
" id="DejaVuSans-69"/>
       <path d="M 54.890625 54.6875 
L 35.109375 28.078125 
L 55.90625 0 
L 45.3125 0 
L 29.390625 21.484375 
L 13.484375 0 
L 2.875 0 
L 24.125 28.609375 
L 4.6875 54.6875 
L 15.28125 54.6875 
L 29.78125 35.203125 
L 44.28125 54.6875 
z
" id="DejaVuSans-120"/>
       <path d="M 45.40625 27.984375 
Q 45.40625 37.75 41.375 43.109375 
Q 37.359375 48.484375 30.078125 48.484375 
Q 22.859375 48.484375 18.828125 43.109375 
Q 14.796875 37.75 14.796875 27.984375 
Q 14.796875 18.265625 18.828125 12.890625 
Q 22.859375 7.515625 30.078125 7.515625 
Q 37.359375 7.515625 41.375 12.890625 
Q 45.40625 18.265625 45.40625 27.984375 
z
M 54.390625 6.78125 
Q 54.390625 -7.171875 48.1875 -13.984375 
Q 42 -20.796875 29.203125 -20.796875 
Q 24.46875 -20.796875 20.265625 -20.09375 
Q 16.0625 -19.390625 12.109375 -17.921875 
L 12.109375 -9.1875 
Q 16.0625 -11.328125 19.921875 -12.34375 
Q 23.78125 -13.375 27.78125 -13.375 
Q 36.625 -13.375 41.015625 -8.765625 
Q 45.40625 -4.15625 45.40625 5.171875 
L 45.40625 9.625 
Q 42.625 4.78125 38.28125 2.390625 
Q 33.9375 0 27.875 0 
Q 17.828125 0 11.671875 7.65625 
Q 5.515625 15.328125 5.515625 27.984375 
Q 5.515625 40.671875 11.671875 48.328125 
Q 17.828125 56 27.875 56 
Q 33.9375 56 38.28125 53.609375 
Q 42.625 51.21875 45.40625 46.390625 
L 45.40625 54.6875 
L 54.390625 54.6875 
z
" id="DejaVuSans-103"/>
       <path d="M 30.421875 75.984375 
L 30.421875 -13.1875 
L 9.71875 -13.1875 
L 9.71875 -6.203125 
L 21.390625 -6.203125 
L 21.390625 69 
L 9.71875 69 
L 9.71875 75.984375 
z
" id="DejaVuSans-93"/>
      </defs>
      <g transform="translate(14.198438 70.923129)scale(0.1 -0.1)">
       <use xlink:href="#DejaVuSans-32"/>
       <use x="31.787109" xlink:href="#DejaVuSans-102"/>
       <use x="66.992188" xlink:href="#DejaVuSans-95"/>
       <use x="116.992188" xlink:href="#DejaVuSans-95"/>
       <use x="166.992188" xlink:href="#DejaVuSans-91"/>
       <use x="206.005859" xlink:href="#DejaVuSans-69"/>
       <use x="269.189453" xlink:href="#DejaVuSans-120"/>
       <use x="328.369141" xlink:href="#DejaVuSans-105"/>
       <use x="356.152344" xlink:href="#DejaVuSans-103"/>
       <use x="419.628906" xlink:href="#DejaVuSans-117"/>
       <use x="483.007812" xlink:href="#DejaVuSans-111"/>
       <use x="544.189453" xlink:href="#DejaVuSans-98"/>
       <use x="607.666016" xlink:href="#DejaVuSans-97"/>
       <use x="668.945312" xlink:href="#DejaVuSans-99"/>
       <use x="723.925781" xlink:href="#DejaVuSans-116"/>
       <use x="763.134766" xlink:href="#DejaVuSans-101"/>
       <use x="824.658203" xlink:href="#DejaVuSans-114"/>
       <use x="865.771484" xlink:href="#DejaVuSans-97"/>
       <use x="927.050781" xlink:href="#DejaVuSans-99"/>
       <use x="982.03125" xlink:href="#DejaVuSans-101"/>
       <use x="1043.554688" xlink:href="#DejaVuSans-97"/>
       <use x="1104.833984" xlink:href="#DejaVuSans-101"/>
       <use x="1166.357422" xlink:href="#DejaVuSans-93"/>
      </g>
     </g>
    </g>
   </g>
   <g id="patch_13">
    <path d="M 141.740625 311.265625 
L 141.740625 45.153625 
" style="fill:none;stroke:#000000;stroke-linecap:square;stroke-linejoin:miter;stroke-width:0.8;"/>
   </g>
   <g id="patch_14">
    <path d="M 372.140625 311.265625 
L 372.140625 45.153625 
" style="fill:none;stroke:#000000;stroke-linecap:square;stroke-linejoin:miter;stroke-width:0.8;"/>
   </g>
   <g id="patch_15">
    <path d="M 141.740625 311.265625 
L 372.140625 311.265625 
" style="fill:none;stroke:#000000;stroke-linecap:square;stroke-linejoin:miter;stroke-width:0.8;"/>
   </g>
   <g id="patch_16">
    <path d="M 141.740625 45.153625 
L 372.140625 45.153625 
" style="fill:none;stroke:#000000;stroke-linecap:square;stroke-linejoin:miter;stroke-width:0.8;"/>
   </g>
   <g id="text_18">
    <!-- Two-way ANOVA - significant bacteria -->
    <defs>
     <path d="M -0.296875 72.90625 
L 61.375 72.90625 
L 61.375 64.59375 
L 35.5 64.59375 
L 35.5 0 
L 25.59375 0 
L 25.59375 64.59375 
L -0.296875 64.59375 
z
" id="DejaVuSans-84"/>
     <path d="M 4.203125 54.6875 
L 13.1875 54.6875 
L 24.421875 12.015625 
L 35.59375 54.6875 
L 46.1875 54.6875 
L 57.421875 12.015625 
L 68.609375 54.6875 
L 77.59375 54.6875 
L 63.28125 0 
L 52.6875 0 
L 40.921875 44.828125 
L 29.109375 0 
L 18.5 0 
z
" id="DejaVuSans-119"/>
     <path d="M 4.890625 31.390625 
L 31.203125 31.390625 
L 31.203125 23.390625 
L 4.890625 23.390625 
z
" id="DejaVuSans-45"/>
     <path d="M 39.40625 66.21875 
Q 28.65625 66.21875 22.328125 58.203125 
Q 16.015625 50.203125 16.015625 36.375 
Q 16.015625 22.609375 22.328125 14.59375 
Q 28.65625 6.59375 39.40625 6.59375 
Q 50.140625 6.59375 56.421875 14.59375 
Q 62.703125 22.609375 62.703125 36.375 
Q 62.703125 50.203125 56.421875 58.203125 
Q 50.140625 66.21875 39.40625 66.21875 
z
M 39.40625 74.21875 
Q 54.734375 74.21875 63.90625 63.9375 
Q 73.09375 53.65625 73.09375 36.375 
Q 73.09375 19.140625 63.90625 8.859375 
Q 54.734375 -1.421875 39.40625 -1.421875 
Q 24.03125 -1.421875 14.8125 8.828125 
Q 5.609375 19.09375 5.609375 36.375 
Q 5.609375 53.65625 14.8125 63.9375 
Q 24.03125 74.21875 39.40625 74.21875 
z
" id="DejaVuSans-79"/>
     <path d="M 28.609375 0 
L 0.78125 72.90625 
L 11.078125 72.90625 
L 34.1875 11.53125 
L 57.328125 72.90625 
L 67.578125 72.90625 
L 39.796875 0 
z
" id="DejaVuSans-86"/>
     <path d="M 54.890625 33.015625 
L 54.890625 0 
L 45.90625 0 
L 45.90625 32.71875 
Q 45.90625 40.484375 42.875 44.328125 
Q 39.84375 48.1875 33.796875 48.1875 
Q 26.515625 48.1875 22.3125 43.546875 
Q 18.109375 38.921875 18.109375 30.90625 
L 18.109375 0 
L 9.078125 0 
L 9.078125 54.6875 
L 18.109375 54.6875 
L 18.109375 46.1875 
Q 21.34375 51.125 25.703125 53.5625 
Q 30.078125 56 35.796875 56 
Q 45.21875 56 50.046875 50.171875 
Q 54.890625 44.34375 54.890625 33.015625 
z
" id="DejaVuSans-110"/>
    </defs>
    <g transform="translate(96.206953 20.117344)scale(0.17 -0.17)">
     <use xlink:href="#DejaVuSans-84"/>
     <use x="60.833984" xlink:href="#DejaVuSans-119"/>
     <use x="142.621094" xlink:href="#DejaVuSans-111"/>
     <use x="203.818359" xlink:href="#DejaVuSans-45"/>
     <use x="239.902344" xlink:href="#DejaVuSans-119"/>
     <use x="321.689453" xlink:href="#DejaVuSans-97"/>
     <use x="382.96875" xlink:href="#DejaVuSans-121"/>
     <use x="442.148438" xlink:href="#DejaVuSans-32"/>
     <use x="473.935547" xlink:href="#DejaVuSans-65"/>
     <use x="542.34375" xlink:href="#DejaVuSans-78"/>
     <use x="617.148438" xlink:href="#DejaVuSans-79"/>
     <use x="695.84375" xlink:href="#DejaVuSans-86"/>
     <use x="764.158203" xlink:href="#DejaVuSans-65"/>
     <use x="832.566406" xlink:href="#DejaVuSans-32"/>
     <use x="864.353516" xlink:href="#DejaVuSans-45"/>
     <use x="900.4375" xlink:href="#DejaVuSans-32"/>
     <use x="932.224609" xlink:href="#DejaVuSans-115"/>
     <use x="984.324219" xlink:href="#DejaVuSans-105"/>
     <use x="1012.107422" xlink:href="#DejaVuSans-103"/>
     <use x="1075.583984" xlink:href="#DejaVuSans-110"/>
     <use x="1138.962891" xlink:href="#DejaVuSans-105"/>
     <use x="1166.746094" xlink:href="#DejaVuSans-102"/>
     <use x="1201.951172" xlink:href="#DejaVuSans-105"/>
     <use x="1229.734375" xlink:href="#DejaVuSans-99"/>
     <use x="1284.714844" xlink:href="#DejaVuSans-97"/>
     <use x="1345.994141" xlink:href="#DejaVuSans-110"/>
     <use x="1409.373047" xlink:href="#DejaVuSans-116"/>
     <use x="1448.582031" xlink:href="#DejaVuSans-32"/>
     <use x="1480.369141" xlink:href="#DejaVuSans-98"/>
     <use x="1543.845703" xlink:href="#DejaVuSans-97"/>
     <use x="1605.125" xlink:href="#DejaVuSans-99"/>
     <use x="1660.105469" xlink:href="#DejaVuSans-116"/>
     <use x="1699.314453" xlink:href="#DejaVuSans-101"/>
     <use x="1760.837891" xlink:href="#DejaVuSans-114"/>
     <use x="1801.951172" xlink:href="#DejaVuSans-105"/>
     <use x="1829.734375" xlink:href="#DejaVuSans-97"/>
    </g>
    <!-- Taxnomy level 5 (p=0.001) -->
    <defs>
     <path d="M 10.796875 72.90625 
L 49.515625 72.90625 
L 49.515625 64.59375 
L 19.828125 64.59375 
L 19.828125 46.734375 
Q 21.96875 47.46875 24.109375 47.828125 
Q 26.265625 48.1875 28.421875 48.1875 
Q 40.625 48.1875 47.75 41.5 
Q 54.890625 34.8125 54.890625 23.390625 
Q 54.890625 11.625 47.5625 5.09375 
Q 40.234375 -1.421875 26.90625 -1.421875 
Q 22.3125 -1.421875 17.546875 -0.640625 
Q 12.796875 0.140625 7.71875 1.703125 
L 7.71875 11.625 
Q 12.109375 9.234375 16.796875 8.0625 
Q 21.484375 6.890625 26.703125 6.890625 
Q 35.15625 6.890625 40.078125 11.328125 
Q 45.015625 15.765625 45.015625 23.390625 
Q 45.015625 31 40.078125 35.4375 
Q 35.15625 39.890625 26.703125 39.890625 
Q 22.75 39.890625 18.8125 39.015625 
Q 14.890625 38.140625 10.796875 36.28125 
z
" id="DejaVuSans-53"/>
     <path d="M 31 75.875 
Q 24.46875 64.65625 21.28125 53.65625 
Q 18.109375 42.671875 18.109375 31.390625 
Q 18.109375 20.125 21.3125 9.0625 
Q 24.515625 -2 31 -13.1875 
L 23.1875 -13.1875 
Q 15.875 -1.703125 12.234375 9.375 
Q 8.59375 20.453125 8.59375 31.390625 
Q 8.59375 42.28125 12.203125 53.3125 
Q 15.828125 64.359375 23.1875 75.875 
z
" id="DejaVuSans-40"/>
     <path d="M 10.59375 45.40625 
L 73.1875 45.40625 
L 73.1875 37.203125 
L 10.59375 37.203125 
z
M 10.59375 25.484375 
L 73.1875 25.484375 
L 73.1875 17.1875 
L 10.59375 17.1875 
z
" id="DejaVuSans-61"/>
     <path d="M 10.6875 12.40625 
L 21 12.40625 
L 21 0 
L 10.6875 0 
z
" id="DejaVuSans-46"/>
     <path d="M 8.015625 75.875 
L 15.828125 75.875 
Q 23.140625 64.359375 26.78125 53.3125 
Q 30.421875 42.28125 30.421875 31.390625 
Q 30.421875 20.453125 26.78125 9.375 
Q 23.140625 -1.703125 15.828125 -13.1875 
L 8.015625 -13.1875 
Q 14.5 -2 17.703125 9.0625 
Q 20.90625 20.125 20.90625 31.390625 
Q 20.90625 42.671875 17.703125 53.65625 
Q 14.5 64.65625 8.015625 75.875 
z
" id="DejaVuSans-41"/>
    </defs>
    <g transform="translate(140.420234 39.153625)scale(0.17 -0.17)">
     <use xlink:href="#DejaVuSans-84"/>
     <use x="60.833984" xlink:href="#DejaVuSans-97"/>
     <use x="122.113281" xlink:href="#DejaVuSans-120"/>
     <use x="181.292969" xlink:href="#DejaVuSans-110"/>
     <use x="244.671875" xlink:href="#DejaVuSans-111"/>
     <use x="305.853516" xlink:href="#DejaVuSans-109"/>
     <use x="403.265625" xlink:href="#DejaVuSans-121"/>
     <use x="462.445312" xlink:href="#DejaVuSans-32"/>
     <use x="494.232422" xlink:href="#DejaVuSans-108"/>
     <use x="522.015625" xlink:href="#DejaVuSans-101"/>
     <use x="583.539062" xlink:href="#DejaVuSans-118"/>
     <use x="642.71875" xlink:href="#DejaVuSans-101"/>
     <use x="704.242188" xlink:href="#DejaVuSans-108"/>
     <use x="732.025391" xlink:href="#DejaVuSans-32"/>
     <use x="763.8125" xlink:href="#DejaVuSans-53"/>
     <use x="827.435547" xlink:href="#DejaVuSans-32"/>
     <use x="859.222656" xlink:href="#DejaVuSans-40"/>
     <use x="898.236328" xlink:href="#DejaVuSans-112"/>
     <use x="961.712891" xlink:href="#DejaVuSans-61"/>
     <use x="1045.501953" xlink:href="#DejaVuSans-48"/>
     <use x="1109.125" xlink:href="#DejaVuSans-46"/>
     <use x="1140.912109" xlink:href="#DejaVuSans-48"/>
     <use x="1204.535156" xlink:href="#DejaVuSans-48"/>
     <use x="1268.158203" xlink:href="#DejaVuSans-49"/>
     <use x="1331.78125" xlink:href="#DejaVuSans-41"/>
    </g>
   </g>
   <g id="legend_1">
    <g id="patch_17">
     <path d="M 261.8325 305.265625 
L 363.740625 305.265625 
Q 366.140625 305.265625 366.140625 302.865625 
L 366.140625 251.224375 
Q 366.140625 248.824375 363.740625 248.824375 
L 261.8325 248.824375 
Q 259.4325 248.824375 259.4325 251.224375 
L 259.4325 302.865625 
Q 259.4325 305.265625 261.8325 305.265625 
z
" style="fill:#ffffff;opacity:0.8;stroke:#cccccc;stroke-linejoin:miter;"/>
    </g>
    <g id="patch_18">
     <path d="M 264.2325 262.7425 
L 288.2325 262.7425 
L 288.2325 254.3425 
L 264.2325 254.3425 
z
" style="fill:#0000ff;stroke:#0000ff;stroke-linejoin:miter;"/>
    </g>
    <g id="text_19">
     <!-- time -->
     <g transform="translate(297.8325 262.7425)scale(0.12 -0.12)">
      <use xlink:href="#DejaVuSans-116"/>
      <use x="39.208984" xlink:href="#DejaVuSans-105"/>
      <use x="66.992188" xlink:href="#DejaVuSans-109"/>
      <use x="164.404297" xlink:href="#DejaVuSans-101"/>
     </g>
    </g>
    <g id="patch_19">
     <path d="M 264.2325 280.35625 
L 288.2325 280.35625 
L 288.2325 271.95625 
L 264.2325 271.95625 
z
" style="fill:#008000;stroke:#008000;stroke-linejoin:miter;"/>
    </g>
    <g id="text_20">
     <!-- state -->
     <g transform="translate(297.8325 280.35625)scale(0.12 -0.12)">
      <use xlink:href="#DejaVuSans-115"/>
      <use x="52.099609" xlink:href="#DejaVuSans-116"/>
      <use x="91.308594" xlink:href="#DejaVuSans-97"/>
      <use x="152.587891" xlink:href="#DejaVuSans-116"/>
      <use x="191.796875" xlink:href="#DejaVuSans-101"/>
     </g>
    </g>
    <g id="patch_20">
     <path d="M 264.2325 297.97 
L 288.2325 297.97 
L 288.2325 289.57 
L 264.2325 289.57 
z
" style="fill:#ff0000;stroke:#ff0000;stroke-linejoin:miter;"/>
    </g>
    <g id="text_21">
     <!-- time*state -->
     <defs>
      <path d="M 47.015625 60.890625 
L 29.5 51.421875 
L 47.015625 41.890625 
L 44.1875 37.109375 
L 27.78125 47.015625 
L 27.78125 28.609375 
L 22.21875 28.609375 
L 22.21875 47.015625 
L 5.8125 37.109375 
L 2.984375 41.890625 
L 20.515625 51.421875 
L 2.984375 60.890625 
L 5.8125 65.71875 
L 22.21875 55.8125 
L 22.21875 74.21875 
L 27.78125 74.21875 
L 27.78125 55.8125 
L 44.1875 65.71875 
z
" id="DejaVuSans-42"/>
     </defs>
     <g transform="translate(297.8325 297.97)scale(0.12 -0.12)">
      <use xlink:href="#DejaVuSans-116"/>
      <use x="39.208984" xlink:href="#DejaVuSans-105"/>
      <use x="66.992188" xlink:href="#DejaVuSans-109"/>
      <use x="164.404297" xlink:href="#DejaVuSans-101"/>
      <use x="225.927734" xlink:href="#DejaVuSans-42"/>
      <use x="275.927734" xlink:href="#DejaVuSans-115"/>
      <use x="328.027344" xlink:href="#DejaVuSans-116"/>
      <use x="367.236328" xlink:href="#DejaVuSans-97"/>
      <use x="428.515625" xlink:href="#DejaVuSans-116"/>
      <use x="467.724609" xlink:href="#DejaVuSans-101"/>
     </g>
    </g>
   </g>
  </g>
 </g>
 <defs>
  <clipPath id="p17fe622e08">
   <rect height="266.112" width="230.4" x="141.740625" y="45.153625"/>
  </clipPath>
 </defs>
</svg>
