<?xml version="1.0" encoding="utf-8" standalone="no"?>
<!DOCTYPE svg PUBLIC "-//W3C//DTD SVG 1.1//EN"
  "http://www.w3.org/Graphics/SVG/1.1/DTD/svg11.dtd">
<!-- Created with matplotlib (https://matplotlib.org/) -->
<svg height="336.634375pt" version="1.1" viewBox="0 0 453.416875 336.634375" width="453.416875pt" xmlns="http://www.w3.org/2000/svg" xmlns:xlink="http://www.w3.org/1999/xlink">
 <metadata>
  <rdf:RDF xmlns:cc="http://creativecommons.org/ns#" xmlns:dc="http://purl.org/dc/elements/1.1/" xmlns:rdf="http://www.w3.org/1999/02/22-rdf-syntax-ns#">
   <cc:Work>
    <dc:type rdf:resource="http://purl.org/dc/dcmitype/StillImage"/>
    <dc:date>2021-01-16T12:35:43.808701</dc:date>
    <dc:format>image/svg+xml</dc:format>
    <dc:creator>
     <cc:Agent>
      <dc:title>Matplotlib v3.3.2, https://matplotlib.org/</dc:title>
     </cc:Agent>
    </dc:creator>
   </cc:Work>
  </rdf:RDF>
 </metadata>
 <defs>
  <style type="text/css">*{stroke-linecap:butt;stroke-linejoin:round;}</style>
 </defs>
 <g id="figure_1">
  <g id="patch_1">
   <path d="M 0 336.634375 
L 453.416875 336.634375 
L 453.416875 0 
L 0 0 
z
" style="fill:#ffffff;"/>
  </g>
  <g id="axes_1">
   <g id="patch_2">
    <path d="M 132.096875 131.678125 
L 446.216875 131.678125 
L 446.216875 22.318125 
L 132.096875 22.318125 
z
" style="fill:#ffffff;"/>
   </g>
   <g id="patch_3">
    <path clip-path="url(#p4d870e32a1)" d="M 298.363628 126.707216 
L 146.375057 126.707216 
L 146.375057 117.669199 
L 298.363628 117.669199 
z
" style="fill:#ff0000;"/>
   </g>
   <g id="patch_4">
    <path clip-path="url(#p4d870e32a1)" d="M 298.363628 115.409695 
L 146.375057 115.409695 
L 146.375057 106.371679 
L 298.363628 106.371679 
z
" style="fill:#ff0000;"/>
   </g>
   <g id="patch_5">
    <path clip-path="url(#p4d870e32a1)" d="M 298.363628 104.112175 
L 148.17526 104.112175 
L 148.17526 95.074158 
L 298.363628 95.074158 
z
" style="fill:#ff0000;"/>
   </g>
   <g id="patch_6">
    <path clip-path="url(#p4d870e32a1)" d="M 298.363628 92.814654 
L 152.238575 92.814654 
L 152.238575 83.776637 
L 298.363628 83.776637 
z
" style="fill:#ff0000;"/>
   </g>
   <g id="patch_7">
    <path clip-path="url(#p4d870e32a1)" d="M 298.363628 81.517133 
L 156.147588 81.517133 
L 156.147588 72.479117 
L 298.363628 72.479117 
z
" style="fill:#ff0000;"/>
   </g>
   <g id="patch_8">
    <path clip-path="url(#p4d870e32a1)" d="M 298.363628 70.219613 
L 156.147588 70.219613 
L 156.147588 61.181596 
L 298.363628 61.181596 
z
" style="fill:#ff0000;"/>
   </g>
   <g id="patch_9">
    <path clip-path="url(#p4d870e32a1)" d="M 298.363628 58.922092 
L 161.856803 58.922092 
L 161.856803 49.884075 
L 298.363628 49.884075 
z
" style="fill:#ff0000;"/>
   </g>
   <g id="patch_10">
    <path clip-path="url(#p4d870e32a1)" d="M 298.363628 47.624571 
L 164.325653 47.624571 
L 164.325653 38.586555 
L 298.363628 38.586555 
z
" style="fill:#ff0000;"/>
   </g>
   <g id="patch_11">
    <path clip-path="url(#p4d870e32a1)" d="M 298.363628 36.327051 
L 431.938693 36.327051 
L 431.938693 27.289034 
L 298.363628 27.289034 
z
" style="fill:#008000;"/>
   </g>
   <g id="matplotlib.axis_1">
    <g id="xtick_1">
     <g id="line2d_1">
      <defs>
       <path d="M 0 0 
L 0 3.5 
" id="m4ece64e7c3" style="stroke:#000000;stroke-width:0.8;"/>
      </defs>
      <g>
       <use style="stroke:#000000;stroke-width:0.8;" x="170.752107" xlink:href="#m4ece64e7c3" y="131.678125"/>
      </g>
     </g>
     <g id="text_1">
      <!-- −0.4 -->
      <g transform="translate(158.610701 146.276562)scale(0.1 -0.1)">
       <defs>
        <path d="M 10.59375 35.5 
L 73.1875 35.5 
L 73.1875 27.203125 
L 10.59375 27.203125 
z
" id="DejaVuSans-8722"/>
        <path d="M 31.78125 66.40625 
Q 24.171875 66.40625 20.328125 58.90625 
Q 16.5 51.421875 16.5 36.375 
Q 16.5 21.390625 20.328125 13.890625 
Q 24.171875 6.390625 31.78125 6.390625 
Q 39.453125 6.390625 43.28125 13.890625 
Q 47.125 21.390625 47.125 36.375 
Q 47.125 51.421875 43.28125 58.90625 
Q 39.453125 66.40625 31.78125 66.40625 
z
M 31.78125 74.21875 
Q 44.046875 74.21875 50.515625 64.515625 
Q 56.984375 54.828125 56.984375 36.375 
Q 56.984375 17.96875 50.515625 8.265625 
Q 44.046875 -1.421875 31.78125 -1.421875 
Q 19.53125 -1.421875 13.0625 8.265625 
Q 6.59375 17.96875 6.59375 36.375 
Q 6.59375 54.828125 13.0625 64.515625 
Q 19.53125 74.21875 31.78125 74.21875 
z
" id="DejaVuSans-48"/>
        <path d="M 10.6875 12.40625 
L 21 12.40625 
L 21 0 
L 10.6875 0 
z
" id="DejaVuSans-46"/>
        <path d="M 37.796875 64.3125 
L 12.890625 25.390625 
L 37.796875 25.390625 
z
M 35.203125 72.90625 
L 47.609375 72.90625 
L 47.609375 25.390625 
L 58.015625 25.390625 
L 58.015625 17.1875 
L 47.609375 17.1875 
L 47.609375 0 
L 37.796875 0 
L 37.796875 17.1875 
L 4.890625 17.1875 
L 4.890625 26.703125 
z
" id="DejaVuSans-52"/>
       </defs>
       <use xlink:href="#DejaVuSans-8722"/>
       <use x="83.789062" xlink:href="#DejaVuSans-48"/>
       <use x="147.412109" xlink:href="#DejaVuSans-46"/>
       <use x="179.199219" xlink:href="#DejaVuSans-52"/>
      </g>
     </g>
    </g>
    <g id="xtick_2">
     <g id="line2d_2">
      <g>
       <use style="stroke:#000000;stroke-width:0.8;" x="234.557867" xlink:href="#m4ece64e7c3" y="131.678125"/>
      </g>
     </g>
     <g id="text_2">
      <!-- −0.2 -->
      <g transform="translate(222.416461 146.276562)scale(0.1 -0.1)">
       <defs>
        <path d="M 19.1875 8.296875 
L 53.609375 8.296875 
L 53.609375 0 
L 7.328125 0 
L 7.328125 8.296875 
Q 12.9375 14.109375 22.625 23.890625 
Q 32.328125 33.6875 34.8125 36.53125 
Q 39.546875 41.84375 41.421875 45.53125 
Q 43.3125 49.21875 43.3125 52.78125 
Q 43.3125 58.59375 39.234375 62.25 
Q 35.15625 65.921875 28.609375 65.921875 
Q 23.96875 65.921875 18.8125 64.3125 
Q 13.671875 62.703125 7.8125 59.421875 
L 7.8125 69.390625 
Q 13.765625 71.78125 18.9375 73 
Q 24.125 74.21875 28.421875 74.21875 
Q 39.75 74.21875 46.484375 68.546875 
Q 53.21875 62.890625 53.21875 53.421875 
Q 53.21875 48.921875 51.53125 44.890625 
Q 49.859375 40.875 45.40625 35.40625 
Q 44.1875 33.984375 37.640625 27.21875 
Q 31.109375 20.453125 19.1875 8.296875 
z
" id="DejaVuSans-50"/>
       </defs>
       <use xlink:href="#DejaVuSans-8722"/>
       <use x="83.789062" xlink:href="#DejaVuSans-48"/>
       <use x="147.412109" xlink:href="#DejaVuSans-46"/>
       <use x="179.199219" xlink:href="#DejaVuSans-50"/>
      </g>
     </g>
    </g>
    <g id="xtick_3">
     <g id="line2d_3">
      <g>
       <use style="stroke:#000000;stroke-width:0.8;" x="298.363628" xlink:href="#m4ece64e7c3" y="131.678125"/>
      </g>
     </g>
     <g id="text_3">
      <!-- 0.0 -->
      <g transform="translate(290.412065 146.276562)scale(0.1 -0.1)">
       <use xlink:href="#DejaVuSans-48"/>
       <use x="63.623047" xlink:href="#DejaVuSans-46"/>
       <use x="95.410156" xlink:href="#DejaVuSans-48"/>
      </g>
     </g>
    </g>
    <g id="xtick_4">
     <g id="line2d_4">
      <g>
       <use style="stroke:#000000;stroke-width:0.8;" x="362.169388" xlink:href="#m4ece64e7c3" y="131.678125"/>
      </g>
     </g>
     <g id="text_4">
      <!-- 0.2 -->
      <g transform="translate(354.217825 146.276562)scale(0.1 -0.1)">
       <use xlink:href="#DejaVuSans-48"/>
       <use x="63.623047" xlink:href="#DejaVuSans-46"/>
       <use x="95.410156" xlink:href="#DejaVuSans-50"/>
      </g>
     </g>
    </g>
    <g id="xtick_5">
     <g id="line2d_5">
      <g>
       <use style="stroke:#000000;stroke-width:0.8;" x="425.975148" xlink:href="#m4ece64e7c3" y="131.678125"/>
      </g>
     </g>
     <g id="text_5">
      <!-- 0.4 -->
      <g transform="translate(418.023586 146.276562)scale(0.1 -0.1)">
       <use xlink:href="#DejaVuSans-48"/>
       <use x="63.623047" xlink:href="#DejaVuSans-46"/>
       <use x="95.410156" xlink:href="#DejaVuSans-52"/>
      </g>
     </g>
    </g>
    <g id="text_6">
     <!-- Coeff value -->
     <g transform="translate(260.762344 159.954687)scale(0.1 -0.1)">
      <defs>
       <path d="M 64.40625 67.28125 
L 64.40625 56.890625 
Q 59.421875 61.53125 53.78125 63.8125 
Q 48.140625 66.109375 41.796875 66.109375 
Q 29.296875 66.109375 22.65625 58.46875 
Q 16.015625 50.828125 16.015625 36.375 
Q 16.015625 21.96875 22.65625 14.328125 
Q 29.296875 6.6875 41.796875 6.6875 
Q 48.140625 6.6875 53.78125 8.984375 
Q 59.421875 11.28125 64.40625 15.921875 
L 64.40625 5.609375 
Q 59.234375 2.09375 53.4375 0.328125 
Q 47.65625 -1.421875 41.21875 -1.421875 
Q 24.65625 -1.421875 15.125 8.703125 
Q 5.609375 18.84375 5.609375 36.375 
Q 5.609375 53.953125 15.125 64.078125 
Q 24.65625 74.21875 41.21875 74.21875 
Q 47.75 74.21875 53.53125 72.484375 
Q 59.328125 70.75 64.40625 67.28125 
z
" id="DejaVuSans-67"/>
       <path d="M 30.609375 48.390625 
Q 23.390625 48.390625 19.1875 42.75 
Q 14.984375 37.109375 14.984375 27.296875 
Q 14.984375 17.484375 19.15625 11.84375 
Q 23.34375 6.203125 30.609375 6.203125 
Q 37.796875 6.203125 41.984375 11.859375 
Q 46.1875 17.53125 46.1875 27.296875 
Q 46.1875 37.015625 41.984375 42.703125 
Q 37.796875 48.390625 30.609375 48.390625 
z
M 30.609375 56 
Q 42.328125 56 49.015625 48.375 
Q 55.71875 40.765625 55.71875 27.296875 
Q 55.71875 13.875 49.015625 6.21875 
Q 42.328125 -1.421875 30.609375 -1.421875 
Q 18.84375 -1.421875 12.171875 6.21875 
Q 5.515625 13.875 5.515625 27.296875 
Q 5.515625 40.765625 12.171875 48.375 
Q 18.84375 56 30.609375 56 
z
" id="DejaVuSans-111"/>
       <path d="M 56.203125 29.59375 
L 56.203125 25.203125 
L 14.890625 25.203125 
Q 15.484375 15.921875 20.484375 11.0625 
Q 25.484375 6.203125 34.421875 6.203125 
Q 39.59375 6.203125 44.453125 7.46875 
Q 49.3125 8.734375 54.109375 11.28125 
L 54.109375 2.78125 
Q 49.265625 0.734375 44.1875 -0.34375 
Q 39.109375 -1.421875 33.890625 -1.421875 
Q 20.796875 -1.421875 13.15625 6.1875 
Q 5.515625 13.8125 5.515625 26.8125 
Q 5.515625 40.234375 12.765625 48.109375 
Q 20.015625 56 32.328125 56 
Q 43.359375 56 49.78125 48.890625 
Q 56.203125 41.796875 56.203125 29.59375 
z
M 47.21875 32.234375 
Q 47.125 39.59375 43.09375 43.984375 
Q 39.0625 48.390625 32.421875 48.390625 
Q 24.90625 48.390625 20.390625 44.140625 
Q 15.875 39.890625 15.1875 32.171875 
z
" id="DejaVuSans-101"/>
       <path d="M 37.109375 75.984375 
L 37.109375 68.5 
L 28.515625 68.5 
Q 23.6875 68.5 21.796875 66.546875 
Q 19.921875 64.59375 19.921875 59.515625 
L 19.921875 54.6875 
L 34.71875 54.6875 
L 34.71875 47.703125 
L 19.921875 47.703125 
L 19.921875 0 
L 10.890625 0 
L 10.890625 47.703125 
L 2.296875 47.703125 
L 2.296875 54.6875 
L 10.890625 54.6875 
L 10.890625 58.5 
Q 10.890625 67.625 15.140625 71.796875 
Q 19.390625 75.984375 28.609375 75.984375 
z
" id="DejaVuSans-102"/>
       <path id="DejaVuSans-32"/>
       <path d="M 2.984375 54.6875 
L 12.5 54.6875 
L 29.59375 8.796875 
L 46.6875 54.6875 
L 56.203125 54.6875 
L 35.6875 0 
L 23.484375 0 
z
" id="DejaVuSans-118"/>
       <path d="M 34.28125 27.484375 
Q 23.390625 27.484375 19.1875 25 
Q 14.984375 22.515625 14.984375 16.5 
Q 14.984375 11.71875 18.140625 8.90625 
Q 21.296875 6.109375 26.703125 6.109375 
Q 34.1875 6.109375 38.703125 11.40625 
Q 43.21875 16.703125 43.21875 25.484375 
L 43.21875 27.484375 
z
M 52.203125 31.203125 
L 52.203125 0 
L 43.21875 0 
L 43.21875 8.296875 
Q 40.140625 3.328125 35.546875 0.953125 
Q 30.953125 -1.421875 24.3125 -1.421875 
Q 15.921875 -1.421875 10.953125 3.296875 
Q 6 8.015625 6 15.921875 
Q 6 25.140625 12.171875 29.828125 
Q 18.359375 34.515625 30.609375 34.515625 
L 43.21875 34.515625 
L 43.21875 35.40625 
Q 43.21875 41.609375 39.140625 45 
Q 35.0625 48.390625 27.6875 48.390625 
Q 23 48.390625 18.546875 47.265625 
Q 14.109375 46.140625 10.015625 43.890625 
L 10.015625 52.203125 
Q 14.9375 54.109375 19.578125 55.046875 
Q 24.21875 56 28.609375 56 
Q 40.484375 56 46.34375 49.84375 
Q 52.203125 43.703125 52.203125 31.203125 
z
" id="DejaVuSans-97"/>
       <path d="M 9.421875 75.984375 
L 18.40625 75.984375 
L 18.40625 0 
L 9.421875 0 
z
" id="DejaVuSans-108"/>
       <path d="M 8.5 21.578125 
L 8.5 54.6875 
L 17.484375 54.6875 
L 17.484375 21.921875 
Q 17.484375 14.15625 20.5 10.265625 
Q 23.53125 6.390625 29.59375 6.390625 
Q 36.859375 6.390625 41.078125 11.03125 
Q 45.3125 15.671875 45.3125 23.6875 
L 45.3125 54.6875 
L 54.296875 54.6875 
L 54.296875 0 
L 45.3125 0 
L 45.3125 8.40625 
Q 42.046875 3.421875 37.71875 1 
Q 33.40625 -1.421875 27.6875 -1.421875 
Q 18.265625 -1.421875 13.375 4.4375 
Q 8.5 10.296875 8.5 21.578125 
z
M 31.109375 56 
z
" id="DejaVuSans-117"/>
      </defs>
      <use xlink:href="#DejaVuSans-67"/>
      <use x="69.824219" xlink:href="#DejaVuSans-111"/>
      <use x="131.005859" xlink:href="#DejaVuSans-101"/>
      <use x="192.529297" xlink:href="#DejaVuSans-102"/>
      <use x="227.734375" xlink:href="#DejaVuSans-102"/>
      <use x="262.939453" xlink:href="#DejaVuSans-32"/>
      <use x="294.726562" xlink:href="#DejaVuSans-118"/>
      <use x="353.90625" xlink:href="#DejaVuSans-97"/>
      <use x="415.185547" xlink:href="#DejaVuSans-108"/>
      <use x="442.96875" xlink:href="#DejaVuSans-117"/>
      <use x="506.347656" xlink:href="#DejaVuSans-101"/>
     </g>
    </g>
   </g>
   <g id="matplotlib.axis_2">
    <g id="ytick_1">
     <g id="line2d_6">
      <defs>
       <path d="M 0 0 
L -3.5 0 
" id="m8d2ccf9e82" style="stroke:#000000;stroke-width:0.8;"/>
      </defs>
      <g>
       <use style="stroke:#000000;stroke-width:0.8;" x="132.096875" xlink:href="#m8d2ccf9e82" y="122.188208"/>
      </g>
     </g>
     <g id="text_7">
      <!--  g__Corynebacterium_0 -->
      <g transform="translate(7.570312 125.987426)scale(0.1 -0.1)">
       <defs>
        <path d="M 45.40625 27.984375 
Q 45.40625 37.75 41.375 43.109375 
Q 37.359375 48.484375 30.078125 48.484375 
Q 22.859375 48.484375 18.828125 43.109375 
Q 14.796875 37.75 14.796875 27.984375 
Q 14.796875 18.265625 18.828125 12.890625 
Q 22.859375 7.515625 30.078125 7.515625 
Q 37.359375 7.515625 41.375 12.890625 
Q 45.40625 18.265625 45.40625 27.984375 
z
M 54.390625 6.78125 
Q 54.390625 -7.171875 48.1875 -13.984375 
Q 42 -20.796875 29.203125 -20.796875 
Q 24.46875 -20.796875 20.265625 -20.09375 
Q 16.0625 -19.390625 12.109375 -17.921875 
L 12.109375 -9.1875 
Q 16.0625 -11.328125 19.921875 -12.34375 
Q 23.78125 -13.375 27.78125 -13.375 
Q 36.625 -13.375 41.015625 -8.765625 
Q 45.40625 -4.15625 45.40625 5.171875 
L 45.40625 9.625 
Q 42.625 4.78125 38.28125 2.390625 
Q 33.9375 0 27.875 0 
Q 17.828125 0 11.671875 7.65625 
Q 5.515625 15.328125 5.515625 27.984375 
Q 5.515625 40.671875 11.671875 48.328125 
Q 17.828125 56 27.875 56 
Q 33.9375 56 38.28125 53.609375 
Q 42.625 51.21875 45.40625 46.390625 
L 45.40625 54.6875 
L 54.390625 54.6875 
z
" id="DejaVuSans-103"/>
        <path d="M 50.984375 -16.609375 
L 50.984375 -23.578125 
L -0.984375 -23.578125 
L -0.984375 -16.609375 
z
" id="DejaVuSans-95"/>
        <path d="M 41.109375 46.296875 
Q 39.59375 47.171875 37.8125 47.578125 
Q 36.03125 48 33.890625 48 
Q 26.265625 48 22.1875 43.046875 
Q 18.109375 38.09375 18.109375 28.8125 
L 18.109375 0 
L 9.078125 0 
L 9.078125 54.6875 
L 18.109375 54.6875 
L 18.109375 46.1875 
Q 20.953125 51.171875 25.484375 53.578125 
Q 30.03125 56 36.53125 56 
Q 37.453125 56 38.578125 55.875 
Q 39.703125 55.765625 41.0625 55.515625 
z
" id="DejaVuSans-114"/>
        <path d="M 32.171875 -5.078125 
Q 28.375 -14.84375 24.75 -17.8125 
Q 21.140625 -20.796875 15.09375 -20.796875 
L 7.90625 -20.796875 
L 7.90625 -13.28125 
L 13.1875 -13.28125 
Q 16.890625 -13.28125 18.9375 -11.515625 
Q 21 -9.765625 23.484375 -3.21875 
L 25.09375 0.875 
L 2.984375 54.6875 
L 12.5 54.6875 
L 29.59375 11.921875 
L 46.6875 54.6875 
L 56.203125 54.6875 
z
" id="DejaVuSans-121"/>
        <path d="M 54.890625 33.015625 
L 54.890625 0 
L 45.90625 0 
L 45.90625 32.71875 
Q 45.90625 40.484375 42.875 44.328125 
Q 39.84375 48.1875 33.796875 48.1875 
Q 26.515625 48.1875 22.3125 43.546875 
Q 18.109375 38.921875 18.109375 30.90625 
L 18.109375 0 
L 9.078125 0 
L 9.078125 54.6875 
L 18.109375 54.6875 
L 18.109375 46.1875 
Q 21.34375 51.125 25.703125 53.5625 
Q 30.078125 56 35.796875 56 
Q 45.21875 56 50.046875 50.171875 
Q 54.890625 44.34375 54.890625 33.015625 
z
" id="DejaVuSans-110"/>
        <path d="M 48.6875 27.296875 
Q 48.6875 37.203125 44.609375 42.84375 
Q 40.53125 48.484375 33.40625 48.484375 
Q 26.265625 48.484375 22.1875 42.84375 
Q 18.109375 37.203125 18.109375 27.296875 
Q 18.109375 17.390625 22.1875 11.75 
Q 26.265625 6.109375 33.40625 6.109375 
Q 40.53125 6.109375 44.609375 11.75 
Q 48.6875 17.390625 48.6875 27.296875 
z
M 18.109375 46.390625 
Q 20.953125 51.265625 25.265625 53.625 
Q 29.59375 56 35.59375 56 
Q 45.5625 56 51.78125 48.09375 
Q 58.015625 40.1875 58.015625 27.296875 
Q 58.015625 14.40625 51.78125 6.484375 
Q 45.5625 -1.421875 35.59375 -1.421875 
Q 29.59375 -1.421875 25.265625 0.953125 
Q 20.953125 3.328125 18.109375 8.203125 
L 18.109375 0 
L 9.078125 0 
L 9.078125 75.984375 
L 18.109375 75.984375 
z
" id="DejaVuSans-98"/>
        <path d="M 48.78125 52.59375 
L 48.78125 44.1875 
Q 44.96875 46.296875 41.140625 47.34375 
Q 37.3125 48.390625 33.40625 48.390625 
Q 24.65625 48.390625 19.8125 42.84375 
Q 14.984375 37.3125 14.984375 27.296875 
Q 14.984375 17.28125 19.8125 11.734375 
Q 24.65625 6.203125 33.40625 6.203125 
Q 37.3125 6.203125 41.140625 7.25 
Q 44.96875 8.296875 48.78125 10.40625 
L 48.78125 2.09375 
Q 45.015625 0.34375 40.984375 -0.53125 
Q 36.96875 -1.421875 32.421875 -1.421875 
Q 20.0625 -1.421875 12.78125 6.34375 
Q 5.515625 14.109375 5.515625 27.296875 
Q 5.515625 40.671875 12.859375 48.328125 
Q 20.21875 56 33.015625 56 
Q 37.15625 56 41.109375 55.140625 
Q 45.0625 54.296875 48.78125 52.59375 
z
" id="DejaVuSans-99"/>
        <path d="M 18.3125 70.21875 
L 18.3125 54.6875 
L 36.8125 54.6875 
L 36.8125 47.703125 
L 18.3125 47.703125 
L 18.3125 18.015625 
Q 18.3125 11.328125 20.140625 9.421875 
Q 21.96875 7.515625 27.59375 7.515625 
L 36.8125 7.515625 
L 36.8125 0 
L 27.59375 0 
Q 17.1875 0 13.234375 3.875 
Q 9.28125 7.765625 9.28125 18.015625 
L 9.28125 47.703125 
L 2.6875 47.703125 
L 2.6875 54.6875 
L 9.28125 54.6875 
L 9.28125 70.21875 
z
" id="DejaVuSans-116"/>
        <path d="M 9.421875 54.6875 
L 18.40625 54.6875 
L 18.40625 0 
L 9.421875 0 
z
M 9.421875 75.984375 
L 18.40625 75.984375 
L 18.40625 64.59375 
L 9.421875 64.59375 
z
" id="DejaVuSans-105"/>
        <path d="M 52 44.1875 
Q 55.375 50.25 60.0625 53.125 
Q 64.75 56 71.09375 56 
Q 79.640625 56 84.28125 50.015625 
Q 88.921875 44.046875 88.921875 33.015625 
L 88.921875 0 
L 79.890625 0 
L 79.890625 32.71875 
Q 79.890625 40.578125 77.09375 44.375 
Q 74.3125 48.1875 68.609375 48.1875 
Q 61.625 48.1875 57.5625 43.546875 
Q 53.515625 38.921875 53.515625 30.90625 
L 53.515625 0 
L 44.484375 0 
L 44.484375 32.71875 
Q 44.484375 40.625 41.703125 44.40625 
Q 38.921875 48.1875 33.109375 48.1875 
Q 26.21875 48.1875 22.15625 43.53125 
Q 18.109375 38.875 18.109375 30.90625 
L 18.109375 0 
L 9.078125 0 
L 9.078125 54.6875 
L 18.109375 54.6875 
L 18.109375 46.1875 
Q 21.1875 51.21875 25.484375 53.609375 
Q 29.78125 56 35.6875 56 
Q 41.65625 56 45.828125 52.96875 
Q 50 49.953125 52 44.1875 
z
" id="DejaVuSans-109"/>
       </defs>
       <use xlink:href="#DejaVuSans-32"/>
       <use x="31.787109" xlink:href="#DejaVuSans-103"/>
       <use x="95.263672" xlink:href="#DejaVuSans-95"/>
       <use x="145.263672" xlink:href="#DejaVuSans-95"/>
       <use x="195.263672" xlink:href="#DejaVuSans-67"/>
       <use x="265.087891" xlink:href="#DejaVuSans-111"/>
       <use x="326.269531" xlink:href="#DejaVuSans-114"/>
       <use x="367.382812" xlink:href="#DejaVuSans-121"/>
       <use x="426.5625" xlink:href="#DejaVuSans-110"/>
       <use x="489.941406" xlink:href="#DejaVuSans-101"/>
       <use x="551.464844" xlink:href="#DejaVuSans-98"/>
       <use x="614.941406" xlink:href="#DejaVuSans-97"/>
       <use x="676.220703" xlink:href="#DejaVuSans-99"/>
       <use x="731.201172" xlink:href="#DejaVuSans-116"/>
       <use x="770.410156" xlink:href="#DejaVuSans-101"/>
       <use x="831.933594" xlink:href="#DejaVuSans-114"/>
       <use x="873.046875" xlink:href="#DejaVuSans-105"/>
       <use x="900.830078" xlink:href="#DejaVuSans-117"/>
       <use x="964.208984" xlink:href="#DejaVuSans-109"/>
       <use x="1061.621094" xlink:href="#DejaVuSans-95"/>
       <use x="1111.621094" xlink:href="#DejaVuSans-48"/>
      </g>
     </g>
    </g>
    <g id="ytick_2">
     <g id="line2d_7">
      <g>
       <use style="stroke:#000000;stroke-width:0.8;" x="132.096875" xlink:href="#m8d2ccf9e82" y="110.890687"/>
      </g>
     </g>
     <g id="text_8">
      <!--  g__Porphyromonas_0 -->
      <g transform="translate(16.167188 114.689906)scale(0.1 -0.1)">
       <defs>
        <path d="M 19.671875 64.796875 
L 19.671875 37.40625 
L 32.078125 37.40625 
Q 38.96875 37.40625 42.71875 40.96875 
Q 46.484375 44.53125 46.484375 51.125 
Q 46.484375 57.671875 42.71875 61.234375 
Q 38.96875 64.796875 32.078125 64.796875 
z
M 9.8125 72.90625 
L 32.078125 72.90625 
Q 44.34375 72.90625 50.609375 67.359375 
Q 56.890625 61.8125 56.890625 51.125 
Q 56.890625 40.328125 50.609375 34.8125 
Q 44.34375 29.296875 32.078125 29.296875 
L 19.671875 29.296875 
L 19.671875 0 
L 9.8125 0 
z
" id="DejaVuSans-80"/>
        <path d="M 18.109375 8.203125 
L 18.109375 -20.796875 
L 9.078125 -20.796875 
L 9.078125 54.6875 
L 18.109375 54.6875 
L 18.109375 46.390625 
Q 20.953125 51.265625 25.265625 53.625 
Q 29.59375 56 35.59375 56 
Q 45.5625 56 51.78125 48.09375 
Q 58.015625 40.1875 58.015625 27.296875 
Q 58.015625 14.40625 51.78125 6.484375 
Q 45.5625 -1.421875 35.59375 -1.421875 
Q 29.59375 -1.421875 25.265625 0.953125 
Q 20.953125 3.328125 18.109375 8.203125 
z
M 48.6875 27.296875 
Q 48.6875 37.203125 44.609375 42.84375 
Q 40.53125 48.484375 33.40625 48.484375 
Q 26.265625 48.484375 22.1875 42.84375 
Q 18.109375 37.203125 18.109375 27.296875 
Q 18.109375 17.390625 22.1875 11.75 
Q 26.265625 6.109375 33.40625 6.109375 
Q 40.53125 6.109375 44.609375 11.75 
Q 48.6875 17.390625 48.6875 27.296875 
z
" id="DejaVuSans-112"/>
        <path d="M 54.890625 33.015625 
L 54.890625 0 
L 45.90625 0 
L 45.90625 32.71875 
Q 45.90625 40.484375 42.875 44.328125 
Q 39.84375 48.1875 33.796875 48.1875 
Q 26.515625 48.1875 22.3125 43.546875 
Q 18.109375 38.921875 18.109375 30.90625 
L 18.109375 0 
L 9.078125 0 
L 9.078125 75.984375 
L 18.109375 75.984375 
L 18.109375 46.1875 
Q 21.34375 51.125 25.703125 53.5625 
Q 30.078125 56 35.796875 56 
Q 45.21875 56 50.046875 50.171875 
Q 54.890625 44.34375 54.890625 33.015625 
z
" id="DejaVuSans-104"/>
        <path d="M 44.28125 53.078125 
L 44.28125 44.578125 
Q 40.484375 46.53125 36.375 47.5 
Q 32.28125 48.484375 27.875 48.484375 
Q 21.1875 48.484375 17.84375 46.4375 
Q 14.5 44.390625 14.5 40.28125 
Q 14.5 37.15625 16.890625 35.375 
Q 19.28125 33.59375 26.515625 31.984375 
L 29.59375 31.296875 
Q 39.15625 29.25 43.1875 25.515625 
Q 47.21875 21.78125 47.21875 15.09375 
Q 47.21875 7.46875 41.1875 3.015625 
Q 35.15625 -1.421875 24.609375 -1.421875 
Q 20.21875 -1.421875 15.453125 -0.5625 
Q 10.6875 0.296875 5.421875 2 
L 5.421875 11.28125 
Q 10.40625 8.6875 15.234375 7.390625 
Q 20.0625 6.109375 24.8125 6.109375 
Q 31.15625 6.109375 34.5625 8.28125 
Q 37.984375 10.453125 37.984375 14.40625 
Q 37.984375 18.0625 35.515625 20.015625 
Q 33.0625 21.96875 24.703125 23.78125 
L 21.578125 24.515625 
Q 13.234375 26.265625 9.515625 29.90625 
Q 5.8125 33.546875 5.8125 39.890625 
Q 5.8125 47.609375 11.28125 51.796875 
Q 16.75 56 26.8125 56 
Q 31.78125 56 36.171875 55.265625 
Q 40.578125 54.546875 44.28125 53.078125 
z
" id="DejaVuSans-115"/>
       </defs>
       <use xlink:href="#DejaVuSans-32"/>
       <use x="31.787109" xlink:href="#DejaVuSans-103"/>
       <use x="95.263672" xlink:href="#DejaVuSans-95"/>
       <use x="145.263672" xlink:href="#DejaVuSans-95"/>
       <use x="195.263672" xlink:href="#DejaVuSans-80"/>
       <use x="251.941406" xlink:href="#DejaVuSans-111"/>
       <use x="313.123047" xlink:href="#DejaVuSans-114"/>
       <use x="354.236328" xlink:href="#DejaVuSans-112"/>
       <use x="417.712891" xlink:href="#DejaVuSans-104"/>
       <use x="481.091797" xlink:href="#DejaVuSans-121"/>
       <use x="540.271484" xlink:href="#DejaVuSans-114"/>
       <use x="579.134766" xlink:href="#DejaVuSans-111"/>
       <use x="640.316406" xlink:href="#DejaVuSans-109"/>
       <use x="737.728516" xlink:href="#DejaVuSans-111"/>
       <use x="798.910156" xlink:href="#DejaVuSans-110"/>
       <use x="862.289062" xlink:href="#DejaVuSans-97"/>
       <use x="923.568359" xlink:href="#DejaVuSans-115"/>
       <use x="975.667969" xlink:href="#DejaVuSans-95"/>
       <use x="1025.667969" xlink:href="#DejaVuSans-48"/>
      </g>
     </g>
    </g>
    <g id="ytick_3">
     <g id="line2d_8">
      <g>
       <use style="stroke:#000000;stroke-width:0.8;" x="132.096875" xlink:href="#m8d2ccf9e82" y="99.593166"/>
      </g>
     </g>
     <g id="text_9">
      <!--  g__Mucispirillum_0 -->
      <g transform="translate(28.10625 103.392385)scale(0.1 -0.1)">
       <defs>
        <path d="M 9.8125 72.90625 
L 24.515625 72.90625 
L 43.109375 23.296875 
L 61.8125 72.90625 
L 76.515625 72.90625 
L 76.515625 0 
L 66.890625 0 
L 66.890625 64.015625 
L 48.09375 14.015625 
L 38.1875 14.015625 
L 19.390625 64.015625 
L 19.390625 0 
L 9.8125 0 
z
" id="DejaVuSans-77"/>
       </defs>
       <use xlink:href="#DejaVuSans-32"/>
       <use x="31.787109" xlink:href="#DejaVuSans-103"/>
       <use x="95.263672" xlink:href="#DejaVuSans-95"/>
       <use x="145.263672" xlink:href="#DejaVuSans-95"/>
       <use x="195.263672" xlink:href="#DejaVuSans-77"/>
       <use x="281.542969" xlink:href="#DejaVuSans-117"/>
       <use x="344.921875" xlink:href="#DejaVuSans-99"/>
       <use x="399.902344" xlink:href="#DejaVuSans-105"/>
       <use x="427.685547" xlink:href="#DejaVuSans-115"/>
       <use x="479.785156" xlink:href="#DejaVuSans-112"/>
       <use x="543.261719" xlink:href="#DejaVuSans-105"/>
       <use x="571.044922" xlink:href="#DejaVuSans-114"/>
       <use x="612.158203" xlink:href="#DejaVuSans-105"/>
       <use x="639.941406" xlink:href="#DejaVuSans-108"/>
       <use x="667.724609" xlink:href="#DejaVuSans-108"/>
       <use x="695.507812" xlink:href="#DejaVuSans-117"/>
       <use x="758.886719" xlink:href="#DejaVuSans-109"/>
       <use x="856.298828" xlink:href="#DejaVuSans-95"/>
       <use x="906.298828" xlink:href="#DejaVuSans-48"/>
      </g>
     </g>
    </g>
    <g id="ytick_4">
     <g id="line2d_9">
      <g>
       <use style="stroke:#000000;stroke-width:0.8;" x="132.096875" xlink:href="#m8d2ccf9e82" y="88.295646"/>
      </g>
     </g>
     <g id="text_10">
      <!--  g__Aggregatibacter_0 -->
      <g transform="translate(13.296875 92.094864)scale(0.1 -0.1)">
       <defs>
        <path d="M 34.1875 63.1875 
L 20.796875 26.90625 
L 47.609375 26.90625 
z
M 28.609375 72.90625 
L 39.796875 72.90625 
L 67.578125 0 
L 57.328125 0 
L 50.6875 18.703125 
L 17.828125 18.703125 
L 11.1875 0 
L 0.78125 0 
z
" id="DejaVuSans-65"/>
       </defs>
       <use xlink:href="#DejaVuSans-32"/>
       <use x="31.787109" xlink:href="#DejaVuSans-103"/>
       <use x="95.263672" xlink:href="#DejaVuSans-95"/>
       <use x="145.263672" xlink:href="#DejaVuSans-95"/>
       <use x="195.263672" xlink:href="#DejaVuSans-65"/>
       <use x="263.671875" xlink:href="#DejaVuSans-103"/>
       <use x="327.148438" xlink:href="#DejaVuSans-103"/>
       <use x="390.625" xlink:href="#DejaVuSans-114"/>
       <use x="429.488281" xlink:href="#DejaVuSans-101"/>
       <use x="491.011719" xlink:href="#DejaVuSans-103"/>
       <use x="554.488281" xlink:href="#DejaVuSans-97"/>
       <use x="615.767578" xlink:href="#DejaVuSans-116"/>
       <use x="654.976562" xlink:href="#DejaVuSans-105"/>
       <use x="682.759766" xlink:href="#DejaVuSans-98"/>
       <use x="746.236328" xlink:href="#DejaVuSans-97"/>
       <use x="807.515625" xlink:href="#DejaVuSans-99"/>
       <use x="862.496094" xlink:href="#DejaVuSans-116"/>
       <use x="901.705078" xlink:href="#DejaVuSans-101"/>
       <use x="963.228516" xlink:href="#DejaVuSans-114"/>
       <use x="1004.341797" xlink:href="#DejaVuSans-95"/>
       <use x="1054.341797" xlink:href="#DejaVuSans-48"/>
      </g>
     </g>
    </g>
    <g id="ytick_5">
     <g id="line2d_10">
      <g>
       <use style="stroke:#000000;stroke-width:0.8;" x="132.096875" xlink:href="#m8d2ccf9e82" y="76.998125"/>
      </g>
     </g>
     <g id="text_11">
      <!--  g__Anaerotruncus_0 -->
      <g transform="translate(20.992188 80.709062)scale(0.1 -0.1)">
       <use xlink:href="#DejaVuSans-32"/>
       <use x="31.787109" xlink:href="#DejaVuSans-103"/>
       <use x="95.263672" xlink:href="#DejaVuSans-95"/>
       <use x="145.263672" xlink:href="#DejaVuSans-95"/>
       <use x="195.263672" xlink:href="#DejaVuSans-65"/>
       <use x="263.671875" xlink:href="#DejaVuSans-110"/>
       <use x="327.050781" xlink:href="#DejaVuSans-97"/>
       <use x="388.330078" xlink:href="#DejaVuSans-101"/>
       <use x="449.853516" xlink:href="#DejaVuSans-114"/>
       <use x="488.716797" xlink:href="#DejaVuSans-111"/>
       <use x="549.898438" xlink:href="#DejaVuSans-116"/>
       <use x="589.107422" xlink:href="#DejaVuSans-114"/>
       <use x="630.220703" xlink:href="#DejaVuSans-117"/>
       <use x="693.599609" xlink:href="#DejaVuSans-110"/>
       <use x="756.978516" xlink:href="#DejaVuSans-99"/>
       <use x="811.958984" xlink:href="#DejaVuSans-117"/>
       <use x="875.337891" xlink:href="#DejaVuSans-115"/>
       <use x="927.4375" xlink:href="#DejaVuSans-95"/>
       <use x="977.4375" xlink:href="#DejaVuSans-48"/>
      </g>
     </g>
    </g>
    <g id="ytick_6">
     <g id="line2d_11">
      <g>
       <use style="stroke:#000000;stroke-width:0.8;" x="132.096875" xlink:href="#m8d2ccf9e82" y="65.700604"/>
      </g>
     </g>
     <g id="text_12">
      <!--  g__Victivallis_0 -->
      <g transform="translate(47.026563 69.499823)scale(0.1 -0.1)">
       <defs>
        <path d="M 28.609375 0 
L 0.78125 72.90625 
L 11.078125 72.90625 
L 34.1875 11.53125 
L 57.328125 72.90625 
L 67.578125 72.90625 
L 39.796875 0 
z
" id="DejaVuSans-86"/>
       </defs>
       <use xlink:href="#DejaVuSans-32"/>
       <use x="31.787109" xlink:href="#DejaVuSans-103"/>
       <use x="95.263672" xlink:href="#DejaVuSans-95"/>
       <use x="145.263672" xlink:href="#DejaVuSans-95"/>
       <use x="195.263672" xlink:href="#DejaVuSans-86"/>
       <use x="261.421875" xlink:href="#DejaVuSans-105"/>
       <use x="289.205078" xlink:href="#DejaVuSans-99"/>
       <use x="344.185547" xlink:href="#DejaVuSans-116"/>
       <use x="383.394531" xlink:href="#DejaVuSans-105"/>
       <use x="411.177734" xlink:href="#DejaVuSans-118"/>
       <use x="470.357422" xlink:href="#DejaVuSans-97"/>
       <use x="531.636719" xlink:href="#DejaVuSans-108"/>
       <use x="559.419922" xlink:href="#DejaVuSans-108"/>
       <use x="587.203125" xlink:href="#DejaVuSans-105"/>
       <use x="614.986328" xlink:href="#DejaVuSans-115"/>
       <use x="667.085938" xlink:href="#DejaVuSans-95"/>
       <use x="717.085938" xlink:href="#DejaVuSans-48"/>
      </g>
     </g>
    </g>
    <g id="ytick_7">
     <g id="line2d_12">
      <g>
       <use style="stroke:#000000;stroke-width:0.8;" x="132.096875" xlink:href="#m8d2ccf9e82" y="54.403084"/>
      </g>
     </g>
     <g id="text_13">
      <!--  g__Lactonifactor_0 -->
      <g transform="translate(28.557813 58.202302)scale(0.1 -0.1)">
       <defs>
        <path d="M 9.8125 72.90625 
L 19.671875 72.90625 
L 19.671875 8.296875 
L 55.171875 8.296875 
L 55.171875 0 
L 9.8125 0 
z
" id="DejaVuSans-76"/>
       </defs>
       <use xlink:href="#DejaVuSans-32"/>
       <use x="31.787109" xlink:href="#DejaVuSans-103"/>
       <use x="95.263672" xlink:href="#DejaVuSans-95"/>
       <use x="145.263672" xlink:href="#DejaVuSans-95"/>
       <use x="195.263672" xlink:href="#DejaVuSans-76"/>
       <use x="250.976562" xlink:href="#DejaVuSans-97"/>
       <use x="312.255859" xlink:href="#DejaVuSans-99"/>
       <use x="367.236328" xlink:href="#DejaVuSans-116"/>
       <use x="406.445312" xlink:href="#DejaVuSans-111"/>
       <use x="467.626953" xlink:href="#DejaVuSans-110"/>
       <use x="531.005859" xlink:href="#DejaVuSans-105"/>
       <use x="558.789062" xlink:href="#DejaVuSans-102"/>
       <use x="593.994141" xlink:href="#DejaVuSans-97"/>
       <use x="655.273438" xlink:href="#DejaVuSans-99"/>
       <use x="710.253906" xlink:href="#DejaVuSans-116"/>
       <use x="749.462891" xlink:href="#DejaVuSans-111"/>
       <use x="810.644531" xlink:href="#DejaVuSans-114"/>
       <use x="851.757812" xlink:href="#DejaVuSans-95"/>
       <use x="901.757812" xlink:href="#DejaVuSans-48"/>
      </g>
     </g>
    </g>
    <g id="ytick_8">
     <g id="line2d_13">
      <g>
       <use style="stroke:#000000;stroke-width:0.8;" x="132.096875" xlink:href="#m8d2ccf9e82" y="43.105563"/>
      </g>
     </g>
     <g id="text_14">
      <!--  g__Lachnobacterium_0 -->
      <g transform="translate(7.2 46.904782)scale(0.1 -0.1)">
       <use xlink:href="#DejaVuSans-32"/>
       <use x="31.787109" xlink:href="#DejaVuSans-103"/>
       <use x="95.263672" xlink:href="#DejaVuSans-95"/>
       <use x="145.263672" xlink:href="#DejaVuSans-95"/>
       <use x="195.263672" xlink:href="#DejaVuSans-76"/>
       <use x="250.976562" xlink:href="#DejaVuSans-97"/>
       <use x="312.255859" xlink:href="#DejaVuSans-99"/>
       <use x="367.236328" xlink:href="#DejaVuSans-104"/>
       <use x="430.615234" xlink:href="#DejaVuSans-110"/>
       <use x="493.994141" xlink:href="#DejaVuSans-111"/>
       <use x="555.175781" xlink:href="#DejaVuSans-98"/>
       <use x="618.652344" xlink:href="#DejaVuSans-97"/>
       <use x="679.931641" xlink:href="#DejaVuSans-99"/>
       <use x="734.912109" xlink:href="#DejaVuSans-116"/>
       <use x="774.121094" xlink:href="#DejaVuSans-101"/>
       <use x="835.644531" xlink:href="#DejaVuSans-114"/>
       <use x="876.757812" xlink:href="#DejaVuSans-105"/>
       <use x="904.541016" xlink:href="#DejaVuSans-117"/>
       <use x="967.919922" xlink:href="#DejaVuSans-109"/>
       <use x="1065.332031" xlink:href="#DejaVuSans-95"/>
       <use x="1115.332031" xlink:href="#DejaVuSans-48"/>
      </g>
     </g>
    </g>
    <g id="ytick_9">
     <g id="line2d_14">
      <g>
       <use style="stroke:#000000;stroke-width:0.8;" x="132.096875" xlink:href="#m8d2ccf9e82" y="31.808042"/>
      </g>
     </g>
     <g id="text_15">
      <!--  g__Faecalibacterium_0 -->
      <g transform="translate(8.889063 35.607261)scale(0.1 -0.1)">
       <defs>
        <path d="M 9.8125 72.90625 
L 51.703125 72.90625 
L 51.703125 64.59375 
L 19.671875 64.59375 
L 19.671875 43.109375 
L 48.578125 43.109375 
L 48.578125 34.8125 
L 19.671875 34.8125 
L 19.671875 0 
L 9.8125 0 
z
" id="DejaVuSans-70"/>
       </defs>
       <use xlink:href="#DejaVuSans-32"/>
       <use x="31.787109" xlink:href="#DejaVuSans-103"/>
       <use x="95.263672" xlink:href="#DejaVuSans-95"/>
       <use x="145.263672" xlink:href="#DejaVuSans-95"/>
       <use x="195.263672" xlink:href="#DejaVuSans-70"/>
       <use x="243.658203" xlink:href="#DejaVuSans-97"/>
       <use x="304.9375" xlink:href="#DejaVuSans-101"/>
       <use x="366.460938" xlink:href="#DejaVuSans-99"/>
       <use x="421.441406" xlink:href="#DejaVuSans-97"/>
       <use x="482.720703" xlink:href="#DejaVuSans-108"/>
       <use x="510.503906" xlink:href="#DejaVuSans-105"/>
       <use x="538.287109" xlink:href="#DejaVuSans-98"/>
       <use x="601.763672" xlink:href="#DejaVuSans-97"/>
       <use x="663.042969" xlink:href="#DejaVuSans-99"/>
       <use x="718.023438" xlink:href="#DejaVuSans-116"/>
       <use x="757.232422" xlink:href="#DejaVuSans-101"/>
       <use x="818.755859" xlink:href="#DejaVuSans-114"/>
       <use x="859.869141" xlink:href="#DejaVuSans-105"/>
       <use x="887.652344" xlink:href="#DejaVuSans-117"/>
       <use x="951.03125" xlink:href="#DejaVuSans-109"/>
       <use x="1048.443359" xlink:href="#DejaVuSans-95"/>
       <use x="1098.443359" xlink:href="#DejaVuSans-48"/>
      </g>
     </g>
    </g>
   </g>
   <g id="patch_12">
    <path d="M 132.096875 131.678125 
L 132.096875 22.318125 
" style="fill:none;stroke:#000000;stroke-linecap:square;stroke-linejoin:miter;stroke-width:0.8;"/>
   </g>
   <g id="patch_13">
    <path d="M 446.216875 131.678125 
L 446.216875 22.318125 
" style="fill:none;stroke:#000000;stroke-linecap:square;stroke-linejoin:miter;stroke-width:0.8;"/>
   </g>
   <g id="patch_14">
    <path d="M 132.096875 131.678125 
L 446.216875 131.678125 
" style="fill:none;stroke:#000000;stroke-linecap:square;stroke-linejoin:miter;stroke-width:0.8;"/>
   </g>
   <g id="patch_15">
    <path d="M 132.096875 22.318125 
L 446.216875 22.318125 
" style="fill:none;stroke:#000000;stroke-linecap:square;stroke-linejoin:miter;stroke-width:0.8;"/>
   </g>
   <g id="text_16">
    <!-- year of aliyah number -->
    <g transform="translate(222.808125 16.318125)scale(0.12 -0.12)">
     <use xlink:href="#DejaVuSans-121"/>
     <use x="59.179688" xlink:href="#DejaVuSans-101"/>
     <use x="120.703125" xlink:href="#DejaVuSans-97"/>
     <use x="181.982422" xlink:href="#DejaVuSans-114"/>
     <use x="223.095703" xlink:href="#DejaVuSans-32"/>
     <use x="254.882812" xlink:href="#DejaVuSans-111"/>
     <use x="316.064453" xlink:href="#DejaVuSans-102"/>
     <use x="351.269531" xlink:href="#DejaVuSans-32"/>
     <use x="383.056641" xlink:href="#DejaVuSans-97"/>
     <use x="444.335938" xlink:href="#DejaVuSans-108"/>
     <use x="472.119141" xlink:href="#DejaVuSans-105"/>
     <use x="499.902344" xlink:href="#DejaVuSans-121"/>
     <use x="559.082031" xlink:href="#DejaVuSans-97"/>
     <use x="620.361328" xlink:href="#DejaVuSans-104"/>
     <use x="683.740234" xlink:href="#DejaVuSans-32"/>
     <use x="715.527344" xlink:href="#DejaVuSans-110"/>
     <use x="778.90625" xlink:href="#DejaVuSans-117"/>
     <use x="842.285156" xlink:href="#DejaVuSans-109"/>
     <use x="939.697266" xlink:href="#DejaVuSans-98"/>
     <use x="1003.173828" xlink:href="#DejaVuSans-101"/>
     <use x="1064.697266" xlink:href="#DejaVuSans-114"/>
    </g>
   </g>
  </g>
  <g id="axes_2">
   <g id="patch_16">
    <path d="M 132.096875 299.078125 
L 446.216875 299.078125 
L 446.216875 189.718125 
L 132.096875 189.718125 
z
" style="fill:#ffffff;"/>
   </g>
   <g id="patch_17">
    <path clip-path="url(#pad92e0d3a2)" d="M 148.967364 299.078125 
L 153.513088 299.078125 
L 153.513088 295.606379 
L 148.967364 295.606379 
z
" style="fill:#d95f0e;opacity:0.5;"/>
   </g>
   <g id="patch_18">
    <path clip-path="url(#pad92e0d3a2)" d="M 154.649519 299.078125 
L 159.195243 299.078125 
L 159.195243 299.078125 
L 154.649519 299.078125 
z
" style="fill:#d95f0e;opacity:0.5;"/>
   </g>
   <g id="patch_19">
    <path clip-path="url(#pad92e0d3a2)" d="M 160.331674 299.078125 
L 164.877398 299.078125 
L 164.877398 295.606379 
L 160.331674 295.606379 
z
" style="fill:#d95f0e;opacity:0.5;"/>
   </g>
   <g id="patch_20">
    <path clip-path="url(#pad92e0d3a2)" d="M 166.01383 299.078125 
L 170.559554 299.078125 
L 170.559554 290.39876 
L 166.01383 290.39876 
z
" style="fill:#d95f0e;opacity:0.5;"/>
   </g>
   <g id="patch_21">
    <path clip-path="url(#pad92e0d3a2)" d="M 171.695985 299.078125 
L 176.241709 299.078125 
L 176.241709 293.870506 
L 171.695985 293.870506 
z
" style="fill:#d95f0e;opacity:0.5;"/>
   </g>
   <g id="patch_22">
    <path clip-path="url(#pad92e0d3a2)" d="M 177.37814 299.078125 
L 181.923864 299.078125 
L 181.923864 297.342252 
L 177.37814 297.342252 
z
" style="fill:#d95f0e;opacity:0.5;"/>
   </g>
   <g id="patch_23">
    <path clip-path="url(#pad92e0d3a2)" d="M 183.060295 299.078125 
L 187.606019 299.078125 
L 187.606019 293.870506 
L 183.060295 293.870506 
z
" style="fill:#d95f0e;opacity:0.5;"/>
   </g>
   <g id="patch_24">
    <path clip-path="url(#pad92e0d3a2)" d="M 188.74245 299.078125 
L 193.288175 299.078125 
L 193.288175 281.719395 
L 188.74245 281.719395 
z
" style="fill:#d95f0e;opacity:0.5;"/>
   </g>
   <g id="patch_25">
    <path clip-path="url(#pad92e0d3a2)" d="M 194.424606 299.078125 
L 198.97033 299.078125 
L 198.97033 283.455268 
L 194.424606 283.455268 
z
" style="fill:#d95f0e;opacity:0.5;"/>
   </g>
   <g id="patch_26">
    <path clip-path="url(#pad92e0d3a2)" d="M 200.106761 299.078125 
L 204.652485 299.078125 
L 204.652485 281.719395 
L 200.106761 281.719395 
z
" style="fill:#d95f0e;opacity:0.5;"/>
   </g>
   <g id="patch_27">
    <path clip-path="url(#pad92e0d3a2)" d="M 205.788916 299.078125 
L 210.33464 299.078125 
L 210.33464 281.719395 
L 205.788916 281.719395 
z
" style="fill:#d95f0e;opacity:0.5;"/>
   </g>
   <g id="patch_28">
    <path clip-path="url(#pad92e0d3a2)" d="M 211.471071 299.078125 
L 216.016795 299.078125 
L 216.016795 269.568284 
L 211.471071 269.568284 
z
" style="fill:#d95f0e;opacity:0.5;"/>
   </g>
   <g id="patch_29">
    <path clip-path="url(#pad92e0d3a2)" d="M 217.153226 299.078125 
L 221.698951 299.078125 
L 221.698951 286.927014 
L 217.153226 286.927014 
z
" style="fill:#d95f0e;opacity:0.5;"/>
   </g>
   <g id="patch_30">
    <path clip-path="url(#pad92e0d3a2)" d="M 222.835382 299.078125 
L 227.381106 299.078125 
L 227.381106 248.737808 
L 222.835382 248.737808 
z
" style="fill:#d95f0e;opacity:0.5;"/>
   </g>
   <g id="patch_31">
    <path clip-path="url(#pad92e0d3a2)" d="M 228.517537 299.078125 
L 233.063261 299.078125 
L 233.063261 269.568284 
L 228.517537 269.568284 
z
" style="fill:#d95f0e;opacity:0.5;"/>
   </g>
   <g id="patch_32">
    <path clip-path="url(#pad92e0d3a2)" d="M 234.199692 299.078125 
L 238.745416 299.078125 
L 238.745416 247.001935 
L 234.199692 247.001935 
z
" style="fill:#d95f0e;opacity:0.5;"/>
   </g>
   <g id="patch_33">
    <path clip-path="url(#pad92e0d3a2)" d="M 239.881847 299.078125 
L 244.427571 299.078125 
L 244.427571 248.737808 
L 239.881847 248.737808 
z
" style="fill:#d95f0e;opacity:0.5;"/>
   </g>
   <g id="patch_34">
    <path clip-path="url(#pad92e0d3a2)" d="M 245.564002 299.078125 
L 250.109727 299.078125 
L 250.109727 247.001935 
L 245.564002 247.001935 
z
" style="fill:#d95f0e;opacity:0.5;"/>
   </g>
   <g id="patch_35">
    <path clip-path="url(#pad92e0d3a2)" d="M 251.246158 299.078125 
L 255.791882 299.078125 
L 255.791882 238.322569 
L 251.246158 238.322569 
z
" style="fill:#d95f0e;opacity:0.5;"/>
   </g>
   <g id="patch_36">
    <path clip-path="url(#pad92e0d3a2)" d="M 256.928313 299.078125 
L 261.474037 299.078125 
L 261.474037 217.492093 
L 256.928313 217.492093 
z
" style="fill:#d95f0e;opacity:0.5;"/>
   </g>
   <g id="patch_37">
    <path clip-path="url(#pad92e0d3a2)" d="M 262.610468 299.078125 
L 267.156192 299.078125 
L 267.156192 219.227966 
L 262.610468 219.227966 
z
" style="fill:#d95f0e;opacity:0.5;"/>
   </g>
   <g id="patch_38">
    <path clip-path="url(#pad92e0d3a2)" d="M 268.292623 299.078125 
L 272.838347 299.078125 
L 272.838347 219.227966 
L 268.292623 219.227966 
z
" style="fill:#d95f0e;opacity:0.5;"/>
   </g>
   <g id="patch_39">
    <path clip-path="url(#pad92e0d3a2)" d="M 273.974778 299.078125 
L 278.520503 299.078125 
L 278.520503 226.171458 
L 273.974778 226.171458 
z
" style="fill:#d95f0e;opacity:0.5;"/>
   </g>
   <g id="patch_40">
    <path clip-path="url(#pad92e0d3a2)" d="M 279.656934 299.078125 
L 284.202658 299.078125 
L 284.202658 205.340982 
L 279.656934 205.340982 
z
" style="fill:#d95f0e;opacity:0.5;"/>
   </g>
   <g id="patch_41">
    <path clip-path="url(#pad92e0d3a2)" d="M 285.339089 299.078125 
L 289.884813 299.078125 
L 289.884813 217.492093 
L 285.339089 217.492093 
z
" style="fill:#d95f0e;opacity:0.5;"/>
   </g>
   <g id="patch_42">
    <path clip-path="url(#pad92e0d3a2)" d="M 291.021244 299.078125 
L 295.566968 299.078125 
L 295.566968 231.379077 
L 291.021244 231.379077 
z
" style="fill:#d95f0e;opacity:0.5;"/>
   </g>
   <g id="patch_43">
    <path clip-path="url(#pad92e0d3a2)" d="M 296.703399 299.078125 
L 301.249123 299.078125 
L 301.249123 233.11495 
L 296.703399 233.11495 
z
" style="fill:#d95f0e;opacity:0.5;"/>
   </g>
   <g id="patch_44">
    <path clip-path="url(#pad92e0d3a2)" d="M 302.385554 299.078125 
L 306.931279 299.078125 
L 306.931279 250.473681 
L 302.385554 250.473681 
z
" style="fill:#d95f0e;opacity:0.5;"/>
   </g>
   <g id="patch_45">
    <path clip-path="url(#pad92e0d3a2)" d="M 308.06771 299.078125 
L 312.613434 299.078125 
L 312.613434 227.907331 
L 308.06771 227.907331 
z
" style="fill:#d95f0e;opacity:0.5;"/>
   </g>
   <g id="patch_46">
    <path clip-path="url(#pad92e0d3a2)" d="M 313.749865 299.078125 
L 318.295589 299.078125 
L 318.295589 245.266062 
L 313.749865 245.266062 
z
" style="fill:#d95f0e;opacity:0.5;"/>
   </g>
   <g id="patch_47">
    <path clip-path="url(#pad92e0d3a2)" d="M 319.43202 299.078125 
L 323.977744 299.078125 
L 323.977744 257.417173 
L 319.43202 257.417173 
z
" style="fill:#d95f0e;opacity:0.5;"/>
   </g>
   <g id="patch_48">
    <path clip-path="url(#pad92e0d3a2)" d="M 325.114175 299.078125 
L 329.659899 299.078125 
L 329.659899 257.417173 
L 325.114175 257.417173 
z
" style="fill:#d95f0e;opacity:0.5;"/>
   </g>
   <g id="patch_49">
    <path clip-path="url(#pad92e0d3a2)" d="M 330.796331 299.078125 
L 335.342055 299.078125 
L 335.342055 267.832411 
L 330.796331 267.832411 
z
" style="fill:#d95f0e;opacity:0.5;"/>
   </g>
   <g id="patch_50">
    <path clip-path="url(#pad92e0d3a2)" d="M 336.478486 299.078125 
L 341.02421 299.078125 
L 341.02421 269.568284 
L 336.478486 269.568284 
z
" style="fill:#d95f0e;opacity:0.5;"/>
   </g>
   <g id="patch_51">
    <path clip-path="url(#pad92e0d3a2)" d="M 342.160641 299.078125 
L 346.706365 299.078125 
L 346.706365 273.04003 
L 342.160641 273.04003 
z
" style="fill:#d95f0e;opacity:0.5;"/>
   </g>
   <g id="patch_52">
    <path clip-path="url(#pad92e0d3a2)" d="M 347.842796 299.078125 
L 352.38852 299.078125 
L 352.38852 286.927014 
L 347.842796 286.927014 
z
" style="fill:#d95f0e;opacity:0.5;"/>
   </g>
   <g id="patch_53">
    <path clip-path="url(#pad92e0d3a2)" d="M 353.524951 299.078125 
L 358.070675 299.078125 
L 358.070675 286.927014 
L 353.524951 286.927014 
z
" style="fill:#d95f0e;opacity:0.5;"/>
   </g>
   <g id="patch_54">
    <path clip-path="url(#pad92e0d3a2)" d="M 359.207107 299.078125 
L 363.752831 299.078125 
L 363.752831 283.455268 
L 359.207107 283.455268 
z
" style="fill:#d95f0e;opacity:0.5;"/>
   </g>
   <g id="patch_55">
    <path clip-path="url(#pad92e0d3a2)" d="M 364.889262 299.078125 
L 369.434986 299.078125 
L 369.434986 292.134633 
L 364.889262 292.134633 
z
" style="fill:#d95f0e;opacity:0.5;"/>
   </g>
   <g id="patch_56">
    <path clip-path="url(#pad92e0d3a2)" d="M 370.571417 299.078125 
L 375.117141 299.078125 
L 375.117141 285.191141 
L 370.571417 285.191141 
z
" style="fill:#d95f0e;opacity:0.5;"/>
   </g>
   <g id="patch_57">
    <path clip-path="url(#pad92e0d3a2)" d="M 376.253572 299.078125 
L 380.799296 299.078125 
L 380.799296 293.870506 
L 376.253572 293.870506 
z
" style="fill:#d95f0e;opacity:0.5;"/>
   </g>
   <g id="patch_58">
    <path clip-path="url(#pad92e0d3a2)" d="M 381.935727 299.078125 
L 386.481452 299.078125 
L 386.481452 292.134633 
L 381.935727 292.134633 
z
" style="fill:#d95f0e;opacity:0.5;"/>
   </g>
   <g id="patch_59">
    <path clip-path="url(#pad92e0d3a2)" d="M 387.617883 299.078125 
L 392.163607 299.078125 
L 392.163607 290.39876 
L 387.617883 290.39876 
z
" style="fill:#d95f0e;opacity:0.5;"/>
   </g>
   <g id="patch_60">
    <path clip-path="url(#pad92e0d3a2)" d="M 393.300038 299.078125 
L 397.845762 299.078125 
L 397.845762 295.606379 
L 393.300038 295.606379 
z
" style="fill:#d95f0e;opacity:0.5;"/>
   </g>
   <g id="patch_61">
    <path clip-path="url(#pad92e0d3a2)" d="M 398.982193 299.078125 
L 403.527917 299.078125 
L 403.527917 297.342252 
L 398.982193 297.342252 
z
" style="fill:#d95f0e;opacity:0.5;"/>
   </g>
   <g id="patch_62">
    <path clip-path="url(#pad92e0d3a2)" d="M 404.664348 299.078125 
L 409.210072 299.078125 
L 409.210072 295.606379 
L 404.664348 295.606379 
z
" style="fill:#d95f0e;opacity:0.5;"/>
   </g>
   <g id="patch_63">
    <path clip-path="url(#pad92e0d3a2)" d="M 410.346503 299.078125 
L 414.892228 299.078125 
L 414.892228 299.078125 
L 410.346503 299.078125 
z
" style="fill:#d95f0e;opacity:0.5;"/>
   </g>
   <g id="patch_64">
    <path clip-path="url(#pad92e0d3a2)" d="M 416.028659 299.078125 
L 420.574383 299.078125 
L 420.574383 299.078125 
L 416.028659 299.078125 
z
" style="fill:#d95f0e;opacity:0.5;"/>
   </g>
   <g id="patch_65">
    <path clip-path="url(#pad92e0d3a2)" d="M 421.710814 299.078125 
L 426.256538 299.078125 
L 426.256538 299.078125 
L 421.710814 299.078125 
z
" style="fill:#d95f0e;opacity:0.5;"/>
   </g>
   <g id="patch_66">
    <path clip-path="url(#pad92e0d3a2)" d="M 427.392969 299.078125 
L 431.938693 299.078125 
L 431.938693 295.606379 
L 427.392969 295.606379 
z
" style="fill:#d95f0e;opacity:0.5;"/>
   </g>
   <g id="patch_67">
    <path clip-path="url(#pad92e0d3a2)" d="M 146.375057 299.078125 
L 150.920781 299.078125 
L 150.920781 247.001935 
L 146.375057 247.001935 
z
" style="fill:#43a2ca;opacity:0.8;"/>
   </g>
   <g id="patch_68">
    <path clip-path="url(#pad92e0d3a2)" d="M 151.425053 299.078125 
L 155.970777 299.078125 
L 155.970777 247.001935 
L 151.425053 247.001935 
z
" style="fill:#43a2ca;opacity:0.8;"/>
   </g>
   <g id="patch_69">
    <path clip-path="url(#pad92e0d3a2)" d="M 156.475049 299.078125 
L 161.020773 299.078125 
L 161.020773 281.719395 
L 156.475049 281.719395 
z
" style="fill:#43a2ca;opacity:0.8;"/>
   </g>
   <g id="patch_70">
    <path clip-path="url(#pad92e0d3a2)" d="M 161.525045 299.078125 
L 166.070769 299.078125 
L 166.070769 281.719395 
L 161.525045 281.719395 
z
" style="fill:#43a2ca;opacity:0.8;"/>
   </g>
   <g id="patch_71">
    <path clip-path="url(#pad92e0d3a2)" d="M 166.575041 299.078125 
L 171.120765 299.078125 
L 171.120765 299.078125 
L 166.575041 299.078125 
z
" style="fill:#43a2ca;opacity:0.8;"/>
   </g>
   <g id="patch_72">
    <path clip-path="url(#pad92e0d3a2)" d="M 171.625037 299.078125 
L 176.170762 299.078125 
L 176.170762 281.719395 
L 171.625037 281.719395 
z
" style="fill:#43a2ca;opacity:0.8;"/>
   </g>
   <g id="patch_73">
    <path clip-path="url(#pad92e0d3a2)" d="M 176.675033 299.078125 
L 181.220758 299.078125 
L 181.220758 281.719395 
L 176.675033 281.719395 
z
" style="fill:#43a2ca;opacity:0.8;"/>
   </g>
   <g id="patch_74">
    <path clip-path="url(#pad92e0d3a2)" d="M 181.72503 299.078125 
L 186.270754 299.078125 
L 186.270754 247.001935 
L 181.72503 247.001935 
z
" style="fill:#43a2ca;opacity:0.8;"/>
   </g>
   <g id="patch_75">
    <path clip-path="url(#pad92e0d3a2)" d="M 186.775026 299.078125 
L 191.32075 299.078125 
L 191.32075 264.360665 
L 186.775026 264.360665 
z
" style="fill:#43a2ca;opacity:0.8;"/>
   </g>
   <g id="patch_76">
    <path clip-path="url(#pad92e0d3a2)" d="M 191.825022 299.078125 
L 196.370746 299.078125 
L 196.370746 264.360665 
L 191.825022 264.360665 
z
" style="fill:#43a2ca;opacity:0.8;"/>
   </g>
   <g id="patch_77">
    <path clip-path="url(#pad92e0d3a2)" d="M 196.875018 299.078125 
L 201.420742 299.078125 
L 201.420742 229.643204 
L 196.875018 229.643204 
z
" style="fill:#43a2ca;opacity:0.8;"/>
   </g>
   <g id="patch_78">
    <path clip-path="url(#pad92e0d3a2)" d="M 201.925014 299.078125 
L 206.470738 299.078125 
L 206.470738 281.719395 
L 201.925014 281.719395 
z
" style="fill:#43a2ca;opacity:0.8;"/>
   </g>
   <g id="patch_79">
    <path clip-path="url(#pad92e0d3a2)" d="M 206.97501 299.078125 
L 211.520734 299.078125 
L 211.520734 264.360665 
L 206.97501 264.360665 
z
" style="fill:#43a2ca;opacity:0.8;"/>
   </g>
   <g id="patch_80">
    <path clip-path="url(#pad92e0d3a2)" d="M 212.025006 299.078125 
L 216.57073 299.078125 
L 216.57073 281.719395 
L 212.025006 281.719395 
z
" style="fill:#43a2ca;opacity:0.8;"/>
   </g>
   <g id="patch_81">
    <path clip-path="url(#pad92e0d3a2)" d="M 217.075002 299.078125 
L 221.620727 299.078125 
L 221.620727 264.360665 
L 217.075002 264.360665 
z
" style="fill:#43a2ca;opacity:0.8;"/>
   </g>
   <g id="patch_82">
    <path clip-path="url(#pad92e0d3a2)" d="M 222.124998 299.078125 
L 226.670723 299.078125 
L 226.670723 212.284474 
L 222.124998 212.284474 
z
" style="fill:#43a2ca;opacity:0.8;"/>
   </g>
   <g id="patch_83">
    <path clip-path="url(#pad92e0d3a2)" d="M 227.174995 299.078125 
L 231.720719 299.078125 
L 231.720719 264.360665 
L 227.174995 264.360665 
z
" style="fill:#43a2ca;opacity:0.8;"/>
   </g>
   <g id="patch_84">
    <path clip-path="url(#pad92e0d3a2)" d="M 232.224991 299.078125 
L 236.770715 299.078125 
L 236.770715 247.001935 
L 232.224991 247.001935 
z
" style="fill:#43a2ca;opacity:0.8;"/>
   </g>
   <g id="patch_85">
    <path clip-path="url(#pad92e0d3a2)" d="M 237.274987 299.078125 
L 241.820711 299.078125 
L 241.820711 264.360665 
L 237.274987 264.360665 
z
" style="fill:#43a2ca;opacity:0.8;"/>
   </g>
   <g id="patch_86">
    <path clip-path="url(#pad92e0d3a2)" d="M 242.324983 299.078125 
L 246.870707 299.078125 
L 246.870707 247.001935 
L 242.324983 247.001935 
z
" style="fill:#43a2ca;opacity:0.8;"/>
   </g>
   <g id="patch_87">
    <path clip-path="url(#pad92e0d3a2)" d="M 247.374979 299.078125 
L 251.920703 299.078125 
L 251.920703 247.001935 
L 247.374979 247.001935 
z
" style="fill:#43a2ca;opacity:0.8;"/>
   </g>
   <g id="patch_88">
    <path clip-path="url(#pad92e0d3a2)" d="M 252.424975 299.078125 
L 256.970699 299.078125 
L 256.970699 299.078125 
L 252.424975 299.078125 
z
" style="fill:#43a2ca;opacity:0.8;"/>
   </g>
   <g id="patch_89">
    <path clip-path="url(#pad92e0d3a2)" d="M 257.474971 299.078125 
L 262.020695 299.078125 
L 262.020695 194.925744 
L 257.474971 194.925744 
z
" style="fill:#43a2ca;opacity:0.8;"/>
   </g>
   <g id="patch_90">
    <path clip-path="url(#pad92e0d3a2)" d="M 262.524967 299.078125 
L 267.070692 299.078125 
L 267.070692 229.643204 
L 262.524967 229.643204 
z
" style="fill:#43a2ca;opacity:0.8;"/>
   </g>
   <g id="patch_91">
    <path clip-path="url(#pad92e0d3a2)" d="M 267.574963 299.078125 
L 272.120688 299.078125 
L 272.120688 264.360665 
L 267.574963 264.360665 
z
" style="fill:#43a2ca;opacity:0.8;"/>
   </g>
   <g id="patch_92">
    <path clip-path="url(#pad92e0d3a2)" d="M 272.62496 299.078125 
L 277.170684 299.078125 
L 277.170684 264.360665 
L 272.62496 264.360665 
z
" style="fill:#43a2ca;opacity:0.8;"/>
   </g>
   <g id="patch_93">
    <path clip-path="url(#pad92e0d3a2)" d="M 277.674956 299.078125 
L 282.22068 299.078125 
L 282.22068 281.719395 
L 277.674956 281.719395 
z
" style="fill:#43a2ca;opacity:0.8;"/>
   </g>
   <g id="patch_94">
    <path clip-path="url(#pad92e0d3a2)" d="M 282.724952 299.078125 
L 287.270676 299.078125 
L 287.270676 247.001935 
L 282.724952 247.001935 
z
" style="fill:#43a2ca;opacity:0.8;"/>
   </g>
   <g id="patch_95">
    <path clip-path="url(#pad92e0d3a2)" d="M 287.774948 299.078125 
L 292.320672 299.078125 
L 292.320672 281.719395 
L 287.774948 281.719395 
z
" style="fill:#43a2ca;opacity:0.8;"/>
   </g>
   <g id="patch_96">
    <path clip-path="url(#pad92e0d3a2)" d="M 292.824944 299.078125 
L 297.370668 299.078125 
L 297.370668 264.360665 
L 292.824944 264.360665 
z
" style="fill:#43a2ca;opacity:0.8;"/>
   </g>
   <g id="patch_97">
    <path clip-path="url(#pad92e0d3a2)" d="M 297.87494 299.078125 
L 302.420664 299.078125 
L 302.420664 281.719395 
L 297.87494 281.719395 
z
" style="fill:#43a2ca;opacity:0.8;"/>
   </g>
   <g id="patch_98">
    <path clip-path="url(#pad92e0d3a2)" d="M 302.924936 299.078125 
L 307.47066 299.078125 
L 307.47066 229.643204 
L 302.924936 229.643204 
z
" style="fill:#43a2ca;opacity:0.8;"/>
   </g>
   <g id="patch_99">
    <path clip-path="url(#pad92e0d3a2)" d="M 307.974932 299.078125 
L 312.520657 299.078125 
L 312.520657 264.360665 
L 307.974932 264.360665 
z
" style="fill:#43a2ca;opacity:0.8;"/>
   </g>
   <g id="patch_100">
    <path clip-path="url(#pad92e0d3a2)" d="M 313.024928 299.078125 
L 317.570653 299.078125 
L 317.570653 299.078125 
L 313.024928 299.078125 
z
" style="fill:#43a2ca;opacity:0.8;"/>
   </g>
   <g id="patch_101">
    <path clip-path="url(#pad92e0d3a2)" d="M 318.074925 299.078125 
L 322.620649 299.078125 
L 322.620649 281.719395 
L 318.074925 281.719395 
z
" style="fill:#43a2ca;opacity:0.8;"/>
   </g>
   <g id="patch_102">
    <path clip-path="url(#pad92e0d3a2)" d="M 323.124921 299.078125 
L 327.670645 299.078125 
L 327.670645 281.719395 
L 323.124921 281.719395 
z
" style="fill:#43a2ca;opacity:0.8;"/>
   </g>
   <g id="patch_103">
    <path clip-path="url(#pad92e0d3a2)" d="M 328.174917 299.078125 
L 332.720641 299.078125 
L 332.720641 264.360665 
L 328.174917 264.360665 
z
" style="fill:#43a2ca;opacity:0.8;"/>
   </g>
   <g id="patch_104">
    <path clip-path="url(#pad92e0d3a2)" d="M 333.224913 299.078125 
L 337.770637 299.078125 
L 337.770637 281.719395 
L 333.224913 281.719395 
z
" style="fill:#43a2ca;opacity:0.8;"/>
   </g>
   <g id="patch_105">
    <path clip-path="url(#pad92e0d3a2)" d="M 338.274909 299.078125 
L 342.820633 299.078125 
L 342.820633 264.360665 
L 338.274909 264.360665 
z
" style="fill:#43a2ca;opacity:0.8;"/>
   </g>
   <g id="patch_106">
    <path clip-path="url(#pad92e0d3a2)" d="M 343.324905 299.078125 
L 347.870629 299.078125 
L 347.870629 299.078125 
L 343.324905 299.078125 
z
" style="fill:#43a2ca;opacity:0.8;"/>
   </g>
   <g id="patch_107">
    <path clip-path="url(#pad92e0d3a2)" d="M 348.374901 299.078125 
L 352.920625 299.078125 
L 352.920625 299.078125 
L 348.374901 299.078125 
z
" style="fill:#43a2ca;opacity:0.8;"/>
   </g>
   <g id="patch_108">
    <path clip-path="url(#pad92e0d3a2)" d="M 353.424897 299.078125 
L 357.970622 299.078125 
L 357.970622 299.078125 
L 353.424897 299.078125 
z
" style="fill:#43a2ca;opacity:0.8;"/>
   </g>
   <g id="patch_109">
    <path clip-path="url(#pad92e0d3a2)" d="M 358.474893 299.078125 
L 363.020618 299.078125 
L 363.020618 299.078125 
L 358.474893 299.078125 
z
" style="fill:#43a2ca;opacity:0.8;"/>
   </g>
   <g id="patch_110">
    <path clip-path="url(#pad92e0d3a2)" d="M 363.52489 299.078125 
L 368.070614 299.078125 
L 368.070614 281.719395 
L 363.52489 281.719395 
z
" style="fill:#43a2ca;opacity:0.8;"/>
   </g>
   <g id="patch_111">
    <path clip-path="url(#pad92e0d3a2)" d="M 368.574886 299.078125 
L 373.12061 299.078125 
L 373.12061 247.001935 
L 368.574886 247.001935 
z
" style="fill:#43a2ca;opacity:0.8;"/>
   </g>
   <g id="patch_112">
    <path clip-path="url(#pad92e0d3a2)" d="M 373.624882 299.078125 
L 378.170606 299.078125 
L 378.170606 281.719395 
L 373.624882 281.719395 
z
" style="fill:#43a2ca;opacity:0.8;"/>
   </g>
   <g id="patch_113">
    <path clip-path="url(#pad92e0d3a2)" d="M 378.674878 299.078125 
L 383.220602 299.078125 
L 383.220602 299.078125 
L 378.674878 299.078125 
z
" style="fill:#43a2ca;opacity:0.8;"/>
   </g>
   <g id="patch_114">
    <path clip-path="url(#pad92e0d3a2)" d="M 383.724874 299.078125 
L 388.270598 299.078125 
L 388.270598 299.078125 
L 383.724874 299.078125 
z
" style="fill:#43a2ca;opacity:0.8;"/>
   </g>
   <g id="patch_115">
    <path clip-path="url(#pad92e0d3a2)" d="M 388.77487 299.078125 
L 393.320594 299.078125 
L 393.320594 299.078125 
L 388.77487 299.078125 
z
" style="fill:#43a2ca;opacity:0.8;"/>
   </g>
   <g id="patch_116">
    <path clip-path="url(#pad92e0d3a2)" d="M 393.824866 299.078125 
L 398.37059 299.078125 
L 398.37059 281.719395 
L 393.824866 281.719395 
z
" style="fill:#43a2ca;opacity:0.8;"/>
   </g>
   <g id="matplotlib.axis_3">
    <g id="xtick_6">
     <g id="line2d_15">
      <g>
       <use style="stroke:#000000;stroke-width:0.8;" x="170.202486" xlink:href="#m4ece64e7c3" y="299.078125"/>
      </g>
     </g>
     <g id="text_17">
      <!-- −0.4 -->
      <g transform="translate(158.061079 313.676562)scale(0.1 -0.1)">
       <use xlink:href="#DejaVuSans-8722"/>
       <use x="83.789062" xlink:href="#DejaVuSans-48"/>
       <use x="147.412109" xlink:href="#DejaVuSans-46"/>
       <use x="179.199219" xlink:href="#DejaVuSans-52"/>
      </g>
     </g>
    </g>
    <g id="xtick_7">
     <g id="line2d_16">
      <g>
       <use style="stroke:#000000;stroke-width:0.8;" x="226.620531" xlink:href="#m4ece64e7c3" y="299.078125"/>
      </g>
     </g>
     <g id="text_18">
      <!-- −0.2 -->
      <g transform="translate(214.479124 313.676562)scale(0.1 -0.1)">
       <use xlink:href="#DejaVuSans-8722"/>
       <use x="83.789062" xlink:href="#DejaVuSans-48"/>
       <use x="147.412109" xlink:href="#DejaVuSans-46"/>
       <use x="179.199219" xlink:href="#DejaVuSans-50"/>
      </g>
     </g>
    </g>
    <g id="xtick_8">
     <g id="line2d_17">
      <g>
       <use style="stroke:#000000;stroke-width:0.8;" x="283.038575" xlink:href="#m4ece64e7c3" y="299.078125"/>
      </g>
     </g>
     <g id="text_19">
      <!-- 0.0 -->
      <g transform="translate(275.087013 313.676562)scale(0.1 -0.1)">
       <use xlink:href="#DejaVuSans-48"/>
       <use x="63.623047" xlink:href="#DejaVuSans-46"/>
       <use x="95.410156" xlink:href="#DejaVuSans-48"/>
      </g>
     </g>
    </g>
    <g id="xtick_9">
     <g id="line2d_18">
      <g>
       <use style="stroke:#000000;stroke-width:0.8;" x="339.45662" xlink:href="#m4ece64e7c3" y="299.078125"/>
      </g>
     </g>
     <g id="text_20">
      <!-- 0.2 -->
      <g transform="translate(331.505058 313.676562)scale(0.1 -0.1)">
       <use xlink:href="#DejaVuSans-48"/>
       <use x="63.623047" xlink:href="#DejaVuSans-46"/>
       <use x="95.410156" xlink:href="#DejaVuSans-50"/>
      </g>
     </g>
    </g>
    <g id="xtick_10">
     <g id="line2d_19">
      <g>
       <use style="stroke:#000000;stroke-width:0.8;" x="395.874665" xlink:href="#m4ece64e7c3" y="299.078125"/>
      </g>
     </g>
     <g id="text_21">
      <!-- 0.4 -->
      <g transform="translate(387.923103 313.676562)scale(0.1 -0.1)">
       <use xlink:href="#DejaVuSans-48"/>
       <use x="63.623047" xlink:href="#DejaVuSans-46"/>
       <use x="95.410156" xlink:href="#DejaVuSans-52"/>
      </g>
     </g>
    </g>
    <g id="text_22">
     <!-- Rho value -->
     <g transform="translate(264.207656 327.354687)scale(0.1 -0.1)">
      <defs>
       <path d="M 44.390625 34.1875 
Q 47.5625 33.109375 50.5625 29.59375 
Q 53.5625 26.078125 56.59375 19.921875 
L 66.609375 0 
L 56 0 
L 46.6875 18.703125 
Q 43.0625 26.03125 39.671875 28.421875 
Q 36.28125 30.8125 30.421875 30.8125 
L 19.671875 30.8125 
L 19.671875 0 
L 9.8125 0 
L 9.8125 72.90625 
L 32.078125 72.90625 
Q 44.578125 72.90625 50.734375 67.671875 
Q 56.890625 62.453125 56.890625 51.90625 
Q 56.890625 45.015625 53.6875 40.46875 
Q 50.484375 35.9375 44.390625 34.1875 
z
M 19.671875 64.796875 
L 19.671875 38.921875 
L 32.078125 38.921875 
Q 39.203125 38.921875 42.84375 42.21875 
Q 46.484375 45.515625 46.484375 51.90625 
Q 46.484375 58.296875 42.84375 61.546875 
Q 39.203125 64.796875 32.078125 64.796875 
z
" id="DejaVuSans-82"/>
      </defs>
      <use xlink:href="#DejaVuSans-82"/>
      <use x="69.482422" xlink:href="#DejaVuSans-104"/>
      <use x="132.861328" xlink:href="#DejaVuSans-111"/>
      <use x="194.042969" xlink:href="#DejaVuSans-32"/>
      <use x="225.830078" xlink:href="#DejaVuSans-118"/>
      <use x="285.009766" xlink:href="#DejaVuSans-97"/>
      <use x="346.289062" xlink:href="#DejaVuSans-108"/>
      <use x="374.072266" xlink:href="#DejaVuSans-117"/>
      <use x="437.451172" xlink:href="#DejaVuSans-101"/>
     </g>
    </g>
   </g>
   <g id="matplotlib.axis_4">
    <g id="ytick_10">
     <g id="line2d_20">
      <g>
       <use style="stroke:#000000;stroke-width:0.8;" x="132.096875" xlink:href="#m8d2ccf9e82" y="299.078125"/>
      </g>
     </g>
     <g id="text_23">
      <!-- 0 -->
      <g transform="translate(118.734375 302.877344)scale(0.1 -0.1)">
       <use xlink:href="#DejaVuSans-48"/>
      </g>
     </g>
    </g>
    <g id="ytick_11">
     <g id="line2d_21">
      <g>
       <use style="stroke:#000000;stroke-width:0.8;" x="132.096875" xlink:href="#m8d2ccf9e82" y="264.360665"/>
      </g>
     </g>
     <g id="text_24">
      <!-- 2 -->
      <g transform="translate(118.734375 268.159883)scale(0.1 -0.1)">
       <use xlink:href="#DejaVuSans-50"/>
      </g>
     </g>
    </g>
    <g id="ytick_12">
     <g id="line2d_22">
      <g>
       <use style="stroke:#000000;stroke-width:0.8;" x="132.096875" xlink:href="#m8d2ccf9e82" y="229.643204"/>
      </g>
     </g>
     <g id="text_25">
      <!-- 4 -->
      <g transform="translate(118.734375 233.442423)scale(0.1 -0.1)">
       <use xlink:href="#DejaVuSans-52"/>
      </g>
     </g>
    </g>
    <g id="ytick_13">
     <g id="line2d_23">
      <g>
       <use style="stroke:#000000;stroke-width:0.8;" x="132.096875" xlink:href="#m8d2ccf9e82" y="194.925744"/>
      </g>
     </g>
     <g id="text_26">
      <!-- 6 -->
      <g transform="translate(118.734375 198.724963)scale(0.1 -0.1)">
       <defs>
        <path d="M 33.015625 40.375 
Q 26.375 40.375 22.484375 35.828125 
Q 18.609375 31.296875 18.609375 23.390625 
Q 18.609375 15.53125 22.484375 10.953125 
Q 26.375 6.390625 33.015625 6.390625 
Q 39.65625 6.390625 43.53125 10.953125 
Q 47.40625 15.53125 47.40625 23.390625 
Q 47.40625 31.296875 43.53125 35.828125 
Q 39.65625 40.375 33.015625 40.375 
z
M 52.59375 71.296875 
L 52.59375 62.3125 
Q 48.875 64.0625 45.09375 64.984375 
Q 41.3125 65.921875 37.59375 65.921875 
Q 27.828125 65.921875 22.671875 59.328125 
Q 17.53125 52.734375 16.796875 39.40625 
Q 19.671875 43.65625 24.015625 45.921875 
Q 28.375 48.1875 33.59375 48.1875 
Q 44.578125 48.1875 50.953125 41.515625 
Q 57.328125 34.859375 57.328125 23.390625 
Q 57.328125 12.15625 50.6875 5.359375 
Q 44.046875 -1.421875 33.015625 -1.421875 
Q 20.359375 -1.421875 13.671875 8.265625 
Q 6.984375 17.96875 6.984375 36.375 
Q 6.984375 53.65625 15.1875 63.9375 
Q 23.390625 74.21875 37.203125 74.21875 
Q 40.921875 74.21875 44.703125 73.484375 
Q 48.484375 72.75 52.59375 71.296875 
z
" id="DejaVuSans-54"/>
       </defs>
       <use xlink:href="#DejaVuSans-54"/>
      </g>
     </g>
    </g>
    <g id="text_27">
     <!-- Number of bacteria -->
     <g transform="translate(112.654688 293.014531)rotate(-90)scale(0.1 -0.1)">
      <defs>
       <path d="M 9.8125 72.90625 
L 23.09375 72.90625 
L 55.421875 11.921875 
L 55.421875 72.90625 
L 64.984375 72.90625 
L 64.984375 0 
L 51.703125 0 
L 19.390625 60.984375 
L 19.390625 0 
L 9.8125 0 
z
" id="DejaVuSans-78"/>
      </defs>
      <use xlink:href="#DejaVuSans-78"/>
      <use x="74.804688" xlink:href="#DejaVuSans-117"/>
      <use x="138.183594" xlink:href="#DejaVuSans-109"/>
      <use x="235.595703" xlink:href="#DejaVuSans-98"/>
      <use x="299.072266" xlink:href="#DejaVuSans-101"/>
      <use x="360.595703" xlink:href="#DejaVuSans-114"/>
      <use x="401.708984" xlink:href="#DejaVuSans-32"/>
      <use x="433.496094" xlink:href="#DejaVuSans-111"/>
      <use x="494.677734" xlink:href="#DejaVuSans-102"/>
      <use x="529.882812" xlink:href="#DejaVuSans-32"/>
      <use x="561.669922" xlink:href="#DejaVuSans-98"/>
      <use x="625.146484" xlink:href="#DejaVuSans-97"/>
      <use x="686.425781" xlink:href="#DejaVuSans-99"/>
      <use x="741.40625" xlink:href="#DejaVuSans-116"/>
      <use x="780.615234" xlink:href="#DejaVuSans-101"/>
      <use x="842.138672" xlink:href="#DejaVuSans-114"/>
      <use x="883.251953" xlink:href="#DejaVuSans-105"/>
      <use x="911.035156" xlink:href="#DejaVuSans-97"/>
     </g>
    </g>
   </g>
   <g id="patch_117">
    <path d="M 132.096875 299.078125 
L 132.096875 189.718125 
" style="fill:none;stroke:#000000;stroke-linecap:square;stroke-linejoin:miter;stroke-width:0.8;"/>
   </g>
   <g id="patch_118">
    <path d="M 446.216875 299.078125 
L 446.216875 189.718125 
" style="fill:none;stroke:#000000;stroke-linecap:square;stroke-linejoin:miter;stroke-width:0.8;"/>
   </g>
   <g id="patch_119">
    <path d="M 132.096875 299.078125 
L 446.216875 299.078125 
" style="fill:none;stroke:#000000;stroke-linecap:square;stroke-linejoin:miter;stroke-width:0.8;"/>
   </g>
   <g id="patch_120">
    <path d="M 132.096875 189.718125 
L 446.216875 189.718125 
" style="fill:none;stroke:#000000;stroke-linecap:square;stroke-linejoin:miter;stroke-width:0.8;"/>
   </g>
   <g id="text_28">
    <!-- Real tags vs. Mixed tags at year of aliyah number -->
    <g transform="translate(140.183438 183.718125)scale(0.12 -0.12)">
     <defs>
      <path d="M 54.890625 54.6875 
L 35.109375 28.078125 
L 55.90625 0 
L 45.3125 0 
L 29.390625 21.484375 
L 13.484375 0 
L 2.875 0 
L 24.125 28.609375 
L 4.6875 54.6875 
L 15.28125 54.6875 
L 29.78125 35.203125 
L 44.28125 54.6875 
z
" id="DejaVuSans-120"/>
      <path d="M 45.40625 46.390625 
L 45.40625 75.984375 
L 54.390625 75.984375 
L 54.390625 0 
L 45.40625 0 
L 45.40625 8.203125 
Q 42.578125 3.328125 38.25 0.953125 
Q 33.9375 -1.421875 27.875 -1.421875 
Q 17.96875 -1.421875 11.734375 6.484375 
Q 5.515625 14.40625 5.515625 27.296875 
Q 5.515625 40.1875 11.734375 48.09375 
Q 17.96875 56 27.875 56 
Q 33.9375 56 38.25 53.625 
Q 42.578125 51.265625 45.40625 46.390625 
z
M 14.796875 27.296875 
Q 14.796875 17.390625 18.875 11.75 
Q 22.953125 6.109375 30.078125 6.109375 
Q 37.203125 6.109375 41.296875 11.75 
Q 45.40625 17.390625 45.40625 27.296875 
Q 45.40625 37.203125 41.296875 42.84375 
Q 37.203125 48.484375 30.078125 48.484375 
Q 22.953125 48.484375 18.875 42.84375 
Q 14.796875 37.203125 14.796875 27.296875 
z
" id="DejaVuSans-100"/>
     </defs>
     <use xlink:href="#DejaVuSans-82"/>
     <use x="64.982422" xlink:href="#DejaVuSans-101"/>
     <use x="126.505859" xlink:href="#DejaVuSans-97"/>
     <use x="187.785156" xlink:href="#DejaVuSans-108"/>
     <use x="215.568359" xlink:href="#DejaVuSans-32"/>
     <use x="247.355469" xlink:href="#DejaVuSans-116"/>
     <use x="286.564453" xlink:href="#DejaVuSans-97"/>
     <use x="347.84375" xlink:href="#DejaVuSans-103"/>
     <use x="411.320312" xlink:href="#DejaVuSans-115"/>
     <use x="463.419922" xlink:href="#DejaVuSans-32"/>
     <use x="495.207031" xlink:href="#DejaVuSans-118"/>
     <use x="554.386719" xlink:href="#DejaVuSans-115"/>
     <use x="606.486328" xlink:href="#DejaVuSans-46"/>
     <use x="638.273438" xlink:href="#DejaVuSans-32"/>
     <use x="670.060547" xlink:href="#DejaVuSans-77"/>
     <use x="756.339844" xlink:href="#DejaVuSans-105"/>
     <use x="784.123047" xlink:href="#DejaVuSans-120"/>
     <use x="840.177734" xlink:href="#DejaVuSans-101"/>
     <use x="901.701172" xlink:href="#DejaVuSans-100"/>
     <use x="965.177734" xlink:href="#DejaVuSans-32"/>
     <use x="996.964844" xlink:href="#DejaVuSans-116"/>
     <use x="1036.173828" xlink:href="#DejaVuSans-97"/>
     <use x="1097.453125" xlink:href="#DejaVuSans-103"/>
     <use x="1160.929688" xlink:href="#DejaVuSans-115"/>
     <use x="1213.029297" xlink:href="#DejaVuSans-32"/>
     <use x="1244.816406" xlink:href="#DejaVuSans-97"/>
     <use x="1306.095703" xlink:href="#DejaVuSans-116"/>
     <use x="1345.304688" xlink:href="#DejaVuSans-32"/>
     <use x="1377.091797" xlink:href="#DejaVuSans-121"/>
     <use x="1436.271484" xlink:href="#DejaVuSans-101"/>
     <use x="1497.794922" xlink:href="#DejaVuSans-97"/>
     <use x="1559.074219" xlink:href="#DejaVuSans-114"/>
     <use x="1600.1875" xlink:href="#DejaVuSans-32"/>
     <use x="1631.974609" xlink:href="#DejaVuSans-111"/>
     <use x="1693.15625" xlink:href="#DejaVuSans-102"/>
     <use x="1728.361328" xlink:href="#DejaVuSans-32"/>
     <use x="1760.148438" xlink:href="#DejaVuSans-97"/>
     <use x="1821.427734" xlink:href="#DejaVuSans-108"/>
     <use x="1849.210938" xlink:href="#DejaVuSans-105"/>
     <use x="1876.994141" xlink:href="#DejaVuSans-121"/>
     <use x="1936.173828" xlink:href="#DejaVuSans-97"/>
     <use x="1997.453125" xlink:href="#DejaVuSans-104"/>
     <use x="2060.832031" xlink:href="#DejaVuSans-32"/>
     <use x="2092.619141" xlink:href="#DejaVuSans-110"/>
     <use x="2155.998047" xlink:href="#DejaVuSans-117"/>
     <use x="2219.376953" xlink:href="#DejaVuSans-109"/>
     <use x="2316.789062" xlink:href="#DejaVuSans-98"/>
     <use x="2380.265625" xlink:href="#DejaVuSans-101"/>
     <use x="2441.789062" xlink:href="#DejaVuSans-114"/>
    </g>
   </g>
   <g id="legend_1">
    <g id="patch_121">
     <path d="M 352.918437 227.074375 
L 439.216875 227.074375 
Q 441.216875 227.074375 441.216875 225.074375 
L 441.216875 196.718125 
Q 441.216875 194.718125 439.216875 194.718125 
L 352.918437 194.718125 
Q 350.918437 194.718125 350.918437 196.718125 
L 350.918437 225.074375 
Q 350.918437 227.074375 352.918437 227.074375 
z
" style="fill:#ffffff;opacity:0.8;stroke:#cccccc;stroke-linejoin:miter;"/>
    </g>
    <g id="patch_122">
     <path d="M 354.918437 206.316562 
L 374.918437 206.316562 
L 374.918437 199.316562 
L 354.918437 199.316562 
z
" style="fill:#d95f0e;opacity:0.5;"/>
    </g>
    <g id="text_29">
     <!-- Mixed tags -->
     <g transform="translate(382.918437 206.316562)scale(0.1 -0.1)">
      <use xlink:href="#DejaVuSans-77"/>
      <use x="86.279297" xlink:href="#DejaVuSans-105"/>
      <use x="114.0625" xlink:href="#DejaVuSans-120"/>
      <use x="170.117188" xlink:href="#DejaVuSans-101"/>
      <use x="231.640625" xlink:href="#DejaVuSans-100"/>
      <use x="295.117188" xlink:href="#DejaVuSans-32"/>
      <use x="326.904297" xlink:href="#DejaVuSans-116"/>
      <use x="366.113281" xlink:href="#DejaVuSans-97"/>
      <use x="427.392578" xlink:href="#DejaVuSans-103"/>
      <use x="490.869141" xlink:href="#DejaVuSans-115"/>
     </g>
    </g>
    <g id="patch_123">
     <path d="M 354.918437 220.994687 
L 374.918437 220.994687 
L 374.918437 213.994687 
L 354.918437 213.994687 
z
" style="fill:#43a2ca;opacity:0.8;"/>
    </g>
    <g id="text_30">
     <!-- Real tags -->
     <g transform="translate(382.918437 220.994687)scale(0.1 -0.1)">
      <use xlink:href="#DejaVuSans-82"/>
      <use x="64.982422" xlink:href="#DejaVuSans-101"/>
      <use x="126.505859" xlink:href="#DejaVuSans-97"/>
      <use x="187.785156" xlink:href="#DejaVuSans-108"/>
      <use x="215.568359" xlink:href="#DejaVuSans-32"/>
      <use x="247.355469" xlink:href="#DejaVuSans-116"/>
      <use x="286.564453" xlink:href="#DejaVuSans-97"/>
      <use x="347.84375" xlink:href="#DejaVuSans-103"/>
      <use x="411.320312" xlink:href="#DejaVuSans-115"/>
     </g>
    </g>
   </g>
  </g>
 </g>
 <defs>
  <clipPath id="p4d870e32a1">
   <rect height="109.36" width="314.12" x="132.096875" y="22.318125"/>
  </clipPath>
  <clipPath id="pad92e0d3a2">
   <rect height="109.36" width="314.12" x="132.096875" y="189.718125"/>
  </clipPath>
 </defs>
</svg>
